<svg width="50" height="50" viewBox="0 0 50 50" fill="none" xmlns="http://www.w3.org/2000/svg">
<path fill-rule="evenodd" clip-rule="evenodd" d="M43.1875 14.8339L42.8958 14.3131C42.5197 13.6832 41.989 13.1598 41.3542 12.7922L27.375 4.72974C26.742 4.36254 26.0235 4.16853 25.2917 4.16724H24.6875C23.9557 4.16853 23.2372 4.36254 22.6042 4.72974L8.625 12.8131C7.9937 13.1782 7.46928 13.7026 7.10417 14.3339L6.8125 14.8547C6.44531 15.4877 6.2513 16.2063 6.25 16.9381V33.0839C6.2513 33.8157 6.44531 34.5342 6.8125 35.1672L7.10417 35.6881C7.47873 36.3121 8.00101 36.8343 8.625 37.2089L22.625 45.2714C23.2548 45.6462 23.9755 45.8408 24.7083 45.8339H25.2917C26.0235 45.8326 26.742 45.6386 27.375 45.2714L41.3542 37.1881C41.9918 36.8312 42.5181 36.3048 42.875 35.6672L43.1875 35.1464C43.5502 34.5116 43.7439 33.7942 43.75 33.0631V16.9172C43.7487 16.1854 43.5547 15.4669 43.1875 14.8339ZM24.6875 8.33441H25.2917L37.5 15.3761L25 22.5844L12.5 15.3761L24.6875 8.33441ZM27.0836 40.6254L39.2711 33.5837L39.5836 33.0629V18.9796L27.0836 26.2087V40.6254Z" fill="white"/>
</svg>
