<svg xmlns="http://www.w3.org/2000/svg" xmlns:xlink="http://www.w3.org/1999/xlink" width="74" height="74" viewBox="0 0 74 74">
  <defs>
    <clipPath id="clip-path">
      <path id="Path_479166" data-name="Path 479166" d="M0,0H74V74H0Z" transform="translate(-5030 -2670)" fill="#4e4c4c" opacity="0.43" clip-rule="evenodd"/>
    </clipPath>
  </defs>
  <g id="algo" transform="translate(5030 2670)" clip-path="url(#clip-path)">
    <g id="hashing_algo" data-name="hashing algo" transform="translate(-60.618 237)">
      <g id="Group_10873" data-name="Group 10873" transform="translate(383.878 172)">
        <path id="Path_479162" data-name="Path 479162" d="M0,14.524V32.546a5.55,5.55,0,0,0,2.721,4.771l15.6,9.006a5.426,5.426,0,0,0,5.49,0l15.6-9.006a5.552,5.552,0,0,0,2.722-4.771V14.524a5.555,5.555,0,0,0-2.722-4.771L23.811.747a5.425,5.425,0,0,0-5.49,0L2.722,9.753A5.555,5.555,0,0,0,0,14.524Z" transform="translate(-5337.26 -3066)" fill="#4c80ee" fill-rule="evenodd"/>
        <path id="Path_479163" data-name="Path 479163" d="M1,11.348a5.343,5.343,0,0,1,1.723-1.6l15.6-9a5.422,5.422,0,0,1,5.49,0l15.6,9.006a5.321,5.321,0,0,1,1.723,1.6,8.511,8.511,0,0,1-2.838,2.291c-4.826,2.785-9.669,5.532-14.485,8.313a5.422,5.422,0,0,1-5.49,0c-4.811-2.783-9.654-5.53-14.481-8.315A8.5,8.5,0,0,1,1,11.348Z" transform="translate(-5337.26 -3066)" fill="#fff" fill-rule="evenodd" opacity="0.55"/>
        <path id="Path_479164" data-name="Path 479164" d="M18.319,21.952c-4.813-2.781-9.657-5.528-14.483-8.313A8.5,8.5,0,0,1,1,11.348a5.627,5.627,0,0,0-1,3.175V32.545a5.62,5.62,0,0,0,1,3.173,8.537,8.537,0,0,1,2.838-2.291C8.66,30.642,13.5,27.9,18.319,25.114a5.425,5.425,0,0,1,5.492,0C28.626,27.9,33.47,30.642,38.3,33.427a8.49,8.49,0,0,1,2.838,2.291,5.607,5.607,0,0,0,1-3.173V14.523a5.613,5.613,0,0,0-1-3.173A8.537,8.537,0,0,1,38.3,13.641c-4.826,2.785-9.669,5.532-14.485,8.313a5.419,5.419,0,0,1-5.492,0Z" transform="translate(-5337.26 -3066)" fill="#fff" fill-rule="evenodd" opacity="0.2"/>
        <path id="Path_479165" data-name="Path 479165" d="M9.739,28.378V18.688A2.976,2.976,0,0,1,11.2,16.123l8.387-4.843a2.921,2.921,0,0,1,2.953,0l8.387,4.843a2.974,2.974,0,0,1,1.463,2.565v9.691a2.98,2.98,0,0,1-1.463,2.565l-8.387,4.843a2.921,2.921,0,0,1-2.953,0L11.2,30.945A2.984,2.984,0,0,1,9.739,28.378Z" transform="translate(-5337.26 -3066)" fill="#fff" fill-rule="evenodd" opacity="0.3"/>
      </g>
    </g>
  </g>
</svg>
