<svg xmlns="http://www.w3.org/2000/svg" xmlns:xlink="http://www.w3.org/1999/xlink" width="197.684" height="76.684" viewBox="0 0 197.684 76.684">
  <defs>
    <linearGradient id="linear-gradient" x1="0.22" y1="0.234" x2="0.697" y2="1.084" gradientUnits="objectBoundingBox">
      <stop offset="0" stop-color="#2aabe3"/>
      <stop offset="1" stop-color="#30358c"/>
    </linearGradient>
    <linearGradient id="linear-gradient-2" x1="0.785" y1="0.152" x2="0.353" y2="0.805" gradientUnits="objectBoundingBox">
      <stop offset="0" stop-color="#010102"/>
      <stop offset="1" stop-color="#010102"/>
    </linearGradient>
    <radialGradient id="radial-gradient" cx="0.5" cy="0.5" r="0.737" gradientTransform="translate(0.227) scale(0.547 1)" gradientUnits="objectBoundingBox">
      <stop offset="0" stop-color="#fff"/>
      <stop offset="1" stop-color="#fff"/>
    </radialGradient>
  </defs>
  <g id="AtlasCloud-LogoPack2-04" transform="translate(-183.246 -150.088)">
    <g id="Text">
      <path id="Path_476643" data-name="Path 476643" d="M293.08,178.81h-7.77l-1.46,4h-5.44l8.44-19h4.86l8.34,19h-5.53Zm-1.51-4-2.35-5.89-2.38,5.88Z" fill="#50483c"/>
      <path id="Path_476644" data-name="Path 476644" d="M307.62,167.81h-5v-4h16v4h-6v14h-5Z" fill="#50483c"/>
      <path id="Path_476645" data-name="Path 476645" d="M323.63,163.81h4.95v14h9v4h-14Z" fill="#50483c"/>
      <path id="Path_476646" data-name="Path 476646" d="M354.3,178.81h-7.78l-1.45,3h-5.22l8-18h5.29l7.91,18h-5.32Zm-1.51-4-2.35-5.89-2.38,5.88Z" fill="#50483c"/>
      <path id="Path_476647" data-name="Path 476647" d="M364,180.7l1.72-3.83a11.44,11.44,0,0,0,6.06,1.83c2.15,0,3-.59,3-1.49,0-2.91-10.44-.81-10.43-7.64,0-3.28,2.7-5.95,8.16-5.94a13.88,13.88,0,0,1,6.67,1.62l-1.62,3.86a10.9,10.9,0,0,0-5.09-1.44c-2.18,0-3,.73-3,1.65,0,2.81,10.43.74,10.41,7.51,0,3.21-2.7,5.93-8.16,5.92A14.42,14.42,0,0,1,364,180.7Z" fill="#50483c"/>
      <path id="Path_476648" data-name="Path 476648" d="M280.05,203.2c0-5.13,3.94-8.87,9.22-8.85a8.58,8.58,0,0,1,6.59,2.72l-1.62,1.56a6.39,6.39,0,0,0-4.88-2.07,6.67,6.67,0,1,0,0,13.34,6.47,6.47,0,0,0,4.89-2.07l1.61,1.56a8.63,8.63,0,0,1-6.63,2.71C283.94,212.09,280,208.33,280.05,203.2Z" fill="#50483c"/>
      <path id="Path_476649" data-name="Path 476649" d="M301.63,194.81h2.95v15h9v2h-12Z" fill="#50483c"/>
      <path id="Path_476650" data-name="Path 476650" d="M317.66,203.3c0-5.08,3.94-8.86,9.27-8.85s9.19,3.8,9.17,8.9-3.94,8.87-9.22,8.86S317.64,208.39,317.66,203.3Zm16,0a6.75,6.75,0,1,0-6.74,6.65,6.52,6.52,0,0,0,6.71-6.6Z" fill="#50483c"/>
      <path id="Path_476651" data-name="Path 476651" d="M341.58,204.56V193.81h3v10.66c.11,3.84,1.87,5.58,5,5.59s4.91-1.72,5-5.57v-9.68h2v9.79c.31,5-2.45,7.68-7,7.67S342.21,209.59,341.58,204.56Z" fill="#50483c"/>
      <path id="Path_476652" data-name="Path 476652" d="M364.63,194.81h7.16c5.45,0,9.16,3.46,9.14,8.51s-3.73,8.48-9.19,8.47h-7.16Zm6.59,15c4.28,0,7-2.6,7-6.49s-2.73-6.51-7-6.52h-4.68v13Z" fill="#50483c"/>
    </g>
    <path id="Path_476653" data-name="Path 476653" d="M244,191.19l4,6.93c1.86,3.25,4.51,6.46,3.5,10.42a8.5,8.5,0,0,1-7.45,6.2,8.24,8.24,0,0,1-5.41-1.76l-4.15-3c-2.54-1.86-6.8-.51-8.2,2.15-1.92,3.63.08,6.62,3,8.81,4.22,3.2,8.6,5.71,14,5.83a20.14,20.14,0,0,0,17.52-30.46c-1.34-2.34-2.7-4.67-4-7q-8.61-15-17.33-30a18.59,18.59,0,0,0-32.39.49c-1.52,2.61-3,5.23-4.53,7.84l-13.8,23.9c-1.14,2-2.38,3.92-3.39,6-3.81,7.76-2.57,17.85,4.33,23.51a19.75,19.75,0,0,0,19.24,3.52,20.79,20.79,0,0,0,10.66-9.27q9.69-16.41,19.39-32.82L232,170.45l-19.9,33.7c-1.11,1.87-2.21,3.75-3.32,5.61a8.24,8.24,0,0,1-2.95,3,7.38,7.38,0,0,1-4.84.74,7.54,7.54,0,0,1-3.45-1.53,6.93,6.93,0,0,1-2.43-4.45c-.33-2.45.69-4.44,1.88-6.49,6.88-11.92,13.59-23.94,20.64-35.76a6.71,6.71,0,0,1,5.74-3.36,6.59,6.59,0,0,1,3.87,1.27c1.36,1,2,2.49,2.82,3.91Z" fill="url(#linear-gradient)"/>
    <g id="Group_10262" data-name="Group 10262">
      <path id="Path_476654" data-name="Path 476654" d="M192.5,222.91a19.35,19.35,0,0,0,16.35,1.55,20.79,20.79,0,0,0,10.66-9.27q9.69-16.41,19.39-32.82L232,170.45l-19.9,33.7c-1.11,1.87-2.21,3.75-3.32,5.61a8.24,8.24,0,0,1-2.95,3,7.38,7.38,0,0,1-4.84.74,7.81,7.81,0,0,1-2.57-.93" opacity="0.5" fill="url(#linear-gradient-2)"/>
    </g>
    <g id="Group_10263" data-name="Group 10263">
      <path id="Path_476655" data-name="Path 476655" d="M208,181.93c3.18-5.54,6.38-11.07,9.65-16.55a6.7,6.7,0,0,1,5.74-3.36,6.58,6.58,0,0,1,3.87,1.26c1.36,1,2,2.5,2.82,3.91l8.51,14.74h13.86q-6.51-11.3-13.05-22.58a18.58,18.58,0,0,0-32.39.48c-1.52,2.61-3,5.23-4.53,7.84l-8.23,14.26Z" opacity="0.6" fill="url(#radial-gradient)"/>
    </g>
  </g>
</svg>
