<svg xmlns="http://www.w3.org/2000/svg" width="197.93" height="76.734" viewBox="0 0 197.93 76.734">
  <g id="AtlasCloud-LogoPack2-08" transform="translate(-183.221 -150.027)">
    <g id="Text">
      <path id="Path_476618" data-name="Path 476618" d="M293.08,178.59H285.3l-1.45,3.57h-5.31l8.17-18.37h5.12l8.09,18.4h-5.41Zm-1.52-3.84-2.34-5.88-2.38,5.87Z" fill="#fff"/>
      <path id="Path_476619" data-name="Path 476619" d="M308,168h-5.64v-4.12h16.46V168H313.2v14.26H308Z" fill="#fff"/>
      <path id="Path_476620" data-name="Path 476620" d="M323.37,163.87h5.2v14.26h8.77v4.13h-14Z" fill="#fff"/>
      <path id="Path_476621" data-name="Path 476621" d="M354.29,178.76h-7.77l-1.45,3.57h-5.31l8.17-18.36h5.12l8.09,18.4h-5.41Zm-1.51-3.84L350.43,169l-2.38,5.88Z" fill="#fff"/>
      <path id="Path_476622" data-name="Path 476622" d="M364,180.7l1.72-3.83a11.49,11.49,0,0,0,6.06,1.83c2.16,0,3-.59,3-1.49,0-2.91-10.45-.81-10.43-7.64,0-3.28,2.7-5.95,8.16-5.94a13.84,13.84,0,0,1,6.66,1.62l-1.61,3.86a11,11,0,0,0-5.09-1.44c-2.18,0-3,.73-3,1.65,0,2.81,10.42.74,10.4,7.51,0,3.21-2.69,5.93-8.15,5.92A14.49,14.49,0,0,1,364,180.7Z" fill="#fff"/>
      <path id="Path_476623" data-name="Path 476623" d="M280.05,203.2c0-5.13,3.94-8.87,9.22-8.85a8.58,8.58,0,0,1,6.59,2.72l-1.62,1.56a6.39,6.39,0,0,0-4.88-2.07,6.67,6.67,0,1,0,4.86,11.27l1.6,1.56a8.59,8.59,0,0,1-6.62,2.71C283.94,212.09,280,208.33,280.05,203.2Z" fill="#fff"/>
      <path id="Path_476624" data-name="Path 476624" d="M301.88,194.58h2.49l-.05,15.2h9.4V212H301.85Z" fill="#fff"/>
      <path id="Path_476625" data-name="Path 476625" d="M317.65,203.3c0-5.08,4-8.86,9.28-8.85s9.19,3.8,9.17,8.9-3.94,8.87-9.22,8.86S317.64,208.39,317.65,203.3Zm16,0a6.75,6.75,0,1,0-6.74,6.65,6.51,6.51,0,0,0,6.71-6.6Z" fill="#fff"/>
      <path id="Path_476626" data-name="Path 476626" d="M342.22,204.56v-9.87h2.48v9.77c0,3.84,1.74,5.58,4.87,5.59s4.91-1.72,4.92-5.57v-9.77h2.4v9.87c0,5-2.78,7.68-7.36,7.67S342.2,209.59,342.22,204.56Z" fill="#fff"/>
      <path id="Path_476627" data-name="Path 476627" d="M364.48,194.75h7.32c5.58,0,9.36,3.55,9.35,8.71s-3.82,8.66-9.4,8.65h-7.31ZM371.61,210c4.29,0,7.05-2.61,7.06-6.5s-2.74-6.53-7-6.54H367v13Z" fill="#fff"/>
    </g>
    <path id="Path_476628" data-name="Path 476628" d="M244,191.19l4,6.93c1.86,3.24,4.51,6.45,3.5,10.41a8.49,8.49,0,0,1-7.44,6.2,8.27,8.27,0,0,1-5.42-1.76l-4.15-3c-2.54-1.86-6.79-.51-8.19,2.15-1.92,3.63.08,6.62,3,8.81,4.22,3.19,8.6,5.7,14,5.83a20.14,20.14,0,0,0,17.51-30.45c-1.34-2.34-2.7-4.67-4.05-7q-8.61-15-17.33-30a18.58,18.58,0,0,0-32.38.49l-4.52,7.84q-6.9,11.94-13.79,23.88c-1.14,2-2.39,3.92-3.4,6-3.8,7.75-2.57,17.84,4.33,23.49,5.29,4.34,12.72,6,19.23,3.52a20.69,20.69,0,0,0,10.66-9.26l19.38-32.8L232,170.46l-19.9,33.69c-1.11,1.87-2.2,3.74-3.31,5.61a8.42,8.42,0,0,1-3,3,7.41,7.41,0,0,1-4.83.73,7.63,7.63,0,0,1-3.46-1.53,7,7,0,0,1-2.43-4.45c-.32-2.45.7-4.44,1.89-6.49,6.87-11.91,13.59-23.93,20.63-35.74a6.72,6.72,0,0,1,5.74-3.36,6.54,6.54,0,0,1,3.86,1.27c1.37,1,2,2.49,2.83,3.91Z" fill="#fff"/>
    <g id="Group_10252" data-name="Group 10252">
      <path id="Path_476629" data-name="Path 476629" d="M192.51,222.9a19.33,19.33,0,0,0,16.34,1.54,20.69,20.69,0,0,0,10.66-9.26l19.38-32.8L232,170.46l-19.9,33.69c-1.11,1.87-2.2,3.74-3.31,5.61a8.42,8.42,0,0,1-3,3,7.41,7.41,0,0,1-4.83.73,7.73,7.73,0,0,1-2.57-.93" fill="#fff" opacity="0.5"/>
    </g>
    <g id="Group_10253" data-name="Group 10253">
      <path id="Path_476630" data-name="Path 476630" d="M208,181.83q4.75-8.31,9.64-16.55a6.72,6.72,0,0,1,5.74-3.36,6.54,6.54,0,0,1,3.86,1.27c1.37,1,2,2.49,2.83,3.91l8.51,14.73h13.85q-6.51-11.29-13.05-22.58a18.58,18.58,0,0,0-32.38.49l-4.52,7.84-8.23,14.25Z" fill="#fff" opacity="0.6"/>
    </g>
  </g>
</svg>
