<svg width="33" height="33" viewBox="0 0 33 33" fill="none" xmlns="http://www.w3.org/2000/svg">
<path d="M11.6671 2.26316H20.5114L11.3302 29.4662C11.2358 29.7458 11.0562 29.9887 10.8165 30.1607C10.5769 30.3328 10.2893 30.4254 9.99427 30.4254H3.11122C2.88768 30.4255 2.66736 30.3723 2.46846 30.2703C2.26957 30.1682 2.09783 30.0203 1.96744 29.8387C1.83706 29.6572 1.75178 29.4472 1.71866 29.2261C1.68555 29.005 1.70554 28.7793 1.777 28.5675L10.3309 3.22238C10.4252 2.94273 10.6049 2.69972 10.8446 2.52758C11.0843 2.35544 11.372 2.26283 11.6671 2.26282V2.26316Z" fill="url(#paint0_linear_215_32815)"/>
<path d="M24.5185 20.5096H10.4936C10.3632 20.5094 10.2358 20.5486 10.1279 20.6219C10.0201 20.6952 9.93685 20.7992 9.88901 20.9205C9.84118 21.0418 9.83098 21.1747 9.85975 21.3019C9.88852 21.4291 9.95492 21.5446 10.0503 21.6335L19.0624 30.0451C19.3248 30.2899 19.6703 30.426 20.0291 30.4259H27.9706L24.5185 20.5096Z" fill="#0078D4"/>
<path d="M11.6653 2.26283C11.367 2.26168 11.0761 2.35596 10.8351 2.5319C10.5942 2.70784 10.4158 2.95621 10.326 3.24073L1.78573 28.544C1.70947 28.7566 1.68552 28.9844 1.71593 29.2082C1.74633 29.432 1.83018 29.6452 1.9604 29.8297C2.09061 30.0142 2.26335 30.1647 2.464 30.2683C2.66465 30.3719 2.88732 30.4257 3.11315 30.4251H10.1739C10.4368 30.3781 10.6826 30.2622 10.8861 30.0891C11.0896 29.9161 11.2435 29.6921 11.3321 29.4401L13.0352 24.4208L19.1187 30.095C19.3736 30.3058 19.6934 30.4224 20.0243 30.4251H27.9362L24.4661 20.5088L14.3504 20.5112L20.5416 2.26283H11.6653Z" fill="url(#paint1_linear_215_32815)"/>
<path d="M22.9606 3.22068C22.8664 2.94149 22.687 2.69888 22.4476 2.52704C22.2083 2.3552 21.921 2.26278 21.6264 2.26282H11.7695C12.0642 2.26283 12.3514 2.35527 12.5907 2.5271C12.8301 2.69894 13.0095 2.94152 13.1038 3.22068L21.658 28.5668C21.7295 28.7786 21.7495 29.0044 21.7164 29.2256C21.6834 29.4467 21.5981 29.6568 21.4677 29.8384C21.3373 30.02 21.1656 30.168 20.9666 30.2701C20.7677 30.3722 20.5473 30.4254 20.3238 30.4254H30.1809C30.4045 30.4254 30.6248 30.3721 30.8237 30.27C31.0226 30.1679 31.1943 30.0199 31.3247 29.8383C31.455 29.6566 31.5402 29.4466 31.5733 29.2255C31.6064 29.0044 31.5863 28.7786 31.5148 28.5668L22.9606 3.22068Z" fill="url(#paint2_linear_215_32815)"/>
<defs>
<linearGradient id="paint0_linear_215_32815" x1="14.8906" y1="4.35008" x2="5.70561" y2="31.4849" gradientUnits="userSpaceOnUse">
<stop stop-color="#114A8B"/>
<stop offset="1" stop-color="#0669BC"/>
</linearGradient>
<linearGradient id="paint1_linear_215_32815" x1="17.758" y1="16.9953" x2="15.6334" y2="17.7137" gradientUnits="userSpaceOnUse">
<stop stop-opacity="0.3"/>
<stop offset="0.071" stop-opacity="0.2"/>
<stop offset="0.321" stop-opacity="0.1"/>
<stop offset="0.623" stop-opacity="0.05"/>
<stop offset="1" stop-opacity="0"/>
</linearGradient>
<linearGradient id="paint2_linear_215_32815" x1="16.5884" y1="3.55831" x2="26.6708" y2="30.4197" gradientUnits="userSpaceOnUse">
<stop stop-color="#3CCBF4"/>
<stop offset="1" stop-color="#2892DF"/>
</linearGradient>
</defs>
</svg>
