<svg xmlns="http://www.w3.org/2000/svg" width="43" height="43" viewBox="0 0 43 43">
  <path id="blockchains-decentralized" d="M43,29.145a3,3,0,0,0-2.36-2.92l-.19-.041V16.811l.19-.041a2.985,2.985,0,1,0-2.233-5.436l-.161.1L31.555,4.754l.1-.163A2.99,2.99,0,0,0,29.142,0,2.935,2.935,0,0,0,26.3,2.1a2.937,2.937,0,0,0,1.151,3.345l.159.108-3.088,7.477-5.4-5.4,5.415-2.249a.44.44,0,0,0,0-.815.452.452,0,0,0-.337,0l-5.751,2.4L16.257,4.778l.106-.163a2.983,2.983,0,1,0-5.025-.031l.1.163-6.691,6.7-.161-.1a2.985,2.985,0,1,0-1.065,5.453l.19-.034L5.685,21.5,3.714,26.242l-.19-.034A2.99,2.99,0,0,0,0,29.145a2.944,2.944,0,0,0,1.553,2.612,2.942,2.942,0,0,0,3.038-.1l.163-.1,6.691,6.688-.1.163a2.981,2.981,0,1,0,5.429,2.223l.041-.19h9.373l.041.19a2.987,2.987,0,1,0,0-1.257l-.041.19H16.056l21.39-8.892.111.159A2.99,2.99,0,0,0,43,29.133ZM29.142,37.9a2.112,2.112,0,1,1-1.491.619A2.111,2.111,0,0,1,29.142,37.9ZM40.013,11.75a2.108,2.108,0,1,1-.807.16A2.108,2.108,0,0,1,40.013,11.75Zm-.44,5.069V26.934l-4.41-10.6,2.281-.935.111.159a3,3,0,0,0,1.829,1.226Zm-1.952-4.756-.108.163a2.963,2.963,0,0,0-.44,2.163l.036.19-2.283.942-4.449-10.7ZM27.032,2.987a2.11,2.11,0,1,1,.619,1.491A2.11,2.11,0,0,1,27.032,2.987Zm-1.81,10.642,3.194-7.739.192.034a2.884,2.884,0,0,0,1.072,0l.192-.036,4.143,9.971L29.3,17.8l-4.1-4.086Zm-.394.961,3.588,3.586-6.109,2.509Zm-7.261-7.27-6.09,2.533,1.646-3.963.192.034A2.978,2.978,0,0,0,15.479,5.5l.161-.106ZM13.854.88a2.11,2.11,0,1,1-1.49.618A2.108,2.108,0,0,1,13.854.88ZM12.616,4.824,10.338,10.33,4.81,12.62ZM2.984,15.965a2.108,2.108,0,1,1,1.49-.617A2.108,2.108,0,0,1,2.984,15.965Zm1.541.457.161-.111a2.994,2.994,0,0,0,1.235-2.994l-.034-.19,3.97-1.646-3.7,8.875ZM2.984,31.26a2.11,2.11,0,1,1,1.49-.618A2.111,2.111,0,0,1,2.984,31.26Zm1.7-4.566-.161-.111,1.637-3.937L7.843,26.67l-2.278.942-.111-.161A3.061,3.061,0,0,0,4.685,26.694Zm.69,4.249.108-.163a2.968,2.968,0,0,0,.44-2.163l-.036-.192,2.283-.94,4.446,10.7Zm8.479,11.18a2.11,2.11,0,1,1,1.491-.617A2.11,2.11,0,0,1,13.854,42.123ZM37.5,27.525a2.966,2.966,0,0,0-.428,2.163l.034.192-.089.036L16.419,38.47l-.111-.159a2.995,2.995,0,0,0-2.992-1.235l-.192.034L8.98,27.143l8.361-3.461A.44.44,0,0,0,17,22.87L8.656,26.333,6.637,21.5l.038-.091L11,11,18.24,7.994l5.917,5.917-3,7.256-4.711,1.947a.435.435,0,0,0-.24.572.444.444,0,0,0,.24.24.43.43,0,0,0,.336,0l3.9-1.61L15.625,34.584a.44.44,0,1,0,.812.337l5.4-13.084,7.246-2.995.113.113,8.412,8.412Zm-7.53-9.046,4.386-1.81,4.4,10.6ZM40.013,31.26a2.113,2.113,0,1,1,1.489-.619A2.111,2.111,0,0,1,40.013,31.26Z" fill="#313457"/>
</svg>
