<svg xmlns="http://www.w3.org/2000/svg" viewBox="0 0 32 32"><g id="cart"><path d="M29.78,7.38A1,1,0,0,0,29,7H14a1,1,0,0,0,0,2H27.74l-2.11,9.17A2.35,2.35,0,0,1,23.33,20H14.67a2.35,2.35,0,0,1-2.3-1.83L10,7.78s0,0,0,0V7.68L9.49,6.31A3.38,3.38,0,0,0,6.29,4H3A1,1,0,0,0,3,6H6.29a1.37,1.37,0,0,1,1.3.94L8,8.27l2.38,10.35A4.34,4.34,0,0,0,14.67,22h8.66a4.34,4.34,0,0,0,4.25-3.38L30,8.22A1,1,0,0,0,29.78,7.38Z"/><path d="M13.5,23A2.5,2.5,0,1,0,16,25.5,2.5,2.5,0,0,0,13.5,23Zm0,3a.5.5,0,1,1,.5-.5A.5.5,0,0,1,13.5,26Z"/><path d="M24.5,23A2.5,2.5,0,1,0,27,25.5,2.5,2.5,0,0,0,24.5,23Zm0,3a.5.5,0,1,1,.5-.5A.5.5,0,0,1,24.5,26Z"/></g></svg>