<?xml version="1.0" encoding="UTF-8"?>
<svg width="205px" height="55px" viewBox="0 0 205 55" version="1.1" xmlns="http://www.w3.org/2000/svg" xmlns:xlink="http://www.w3.org/1999/xlink">
    <title>编组</title>
    <g id="首页-行情-买币" stroke="none" stroke-width="1" fill="none" fill-rule="evenodd">
        <g id="画板备份-5" transform="translate(-895.000000, -3063.000000)" fill="#1DA2B4" fill-rule="nonzero">
            <g id="编组" transform="translate(895.000000, 3063.000000)">
                <path d="M204.161802,17.0114303 C204.422631,17.0114303 204.627749,17.0863975 204.777156,17.2363318 C204.925297,17.3863914 205,17.5926137 205,17.8551241 L205,22.9738256 C205,23.2363359 204.925297,23.4426836 204.777156,23.5926179 C204.627749,23.7426776 204.422631,23.8176447 204.161802,23.8176447 L199.69099,23.8176447 L199.69099,44.1563062 C199.69099,44.4188166 199.616287,44.6250389 199.468146,44.7749732 C199.318739,44.9250329 199.113621,45 198.852792,45 L192.147208,45 C191.886379,45 191.681261,44.9250329 191.531854,44.7749732 C191.383713,44.6250389 191.30901,44.4188166 191.30901,44.1563062 L191.30901,23.8176447 L186.838198,23.8176447 C186.577369,23.8176447 186.372251,23.7426776 186.222844,23.5926179 C186.074703,23.4426836 186,23.2363359 186,22.9738256 L186,17.8551241 C186,17.5926137 186.074703,17.3863914 186.222844,17.2363318 C186.372251,17.0863975 186.577369,17.0114303 186.838198,17.0114303 L191.30901,17.0114303 L191.30901,9.84375646 C191.30901,9.5812461 191.383713,9.37499869 191.531854,9.22500172 C191.681261,9.07500475 191.886379,9 192.147208,9 L198.852792,9 C199.113621,9 199.318739,9.07500475 199.468146,9.22500172 C199.616287,9.37499869 199.69099,9.5812461 199.69099,9.84375646 L199.69099,17.0114303 L204.161802,17.0114303 Z" id="路径"></path>
                <path d="M184,29.9566221 C184,31.2149642 183.874113,32.1301338 183.622338,32.7021307 C183.370564,33.2360114 182.849904,33.5029518 182.057914,33.5029518 L166.03723,33.5029518 C166.433225,35.0282343 167.20566,36.1913499 168.356978,36.9921711 C169.543741,37.7547486 171.036055,38.1361648 172.833921,38.1361648 C173.733465,38.1361648 174.57801,38.021689 175.368777,37.7928647 C176.196211,37.5259243 177.059089,37.0873976 177.958633,36.4772846 C178.138297,36.3248201 178.336295,36.2485878 178.551403,36.2485878 C178.73229,36.2485878 178.929065,36.3629362 179.145396,36.5917605 L181.95036,39.4517449 C182.09458,39.6042094 182.16669,39.7949176 182.16669,40.0237418 C182.16669,40.2524386 182.057914,40.4812628 181.842805,40.7100871 C180.547266,42.0829051 179.054952,43.1505391 177.364641,43.9132442 C175.710995,44.6377056 173.93024,45 172.02482,45 C169.32741,45 166.900108,44.3517709 164.742914,43.0551851 C162.621163,41.7587268 160.966295,40.00462 159.779533,37.7928647 C158.59277,35.5812369 158,33.1406574 158,30.471381 C158,27.8021047 158.574437,25.3616527 159.725756,23.1498974 C160.912518,20.9381421 162.53072,19.2031571 164.58036,17.9448149 C166.63,16.6482291 168.914305,16 171.430828,16 C173.913129,16 176.10699,16.6292348 178.01241,17.887577 C179.919052,19.1459191 181.393033,20.8429155 182.435576,22.978311 C183.478118,25.1137066 184,27.4398103 184,29.9566221 Z M171.485827,23.2642457 C170.082734,23.2642457 168.877638,23.6837781 167.87054,24.5227154 C166.864664,25.323409 166.216895,26.5056464 165.929676,28.0690451 L176.825648,28.0690451 C176.573873,26.5056464 175.96277,25.323409 174.991115,24.5227154 C174.020683,23.6837781 172.852254,23.2642457 171.485827,23.2642457 Z" id="形状"></path>
                <path d="M155.160303,15.6295135 C155.421598,15.6295135 155.625815,15.7057796 155.775489,15.8583116 C155.925163,16.0109712 156,16.2207666 156,16.4878252 L156,43.4405957 C156,46.225581 155.252898,48.476449 153.759962,50.1930723 C152.305078,51.9479561 150.456983,53.1878529 148.218213,53.9127628 C146.016227,54.6375451 143.739404,55 141.387744,55 C139.036085,55 136.778288,54.6566753 134.614355,53.9698985 C132.485938,53.3213822 130.675896,52.4439403 129.182959,51.3375728 C128.959717,51.1850408 128.848095,50.9752454 128.848095,50.7081868 C128.848095,50.4792612 128.884879,50.3075989 128.959717,50.1930723 L131.142676,46.187448 C131.367187,45.8822564 131.59043,45.7295968 131.814941,45.7295968 C132.0014,45.7295968 132.151074,45.7677298 132.262695,45.8439958 C133.53112,46.6070387 134.837598,47.1601587 136.18086,47.5036108 C137.562175,47.8469355 139.074137,48.0185978 140.715479,48.0185978 C142.619385,48.0185978 144.35459,47.5990071 145.922364,46.7596983 C147.490137,45.9585224 148.274024,44.6042265 148.274024,42.6966831 L148.274024,40.0643574 C146.108822,42.5822841 143.422298,43.8411837 140.211914,43.8411837 C137.711849,43.8411837 135.454052,43.1926674 133.438525,41.8955073 C131.422998,40.5984747 129.836198,38.8435909 128.679395,36.6308559 C127.559375,34.4182484 127,32.0147207 127,29.4205281 C127,26.8264629 127.559375,24.4229353 128.679395,22.2103278 C129.836198,19.9975928 131.422998,18.242709 133.438525,16.9456764 C135.454052,15.6485163 137.711849,15 140.211914,15 C143.272624,15 145.885579,16.2398968 148.049512,18.7195629 L148.218213,16.4878252 C148.29305,15.9155749 148.572103,15.6295135 149.05791,15.6295135 L155.160303,15.6295135 Z M141.276123,36.0014698 C142.992302,36.0014698 144.448454,35.3338233 145.642042,33.9985302 C146.836898,32.6633646 147.434326,31.1182761 147.434326,29.3633923 C147.434326,27.6085085 146.836898,26.0824228 145.642042,24.7853902 C144.448454,23.4500971 142.992302,22.7825781 141.276123,22.7825781 C139.521891,22.7825781 138.047981,23.4310943 136.853125,24.7281269 C135.659537,25.987154 135.062109,27.5321149 135.062109,29.3633923 C135.062109,31.2326751 135.640511,32.8158966 136.797314,34.1130567 C137.992171,35.3719563 139.483839,36.0014698 141.276123,36.0014698 Z" id="形状"></path>
                <path d="M125.162055,17.0114303 C125.422884,17.0114303 125.627749,17.0863975 125.776776,17.2363318 C125.925297,17.3863914 126,17.5926137 126,17.8551241 L126,22.9738256 C126,23.2363359 125.925297,23.4426836 125.776776,23.5926179 C125.627749,23.7426776 125.422884,23.8176447 125.162055,23.8176447 L120.69137,23.8176447 L120.69137,44.1563062 C120.69137,44.4188166 120.61692,44.6250389 120.467893,44.7749732 C120.318866,44.9250329 120.114001,45 119.853172,45 L113.147208,45 C112.886379,45 112.681514,44.9250329 112.532487,44.7749732 C112.38346,44.6250389 112.308883,44.4188166 112.308883,44.1563062 L112.308883,23.8176447 L107.838198,23.8176447 C107.577496,23.8176447 107.372504,23.7426776 107.223604,23.5926179 C107.074577,23.4426836 107,23.2363359 107,22.9738256 L107,17.8551241 C107,17.5926137 107.074577,17.3863914 107.223604,17.2363318 C107.372504,17.0863975 107.577496,17.0114303 107.838198,17.0114303 L112.308883,17.0114303 L112.308883,9.84375646 C112.308883,9.5812461 112.38346,9.37499869 112.532487,9.22500172 C112.681514,9.07500475 112.886379,9 113.147208,9 L119.853172,9 C120.114001,9 120.318866,9.07500475 120.467893,9.22500172 C120.61692,9.37499869 120.69137,9.5812461 120.69137,9.84375646 L120.69137,17.0114303 L125.162055,17.0114303 Z" id="路径"></path>
                <path d="M98.5,14.2115638 C97.2250276,14.2115638 96.1562633,13.7729185 95.2938344,12.8956407 C94.4312781,11.9801982 94,10.8931229 94,9.63440222 C94,8.33752958 94.4312781,7.25044159 95.2938344,6.37315102 C96.1562633,5.45772126 97.2250276,5 98.5,5 C99.7749724,5 100.843737,5.45772126 101.706293,6.37315102 C102.568722,7.25044159 103,8.33752958 103,9.63440222 C103,10.8931229 102.568722,11.9801982 101.706293,12.8956407 C100.843737,13.7729185 99.7749724,14.2115638 98.5,14.2115638 Z M94.2812739,17.3895744 C94.2812739,17.1225618 94.3563397,16.9128027 94.506344,16.7602969 C94.6563482,16.6076637 94.8625563,16.5314108 95.1250956,16.5314108 L101.875032,16.5314108 C102.137571,16.5314108 102.343779,16.6076637 102.493783,16.7602969 C102.643788,16.9128027 102.718726,17.1225618 102.718726,17.3895744 L102.718726,44.1418364 C102.718726,44.408849 102.643788,44.6186081 102.493783,44.7712414 C102.343779,44.9237471 102.137571,45 101.875032,45 L95.1250956,45 C94.8625563,45 94.6563482,44.9237471 94.506344,44.7712414 C94.3563397,44.6186081 94.2812739,44.408849 94.2812739,44.1418364 L94.2812739,17.3895744 Z" id="形状"></path>
                <path d="M85.388839,23.628544 C87.4629738,24.1999761 89.2406778,25.361943 90.7222027,27.1143176 C92.2407342,28.8666922 93,30.9808761 93,33.457124 C93,37.3047069 91.7962768,40.1999455 89.3888303,42.1428399 C87.0185163,44.0475284 83.3888433,45 78.4999371,45 L64.833405,45 C64.5741066,45 64.3704442,44.9237157 64.2222917,44.7714017 C64.0741392,44.6189604 64,44.4094651 64,44.1427883 L64,5.85713531 C64,5.59047127 64.0741392,5.38095044 64.2222917,5.22857281 C64.3704442,5.07619518 64.5741066,5 64.833405,5 L78.4444271,5 C80.8888802,5 82.9815184,5.45714562 84.7222157,6.37142413 C86.4999197,7.28571538 87.8332921,8.52380112 88.722207,10.0857068 C89.6481286,11.6476126 90.1110894,13.3999489 90.1110894,15.3428433 C90.1110894,17.3238162 89.6481286,19.0570878 88.722207,20.5427856 C87.8332921,22.0286108 86.7222114,23.057112 85.388839,23.628544 Z M82.0555968,16.4857074 C82.0555968,14.0476653 80.5925752,12.8285678 77.666658,12.8285678 L72.6110959,12.8285678 L72.6110959,20.4857316 L77.666658,20.4857316 C79.037037,20.4857316 80.1111111,20.1618734 80.8888802,19.5142844 C81.6666493,18.8286169 82.0555968,17.8190912 82.0555968,16.4857074 Z M78.8333746,37.1713685 C80.5370652,37.1713685 81.8888151,36.7713533 82.8888759,35.9714504 C83.8888108,35.1714201 84.3889041,33.9713746 84.3889041,32.3714413 C84.3889041,30.8094592 83.8888108,29.6665951 82.8888759,28.9428492 C81.8888151,28.1808973 80.5370652,27.7999851 78.8333746,27.7999851 L72.6110959,27.7999851 L72.6110959,37.1713685 L78.8333746,37.1713685 Z" id="形状"></path>
                <path d="M16.1917104,1.19926691 C16.90697,0.434353205 17.9087927,0 18.9576954,0 L25.7453886,0 C26.6023987,0 27.046916,1.01918241 26.462562,1.6441735 L13.0384952,15.9999745 L20.456857,15.9999745 L28,24.0000255 L13.0384952,24.0000255 L28,40 L18.9576954,40 C17.9087927,40 16.90697,39.5656213 16.1917104,38.8007178 L1.01569918,22.5712722 C-0.338568096,21.1230464 -0.338565544,18.8769536 1.01570174,17.4287278 L16.1917104,1.19926691 Z" id="路径"></path>
                <path d="M35.8081889,53.8007178 C35.0929277,54.5656213 34.0911028,55 33.0423252,55 L26.254489,55 C25.3974769,55 24.9529586,53.9808074 25.5374415,53.3557756 L38.9615389,39.0000255 L31.5431602,39.0000255 L24,30.9999745 L38.9615389,30.9999745 L24,15 L33.0423252,15 C34.0911028,15 35.0929277,15.4343787 35.8081889,16.1992822 L50.9843317,32.4287278 C52.3385561,33.8769536 52.3385561,36.1230464 50.9843317,37.5712722 L35.8081889,53.8007178 Z" id="路径"></path>
            </g>
        </g>
    </g>
</svg>