<?xml version="1.0" encoding="utf-8"?>
<!-- Generator: Adobe Illustrator 24.1.0, SVG Export Plug-In . SVG Version: 6.00 Build 0)  -->
<svg version="1.1" id="Layer_1" xmlns="http://www.w3.org/2000/svg" xmlns:xlink="http://www.w3.org/1999/xlink" x="0px" y="0px"
	 viewBox="0 0 18 18" style="enable-background:new 0 0 18 18;" xml:space="preserve">
<style type="text/css">
	.st0{fill:#170F49;}
</style>
<path class="st0" d="M10.4,9l7.3-7.3c0.4-0.4,0.4-1,0-1.4s-1-0.4-1.4,0L9,7.6L1.7,0.3c-0.4-0.4-1-0.4-1.4,0s-0.4,1,0,1.4L7.6,9
	l-7.3,7.3c-0.4,0.4-0.4,1,0,1.4C0.5,17.9,0.7,18,1,18s0.5-0.1,0.7-0.3L9,10.4l7.3,7.3c0.2,0.2,0.5,0.3,0.7,0.3s0.5-0.1,0.7-0.3
	c0.4-0.4,0.4-1,0-1.4L10.4,9z"/>
</svg>
