<svg xmlns="http://www.w3.org/2000/svg" width="660.666" height="158.436" viewBox="0 0 660.666 158.436">
  <g id="Group_9373" data-name="Group 9373" transform="translate(-363.378 -279.978)">
    <g id="coinmetro-token-xcm-logo" transform="translate(363.378 279.978)">
      <path id="Path_452956" data-name="Path 452956" d="M79.706,0c43.875,0,79.706,35.587,79.706,79.218s-35.831,79.218-79.706,79.218A79.22,79.22,0,1,1,79.706,0Z" transform="translate(0 0)" fill="#32407b"/>
      <path id="Path_452957" data-name="Path 452957" d="M72.518,5c37.293,0,67.518,29.981,67.518,67.031s-30.469,67.275-67.518,67.275A67.461,67.461,0,0,1,5,72.031C5,34.981,35.225,5,72.518,5Z" transform="translate(7.187 7.187)" fill="#32407b"/>
      <path id="Path_452958" data-name="Path 452958" d="M73.381,141.387C35.356,141.387,4.4,110.674,4.4,72.893S35.356,4.4,73.381,4.4s68.981,30.712,68.981,68.493S111.162,141.387,73.381,141.387Zm0-134.062a65.569,65.569,0,1,0,65.812,65.568A65.8,65.8,0,0,0,73.381,7.325Z" transform="translate(6.325 6.325)" fill="#fff"/>
      <path id="Path_452959" data-name="Path 452959" d="M79.962,83.806h-58.5A1.573,1.573,0,0,1,20,82.343V31.156A15.347,15.347,0,0,1,35.6,15.8H66.068a15.5,15.5,0,0,1,15.6,15.356V82.343a1.825,1.825,0,0,1-1.706,1.462ZM23.169,80.881H78.5V31.4A12.484,12.484,0,0,0,66.068,18.969H35.6A12.484,12.484,0,0,0,23.169,31.4Z" transform="translate(28.75 22.712)" fill="#fff"/>
      <path id="Path_452960" data-name="Path 452960" d="M34.867,70.043a6.035,6.035,0,0,1-6.094-6.094h0a6.035,6.035,0,0,1,6.094-6.094h0a6.035,6.035,0,0,1,6.094,6.094h0A6.191,6.191,0,0,1,34.867,70.043Zm0-9.262a3.169,3.169,0,1,0,3.169,3.169c-.244-1.95-1.462-3.169-3.169-3.169Zm31.2,9.262a6.035,6.035,0,0,1-6.094-6.094h0a6.035,6.035,0,0,1,6.094-6.094h0a6.035,6.035,0,0,1,6.094,6.094h0A6.035,6.035,0,0,1,66.067,70.043Zm0-9.262a3.169,3.169,0,1,0,3.169,3.169,3.072,3.072,0,0,0-3.169-3.169ZM59.242,22.025H41.448a1.573,1.573,0,0,1-1.462-1.462A1.573,1.573,0,0,1,41.448,19.1H59.242A1.573,1.573,0,0,1,60.7,20.562,1.4,1.4,0,0,1,59.242,22.025ZM78.742,93.2a1.862,1.862,0,0,1-1.219-.488L68.017,79.306a1.421,1.421,0,1,1,2.437-1.462L79.961,91.25a1.317,1.317,0,0,1-.487,1.95Zm-56.793,0a1.843,1.843,0,0,1-.975-.244,1.592,1.592,0,0,1-.488-1.95L29.992,77.6a1.351,1.351,0,0,1,1.95-.487c.487.487.975,1.462.488,1.95L22.923,92.468c0,.488-.487.731-.975.731Z" transform="translate(29.239 27.456)" fill="#fff"/>
      <path id="Path_452961" data-name="Path 452961" d="M24.875,83.418a1.843,1.843,0,0,1-.975-.244,1.592,1.592,0,0,1-.487-1.95l7.069-9.994a1.351,1.351,0,0,1,1.95-.487c.487.487.975,1.462.487,1.95L25.85,82.687C25.85,83.175,25.362,83.418,24.875,83.418ZM79.962,26.625h-58.5a1.462,1.462,0,1,1,0-2.925h58.5a1.573,1.573,0,0,1,1.462,1.462A1.4,1.4,0,0,1,79.962,26.625Zm0,18.769h-58.5a1.462,1.462,0,1,1,0-2.925h58.5a1.573,1.573,0,0,1,1.462,1.462A1.4,1.4,0,0,1,79.962,45.394Z" transform="translate(28.75 34.068)" fill="#fff"/>
      <path id="Path_452962" data-name="Path 452962" d="M33.344,43.366c-.487,0-.731,0-.975-.487a1.289,1.289,0,0,1-.244-1.95l6.825-7.556a1.379,1.379,0,0,1,1.95,1.95l-6.825,7.556C34.075,43.122,33.587,43.366,33.344,43.366Zm8.775,0c-.487,0-.731,0-.975-.487a1.269,1.269,0,0,1,0-1.95l13.65-15.356a1.379,1.379,0,0,1,1.95,1.95L43.094,42.878A1.266,1.266,0,0,1,42.119,43.366ZM70.15,75.053H27.494a1.462,1.462,0,1,1,0-2.925H70.15a1.573,1.573,0,0,1,1.462,1.462A1.4,1.4,0,0,1,70.15,75.053Zm4.631,6.337H22.862a1.462,1.462,0,1,1,0-2.925H74.781a1.573,1.573,0,0,1,1.462,1.462C76.487,80.659,75.756,81.391,74.781,81.391Z" transform="translate(30.762 36.096)" fill="#fff"/>
      <path id="Path_452963" data-name="Path 452963" d="M68.062,127.049c-33.15,0-59.962-26.569-59.962-59.475C8.1,34.912,34.912,8.1,67.818,8.1a59.475,59.475,0,1,1,.244,118.949Zm0-116.024a56.643,56.643,0,0,0-56.793,56.55c0,31.2,25.594,56.55,56.793,56.55s56.793-25.35,56.793-56.55S99.262,11.025,68.062,11.025Z" transform="translate(11.644 11.644)" fill="#fff"/>
    </g>
    <text id="CoinMetro" transform="translate(786.044 394.094)" fill="#32407b" font-size="96" font-family="Mulish-ExtraBold, Mulish" font-weight="800"><tspan x="-237.936" y="0">CoinMetro</tspan></text>
  </g>
</svg>
