<svg xmlns="http://www.w3.org/2000/svg" xmlns:xlink="http://www.w3.org/1999/xlink" width="307" height="307" viewBox="0 0 307 307"><defs><clipPath id="a"><rect width="307" height="307" transform="translate(-10848 9942)" fill="none" stroke="#707070" stroke-width="1"/></clipPath></defs><g transform="translate(10848 -9942)" clip-path="url(#a)"><g transform="translate(-10830.522 9958.056)"><path d="M137.977,0c75.95,0,137.977,61.6,137.977,137.133S213.927,274.266,137.977,274.266C61.6,274.266,0,213.083,0,137.133S61.6,0,137.977,0Z" fill="#32407b"/><path d="M121.879,5c64.558,0,116.879,51.9,116.879,116.035S186.015,237.493,121.879,237.493C57.321,237.493,5,185.171,5,121.035S57.321,5,121.879,5Z" transform="translate(16.097 16.097)" fill="#32407b"/><path d="M123.811,241.534C57.987,241.534,4.4,188.369,4.4,122.967S57.987,4.4,123.811,4.4,243.222,57.565,243.222,122.967,189.213,241.534,123.811,241.534Zm0-232.071c-62.87,0-113.926,51.056-113.926,113.5s51.056,113.5,113.926,113.5,113.926-51.056,113.926-113.5S186.681,9.463,123.811,9.463Z" transform="translate(14.166 14.166)" fill="#fff"/><path d="M123.8,133.523H22.532A2.723,2.723,0,0,1,20,130.992V42.383A26.567,26.567,0,0,1,47,15.8H99.748a26.833,26.833,0,0,1,27,26.583v88.609a3.159,3.159,0,0,1-2.954,2.532ZM25.485,128.46h95.782V42.8A21.61,21.61,0,0,0,99.748,21.285H47A21.61,21.61,0,0,0,25.485,42.8Z" transform="translate(64.389 50.868)" fill="#fff"/><path d="M45.487,107.287A10.446,10.446,0,0,1,34.939,96.738h0A10.446,10.446,0,0,1,45.487,86.19h0A10.446,10.446,0,0,1,56.036,96.738h0A10.718,10.718,0,0,1,45.487,107.287Zm0-16.034a5.485,5.485,0,1,0,5.485,5.485c-.422-3.376-2.532-5.485-5.485-5.485ZM99.5,107.287A10.446,10.446,0,0,1,88.948,96.738h0A10.446,10.446,0,0,1,99.5,86.19h0a10.446,10.446,0,0,1,10.549,10.549h0A10.446,10.446,0,0,1,99.5,107.287Zm0-16.034a5.485,5.485,0,1,0,5.485,5.485A5.319,5.319,0,0,0,99.5,91.253ZM87.682,24.163H56.88a2.723,2.723,0,0,1-2.532-2.532A2.723,2.723,0,0,1,56.88,19.1h30.8a2.723,2.723,0,0,1,2.532,2.532A2.432,2.432,0,0,1,87.682,24.163Zm33.756,123.209a3.223,3.223,0,0,1-2.11-.844l-16.456-23.207a2.46,2.46,0,0,1,4.219-2.532L123.548,144a2.28,2.28,0,0,1-.844,3.376Zm-98.314,0a3.19,3.19,0,0,1-1.688-.422,2.757,2.757,0,0,1-.844-3.376l16.456-23.207c.844-1.266,2.532-1.688,3.376-.844s1.688,2.532.844,3.376L24.812,146.106c0,.844-.844,1.266-1.688,1.266Z" transform="translate(65.485 61.492)" fill="#fff"/><path d="M28.439,127.077a3.19,3.19,0,0,1-1.688-.422,2.757,2.757,0,0,1-.844-3.376l12.236-17.3c.844-1.266,2.532-1.688,3.376-.844s1.688,2.532.844,3.376l-12.236,17.3C30.127,126.655,29.283,127.077,28.439,127.077ZM123.8,28.763H22.532A2.723,2.723,0,0,1,20,26.232,2.723,2.723,0,0,1,22.532,23.7H123.8a2.723,2.723,0,0,1,2.532,2.532A2.432,2.432,0,0,1,123.8,28.763Zm0,32.49H22.532a2.532,2.532,0,0,1,0-5.063H123.8a2.723,2.723,0,0,1,2.532,2.532A2.432,2.432,0,0,1,123.8,61.253Z" transform="translate(64.389 76.301)" fill="#fff"/><path d="M42.075,56.712c-.844,0-1.266,0-1.688-.844a2.231,2.231,0,0,1-.422-3.376L51.78,39.412c.844-.844,2.532-1.266,3.376,0,.844.844,1.266,2.532,0,3.376L43.341,55.868C43.341,56.29,42.5,56.712,42.075,56.712Zm15.19,0c-.844,0-1.266,0-1.688-.844-.844-.844-1.266-2.532,0-3.376L79.207,25.91c.844-.844,2.532-1.266,3.376,0,.844.844,1.266,2.532,0,3.376L58.953,55.868A2.192,2.192,0,0,1,57.266,56.712Zm48.524,54.853H31.949a2.532,2.532,0,1,1,0-5.063h73.841a2.723,2.723,0,0,1,2.532,2.532A2.432,2.432,0,0,1,105.789,111.565Zm8.017,10.971H23.932a2.532,2.532,0,1,1,0-5.063h89.875A2.723,2.723,0,0,1,116.338,120C116.76,121.27,115.494,122.535,113.806,122.535Z" transform="translate(68.897 80.843)" fill="#fff"/><path d="M111.9,214.01c-57.385,0-103.8-45.992-103.8-102.955C8.1,54.514,54.514,8.1,111.477,8.1S214.854,54.092,214.854,111.055A102.824,102.824,0,0,1,111.9,214.01Zm0-200.847c-54.431,0-98.314,43.883-98.314,97.892s44.3,97.892,98.314,97.892,98.314-43.882,98.314-97.892S165.908,13.163,111.9,13.163Z" transform="translate(26.078 26.078)" fill="#fff"/></g></g></svg>