<svg xmlns="http://www.w3.org/2000/svg" xmlns:xlink="http://www.w3.org/1999/xlink" width="309" height="307" viewBox="0 0 309 307"><defs><clipPath id="a"><rect width="309" height="307" transform="translate(-11215 10332)" fill="none" stroke="#707070" stroke-width="1"/></clipPath><linearGradient id="b" x1="1.687" y1="0.762" x2="1.683" y2="0.762" gradientUnits="objectBoundingBox"><stop offset="0" stop-color="#22e6b8"/><stop offset="1" stop-color="#00c1ce"/></linearGradient></defs><g transform="translate(11215 -10332)" clip-path="url(#a)"><path d="M181.65,106.606a54.111,54.111,0,0,0-75.966,0c-21,21.105-20.624,55.445.241,76.55a53.61,53.61,0,0,0,76.069.241c.344-.344,1.822-1.925,4.5-4.778l-25.265-25.505a36.009,36.009,0,0,1-4.159,4.675,18.257,18.257,0,0,1-25.849,0,18.062,18.062,0,1,1,25.471-25.608s22.618,22.618,67.716,67.957a101.583,101.583,0,0,1-83.15,43.93c-55.445,0-100.509-45.442-100.509-101.574S85.85,40.986,141.26,40.986A99.339,99.339,0,0,1,221.832,82.1q-4.486,5.156-22.859,26.193L224,133.314l41.455-46.954A136.069,136.069,0,0,0,141.123,5.1C65.948,5.1,4.9,66.732,4.9,142.56s60.91,137.6,136.223,137.6c34.2,0,62.56-10.828,90.231-34.546,25.127-21.449,37.055-51.286,37.055-51.286Z" transform="translate(-11197.154 10339.65)" fill="url(#b)"/></g></svg>