<svg xmlns="http://www.w3.org/2000/svg" width="1606.619" height="377.987" viewBox="0 0 1606.619 377.987">
  <g id="Color_logo_-_no_background" data-name="Color logo - no background" transform="translate(-135.128)">
    <g id="SvgjsG1233" transform="translate(135.128 0)">
      <g id="Group_10198" data-name="Group 10198" transform="translate(0 0)">
        <path id="Path_476343" data-name="Path 476343" d="M560.309,266.387h66.938V243.11h-43.54V200.656H515.08v23.277h45.228Z" transform="translate(-338.751 -200.656)" fill="#fff"/>
        <path id="Path_476344" data-name="Path 476344" d="M482.047,327.231h23.4V258.6H462.87v-43.54H439.593V282h42.454Z" transform="translate(-305.597 -206.984)" fill="#fff"/>
        <path id="Path_476345" data-name="Path 476345" d="M680.465,386.468h23.4V343.049h42.454V274.423h-23.4v45.228H680.465Z" transform="translate(-411.388 -233.054)" fill="#fff"/>
        <path id="Path_476346" data-name="Path 476346" d="M560.22,407.4H518.007L516.8,460.345l23.4.482.724-30.032h42.7V362.169h-23.4Z" transform="translate(-339.507 -271.592)" fill="#fff"/>
        <path id="Path_476347" data-name="Path 476347" d="M823.19,515.08H799.913v45.228H757.459v66.938h23.277v-43.54H823.19Z" transform="translate(-445.204 -338.751)" fill="#fff"/>
        <path id="Path_476348" data-name="Path 476348" d="M713.679,482.047h-53.43v23.4h76.828V462.87h35.338V439.593H713.679Z" transform="translate(-402.509 -305.597)" fill="#fff"/>
        <path id="Path_476349" data-name="Path 476349" d="M713.152,738.667v-23.4H667.923V663.045H601.106v23.4h43.419v52.224Z" transform="translate(-376.534 -403.737)" fill="#fff"/>
        <path id="Path_476350" data-name="Path 476350" d="M590.783,538.307v52.947h68.626v-23.4H614.181V538.307Z" transform="translate(-372 -348.952)" fill="#fff"/>
        <path id="Path_476351" data-name="Path 476351" d="M472.4,823.19V799.913H427.171V757.459H360.234v23.277h43.54V823.19Z" transform="translate(-270.742 -445.204)" fill="#fff"/>
        <path id="Path_476352" data-name="Path 476352" d="M584.159,772.415V705.477H541.7V660.249h-23.4v68.626h42.575v43.54Z" transform="translate(-340.168 -402.509)" fill="#fff"/>
        <path id="Path_476353" data-name="Path 476353" d="M300.832,667.923h42.454V601.106h-23.4v43.419H277.434v68.626h23.4Z" transform="translate(-234.377 -376.534)" fill="#fff"/>
        <path id="Path_476354" data-name="Path 476354" d="M439.378,653.27h23.4V600.2h43.781V576.8H439.378Z" transform="translate(-305.502 -365.86)" fill="#fff"/>
        <path id="Path_476355" data-name="Path 476355" d="M223.933,427.171h44.746V360.234H245.4v43.54H200.656V472.4h23.277Z" transform="translate(-200.656 -270.742)" fill="#fff"/>
        <path id="Path_476356" data-name="Path 476356" d="M251.73,560.881H215.065v23.277h59.942V541.7h52.223v-23.4h-75.5Z" transform="translate(-206.984 -340.168)" fill="#fff"/>
        <path id="Path_476357" data-name="Path 476357" d="M319.651,352.09h66.817V328.813H343.049V277.434H274.423v23.4h45.228Z" transform="translate(-233.054 -234.377)" fill="#fff"/>
        <path id="Path_476358" data-name="Path 476358" d="M362.169,462.776H407.4v30.755h23.4V439.378H362.169Z" transform="translate(-271.592 -305.502)" fill="#fff"/>
      </g>
    </g>
    <g id="SvgjsG1234" transform="translate(589.805 113.67)">
      <path id="Path_476359" data-name="Path 476359" d="M141.964,270.365c3.4,3.969,1.51,8.881-3.593,8.881H117.96a4.944,4.944,0,0,1-4.347-1.888L47.278,203.463v72.194a3.715,3.715,0,0,1-3.591,3.589H24.033a3.755,3.755,0,0,1-3.78-3.589V144.5a59.167,59.167,0,0,0-1.512-11.717c-.567-2.457.378-4.725,2.457-4.725h16.82c5.481,0,9.26,3.591,9.26,8.693v59.72l56.7-66.335a5.021,5.021,0,0,1,4.538-2.079h20.408c4.725,0,6.424,4.914,3.778,8.126L78.081,200.058Zm73.514-142.3c49.137,0,77.674,39.5,77.674,75.028,0,40.255-28.727,76.16-77.674,76.16H165.584a3.789,3.789,0,0,1-3.78-3.778V131.654a3.588,3.588,0,0,1,3.591-3.591h50.082Zm0,125.109c31.183,0,49.893-24.381,49.7-50.272,0-25.512-17.765-48.757-49.7-48.757H188.641l.189,99.03h26.647Z" transform="translate(-18.579 -128.054)" fill="#0aa4b4"/>
    </g>
    <g id="SvgjsG1235" transform="translate(902.395 113.669)">
      <path id="Path_476360" data-name="Path 476360" d="M198.636,259.315c1.486,0,2.229.931,2.229,2.6v9.1c0,1.672-.743,2.413-2.229,2.413H111.524c-1.672,0-2.229-1.113-2.229-2.413V127.251c0-1.672.743-2.415,2.415-2.415h9.844a2.159,2.159,0,0,1,2.415,2.415V259.313h74.667Zm166.611,11.7c.743,1.486.375,2.413-1.3,2.413H352.62a2.63,2.63,0,0,1-2.6-1.672l-13-27.675H247.307l-13,27.675a2.557,2.557,0,0,1-2.415,1.672h-11.7c-1.3,0-2.043-.927-1.3-2.413L288.54,125.585c.743-1.3,1.3-1.672,2.227-1.672h2.6a2.258,2.258,0,0,1,2.229,1.672Zm-111.63-40.3H330.7l-38.633-81.725Zm239.6-105.87h-9.84c-1.857,0-2.6.557-2.6,2.416V216.6c0,31.018-23.217,44.02-44.208,44.02-20.431,0-43.278-13-43.278-44.02V127.259c0-1.672-.743-2.415-2.415-2.415h-9.658c-1.857,0-2.6.743-2.6,2.415V218.64c.184,29.908,21.543,56.093,57.949,56.093,36.591,0,58.693-26.185,58.879-56.093V127.259c0-1.859-.743-2.416-2.229-2.416Zm154.164,0a2,2,0,0,1,2.231,2.041v144.5a2,2,0,0,1-2.229,2.043h-3.9c-2.788,0-5.388-1.856-8.917-5.756l-97.7-115.339V271.024a2.242,2.242,0,0,1-2.415,2.413h-9.658a2.157,2.157,0,0,1-2.415-2.413V127.072a2.049,2.049,0,0,1,2.229-2.229h6.129c1.3,0,2.229.557,3.529,2.043l100.856,119.8v-119.8a1.858,1.858,0,0,1,2.043-2.043h10.216Zm154.9,123.7c1.3.927.929,2.413-.743,4.084-13.747,13.744-31.576,22.1-53.678,22.1-41.792,0-75.967-33.06-75.967-75.408a76.309,76.309,0,0,1,130.017-53.68c1.672,1.672,1.857,2.972.743,3.9l-7.8,6.5c-1.3,1.114-2.415,1.114-3.715-.186-7.8-8.171-23.217-18.2-42.163-18.2-40.306,0-62.594,32.691-62.594,61.665,0,29.347,22.289,61.293,62.594,61.293,18.945,0,33.432-9.658,41.605-17.831,1.486-1.486,2.6-1.857,3.9-.743Zm143.759-123.7c1.672,0,2.6.745,2.6,2.416V271.024a2.106,2.106,0,0,1-2.229,2.413h-7.428c-3.343,0-4.829-2.043-4.829-5.015V207.5h-93.8v63.337c0,1.672-.743,2.6-2.415,2.6h-9.473a2.273,2.273,0,0,1-2.6-2.6V127.258c0-1.672.743-2.415,2.415-2.415h9.659a2.159,2.159,0,0,1,2.415,2.415V193.01h93.8V127.258c0-1.672.743-2.415,2.229-2.415h9.658Z" transform="translate(-109.295 -123.538)" fill="#fff"/>
    </g>
  </g>
</svg>
