<svg xmlns="http://www.w3.org/2000/svg" xmlns:xlink="http://www.w3.org/1999/xlink" width="74" height="74" viewBox="0 0 74 74">
  <defs>
    <clipPath id="clip-path">
      <path id="Path_479176" data-name="Path 479176" d="M0,0H74V74H0Z" transform="translate(-5137 -2581)" fill="#4e4c4c" opacity="0.43" clip-rule="evenodd"/>
    </clipPath>
  </defs>
  <g id="community" transform="translate(5137 2581)" clip-path="url(#clip-path)">
    <g id="_5fadb91f77468db348959717_icon-about-drive-1-crypto-template" data-name="5fadb91f77468db348959717_icon-about-drive-1-crypto-template" transform="translate(-5123 -2561.768)">
      <path id="Path_479170" data-name="Path 479170" d="M23.233,23.133c-7.321,0-13.5,1.2-13.5,5.813s6.217,5.773,13.5,5.773c7.321,0,13.5-1.2,13.5-5.813s-6.217-5.773-13.5-5.773" fill="#4c80ee"/>
      <path id="Path_479171" data-name="Path 479171" d="M23.233,18.735a8.927,8.927,0,0,0,8.932-8.983,8.932,8.932,0,1,0-17.864,0,8.927,8.927,0,0,0,8.932,8.983" fill="#4c80ee" opacity="0.4"/>
      <path id="Path_479172" data-name="Path 479172" d="M42.626,11.843a7.533,7.533,0,0,0-8.77-9.421.288.288,0,0,0-.175.105.22.22,0,0,0,.036.233,12.4,12.4,0,0,1,.177,14.03.336.336,0,0,0,.226.518,6.963,6.963,0,0,0,1.026.1,7.454,7.454,0,0,0,7.48-5.565" fill="#4c80ee" opacity="0.4"/>
      <path id="Path_479173" data-name="Path 479173" d="M46.278,23.721c-.638-1.368-2.179-2.306-4.522-2.767a33.012,33.012,0,0,0-6.882-.6.078.078,0,0,0-.068.053.1.1,0,0,0,.061.1c1.286.64,6.259,3.424,5.634,9.3a.384.384,0,0,0,.429.436c1.224-.176,4.372-.856,5.348-2.975a4.079,4.079,0,0,0,0-3.543" fill="#4c80ee"/>
      <path id="Path_479174" data-name="Path 479174" d="M12.827,2.423a7.457,7.457,0,0,0-1.5-.155,7.582,7.582,0,0,0-7.264,9.576,7.451,7.451,0,0,0,7.478,5.565,7.2,7.2,0,0,0,1.026-.1.336.336,0,0,0,.226-.518,12.395,12.395,0,0,1,.179-14.03A.219.219,0,0,0,13,2.528a.275.275,0,0,0-.175-.105" fill="#4c80ee" opacity="0.4"/>
      <path id="Path_479175" data-name="Path 479175" d="M4.926,20.953c-2.343.461-3.882,1.4-4.52,2.767a4.071,4.071,0,0,0,0,3.545c.977,2.117,4.125,2.8,5.349,2.973a.382.382,0,0,0,.427-.436c-.625-5.87,4.347-8.655,5.635-9.295a.1.1,0,0,0,.059-.1.072.072,0,0,0-.066-.052,32.931,32.931,0,0,0-6.884.6" fill="#4c80ee"/>
    </g>
  </g>
</svg>
