<svg xmlns="http://www.w3.org/2000/svg" width="44.995" height="44.952" viewBox="0 0 44.995 44.952">
  <g id="computingpower" transform="translate(4232 3101)">
    <g id="Group_10899" data-name="Group 10899" transform="translate(-4216.431 -3086.447)">
      <g id="Path_73" data-name="Path 73" transform="translate(3.531 12.398)" fill="none" stroke-linecap="round" stroke-linejoin="round">
        <path d="M4.607,2.095,3.282,2.86.456,1.213,1.748.467,1.78.448l.049.029Z" stroke="none"/>
        <path d="M 3.279789447784424 3.306172132492065 C 3.260606288909912 3.306148767471313 3.241430521011353 3.304882049560547 3.222383499145508 3.302372455596924 C 3.203336238861084 3.29984712600708 3.184417963027954 3.296109437942505 3.165749549865723 3.291082620620728 C 3.147089242935181 3.286071538925171 3.128686428070068 3.279832601547241 3.110662221908569 3.272320032119751 C 3.092638492584229 3.264837980270386 3.07499361038208 3.25608229637146 3.057856559753418 3.246099233627319 L 0.2321491092443466 1.599121451377869 C 0.197892963886261 1.579159259796143 0.1669778972864151 1.554986000061035 0.1398734301328659 1.527449727058411 C 0.1127541214227676 1.499913930892944 0.08945292234420776 1.469015598297119 0.0704696998000145 1.435633540153503 C 0.05148664861917496 1.402236580848694 0.0368138886988163 1.366371035575867 0.02693615481257439 1.328870534896851 C 0.01706606522202492 1.291385293006897 0.01199847273528576 1.252264857292175 0.01222568470984697 1.212403178215027 C 0.01243774686008692 1.172541618347168 0.01795213297009468 1.133438587188721 0.02824617363512516 1.095957636833191 C 0.03853261470794678 1.058476686477661 0.0536062940955162 1.022632718086243 0.07295972853899002 0.9892891049385071 C 0.09231318533420563 0.9559304118156433 0.1159464418888092 0.9250567555427551 0.1433596462011337 0.8975619673728943 C 0.1707805544137955 0.870067298412323 0.2019663453102112 0.8459059000015259 0.2364399135112762 0.8260171413421631 L 1.527567386627197 0.08016622811555862 L 1.556654930114746 0.06303013116121292 C 1.574081659317017 0.05275752022862434 1.592038989067078 0.04377275705337524 1.610382914543152 0.03606069833040237 C 1.628727078437805 0.0283789150416851 1.64745020866394 0.02196983993053436 1.666438579559326 0.01684863120317459 C 1.685434818267822 0.01171224750578403 1.704673767089844 0.00786373857408762 1.724034309387207 0.00531826401129365 C 1.743394613265991 0.002757624723017216 1.762884378433228 0.001484878710471094 1.782366752624512 0.001500034471973777 C 1.801523089408875 0.001515190117061138 1.820672035217285 0.00278795650228858 1.839692831039429 0.005272889044135809 C 1.858720898628235 0.007757833693176508 1.877605438232422 0.01150041446089745 1.89624035358429 0.01650064066052437 C 1.914875268936157 0.02148574404418468 1.933252573013306 0.02769820019602776 1.951258778572083 0.03516832739114761 C 1.969265222549438 0.0426536500453949 1.986900925636292 0.05138151347637177 2.004021406173706 0.06135192140936852 L 2.053040981292725 0.08986940979957581 L 4.831087112426758 1.707914590835571 C 4.865383625030518 1.727889895439148 4.89635181427002 1.752094626426697 4.92349910736084 1.779634237289429 C 4.950654983520508 1.807174563407898 4.973989009857178 1.838095188140869 4.993007659912109 1.871501445770264 C 5.012026309967041 1.904907941818237 5.026731014251709 1.94078540802002 5.03663444519043 1.978329658508301 C 5.046545505523682 2.015828609466553 5.051625728607178 2.054979562759399 5.051426410675049 2.094887256622314 C 5.051219940185547 2.134779930114746 5.045725345611572 2.173897743225098 5.035429954528809 2.211407661437988 C 5.02514123916626 2.248902082443237 5.010066032409668 2.284787893295288 4.990704536437988 2.318155765533447 C 4.971335411071777 2.351538419723511 4.94767951965332 2.382417917251587 4.920252799987793 2.409929990768433 C 4.892810821533203 2.437456846237183 4.861598491668701 2.461601257324219 4.827093124389648 2.481544733047485 L 3.502543687820435 3.246485948562622 C 3.485287666320801 3.256454944610596 3.467530727386475 3.265180349349976 3.44940972328186 3.272631883621216 C 3.431296586990356 3.280098915100098 3.412819623947144 3.286322832107544 3.394083738327026 3.291302680969238 C 3.37536358833313 3.296282529830933 3.356377840042114 3.300004243850708 3.33729362487793 3.302482604980469 C 3.318201541900635 3.30496072769165 3.298995733261108 3.306195974349976 3.279789447784424 3.306172132492065 Z M 1.344894170761108 1.213342666625977 L 3.284941673278809 2.34377121925354 L 3.717526912689209 2.093914031982422 L 1.777394533157349 0.9635218381881714 L 1.344894170761108 1.213342666625977 Z" stroke="none" fill="#313457"/>
      </g>
      <g id="Path_74" data-name="Path 74" transform="translate(0.031 0)" fill="none" stroke-linecap="round" stroke-linejoin="round">
        <path d="M13.232,4.148l-.008,1.541L10.439,4.072l-.755-.438-.759.439L5.367,6.13l-.759.439L4.6,7.475,3.244,6.684l-.753-.438-.758.439L.446,7.427.466,4.153l6.4-3.7Z" stroke="none"/>
        <path d="M 4.600703239440918 7.921013355255127 C 4.581535816192627 7.921009063720703 4.562379360198975 7.919764995574951 4.543351173400879 7.917274951934814 C 4.524323463439941 7.914784908294678 4.505427837371826 7.911052227020264 4.486790657043457 7.906075477600098 C 4.46814489364624 7.901092529296875 4.449763774871826 7.894863128662109 4.431761741638184 7.887396812438965 C 4.413760185241699 7.879926681518555 4.39613676071167 7.871213912963867 4.379017353057861 7.86125659942627 L 3.019747018814087 7.070443630218506 L 2.487593412399292 6.760715007781982 L 1.952008128166199 7.070449829101562 L 0.665894627571106 7.81361198425293 C 0.6486890912055969 7.823555946350098 0.6309840679168701 7.832259178161621 0.6129232048988342 7.839714527130127 C 0.5948548913002014 7.847174644470215 0.5764232277870178 7.853384017944336 0.5577530860900879 7.858358383178711 C 0.5390793681144714 7.863330364227295 0.5201634168624878 7.867063045501709 0.5011339783668518 7.869546890258789 C 0.4821045100688934 7.872028827667236 0.4629579186439514 7.873274326324463 0.4438227117061615 7.87327766418457 C 0.4246686398983002 7.87328052520752 0.4055221676826477 7.872029304504395 0.3865082859992981 7.869537830352783 C 0.3674944639205933 7.867048740386963 0.3486132025718689 7.863310813903809 0.3299893438816071 7.858331203460693 C 0.3113656044006348 7.853344917297363 0.2929992973804474 7.84712028503418 0.2750152945518494 7.83965015411377 C 0.257023811340332 7.832180500030518 0.2394222170114517 7.823461055755615 0.2223164886236191 7.813497543334961 C 0.1881279945373535 7.79358434677124 0.1572587192058563 7.769449710845947 0.1301967650651932 7.741963863372803 C 0.1031389087438583 7.714479923248291 0.07989582419395447 7.683640956878662 0.06094804778695107 7.650319576263428 C 0.04200043901801109 7.616992950439453 0.02735939621925354 7.581186771392822 0.01750919036567211 7.543747901916504 C 0.007662842515856028 7.506316184997559 0.002611034782603383 7.467260360717773 0.002845641924068332 7.427450656890869 L 0.02216251939535141 4.153618812561035 C 0.02239702455699444 4.113819122314453 0.02790920995175838 4.074775218963623 0.0381958968937397 4.037350654602051 C 0.04848633334040642 3.99992561340332 0.06355126947164536 3.964123010635376 0.08289135247468948 3.930801630020142 C 0.102227658033371 3.897480010986328 0.1258391588926315 3.866642951965332 0.1532189697027206 3.83916449546814 C 0.1806064397096634 3.811677932739258 0.2117547392845154 3.787546157836914 0.2461797297000885 3.767631769180298 L 6.643676280975342 0.06631554663181305 C 6.660911083221436 0.05634445697069168 6.67863130569458 0.04761500656604767 6.696721076965332 0.04013857245445251 C 6.714808940887451 0.03265073895454407 6.733266353607178 0.02641213685274124 6.751962184906006 0.0214189738035202 C 6.770666122436523 0.01642200537025928 6.789606094360352 0.01267427299171686 6.808667182922363 0.01016442757099867 C 6.827725410461426 0.007654570508748293 6.846904754638672 0.006393966265022755 6.866073131561279 0.006375053897500038 C 6.885246753692627 0.006356142461299896 6.904412269592285 0.007582719437777996 6.923441886901855 0.01005479507148266 C 6.942476749420166 0.01252688560634851 6.961374759674072 0.0162369180470705 6.980023384094238 0.02119625732302666 C 6.998669147491455 0.02615562826395035 7.017060279846191 0.03236053138971329 7.035067081451416 0.03981099277734756 C 7.053080558776855 0.04725391790270805 7.070705413818359 0.05594998598098755 7.087825775146484 0.06588783860206604 L 13.45642757415771 3.761351346969604 C 13.49075126647949 3.781270265579224 13.52174377441406 3.805413961410522 13.54892349243164 3.832923173904419 C 13.57611083984375 3.860425233840942 13.59946155548096 3.891295194625854 13.61850833892822 3.924657583236694 C 13.63755226135254 3.958020448684692 13.65227890014648 3.993872404098511 13.66219234466553 4.031359672546387 C 13.6721076965332 4.068839073181152 13.67721366882324 4.107951164245605 13.67701435089111 4.147822380065918 L 13.66929054260254 5.689142227172852 C 13.66909122467041 5.729021549224854 13.66359233856201 5.768141746520996 13.65330219268799 5.80564022064209 C 13.64301300048828 5.843139171600342 13.62792205810547 5.87900972366333 13.60854148864746 5.912391185760498 C 13.58915996551514 5.945772171020508 13.56549263000488 5.976665496826172 13.53803253173828 6.004196166992188 C 13.51057624816895 6.031726837158203 13.47933387756348 6.055903434753418 13.44480800628662 6.07584810256958 C 13.42754650115967 6.085821628570557 13.40978813171387 6.094548225402832 13.39166259765625 6.102026462554932 C 13.37353515625 6.109505176544189 13.35503959655762 6.115738391876221 13.33630752563477 6.120729923248291 C 13.31756496429443 6.125716209411621 13.298583984375 6.129462718963623 13.2794828414917 6.131957054138184 C 13.26038360595703 6.134452819824219 13.24116134643555 6.135702610015869 13.22195339202881 6.135706424713135 C 13.20274543762207 6.135709762573242 13.18354320526123 6.134466171264648 13.16446781158447 6.131973743438721 C 13.14539909362793 6.129490852355957 13.12646102905273 6.125751495361328 13.10777950286865 6.120776653289795 C 13.08909606933594 6.115791320800781 13.0706672668457 6.109565258026123 13.05262279510498 6.102096080780029 C 13.03457546234131 6.094619750976562 13.01690769195557 6.085902690887451 12.99974632263184 6.075936317443848 L 10.21470165252686 4.458779811859131 L 9.681488037109375 4.149060249328613 L 9.145142555236816 4.459161281585693 L 5.586935997009277 6.515823841094971 L 5.050962924957275 6.825722217559814 L 5.04734468460083 7.474954128265381 C 5.047122955322266 7.514789581298828 5.04161548614502 7.55387544631958 5.031324863433838 7.591340065002441 C 5.021034717559814 7.628798961639404 5.005959033966064 7.664639472961426 4.986602783203125 7.697988510131836 C 4.967247486114502 7.731334686279297 4.943613529205322 7.762195110321045 4.916201114654541 7.789695262908936 C 4.88878059387207 7.817194938659668 4.857589721679688 7.841338157653809 4.823123931884766 7.861257076263428 C 4.805894374847412 7.871217727661133 4.788167953491211 7.879931449890137 4.770074367523193 7.887399196624756 C 4.751980781555176 7.894870281219482 4.733519554138184 7.901099681854248 4.714822769165039 7.906076908111572 C 4.696118354797363 7.911057472229004 4.677175045013428 7.914792537689209 4.658114433288574 7.917281150817871 C 4.639053344726562 7.919773101806641 4.619874477386475 7.921013832092285 4.600703239440918 7.921013355255127 Z M 2.493107795715332 5.799994468688965 C 2.512265920639038 5.799990653991699 2.531420230865479 5.801227569580078 2.550442695617676 5.803714752197266 C 2.569465160369873 5.806201934814453 2.588351726531982 5.809930324554443 2.606988668441772 5.814908981323242 C 2.625622272491455 5.819880485534668 2.644001722335815 5.826099872589111 2.661995649337769 5.833569049835205 C 2.679993391036987 5.841034412384033 2.697609424591064 5.849738597869873 2.714717864990234 5.859698295593262 L 3.468085289001465 6.298038005828857 L 4.163480758666992 6.702488899230957 L 4.164235591888428 6.56833553314209 C 4.164459228515625 6.528505325317383 4.169967651367188 6.489433765411377 4.180261135101318 6.451980113983154 C 4.190549850463867 6.414533138275146 4.205620288848877 6.378705024719238 4.224967956542969 6.345364570617676 C 4.244319438934326 6.312020301818848 4.2679443359375 6.281167984008789 4.295347690582275 6.253674983978271 C 4.322749614715576 6.226172924041748 4.353922843933105 6.202030181884766 4.388374328613281 6.182106018066406 L 5.147030353546143 5.743392944335938 L 8.704700469970703 3.686694145202637 L 9.463898658752441 3.24765419960022 C 9.48115348815918 3.23767876625061 9.498888969421387 3.228950023651123 9.516997337341309 3.221467733383179 C 9.535110473632812 3.213985443115234 9.553583145141602 3.207749366760254 9.572307586669922 3.202756404876709 C 9.591028213500977 3.197759389877319 9.609992980957031 3.194013118743896 9.62907600402832 3.191516876220703 C 9.648154258728027 3.189016580581665 9.667352676391602 3.187759160995483 9.686546325683594 3.187748193740845 C 9.705741882324219 3.187737226486206 9.724930763244629 3.188973188400269 9.743990898132324 3.191455125808716 C 9.763043403625488 3.193929433822632 9.781967163085938 3.197654008865356 9.800636291503906 3.202629327774048 C 9.819297790527344 3.207603454589844 9.837713241577148 3.213821411132812 9.855746269226074 3.2212815284729 C 9.873778343200684 3.228745460510254 9.891432762145996 3.23745584487915 9.908575057983398 3.247412443161011 L 10.6634578704834 3.685767889022827 L 12.78308773040771 4.916183471679688 L 12.78567695617676 4.405899524688721 L 6.860831260681152 0.9668919444084167 L 0.9077137112617493 4.410543918609619 L 0.8945974707603455 6.655516147613525 L 1.512790083885193 6.298235893249512 L 2.270825624465942 5.859787940979004 C 2.288050413131714 5.849821090698242 2.305763483047485 5.841110229492188 2.323844194412231 5.833635330200195 C 2.341925382614136 5.826163768768311 2.36037015914917 5.819934844970703 2.379060983657837 5.81495475769043 C 2.397747993469238 5.809970378875732 2.416685342788696 5.806232452392578 2.435733318328857 5.803741455078125 C 2.454780578613281 5.801245212554932 2.473946094512939 5.799998760223389 2.493107795715332 5.799994468688965 Z" stroke="none" fill="#313457"/>
      </g>
      <g id="Path_75" data-name="Path 75" transform="translate(5.666 4.94)" fill="none" stroke-linecap="round" stroke-linejoin="round">
        <path d="M7.58,2.505,7.559,6.622,4,8.679l0,0L.458,6.618.481,2.505,4.04.448Z" stroke="none"/>
        <path d="M 3.99395227432251 9.125370979309082 C 3.974177837371826 9.125347137451172 3.954418897628784 9.124011993408203 3.93480372428894 9.121356964111328 C 3.915187835693359 9.118692398071289 3.895724058151245 9.11470890045166 3.876533031463623 9.109414100646973 C 3.857334852218628 9.104111671447754 3.838432312011719 9.097498893737793 3.819945573806763 9.089555740356445 C 3.801467895507812 9.081623077392578 3.78339147567749 9.072370529174805 3.765875577926636 9.061789512634277 L 3.764047145843506 9.060687065124512 L 0.2339709401130676 7.00487756729126 C 0.1997022330760956 6.984926223754883 0.1687674671411514 6.960748672485352 0.1416439116001129 6.933202743530273 C 0.1145282164216042 6.905664443969727 0.09120845049619675 6.874772071838379 0.07221486419439316 6.841388702392578 C 0.05321389809250832 6.808000087738037 0.03853141888976097 6.772135734558105 0.02865223772823811 6.734639644622803 C 0.01876555569469929 6.697144508361816 0.01368964370340109 6.658038139343262 0.01390930823981762 6.618171215057373 L 0.03664984554052353 2.50541353225708 C 0.03687696531414986 2.465576171875 0.04237548261880875 2.426490545272827 0.05266823992133141 2.389043092727661 C 0.06296096742153168 2.351580381393433 0.07803279161453247 2.315747976303101 0.09738387167453766 2.28239369392395 C 0.1167425438761711 2.24904727935791 0.1403729468584061 2.218186378479004 0.1677752882242203 2.190682411193848 C 0.1951852589845657 2.163177728652954 0.2263749092817307 2.1390380859375 0.260844349861145 2.119102716445923 L 3.819357872009277 0.06153545901179314 C 3.836615324020386 0.05155742913484573 3.854358673095703 0.04283706471323967 3.872465372085571 0.03534404933452606 C 3.890581130981445 0.0278661698102951 3.909052610397339 0.02162322029471397 3.927774906158447 0.01663036830723286 C 3.94650411605835 0.01164506934583187 3.9654700756073 0.007902300916612148 3.984549522399902 0.005402064882218838 C 4.003636837005615 0.002901817439123988 4.022845268249512 0.001644114498049021 4.042046546936035 0.001644118572585285 C 4.061248779296875 0.001636546337977052 4.080435752868652 0.00287911668419838 4.099493980407715 0.005364262964576483 C 4.118552684783936 0.007849422283470631 4.137490272521973 0.0115847485139966 4.156156063079834 0.01656267605721951 C 4.174821376800537 0.02154063247144222 4.193244457244873 0.02776877582073212 4.21126651763916 0.03523197397589684 C 4.229311466217041 0.04271794483065605 4.246969699859619 0.05143139883875847 4.264113903045654 0.06139509379863739 L 7.804671287536621 2.118784666061401 C 7.838992118835449 2.138736009597778 7.869984149932861 2.162895202636719 7.897153854370117 2.190428018569946 C 7.924330711364746 2.217960596084595 7.947691917419434 2.248851776123047 7.966721534729004 2.28222918510437 C 7.98576545715332 2.315614223480225 8.000493049621582 2.35148549079895 8.010410308837891 2.388986349105835 C 8.020326614379883 2.426479339599609 8.025433540344238 2.465601682662964 8.025226593017578 2.505480766296387 L 8.004604339599609 6.622557163238525 C 8.00440502166748 6.662465572357178 7.998907089233398 6.701611042022705 7.988616466522217 6.739128112792969 C 7.978311061859131 6.776652812957764 7.963215351104736 6.812535285949707 7.943828105926514 6.845932483673096 C 7.924440860748291 6.879321575164795 7.900763034820557 6.910218715667725 7.873287677764893 6.937750816345215 C 7.845820426940918 6.965291023254395 7.814562320709229 6.989457130432129 7.780008316040039 7.009387969970703 L 4.216715335845947 9.065702438354492 C 4.199446201324463 9.075664520263672 4.181690692901611 9.084382057189941 4.16356372833252 9.09184741973877 C 4.145444393157959 9.099312782287598 4.126953601837158 9.105534553527832 4.108219146728516 9.110511779785156 C 4.089484214782715 9.115487098693848 4.070514678955078 9.119203567504883 4.051431179046631 9.121685028076172 C 4.032340049743652 9.124157905578613 4.013150215148926 9.125387191772461 3.99395227432251 9.125370979309082 Z M 0.9041198492050171 6.360918045043945 L 3.999122381210327 8.162812232971191 L 7.115457534790039 6.364129543304443 L 7.13370418548584 2.763220310211182 L 4.036980628967285 0.9631956219673157 L 0.9238070845603943 2.762960195541382 L 0.9041198492050171 6.360918045043945 Z" stroke="none" fill="#313457"/>
      </g>
      <g id="Path_76" data-name="Path 76" transform="translate(0 7.554)" fill="none" stroke-linecap="round" stroke-linejoin="round">
        <path d="M4.543,1.628,4.53,3.993,2.484,5.176.453,3.991.467,1.627,2.511.446Z" stroke="none"/>
        <path d="M 2.48158597946167 5.621771335601807 C 2.462411403656006 5.621757507324219 2.443244218826294 5.620500564575195 2.424213409423828 5.61799430847168 C 2.405174493789673 5.615494251251221 2.386276006698608 5.611730098724365 2.367627859115601 5.606732368469238 C 2.348987102508545 5.601733207702637 2.330595731735229 5.595483779907227 2.312587261199951 5.587985515594482 C 2.294579029083252 5.580502510070801 2.276953458786011 5.571754455566406 2.259835004806519 5.561772346496582 L 0.2288452386856079 4.377146244049072 C 0.1946475356817245 4.357194900512695 0.1637812852859497 4.333034515380859 0.136715829372406 4.305515289306641 C 0.1096544712781906 4.278004169464111 0.08640511333942413 4.247140407562256 0.06745979934930801 4.213788509368896 C 0.04851464554667473 4.180435657501221 0.03386964648962021 4.144603252410889 0.02402434498071671 4.107137203216553 C 0.01417533028870821 4.069685935974121 0.009122147224843502 4.030611038208008 0.009356800466775894 3.990781307220459 L 0.02330135554075241 1.6271892786026 C 0.02353593334555626 1.587356686592102 0.02904992736876011 1.548282384872437 0.03934754431247711 1.510836720466614 C 0.04964135214686394 1.473398566246033 0.06471501290798187 1.437574028968811 0.08406520634889603 1.404240608215332 C 0.1034116372466087 1.370907187461853 0.1270346641540527 1.340072393417358 0.1544310003519058 1.312584042549133 C 0.1818274706602097 1.285095810890198 0.2129973173141479 1.260968565940857 0.2474335879087448 1.241073608398438 L 2.291627883911133 0.05964068695902824 C 2.30884313583374 0.04969308152794838 2.326554536819458 0.04097944498062134 2.344633817672729 0.03351493924856186 C 2.362709283828735 0.02605040185153484 2.381152391433716 0.01982741616666317 2.399834156036377 0.01485355943441391 C 2.418515682220459 0.009879681281745434 2.437440156936646 0.006147371139377356 2.456486463546753 0.00365663506090641 C 2.475528478622437 0.001173456897959113 2.494692325592041 -7.570708112325519e-05 2.513844966888428 -7.570727757411078e-05 C 2.532994031906128 -7.570747402496636e-05 2.552143096923828 0.001173468655906618 2.57115650177002 0.003656690008938313 C 2.590173482894897 0.006155065260827541 2.609058380126953 0.009887499734759331 2.627686262130737 0.01486157532781363 C 2.646314382553101 0.01983567886054516 2.664684534072876 0.02605900540947914 2.682676792144775 0.03352399542927742 C 2.700669288635254 0.04098903387784958 2.718279838562012 0.04970332607626915 2.735386848449707 0.05965173617005348 L 4.767343044281006 1.241909503936768 C 4.801592826843262 1.26183557510376 4.832528114318848 1.285987615585327 4.859641551971436 1.313502192497253 C 4.886755466461182 1.341017246246338 4.910054683685303 1.371879696846008 4.929045677185059 1.405241131782532 C 4.948034286499023 1.438610672950745 4.962714672088623 1.474464058876038 4.972594738006592 1.511930346488953 C 4.982470989227295 1.549404382705688 4.987542629241943 1.58850634098053 4.987320899963379 1.62836480140686 L 4.974132061004639 3.993500232696533 C 4.973910331726074 4.033355712890625 4.968400478363037 4.072451114654541 4.958111763000488 4.109915256500244 C 4.947819232940674 4.14739465713501 4.932741641998291 4.183234214782715 4.913389682769775 4.216579437255859 C 4.894040584564209 4.249931335449219 4.870404720306396 4.280788421630859 4.842996120452881 4.308285713195801 C 4.815587997436523 4.335791110992432 4.784400939941406 4.359930515289307 4.749938011169434 4.379847049713135 L 2.704031467437744 5.562104225158691 C 2.686793088912964 5.572062015533447 2.669069766998291 5.580784797668457 2.650971174240112 5.588241577148438 C 2.632876634597778 5.595714092254639 2.614414691925049 5.601936340332031 2.59571361541748 5.606907844543457 C 2.577004909515381 5.611878395080566 2.558061361312866 5.615614891052246 2.538996696472168 5.618078708648682 C 2.519939422607422 5.620557308197021 2.500757217407227 5.621785640716553 2.48158597946167 5.621771335601807 Z M 0.8983311653137207 3.733811855316162 L 2.48710298538208 4.660212993621826 L 4.087162971496582 3.735445499420166 L 4.097587108612061 1.88576066493988 L 2.508331537246704 0.9608005881309509 L 0.9091352224349976 1.884902238845825 L 0.8983311653137207 3.733811855316162 Z" stroke="none" fill="#313457"/>
      </g>
    </g>
    <g id="EtherBoxLogo" transform="translate(-4232 -3101)">
      <path id="Path_479265" data-name="Path 479265" d="M23.14,44.279V41.926h.119A19.467,19.467,0,0,0,42.053,23.133v-.119h2.379a.564.564,0,0,0,0-1.128H42.053v-.119A19.488,19.488,0,0,0,23.259,2.943H23.14V.564a.564.564,0,0,0-1.128,0V2.943h-.119A19.536,19.536,0,0,0,3.05,21.753v.119H.564A.564.564,0,1,0,.564,23H3.045v.119A19.507,19.507,0,0,0,21.889,41.912h.119v2.353a.564.564,0,0,0,.561.564v0a.566.566,0,0,0,.571-.549Zm-1.128-7.246V40.8h-.128A18.46,18.46,0,0,1,4.177,23.13V23H7.81a.564.564,0,0,0,0-1.128H4.173v-.128A18.475,18.475,0,0,1,21.884,4.056h.128V7.784a.564.564,0,1,0,1.128,0V4.051h.126A18.443,18.443,0,0,1,40.915,21.739v.128H37.171a.564.564,0,1,0,0,1.128H40.92v.126A18.4,18.4,0,0,1,23.271,40.789h-.126V37.033a.564.564,0,0,0-1.128,0Z" fill="#313457"/>
      <path id="Path_479266" data-name="Path 479266" d="M34.571,19.55a12.392,12.392,0,0,0-4.784-7.137l.331-.1a.452.452,0,0,0,.269-.221.435.435,0,0,0,.036-.345.452.452,0,0,0-.221-.269.448.448,0,0,0-.345-.036l-.657.2c-.714.212-.757.224-.854.378s-.088.181.04.971c.029.179.064.4.107.673a.455.455,0,0,0,.9-.143l-.048-.3a11.521,11.521,0,0,1-10.339,20.24.429.429,0,0,0-.435.086.49.49,0,0,0-.147.461.426.426,0,0,0,.307.319,12.4,12.4,0,0,0,3.78.59,12.062,12.062,0,0,0,2.888-.347,12.608,12.608,0,0,0,5.576-3.021,12.254,12.254,0,0,0,3.6-11.992Z" fill="#313457"/>
      <path id="Path_479267" data-name="Path 479267" d="M16.489,31.283a.454.454,0,1,0-.9.143l.048.3a11.521,11.521,0,0,1,10.339-20.24.454.454,0,0,0,.276-.866,12.311,12.311,0,0,0-6.661-.238,12.607,12.607,0,0,0-5.574,3.021,12.256,12.256,0,0,0-3.6,11.988A12.413,12.413,0,0,0,15.2,32.53l-.331.1a.454.454,0,0,0-.1.823.445.445,0,0,0,.238.067.5.5,0,0,0,.131-.019l.645-.193c.714-.209.776-.238.871-.392s.081-.178-.041-.933C16.572,31.8,16.534,31.571,16.489,31.283Z" fill="#313457"/>
    </g>
  </g>
</svg>
