<svg id="contractslanguage" xmlns="http://www.w3.org/2000/svg" width="29" height="39.712" viewBox="0 0 29 39.712">
  <path id="Path_479262" data-name="Path 479262" d="M25.045,0H12.44a3.918,3.918,0,0,0-2.8,1.164L1.159,9.684A3.956,3.956,0,0,0,0,12.494V35.74a3.968,3.968,0,0,0,3.955,3.972h9.88c.244,0-.393-.14-.393-.382s3.093-.5,2.851-.5H3.955A3.086,3.086,0,0,1,.879,35.742V22.063H7.771a3.055,3.055,0,0,1,2.176.9L11.4,24.429a3.926,3.926,0,0,0,2.8,1.164h5.224a2.171,2.171,0,0,0,2.108,1.766,2.206,2.206,0,0,0,0-4.412,2.171,2.171,0,0,0-2.108,1.766H14.2a3.055,3.055,0,0,1-2.176-.9l-1.455-1.462a3.926,3.926,0,0,0-2.8-1.164H.879V15H19.422a2.171,2.171,0,0,0,2.108,1.766,2.206,2.206,0,0,0,0-4.412,2.171,2.171,0,0,0-2.108,1.766H.879V12.5a3.106,3.106,0,0,1,.184-1.021l6.406-.006c.244,0-.149-.2-.149-.44s1.707-.44,1.466-.44l-7.236.006a3.232,3.232,0,0,1,.231-.281l8.485-8.527a3.248,3.248,0,0,1,.28-.232V7.5A3.086,3.086,0,0,1,7.47,10.588a.44.44,0,0,0,0,.881A3.953,3.953,0,0,0,11.38,7.939h6.635a2.206,2.206,0,0,0,0-4.412H11.425V1.068A3.07,3.07,0,0,1,12.442.883h12.6a3.086,3.086,0,0,1,3.076,3.089l.012,17.954c0,.245.2-2.219.438-2.219S29,17.42,29,17.178V3.972A3.967,3.967,0,0,0,25.045,0ZM21.53,23.826a1.323,1.323,0,1,1-1.318,1.323A1.321,1.321,0,0,1,21.53,23.826Zm0-10.59a1.323,1.323,0,1,1-1.318,1.323A1.32,1.32,0,0,1,21.53,13.236ZM18.016,4.412a1.323,1.323,0,0,1,0,2.646H11.425V4.412Z" fill="#313457"/>
  <path id="Path_479263" data-name="Path 479263" d="M28.559,15.885a.439.439,0,0,0-.438.44V35.739a3.086,3.086,0,0,1-3.076,3.089h-12.3a.44.44,0,0,0,0,.881h12.3A3.968,3.968,0,0,0,29,35.737V16.325A.439.439,0,0,0,28.559,15.885Z" fill="#313457"/>
  <path id="Path_479264" data-name="Path 479264" d="M18.74,33.708H7.6a.445.445,0,0,1,0-.889H18.74a.445.445,0,0,1,0,.889Z" fill="#313457"/>
</svg>
