<svg xmlns="http://www.w3.org/2000/svg" width="1844.803" height="587.695" viewBox="0 0 1844.803 587.695">
  <g id="cubes" transform="translate(183.982 -0.863)">
    <path id="Path_475050" data-name="Path 475050" d="M154.14,36.778V1.3m0,0v35.48l30.74,17.74,30.737-17.74V1.3m0,0v35.48l30.74,17.74,30.737-17.74V1.3m0,0v35.48M154.14,143.47V107.99m0,0,30.74-17.74V54.767L154.14,37.025M215.617,143.47V107.99L184.88,90.25l-30.739,17.74v35.48l30.74,17.74Z" fill="none" stroke="#c5c9e0" stroke-width="1" fill-rule="evenodd" opacity="0.5"/>
    <path id="Path_475051" data-name="Path 475051" d="M246.356,90.247V54.767l-30.74-17.74-30.737,17.74v35.48l30.737,17.74Zm30.738,53.223V107.99l-30.74-17.74-30.737,17.74v35.48l30.738,17.74Z" fill="none" stroke="#c5c9e0" stroke-width="1" fill-rule="evenodd" opacity="0.5"/>
    <path id="Path_475052" data-name="Path 475052" d="M277.094,37.026l-30.74,17.74v35.48l30.74,17.741,30.738-17.741m30.739,53.224V107.99l-30.74-17.74-30.737,17.74v35.48l30.738,17.74ZM307.833,90.247l30.739,17.74,30.738-17.74m30.738,53.223V107.99l-30.74-17.74-30.737,17.74v35.48l30.738,17.74ZM369.31,90.247l30.739,17.74,30.738-17.74V54.767" fill="none" stroke="#c5c9e0" stroke-width="1" fill-rule="evenodd" opacity="0.5"/>
    <path id="Path_475053" data-name="Path 475053" d="M461.525,143.47V107.99L430.787,90.25l-30.74,17.74v35.48l30.74,17.74Zm30.739-53.223V54.767l-30.74-17.74-30.738,17.74v35.48l30.738,17.74Z" fill="none" stroke="#c5c9e0" stroke-width="1" fill-rule="evenodd" opacity="0.5"/>
    <path id="Path_475054" data-name="Path 475054" d="M523,143.47V107.99L492.264,90.25l-30.74,17.74v35.48l30.74,17.74ZM553.74,90.247V54.767L523,37.027l-30.738,17.74v35.48L523,107.987Z" fill="none" stroke="#c5c9e0" stroke-width="1" fill-rule="evenodd" opacity="0.5"/>
    <path id="Path_475055" data-name="Path 475055" d="M553.74,90.25,523,107.99v35.48l30.74,17.741m0-106.445v35.48M-30.29,214.682v35.48L.447,267.9l30.74-17.74m0,0L61.924,267.9l30.74-17.74m92.215-88.705-30.74-17.74m92.217,17.74-30.74-17.74-30.737,17.74" fill="none" stroke="#c5c9e0" stroke-width="1" fill-rule="evenodd" opacity="0.5"/>
    <path id="Path_475056" data-name="Path 475056" d="M307.833,161.458,277.1,143.718l-30.74,17.74" fill="none" stroke="#c5c9e0" stroke-width="1" fill-rule="evenodd" opacity="0.5"/>
    <path id="Path_475057" data-name="Path 475057" d="M369.31,161.458l-30.738-17.74-30.74,17.74M430.787,196.94V161.46l-30.74-17.743L369.31,161.459M430.787,267.9l30.737-17.74v-35.48l-30.737-17.742" fill="none" stroke="#c5c9e0" stroke-width="1" fill-rule="evenodd" opacity="0.5"/>
    <path id="Path_475058" data-name="Path 475058" d="M492.264,196.94V161.46l-30.74-17.743-30.738,17.742v35.48l30.738,17.74,30.74-17.74Z" fill="none" stroke="#c5c9e0" stroke-width="1" stroke-dasharray="10" fill-rule="evenodd" opacity="0.5"/>
    <path id="Path_475059" data-name="Path 475059" d="M523,250.163v-35.48l-30.738-17.742-30.74,17.742v35.48l30.74,17.74ZM553.74,196.94V161.46L523,143.717l-30.738,17.742v35.48L523,214.679Zm30.739,53.223v-35.48l-30.74-17.742L523,214.683v35.48L553.74,267.9Z" fill="none" stroke="#c5c9e0" stroke-width="1" fill-rule="evenodd" opacity="0.5"/>
    <path id="Path_475060" data-name="Path 475060" d="M553.74,161.458v35.48l30.74,17.74,30.737-17.74m30.739,53.225v-35.48l-30.74-17.742-30.737,17.742v35.48l30.738,17.74ZM615.217,196.94l30.74,17.74,30.737-17.74" fill="none" stroke="#c5c9e0" stroke-width="1" fill-rule="evenodd" opacity="0.5"/>
    <path id="Path_475061" data-name="Path 475061" d="M676.694,196.942l-30.738,17.74v35.482M.448,303.632v-35.48l-30.738-17.74-30.74,17.74v35.48l30.74,17.74Zm30.739,53.224v-35.48L.447,303.636l-30.738,17.74v35.48L.447,374.6Z" fill="none" stroke="#c5c9e0" stroke-width="1" fill-rule="evenodd" opacity="0.5"/>
    <path id="Path_475062" data-name="Path 475062" d="M61.925,303.632v-35.48l-30.738-17.74L.447,268.152v35.48l30.74,17.74Z" fill="none" stroke="#c5c9e0" stroke-width="1" fill-rule="evenodd" opacity="0.5"/>
    <path id="Path_475063" data-name="Path 475063" d="M92.664,356.856v-35.48l-30.74-17.74-30.738,17.74v35.48L61.924,374.6Z" fill="none" stroke="#c5c9e0" stroke-width="1" stroke-dasharray="10" fill-rule="evenodd" opacity="0.5"/>
    <path id="Path_475064" data-name="Path 475064" d="M92.664,250.41l-30.74,17.74v35.48l30.74,17.743m0,0v35.48M553.74,303.632v-35.48L523,250.412l-30.738,17.74v35.48L523,321.372Zm30.739,53.224v-35.48l-30.74-17.74L523,321.376v35.48L553.74,374.6Zm30.738-53.224v-35.48l-30.738-17.74-30.739,17.74v35.48l30.74,17.74Z" fill="none" stroke="#c5c9e0" stroke-width="1" fill-rule="evenodd" opacity="0.5"/>
    <path id="Path_475065" data-name="Path 475065" d="M615.217,303.635l-30.738,17.74v35.48L615.217,374.6M645.956,250.41l-30.74,17.74v35.48M.448,410.324v-35.48L-30.29,357.1l-30.74,17.74v35.48l30.74,17.74Zm30.739,53.224v-35.48L.447,410.328l-30.738,17.74v35.48L.447,481.288Z" fill="none" stroke="#c5c9e0" stroke-width="1" fill-rule="evenodd" opacity="0.5"/>
    <path id="Path_475066" data-name="Path 475066" d="M61.925,410.324v-35.48L31.187,357.1.447,374.844v35.48l30.74,17.74Zm30.739,53.224v-35.48l-30.74-17.74-30.738,17.74v35.48l30.738,17.74Z" fill="none" stroke="#c5c9e0" stroke-width="1" fill-rule="evenodd" opacity="0.5"/>
    <path id="Path_475067" data-name="Path 475067" d="M92.664,357.1l-30.74,17.74v35.48l30.74,17.742L123.4,410.324m30.737,53.224v-35.48L123.4,410.328l-30.74,17.74v35.48l30.74,17.74Z" fill="none" stroke="#c5c9e0" stroke-width="1" fill-rule="evenodd" opacity="0.5"/>
    <path id="Path_475068" data-name="Path 475068" d="M123.4,410.324l30.738,17.74,30.74-17.74m30.737,53.224v-35.48l-30.738-17.74-30.739,17.74v35.48l30.74,17.74Z" fill="none" stroke="#c5c9e0" stroke-width="1" fill-rule="evenodd" opacity="0.5"/>
    <path id="Path_475069" data-name="Path 475069" d="M184.879,410.324l30.738,17.74,30.74-17.74m30.737,53.224v-35.48l-30.74-17.74-30.737,17.74v35.48l30.738,17.74Z" fill="none" stroke="#c5c9e0" stroke-width="1" fill-rule="evenodd" opacity="0.5"/>
    <path id="Path_475070" data-name="Path 475070" d="M246.356,410.324l30.74,17.74,30.737-17.74m30.738,53.224v-35.48l-30.74-17.74-30.737,17.74v35.48l30.738,17.74Zm-30.738-53.224,30.739,17.74,30.738-17.74" fill="none" stroke="#c5c9e0" stroke-width="1" fill-rule="evenodd" opacity="0.5"/>
    <path id="Path_475071" data-name="Path 475071" d="M400.048,463.548v-35.48l-30.74-17.74-30.737,17.74v35.48l30.738,17.74ZM369.31,410.324l30.739,17.74,30.738-17.74v-35.48" fill="none" stroke="#c5c9e0" stroke-width="1" fill-rule="evenodd" opacity="0.5"/>
    <path id="Path_475072" data-name="Path 475072" d="M461.525,463.548v-35.48l-30.738-17.74-30.74,17.74v35.48l30.74,17.74Zm30.739-53.224v-35.48l-30.74-17.74-30.738,17.74v35.48l30.738,17.74Z" fill="none" stroke="#c5c9e0" stroke-width="1" fill-rule="evenodd" opacity="0.5"/>
    <path id="Path_475073" data-name="Path 475073" d="M523,463.548v-35.48l-30.738-17.74-30.74,17.74v35.48l30.74,17.74Zm30.738-53.224v-35.48L523,357.1l-30.738,17.74v35.48L523,428.064Zm30.739,53.224v-35.48l-30.74-17.74L523,428.068v35.48l30.738,17.74Zm30.738-53.224v-35.48L584.479,357.1l-30.739,17.74v35.48l30.74,17.74Zm30.739,53.224v-35.48l-30.74-17.74-30.737,17.74v35.48l30.738,17.74Zm-30.739-88.7v35.48l30.74,17.74,30.737-17.74m30.739,53.224v-35.48l-30.74-17.74-30.737,17.74v35.48l30.737,17.74Zm-30.739-53.224,30.74,17.74,30.737-17.74M.448,517.017v-35.48L-30.29,463.8l-30.74,17.74v35.48l30.74,17.74Zm30.739,53.224v-35.48L.447,517.02l-30.738,17.74v35.48L.447,587.98Z" fill="none" stroke="#c5c9e0" stroke-width="1" fill-rule="evenodd" opacity="0.5"/>
    <path id="Path_475074" data-name="Path 475074" d="M61.925,517.017v-35.48L31.187,463.8.447,481.537v35.48l30.74,17.74ZM92.664,534.76l-30.74-17.74L31.186,534.76v35.48M123.4,517.017v-35.48L92.662,463.8l-30.737,17.74v35.48l30.738,17.74Z" fill="none" stroke="#c5c9e0" stroke-width="1" fill-rule="evenodd" opacity="0.5"/>
    <path id="Path_475075" data-name="Path 475075" d="M154.14,534.76,123.4,517.02l-30.74,17.74m92.216-17.743v-35.48l-30.74-17.74L123.4,481.537v35.48l30.738,17.74Zm0,0-30.74,17.74m92.217-53.224-30.74-17.74-30.737,17.74v35.48" fill="none" stroke="#c5c9e0" stroke-width="1" fill-rule="evenodd" opacity="0.5"/>
    <path id="Path_475076" data-name="Path 475076" d="M307.833,481.536,277.1,463.8l-30.74,17.74M369.31,517.017v-35.48L338.572,463.8l-30.74,17.74m92.216,88.7v-35.48l-30.74-17.74" fill="none" stroke="#c5c9e0" stroke-width="1" fill-rule="evenodd" opacity="0.5"/>
    <path id="Path_475077" data-name="Path 475077" d="M430.787,517.017v-35.48l-30.74-17.74-30.737,17.74v35.48l30.737,17.74Z" fill="none" stroke="#c5c9e0" stroke-width="1" fill-rule="evenodd" opacity="0.5"/>
    <path id="Path_475078" data-name="Path 475078" d="M492.264,517.017v-35.48l-30.74-17.74-30.738,17.74v35.48l30.738,17.74Zm0,0-30.74,17.74" fill="none" stroke="#c5c9e0" stroke-width="1" fill-rule="evenodd" opacity="0.5"/>
    <path id="Path_475079" data-name="Path 475079" d="M553.74,481.536,523,463.8l-30.738,17.74v35.48m122.954-35.48L584.479,463.8l-30.739,17.74" fill="none" stroke="#c5c9e0" stroke-width="1" fill-rule="evenodd" opacity="0.5"/>
    <path id="Path_475080" data-name="Path 475080" d="M676.694,481.536,645.956,463.8l-30.74,17.74m122.955,0-30.74-17.74-30.737,17.74M154.14,1.3l30.74,17.74L215.617,1.3m0,0,30.74,17.74L277.094,1.3M246.356,54.766V19.286l-30.74-17.74-30.737,17.74v35.48l30.737,17.74Zm30.738,53.224V72.51l-30.74-17.74L215.617,72.51v35.48l30.738,17.74Z" fill="none" stroke="#c5c9e0" stroke-width="1" fill-rule="evenodd" opacity="0.5"/>
    <path id="Path_475081" data-name="Path 475081" d="M277.094,1.545l-30.74,17.74v35.48l30.74,17.742m0,0v35.48l30.738,17.74,30.74-17.74m0,0,30.738,17.74,30.74-17.74" fill="none" stroke="#c5c9e0" stroke-width="1" fill-rule="evenodd" opacity="0.5"/>
    <path id="Path_475082" data-name="Path 475082" d="M400.048,107.99l30.74,17.74,30.737-17.74V72.51L430.787,54.77" fill="none" stroke="#c5c9e0" stroke-width="1" fill-rule="evenodd" opacity="0.5"/>
    <path id="Path_475083" data-name="Path 475083" d="M523,107.99V72.51L492.264,54.77l-30.74,17.74v35.48l30.74,17.74Z" fill="none" stroke="#c5c9e0" stroke-width="1" fill-rule="evenodd" opacity="0.5"/>
    <path id="Path_475084" data-name="Path 475084" d="M553.74,54.769,523,72.509v35.48l30.74,17.742M-30.29,179.2v35.48L.447,232.422M154.14,179.2l30.74-17.74v-35.48l-30.74-17.742M215.617,179.2l-30.738-17.74L154.14,179.2" fill="none" stroke="#c5c9e0" stroke-width="1" fill-rule="evenodd" opacity="0.5"/>
    <path id="Path_475085" data-name="Path 475085" d="M246.356,161.458v-35.48l-30.74-17.74-30.737,17.74v35.48l30.737,17.74ZM277.094,179.2l-30.74-17.74L215.617,179.2" fill="none" stroke="#c5c9e0" stroke-width="1" fill-rule="evenodd" opacity="0.5"/>
    <path id="Path_475086" data-name="Path 475086" d="M307.833,161.458v-35.48L277.1,108.238l-30.74,17.74v35.48L277.1,179.2ZM338.571,179.2l-30.74-17.74L277.094,179.2" fill="none" stroke="#c5c9e0" stroke-width="1" fill-rule="evenodd" opacity="0.5"/>
    <path id="Path_475087" data-name="Path 475087" d="M369.31,161.458v-35.48l-30.738-17.74-30.74,17.74v35.48l30.74,17.74ZM400.048,179.2l-30.74-17.74L338.571,179.2" fill="none" stroke="#c5c9e0" stroke-width="1" fill-rule="evenodd" opacity="0.5"/>
    <path id="Path_475088" data-name="Path 475088" d="M430.787,161.458v-35.48l-30.74-17.74-30.737,17.74v35.48l30.737,17.74Zm0,70.965,30.737-17.74V179.2l-30.737-17.742L400.047,179.2" fill="none" stroke="#c5c9e0" stroke-width="1" fill-rule="evenodd" opacity="0.5"/>
    <path id="Path_475089" data-name="Path 475089" d="M492.264,161.458v-35.48l-30.74-17.74-30.738,17.74v35.48l30.738,17.74ZM523,214.682V179.2l-30.738-17.74-30.74,17.74v35.48l30.74,17.74Z" fill="none" stroke="#c5c9e0" stroke-width="1" fill-rule="evenodd" opacity="0.5"/>
    <path id="Path_475090" data-name="Path 475090" d="M553.74,161.458v-35.48L523,108.238l-30.738,17.74v35.48L523,179.2Zm30.739,53.224V179.2l-30.74-17.74L523,179.2v35.48l30.738,17.74Zm-30.739-88.7v35.48l30.74,17.74m0,0v35.48l30.738,17.74,30.74-17.74m0,0,30.738,17.74M.448,268.151v-35.48L-30.29,214.929l-30.74,17.742v35.48l30.74,17.74Zm30.739,53.224v-35.48L.447,268.155l-30.738,17.74v35.48L.447,339.115Z" fill="none" stroke="#c5c9e0" stroke-width="1" fill-rule="evenodd" opacity="0.5"/>
    <path id="Path_475091" data-name="Path 475091" d="M.448,232.67v35.48l30.74,17.74,30.737-17.74V232.67m368.862,35.481v-35.48m61.477,35.48v-35.48l-30.74-17.742-30.738,17.742v35.48l30.738,17.74Z" fill="none" stroke="#c5c9e0" stroke-width="1" fill-rule="evenodd" opacity="0.5"/>
    <path id="Path_475092" data-name="Path 475092" d="M553.74,268.151v-35.48L523,214.929l-30.738,17.742v35.48L523,285.891Zm30.739,53.224v-35.48l-30.74-17.74L523,285.895v35.48l30.738,17.74Zm30.738-53.224v-35.48l-30.738-17.742L553.74,232.671v35.48l30.74,17.74Z" fill="none" stroke="#c5c9e0" stroke-width="1" fill-rule="evenodd" opacity="0.5"/>
    <path id="Path_475093" data-name="Path 475093" d="M615.217,268.154l-30.738,17.74v35.48l30.738,17.742M676.694,232.67l-30.738-17.74-30.74,17.74v35.48M.448,374.844v-35.48l-30.738-17.74-30.74,17.74v35.48l30.74,17.74Zm30.739,53.224v-35.48L.447,374.848l-30.738,17.74v35.48L.447,445.808Z" fill="none" stroke="#c5c9e0" stroke-width="1" fill-rule="evenodd" opacity="0.5"/>
    <path id="Path_475094" data-name="Path 475094" d="M61.925,374.844v-35.48l-30.738-17.74L.447,339.364v35.48l30.74,17.74Zm30.739,53.224v-35.48l-30.74-17.74-30.738,17.74v35.48l30.738,17.74Z" fill="none" stroke="#c5c9e0" stroke-width="1" fill-rule="evenodd" opacity="0.5"/>
    <path id="Path_475095" data-name="Path 475095" d="M92.664,321.623l-30.74,17.74v35.48l30.74,17.742m0,0v35.48L123.4,445.809l30.738-17.742v-35.48" fill="none" stroke="#c5c9e0" stroke-width="1" fill-rule="evenodd" opacity="0.5"/>
    <path id="Path_475096" data-name="Path 475096" d="M154.14,392.587v35.48l30.74,17.742,30.737-17.742v-35.48m61.477,0v35.48l30.738,17.742,30.74-17.742v-35.48m61.476,0,30.74-17.74v-35.48m30.737,88.7v-35.48l-30.738-17.74-30.74,17.74v35.48l30.74,17.74Z" fill="none" stroke="#c5c9e0" stroke-width="1" fill-rule="evenodd" opacity="0.5"/>
    <path id="Path_475097" data-name="Path 475097" d="M523,428.068v-35.48l-30.738-17.74-30.74,17.74v35.48l30.74,17.74Zm30.738-53.224v-35.48L523,321.624l-30.738,17.74v35.48L523,392.584Zm30.739,53.224v-35.48l-30.74-17.74L523,392.588v35.48l30.738,17.74Zm30.738-53.224v-35.48l-30.738-17.74-30.739,17.74v35.48l30.74,17.74Z" fill="none" stroke="#c5c9e0" stroke-width="1" fill-rule="evenodd" opacity="0.5"/>
    <path id="Path_475098" data-name="Path 475098" d="M615.217,374.847l-30.738,17.74v35.48l30.738,17.742,30.74-17.742m-30.74-88.7v35.48m30.739,53.225,30.738,17.74,30.739-17.74M.448,481.536v-35.48l-30.738-17.74-30.74,17.74v35.48l30.74,17.74ZM31.187,534.76V499.28L.447,481.54l-30.738,17.74v35.48L.447,552.5Z" fill="none" stroke="#c5c9e0" stroke-width="1" fill-rule="evenodd" opacity="0.5"/>
    <path id="Path_475099" data-name="Path 475099" d="M61.925,481.536v-35.48l-30.738-17.74L.447,446.056v35.48l30.74,17.74ZM92.664,534.76V499.28l-30.74-17.74L31.186,499.28v35.48M123.4,481.536v-35.48l-30.74-17.74-30.737,17.74v35.48l30.738,17.74Z" fill="none" stroke="#c5c9e0" stroke-width="1" fill-rule="evenodd" opacity="0.5"/>
    <path id="Path_475100" data-name="Path 475100" d="M154.14,534.76V499.28L123.4,481.54l-30.74,17.74v35.48L123.4,552.5Zm30.739-53.224v-35.48l-30.74-17.74L123.4,446.056v35.48l30.738,17.74Zm30.738,17.744-30.738-17.74L154.14,499.28v35.48l30.74,17.74m61.476-70.964v-35.48l-30.74-17.74-30.737,17.74v35.48l30.737,17.74Zm30.738,17.744-30.74-17.74-30.737,17.74" fill="none" stroke="#c5c9e0" stroke-width="1" fill-rule="evenodd" opacity="0.5"/>
    <path id="Path_475101" data-name="Path 475101" d="M307.833,481.536v-35.48L277.1,428.316l-30.74,17.74v35.48l30.74,17.74Zm30.738,17.744-30.74-17.74-30.737,17.74" fill="none" stroke="#c5c9e0" stroke-width="1" fill-rule="evenodd" opacity="0.5"/>
    <path id="Path_475102" data-name="Path 475102" d="M369.31,481.536v-35.48l-30.738-17.74-30.74,17.74v35.48l30.74,17.74Z" fill="none" stroke="#c5c9e0" stroke-width="1" fill-rule="evenodd" opacity="0.5"/>
    <path id="Path_475103" data-name="Path 475103" d="M430.787,481.536v-35.48l-30.74-17.74-30.737,17.74v35.48l30.737,17.74Zm30.738,53.224V499.28l-30.738-17.74-30.74,17.74v35.48l30.74,17.74Z" fill="none" stroke="#c5c9e0" stroke-width="1" fill-rule="evenodd" opacity="0.5"/>
    <path id="Path_475104" data-name="Path 475104" d="M492.264,481.536v-35.48l-30.74-17.74-30.738,17.74v35.48l30.738,17.74Zm0,0-30.74,17.74v35.48l30.74,17.741" fill="none" stroke="#c5c9e0" stroke-width="1" fill-rule="evenodd" opacity="0.5"/>
    <path id="Path_475105" data-name="Path 475105" d="M553.74,481.536v-35.48L523,428.316l-30.738,17.74v35.48m122.954,0v-35.48l-30.738-17.74-30.739,17.74v35.48" fill="none" stroke="#c5c9e0" stroke-width="1" fill-rule="evenodd" opacity="0.5"/>
    <path id="Path_475106" data-name="Path 475106" d="M676.694,481.536v-35.48l-30.738-17.74-30.74,17.74v35.48m122.955,0v-35.48l-30.74-17.74-30.737,17.74v35.48M1414.42,54.518l30.738-17.74V1.3m0,0v35.48l30.74,17.74,30.738-17.74V1.3m0,0v35.48l30.737,17.74M953.34,107.99v35.48m307.385,0V107.99l-30.74-17.74-30.737,17.74v35.48l30.738,17.74Zm61.477,0V107.99l-30.74-17.74-30.737,17.74v35.48l30.738,17.74Zm-30.739-53.223,30.74,17.74,30.737-17.74" fill="none" stroke="#c5c9e0" stroke-width="1" fill-rule="evenodd" opacity="0.5"/>
    <path id="Path_475107" data-name="Path 475107" d="M1383.68,143.47V107.99l-30.738-17.74-30.74,17.74v35.48l30.74,17.74Zm-30.739-53.223,30.738,17.74,30.74-17.74V54.767" fill="none" stroke="#c5c9e0" stroke-width="1" fill-rule="evenodd" opacity="0.5"/>
    <path id="Path_475108" data-name="Path 475108" d="M1445.16,143.47V107.99l-30.737-17.74-30.74,17.74v35.48l30.74,17.74ZM1475.9,90.247V54.767l-30.74-17.74-30.737,17.74v35.48l30.738,17.74Zm30.739,53.223V107.99L1475.9,90.25l-30.737,17.74v35.48l30.737,17.74Z" fill="none" stroke="#c5c9e0" stroke-width="1" fill-rule="evenodd" opacity="0.5"/>
    <path id="Path_475109" data-name="Path 475109" d="M1537.37,90.247V54.767l-30.738-17.74-30.74,17.74v35.48l30.74,17.74Zm0,0-30.738,17.74v35.48l30.738,17.741m0-106.445v35.48M891.864,250.163v-35.48l-30.74-17.742-30.738,17.742v35.48l30.738,17.74ZM922.6,196.94V161.46l-30.738-17.743-30.74,17.742v35.48l30.74,17.74Z" fill="none" stroke="#c5c9e0" stroke-width="1" fill-rule="evenodd" opacity="0.5"/>
    <path id="Path_475110" data-name="Path 475110" d="M953.34,250.163v-35.48L922.6,196.941l-30.738,17.742v35.48L922.6,267.9Zm0-106.445L922.6,161.458V196.94l30.74,17.74m0,0v35.48l30.738,17.74,30.74-17.74m0,0,30.74,17.74,30.737-17.74m215.169-88.705-30.738-17.74-30.739,17.74m122.954,0-30.739-17.74-30.738,17.74m122.954,35.482V161.46l-30.74-17.743-30.737,17.742M1414.417,267.9l30.738-17.74v-35.48l-30.738-17.742" fill="none" stroke="#c5c9e0" stroke-width="1" fill-rule="evenodd" opacity="0.5"/>
    <path id="Path_475111" data-name="Path 475111" d="M1475.89,196.94V161.46l-30.74-17.743-30.737,17.742v35.48l30.738,17.74Z" fill="none" stroke="#c5c9e0" stroke-width="1" fill-rule="evenodd" opacity="0.5"/>
    <path id="Path_475112" data-name="Path 475112" d="M1506.63,250.163v-35.48l-30.74-17.742-30.737,17.742v35.48l30.737,17.74,30.74-17.74Z" fill="none" stroke="#c5c9e0" stroke-width="1" stroke-dasharray="10" fill-rule="evenodd" opacity="0.5"/>
    <path id="Path_475113" data-name="Path 475113" d="M1537.37,196.94V161.46l-30.738-17.743-30.74,17.742v35.48l30.74,17.74Zm30.739,53.223v-35.48l-30.74-17.742-30.738,17.742v35.48l30.738,17.74Z" fill="none" stroke="#c5c9e0" stroke-width="1" fill-rule="evenodd" opacity="0.5"/>
    <path id="Path_475114" data-name="Path 475114" d="M1537.37,161.458v35.48l30.74,17.74,30.737-17.74m30.738,53.225v-35.48l-30.739-17.742-30.738,17.742v35.48l30.738,17.74Zm-30.738-53.223,30.74,17.74,30.737-17.74M830.386,356.856v-35.48m61.478,35.48v-35.48l-30.74-17.74-30.738,17.74v35.48l30.738,17.74ZM922.6,303.632v-35.48l-30.738-17.74-30.74,17.74v35.48l30.74,17.74Z" fill="none" stroke="#c5c9e0" stroke-width="1" fill-rule="evenodd" opacity="0.5"/>
    <path id="Path_475115" data-name="Path 475115" d="M953.34,356.856v-35.48L922.6,303.636l-30.738,17.74v35.48L922.6,374.6Zm30.739-53.224v-35.48l-30.738-17.74-30.74,17.74v35.48l30.74,17.74Z" fill="none" stroke="#c5c9e0" stroke-width="1" fill-rule="evenodd" opacity="0.5"/>
    <path id="Path_475116" data-name="Path 475116" d="M1014.82,356.856v-35.48l-30.739-17.74-30.738,17.74v35.48l30.738,17.74Zm30.739-53.224v-35.48l-30.74-17.74-30.737,17.74v35.48l30.738,17.74Z" fill="none" stroke="#c5c9e0" stroke-width="1" fill-rule="evenodd" opacity="0.5"/>
    <path id="Path_475117" data-name="Path 475117" d="M1076.29,356.856v-35.48l-30.738-17.74-30.739,17.74v35.48l30.74,17.74Z" fill="none" stroke="#c5c9e0" stroke-width="1" stroke-dasharray="10" fill-rule="evenodd" opacity="0.5"/>
    <path id="Path_475118" data-name="Path 475118" d="M1076.29,250.41l-30.738,17.74v35.48l30.738,17.743m0,0v35.48m461.077-53.223v-35.48l-30.738-17.74-30.74,17.74v35.48l30.74,17.74Zm30.739,53.224v-35.48l-30.74-17.74-30.738,17.74v35.48l30.738,17.74Z" fill="none" stroke="#c5c9e0" stroke-width="1" fill-rule="evenodd" opacity="0.5"/>
    <path id="Path_475119" data-name="Path 475119" d="M1598.85,303.632v-35.48l-30.738-17.74-30.74,17.74v35.48l30.74,17.74Zm0,0-30.738,17.74v35.48L1598.85,374.6" fill="none" stroke="#c5c9e0" stroke-width="1" fill-rule="evenodd" opacity="0.5"/>
    <path id="Path_475120" data-name="Path 475120" d="M1629.59,250.41l-30.739,17.74v35.48M707.433,428.065l30.74-17.74v-35.48m30.737,53.223-30.738-17.74-30.74,17.74" fill="none" stroke="#c5c9e0" stroke-width="1" fill-rule="evenodd" opacity="0.5"/>
    <path id="Path_475121" data-name="Path 475121" d="M738.171,374.844v35.48l30.738,17.74,30.74-17.74v-35.48m30.737,53.224-30.737-17.74-30.74,17.74" fill="none" stroke="#c5c9e0" stroke-width="1" fill-rule="evenodd" opacity="0.5"/>
    <path id="Path_475122" data-name="Path 475122" d="M799.648,374.844v35.48l30.738,17.74,30.74-17.74v-35.48l-30.74-17.74" fill="none" stroke="#c5c9e0" stroke-width="1" stroke-dasharray="10" fill-rule="evenodd" opacity="0.5"/>
    <path id="Path_475123" data-name="Path 475123" d="M891.864,463.548v-35.48l-30.74-17.74-30.738,17.74M922.6,410.324v-35.48L891.864,357.1l-30.74,17.74v35.48l30.74,17.74Z" fill="none" stroke="#c5c9e0" stroke-width="1" fill-rule="evenodd" opacity="0.5"/>
    <path id="Path_475124" data-name="Path 475124" d="M953.34,463.548v-35.48L922.6,410.328l-30.738,17.74v35.48l30.738,17.74Zm30.739-53.224v-35.48L953.341,357.1l-30.74,17.74v35.48l30.74,17.74Z" fill="none" stroke="#c5c9e0" stroke-width="1" fill-rule="evenodd" opacity="0.5"/>
    <path id="Path_475125" data-name="Path 475125" d="M1014.82,463.548v-35.48l-30.739-17.74-30.738,17.74v35.48l30.738,17.74Zm30.739-53.224v-35.48l-30.74-17.74-30.737,17.74v35.48l30.738,17.74Zm30.738,53.224v-35.48l-30.738-17.74-30.739,17.74v35.48l30.74,17.74Z" fill="none" stroke="#c5c9e0" stroke-width="1" fill-rule="evenodd" opacity="0.5"/>
    <path id="Path_475126" data-name="Path 475126" d="M1076.29,357.1l-30.738,17.74v35.48l30.738,17.742,30.74-17.741m30.737,53.224v-35.48l-30.738-17.74-30.74,17.74v35.48l30.74,17.74Z" fill="none" stroke="#c5c9e0" stroke-width="1" fill-rule="evenodd" opacity="0.5"/>
    <path id="Path_475127" data-name="Path 475127" d="M1107.03,410.324l30.737,17.74,30.74-17.74m30.738,53.224v-35.48l-30.74-17.74-30.737,17.74v35.48l30.738,17.74Zm-30.738-53.224,30.739,17.74,30.738-17.74" fill="none" stroke="#c5c9e0" stroke-width="1" fill-rule="evenodd" opacity="0.5"/>
    <path id="Path_475128" data-name="Path 475128" d="M1260.72,463.548v-35.48l-30.74-17.74-30.737,17.74v35.48l30.738,17.74Zm-30.739-53.224,30.74,17.74,30.738-17.74m30.738,53.224v-35.48l-30.74-17.74-30.737,17.74v35.48l30.738,17.74Z" fill="none" stroke="#c5c9e0" stroke-width="1" fill-rule="evenodd" opacity="0.5"/>
    <path id="Path_475129" data-name="Path 475129" d="M1291.46,410.324l30.74,17.74,30.737-17.74m30.739,53.224v-35.48l-30.738-17.74-30.74,17.74v35.48l30.74,17.74Zm-30.739-53.224,30.738,17.74,30.74-17.74v-35.48" fill="none" stroke="#c5c9e0" stroke-width="1" fill-rule="evenodd" opacity="0.5"/>
    <path id="Path_475130" data-name="Path 475130" d="M1445.16,463.548v-35.48l-30.737-17.74-30.74,17.74v35.48l30.74,17.74Zm30.739-53.224v-35.48l-30.74-17.74-30.737,17.74v35.48l30.738,17.74Zm30.739,53.224v-35.48l-30.74-17.74-30.737,17.74v35.48l30.737,17.74Z" fill="none" stroke="#c5c9e0" stroke-width="1" fill-rule="evenodd" opacity="0.5"/>
    <path id="Path_475131" data-name="Path 475131" d="M1537.37,410.324v-35.48l-30.738-17.74-30.74,17.74v35.48l30.74,17.74Zm30.739,53.224v-35.48l-30.74-17.74-30.738,17.74v35.48l30.738,17.74Z" fill="none" stroke="#c5c9e0" stroke-width="1" fill-rule="evenodd" opacity="0.5"/>
    <path id="Path_475132" data-name="Path 475132" d="M1598.85,410.324v-35.48l-30.738-17.74-30.74,17.74v35.48l30.74,17.74Zm30.738,53.224v-35.48l-30.739-17.74-30.738,17.74v35.48l30.738,17.74Zm-30.738-88.7v35.48l30.74,17.74,30.737-17.74M922.6,517.017v-35.48L891.864,463.8M953.34,570.241v-35.48L922.6,517.021" fill="none" stroke="#c5c9e0" stroke-width="1" fill-rule="evenodd" opacity="0.5"/>
    <path id="Path_475133" data-name="Path 475133" d="M984.079,517.017v-35.48L953.341,463.8l-30.74,17.74v35.48l30.74,17.74Zm30.738,53.224v-35.48l-30.739-17.74-30.738,17.74v35.48l30.738,17.74Zm30.739-53.224v-35.48l-30.74-17.74-30.737,17.74v35.48l30.738,17.74Z" fill="none" stroke="#c5c9e0" stroke-width="1" fill-rule="evenodd" opacity="0.5"/>
    <path id="Path_475134" data-name="Path 475134" d="M1076.29,534.76l-30.738-17.74-30.739,17.74v35.48m92.216-53.223v-35.48l-30.74-17.74-30.737,17.74v35.48l30.737,17.74Z" fill="none" stroke="#c5c9e0" stroke-width="1" fill-rule="evenodd" opacity="0.5"/>
    <path id="Path_475135" data-name="Path 475135" d="M1137.77,534.76l-30.738-17.74-30.74,17.74m92.217-17.743v-35.48l-30.74-17.74-30.738,17.74v35.48l30.738,17.74Zm0,0-30.74,17.74" fill="none" stroke="#c5c9e0" stroke-width="1" fill-rule="evenodd" opacity="0.5"/>
    <path id="Path_475136" data-name="Path 475136" d="M1229.99,481.536l-30.737-17.74-30.74,17.74v35.48" fill="none" stroke="#c5c9e0" stroke-width="1" fill-rule="evenodd" opacity="0.5"/>
    <path id="Path_475137" data-name="Path 475137" d="M1291.46,481.536l-30.738-17.74-30.739,17.74m122.954,35.481v-35.48L1322.2,463.8l-30.738,17.74m92.216,88.7v-35.48l-30.738-17.74m61.482,0v-35.48l-30.74-17.74-30.737,17.74v35.48l30.738,17.74Zm61.477,0v-35.48l-30.74-17.74-30.737,17.74v35.48l30.738,17.74Zm0,0-30.74,17.74" fill="none" stroke="#c5c9e0" stroke-width="1" fill-rule="evenodd" opacity="0.5"/>
    <path id="Path_475138" data-name="Path 475138" d="M1537.37,481.536l-30.738-17.74-30.74,17.74v35.48" fill="none" stroke="#c5c9e0" stroke-width="1" fill-rule="evenodd" opacity="0.5"/>
    <path id="Path_475139" data-name="Path 475139" d="M1598.85,481.536l-30.738-17.74-30.74,17.74" fill="none" stroke="#c5c9e0" stroke-width="1" fill-rule="evenodd" opacity="0.5"/>
    <path id="Path_475140" data-name="Path 475140" d="M1660.32,481.536l-30.738-17.74-30.74,17.74M1414.42,19.038,1445.158,1.3m0,0,30.74,17.74L1506.636,1.3M1322.2,107.99l30.74,17.74,30.737-17.74m30.738-53.224V19.286m-30.738,88.7,30.739,17.74,30.738-17.74V72.51l-30.738-17.74m61.476,0V19.286l-30.74-17.74-30.737,17.74v35.48l30.738,17.74Z" fill="none" stroke="#c5c9e0" stroke-width="1" fill-rule="evenodd" opacity="0.5"/>
    <path id="Path_475141" data-name="Path 475141" d="M1506.63,107.99V72.51l-30.74-17.74-30.737,17.74v35.48l30.737,17.74Zm0-106.445-30.74,17.74v35.48l30.74,17.742,30.737-17.742" fill="none" stroke="#c5c9e0" stroke-width="1" fill-rule="evenodd" opacity="0.5"/>
    <path id="Path_475142" data-name="Path 475142" d="M1537.37,54.769l-30.738,17.74v35.48l30.738,17.742M891.863,214.682V179.2l-30.74-17.74L830.385,179.2v35.48l30.738,17.74ZM922.6,161.458v-35.48l-30.738-17.74-30.74,17.74v35.48l30.74,17.74Z" fill="none" stroke="#c5c9e0" stroke-width="1" fill-rule="evenodd" opacity="0.5"/>
    <path id="Path_475143" data-name="Path 475143" d="M953.34,214.682V179.2L922.6,161.462,891.863,179.2v35.48l30.738,17.74Zm0-106.445L922.6,125.977v35.48l30.74,17.742m0,0v35.48l30.738,17.74m276.647-53.22-30.74-17.74-30.737,17.74m92.215-17.744v-35.48l-30.738-17.74-30.739,17.74v35.48l30.74,17.74Z" fill="none" stroke="#c5c9e0" stroke-width="1" fill-rule="evenodd" opacity="0.5"/>
    <path id="Path_475144" data-name="Path 475144" d="M1322.2,179.2l-30.74-17.74-30.737,17.74m92.215-17.744v-35.48l-30.739-17.74-30.738,17.74v35.48L1322.2,179.2l30.74-17.74Z" fill="none" stroke="#c5c9e0" stroke-width="1" stroke-dasharray="10" fill-rule="evenodd" opacity="0.5"/>
    <path id="Path_475145" data-name="Path 475145" d="M1383.68,179.2l-30.738-17.74L1322.2,179.2" fill="none" stroke="#c5c9e0" stroke-width="1" fill-rule="evenodd" opacity="0.5"/>
    <path id="Path_475146" data-name="Path 475146" d="M1414.42,161.458v-35.48l-30.74-17.74-30.737,17.74v35.48l30.738,17.74,30.74-17.74Z" fill="none" stroke="#c5c9e0" stroke-width="1" stroke-dasharray="10" fill-rule="evenodd" opacity="0.5"/>
    <path id="Path_475147" data-name="Path 475147" d="M1414.42,232.423l30.738-17.74V179.2l-30.738-17.742L1383.68,179.2" fill="none" stroke="#c5c9e0" stroke-width="1" fill-rule="evenodd" opacity="0.5"/>
    <path id="Path_475148" data-name="Path 475148" d="M1475.89,161.458v-35.48l-30.74-17.74-30.737,17.74v35.48l30.738,17.74,30.739-17.74Z" fill="none" stroke="#c5c9e0" stroke-width="1" stroke-dasharray="10" fill-rule="evenodd" opacity="0.5"/>
    <path id="Path_475149" data-name="Path 475149" d="M1506.63,214.682V179.2l-30.74-17.74-30.737,17.74v35.48l30.737,17.74Zm30.738-53.224v-35.48l-30.738-17.74-30.74,17.74v35.48l30.74,17.74Z" fill="none" stroke="#c5c9e0" stroke-width="1" fill-rule="evenodd" opacity="0.5"/>
    <path id="Path_475150" data-name="Path 475150" d="M1568.11,214.682V179.2l-30.74-17.74-30.738,17.74v35.48l30.738,17.74Zm-30.739-88.7v35.48l30.74,17.74m0,0v35.48l30.737,17.74,30.74-17.74M891.864,321.375v-35.48l-30.74-17.74-30.738,17.74v35.48l30.738,17.74ZM922.6,268.151v-35.48l-30.738-17.742-30.74,17.742v35.48l30.74,17.74Z" fill="none" stroke="#c5c9e0" stroke-width="1" fill-rule="evenodd" opacity="0.5"/>
    <path id="Path_475151" data-name="Path 475151" d="M953.34,321.375v-35.48L922.6,268.155l-30.738,17.74v35.48l30.738,17.74Zm30.739-53.224v-35.48l-30.738-17.742L922.6,232.671v35.48l30.74,17.74Z" fill="none" stroke="#c5c9e0" stroke-width="1" fill-rule="evenodd" opacity="0.5"/>
    <path id="Path_475152" data-name="Path 475152" d="M1014.82,321.375v-35.48l-30.739-17.74-30.738,17.74v35.48l30.738,17.74,30.74-17.74Z" fill="none" stroke="#c5c9e0" stroke-width="1" stroke-dasharray="10" fill-rule="evenodd" opacity="0.5"/>
    <path id="Path_475153" data-name="Path 475153" d="M984.079,232.67v35.48l30.739,17.74,30.738-17.74V232.67m368.861,35.481v-35.48m61.477,35.48v-35.48l-30.74-17.742-30.737,17.742v35.48l30.738,17.74Z" fill="none" stroke="#c5c9e0" stroke-width="1" fill-rule="evenodd" opacity="0.5"/>
    <path id="Path_475154" data-name="Path 475154" d="M1537.37,268.151v-35.48l-30.738-17.742-30.74,17.742v35.48l30.74,17.74Zm30.739,53.224v-35.48l-30.74-17.74-30.738,17.74v35.48l30.738,17.74Z" fill="none" stroke="#c5c9e0" stroke-width="1" fill-rule="evenodd" opacity="0.5"/>
    <path id="Path_475155" data-name="Path 475155" d="M1598.85,268.151v-35.48l-30.738-17.742-30.74,17.742v35.48l30.74,17.74Zm0,0-30.738,17.74v35.48l30.738,17.742M707.435,428.068l30.74,17.74,30.737-17.74v-35.48l-30.738-17.74m0,0,30.738,17.74,30.74-17.74" fill="none" stroke="#c5c9e0" stroke-width="1" fill-rule="evenodd" opacity="0.5"/>
    <path id="Path_475156" data-name="Path 475156" d="M830.386,428.068v-35.48l-30.737-17.74-30.74,17.74v35.48l30.74,17.74Zm-30.738-53.224,30.738,17.74,30.74-17.74v-35.48l-30.74-17.74m61.478,106.444v-35.48l-30.74-17.74-30.738,17.74v35.48l30.738,17.74Z" fill="none" stroke="#c5c9e0" stroke-width="1" fill-rule="evenodd" opacity="0.5"/>
    <path id="Path_475157" data-name="Path 475157" d="M922.6,374.844v-35.48l-30.738-17.74-30.74,17.74v35.48l30.74,17.74Zm30.738,53.224v-35.48L922.6,374.848l-30.738,17.74v35.48l30.738,17.74Z" fill="none" stroke="#c5c9e0" stroke-width="1" fill-rule="evenodd" opacity="0.5"/>
    <path id="Path_475158" data-name="Path 475158" d="M984.079,374.844v-35.48l-30.738-17.74-30.74,17.74v35.48l30.74,17.74Zm30.738,53.224v-35.48l-30.739-17.74-30.738,17.74v35.48l30.738,17.74Z" fill="none" stroke="#c5c9e0" stroke-width="1" fill-rule="evenodd" opacity="0.5"/>
    <path id="Path_475159" data-name="Path 475159" d="M1045.56,374.844v-35.48l-30.74-17.74-30.737,17.74v35.48l30.738,17.74Z" fill="none" stroke="#c5c9e0" stroke-width="1" stroke-dasharray="10" fill-rule="evenodd" opacity="0.5"/>
    <path id="Path_475160" data-name="Path 475160" d="M1076.29,428.068v-35.48l-30.738-17.74-30.739,17.74v35.48l30.74,17.74Zm0-106.445-30.738,17.74v35.48l30.738,17.742m0,0v35.48l30.74,17.742,30.737-17.742v-35.48" fill="none" stroke="#c5c9e0" stroke-width="1" fill-rule="evenodd" opacity="0.5"/>
    <path id="Path_475161" data-name="Path 475161" d="M1137.77,392.587v35.48l30.74,17.742,30.737-17.742v-35.48m0,0v35.48l30.738,17.742,30.74-17.742v-35.48" fill="none" stroke="#c5c9e0" stroke-width="1" fill-rule="evenodd" opacity="0.5"/>
    <path id="Path_475162" data-name="Path 475162" d="M1260.72,392.587v35.48l30.738,17.742,30.74-17.742v-35.48" fill="none" stroke="#c5c9e0" stroke-width="1" fill-rule="evenodd" opacity="0.5"/>
    <path id="Path_475163" data-name="Path 475163" d="M1322.2,392.587v35.48l30.74,17.742,30.737-17.742v-35.48m0,0,30.739-17.74v-35.48" fill="none" stroke="#c5c9e0" stroke-width="1" fill-rule="evenodd" opacity="0.5"/>
    <path id="Path_475164" data-name="Path 475164" d="M1445.16,428.068v-35.48l-30.737-17.74-30.74,17.74v35.48l30.74,17.74Zm61.478,0v-35.48l-30.74-17.74-30.737,17.74v35.48l30.737,17.74Zm30.738-53.224v-35.48l-30.738-17.74-30.74,17.74v35.48l30.74,17.74Z" fill="none" stroke="#c5c9e0" stroke-width="1" fill-rule="evenodd" opacity="0.5"/>
    <path id="Path_475165" data-name="Path 475165" d="M1568.11,428.068v-35.48l-30.74-17.74-30.738,17.74v35.48l30.738,17.74Z" fill="none" stroke="#c5c9e0" stroke-width="1" stroke-dasharray="10" fill-rule="evenodd" opacity="0.5"/>
    <path id="Path_475166" data-name="Path 475166" d="M1598.85,374.844v-35.48l-30.738-17.74-30.74,17.74v35.48l30.74,17.74Zm0,0-30.738,17.74v35.48l30.738,17.742,30.74-17.742m-30.74-88.7v35.48M707.435,428.315l30.74,17.74m0,0,30.738-17.74,30.74,17.74" fill="none" stroke="#c5c9e0" stroke-width="1" fill-rule="evenodd" opacity="0.5"/>
    <path id="Path_475167" data-name="Path 475167" d="M861.125,446.056l-30.74-17.74-30.737,17.74" fill="none" stroke="#c5c9e0" stroke-width="1" fill-rule="evenodd" opacity="0.5"/>
    <path id="Path_475168" data-name="Path 475168" d="M922.6,481.536v-35.48l-30.738-17.74-30.74,17.74M922.6,552.5l30.74-17.74V499.28L922.6,481.539" fill="none" stroke="#c5c9e0" stroke-width="1" fill-rule="evenodd" opacity="0.5"/>
    <path id="Path_475169" data-name="Path 475169" d="M984.079,481.536v-35.48l-30.738-17.74-30.74,17.74v35.48l30.74,17.74Zm30.738,53.224V499.28l-30.739-17.74L953.34,499.28v35.48l30.738,17.74Zm30.739-53.224v-35.48l-30.74-17.74-30.737,17.74v35.48l30.738,17.74Zm30.738,53.224V499.28l-30.738-17.74-30.739,17.74v35.48" fill="none" stroke="#c5c9e0" stroke-width="1" fill-rule="evenodd" opacity="0.5"/>
    <path id="Path_475170" data-name="Path 475170" d="M1107.03,481.536v-35.48l-30.74-17.74-30.737,17.74v35.48l30.737,17.74Zm30.738,53.224V499.28l-30.738-17.74-30.74,17.74v35.48l30.74,17.74Z" fill="none" stroke="#c5c9e0" stroke-width="1" fill-rule="evenodd" opacity="0.5"/>
    <path id="Path_475171" data-name="Path 475171" d="M1168.51,481.536v-35.48l-30.74-17.74-30.738,17.74v35.48l30.738,17.74Zm30.738,17.744-30.74-17.74-30.737,17.74v35.48l30.738,17.74" fill="none" stroke="#c5c9e0" stroke-width="1" fill-rule="evenodd" opacity="0.5"/>
    <path id="Path_475172" data-name="Path 475172" d="M1229.99,481.536v-35.48l-30.737-17.74-30.74,17.74v35.48l30.74,17.74Zm30.739,17.744-30.74-17.74-30.737,17.74" fill="none" stroke="#c5c9e0" stroke-width="1" fill-rule="evenodd" opacity="0.5"/>
    <path id="Path_475173" data-name="Path 475173" d="M1291.46,481.536v-35.48l-30.738-17.74-30.739,17.74v35.48l30.74,17.74ZM1322.2,499.28l-30.74-17.74-30.737,17.74m92.215-17.744v-35.48l-30.739-17.74-30.738,17.74v35.48l30.738,17.74ZM1322.2,499.28l30.74-17.74,30.737,17.74v35.48l-30.738,17.74" fill="none" stroke="#c5c9e0" stroke-width="1" fill-rule="evenodd" opacity="0.5"/>
    <path id="Path_475174" data-name="Path 475174" d="M1414.42,481.536v-35.48l-30.74-17.74-30.737,17.74v35.48l30.738,17.74Zm30.738,53.224V499.28l-30.737-17.74-30.74,17.74v35.48l30.74,17.74Z" fill="none" stroke="#c5c9e0" stroke-width="1" fill-rule="evenodd" opacity="0.5"/>
    <path id="Path_475175" data-name="Path 475175" d="M1475.89,481.536v-35.48l-30.74-17.74-30.737,17.74v35.48l30.738,17.74,30.739-17.74Z" fill="none" stroke="#c5c9e0" stroke-width="1" stroke-dasharray="10" fill-rule="evenodd" opacity="0.5"/>
    <path id="Path_475176" data-name="Path 475176" d="M1475.89,481.54l-30.74,17.74v35.48l30.74,17.741" fill="none" stroke="#c5c9e0" stroke-width="1" fill-rule="evenodd" opacity="0.5"/>
    <path id="Path_475177" data-name="Path 475177" d="M1537.37,481.536v-35.48l-30.738-17.74-30.74,17.74v35.48" fill="none" stroke="#c5c9e0" stroke-width="1" stroke-dasharray="10" fill-rule="evenodd" opacity="0.5"/>
    <path id="Path_475178" data-name="Path 475178" d="M1598.85,481.536v-35.48l-30.738-17.74-30.74,17.74v35.48" fill="none" stroke="#c5c9e0" stroke-width="1" fill-rule="evenodd" opacity="0.5"/>
    <path id="Path_475179" data-name="Path 475179" d="M1660.32,481.536v-35.48l-30.738-17.74-30.74,17.74v35.48" fill="none" stroke="#c5c9e0" stroke-width="1" fill-rule="evenodd" opacity="0.5"/>
    <path id="Path_475180" data-name="Path 475180" d="M-183.983,116.86v44.6l30.738,17.74V214.93l30.74,17.74v35.482l30.737-17.742,30.74,17.742v35.48l-30.74,17.99,30.74,17.742v35.48L-30.29,357.1.447,374.844l30.74,17.743v35.729l30.737,17.74v35.48l30.74-17.74,30.738,17.74,30.739-17.74,30.738,17.74v-35.48l30.738-17.74,30.739,17.74,30.738-17.74,30.739,17.74v35.48l30.738,17.743,30.74-17.74,30.737,17.74,30.74-17.743,30.737-17.74v-35.48l30.738-17.992L523,428.316l30.737-17.992,61.477,35.732,61.477-35.732,61.477,35.732,61.478-35.732,30.737,17.992,30.74-17.992v-35.48l30.738-17.74V321.622l-30.738-17.99v-35.48l30.738-17.742L922.6,268.152v35.48l30.74,17.99V357.1l30.737,17.74-30.737,17.743v35.729l30.737,17.74,30.74-17.74,30.738,17.74v35.48l30.737,17.743L1137.77,463.8l30.74,17.74v-35.48l30.738-17.74,30.739,17.74,30.738-17.74,30.738,17.74v35.48L1322.2,463.8l30.738,17.74,30.74-17.74v-35.48l30.737-17.992V374.847l30.74-17.743,30.737,17.74,30.74-17.989V285.892l-30.74-17.74,30.74-17.742V214.93l30.737-17.99,61.477,35.73,61.477-35.73" fill="none" fill-rule="evenodd"/>
  </g>
</svg>
