<svg xmlns="http://www.w3.org/2000/svg" width="500" height="1200" viewBox="0 0 500 1200"><g transform="translate(-13681 10960) rotate(90)"><path d="M586,223.581h67.485L683.048,194" transform="translate(-10828.625 -14125.757)" fill="none" stroke="#36c9a5" stroke-width="1.012" fill-rule="evenodd"/><path d="M674.647,193.324A2.324,2.324,0,1,1,672.323,191,2.324,2.324,0,0,1,674.647,193.324Z" transform="translate(-10816.205 -14126.2)" fill="none" stroke="#36c9a5" stroke-width="1.012" fill-rule="evenodd"/><path d="M813.139,330.365a2.324,2.324,0,1,1-2.324-2.323,2.324,2.324,0,0,1,2.324,2.323ZM856.956,357.867ZM648.048,339.5Z" transform="translate(-10819.451 -14105.939)" fill="none" stroke="#aee9db" stroke-width="1.012" fill-rule="evenodd"/><path d="M658,184.373,746.331,95.98h185.8L989.073,39" transform="translate(-10817.979 -14148.672)" fill="none" stroke="#36c9a5" stroke-width="1.012" fill-rule="evenodd"/><path d="M977.7,38.324A2.324,2.324,0,1,1,975.378,36a2.324,2.324,0,0,1,2.324,2.323Z" transform="translate(-10802.457 -14149.115)" fill="none" stroke="#36c9a5" stroke-width="1.012" fill-rule="evenodd"/><path d="M659.647,167.324A2.324,2.324,0,1,1,657.323,165,2.324,2.324,0,0,1,659.647,167.324Z" transform="translate(-10818.424 -14130.044)" fill="none" stroke="#36c9a5" stroke-width="1.012" fill-rule="evenodd"/><path d="M722,193.9h89.053l25.3,25.31h90.086L952.633,193" transform="translate(-10808.518 -14125.904)" fill="none" stroke="#36c9a5" stroke-width="1.012" fill-rule="evenodd"/><path d="M702.435,199.855l22.36-22.375h76.721L828.977,150M668,239.532h61.949l29.669,29.69m3.652-29.69,27.181,27.2h95.081l25.9,25.919" transform="translate(-10816.502 -14132.262)" fill="none" stroke="#36c9a5" stroke-width="1.012" fill-rule="evenodd"/><path d="M785,235H917.418" transform="translate(-10799.203 -14119.695)" fill="#fff" fill-rule="evenodd"/><path d="M664,228.472a2.324,2.324,0,1,1,2.323,2.324A2.325,2.325,0,0,1,664,228.472Zm96.419-1.148a2.324,2.324,0,1,1,2.323,2.324,2.325,2.325,0,0,1-2.323-2.324Z" transform="translate(-10817.092 -14121.174)" fill="none" stroke="#36c9a5" stroke-width="1.012" fill-rule="evenodd"/><path d="M880,276.324a2.324,2.324,0,1,1,2.323,2.324A2.325,2.325,0,0,1,880,276.324Z" transform="translate(-10785.158 -14113.93)" fill="none" stroke="#c5c9e0" stroke-width="1.012" fill-rule="evenodd"/><path d="M754.688,264.2a2.324,2.324,0,1,1,2.324,2.324,2.324,2.324,0,0,1-2.324-2.324ZM695,195.324a2.324,2.324,0,1,1,2.324,2.324A2.324,2.324,0,0,1,695,195.324Z" transform="translate(-10812.51 -14125.904)" fill="none" stroke="#36c9a5" stroke-width="1.012" fill-rule="evenodd"/><path d="M418.607,179.524H362.078l-104.928-105H142.157" transform="translate(-10894.244 -14143.42)" fill="none" stroke="#36c9a5" stroke-width="1.012" fill-rule="evenodd"/><path d="M395.5,209.229H328.015L298.452,238.81" transform="translate(-10871.137 -14123.506)" fill="none" stroke="#36c9a5" stroke-width="1.012" fill-rule="evenodd"/><path d="M294.952,236.275a2.324,2.324,0,1,1,2.323,2.324A2.326,2.326,0,0,1,294.952,236.275Z" transform="translate(-10871.654 -14119.851)" fill="none" stroke="#36c9a5" stroke-width="1.012" fill-rule="evenodd"/><path d="M179.952,99.274a2.324,2.324,0,1,1,2.324,2.323,2.324,2.324,0,0,1-2.324-2.323" transform="translate(-10888.656 -14140.105)" fill="none" fill-rule="evenodd"/><path d="M276.706,238.472H187.653l-25.3-25.31H72.271l-26.2,26.214" transform="translate(-10908.449 -14122.924)" fill="none" stroke="#36c9a5" stroke-width="1.012" fill-rule="evenodd"/><path d="M287.3,235.566l-22.36,22.375H188.218l-27.461,27.481" transform="translate(-10891.494 -14119.611)" fill="none" stroke="#36c9a5" stroke-width="1.012" fill-rule="evenodd"/><path d="M237.084,207.842l-27.181-27.2h-95.08l-25.9-25.919" transform="translate(-10902.115 -14131.563)" fill="none" stroke="#36c9a5" stroke-width="1.012" fill-rule="evenodd"/><path d="M201.056,194H68.638" transform="translate(-10905.113 -14125.757)" fill="#fff" fill-rule="evenodd"/><path d="M221.6,202.274a2.324,2.324,0,1,1-2.323-2.324A2.324,2.324,0,0,1,221.6,202.274Z" transform="translate(-10883.186 -14124.877)" fill="none" stroke="#36c9a5" stroke-width="1.012" fill-rule="evenodd"/><path d="M89.6,153.274a2.324,2.324,0,1,1-2.323-2.324A2.324,2.324,0,0,1,89.6,153.274Zm152.663,24.1a2.324,2.324,0,1,1-2.324-2.324,2.324,2.324,0,0,1,2.324,2.324Z" transform="translate(-10902.701 -14132.121)" fill="none" stroke="#aee9db" stroke-width="1.012" fill-rule="evenodd"/><path d="M274.6,234.274a2.324,2.324,0,1,1-2.324-2.324A2.324,2.324,0,0,1,274.6,234.274Z" transform="translate(-10875.35 -14120.146)" fill="none" stroke="#36c9a5" stroke-width="1.012" fill-rule="evenodd"/><g transform="translate(-10915 -13708.875)" fill="none" stroke="#aee9db" stroke-width="1"><ellipse cx="2.5" cy="3" rx="2.5" ry="3" stroke="none"/><ellipse cx="2.5" cy="3" rx="2" ry="2.5" fill="none"/></g><g transform="translate(-10633 -13887.875)" fill="none" stroke="#36c9a5" stroke-width="1"><circle cx="3" cy="3" r="3" stroke="none"/><circle cx="3" cy="3" r="2.5" fill="none"/></g><g transform="translate(-9857 -13936.875)" fill="none" stroke="#36c9a5" stroke-width="1"><circle cx="3" cy="3" r="3" stroke="none"/><circle cx="3" cy="3" r="2.5" fill="none"/></g><rect width="1200" height="500" transform="translate(-10960 -14181)" fill="none" opacity="0.44"/></g></svg>