<svg xmlns="http://www.w3.org/2000/svg" width="65.022" height="64" viewBox="0 0 65.022 64"><g transform="translate(-12534.978 7418.371)"><g transform="translate(12536 -7418.371)"><path d="M30,6H14.46a1,1,0,0,0-.866,1.5,2.978,2.978,0,0,1,0,3A1,1,0,0,0,14.46,12H30a1,1,0,0,0,1-1V7A1,1,0,0,0,30,6Z" fill="#2b61d1"/><path d="M50,9a2.979,2.979,0,0,1,.406-1.5A1,1,0,0,0,49.54,6H34a1,1,0,0,0-1,1v4a1,1,0,0,0,1,1H49.54a1,1,0,0,0,.866-1.5A2.979,2.979,0,0,1,50,9Z" fill="#2b61d1"/><path d="M32,0a3,3,0,0,0-3,3V53a1,1,0,0,0,1,1h4a1,1,0,0,0,1-1V3A3,3,0,0,0,32,0Z" fill="#5d91ff"/><path d="M41,52H23a5.006,5.006,0,0,0-5,5v1a1,1,0,0,0,1,1H45a1,1,0,0,0,1-1V57a5.006,5.006,0,0,0-5-5Z" fill="#2b61d1"/><path d="M21,36a1,1,0,0,1-1-1V33.806A25.512,25.512,0,0,0,11,14.3,25.512,25.512,0,0,0,2,33.806V35a1,1,0,0,1-2,0V33.806A27.511,27.511,0,0,1,10.375,12.219a1,1,0,0,1,1.25,0A27.511,27.511,0,0,1,22,33.806V35A1,1,0,0,1,21,36Z" fill="#5d91ff"/><path d="M63,36a1,1,0,0,1-1-1V33.806A25.512,25.512,0,0,0,53,14.3a25.512,25.512,0,0,0-9,19.509V35a1,1,0,0,1-2,0V33.806A27.511,27.511,0,0,1,52.375,12.219a1,1,0,0,1,1.25,0A27.511,27.511,0,0,1,64,33.806V35A1,1,0,0,1,63,36Z" fill="#5d91ff"/><circle cx="11" cy="11" r="11" transform="translate(42 24)" fill="#2b61d1"/><path d="M54.727,34.521,54,34.279V31.066a1.307,1.307,0,0,1,1,1.259,1,1,0,1,0,2,0,3.318,3.318,0,0,0-3-3.292V29a1,1,0,0,0-2,0v.033a3.314,3.314,0,0,0-.727,6.446l.727.242v3.213a1.307,1.307,0,0,1-1-1.259,1,1,0,0,0-2,0,3.318,3.318,0,0,0,3,3.292V41a1,1,0,0,0,2,0v-.033a3.314,3.314,0,0,0,.727-6.446Zm-2.821-.94A1.322,1.322,0,0,1,51,32.325a1.307,1.307,0,0,1,1-1.259v2.546ZM54,38.934V36.388l.094.031A1.322,1.322,0,0,1,55,37.675,1.307,1.307,0,0,1,54,38.934Z" fill="#fff"/><circle cx="5" cy="5" r="5" transform="translate(6 4)" fill="#5d91ff"/><circle cx="5" cy="5" r="5" transform="translate(48 4)" fill="#5d91ff"/><path d="M50,57H14a5.006,5.006,0,0,0-5,5v1a1,1,0,0,0,1,1H54a1,1,0,0,0,1-1V62A5.006,5.006,0,0,0,50,57Z" fill="#5d91ff"/></g><g transform="translate(929.567 763.064)"><path d="M11.511,0A11.435,11.435,0,1,1,0,11.435,11.473,11.473,0,0,1,11.511,0Z" transform="translate(11605.41 -8157.87)" fill="#2b61d1"/><g transform="translate(11610.95 -8153.321)"><path d="M87.951,168.124l-1.245.72L84.03,167.3l1.215-.7.03-.018.046.027Z" transform="translate(-80.68 -154.928)" fill="#fff"/><path d="M58.552,39.539v1.448l-2.633-1.52-.714-.412-.714.412L51.142,41.4l-.714.412v.853l-1.288-.744-.714-.412-.714.412-1.211.7V39.539l6.026-3.479Z" transform="translate(-46.5 -36.06)" fill="#fff"/><path d="M113.2,90v3.865L109.848,95.8l0,0-3.343-1.93V90l3.348-1.934Z" transform="translate(-101.144 -83.427)" fill="#fff"/><path d="M50.351,116.681V118.9l-1.926,1.112L46.5,118.9v-2.223l1.926-1.111Z" transform="translate(-46.5 -108.472)" fill="#fff"/></g></g></g></svg>