<svg xmlns="http://www.w3.org/2000/svg" xmlns:xlink="http://www.w3.org/1999/xlink" width="1222" height="564" viewBox="0 0 1222 564"><defs><linearGradient id="a" x1="0.5" x2="0.5" y2="1" gradientUnits="objectBoundingBox"><stop offset="0" stop-color="#97c2ff"/><stop offset="1" stop-color="#153cf5"/></linearGradient><filter id="b" x="1027" y="132.5" width="60" height="64" filterUnits="userSpaceOnUse"><feOffset dy="7" input="SourceAlpha"/><feGaussianBlur stdDeviation="7" result="c"/><feFlood flood-color="#2d2342" flood-opacity="0.302"/><feComposite operator="in" in2="c"/><feComposite in="SourceGraphic"/></filter><filter id="g" x="572" y="103.5" width="60" height="64" filterUnits="userSpaceOnUse"><feOffset dy="7" input="SourceAlpha"/><feGaussianBlur stdDeviation="7" result="h"/><feFlood flood-color="#2d2342" flood-opacity="0.302"/><feComposite operator="in" in2="h"/><feComposite in="SourceGraphic"/></filter><filter id="l" x="537" y="42.5" width="60" height="64" filterUnits="userSpaceOnUse"><feOffset dy="7" input="SourceAlpha"/><feGaussianBlur stdDeviation="7" result="m"/><feFlood flood-color="#2d2342" flood-opacity="0.302"/><feComposite operator="in" in2="m"/><feComposite in="SourceGraphic"/></filter><filter id="q" x="528" y="86.5" width="60" height="64" filterUnits="userSpaceOnUse"><feOffset dy="7" input="SourceAlpha"/><feGaussianBlur stdDeviation="7" result="r"/><feFlood flood-color="#2d2342" flood-opacity="0.302"/><feComposite operator="in" in2="r"/><feComposite in="SourceGraphic"/></filter><filter id="v" x="452" y="121.5" width="60" height="64" filterUnits="userSpaceOnUse"><feOffset dy="7" input="SourceAlpha"/><feGaussianBlur stdDeviation="7" result="w"/><feFlood flood-color="#2d2342" flood-opacity="0.302"/><feComposite operator="in" in2="w"/><feComposite in="SourceGraphic"/></filter><filter id="aa" x="341" y="323.5" width="60" height="64" filterUnits="userSpaceOnUse"><feOffset dy="7" input="SourceAlpha"/><feGaussianBlur stdDeviation="7" result="ab"/><feFlood flood-color="#2d2342" flood-opacity="0.302"/><feComposite operator="in" in2="ab"/><feComposite in="SourceGraphic"/></filter><filter id="af" x="269" y="69.5" width="60" height="64" filterUnits="userSpaceOnUse"><feOffset dy="7" input="SourceAlpha"/><feGaussianBlur stdDeviation="7" result="ag"/><feFlood flood-color="#2d2342" flood-opacity="0.302"/><feComposite operator="in" in2="ag"/><feComposite in="SourceGraphic"/></filter><filter id="ak" x="127" y="75.5" width="60" height="64" filterUnits="userSpaceOnUse"><feOffset dy="7" input="SourceAlpha"/><feGaussianBlur stdDeviation="7" result="al"/><feFlood flood-color="#2d2342" flood-opacity="0.302"/><feComposite operator="in" in2="al"/><feComposite in="SourceGraphic"/></filter><filter id="ap" x="69" y="121.5" width="60" height="64" filterUnits="userSpaceOnUse"><feOffset dy="7" input="SourceAlpha"/><feGaussianBlur stdDeviation="7" result="aq"/><feFlood flood-color="#2d2342" flood-opacity="0.302"/><feComposite operator="in" in2="aq"/><feComposite in="SourceGraphic"/></filter><filter id="au" x="131" y="143.5" width="60" height="64" filterUnits="userSpaceOnUse"><feOffset dy="7" input="SourceAlpha"/><feGaussianBlur stdDeviation="7" result="av"/><feFlood flood-color="#2d2342" flood-opacity="0.302"/><feComposite operator="in" in2="av"/><feComposite in="SourceGraphic"/></filter><filter id="az" x="586" y="422.5" width="60" height="64" filterUnits="userSpaceOnUse"><feOffset dy="7" input="SourceAlpha"/><feGaussianBlur stdDeviation="7" result="ba"/><feFlood flood-color="#2d2342" flood-opacity="0.302"/><feComposite operator="in" in2="ba"/><feComposite in="SourceGraphic"/></filter><filter id="be" x="914" y="275.5" width="60" height="64" filterUnits="userSpaceOnUse"><feOffset dy="7" input="SourceAlpha"/><feGaussianBlur stdDeviation="7" result="bf"/><feFlood flood-color="#2d2342" flood-opacity="0.302"/><feComposite operator="in" in2="bf"/><feComposite in="SourceGraphic"/></filter><filter id="bj" x="806" y="238.5" width="60" height="64" filterUnits="userSpaceOnUse"><feOffset dy="7" input="SourceAlpha"/><feGaussianBlur stdDeviation="7" result="bk"/><feFlood flood-color="#2d2342" flood-opacity="0.302"/><feComposite operator="in" in2="bk"/><feComposite in="SourceGraphic"/></filter><filter id="bo" x="1089" y="419.5" width="60" height="64" filterUnits="userSpaceOnUse"><feOffset dy="7" input="SourceAlpha"/><feGaussianBlur stdDeviation="7" result="bp"/><feFlood flood-color="#2d2342" flood-opacity="0.302"/><feComposite operator="in" in2="bp"/><feComposite in="SourceGraphic"/></filter></defs><g transform="translate(436 2845)"><g transform="translate(612 -2698.5)"><g transform="matrix(1, 0, 0, 1, -1048, -146.5)" filter="url(#b)"><path d="M985,77c0,7-9,13-9,13s-9-6-9-13a9,9,0,0,1,18,0Z" transform="translate(81 78.5)" fill="url(#a)"/></g><path d="M985,77c0,7-9,13-9,13s-9-6-9-13a9,9,0,0,1,18,0Z" transform="translate(-967 -68)" fill="url(#a)"/><path d="M985,77c0,7-9,13-9,13s-9-6-9-13a9,9,0,0,1,18,0Z" transform="translate(-967 -68)" fill="url(#a)"/></g><g transform="translate(157 -2727.5)"><g transform="matrix(1, 0, 0, 1, -593, -117.5)" filter="url(#g)"><path d="M985,77c0,7-9,13-9,13s-9-6-9-13a9,9,0,0,1,18,0Z" transform="translate(-374 49.5)" fill="url(#a)"/></g><path d="M985,77c0,7-9,13-9,13s-9-6-9-13a9,9,0,0,1,18,0Z" transform="translate(-967 -68)" fill="url(#a)"/><path d="M985,77c0,7-9,13-9,13s-9-6-9-13a9,9,0,0,1,18,0Z" transform="translate(-967 -68)" fill="url(#a)"/></g><g transform="translate(122 -2788.5)"><g transform="matrix(1, 0, 0, 1, -558, -56.5)" filter="url(#l)"><path d="M985,77c0,7-9,13-9,13s-9-6-9-13a9,9,0,0,1,18,0Z" transform="translate(-409 -11.5)" fill="url(#a)"/></g><path d="M985,77c0,7-9,13-9,13s-9-6-9-13a9,9,0,0,1,18,0Z" transform="translate(-967 -68)" fill="url(#a)"/><path d="M985,77c0,7-9,13-9,13s-9-6-9-13a9,9,0,0,1,18,0Z" transform="translate(-967 -68)" fill="url(#a)"/></g><g transform="translate(113 -2744.5)"><g transform="matrix(1, 0, 0, 1, -549, -100.5)" filter="url(#q)"><path d="M985,77c0,7-9,13-9,13s-9-6-9-13a9,9,0,0,1,18,0Z" transform="translate(-418 32.5)" fill="url(#a)"/></g><path d="M985,77c0,7-9,13-9,13s-9-6-9-13a9,9,0,0,1,18,0Z" transform="translate(-967 -68)" fill="url(#a)"/><path d="M985,77c0,7-9,13-9,13s-9-6-9-13a9,9,0,0,1,18,0Z" transform="translate(-967 -68)" fill="url(#a)"/></g><g transform="translate(37 -2709.5)"><g transform="matrix(1, 0, 0, 1, -473, -135.5)" filter="url(#v)"><path d="M985,77c0,7-9,13-9,13s-9-6-9-13a9,9,0,0,1,18,0Z" transform="translate(-494 67.5)" fill="url(#a)"/></g><path d="M985,77c0,7-9,13-9,13s-9-6-9-13a9,9,0,0,1,18,0Z" transform="translate(-967 -68)" fill="url(#a)"/><path d="M985,77c0,7-9,13-9,13s-9-6-9-13a9,9,0,0,1,18,0Z" transform="translate(-967 -68)" fill="url(#a)"/></g><g transform="translate(-74 -2507.5)"><g transform="matrix(1, 0, 0, 1, -362, -337.5)" filter="url(#aa)"><path d="M985,77c0,7-9,13-9,13s-9-6-9-13a9,9,0,0,1,18,0Z" transform="translate(-605 269.5)" fill="url(#a)"/></g><path d="M985,77c0,7-9,13-9,13s-9-6-9-13a9,9,0,0,1,18,0Z" transform="translate(-967 -68)" fill="url(#a)"/><path d="M985,77c0,7-9,13-9,13s-9-6-9-13a9,9,0,0,1,18,0Z" transform="translate(-967 -68)" fill="url(#a)"/></g><g transform="translate(-146 -2761.5)"><g transform="matrix(1, 0, 0, 1, -290, -83.5)" filter="url(#af)"><path d="M985,77c0,7-9,13-9,13s-9-6-9-13a9,9,0,0,1,18,0Z" transform="translate(-677 15.5)" fill="url(#a)"/></g><path d="M985,77c0,7-9,13-9,13s-9-6-9-13a9,9,0,0,1,18,0Z" transform="translate(-967 -68)" fill="url(#a)"/><path d="M985,77c0,7-9,13-9,13s-9-6-9-13a9,9,0,0,1,18,0Z" transform="translate(-967 -68)" fill="url(#a)"/></g><g transform="translate(-288 -2755.5)"><g transform="matrix(1, 0, 0, 1, -148, -89.5)" filter="url(#ak)"><path d="M985,77c0,7-9,13-9,13s-9-6-9-13a9,9,0,0,1,18,0Z" transform="translate(-819 21.5)" fill="url(#a)"/></g><path d="M985,77c0,7-9,13-9,13s-9-6-9-13a9,9,0,0,1,18,0Z" transform="translate(-967 -68)" fill="url(#a)"/><path d="M985,77c0,7-9,13-9,13s-9-6-9-13a9,9,0,0,1,18,0Z" transform="translate(-967 -68)" fill="url(#a)"/></g><g transform="translate(-346 -2709.5)"><g transform="matrix(1, 0, 0, 1, -90, -135.5)" filter="url(#ap)"><path d="M985,77c0,7-9,13-9,13s-9-6-9-13a9,9,0,0,1,18,0Z" transform="translate(-877 67.5)" fill="url(#a)"/></g><path d="M985,77c0,7-9,13-9,13s-9-6-9-13a9,9,0,0,1,18,0Z" transform="translate(-967 -68)" fill="url(#a)"/><path d="M985,77c0,7-9,13-9,13s-9-6-9-13a9,9,0,0,1,18,0Z" transform="translate(-967 -68)" fill="url(#a)"/></g><g transform="translate(-284 -2687.5)"><g transform="matrix(1, 0, 0, 1, -152, -157.5)" filter="url(#au)"><path d="M985,77c0,7-9,13-9,13s-9-6-9-13a9,9,0,0,1,18,0Z" transform="translate(-815 89.5)" fill="url(#a)"/></g><path d="M985,77c0,7-9,13-9,13s-9-6-9-13a9,9,0,0,1,18,0Z" transform="translate(-967 -68)" fill="url(#a)"/><path d="M985,77c0,7-9,13-9,13s-9-6-9-13a9,9,0,0,1,18,0Z" transform="translate(-967 -68)" fill="url(#a)"/></g><g transform="translate(171 -2408.5)"><g transform="matrix(1, 0, 0, 1, -607, -436.5)" filter="url(#az)"><path d="M985,77c0,7-9,13-9,13s-9-6-9-13a9,9,0,0,1,18,0Z" transform="translate(-360 368.5)" fill="url(#a)"/></g><path d="M985,77c0,7-9,13-9,13s-9-6-9-13a9,9,0,0,1,18,0Z" transform="translate(-967 -68)" fill="url(#a)"/><path d="M985,77c0,7-9,13-9,13s-9-6-9-13a9,9,0,0,1,18,0Z" transform="translate(-967 -68)" fill="url(#a)"/></g><g transform="translate(499 -2555.5)"><g transform="matrix(1, 0, 0, 1, -935, -289.5)" filter="url(#be)"><path d="M985,77c0,7-9,13-9,13s-9-6-9-13a9,9,0,0,1,18,0Z" transform="translate(-32 221.5)" fill="url(#a)"/></g><path d="M985,77c0,7-9,13-9,13s-9-6-9-13a9,9,0,0,1,18,0Z" transform="translate(-967 -68)" fill="url(#a)"/><path d="M985,77c0,7-9,13-9,13s-9-6-9-13a9,9,0,0,1,18,0Z" transform="translate(-967 -68)" fill="url(#a)"/></g><g transform="translate(391 -2592.5)"><g transform="matrix(1, 0, 0, 1, -827, -252.5)" filter="url(#bj)"><path d="M985,77c0,7-9,13-9,13s-9-6-9-13a9,9,0,0,1,18,0Z" transform="translate(-140 184.5)" fill="url(#a)"/></g><path d="M985,77c0,7-9,13-9,13s-9-6-9-13a9,9,0,0,1,18,0Z" transform="translate(-967 -68)" fill="url(#a)"/><path d="M985,77c0,7-9,13-9,13s-9-6-9-13a9,9,0,0,1,18,0Z" transform="translate(-967 -68)" fill="url(#a)"/></g><g transform="translate(674 -2411.5)"><g transform="matrix(1, 0, 0, 1, -1110, -433.5)" filter="url(#bo)"><path d="M985,77c0,7-9,13-9,13s-9-6-9-13a9,9,0,0,1,18,0Z" transform="translate(143 365.5)" fill="url(#a)"/></g><path d="M985,77c0,7-9,13-9,13s-9-6-9-13a9,9,0,0,1,18,0Z" transform="translate(-967 -68)" fill="url(#a)"/><path d="M985,77c0,7-9,13-9,13s-9-6-9-13a9,9,0,0,1,18,0Z" transform="translate(-967 -68)" fill="url(#a)"/></g><rect width="1222" height="564" transform="translate(-436 -2845)" fill="none"/></g></svg>