<svg xmlns="http://www.w3.org/2000/svg" xmlns:xlink="http://www.w3.org/1999/xlink" width="1222" height="564" viewBox="0 0 1222 564"><defs><linearGradient id="a" x1="0.5" x2="0.5" y2="1" gradientUnits="objectBoundingBox"><stop offset="0" stop-color="#b8c7e3"/><stop offset="1" stop-color="#5475b7"/></linearGradient><filter id="b" x="932" y="114.5" width="60" height="64" filterUnits="userSpaceOnUse"><feOffset dy="7" input="SourceAlpha"/><feGaussianBlur stdDeviation="7" result="c"/><feFlood flood-color="#2d2342" flood-opacity="0.302"/><feComposite operator="in" in2="c"/><feComposite in="SourceGraphic"/></filter><linearGradient id="e" x1="0.5" x2="0.5" y2="1" gradientUnits="objectBoundingBox"><stop offset="0" stop-color="#aee9db"/><stop offset="1" stop-color="#36c9a5"/></linearGradient><filter id="g" x="577" y="64.5" width="60" height="64" filterUnits="userSpaceOnUse"><feOffset dy="7" input="SourceAlpha"/><feGaussianBlur stdDeviation="7" result="h"/><feFlood flood-color="#2d2342" flood-opacity="0.302"/><feComposite operator="in" in2="h"/><feComposite in="SourceGraphic"/></filter><filter id="l" x="461" y="256.5" width="60" height="64" filterUnits="userSpaceOnUse"><feOffset dy="7" input="SourceAlpha"/><feGaussianBlur stdDeviation="7" result="m"/><feFlood flood-color="#2d2342" flood-opacity="0.302"/><feComposite operator="in" in2="m"/><feComposite in="SourceGraphic"/></filter><filter id="q" x="1063" y="312.5" width="60" height="64" filterUnits="userSpaceOnUse"><feOffset dy="7" input="SourceAlpha"/><feGaussianBlur stdDeviation="7" result="r"/><feFlood flood-color="#2d2342" flood-opacity="0.302"/><feComposite operator="in" in2="r"/><feComposite in="SourceGraphic"/></filter><filter id="v" x="305" y="413.5" width="60" height="64" filterUnits="userSpaceOnUse"><feOffset dy="7" input="SourceAlpha"/><feGaussianBlur stdDeviation="7" result="w"/><feFlood flood-color="#2d2342" flood-opacity="0.302"/><feComposite operator="in" in2="w"/><feComposite in="SourceGraphic"/></filter><filter id="aa" x="205" y="136.5" width="60" height="64" filterUnits="userSpaceOnUse"><feOffset dy="7" input="SourceAlpha"/><feGaussianBlur stdDeviation="7" result="ab"/><feFlood flood-color="#2d2342" flood-opacity="0.302"/><feComposite operator="in" in2="ab"/><feComposite in="SourceGraphic"/></filter><filter id="af" x="78" y="154.5" width="60" height="64" filterUnits="userSpaceOnUse"><feOffset dy="7" input="SourceAlpha"/><feGaussianBlur stdDeviation="7" result="ag"/><feFlood flood-color="#2d2342" flood-opacity="0.302"/><feComposite operator="in" in2="ag"/><feComposite in="SourceGraphic"/></filter></defs><g transform="translate(-999 2845)"><g transform="translate(1952 -2716.5)"><g transform="matrix(1, 0, 0, 1, -953, -128.5)" filter="url(#b)"><path d="M985,77c0,7-9,13-9,13s-9-6-9-13a9,9,0,0,1,18,0Z" transform="translate(-14 60.5)" fill="url(#a)"/></g><path d="M985,77c0,7-9,13-9,13s-9-6-9-13a9,9,0,0,1,18,0Z" transform="translate(-967 -68)" fill="url(#a)"/><path d="M985,77c0,7-9,13-9,13s-9-6-9-13a9,9,0,0,1,18,0Z" transform="translate(-967 -68)" fill="url(#e)"/></g><g transform="translate(1597 -2766.5)"><g transform="matrix(1, 0, 0, 1, -598, -78.5)" filter="url(#g)"><path d="M985,77c0,7-9,13-9,13s-9-6-9-13a9,9,0,0,1,18,0Z" transform="translate(-369 10.5)" fill="url(#e)"/></g><path d="M985,77c0,7-9,13-9,13s-9-6-9-13a9,9,0,0,1,18,0Z" transform="translate(-967 -68)" fill="url(#e)"/><path d="M985,77c0,7-9,13-9,13s-9-6-9-13a9,9,0,0,1,18,0Z" transform="translate(-967 -68)" fill="url(#e)"/></g><g transform="translate(1481 -2574.5)"><g transform="matrix(1, 0, 0, 1, -482, -270.5)" filter="url(#l)"><path d="M985,77c0,7-9,13-9,13s-9-6-9-13a9,9,0,0,1,18,0Z" transform="translate(-485 202.5)" fill="url(#e)"/></g><path d="M985,77c0,7-9,13-9,13s-9-6-9-13a9,9,0,0,1,18,0Z" transform="translate(-967 -68)" fill="url(#e)"/><path d="M985,77c0,7-9,13-9,13s-9-6-9-13a9,9,0,0,1,18,0Z" transform="translate(-967 -68)" fill="url(#e)"/></g><g transform="translate(2083 -2518.5)"><g transform="matrix(1, 0, 0, 1, -1084, -326.5)" filter="url(#q)"><path d="M985,77c0,7-9,13-9,13s-9-6-9-13a9,9,0,0,1,18,0Z" transform="translate(117 258.5)" fill="url(#e)"/></g><path d="M985,77c0,7-9,13-9,13s-9-6-9-13a9,9,0,0,1,18,0Z" transform="translate(-967 -68)" fill="url(#e)"/><path d="M985,77c0,7-9,13-9,13s-9-6-9-13a9,9,0,0,1,18,0Z" transform="translate(-967 -68)" fill="url(#e)"/></g><g transform="translate(1325 -2417.5)"><g transform="matrix(1, 0, 0, 1, -326, -427.5)" filter="url(#v)"><path d="M985,77c0,7-9,13-9,13s-9-6-9-13a9,9,0,0,1,18,0Z" transform="translate(-641 359.5)" fill="url(#e)"/></g><path d="M985,77c0,7-9,13-9,13s-9-6-9-13a9,9,0,0,1,18,0Z" transform="translate(-967 -68)" fill="url(#e)"/><path d="M985,77c0,7-9,13-9,13s-9-6-9-13a9,9,0,0,1,18,0Z" transform="translate(-967 -68)" fill="url(#e)"/></g><g transform="translate(1225 -2694.5)"><g transform="matrix(1, 0, 0, 1, -226, -150.5)" filter="url(#aa)"><path d="M985,77c0,7-9,13-9,13s-9-6-9-13a9,9,0,0,1,18,0Z" transform="translate(-741 82.5)" fill="url(#e)"/></g><path d="M985,77c0,7-9,13-9,13s-9-6-9-13a9,9,0,0,1,18,0Z" transform="translate(-967 -68)" fill="url(#e)"/><path d="M985,77c0,7-9,13-9,13s-9-6-9-13a9,9,0,0,1,18,0Z" transform="translate(-967 -68)" fill="url(#e)"/></g><g transform="translate(1098 -2676.5)"><g transform="matrix(1, 0, 0, 1, -99, -168.5)" filter="url(#af)"><path d="M985,77c0,7-9,13-9,13s-9-6-9-13a9,9,0,0,1,18,0Z" transform="translate(-868 100.5)" fill="url(#a)"/></g><path d="M985,77c0,7-9,13-9,13s-9-6-9-13a9,9,0,0,1,18,0Z" transform="translate(-967 -68)" fill="url(#a)"/><path d="M985,77c0,7-9,13-9,13s-9-6-9-13a9,9,0,0,1,18,0Z" transform="translate(-967 -68)" fill="url(#e)"/></g><rect width="1222" height="564" transform="translate(999 -2845)" fill="none"/></g></svg>