<svg xmlns="http://www.w3.org/2000/svg" xmlns:xlink="http://www.w3.org/1999/xlink" width="1222" height="564" viewBox="0 0 1222 564"><defs><filter id="a" x="940.5" y="185" width="57" height="61" filterUnits="userSpaceOnUse"><feOffset dy="7" input="SourceAlpha"/><feGaussianBlur stdDeviation="6.5" result="b"/><feFlood flood-color="#2d2342" flood-opacity="0.302"/><feComposite operator="in" in2="b"/><feComposite in="SourceGraphic"/></filter><linearGradient id="c" x1="0.5" x2="0.5" y2="0.814" gradientUnits="objectBoundingBox"><stop offset="0" stop-color="#a0aaf8"/><stop offset="1" stop-color="#5468ff"/></linearGradient><linearGradient id="d" x1="0.5" x2="0.5" y2="1" gradientUnits="objectBoundingBox"><stop offset="0" stop-color="#90b0f2"/><stop offset="1" stop-color="#4c80ee"/></linearGradient><filter id="e" x="499.5" y="88" width="57" height="61" filterUnits="userSpaceOnUse"><feOffset dy="7" input="SourceAlpha"/><feGaussianBlur stdDeviation="6.5" result="f"/><feFlood flood-color="#2d2342" flood-opacity="0.302"/><feComposite operator="in" in2="f"/><feComposite in="SourceGraphic"/></filter><filter id="i" x="241.5" y="105" width="57" height="61" filterUnits="userSpaceOnUse"><feOffset dy="7" input="SourceAlpha"/><feGaussianBlur stdDeviation="6.5" result="j"/><feFlood flood-color="#2d2342" flood-opacity="0.302"/><feComposite operator="in" in2="j"/><feComposite in="SourceGraphic"/></filter><filter id="m" x="193.5" y="171" width="57" height="61" filterUnits="userSpaceOnUse"><feOffset dy="7" input="SourceAlpha"/><feGaussianBlur stdDeviation="6.5" result="n"/><feFlood flood-color="#2d2342" flood-opacity="0.302"/><feComposite operator="in" in2="n"/><feComposite in="SourceGraphic"/></filter><filter id="q" x="81.5" y="96" width="57" height="61" filterUnits="userSpaceOnUse"><feOffset dy="7" input="SourceAlpha"/><feGaussianBlur stdDeviation="6.5" result="r"/><feFlood flood-color="#2d2342" flood-opacity="0.302"/><feComposite operator="in" in2="r"/><feComposite in="SourceGraphic"/></filter><filter id="u" x="652.5" y="116" width="57" height="61" filterUnits="userSpaceOnUse"><feOffset dy="7" input="SourceAlpha"/><feGaussianBlur stdDeviation="6.5" result="v"/><feFlood flood-color="#2d2342" flood-opacity="0.302"/><feComposite operator="in" in2="v"/><feComposite in="SourceGraphic"/></filter><filter id="y" x="1164.5" y="461" width="57" height="61" filterUnits="userSpaceOnUse"><feOffset dy="7" input="SourceAlpha"/><feGaussianBlur stdDeviation="6.5" result="z"/><feFlood flood-color="#2d2342" flood-opacity="0.302"/><feComposite operator="in" in2="z"/><feComposite in="SourceGraphic"/></filter></defs><g transform="translate(436 2072)"><g transform="translate(524 -1874.5)"><g transform="matrix(1, 0, 0, 1, -960, -197.5)" filter="url(#a)"><path d="M904,121c0,7-9,13-9,13s-9-6-9-13a9,9,0,0,1,18,0Z" transform="translate(74 85.5)"/></g><path d="M904,121c0,7-9,13-9,13s-9-6-9-13a9,9,0,0,1,18,0Z" transform="translate(-886 -112)" fill="url(#c)"/><path d="M904,121c0,7-9,13-9,13s-9-6-9-13a9,9,0,0,1,18,0Z" transform="translate(-886 -112)" fill="url(#d)"/></g><g transform="translate(83 -1971.5)"><g transform="matrix(1, 0, 0, 1, -519, -100.5)" filter="url(#e)"><path d="M904,121c0,7-9,13-9,13s-9-6-9-13a9,9,0,0,1,18,0Z" transform="translate(-367 -11.5)"/></g><path d="M904,121c0,7-9,13-9,13s-9-6-9-13a9,9,0,0,1,18,0Z" transform="translate(-886 -112)" fill="url(#c)"/><path d="M904,121c0,7-9,13-9,13s-9-6-9-13a9,9,0,0,1,18,0Z" transform="translate(-886 -112)" fill="url(#d)"/></g><g transform="translate(-175 -1954.5)"><g transform="matrix(1, 0, 0, 1, -261, -117.5)" filter="url(#i)"><path d="M904,121c0,7-9,13-9,13s-9-6-9-13a9,9,0,0,1,18,0Z" transform="translate(-625 5.5)"/></g><path d="M904,121c0,7-9,13-9,13s-9-6-9-13a9,9,0,0,1,18,0Z" transform="translate(-886 -112)" fill="url(#c)"/><path d="M904,121c0,7-9,13-9,13s-9-6-9-13a9,9,0,0,1,18,0Z" transform="translate(-886 -112)" fill="url(#d)"/></g><g transform="translate(-223 -1888.5)"><g transform="matrix(1, 0, 0, 1, -213, -183.5)" filter="url(#m)"><path d="M904,121c0,7-9,13-9,13s-9-6-9-13a9,9,0,0,1,18,0Z" transform="translate(-673 71.5)"/></g><path d="M904,121c0,7-9,13-9,13s-9-6-9-13a9,9,0,0,1,18,0Z" transform="translate(-886 -112)" fill="url(#c)"/><path d="M904,121c0,7-9,13-9,13s-9-6-9-13a9,9,0,0,1,18,0Z" transform="translate(-886 -112)" fill="url(#d)"/></g><g transform="translate(-335 -1963.5)"><g transform="matrix(1, 0, 0, 1, -101, -108.5)" filter="url(#q)"><path d="M904,121c0,7-9,13-9,13s-9-6-9-13a9,9,0,0,1,18,0Z" transform="translate(-785 -3.5)"/></g><path d="M904,121c0,7-9,13-9,13s-9-6-9-13a9,9,0,0,1,18,0Z" transform="translate(-886 -112)" fill="url(#c)"/><path d="M904,121c0,7-9,13-9,13s-9-6-9-13a9,9,0,0,1,18,0Z" transform="translate(-886 -112)" fill="url(#d)"/></g><g transform="translate(236 -1943.5)"><g transform="matrix(1, 0, 0, 1, -672, -128.5)" filter="url(#u)"><path d="M904,121c0,7-9,13-9,13s-9-6-9-13a9,9,0,0,1,18,0Z" transform="translate(-214 16.5)"/></g><path d="M904,121c0,7-9,13-9,13s-9-6-9-13a9,9,0,0,1,18,0Z" transform="translate(-886 -112)" fill="url(#c)"/><path d="M904,121c0,7-9,13-9,13s-9-6-9-13a9,9,0,0,1,18,0Z" transform="translate(-886 -112)" fill="url(#d)"/></g><g transform="translate(748 -1598.5)"><g transform="matrix(1, 0, 0, 1, -1184, -473.5)" filter="url(#y)"><path d="M904,121c0,7-9,13-9,13s-9-6-9-13a9,9,0,0,1,18,0Z" transform="translate(298 361.5)"/></g><path d="M904,121c0,7-9,13-9,13s-9-6-9-13a9,9,0,0,1,18,0Z" transform="translate(-886 -112)" fill="url(#c)"/><path d="M904,121c0,7-9,13-9,13s-9-6-9-13a9,9,0,0,1,18,0Z" transform="translate(-886 -112)" fill="url(#d)"/></g><rect width="1222" height="564" transform="translate(-436 -2072)" fill="none"/></g></svg>