<svg xmlns="http://www.w3.org/2000/svg" xmlns:xlink="http://www.w3.org/1999/xlink" width="1222" height="564" viewBox="0 0 1222 564"><defs><linearGradient id="a" x1="0.5" x2="0.5" y2="1" gradientUnits="objectBoundingBox"><stop offset="0" stop-color="#b8c1d9"/><stop offset="1" stop-color="#1425b7"/></linearGradient><filter id="b" x="940.5" y="185" width="57" height="61" filterUnits="userSpaceOnUse"><feOffset dy="7" input="SourceAlpha"/><feGaussianBlur stdDeviation="6.5" result="c"/><feFlood flood-color="#2d2342" flood-opacity="0.302"/><feComposite operator="in" in2="c"/><feComposite in="SourceGraphic"/></filter><filter id="g" x="499.5" y="88" width="57" height="61" filterUnits="userSpaceOnUse"><feOffset dy="7" input="SourceAlpha"/><feGaussianBlur stdDeviation="6.5" result="h"/><feFlood flood-color="#2d2342" flood-opacity="0.302"/><feComposite operator="in" in2="h"/><feComposite in="SourceGraphic"/></filter><filter id="l" x="241.5" y="105" width="57" height="61" filterUnits="userSpaceOnUse"><feOffset dy="7" input="SourceAlpha"/><feGaussianBlur stdDeviation="6.5" result="m"/><feFlood flood-color="#2d2342" flood-opacity="0.302"/><feComposite operator="in" in2="m"/><feComposite in="SourceGraphic"/></filter><filter id="q" x="193.5" y="171" width="57" height="61" filterUnits="userSpaceOnUse"><feOffset dy="7" input="SourceAlpha"/><feGaussianBlur stdDeviation="6.5" result="r"/><feFlood flood-color="#2d2342" flood-opacity="0.302"/><feComposite operator="in" in2="r"/><feComposite in="SourceGraphic"/></filter><filter id="v" x="81.5" y="96" width="57" height="61" filterUnits="userSpaceOnUse"><feOffset dy="7" input="SourceAlpha"/><feGaussianBlur stdDeviation="6.5" result="w"/><feFlood flood-color="#2d2342" flood-opacity="0.302"/><feComposite operator="in" in2="w"/><feComposite in="SourceGraphic"/></filter><filter id="aa" x="652.5" y="116" width="57" height="61" filterUnits="userSpaceOnUse"><feOffset dy="7" input="SourceAlpha"/><feGaussianBlur stdDeviation="6.5" result="ab"/><feFlood flood-color="#2d2342" flood-opacity="0.302"/><feComposite operator="in" in2="ab"/><feComposite in="SourceGraphic"/></filter><filter id="af" x="1164.5" y="461" width="57" height="61" filterUnits="userSpaceOnUse"><feOffset dy="7" input="SourceAlpha"/><feGaussianBlur stdDeviation="6.5" result="ag"/><feFlood flood-color="#2d2342" flood-opacity="0.302"/><feComposite operator="in" in2="ag"/><feComposite in="SourceGraphic"/></filter></defs><g transform="translate(436 2072)"><g transform="translate(524 -1874.5)"><g transform="matrix(1, 0, 0, 1, -960, -197.5)" filter="url(#b)"><path d="M904,121c0,7-9,13-9,13s-9-6-9-13a9,9,0,0,1,18,0Z" transform="translate(74 85.5)" fill="url(#a)"/></g><path d="M904,121c0,7-9,13-9,13s-9-6-9-13a9,9,0,0,1,18,0Z" transform="translate(-886 -112)" fill="url(#a)"/><path d="M904,121c0,7-9,13-9,13s-9-6-9-13a9,9,0,0,1,18,0Z" transform="translate(-886 -112)" fill="url(#a)"/></g><g transform="translate(83 -1971.5)"><g transform="matrix(1, 0, 0, 1, -519, -100.5)" filter="url(#g)"><path d="M904,121c0,7-9,13-9,13s-9-6-9-13a9,9,0,0,1,18,0Z" transform="translate(-367 -11.5)" fill="url(#a)"/></g><path d="M904,121c0,7-9,13-9,13s-9-6-9-13a9,9,0,0,1,18,0Z" transform="translate(-886 -112)" fill="url(#a)"/><path d="M904,121c0,7-9,13-9,13s-9-6-9-13a9,9,0,0,1,18,0Z" transform="translate(-886 -112)" fill="url(#a)"/></g><g transform="translate(-175 -1954.5)"><g transform="matrix(1, 0, 0, 1, -261, -117.5)" filter="url(#l)"><path d="M904,121c0,7-9,13-9,13s-9-6-9-13a9,9,0,0,1,18,0Z" transform="translate(-625 5.5)" fill="url(#a)"/></g><path d="M904,121c0,7-9,13-9,13s-9-6-9-13a9,9,0,0,1,18,0Z" transform="translate(-886 -112)" fill="url(#a)"/><path d="M904,121c0,7-9,13-9,13s-9-6-9-13a9,9,0,0,1,18,0Z" transform="translate(-886 -112)" fill="url(#a)"/></g><g transform="translate(-223 -1888.5)"><g transform="matrix(1, 0, 0, 1, -213, -183.5)" filter="url(#q)"><path d="M904,121c0,7-9,13-9,13s-9-6-9-13a9,9,0,0,1,18,0Z" transform="translate(-673 71.5)" fill="url(#a)"/></g><path d="M904,121c0,7-9,13-9,13s-9-6-9-13a9,9,0,0,1,18,0Z" transform="translate(-886 -112)" fill="url(#a)"/><path d="M904,121c0,7-9,13-9,13s-9-6-9-13a9,9,0,0,1,18,0Z" transform="translate(-886 -112)" fill="url(#a)"/></g><g transform="translate(-335 -1963.5)"><g transform="matrix(1, 0, 0, 1, -101, -108.5)" filter="url(#v)"><path d="M904,121c0,7-9,13-9,13s-9-6-9-13a9,9,0,0,1,18,0Z" transform="translate(-785 -3.5)" fill="url(#a)"/></g><path d="M904,121c0,7-9,13-9,13s-9-6-9-13a9,9,0,0,1,18,0Z" transform="translate(-886 -112)" fill="url(#a)"/><path d="M904,121c0,7-9,13-9,13s-9-6-9-13a9,9,0,0,1,18,0Z" transform="translate(-886 -112)" fill="url(#a)"/></g><g transform="translate(236 -1943.5)"><g transform="matrix(1, 0, 0, 1, -672, -128.5)" filter="url(#aa)"><path d="M904,121c0,7-9,13-9,13s-9-6-9-13a9,9,0,0,1,18,0Z" transform="translate(-214 16.5)" fill="url(#a)"/></g><path d="M904,121c0,7-9,13-9,13s-9-6-9-13a9,9,0,0,1,18,0Z" transform="translate(-886 -112)" fill="url(#a)"/><path d="M904,121c0,7-9,13-9,13s-9-6-9-13a9,9,0,0,1,18,0Z" transform="translate(-886 -112)" fill="url(#a)"/></g><g transform="translate(748 -1598.5)"><g transform="matrix(1, 0, 0, 1, -1184, -473.5)" filter="url(#af)"><path d="M904,121c0,7-9,13-9,13s-9-6-9-13a9,9,0,0,1,18,0Z" transform="translate(298 361.5)" fill="url(#a)"/></g><path d="M904,121c0,7-9,13-9,13s-9-6-9-13a9,9,0,0,1,18,0Z" transform="translate(-886 -112)" fill="url(#a)"/><path d="M904,121c0,7-9,13-9,13s-9-6-9-13a9,9,0,0,1,18,0Z" transform="translate(-886 -112)" fill="url(#a)"/></g><rect width="1222" height="564" transform="translate(-436 -2072)" fill="none"/></g></svg>