<svg width="47" height="35" viewBox="0 0 47 35" fill="none" xmlns="http://www.w3.org/2000/svg">
<path d="M45.6135 14.601C45.4897 14.5039 44.3331 13.6424 41.8933 13.6424C41.2488 13.6452 40.6062 13.6995 39.9713 13.8052C39.4991 10.6123 36.907 9.11209 36.787 9.0426L36.1321 8.66943L35.7009 9.28248C35.1611 10.1069 34.6842 10.9579 34.4529 11.9127C34.0159 13.7357 34.2815 15.4473 35.2201 16.9104C34.0854 17.5339 32.152 17.5891 31.7846 17.6025H1.87646C1.09015 17.6034 0.452351 18.2307 0.447591 19.0056C0.412369 21.6073 0.783627 24.2918 1.69083 26.7344C2.72749 29.417 4.27059 31.3933 6.27729 32.6022C8.52577 33.9606 12.1793 34.7374 16.3212 34.7374C18.1918 34.7431 20.0595 34.5766 21.8987 34.2386C24.4556 33.775 26.9164 32.8935 29.1782 31.6303C31.0421 30.5651 32.7194 29.2105 34.1464 27.6179C36.531 24.9543 37.9513 21.989 39.0079 19.3531C39.1498 19.3531 39.2916 19.3531 39.4287 19.3531C42.0399 19.3531 43.6448 18.3221 44.5301 17.4587C45.1185 16.9075 45.5782 16.2364 45.8762 15.493L46.0637 14.9523L45.6135 14.601Z" fill="#2B61D1"/>
<path d="M7.98422 16.6539H5.12789C4.60233 16.6539 4.17578 16.2273 4.17578 15.7017V12.8454C4.17578 12.3199 4.60233 11.8933 5.12789 11.8933H7.98422C8.50978 11.8933 8.93633 12.3199 8.93633 12.8454V15.7017C8.93633 16.2273 8.50978 16.6539 7.98422 16.6539Z" fill="#2B61D1"/>
<path d="M13.6991 16.6539H10.8427C10.3172 16.6539 9.89062 16.2273 9.89062 15.7017V12.8454C9.89062 12.3199 10.3172 11.8933 10.8427 11.8933H13.6991C14.2246 11.8933 14.6512 12.3199 14.6512 12.8454V15.7017C14.6512 16.2273 14.2246 16.6539 13.6991 16.6539Z" fill="#2B61D1"/>
<path d="M19.41 16.6539H16.5537C16.0281 16.6539 15.6016 16.2273 15.6016 15.7017V12.8454C15.6016 12.3199 16.0281 11.8933 16.5537 11.8933H19.41C19.9356 11.8933 20.3621 12.3199 20.3621 12.8454V15.7017C20.3621 16.2273 19.9356 16.6539 19.41 16.6539Z" fill="#2B61D1"/>
<path d="M25.1209 16.6539H22.2646C21.739 16.6539 21.3125 16.2273 21.3125 15.7017V12.8454C21.3125 12.3199 21.739 11.8933 22.2646 11.8933H25.1209C25.6465 11.8933 26.073 12.3199 26.073 12.8454V15.7017C26.073 16.2273 25.6465 16.6539 25.1209 16.6539Z" fill="#2B61D1"/>
<path d="M13.6991 10.9432H10.8427C10.3172 10.9432 9.89062 10.5166 9.89062 9.99106V7.13473C9.89062 6.60916 10.3172 6.18262 10.8427 6.18262H13.6991C14.2246 6.18262 14.6512 6.60916 14.6512 7.13473V9.99106C14.6512 10.5166 14.2246 10.9432 13.6991 10.9432Z" fill="#2B61D1"/>
<path d="M19.41 10.9432H16.5537C16.0281 10.9432 15.6016 10.5166 15.6016 9.99106V7.13473C15.6016 6.60916 16.0281 6.18262 16.5537 6.18262H19.41C19.9356 6.18262 20.3621 6.60916 20.3621 7.13473V9.99106C20.3621 10.5166 19.9356 10.9432 19.41 10.9432Z" fill="#2B61D1"/>
<path d="M25.1209 10.9432H22.2646C21.739 10.9432 21.3125 10.5166 21.3125 9.99106V7.13473C21.3125 6.60916 21.739 6.18262 22.2646 6.18262H25.1209C25.6465 6.18262 26.073 6.60916 26.073 7.13473V9.99106C26.073 10.5166 25.6465 10.9432 25.1209 10.9432Z" fill="#2B61D1"/>
<path d="M25.1209 5.23052H22.2646C21.739 5.23052 21.3125 4.80397 21.3125 4.27841V1.42208C21.3125 0.896516 21.739 0.469971 22.2646 0.469971H25.1209C25.6465 0.469971 26.073 0.896516 26.073 1.42208V4.27841C26.073 4.80397 25.6465 5.23052 25.1209 5.23052Z" fill="#2B61D1"/>
<path d="M30.8319 16.6539H27.9755C27.45 16.6539 27.0234 16.2273 27.0234 15.7017V12.8454C27.0234 12.3199 27.45 11.8933 27.9755 11.8933H30.8319C31.3574 11.8933 31.784 12.3199 31.784 12.8454V15.7017C31.784 16.2273 31.3574 16.6539 30.8319 16.6539Z" fill="#2B61D1"/>
</svg>
