<svg xmlns="http://www.w3.org/2000/svg" width="50" height="50" viewBox="0 0 50 50"><g transform="translate(1794 4323)"><g transform="translate(1.494 0.574)"><path d="M31.6,37.2V6.8A3.8,3.8,0,0,0,27.8,3H8.8A3.8,3.8,0,0,0,5,6.8V37.2m26.6,0h5.7m-3.8,0H24m-9.5,0M12.6,10.6h1.9m-1.9,7.6h1.9m7.6-7.6H24m-1.9,7.6H24m-9.5,19V27.7a1.9,1.9,0,0,1,1.9-1.9h5.7A1.9,1.9,0,0,1,24,27.7v9.5" transform="translate(-1788.15 -4318.574)" fill="none" stroke="#4c80ee" stroke-linecap="round" stroke-linejoin="round" stroke-width="3"/><path d="M-19384.15,1795.629h33.59" transform="translate(17594.656 -6077)" fill="none" stroke="#4c80ee" stroke-linecap="round" stroke-width="3"/></g><rect width="50" height="50" transform="translate(-1794 -4323)" fill="none"/></g></svg>