<svg xmlns="http://www.w3.org/2000/svg" xmlns:xlink="http://www.w3.org/1999/xlink" width="106.983" height="106.984" viewBox="0 0 106.983 106.984"><defs><filter id="a" x="0" y="0" width="106.983" height="106.984" filterUnits="userSpaceOnUse"><feOffset dy="5" input="SourceAlpha"/><feGaussianBlur stdDeviation="7.5" result="b"/><feFlood flood-color="#242c60" flood-opacity="0.149"/><feComposite operator="in" in2="b"/><feComposite in="SourceGraphic"/></filter><clipPath id="c"><rect width="42.028" height="42.028" transform="translate(-13190.179 -15254.179)" fill="none"/></clipPath></defs><g transform="translate(11141.5 16410.485)"><g transform="matrix(1, 0, 0, 1, -11141.5, -16410.49)" filter="url(#a)"><path d="M30.992,0A30.992,30.992,0,1,1,0,30.992,30.992,30.992,0,0,1,30.992,0Z" transform="translate(22.5 17.5)" fill="none"/></g><circle cx="33.287" cy="33.287" r="33.287" transform="translate(-11122 -16394.984)" fill="none"/><g transform="translate(2081.165 -1128.82)" clip-path="url(#c)"><g transform="translate(-13188.893 -15253.368)"><g transform="translate(0.031 0.031)"><circle cx="20.172" cy="20.172" r="20.172" transform="translate(0 0)" fill="#fefefe"/></g><g transform="translate(0 0)"><path d="M141.967,159.153a1.284,1.284,0,0,0,1.12-.669l2.971-5.646h-4.588a1.265,1.265,0,0,1-1.26-1.26v-2.535a1.264,1.264,0,0,1,1.26-1.26h7.263l5.646-10.7a1.253,1.253,0,0,1,1.12-.669H165a20.222,20.222,0,0,0-32.864,22.754h9.829Z" transform="translate(-130.1 -130.1)" fill="#9b1c2e"/><path d="M188.634,203.016a1.283,1.283,0,0,0-1.12.669l-2.971,5.646h4.588a1.264,1.264,0,0,1,1.26,1.26v2.535a1.264,1.264,0,0,1-1.26,1.26h-7.263l-5.646,10.7a1.253,1.253,0,0,1-1.12.669h-9.5A20.222,20.222,0,0,0,198.464,203h-9.83Z" transform="translate(-160.079 -191.662)" fill="#9b1c2e"/></g></g></g></g></svg>