<svg xmlns="http://www.w3.org/2000/svg" xmlns:xlink="http://www.w3.org/1999/xlink" width="211" height="151" viewBox="0 0 211 151"><defs><filter id="a" x="0" y="0" width="211" height="151" filterUnits="userSpaceOnUse"><feOffset dy="3" input="SourceAlpha"/><feGaussianBlur stdDeviation="5" result="b"/><feFlood flood-color="#252c61" flood-opacity="0.09"/><feComposite operator="in" in2="b"/><feComposite in="SourceGraphic"/></filter></defs><g transform="translate(12727 10856.39)"><g transform="translate(-12682.842 -10819.544)"><g transform="translate(42.841)"><path d="M25.611,77.443l-6,3.472L13.6,77.451l-.005-6.936,6-3.472,6.009,3.463Z" transform="translate(-13.593 -45.389)" fill="#3f3f3f" stroke="#3f3f3f" stroke-linecap="round" stroke-linejoin="round" stroke-width="0"/><path d="M74.418,65.794,63.889,71.883,53.352,65.81l-.009-12.162,10.528-6.089,10.537,6.073Z" transform="translate(-37.358 -33.739)" fill="#aee9db" stroke="#3f3f3f" stroke-linecap="round" stroke-linejoin="round" stroke-width="0"/><path d="M38.624,103.955l3.947-2.28,8.469,4.883L47.1,108.841Z" transform="translate(-28.558 -66.094)" fill="#36c9a5"/><path d="M13.607,33.666l4.873-2.8a2.2,2.2,0,0,1,2.166-.066c1.168.655,4.907,2.845,4.907,2.845l0-1.311A2.361,2.361,0,0,1,26.726,30.1c1.361-.746,12.15-7.026,12.15-7.026A2.213,2.213,0,0,1,41.247,23c1.273.784,9.4,5.424,9.4,5.424l-.014-4.574L32.117,13.194l-18.5,10.7Z" transform="translate(-13.601 -13.194)" fill="#36c9a5" stroke="#000" stroke-width="0"/></g><g transform="translate(19.841 47.932)"><g transform="translate(0 5.186)"><path d="M278.127,49v4.712h8.613v3.31h-8.613v6.5h-4.306V45.69h14.062V49Z" transform="translate(-273.821 -45.69)" fill="#75768c"/><path d="M393.41,45.69h4.146V63.521H393.41Z" transform="translate(-377.461 -45.69)" fill="#75768c"/><path d="M464.636,76.54v14.3H460.7v-1.7a5.786,5.786,0,0,1-4.439,1.914c-3.589,0-6.114-2.02-6.114-6.433V76.54H454.3v7.47c0,2.393,1.062,3.456,2.9,3.456,1.914,0,3.3-1.223,3.3-3.856V76.54Z" transform="translate(-426.902 -73.013)" fill="#75768c"/><path d="M579.49,90.843l-3.137-4.388-3.239,4.388H568.59l5.5-7.206-5.315-7.1h4.651l3.036,4.174,3.11-4.174h4.413l-5.317,6.991,5.524,7.312Z" transform="translate(-529.791 -73.013)" fill="#75768c"/></g><text transform="translate(54.2 23)" fill="#75768c" font-size="22" font-family="Montserrat-Light, Montserrat" font-weight="300" letter-spacing="-0.06em"><tspan x="0" y="0">OS</tspan></text></g></g><g transform="matrix(1, 0, 0, 1, -12727, -10856.39)" filter="url(#a)"><rect width="181" height="121" rx="3" transform="translate(15 12)" fill="none"/></g></g></svg>