<svg xmlns="http://www.w3.org/2000/svg" xmlns:xlink="http://www.w3.org/1999/xlink" width="74" height="74" viewBox="0 0 74 74"><defs><clipPath id="a"><rect width="74" height="74" transform="translate(-5250 -3395)" fill="#fff"/></clipPath><clipPath id="b"><path d="M0,0H72.146V29.2H0Z" transform="translate(0)" fill="#fff" stroke="#313457" stroke-width="3"/></clipPath><clipPath id="c"><path d="M0,0H86.165V23.582H0Z" fill="#fff" stroke="#313457" stroke-width="3"/></clipPath></defs><g transform="translate(5250 3395)" clip-path="url(#a)"><g transform="translate(-6031.792 -9376.94)"><g transform="translate(854.948 6046.783) rotate(180)" clip-path="url(#b)"><g transform="translate(17.609 4.56)" fill="none"><path d="M17.78,0C27.6,0,35.56,8.267,35.56,18.464S27.6,36.928,17.78,36.928,0,28.661,0,18.464,7.96,0,17.78,0Z" stroke="none"/><path d="M 17.78001594543457 2.999996185302734 C 13.85360527038574 2.999996185302734 10.15609550476074 4.594184875488281 7.368616104125977 7.488906860351562 C 4.55146598815918 10.41443634033203 2.999996185302734 14.31214714050293 2.999996185302734 18.46404647827148 C 2.999996185302734 22.61594772338867 4.55146598815918 26.51365661621094 7.368616104125977 29.43918609619141 C 10.15609550476074 32.33390808105469 13.85360527038574 33.92809677124023 17.78001594543457 33.92809677124023 C 21.70642471313477 33.92809677124023 25.4039363861084 32.33390808105469 28.19141578674316 29.43918609619141 C 31.00856590270996 26.51365661621094 32.56003570556641 22.61594772338867 32.56003570556641 18.46404647827148 C 32.56003570556641 14.31214714050293 31.00856590270996 10.41443634033203 28.19141578674316 7.488906860351562 C 25.4039363861084 4.594184875488281 21.70642471313477 2.999996185302734 17.78001594543457 2.999996185302734 M 17.78001594543457 -3.814697265625e-06 C 27.59964561462402 -3.814697265625e-06 35.56003570556641 8.266635894775391 35.56003570556641 18.46404647827148 C 35.56003570556641 28.66145706176758 27.59964561462402 36.92809677124023 17.78001594543457 36.92809677124023 C 7.960386276245117 36.92809677124023 -3.814697265625e-06 28.66145706176758 -3.814697265625e-06 18.46404647827148 C -3.814697265625e-06 8.266635894775391 7.960386276245117 -3.814697265625e-06 17.78001594543457 -3.814697265625e-06 Z" stroke="none" fill="#313457"/></g><path d="M0,0H86.165" transform="translate(-7.694 27.887)" fill="none" stroke="#313457" stroke-width="3"/></g><g transform="translate(861.957 6014.522) rotate(180)"><g transform="translate(0)" clip-path="url(#c)"><g transform="translate(24.619 -19.364)" fill="none"><path d="M17.78,0A17.78,17.78,0,1,1,0,17.78,17.78,17.78,0,0,1,17.78,0Z" stroke="none"/><path d="M 17.78001594543457 3.000003814697266 C 13.8321361541748 3.000003814697266 10.12055587768555 4.537403106689453 7.328975677490234 7.329013824462891 C 4.537385940551758 10.1206226348877 2.999996185302734 13.83225250244141 2.999996185302734 17.78019332885742 C 2.999996185302734 21.72813415527344 4.537385940551758 25.43976211547852 7.328975677490234 28.23137283325195 C 10.12055587768555 31.02298355102539 13.8321361541748 32.56038284301758 17.78001594543457 32.56038284301758 C 21.72789573669434 32.56038284301758 25.43947601318359 31.02298355102539 28.23105621337891 28.23137283325195 C 31.02264595031738 25.43976211547852 32.56003570556641 21.72813415527344 32.56003570556641 17.78019332885742 C 32.56003570556641 13.83225250244141 31.02264595031738 10.1206226348877 28.23105621337891 7.329013824462891 C 25.43947601318359 4.537403106689453 21.72789573669434 3.000003814697266 17.78001594543457 3.000003814697266 M 17.78001594543457 3.814697265625e-06 C 27.59964561462402 3.814697265625e-06 35.56003570556641 7.96046257019043 35.56003570556641 17.78019332885742 C 35.56003570556641 27.59992218017578 27.59964561462402 35.56038284301758 17.78001594543457 35.56038284301758 C 7.960386276245117 35.56038284301758 -3.814697265625e-06 27.59992218017578 -3.814697265625e-06 17.78019332885742 C -3.814697265625e-06 7.96046257019043 7.960386276245117 3.814697265625e-06 17.78001594543457 3.814697265625e-06 Z" stroke="none" fill="#313457"/></g><line x2="86.165" transform="translate(-0.453 -1.361)" fill="none" stroke="#313457" stroke-width="2"/></g></g></g></g></svg>