<svg xmlns="http://www.w3.org/2000/svg" width="74" height="74" viewBox="0 0 74 74"><g transform="translate(4941 3491)"><g transform="translate(-4923 -3432) rotate(-90)" fill="none"><path d="M31.847,0a2,2,0,0,1,1.731,1L43.42,18a2,2,0,0,1,0,2L33.578,37a2,2,0,0,1-1.731,1H12.153a2,2,0,0,1-1.731-1L.58,20a2,2,0,0,1,0-2L10.422,1a2,2,0,0,1,1.731-1Z" stroke="none"/><path d="M 12.72966766357422 3 L 3.466503143310547 18.99999809265137 L 12.72965431213379 35 L 31.27034187316895 35 L 40.53349685668945 19.00000190734863 L 31.27034187316895 3 L 12.72966766357422 3 M 12.15311050415039 0 L 31.84688949584961 0 C 32.56056976318359 0 33.22016906738281 0.3802909851074219 33.57775115966797 0.9979286193847656 L 43.41984939575195 17.9979305267334 C 43.77872085571289 18.6177806854248 43.77872085571289 19.3822193145752 43.41984939575195 20.0020694732666 L 33.57775115966797 37.00207138061523 C 33.22016906738281 37.61970138549805 32.56056976318359 38 31.84688949584961 38 L 12.15309906005859 38 C 11.43943023681641 38 10.77983093261719 37.61970138549805 10.42224884033203 37.00207138061523 L 0.5801506042480469 20.0020694732666 C 0.2212791442871094 19.3822193145752 0.2212791442871094 18.6177806854248 0.5801506042480469 17.9979305267334 L 10.42226028442383 0.9979286193847656 C 10.77983093261719 0.3802909851074219 11.43943023681641 0 12.15311050415039 0 Z" stroke="none" fill="#313457"/></g><path d="M0,0H74V74H0Z" transform="translate(-4941 -3491)" fill="rgba(0,0,0,0)" fill-rule="evenodd"/></g></svg>