<svg xmlns="http://www.w3.org/2000/svg" xmlns:xlink="http://www.w3.org/1999/xlink" width="1920" height="928" viewBox="0 0 1920 928"><defs><linearGradient id="a" x1="0.5" x2="0.5" y2="1" gradientUnits="objectBoundingBox"><stop offset="0" stop-color="#fff"/><stop offset="1" stop-color="#f5f5fa"/></linearGradient><clipPath id="b"><rect width="1920" height="928" transform="translate(0 5445)" fill="url(#a)"/></clipPath><filter id="c" x="0" y="118.879" width="690.242" height="690.242" filterUnits="userSpaceOnUse"><feOffset dy="11.015" input="SourceAlpha"/><feGaussianBlur stdDeviation="11.015" result="d"/><feFlood flood-color="#5166eb" flood-opacity="0.149"/><feComposite operator="in" in2="d"/><feComposite in="SourceGraphic"/></filter></defs><g transform="translate(0 -5445)" clip-path="url(#b)"><g transform="translate(-3932.178 -14868.023)"><g transform="translate(4760.945 20586.508)"><path d="M1091.713,234.179v94.515h172.751v66.4H1091.713v130.3H1005.33V167.751h282.048v66.428Z" transform="translate(-1005.33 -167.751)" fill="#2b61d1"/><path d="M1444.405,167.751h83.16V525.392h-83.16Z" transform="translate(-1124.5 -167.751)" fill="#2b61d1"/><path d="M1943.325,281.017V567.911H1864.41V533.766c-21.867,25.062-53.846,38.389-89.041,38.389-71.991,0-122.628-40.519-122.628-129.028V281.017h83.189v149.83c0,47.994,21.295,69.329,58.1,69.329,38.389,0,66.109-24.529,66.109-77.336V281.017Z" transform="translate(-1186.438 -210.263)" fill="#2b61d1"/><path d="M2306.206,567.911l-62.918-88.006-64.96,88.006h-90.748l110.351-144.54-106.6-142.355h93.3l60.9,83.71,62.379-83.71h88.52L2289.768,421.242l110.8,146.665Z" transform="translate(-1309.334 -210.263)" fill="#2b61d1"/></g><g transform="matrix(1, 0, 0, 1, 3932.18, 20313.02)" filter="url(#c)"><circle cx="312.078" cy="312.078" r="312.078" transform="translate(33.04 140.91)" fill="#fff"/></g><g transform="translate(4000.137 20495.654)"><path d="M277.279,2.713A273.894,273.894,0,0,1,532,384.549,277.286,277.286,0,0,1,274.261,552.634,273.894,273.894,0,0,1,25.135,170.471,277.294,277.294,0,0,1,277.279,2.713Z" fill="#2b61d1"/><g transform="translate(124.993 101.502)"><path d="M99.131,39.77,67.508,57.914.261,18.258,30.965.587l.767-.452L32.9.822Z" transform="translate(83.589 295.358)" fill="#fff"/><path d="M304.059,88.145l-.1,36.77L237.2,86.523,219.167,76.147l-18.1,10.5-84.617,49.015L98.459,146.1l-.136,21.53-32.184-18.75L48.317,138.5,30.385,148.909,0,166.528.639,89.082,152,.947Z" transform="translate(1.013 -0.004)" fill="#fff"/><path d="M170.46,49.165l-.272,98.539L84.768,196.682l-.114-.07L.283,147.157.844,49.2,85.6.173Z" transform="translate(134.399 117.701)" fill="#fff"/><path d="M97.13,28.12l-.367,56.288L48.21,112.414.228,84.1.687,28.006,49.029,0Z" transform="translate(0 180.076)" fill="#fff"/></g></g></g></g></svg>