<svg xmlns="http://www.w3.org/2000/svg" width="81.05" height="78.61" viewBox="0 0 81.05 78.61"><g transform="translate(30.776 0)"><path d="M114.734,55.864l9.753-5.646,9.719,5.646v11.3l-9.719,5.646-9.753-5.646v-11.3Z" transform="translate(-114.734 -50.218)" fill="#232220" fill-rule="evenodd"/></g><path d="M133.931,102.688V84.352" transform="translate(-93.39 -66.989)" fill="#36c9a5" stroke="#36c9a5" stroke-linecap="round" stroke-width="5" fill-rule="evenodd"/><g transform="translate(24.485 25.606)"><path d="M102.367,109.816l15.984-9.258,15.931,9.258v18.515l-15.931,9.258-15.984-9.258V109.816Z" transform="translate(-102.367 -100.558)" fill="#232220" fill-rule="evenodd"/></g><path d="M82.31,161.753,101.3,148.88" transform="translate(-68.027 -98.695)" fill="#36c9a5" stroke="#36c9a5" stroke-linecap="round" stroke-width="5" fill-rule="evenodd"/><path d="M166.883,162.02l-18.769-13.187" transform="translate(-100.359 -98.672)" fill="#36c9a5" stroke="#36c9a5" stroke-linecap="round" stroke-width="5" fill-rule="evenodd"/><g transform="translate(0 50.125)"><path d="M54.23,155.883l12.3-7.121,12.255,7.121v14.242l-12.255,7.121-12.3-7.121Z" transform="translate(-54.23 -148.762)" fill="#232220" fill-rule="evenodd"/></g><g transform="translate(56.5 50.125)"><path d="M165.307,155.883l12.3-7.121,12.254,7.121v14.242L177.6,177.247l-12.3-7.121Z" transform="translate(-165.307 -148.762)" fill="#232220" fill-rule="evenodd"/></g><path d="M90.925,182.058h43.657" transform="translate(-72.26 -114.996)" fill="#36c9a5" stroke="#36c9a5" stroke-linecap="round" stroke-width="5" fill-rule="evenodd"/></svg>