<svg xmlns="http://www.w3.org/2000/svg" width="72" height="72" viewBox="0 0 72 72"><g transform="translate(0.477 71.523) rotate(-90)"><path d="M0,0H71.047V71.047H0Z" fill="none" fill-rule="evenodd"/><circle cx="36" cy="36" r="36" transform="translate(-0.477 -0.477)" fill="none"/><path d="M31.067,14.439a5.916,5.916,0,1,1,0,2.96H22v-2.96Zm0,29.6a5.926,5.926,0,1,1,0,2.96H22v-2.96Zm8.3-26.643a2.96,2.96,0,1,0-4.044,1.084A2.96,2.96,0,0,0,39.365,17.4ZM36.8,48.483a2.96,2.96,0,1,0-2.96-2.96A2.96,2.96,0,0,0,36.8,48.483Z" transform="translate(10.563 4.802)" fill="#313457"/><path d="M23.655,24.442h9.067V27.4H23.655a5.926,5.926,0,1,1,0-2.96Zm-5.734,4.44a2.96,2.96,0,1,0-2.96-2.96A2.96,2.96,0,0,0,17.921,28.883Z" transform="translate(5.762 9.601)" fill="#313457"/><path d="M12,51.444V39.6H23.841V51.444Zm2.96-2.96h5.921V42.563H14.96ZM35.682,36.643V24.8H47.523V36.643Zm2.96-2.96h5.921V27.762H38.643ZM12,21.841V10H23.841V21.841Zm2.96-2.96h5.921V12.96H14.96Z" transform="translate(5.762 4.801)" fill="#313457"/></g></svg>