<svg xmlns="http://www.w3.org/2000/svg" width="74" height="74" viewBox="0 0 74 74"><g transform="translate(5383 3611)"><path d="M0,0H74V74H0Z" transform="translate(-5383 -3611)" fill="rgba(0,0,0,0)" fill-rule="evenodd"/><g transform="translate(-4382.227 18146.105) rotate(120)"><g transform="translate(-18314.291 11699.8) rotate(120)" fill="#fff" stroke="#313457" stroke-width="3"><circle cx="2.805" cy="2.805" r="2.805" stroke="none"/><circle cx="2.805" cy="2.805" r="1.305" fill="none"/></g><g transform="translate(-18335.9 11699.8) rotate(120)" fill="#fff" stroke="#313457" stroke-width="3"><circle cx="2.805" cy="2.805" r="2.805" stroke="none"/><circle cx="2.805" cy="2.805" r="1.305" fill="none"/></g><g transform="translate(-18335.9 11687.457) rotate(120)" fill="#fff" stroke="#313457" stroke-width="3"><circle cx="2.805" cy="2.805" r="2.805" stroke="none"/><circle cx="2.805" cy="2.805" r="1.305" fill="none"/></g><g transform="translate(-18324.969 11705.924) rotate(120)" fill="#fff" stroke="#313457" stroke-width="3"><circle cx="2.805" cy="2.805" r="2.805" stroke="none"/><circle cx="2.805" cy="2.805" r="1.305" fill="none"/></g><g transform="translate(-18324.969 11668.857) rotate(120)" fill="#fff" stroke="#313457" stroke-width="3"><circle cx="2.805" cy="2.805" r="2.805" stroke="none"/><circle cx="2.805" cy="2.805" r="1.305" fill="none"/></g><g transform="translate(-18314.301 11687.457) rotate(120)" fill="#fff" stroke="#313457" stroke-width="3"><circle cx="2.805" cy="2.805" r="2.805" stroke="none"/><circle cx="2.805" cy="2.805" r="1.305" fill="none"/></g><g transform="translate(-18303.652 11705.924) rotate(120)" fill="#fff" stroke="#313457" stroke-width="3"><circle cx="2.805" cy="2.805" r="2.805" stroke="none"/><circle cx="2.805" cy="2.805" r="1.305" fill="none"/></g><g transform="translate(-18324.977 11718.354) rotate(120)" fill="#fff" stroke="#313457" stroke-width="3"><circle cx="2.805" cy="2.805" r="2.805" stroke="none"/><circle cx="2.805" cy="2.805" r="1.305" fill="none"/></g><g transform="translate(-18324.977 11681.288) rotate(120)" fill="#fff" stroke="#313457" stroke-width="3"><circle cx="2.805" cy="2.805" r="2.805" stroke="none"/><circle cx="2.805" cy="2.805" r="1.305" fill="none"/></g><g transform="translate(-18345.725 11681.288) rotate(120)" fill="#fff" stroke="#313457" stroke-width="3"><circle cx="2.805" cy="2.805" r="2.805" stroke="none"/><circle cx="2.805" cy="2.805" r="1.305" fill="none"/></g><line y1="3.927" x2="6.731" transform="translate(-18314.744 11692.829) rotate(120)" fill="none" stroke="#313457" stroke-width="3"/><line x2="7.818" y2="4.901" transform="translate(-18316.67 11701.349)" fill="none" stroke="#313457" stroke-width="3"/><line y1="4.268" x2="7.022" transform="translate(-18316.701 11683.456)" fill="none" stroke="#313457" stroke-width="3"/><line x1="7.416" y1="4.675" transform="translate(-18327.121 11683.415)" fill="none" stroke="#313457" stroke-width="3"/><line x1="7.045" y1="4.041" transform="translate(-18338.025 11701.763)" fill="none" stroke="#313457" stroke-width="3"/><line x1="6.731" y2="3.927" transform="translate(-18336.348 11692.663) rotate(120)" fill="none" stroke="#313457" stroke-width="3"/><line y1="8.717" transform="translate(-18330.246 11683.241) rotate(60)" fill="none" stroke="#313457" stroke-width="3"/><line x1="6.074" y1="3.814" transform="translate(-18347.758 11683.502)" fill="none" stroke="#313457" stroke-width="3"/><line y2="8.414" transform="translate(-18319.82 11701.902) rotate(60)" fill="none" stroke="#313457" stroke-width="3"/><line y2="8.414" transform="translate(-18341.203 11701.89) rotate(60)" fill="none" stroke="#313457" stroke-width="3"/><line y2="8.414" transform="translate(-18328.785 11709.138)" fill="none" stroke="#313457" stroke-width="3"/><line y2="8.414" transform="translate(-18328.785 11672.069)" fill="none" stroke="#313457" stroke-width="3"/></g></g></svg>