<svg id="flux-white" xmlns="http://www.w3.org/2000/svg" width="33.481" height="38.658" viewBox="0 0 33.481 38.658">
  <path id="Path_73" data-name="Path 73" d="M94.922,170.87l-3.46,2-7.433-4.29,3.375-1.949.084-.05.129.074Z" transform="translate(-74.723 -134.211)" fill="#fff"/>
  <path id="Path_74" data-name="Path 74" d="M79.98,45.725v4.023l-7.316-4.223L70.68,44.378,68.7,45.524l-9.3,5.369-1.984,1.146v2.368l-3.579-2.066L51.849,51.2l-1.984,1.146L46.5,54.283V45.725L63.24,36.06Z" transform="translate(-46.5 -36.06)" fill="#fff"/>
  <path id="Path_75" data-name="Path 75" d="M125.1,93.442V104.18l-9.3,5.369-.012-.007L106.5,104.18V93.442l9.3-5.372Z" transform="translate(-91.62 -75.171)" fill="#fff"/>
  <path id="Path_76" data-name="Path 76" d="M57.2,118.658v6.175l-5.349,3.09-5.349-3.09v-6.175l5.349-3.088Z" transform="translate(-46.5 -95.851)" fill="#fff"/>
</svg>
