<svg xmlns="http://www.w3.org/2000/svg" width="72" height="72" viewBox="0 0 72 72"><g transform="translate(0.095 0.095)"><path d="M0,0H71.951V71.951H0Z" transform="translate(-0.07 -0.07)" fill="none" fill-rule="evenodd"/><circle cx="36" cy="36" r="36" transform="translate(-0.095 -0.095)" fill="none"/><path d="M31.183,14.5a5.991,5.991,0,1,1,0,3H22v-3Zm0,29.98a6,6,0,1,1,0,3H22v-3Zm8.4-26.982a3,3,0,1,0-4.1,1.1,3,3,0,0,0,4.1-1.1Zm-2.6,31.479a3,3,0,1,0-3-3A3,3,0,0,0,36.99,48.973Z" transform="translate(10.907 4.921)" fill="#313457"/><path d="M23.8,24.5h9.183v3H23.8a6,6,0,1,1,0-3ZM18,29a3,3,0,1,0-3-3A3,3,0,0,0,18,29Z" transform="translate(5.917 9.907)" fill="#313457"/><path d="M12,51.972V39.98H23.992V51.972Zm3-3h6v-6H15ZM35.984,36.982V24.99H47.976V36.982Zm3-3h6v-6h-6ZM12,21.992V10H23.992V21.992Zm3-3h6V13H15Z" transform="translate(5.917 4.92)" fill="#313457"/></g></svg>