<svg xmlns="http://www.w3.org/2000/svg" width="60" height="74.432" viewBox="0 0 60 74.432"><g transform="translate(13990 12111.432)"><text transform="translate(-13990 -12041)" fill="#36395a" font-size="16" font-family="Montserrat-Bold, Montserrat" font-weight="700" opacity="0.64"><tspan x="0" y="0">FluxOS</tspan></text><g transform="translate(-13979 -12111.432)"><path d="M25.586,77.421l-5.991,3.465-6-3.456-.005-6.921,5.991-3.465,6,3.456Z" transform="translate(-13.593 -45.434)" fill="#3f3f3f" stroke="#3f3f3f" stroke-linecap="round" stroke-linejoin="round" stroke-width="0"/><path d="M74.373,65.756,63.867,71.832,53.352,65.771l-.009-12.137,10.506-6.076,10.515,6.061Z" transform="translate(-37.392 -33.768)" fill="#aee9db" stroke="#3f3f3f" stroke-linecap="round" stroke-linejoin="round" stroke-width="0"/><path d="M38.624,103.951l3.939-2.275,8.451,4.873-3.934,2.278Z" transform="translate(-28.579 -66.169)" fill="#36c9a5"/><path d="M13.607,33.623l4.863-2.8a2.193,2.193,0,0,1,2.161-.066c1.166.654,4.9,2.839,4.9,2.839l0-1.309A2.356,2.356,0,0,1,26.7,30.064c1.358-.744,12.124-7.011,12.124-7.011a2.208,2.208,0,0,1,2.365-.071c1.27.782,9.38,5.413,9.38,5.413l-.014-4.565L32.079,13.194,13.621,23.868Z" transform="translate(-13.601 -13.194)" fill="#36c9a5" stroke="#000" stroke-width="0"/></g></g></svg>