<svg xmlns="http://www.w3.org/2000/svg" width="1200" height="500" viewBox="0 0 1200 500">
  <g id="light-linesssssssssss2" transform="translate(10960 14765)">
    <path id="Path_475616" data-name="Path 475616" d="M586,242h65.822L752.878,343.124h64.658" transform="translate(-10828.625 -14702.66)" fill="none" stroke="#aee9db" stroke-width="1.012" fill-rule="evenodd"/>
    <path id="Path_475627" data-name="Path 475627" d="M586,263h56.529L747.457,368H862.45M586,327.279h46.462l20.521,20.535" transform="translate(-10828.625 -14699.556)" fill="none" stroke="#aee9db" stroke-width="1.012" fill-rule="evenodd"/>
    <path id="Path_475638" data-name="Path 475638" d="M813.139,330.365a2.324,2.324,0,1,1-2.324-2.323,2.324,2.324,0,0,1,2.324,2.323ZM856.956,357.867ZM648.048,339.5Z" transform="translate(-10819.451 -14689.939)" fill="none" stroke="#aee9db" stroke-width="1.012" fill-rule="evenodd"/>
    <path id="Path_475619" data-name="Path 475619" d="M354.088,291.682l-88.331,88.393H60.943L4,437.054M673.193,147.362h86.73L838.23,69H875.3" transform="translate(-10914.67 -14728.237)" fill="none" stroke="#aee9db" stroke-width="1.012" fill-rule="evenodd"/>
    <path id="Path_475615" data-name="Path 475615" d="M767.647,73.907a2.324,2.324,0,1,1-2.323-2.324A2.324,2.324,0,0,1,767.647,73.907Z" transform="translate(-10802.457 -14733.115)" fill="none" stroke="#aee9db" stroke-width="1.012" fill-rule="evenodd"/>
    <path id="Path_475623" data-name="Path 475623" d="M785,235H917.418" transform="translate(-10799.203 -14703.695)" fill="#fff" fill-rule="evenodd"/>
    <path id="Path_475624" data-name="Path 475624" d="M794.758,248.01H927.175m-137.009.029a2.324,2.324,0,1,1,2.324,2.324,2.324,2.324,0,0,1-2.324-2.324Zm136.593,0a2.324,2.324,0,1,1,2.324,2.324A2.324,2.324,0,0,1,926.76,248.039ZM820.01,149.324a2.324,2.324,0,1,1,2.323,2.324,2.325,2.325,0,0,1-2.323-2.324ZM719,200.977Z" transform="translate(-10808.961 -14716.705)" fill="none" stroke="#aee9db" stroke-width="1.012" fill-rule="evenodd"/>
    <path id="Path_475629" data-name="Path 475629" d="M412.822,200.025H347L245.944,98.9H181.286" transform="translate(-10888.459 -14723.816)" fill="none" stroke="#aee9db" stroke-width="1.012" fill-rule="evenodd"/>
    <path id="Path_475631" data-name="Path 475631" d="M391.628,112.645H345.165L324.644,92.11" transform="translate(-10867.264 -14724.82)" fill="none" stroke="#aee9db" stroke-width="1.012" fill-rule="evenodd"/>
    <path id="Path_475634" data-name="Path 475634" d="M308.952,261.275a2.324,2.324,0,1,1,2.323,2.324A2.326,2.326,0,0,1,308.952,261.275Z" transform="translate(-10869.584 -14700.154)" fill="none" stroke="#aee9db" stroke-width="1.012" fill-rule="evenodd"/>
    <path id="Path_475645" data-name="Path 475645" d="M179.952,99.274a2.324,2.324,0,1,1,2.324,2.323,2.324,2.324,0,0,1-2.324-2.323" transform="translate(-10888.656 -14724.105)" fill="none" fill-rule="evenodd"/>
    <path id="Path_475635" data-name="Path 475635" d="M408.032,291.731H321.3L243,370.093H205.92" transform="translate(-10884.111 -14695.308)" fill="none" stroke="#aee9db" stroke-width="1.012" fill-rule="evenodd"/>
    <path id="Path_475636" data-name="Path 475636" d="M312.8,204.824H250.851l-29.669-29.69" transform="translate(-10882.561 -14712.546)" fill="none" stroke="#aee9db" stroke-width="1.012" fill-rule="evenodd"/>
    <path id="Path_475646" data-name="Path 475646" d="M201.056,194H68.638" transform="translate(-10905.113 -14709.757)" fill="#fff" fill-rule="evenodd"/>
    <path id="Path_475637" data-name="Path 475637" d="M204.853,194.3H72.436m137.009-.029a2.324,2.324,0,1,1-2.324-2.324A2.324,2.324,0,0,1,209.445,194.274Zm-136.593,0a2.324,2.324,0,1,1-2.324-2.324A2.324,2.324,0,0,1,72.851,194.274Zm270.891,8.035a2.324,2.324,0,1,1-2.323-2.324,2.324,2.324,0,0,1,2.323,2.324Z" transform="translate(-10908.91 -14710.06)" fill="none" stroke="#aee9db" stroke-width="1.012" fill-rule="evenodd"/>
    <path id="Path_475644" data-name="Path 475644" d="M242.262,177.379a2.324,2.324,0,1,1-2.324-2.324,2.324,2.324,0,0,1,2.324,2.324Z" transform="translate(-10902.701 -14716.121)" fill="none" stroke="#aee9db" stroke-width="1.012" fill-rule="evenodd"/>
    <g id="Ellipse_1086" data-name="Ellipse 1086" transform="translate(-10915 -14292.875)" fill="none" stroke="#aee9db" stroke-width="1">
      <ellipse cx="2.5" cy="3" rx="2.5" ry="3" stroke="none"/>
      <ellipse cx="2.5" cy="3" rx="2" ry="2.5" fill="none"/>
    </g>
    <rect id="Rectangle_1230" data-name="Rectangle 1230" width="1200" height="500" transform="translate(-10960 -14765)" fill="none" opacity="0.44"/>
  </g>
</svg>
