<svg xmlns="http://www.w3.org/2000/svg" width="45.896" height="50.365" viewBox="0 0 45.896 50.365"><g transform="translate(-11859.661 7941.965)"><g transform="translate(11860.162 -7941.459)"><path d="M98.476,65.583q0-1.854.134-3.7t.424-3.68a38.655,38.655,0,0,1,1.8-7.185,22.314,22.314,0,0,1,3.527-6.517c.212-.235.4-.484.619-.7l.324-.339c.112-.11.229-.212.344-.32.225-.212.477-.407.721-.6.121-.1.257-.182.384-.274a4.38,4.38,0,0,1,.4-.259,7.938,7.938,0,0,1,1.724-.791,6.585,6.585,0,0,1,3.786-.047,8.131,8.131,0,0,1,1.76.755c.142.072.271.165.407.25s.269.17.4.267c.25.2.511.377.744.594l.356.316.335.339c.231.212.424.462.636.7a18.463,18.463,0,0,1,2.142,3.1,26.721,26.721,0,0,1,1.6,3.41,38.573,38.573,0,0,1,1.953,7.236q.312,1.849.481,3.718t.189,3.745q-.025,1.875-.187,3.745t-.481,3.718a38.551,38.551,0,0,1-1.953,7.234,26.739,26.739,0,0,1-1.591,3.408,18.464,18.464,0,0,1-2.142,3.1c-.212.231-.424.477-.636.693l-.337.335c-.117.108-.24.212-.358.316-.231.212-.494.4-.744.594-.125.1-.265.178-.4.267a4.65,4.65,0,0,1-.407.25,8.086,8.086,0,0,1-1.76.755,7.285,7.285,0,0,1-1.909.252,7.16,7.16,0,0,1-1.885-.3,7.986,7.986,0,0,1-1.724-.789,4.548,4.548,0,0,1-.4-.259c-.127-.091-.263-.174-.384-.274-.244-.2-.5-.386-.721-.607-.115-.106-.231-.212-.344-.318l-.324-.339c-.212-.212-.414-.469-.619-.7a22.475,22.475,0,0,1-3.527-6.519,38.674,38.674,0,0,1-1.8-7.183q-.28-1.832-.424-3.682T98.476,65.583Zm.032,0A41.665,41.665,0,0,0,100.966,80.1a25.607,25.607,0,0,0,1.546,3.349,18.026,18.026,0,0,0,2.076,3.028,11,11,0,0,0,2.757,2.36,7.565,7.565,0,0,0,1.65.713,6.82,6.82,0,0,0,1.764.242,6.892,6.892,0,0,0,1.752-.288,7.487,7.487,0,0,0,1.614-.749,10.888,10.888,0,0,0,2.657-2.4,17.664,17.664,0,0,0,1.966-3.041,26.992,26.992,0,0,0,1.448-3.342,37.607,37.607,0,0,0,1.718-7.092c.172-1.207.295-2.42.378-3.637s.1-2.437.093-3.654-.019-2.439-.091-3.656-.212-2.43-.378-3.637a37.608,37.608,0,0,0-1.722-7.092,26.991,26.991,0,0,0-1.448-3.342,17.774,17.774,0,0,0-1.968-3.043,10.837,10.837,0,0,0-2.655-2.4,7.44,7.44,0,0,0-1.614-.749,6.71,6.71,0,0,0-1.752-.288,6.82,6.82,0,0,0-1.764.242,7.423,7.423,0,0,0-1.65.713,11,11,0,0,0-2.757,2.36,17.89,17.89,0,0,0-2.074,3.024,25.333,25.333,0,0,0-1.546,3.349A41.709,41.709,0,0,0,98.508,65.583Z" transform="translate(-88.62 -40.907)" fill="#2b61d1" stroke="#2b61d1" stroke-width="1"/><path d="M68.957,86.924q1.61-.923,3.272-1.737t3.393-1.472a38.408,38.408,0,0,1,7.122-2.034,22.5,22.5,0,0,1,7.408-.212c.305.061.615.1.918.185l.456.112c.148.042.3.093.447.138.3.085.592.212.884.322.148.055.286.131.424.2s.286.131.424.212a7.951,7.951,0,0,1,1.548,1.1,6.594,6.594,0,0,1,1.932,3.255,7.989,7.989,0,0,1,.227,1.909c0,.159,0,.318-.013.477s-.013.32-.034.477c-.042.314-.072.636-.142.942-.032.155-.059.312-.093.467l-.121.46c-.074.308-.187.6-.28.906a18.58,18.58,0,0,1-1.618,3.408,26.97,26.97,0,0,1-2.155,3.079,38.262,38.262,0,0,1-5.289,5.3q-1.444,1.2-2.98,2.278t-3.147,2.036q-1.639.916-3.338,1.711c-1.135.522-2.288,1.005-3.461,1.44A38.384,38.384,0,0,1,67.5,113.8a26.619,26.619,0,0,1-3.745.327,18.368,18.368,0,0,1-3.76-.3c-.308-.07-.619-.119-.925-.212l-.447-.123c-.151-.049-.3-.1-.452-.153-.3-.093-.592-.227-.886-.348-.146-.059-.286-.14-.424-.212a4.007,4.007,0,0,1-.424-.227,7.925,7.925,0,0,1-1.533-1.147,6.6,6.6,0,0,1-1.854-3.3,8,8,0,0,1-.178-1.89,4.382,4.382,0,0,1,.028-.471c.015-.157.019-.314.045-.471.049-.31.085-.621.163-.927.036-.153.066-.305.1-.456l.131-.452c.081-.3.2-.592.3-.886a22.577,22.577,0,0,1,3.883-6.313,38.4,38.4,0,0,1,5.319-5.147q1.444-1.162,2.969-2.208T68.957,86.924Zm.015.025A41.754,41.754,0,0,0,57.63,96.338a25.478,25.478,0,0,0-2.121,3.014,18.105,18.105,0,0,0-1.584,3.311,11.049,11.049,0,0,0-.672,3.561,7.5,7.5,0,0,0,.212,1.784,5.983,5.983,0,0,0,1.8,3.022,7.512,7.512,0,0,0,1.451,1.024,10.88,10.88,0,0,0,3.408,1.1,17.773,17.773,0,0,0,3.618.185,27.4,27.4,0,0,0,3.618-.424,37.6,37.6,0,0,0,7-2.055q1.7-.685,3.338-1.485c1.092-.545,2.159-1.135,3.213-1.748s2.1-1.234,3.12-1.909,2-1.393,2.969-2.146a37.549,37.549,0,0,0,5.281-5.037,26.979,26.979,0,0,0,2.17-2.914,17.866,17.866,0,0,0,1.65-3.226,10.816,10.816,0,0,0,.751-3.5,7.41,7.41,0,0,0-.157-1.773,6.019,6.019,0,0,0-1.718-3.071,7.48,7.48,0,0,0-1.444-1.071,10.93,10.93,0,0,0-3.421-1.207,18.055,18.055,0,0,0-3.66-.284,26.045,26.045,0,0,0-3.673.335,41.6,41.6,0,0,0-13.8,5.122Z" transform="translate(-52.693 -73.014)" fill="#2b61d1" stroke="#2b61d1" stroke-width="1"/><path d="M68.082,107.652q-1.618-.9-3.181-1.909c-1.031-.681-2.04-1.4-3.018-2.15a38.538,38.538,0,0,1-5.419-5.052,22.506,22.506,0,0,1-4-6.248c-.106-.293-.231-.579-.316-.88l-.14-.45c-.04-.151-.074-.3-.112-.456-.085-.3-.125-.615-.182-.923-.028-.155-.034-.314-.053-.471a4.355,4.355,0,0,1-.034-.471,8.01,8.01,0,0,1,.142-1.894,7.3,7.3,0,0,1,.649-1.8,7.378,7.378,0,0,1,1.143-1.542,8.1,8.1,0,0,1,1.512-1.175A4.775,4.775,0,0,1,55.5,82c.142-.072.28-.155.424-.212.293-.125.581-.265.882-.365.148-.053.3-.108.447-.159l.456-.134c.3-.1.613-.153.92-.229a18.521,18.521,0,0,1,3.756-.371,26.687,26.687,0,0,1,3.737.254A38.462,38.462,0,0,1,73.4,82.576c1.179.414,2.333.876,3.487,1.376s2.265,1.06,3.37,1.648q1.629.929,3.181,1.972t3.043,2.22A38.479,38.479,0,0,1,91.873,95a26.614,26.614,0,0,1,2.214,3.039,18.394,18.394,0,0,1,1.675,3.374c.1.3.212.592.3.9l.129.456c.038.155.068.31.1.464.076.308.11.626.159.939.025.157.028.318.042.477a4.5,4.5,0,0,1,.023.477,8.116,8.116,0,0,1-.191,1.909,6.608,6.608,0,0,1-1.873,3.3,7.932,7.932,0,0,1-1.529,1.128,4.133,4.133,0,0,1-.424.223c-.142.068-.278.146-.424.212-.293.117-.579.246-.88.337-.148.049-.3.1-.445.146l-.454.121c-.3.089-.611.136-.914.212a22.588,22.588,0,0,1-7.423-.066,38.459,38.459,0,0,1-7.141-1.9c-1.16-.424-2.3-.9-3.427-1.41S69.164,108.246,68.082,107.652Zm.025-.045A41.713,41.713,0,0,0,82,112.475a25.73,25.73,0,0,0,3.677.265,18.007,18.007,0,0,0,3.652-.352,10.952,10.952,0,0,0,3.393-1.272,7.477,7.477,0,0,0,1.421-1.1,5.98,5.98,0,0,0,1.658-3.1,7.52,7.52,0,0,0,.125-1.773,10.833,10.833,0,0,0-.816-3.484A17.791,17.791,0,0,0,93.4,98.469a27.021,27.021,0,0,0-2.225-2.882A37.409,37.409,0,0,0,85.8,90.65q-1.461-1.1-3-2.091c-1.029-.653-2.085-1.272-3.154-1.849s-2.142-1.162-3.243-1.7-2.22-.99-3.366-1.415A37.562,37.562,0,0,0,66,81.69a27.017,27.017,0,0,0-3.624-.35,17.744,17.744,0,0,0-3.605.254,10.816,10.816,0,0,0-3.393,1.164,7.423,7.423,0,0,0-1.436,1.06A5.976,5.976,0,0,0,52.2,86.871a7.533,7.533,0,0,0-.174,1.788,10.937,10.937,0,0,0,.736,3.529,17.973,17.973,0,0,0,1.646,3.287,25.276,25.276,0,0,0,2.182,2.969A41.714,41.714,0,0,0,68.107,107.607Z" transform="translate(-51.624 -72.292)" fill="#2b61d1" stroke="#2b61d1" stroke-width="1"/><g transform="translate(16.932 18.322)"><path d="M150.494,173.219l-1.138.651-2.446-1.411,1.111-.641.028-.018.043.025Z" transform="translate(-143.833 -161.156)" fill="#2b61d1"/><path d="M145.788,132.81v1.325l-2.408-1.383-.651-.376-.654.376-3.062,1.767-.651.369v.78l-1.179-.679-.651-.379-.654.379-1.108.639V132.81l5.51-3.18Z" transform="translate(-134.757 -129.63)" fill="#2b61d1"/><path d="M160.306,148.217v3.534l-3.059,1.767h0l-3.057-1.767v-3.534l3.062-1.767Z" transform="translate(-149.275 -142.204)" fill="#2b61d1"/><path d="M138.254,156.37v2.019l-1.767,1.01-1.767-1.01V156.37l1.767-1.01Z" transform="translate(-134.72 -148.865)" fill="#2b61d1"/></g></g></g></svg>