<?xml version="1.0" encoding="utf-8"?>
<!-- Generator: Adobe Illustrator 24.1.0, SVG Export Plug-In . SVG Version: 6.00 Build 0)  -->
<svg version="1.1" xmlns="http://www.w3.org/2000/svg" xmlns:xlink="http://www.w3.org/1999/xlink" x="0px" y="0px"
	 viewBox="0 0 43.7 53.2" style="enable-background:new 0 0 43.7 53.2;" xml:space="preserve">
<style type="text/css">
	.st0{opacity:0.3;}
</style>
<g id="Layer_2">
</g>
<g id="Layer_1">
	<path class="st0" d="M34.1,37.3h-4.5l-0.7-2.6c5.5-1.4,6.2-4.8,6.8-10.4c0-0.3,0.1-0.6,0.1-1c1.3-0.2,3.2-1,3.2-4.3
		c0-2.5-1.2-4-3.3-4.4c0-1.3,0-2.9-0.1-4.7c-0.4-6.4-4.2-8.1-9.2-8.5c-0.1,0-0.1,0-0.2,0c-4.5-0.4-13,0-16.7-1.3
		C8.7-0.2,8,0.4,8.4,1.3C8.7,1.9,8.8,2.4,9,3C8.8,2.9,8.6,2.8,8.4,2.8C8,2.7,7.5,3.1,7.7,3.5c0.6,2,0.2,8.6,0,11.1
		c-2.1,0.4-3.2,1.9-3.2,4.3c0,3.3,2,4.1,3.2,4.3c0,0.3,0.1,0.7,0.1,1c0.6,5.6,1.3,9,6.8,10.4l-0.7,2.6H9.4c-5.2,0-9.4,4.2-9.4,9.4
		V51c0,1.2,1,2.2,2.2,2.2h39.3c1.2,0,2.2-1,2.2-2.2v-4.3C43.5,41.5,39.3,37.3,34.1,37.3z M10.2,24.1c-0.1-0.6-0.1-1.1-0.2-1.7
		C9.9,21.6,9.3,21,8.5,21c-1.2-0.1-1.6-0.3-1.6-1.9c0-1.6,0.6-1.9,1.8-1.9c0.4,0,0.5,0.1,0.6,0.4c0.2,0.7,1,1,1.6,0.8
		c0.7-0.2,1-1,0.8-1.6s-0.6-1.1-1-1.4c0.3-2,0.5-3.7,1-5.1c1.7,1.1,4.8,1.8,10,1.8c5.3,0,8.4-0.7,10.1-1.8c0.5,1.4,0.7,3.1,1,5.1
		c-0.5,0.4-0.9,0.9-1.1,1.5c-0.2,0.7,0.1,1.4,0.8,1.6c0.7,0.2,1.4-0.1,1.6-0.8c0.1-0.3,0.2-0.4,0.6-0.4c1.2,0,1.8,0.3,1.8,1.9
		c0,1.6-0.5,1.8-1.7,1.9c-0.8,0.1-1.4,0.7-1.5,1.4c-0.1,0.6-0.1,1.2-0.2,1.7c-0.7,6.5-0.9,8.7-11.5,8.7
		C11.1,32.9,10.9,30.6,10.2,24.1z M27.1,40.1c-3.4,1.8-7.5,1.8-10.9,0c-0.3-0.2-0.5-0.5-0.4-0.9l1.1-4.1c1.4,0.2,2.9,0.2,4.7,0.2
		c1.8,0,3.4-0.1,4.7-0.2l1.1,4.1C27.6,39.6,27.4,39.9,27.1,40.1z"/>
	<circle class="st0" cx="17" cy="18.4" r="2.3"/>
	<circle class="st0" cx="26.4" cy="18.4" r="2.3"/>
	<path class="st0" d="M27.2,24.5c0.1-0.5-0.3-1-0.8-1h-9.5c-0.5,0-0.9,0.5-0.8,1c0.5,2.5,2.8,4.5,5.5,4.5
		C24.4,28.9,26.7,27,27.2,24.5z"/>
</g>
</svg>
