<?xml version="1.0" encoding="utf-8"?>
<!-- Generator: Adobe Illustrator 24.1.0, SVG Export Plug-In . SVG Version: 6.00 Build 0)  -->
<svg version="1.1" xmlns="http://www.w3.org/2000/svg" xmlns:xlink="http://www.w3.org/1999/xlink" x="0px" y="0px"
	 viewBox="0 0 42.9 52.6" style="enable-background:new 0 0 42.9 52.6;" xml:space="preserve">
<style type="text/css">
	.st0{opacity:0.3;}
</style>
<g id="Layer_2">
</g>
<g id="Layer_1">
	<path class="st0" d="M34.5,36.9h-5.2l-0.8-3.3c0.6-0.4,1.2-0.9,1.8-1.4c1.7,0.1,3.4,0.3,4.7,0.5c1.5,0.2,2.8-1,2.8-2.5
		c-0.1-1.9-0.3-4.5-0.5-7.4c1-0.8,1.5-2.1,1.5-3.9c0-2.1-0.5-3.5-1.5-4.4c-0.2-0.2-0.4-0.3-0.7-0.5C35.1,1.4,26.5,0,21.4,0
		c-5,0-13.7,1.4-15.1,14c-0.3,0.2-0.6,0.3-0.8,0.5c-1,0.9-1.5,2.3-1.5,4.4c0,1.8,0.5,3.1,1.5,3.9c-0.2,2.9-0.4,5.5-0.5,7.4
		c-0.1,1.5,1.3,2.7,2.8,2.5c1.3-0.2,3-0.4,4.7-0.5c0.6,0.5,1.1,0.9,1.8,1.4l-0.8,3.3H8.3c-4.6,0-8.3,3.7-8.3,8.3v5.2
		c0,1.2,1,2.2,2.2,2.2h38.5c1.2,0,2.2-1,2.2-2.2v-5.2C42.8,40.6,39.1,36.9,34.5,36.9z M9.7,22.7c-0.1-0.8-0.7-1.4-1.5-1.5
		c-1-0.1-1.6-0.2-1.6-2.3c0-1.7,0.4-2.3,0.6-2.5c0,0,0.1-0.1,0.3-0.2c0.1,0.5,0.5,0.9,1,1c0.7,0.1,1.4-0.3,1.5-1
		c0.5-3,1.1-5.3,2.1-7l0.7,3c0.1,0.5,0.6,0.9,1.1,0.9h15c0.5,0,1-0.4,1.1-0.9l0.7-3c1,1.7,1.5,3.9,2.1,7c0.1,0.6,0.6,1.1,1.3,1.1
		c0.1,0,0.1,0,0.2,0c0.5-0.1,0.9-0.5,1-1c0.1,0.1,0.2,0.1,0.3,0.2c0.2,0.2,0.6,0.8,0.6,2.5c0,2.1-0.7,2.2-1.6,2.3
		c-0.8,0.1-1.4,0.7-1.5,1.5c-0.3,3.3-2.4,6.3-6.1,8.9c-3.3,2.3-7.8,2.3-11.1,0C12.1,28.9,10.1,25.9,9.7,22.7z M26.2,40.4L22.8,43
		c-0.8,0.6-1.9,0.6-2.7,0l-3.4-2.5c-0.7-0.6-1.1-1.5-0.8-2.4l0.8-3.2c1.5,0.6,3.1,1,4.7,1c1.7,0,3.3-0.4,4.8-1l0.8,3.2
		C27.2,38.9,26.9,39.9,26.2,40.4z"/>
	<circle class="st0" cx="16.7" cy="18.4" r="2.3"/>
	<circle class="st0" cx="26.1" cy="18.4" r="2.3"/>
	<path class="st0" d="M26.2,23.7h-9.5c-0.5,0-0.9,0.5-0.8,1c0.5,2.5,2.8,4.5,5.5,4.5s5-1.9,5.5-4.5C27,24.1,26.7,23.7,26.2,23.7z"/>
</g>
</svg>
