<svg xmlns="http://www.w3.org/2000/svg" width="50" height="50" viewBox="0 0 50 50"><g transform="translate(831 4323)"><g transform="translate(0.385 -2.215)"><path d="M3.124,21.056h4.39a4.514,4.514,0,0,1,4.514,4.514v2.257a4.514,4.514,0,0,0,4.514,4.514,4.514,4.514,0,0,1,4.514,4.514V43.5M14.285,5.11V8.642a5.642,5.642,0,0,0,5.642,5.642h1.128A4.514,4.514,0,0,1,25.57,18.8a4.514,4.514,0,1,0,9.028,0,4.514,4.514,0,0,1,4.514-4.514h2.4M30.084,42.47V36.855A4.514,4.514,0,0,1,34.6,32.341h6.915m2.113-9.028A20.313,20.313,0,1,1,23.313,3,20.313,20.313,0,0,1,43.625,23.313Z" transform="translate(-829.385 -4318.785)" fill="none" stroke="#5468ff" stroke-linecap="round" stroke-linejoin="round" stroke-width="2"/></g><rect width="50" height="50" transform="translate(-831 -4323)" fill="none"/></g></svg>