<svg xmlns="http://www.w3.org/2000/svg" width="84" height="84" viewBox="0 0 84 84"><g transform="translate(12870.336 8516)"><circle cx="42" cy="42" r="42" transform="translate(-12870.336 -8516)" fill="none"/><path d="M29.035,20.524l-5.007,2.5m0,0-5.007-2.5m5.007,2.5v6.259M44.056,13.014l-5.007,2.5m5.007-2.5-5.007-2.5m5.007,2.5v6.259M29.035,5.5,24.028,3,19.021,5.5M4,13.014l5.007-2.5M4,13.014l5.007,2.5M4,13.014v6.259m20.028,28.79-5.007-2.5m5.007,2.5,5.007-2.5m-5.007,2.5V41.8M9.007,40.552,4,38.049V31.79m35.049,8.762,5.007-2.5V31.79" transform="translate(-12852.363 -8499.5)" fill="none" stroke="#4c80ee" stroke-linecap="round" stroke-linejoin="round" stroke-width="3"/></g></svg>