<svg xmlns="http://www.w3.org/2000/svg" width="169.832" height="169.826" viewBox="0 0 169.832 169.826"><g transform="translate(-12069 7702)"><g transform="translate(12069 -7702)"><path d="M84.913,169.836a25.516,25.516,0,0,1-18.037-7.43l-6.2-6.2a12.775,12.775,0,0,0-9.035-3.728H42.92A25.6,25.6,0,0,1,17.351,126.91v-8.73a12.812,12.812,0,0,0-3.736-9.044l-6.1-6.089A25.6,25.6,0,0,1,7.424,66.9l6.2-6.207a12.776,12.776,0,0,0,3.728-9.035V42.942A25.6,25.6,0,0,1,42.92,17.365h8.73a12.694,12.694,0,0,0,9.035-3.745l6.106-6.089a25.594,25.594,0,0,1,36.15-.093l6.2,6.2a12.713,12.713,0,0,0,9.027,3.728h8.73a25.6,25.6,0,0,1,25.569,25.578v8.721a12.813,12.813,0,0,0,3.737,9.044l6.1,6.1a25.555,25.555,0,0,1,.17,36.065c-.085.085-.161.178-.246.255l-6.029,6.029a12.776,12.776,0,0,0-3.728,9.035v8.721A25.6,25.6,0,0,1,126.9,152.479h-8.73a12.776,12.776,0,0,0-9.035,3.737l-6.106,6.1a25.466,25.466,0,0,1-18.113,7.524" transform="translate(0 -0.01)" fill="#fff"/></g><text transform="translate(12099 -7595)" fill="#2b61d1" font-size="58" font-family="OpenSans-SemiBold, Open Sans" font-weight="600" letter-spacing="-0.06em"><tspan x="0" y="0">99%</tspan></text></g></svg>