<svg xmlns="http://www.w3.org/2000/svg" width="82.29" height="63.473" viewBox="0 0 82.29 63.473"><g transform="translate(-12626.216 7416)"><g transform="translate(12626.216 -7416)"><path d="M191.344,173.23H124.4a7.673,7.673,0,0,0-7.673,7.671V229.03A7.673,7.673,0,0,0,124.4,236.7h66.945a7.672,7.672,0,0,0,7.671-7.673V180.9A7.671,7.671,0,0,0,191.344,173.23Z" transform="translate(-116.726 -173.23)" fill="#2b61d1"/></g><g transform="translate(12678.623 -7411.69)"><ellipse cx="2.288" cy="2.288" rx="2.288" ry="2.288" fill="#fff"/></g><g transform="translate(12687.909 -7411.69)"><path d="M321.268,187.359a2.288,2.288,0,1,0,2.288,2.288A2.287,2.287,0,0,0,321.268,187.359Z" transform="translate(-318.98 -187.359)" fill="#fff"/></g><g transform="translate(12697.193 -7411.69)"><ellipse cx="2.288" cy="2.288" rx="2.288" ry="2.288" fill="#fff"/></g><g transform="translate(12626.216 -7402.382)"><path d="M116.726,217.877v42.182a7.673,7.673,0,0,0,7.673,7.673h66.945a7.672,7.672,0,0,0,7.671-7.673V217.877Z" transform="translate(-116.726 -217.877)" fill="#e6ecff"/></g><g transform="translate(12693.224 -7386.971)"><path d="M336.4,268.4v25.349l6.379.595V268.4Z" transform="translate(-336.403 -268.4)" fill="#2b61d1"/></g><g transform="translate(12682.918 -7380.429)"><rect width="6.379" height="18.807" fill="#5d91ff"/></g><g transform="translate(12672.615 -7374.481)"><rect width="6.379" height="12.859" fill="#5d91ff"/></g><g transform="translate(12662.312 -7368.534)"><rect width="6.379" height="6.912" fill="#2b61d1"/></g><g transform="translate(12660.211 -7398.615)"><path d="M265.824,230.722a1.533,1.533,0,0,0-1.13-.5l-6.687.014a1.525,1.525,0,0,0,0,3.05h0l2.891-.006-15.34,10.62-2.341-2.235a1.525,1.525,0,0,0-1.9-.164l-12.463,8.338a1.525,1.525,0,1,0,1.7,2.535L242,244.719l2.356,2.249a1.525,1.525,0,0,0,1.921.151L262.8,235.683l-.209,2.223a1.525,1.525,0,0,0,1.376,1.661c.049,0,.1.007.145.007a1.525,1.525,0,0,0,1.517-1.383l.592-6.3A1.522,1.522,0,0,0,265.824,230.722Z" transform="translate(-228.181 -230.225)" fill="#5d91ff"/></g><g transform="translate(12632.494 -7383.516)"><path d="M12.573,0A12.49,12.49,0,1,1,0,12.49,12.532,12.532,0,0,1,12.573,0Z" transform="translate(0)" fill="#2b61d1"/><g transform="translate(5.704 4.567)"><path d="M88.539,168.356l-1.432.827-3.077-1.776,1.4-.807.035-.021.053.031Z" transform="translate(-80.177 -153.181)" fill="#fff"/><path d="M60.359,40.061v1.665l-3.029-1.748L56.51,39.5l-.821.474L51.838,42.2l-.821.474v.98L49.536,42.8l-.821-.474-.821.474-1.393.8V40.061l6.93-4Z" transform="translate(-46.5 -36.06)" fill="#fff"/><path d="M114.2,90.294v4.445l-3.85,2.223-.005,0-3.845-2.22V90.294l3.85-2.224Z" transform="translate(-100.34 -82.73)" fill="#fff"/><path d="M50.929,116.848V119.4l-2.214,1.279L46.5,119.4v-2.556l2.214-1.278Z" transform="translate(-46.5 -107.407)" fill="#fff"/></g></g></g></svg>