<svg xmlns="http://www.w3.org/2000/svg" width="178" height="134.119" viewBox="0 0 178 134.119"><g transform="translate(-11645.572 8235.12)"><path d="M20,0H158a20,20,0,0,1,20,20v6a0,0,0,0,1,0,0H0a0,0,0,0,1,0,0V20A20,20,0,0,1,20,0Z" transform="translate(11645.572 -8235.12)" fill="#fff"/><g transform="translate(11758.806 -8228.563)"><g transform="translate(0 0)"><ellipse cx="4.933" cy="4.933" rx="4.933" ry="4.933" fill="#2b61d1"/></g></g><g transform="translate(11778.827 -8228.563)"><g transform="translate(0 0)"><path d="M328.3,166.084a4.933,4.933,0,1,0,4.932,4.933A4.932,4.932,0,0,0,328.3,166.084Z" transform="translate(-323.365 -166.084)" fill="#2b61d1"/></g></g><g transform="translate(11798.849 -8228.563)"><g transform="translate(0 0)"><ellipse cx="4.933" cy="4.933" rx="4.933" ry="4.933" fill="#2b61d1"/></g></g><g transform="translate(11645.812 -8208.493)"><g transform="translate(0 0)"><path d="M121.111,196.6v90.95a16.543,16.543,0,0,0,16.544,16.542H281.994a16.541,16.541,0,0,0,16.54-16.542V196.6Z" transform="translate(-121.111 -196.602)" fill="#fff"/></g></g><g transform="translate(11681.067 -8193.546)"><g transform="translate(0 0)"><path d="M188.5,219.33l-13.785,6.5v3.885l13.785,6.5v-4.2l-9.1-4.31,9.1-4.2Z" transform="translate(-174.719 -219.33)" fill="#2b61d1"/></g></g><g transform="translate(11697.718 -8196.75)"><g transform="translate(0 0)"><path d="M211.921,214.456l-11.885,26.011h4l11.912-26.011Z" transform="translate(-200.036 -214.456)" fill="#2b61d1"/></g></g><g transform="translate(11716.468 -8193.546)"><g transform="translate(0 0)"><path d="M228.546,219.33v4.17l9.1,4.2-9.1,4.31v4.2l13.785-6.5v-3.885Z" transform="translate(-228.546 -219.33)" fill="#2b61d1"/></g></g><g transform="translate(11676.675 -8160.61)"><g transform="translate(0 0)"><path d="M222.721,269.41H171.329a3.288,3.288,0,0,0,0,6.577h51.392a3.288,3.288,0,0,0,0-6.577Z" transform="translate(-168.041 -269.41)" fill="#4c80ee"/></g></g><g transform="translate(11749.843 -8176.005)"><g transform="translate(0 0)"><path d="M222.721,269.41H171.329a3.288,3.288,0,0,0,0,6.577h51.392a3.288,3.288,0,0,0,0-6.577Z" transform="translate(-168.041 -269.41)" fill="#4c80ee"/></g></g><g transform="translate(11749.843 -8160.327)"><g transform="translate(0 0)"><path d="M209.228,269.41H170.518c-1.368,0-2.477,1.472-2.477,3.288s1.109,3.288,2.477,3.288h38.711c1.368,0,2.477-1.472,2.477-3.288S210.6,269.41,209.228,269.41Z" transform="translate(-168.041 -269.41)" fill="#2b61d1"/></g></g><g transform="translate(11749.843 -8146.768)"><g transform="translate(0 0)"><path d="M209.228,269.41H170.518c-1.368,0-2.477,1.472-2.477,3.288s1.109,3.288,2.477,3.288h38.711c1.368,0,2.477-1.472,2.477-3.288S210.6,269.41,209.228,269.41Z" transform="translate(-168.041 -269.41)" fill="#4c80ee"/></g></g><g transform="translate(11676.675 -8146.905)"><g transform="translate(0 0)"><path d="M222.721,290.248H171.329a3.288,3.288,0,0,0,0,6.577h51.392a3.288,3.288,0,0,0,0-6.577Z" transform="translate(-168.041 -290.248)" fill="#2b61d1"/></g></g><g transform="translate(11676.675 -8133.2)"><g transform="translate(0 0)"><path d="M222.721,311.088H171.329a3.288,3.288,0,0,0,0,6.577h51.392a3.288,3.288,0,0,0,0-6.577Z" transform="translate(-168.041 -311.088)" fill="#4c80ee"/></g></g><rect width="17.175" height="7.231" rx="3.616" transform="translate(11749.843 -8133.759)" fill="#4c80ee"/></g></svg>