<svg xmlns="http://www.w3.org/2000/svg" width="857" height="149" viewBox="0 0 857 149">
  <g id="Group_9584" data-name="Group 9584" transform="translate(19669 12133)">
    <path id="Exclusion_10" data-name="Exclusion 10" d="M135,142H7a7.008,7.008,0,0,1-7-7V7A7.008,7.008,0,0,1,7,0H135a7.008,7.008,0,0,1,7,7V135A7.008,7.008,0,0,1,135,142ZM91,79a9.01,9.01,0,0,0-9,9v17a9.01,9.01,0,0,0,9,9h26a9.01,9.01,0,0,0,9-9V88a9.01,9.01,0,0,0-9-9H101.768L86.045,51.767A8.957,8.957,0,0,0,93,43V26a9.01,9.01,0,0,0-9-9H58a9.01,9.01,0,0,0-9,9V43a9,9,0,0,0,7.907,8.934L41.281,79H26a9.01,9.01,0,0,0-9,9v17a9.01,9.01,0,0,0,9,9H52a9.01,9.01,0,0,0,9-9V88a9.01,9.01,0,0,0-9-9h-.014L67.575,52h7.9L91.062,79Z" transform="translate(-19669 -12126)" fill="#fff"/>
    <text id="diagrams.net" transform="translate(-19503 -12013)" fill="#fff" font-size="122" font-family="Lato-Semibold, Lato" font-weight="600"><tspan x="0" y="0">diagrams.net</tspan></text>
  </g>
</svg>
