<svg xmlns="http://www.w3.org/2000/svg" width="1420" height="407" viewBox="0 0 1420 407">
  <g id="gubes_2" transform="translate(19858 15524)">
    <g id="Polygon_604" data-name="Polygon 604" transform="translate(-19834 -15246) rotate(-90)" fill="none">
      <path d="M33.75,0,45,19.5,33.75,39H11.25L0,19.5,11.25,0Z" stroke="none"/>
      <path d="M 11.82756805419922 1 L 1.154491424560547 19.5 L 11.82756805419922 38 L 33.17243194580078 38 L 43.84550857543945 19.5 L 33.17243194580078 1 L 11.82756805419922 1 M 11.25 0 L 33.75 0 L 45 19.5 L 33.75 39 L 11.25 39 L 0 19.5 L 11.25 0 Z" stroke="none" fill="#c5c9e0"/>
    </g>
    <g id="Polygon_577" data-name="Polygon 577" transform="translate(-19762 -15365) rotate(-90)" fill="none">
      <path d="M33.75,0,45,19.5,33.75,39H11.25L0,19.5,11.25,0Z" stroke="none"/>
      <path d="M 11.82756805419922 1 L 1.154491424560547 19.5 L 11.82756805419922 38 L 33.17243194580078 38 L 43.84550857543945 19.5 L 33.17243194580078 1 L 11.82756805419922 1 M 11.25 0 L 33.75 0 L 45 19.5 L 33.75 39 L 11.25 39 L 0 19.5 L 11.25 0 Z" stroke="none" fill="#c5c9e0"/>
    </g>
    <g id="Polygon_565" data-name="Polygon 565" transform="translate(-19689 -15245) rotate(-90)" fill="none">
      <path d="M33,0,44,19,33,38H11L0,19,11,0Z" stroke="none"/>
      <path d="M 11.57655715942383 1 L 1.155506134033203 19 L 11.57655715942383 37 L 32.42344284057617 37 L 42.8444938659668 19 L 32.42344284057617 1 L 11.57655715942383 1 M 11 0 L 33 0 L 44 19 L 33 38 L 11 38 L 0 19 L 11 0 Z" stroke="none" fill="#c5c9e0"/>
    </g>
    <g id="Polygon_605" data-name="Polygon 605" transform="translate(-19834 -15167) rotate(-90)" fill="none">
      <path d="M33.75,0,45,19.5,33.75,39H11.25L0,19.5,11.25,0Z" stroke="none"/>
      <path d="M 11.82756805419922 1 L 1.154491424560547 19.5 L 11.82756805419922 38 L 33.17243194580078 38 L 43.84550857543945 19.5 L 33.17243194580078 1 L 11.82756805419922 1 M 11.25 0 L 33.75 0 L 45 19.5 L 33.75 39 L 11.25 39 L 0 19.5 L 11.25 0 Z" stroke="none" fill="#c5c9e0"/>
    </g>
    <g id="Polygon_579" data-name="Polygon 579" transform="translate(-19762 -15286) rotate(-90)" fill="none">
      <path d="M33.75,0,45,19.5,33.75,39H11.25L0,19.5,11.25,0Z" stroke="none"/>
      <path d="M 11.82756805419922 1 L 1.154491424560547 19.5 L 11.82756805419922 38 L 33.17243194580078 38 L 43.84550857543945 19.5 L 33.17243194580078 1 L 11.82756805419922 1 M 11.25 0 L 33.75 0 L 45 19.5 L 33.75 39 L 11.25 39 L 0 19.5 L 11.25 0 Z" stroke="none" fill="#c5c9e0"/>
    </g>
    <g id="Polygon_581" data-name="Polygon 581" transform="translate(-19762 -15206) rotate(-90)" fill="none">
      <path d="M33,0,44,19.5,33,39H11L0,19.5,11,0Z" stroke="none"/>
      <path d="M 11.58403396606445 1 L 1.148136138916016 19.5 L 11.58403396606445 38 L 32.41596984863281 38 L 42.85186386108398 19.5 L 32.41596984863281 1 L 11.58403396606445 1 M 11 0 L 33 0 L 44 19.5 L 33 39 L 11 39 L 0 19.5 L 11 0 Z" stroke="none" fill="#c5c9e0"/>
    </g>
    <g id="Polygon_536" data-name="Polygon 536" transform="translate(-19689 -15325) rotate(-90)" fill="none">
      <path d="M33.75,0,45,19,33.75,38H11.25L0,19,11.25,0Z" stroke="none"/>
      <path d="M 11.82004547119141 1 L 1.162151336669922 19 L 11.82004547119141 37 L 33.17995452880859 37 L 43.83784866333008 19 L 33.17995452880859 1 L 11.82004547119141 1 M 11.25 0 L 33.75 0 L 45 19 L 33.75 38 L 11.25 38 L 0 19 L 11.25 0 Z" stroke="none" fill="#c5c9e0"/>
    </g>
    <g id="Polygon_607" data-name="Polygon 607" transform="translate(-19858 -15287) rotate(-90)" fill="none">
      <path d="M33.75,0,45,19,33.75,38H11.25L0,19,11.25,0Z" stroke="none"/>
      <path d="M 11.82004547119141 1 L 1.162151336669922 19 L 11.82004547119141 37 L 33.17995452880859 37 L 43.83784866333008 19 L 33.17995452880859 1 L 11.82004547119141 1 M 11.25 0 L 33.75 0 L 45 19 L 33.75 38 L 11.25 38 L 0 19 L 11.25 0 Z" stroke="none" fill="#c5c9e0"/>
    </g>
    <g id="Polygon_584" data-name="Polygon 584" transform="translate(-19786 -15406) rotate(-90)" fill="none">
      <path d="M33.75,0,45,19.5,33.75,39H11.25L0,19.5,11.25,0Z" stroke="none"/>
      <path d="M 11.82756805419922 1 L 1.154491424560547 19.5 L 11.82756805419922 38 L 33.17243194580078 38 L 43.84550857543945 19.5 L 33.17243194580078 1 L 11.82756805419922 1 M 11.25 0 L 33.75 0 L 45 19.5 L 33.75 39 L 11.25 39 L 0 19.5 L 11.25 0 Z" stroke="none" fill="#c5c9e0"/>
    </g>
    <g id="Polygon_539" data-name="Polygon 539" transform="translate(-19713 -15285) rotate(-90)" fill="none">
      <path d="M33.75,0,45,19,33.75,38H11.25L0,19,11.25,0Z" stroke="none"/>
      <path d="M 11.82004547119141 1 L 1.162151336669922 19 L 11.82004547119141 37 L 33.17995452880859 37 L 43.83784866333008 19 L 33.17995452880859 1 L 11.82004547119141 1 M 11.25 0 L 33.75 0 L 45 19 L 33.75 38 L 11.25 38 L 0 19 L 11.25 0 Z" stroke="none" fill="#c5c9e0"/>
    </g>
    <g id="Polygon_608" data-name="Polygon 608" transform="translate(-19858 -15208) rotate(-90)" fill="none">
      <path d="M33.75,0,45,19,33.75,38H11.25L0,19,11.25,0Z" stroke="none"/>
      <path d="M 11.82004547119141 1 L 1.162151336669922 19 L 11.82004547119141 37 L 33.17995452880859 37 L 43.83784866333008 19 L 33.17995452880859 1 L 11.82004547119141 1 M 11.25 0 L 33.75 0 L 45 19 L 33.75 38 L 11.25 38 L 0 19 L 11.25 0 Z" stroke="none" fill="#c5c9e0"/>
    </g>
    <g id="Polygon_594" data-name="Polygon 594" transform="translate(-19786 -15327) rotate(-90)" fill="none">
      <path d="M33.75,0,45,19.5,33.75,39H11.25L0,19.5,11.25,0Z" stroke="none"/>
      <path d="M 11.82756805419922 1 L 1.154491424560547 19.5 L 11.82756805419922 38 L 33.17243194580078 38 L 43.84550857543945 19.5 L 33.17243194580078 1 L 11.82756805419922 1 M 11.25 0 L 33.75 0 L 45 19.5 L 33.75 39 L 11.25 39 L 0 19.5 L 11.25 0 Z" stroke="none" fill="#c5c9e0"/>
    </g>
    <g id="Polygon_596" data-name="Polygon 596" transform="translate(-19713 -15206) rotate(-90)" fill="none">
      <path d="M33.75,0,45,19,33.75,38H11.25L0,19,11.25,0Z" stroke="none"/>
      <path d="M 11.82004547119141 1 L 1.162151336669922 19 L 11.82004547119141 37 L 33.17995452880859 37 L 43.83784866333008 19 L 33.17995452880859 1 L 11.82004547119141 1 M 11.25 0 L 33.75 0 L 45 19 L 33.75 38 L 11.25 38 L 0 19 L 11.25 0 Z" stroke="none" fill="#c5c9e0"/>
    </g>
    <g id="Polygon_597" data-name="Polygon 597" transform="translate(-19786 -15246) rotate(-90)" fill="none">
      <path d="M33.75,0,45,19.5,33.75,39H11.25L0,19.5,11.25,0Z" stroke="none"/>
      <path d="M 11.82756805419922 1 L 1.154491424560547 19.5 L 11.82756805419922 38 L 33.17243194580078 38 L 43.84550857543945 19.5 L 33.17243194580078 1 L 11.82756805419922 1 M 11.25 0 L 33.75 0 L 45 19.5 L 33.75 39 L 11.25 39 L 0 19.5 L 11.25 0 Z" stroke="none" fill="#c5c9e0"/>
    </g>
    <g id="Polygon_555" data-name="Polygon 555" transform="translate(-19713 -15365) rotate(-90)" fill="none">
      <path d="M33.75,0,45,19,33.75,38H11.25L0,19,11.25,0Z" stroke="none"/>
      <path d="M 11.82004547119141 1 L 1.162151336669922 19 L 11.82004547119141 37 L 33.17995452880859 37 L 43.83784866333008 19 L 33.17995452880859 1 L 11.82004547119141 1 M 11.25 0 L 33.75 0 L 45 19 L 33.75 38 L 11.25 38 L 0 19 L 11.25 0 Z" stroke="none" fill="#c5c9e0"/>
    </g>
    <g id="Polygon_572" data-name="Polygon 572" transform="translate(-19641 -15245) rotate(-90)" fill="none">
      <path d="M33,0,44,19.5,33,39H11L0,19.5,11,0Z" stroke="none"/>
      <path d="M 11.58403396606445 1 L 1.148136138916016 19.5 L 11.58403396606445 38 L 32.41596984863281 38 L 42.85186386108398 19.5 L 32.41596984863281 1 L 11.58403396606445 1 M 11 0 L 33 0 L 44 19.5 L 33 39 L 11 39 L 0 19.5 L 11 0 Z" stroke="none" fill="#c5c9e0"/>
    </g>
    <g id="Polygon_599" data-name="Polygon 599" transform="translate(-19810 -15286) rotate(-90)" fill="none">
      <path d="M33.75,0,45,19.5,33.75,39H11.25L0,19.5,11.25,0Z" stroke="none"/>
      <path d="M 11.82756805419922 1 L 1.154491424560547 19.5 L 11.82756805419922 38 L 33.17243194580078 38 L 43.84550857543945 19.5 L 33.17243194580078 1 L 11.82756805419922 1 M 11.25 0 L 33.75 0 L 45 19.5 L 33.75 39 L 11.25 39 L 0 19.5 L 11.25 0 Z" stroke="none" fill="#c5c9e0"/>
    </g>
    <g id="Polygon_573" data-name="Polygon 573" transform="translate(-19737 -15406) rotate(-90)" fill="none">
      <path d="M33,0,44,19,33,38H11L0,19,11,0Z" stroke="none"/>
      <path d="M 11.57655715942383 1 L 1.155506134033203 19 L 11.57655715942383 37 L 32.42344284057617 37 L 42.8444938659668 19 L 32.42344284057617 1 L 11.57655715942383 1 M 11 0 L 33 0 L 44 19 L 33 38 L 11 38 L 0 19 L 11 0 Z" stroke="none" fill="#c5c9e0"/>
    </g>
    <g id="Polygon_558" data-name="Polygon 558" transform="translate(-19665 -15285) rotate(-90)" fill="none">
      <path d="M33,0,44,19.5,33,39H11L0,19.5,11,0Z" stroke="none"/>
      <path d="M 11.58403396606445 1 L 1.148136138916016 19.5 L 11.58403396606445 38 L 32.41596984863281 38 L 42.85186386108398 19.5 L 32.41596984863281 1 L 11.58403396606445 1 M 11 0 L 33 0 L 44 19.5 L 33 39 L 11 39 L 0 19.5 L 11 0 Z" stroke="none" fill="#c5c9e0"/>
    </g>
    <g id="Polygon_600" data-name="Polygon 600" transform="translate(-19810 -15208) rotate(-90)" fill="none">
      <path d="M33,0,44,19.5,33,39H11L0,19.5,11,0Z" stroke="none"/>
      <path d="M 11.58403396606445 1 L 1.148136138916016 19.5 L 11.58403396606445 38 L 32.41596984863281 38 L 42.85186386108398 19.5 L 32.41596984863281 1 L 11.58403396606445 1 M 11 0 L 33 0 L 44 19.5 L 33 39 L 11 39 L 0 19.5 L 11 0 Z" stroke="none" fill="#c5c9e0"/>
    </g>
    <g id="Polygon_574" data-name="Polygon 574" transform="translate(-19737 -15327) rotate(-90)" fill="none">
      <path d="M33,0,44,19,33,38H11L0,19,11,0Z" stroke="none"/>
      <path d="M 11.57655715942383 1 L 1.155506134033203 19 L 11.57655715942383 37 L 32.42344284057617 37 L 42.8444938659668 19 L 32.42344284057617 1 L 11.57655715942383 1 M 11 0 L 33 0 L 44 19 L 33 38 L 11 38 L 0 19 L 11 0 Z" stroke="none" fill="#c5c9e0"/>
    </g>
    <g id="Polygon_602" data-name="Polygon 602" transform="translate(-19665 -15206) rotate(-90)" fill="none">
      <path d="M33,0,44,19.5,33,39H11L0,19.5,11,0Z" stroke="none"/>
      <path d="M 11.58403396606445 1 L 1.148136138916016 19.5 L 11.58403396606445 38 L 32.41596984863281 38 L 42.85186386108398 19.5 L 32.41596984863281 1 L 11.58403396606445 1 M 11 0 L 33 0 L 44 19.5 L 33 39 L 11 39 L 0 19.5 L 11 0 Z" stroke="none" fill="#c5c9e0"/>
    </g>
    <g id="Polygon_575" data-name="Polygon 575" transform="translate(-19737 -15246) rotate(-90)" fill="none">
      <path d="M33.75,0,45,19,33.75,38H11.25L0,19,11.25,0Z" stroke="none"/>
      <path d="M 11.82004547119141 1 L 1.162151336669922 19 L 11.82004547119141 37 L 33.17995452880859 37 L 43.83784866333008 19 L 33.17995452880859 1 L 11.82004547119141 1 M 11.25 0 L 33.75 0 L 45 19 L 33.75 38 L 11.25 38 L 0 19 L 11.25 0 Z" stroke="none" fill="#c5c9e0"/>
    </g>
    <g id="Polygon_563" data-name="Polygon 563" transform="translate(-19665 -15365) rotate(-90)" fill="none">
      <path d="M33.75,0,45,19.5,33.75,39H11.25L0,19.5,11.25,0Z" stroke="none"/>
      <path d="M 11.82756805419922 1 L 1.154491424560547 19.5 L 11.82756805419922 38 L 33.17243194580078 38 L 43.84550857543945 19.5 L 33.17243194580078 1 L 11.82756805419922 1 M 11.25 0 L 33.75 0 L 45 19.5 L 33.75 39 L 11.25 39 L 0 19.5 L 11.25 0 Z" stroke="none" fill="#c5c9e0"/>
    </g>
    <g id="Group_10426" data-name="Group 10426">
      <g id="Polygon_583" data-name="Polygon 583" transform="translate(-19617 -15204) rotate(-90)" fill="none">
        <path d="M33.75,0,45,19.5,33.75,39H11.25L0,19.5,11.25,0Z" stroke="none"/>
        <path d="M 11.82756805419922 1 L 1.154491424560547 19.5 L 11.82756805419922 38 L 33.17243194580078 38 L 43.84550857543945 19.5 L 33.17243194580078 1 L 11.82756805419922 1 M 11.25 0 L 33.75 0 L 45 19.5 L 33.75 39 L 11.25 39 L 0 19.5 L 11.25 0 Z" stroke="none" fill="#c5c9e0"/>
      </g>
      <g id="Polygon_576" data-name="Polygon 576" transform="translate(-19593 -15244) rotate(-90)" fill="none">
        <path d="M33.75,0,45,19.5,33.75,39H11.25L0,19.5,11.25,0Z" stroke="none"/>
        <path d="M 11.82756805419922 1 L 1.154491424560547 19.5 L 11.82756805419922 38 L 33.17243194580078 38 L 43.84550857543945 19.5 L 33.17243194580078 1 L 11.82756805419922 1 M 11.25 0 L 33.75 0 L 45 19.5 L 33.75 39 L 11.25 39 L 0 19.5 L 11.25 0 Z" stroke="none" fill="#c5c9e0"/>
      </g>
      <g id="Polygon_604-2" data-name="Polygon 604" transform="translate(-19592 -15163) rotate(-90)" fill="none">
        <path d="M33.75,0,45,19.5,33.75,39H11.25L0,19.5,11.25,0Z" stroke="none"/>
        <path d="M 11.82757568359375 1 L 1.154491424560547 19.5 L 11.82756805419922 38 L 33.17243194580078 38 L 43.84550857543945 19.5 L 33.17243194580078 1 L 11.82757568359375 1 M 11.2500114440918 0 L 33.75 0 L 45 19.5 L 33.75 39 L 11.25 39 L 0 19.5 L 11.2500114440918 0 Z" stroke="none" fill="#c5c9e0"/>
      </g>
      <g id="Polygon_565-2" data-name="Polygon 565" transform="translate(-19447 -15162) rotate(-90)" fill="none">
        <path d="M33,0,44,19,33,38H11L0,19,11,0Z" stroke="none"/>
        <path d="M 11.57655715942383 1 L 1.155506134033203 19 L 11.57655715942383 37 L 32.42344284057617 37 L 42.8444938659668 19 L 32.42344284057617 1 L 11.57655715942383 1 M 11 0 L 33 0 L 44 19 L 33 38 L 11 38 L 0 19 L 11 0 Z" stroke="none" fill="#c5c9e0"/>
      </g>
      <g id="Polygon_579-2" data-name="Polygon 579" transform="translate(-19520 -15203) rotate(-90)" fill="none">
        <path d="M33.75,0,45,19.5,33.75,39H11.25L0,19.5,11.25,0Z" stroke="none"/>
        <path d="M 11.82756805419922 1 L 1.154491424560547 19.5 L 11.82756805419922 38 L 33.17243194580078 38 L 43.84550857543945 19.5 L 33.17243194580078 1 L 11.82756805419922 1 M 11.25 0 L 33.75 0 L 45 19.5 L 33.75 39 L 11.25 39 L 0 19.5 L 11.25 0 Z" stroke="none" fill="#c5c9e0"/>
      </g>
      <g id="Polygon_536-2" data-name="Polygon 536" transform="translate(-19447 -15242) rotate(-90)" fill="none">
        <path d="M33.75,0,45,19,33.75,38H11.25L0,19,11.25,0Z" stroke="none"/>
        <path d="M 11.8200569152832 1 L 1.162151336669922 19 L 11.82004547119141 37 L 33.17995452880859 37 L 43.83784866333008 19 L 33.17995452880859 1 L 11.8200569152832 1 M 11.2500114440918 0 L 33.75 0 L 45 19 L 33.75 38 L 11.25 38 L 0 19 L 11.2500114440918 0 Z" stroke="none" fill="#c5c9e0"/>
      </g>
      <g id="Polygon_583-2" data-name="Polygon 583" transform="translate(-19375 -15121) rotate(-90)" fill="none">
        <path d="M33.75,0,45,19.5,33.75,39H11.25L0,19.5,11.25,0Z" stroke="none"/>
        <path d="M 11.82756805419922 1 L 1.154491424560547 19.5 L 11.82756805419922 38 L 33.17243194580078 38 L 43.84550857543945 19.5 L 33.17243194580078 1 L 11.82756805419922 1 M 11.25 0 L 33.75 0 L 45 19.5 L 33.75 39 L 11.25 39 L 0 19.5 L 11.25 0 Z" stroke="none" fill="#c5c9e0"/>
      </g>
      <g id="Polygon_539-2" data-name="Polygon 539" transform="translate(-19471 -15202) rotate(-90)" fill="none">
        <path d="M33.75,0,45,19,33.75,38H11.25L0,19,11.25,0Z" stroke="none"/>
        <path d="M 11.82004547119141 1 L 1.162151336669922 19 L 11.82004547119141 37 L 33.17995452880859 37 L 43.83784866333008 19 L 33.17995452880859 1 L 11.82004547119141 1 M 11.25 0 L 33.75 0 L 45 19 L 33.75 38 L 11.25 38 L 0 19 L 11.25 0 Z" stroke="none" fill="#c5c9e0"/>
      </g>
      <g id="Polygon_594-2" data-name="Polygon 594" transform="translate(-19544 -15244) rotate(-90)" fill="none">
        <path d="M33.75,0,45,19.5,33.75,39H11.25L0,19.5,11.25,0Z" stroke="none"/>
        <path d="M 11.82757568359375 1 L 1.154491424560547 19.5 L 11.82756805419922 38 L 33.17243194580078 38 L 43.84550857543945 19.5 L 33.17243194580078 1 L 11.82757568359375 1 M 11.2500114440918 0 L 33.75 0 L 45 19.5 L 33.75 39 L 11.25 39 L 0 19.5 L 11.2500114440918 0 Z" stroke="none" fill="#c5c9e0"/>
      </g>
      <g id="Polygon_597-2" data-name="Polygon 597" transform="translate(-19544 -15163) rotate(-90)" fill="none">
        <path d="M33.75,0,45,19.5,33.75,39H11.25L0,19.5,11.25,0Z" stroke="none"/>
        <path d="M 11.82757568359375 1 L 1.154491424560547 19.5 L 11.82756805419922 38 L 33.17243194580078 38 L 43.84550857543945 19.5 L 33.17243194580078 1 L 11.82757568359375 1 M 11.2500114440918 0 L 33.75 0 L 45 19.5 L 33.75 39 L 11.25 39 L 0 19.5 L 11.2500114440918 0 Z" stroke="none" fill="#c5c9e0"/>
      </g>
      <g id="Polygon_572-2" data-name="Polygon 572" transform="translate(-19399 -15162) rotate(-90)" fill="none">
        <path d="M33,0,44,19.5,33,39H11L0,19.5,11,0Z" stroke="none"/>
        <path d="M 11.58403396606445 1 L 1.148136138916016 19.5 L 11.58403396606445 38 L 32.41596984863281 38 L 42.85186386108398 19.5 L 32.41596984863281 1 L 11.58403396606445 1 M 11 0 L 33 0 L 44 19.5 L 33 39 L 11 39 L 0 19.5 L 11 0 Z" stroke="none" fill="#c5c9e0"/>
      </g>
      <g id="Polygon_556" data-name="Polygon 556" transform="translate(-19326 -15199) rotate(-90)" fill="none">
        <path d="M33.75,0,45,19,33.75,38H11.25L0,19,11.25,0Z" stroke="none"/>
        <path d="M 11.82004547119141 1 L 1.162151336669922 19 L 11.82004547119141 37 L 33.17995452880859 37 L 43.83784866333008 19 L 33.17995452880859 1 L 11.82004547119141 1 M 11.25 0 L 33.75 0 L 45 19 L 33.75 38 L 11.25 38 L 0 19 L 11.25 0 Z" stroke="none" fill="#c5c9e0"/>
      </g>
      <g id="Polygon_599-2" data-name="Polygon 599" transform="translate(-19568 -15203) rotate(-90)" fill="none">
        <path d="M33.75,0,45,19.5,33.75,39H11.25L0,19.5,11.25,0Z" stroke="none"/>
        <path d="M 11.82756805419922 1 L 1.154491424560547 19.5 L 11.82756805419922 38 L 33.17243194580078 38 L 43.84550857543945 19.5 L 33.17243194580078 1 L 11.82756805419922 1 M 11.25 0 L 33.75 0 L 45 19.5 L 33.75 39 L 11.25 39 L 0 19.5 L 11.25 0 Z" stroke="none" fill="#c5c9e0"/>
      </g>
      <g id="Polygon_558-2" data-name="Polygon 558" transform="translate(-19423 -15202) rotate(-90)" fill="none">
        <path d="M33,0,44,19.5,33,39H11L0,19.5,11,0Z" stroke="none"/>
        <path d="M 11.58403396606445 1 L 1.148136138916016 19.5 L 11.58403396606445 38 L 32.41596984863281 38 L 42.85186386108398 19.5 L 32.41596984863281 1 L 11.58403396606445 1 M 11 0 L 33 0 L 44 19.5 L 33 39 L 11 39 L 0 19.5 L 11 0 Z" stroke="none" fill="#c5c9e0"/>
      </g>
      <g id="Polygon_574-2" data-name="Polygon 574" transform="translate(-19495 -15244) rotate(-90)" fill="none">
        <path d="M33,0,44,19,33,38H11L0,19,11,0Z" stroke="none"/>
        <path d="M 11.57655715942383 1 L 1.155506134033203 19 L 11.57655715942383 37 L 32.42344284057617 37 L 42.8444938659668 19 L 32.42344284057617 1 L 11.57655715942383 1 M 11 0 L 33 0 L 44 19 L 33 38 L 11 38 L 0 19 L 11 0 Z" stroke="none" fill="#c5c9e0"/>
      </g>
      <g id="Polygon_575-2" data-name="Polygon 575" transform="translate(-19495 -15163) rotate(-90)" fill="none">
        <path d="M33.75,0,45,19,33.75,38H11.25L0,19,11.25,0Z" stroke="none"/>
        <path d="M 11.82004547119141 1 L 1.162151336669922 19 L 11.82004547119141 37 L 33.17995452880859 37 L 43.83784866333008 19 L 33.17995452880859 1 L 11.82004547119141 1 M 11.25 0 L 33.75 0 L 45 19 L 33.75 38 L 11.25 38 L 0 19 L 11.25 0 Z" stroke="none" fill="#c5c9e0"/>
      </g>
      <g id="Polygon_576-2" data-name="Polygon 576" transform="translate(-19351 -15161) rotate(-90)" fill="none">
        <path d="M33.75,0,45,19.5,33.75,39H11.25L0,19.5,11.25,0Z" stroke="none"/>
        <path d="M 11.82757568359375 1 L 1.154491424560547 19.5 L 11.82756805419922 38 L 33.17243194580078 38 L 43.84550857543945 19.5 L 33.17243194580078 1 L 11.82757568359375 1 M 11.2500114440918 0 L 33.75 0 L 45 19.5 L 33.75 39 L 11.25 39 L 0 19.5 L 11.2500114440918 0 Z" stroke="none" fill="#c5c9e0"/>
      </g>
    </g>
    <g id="Group_10427" data-name="Group 10427" transform="translate(-19421 -15370)">
      <g id="Polygon_583-3" data-name="Polygon 583" transform="translate(329 40) rotate(90)" fill="none">
        <path d="M33.75,0,45,19.5,33.75,39H11.25L0,19.5,11.25,0Z" stroke="none"/>
        <path d="M 11.82756805419922 1 L 1.154491424560547 19.5 L 11.82756805419922 38 L 33.17243194580078 38 L 43.84550857543945 19.5 L 33.17243194580078 1 L 11.82756805419922 1 M 11.25 0 L 33.75 0 L 45 19.5 L 33.75 39 L 11.25 39 L 0 19.5 L 11.25 0 Z" stroke="none" fill="#c5c9e0"/>
      </g>
      <g id="Polygon_576-3" data-name="Polygon 576" transform="translate(305) rotate(90)" fill="none">
        <path d="M33.75,0,45,19.5,33.75,39H11.25L0,19.5,11.25,0Z" stroke="none"/>
        <path d="M 11.82756805419922 1 L 1.154491424560547 19.5 L 11.82756805419922 38 L 33.17243194580078 38 L 43.84550857543945 19.5 L 33.17243194580078 1 L 11.82756805419922 1 M 11.25 0 L 33.75 0 L 45 19.5 L 33.75 39 L 11.25 39 L 0 19.5 L 11.25 0 Z" stroke="none" fill="#c5c9e0"/>
      </g>
      <g id="Polygon_604-3" data-name="Polygon 604" transform="translate(304 81) rotate(90)" fill="none">
        <path d="M33.75,0,45,19.5,33.75,39H11.25L0,19.5,11.25,0Z" stroke="none"/>
        <path d="M 11.82757568359375 1 L 1.154491424560547 19.5 L 11.82756805419922 38 L 33.17243194580078 38 L 43.84550857543945 19.5 L 33.17243194580078 1 L 11.82757568359375 1 M 11.2500114440918 0 L 33.75 0 L 45 19.5 L 33.75 39 L 11.25 39 L 0 19.5 L 11.2500114440918 0 Z" stroke="none" fill="#c5c9e0"/>
      </g>
      <g id="Polygon_565-3" data-name="Polygon 565" transform="translate(159 83) rotate(90)" fill="none">
        <path d="M33,0,44,19,33,38H11L0,19,11,0Z" stroke="none"/>
        <path d="M 11.57655715942383 1 L 1.155506134033203 19 L 11.57655715942383 37 L 32.42344284057617 37 L 42.8444938659668 19 L 32.42344284057617 1 L 11.57655715942383 1 M 11 0 L 33 0 L 44 19 L 33 38 L 11 38 L 0 19 L 11 0 Z" stroke="none" fill="#c5c9e0"/>
      </g>
      <g id="Polygon_579-3" data-name="Polygon 579" transform="translate(232 41) rotate(90)" fill="none">
        <path d="M33.75,0,45,19.5,33.75,39H11.25L0,19.5,11.25,0Z" stroke="none"/>
        <path d="M 11.82756805419922 1 L 1.154491424560547 19.5 L 11.82756805419922 38 L 33.17243194580078 38 L 43.84550857543945 19.5 L 33.17243194580078 1 L 11.82756805419922 1 M 11.25 0 L 33.75 0 L 45 19.5 L 33.75 39 L 11.25 39 L 0 19.5 L 11.25 0 Z" stroke="none" fill="#c5c9e0"/>
      </g>
      <g id="Polygon_536-3" data-name="Polygon 536" transform="translate(159 2) rotate(90)" fill="none">
        <path d="M33.75,0,45,19,33.75,38H11.25L0,19,11.25,0Z" stroke="none"/>
        <path d="M 11.8200569152832 1 L 1.162151336669922 19 L 11.82004547119141 37 L 33.17995452880859 37 L 43.83784866333008 19 L 33.17995452880859 1 L 11.8200569152832 1 M 11.2500114440918 0 L 33.75 0 L 45 19 L 33.75 38 L 11.25 38 L 0 19 L 11.2500114440918 0 Z" stroke="none" fill="#c5c9e0"/>
      </g>
      <g id="Polygon_583-4" data-name="Polygon 583" transform="translate(87 123) rotate(90)" fill="none">
        <path d="M33.75,0,45,19.5,33.75,39H11.25L0,19.5,11.25,0Z" stroke="none"/>
        <path d="M 11.82756805419922 1 L 1.154491424560547 19.5 L 11.82756805419922 38 L 33.17243194580078 38 L 43.84550857543945 19.5 L 33.17243194580078 1 L 11.82756805419922 1 M 11.25 0 L 33.75 0 L 45 19.5 L 33.75 39 L 11.25 39 L 0 19.5 L 11.25 0 Z" stroke="none" fill="#c5c9e0"/>
      </g>
      <g id="Polygon_539-3" data-name="Polygon 539" transform="translate(183 42) rotate(90)" fill="none">
        <path d="M33.75,0,45,19,33.75,38H11.25L0,19,11.25,0Z" stroke="none"/>
        <path d="M 11.82004547119141 1 L 1.162151336669922 19 L 11.82004547119141 37 L 33.17995452880859 37 L 43.83784866333008 19 L 33.17995452880859 1 L 11.82004547119141 1 M 11.25 0 L 33.75 0 L 45 19 L 33.75 38 L 11.25 38 L 0 19 L 11.25 0 Z" stroke="none" fill="#c5c9e0"/>
      </g>
      <g id="Polygon_594-3" data-name="Polygon 594" transform="translate(256) rotate(90)" fill="none">
        <path d="M33.75,0,45,19.5,33.75,39H11.25L0,19.5,11.25,0Z" stroke="none"/>
        <path d="M 11.82757568359375 1 L 1.154491424560547 19.5 L 11.82756805419922 38 L 33.17243194580078 38 L 43.84550857543945 19.5 L 33.17243194580078 1 L 11.82757568359375 1 M 11.2500114440918 0 L 33.75 0 L 45 19.5 L 33.75 39 L 11.25 39 L 0 19.5 L 11.2500114440918 0 Z" stroke="none" fill="#c5c9e0"/>
      </g>
      <g id="Polygon_597-3" data-name="Polygon 597" transform="translate(256 81) rotate(90)" fill="none">
        <path d="M33.75,0,45,19.5,33.75,39H11.25L0,19.5,11.25,0Z" stroke="none"/>
        <path d="M 11.82757568359375 1 L 1.154491424560547 19.5 L 11.82756805419922 38 L 33.17243194580078 38 L 43.84550857543945 19.5 L 33.17243194580078 1 L 11.82757568359375 1 M 11.2500114440918 0 L 33.75 0 L 45 19.5 L 33.75 39 L 11.25 39 L 0 19.5 L 11.2500114440918 0 Z" stroke="none" fill="#c5c9e0"/>
      </g>
      <g id="Polygon_572-3" data-name="Polygon 572" transform="translate(111 83) rotate(90)" fill="none">
        <path d="M33,0,44,19.5,33,39H11L0,19.5,11,0Z" stroke="none"/>
        <path d="M 11.58403396606445 1 L 1.148136138916016 19.5 L 11.58403396606445 38 L 32.41596984863281 38 L 42.85186386108398 19.5 L 32.41596984863281 1 L 11.58403396606445 1 M 11 0 L 33 0 L 44 19.5 L 33 39 L 11 39 L 0 19.5 L 11 0 Z" stroke="none" fill="#c5c9e0"/>
      </g>
      <g id="Polygon_556-2" data-name="Polygon 556" transform="translate(38 45) rotate(90)" fill="none">
        <path d="M33.75,0,45,19,33.75,38H11.25L0,19,11.25,0Z" stroke="none"/>
        <path d="M 11.82004547119141 1 L 1.162151336669922 19 L 11.82004547119141 37 L 33.17995452880859 37 L 43.83784866333008 19 L 33.17995452880859 1 L 11.82004547119141 1 M 11.25 0 L 33.75 0 L 45 19 L 33.75 38 L 11.25 38 L 0 19 L 11.25 0 Z" stroke="none" fill="#c5c9e0"/>
      </g>
      <g id="Polygon_599-3" data-name="Polygon 599" transform="translate(280 41) rotate(90)" fill="none">
        <path d="M33.75,0,45,19.5,33.75,39H11.25L0,19.5,11.25,0Z" stroke="none"/>
        <path d="M 11.82756805419922 1 L 1.154491424560547 19.5 L 11.82756805419922 38 L 33.17243194580078 38 L 43.84550857543945 19.5 L 33.17243194580078 1 L 11.82756805419922 1 M 11.25 0 L 33.75 0 L 45 19.5 L 33.75 39 L 11.25 39 L 0 19.5 L 11.25 0 Z" stroke="none" fill="#c5c9e0"/>
      </g>
      <g id="Polygon_558-3" data-name="Polygon 558" transform="translate(135 43) rotate(90)" fill="none">
        <path d="M33,0,44,19.5,33,39H11L0,19.5,11,0Z" stroke="none"/>
        <path d="M 11.58403396606445 1 L 1.148136138916016 19.5 L 11.58403396606445 38 L 32.41596984863281 38 L 42.85186386108398 19.5 L 32.41596984863281 1 L 11.58403396606445 1 M 11 0 L 33 0 L 44 19.5 L 33 39 L 11 39 L 0 19.5 L 11 0 Z" stroke="none" fill="#c5c9e0"/>
      </g>
      <g id="Polygon_574-3" data-name="Polygon 574" transform="translate(207 1) rotate(90)" fill="none">
        <path d="M33,0,44,19,33,38H11L0,19,11,0Z" stroke="none"/>
        <path d="M 11.57655715942383 1 L 1.155506134033203 19 L 11.57655715942383 37 L 32.42344284057617 37 L 42.8444938659668 19 L 32.42344284057617 1 L 11.57655715942383 1 M 11 0 L 33 0 L 44 19 L 33 38 L 11 38 L 0 19 L 11 0 Z" stroke="none" fill="#c5c9e0"/>
      </g>
      <g id="Polygon_575-3" data-name="Polygon 575" transform="translate(207 81) rotate(90)" fill="none">
        <path d="M33.75,0,45,19,33.75,38H11.25L0,19,11.25,0Z" stroke="none"/>
        <path d="M 11.82004547119141 1 L 1.162151336669922 19 L 11.82004547119141 37 L 33.17995452880859 37 L 43.83784866333008 19 L 33.17995452880859 1 L 11.82004547119141 1 M 11.25 0 L 33.75 0 L 45 19 L 33.75 38 L 11.25 38 L 0 19 L 11.25 0 Z" stroke="none" fill="#c5c9e0"/>
      </g>
      <g id="Polygon_576-4" data-name="Polygon 576" transform="translate(63 83) rotate(90)" fill="none">
        <path d="M33.75,0,45,19.5,33.75,39H11.25L0,19.5,11.25,0Z" stroke="none"/>
        <path d="M 11.82757568359375 1 L 1.154491424560547 19.5 L 11.82756805419922 38 L 33.17243194580078 38 L 43.84550857543945 19.5 L 33.17243194580078 1 L 11.82757568359375 1 M 11.2500114440918 0 L 33.75 0 L 45 19.5 L 33.75 39 L 11.25 39 L 0 19.5 L 11.2500114440918 0 Z" stroke="none" fill="#c5c9e0"/>
      </g>
    </g>
    <g id="Group_10428" data-name="Group 10428" transform="translate(-19130 -15285)">
      <g id="Polygon_583-5" data-name="Polygon 583" transform="translate(0 85) rotate(-90)" fill="none">
        <path d="M33.75,0,45,19.5,33.75,39H11.25L0,19.5,11.25,0Z" stroke="none"/>
        <path d="M 11.82756805419922 1 L 1.154491424560547 19.5 L 11.82756805419922 38 L 33.17243194580078 38 L 43.84550857543945 19.5 L 33.17243194580078 1 L 11.82756805419922 1 M 11.25 0 L 33.75 0 L 45 19.5 L 33.75 39 L 11.25 39 L 0 19.5 L 11.25 0 Z" stroke="none" fill="#c5c9e0"/>
      </g>
      <g id="Polygon_576-5" data-name="Polygon 576" transform="translate(24 45) rotate(-90)" fill="none">
        <path d="M33.75,0,45,19.5,33.75,39H11.25L0,19.5,11.25,0Z" stroke="none"/>
        <path d="M 11.82756805419922 1 L 1.154491424560547 19.5 L 11.82756805419922 38 L 33.17243194580078 38 L 43.84550857543945 19.5 L 33.17243194580078 1 L 11.82756805419922 1 M 11.25 0 L 33.75 0 L 45 19.5 L 33.75 39 L 11.25 39 L 0 19.5 L 11.25 0 Z" stroke="none" fill="#c5c9e0"/>
      </g>
      <g id="Polygon_604-4" data-name="Polygon 604" transform="translate(25 126) rotate(-90)" fill="none">
        <path d="M33.75,0,45,19.5,33.75,39H11.25L0,19.5,11.25,0Z" stroke="none"/>
        <path d="M 11.82757568359375 1 L 1.154491424560547 19.5 L 11.82756805419922 38 L 33.17243194580078 38 L 43.84550857543945 19.5 L 33.17243194580078 1 L 11.82757568359375 1 M 11.2500114440918 0 L 33.75 0 L 45 19.5 L 33.75 39 L 11.25 39 L 0 19.5 L 11.2500114440918 0 Z" stroke="none" fill="#c5c9e0"/>
      </g>
      <g id="Polygon_565-4" data-name="Polygon 565" transform="translate(170 127) rotate(-90)" fill="none">
        <path d="M33,0,44,19,33,38H11L0,19,11,0Z" stroke="none"/>
        <path d="M 11.57655715942383 1 L 1.155506134033203 19 L 11.57655715942383 37 L 32.42344284057617 37 L 42.8444938659668 19 L 32.42344284057617 1 L 11.57655715942383 1 M 11 0 L 33 0 L 44 19 L 33 38 L 11 38 L 0 19 L 11 0 Z" stroke="none" fill="#c5c9e0"/>
      </g>
      <g id="Polygon_579-4" data-name="Polygon 579" transform="translate(97 86) rotate(-90)" fill="none">
        <path d="M33.75,0,45,19.5,33.75,39H11.25L0,19.5,11.25,0Z" stroke="none"/>
        <path d="M 11.82756805419922 1 L 1.154491424560547 19.5 L 11.82756805419922 38 L 33.17243194580078 38 L 43.84550857543945 19.5 L 33.17243194580078 1 L 11.82756805419922 1 M 11.25 0 L 33.75 0 L 45 19.5 L 33.75 39 L 11.25 39 L 0 19.5 L 11.25 0 Z" stroke="none" fill="#c5c9e0"/>
      </g>
      <g id="Polygon_536-4" data-name="Polygon 536" transform="translate(170 47) rotate(-90)" fill="none">
        <path d="M33.75,0,45,19,33.75,38H11.25L0,19,11.25,0Z" stroke="none"/>
        <path d="M 11.8200569152832 1 L 1.162151336669922 19 L 11.82004547119141 37 L 33.17995452880859 37 L 43.83784866333008 19 L 33.17995452880859 1 L 11.8200569152832 1 M 11.2500114440918 0 L 33.75 0 L 45 19 L 33.75 38 L 11.25 38 L 0 19 L 11.2500114440918 0 Z" stroke="none" fill="#c5c9e0"/>
      </g>
      <g id="Polygon_583-6" data-name="Polygon 583" transform="translate(242 168) rotate(-90)" fill="none">
        <path d="M33.75,0,45,19.5,33.75,39H11.25L0,19.5,11.25,0Z" stroke="none"/>
        <path d="M 11.82756805419922 1 L 1.154491424560547 19.5 L 11.82756805419922 38 L 33.17243194580078 38 L 43.84550857543945 19.5 L 33.17243194580078 1 L 11.82756805419922 1 M 11.25 0 L 33.75 0 L 45 19.5 L 33.75 39 L 11.25 39 L 0 19.5 L 11.25 0 Z" stroke="none" fill="#c5c9e0"/>
      </g>
      <g id="Polygon_539-4" data-name="Polygon 539" transform="translate(146 87) rotate(-90)" fill="none">
        <path d="M33.75,0,45,19,33.75,38H11.25L0,19,11.25,0Z" stroke="none"/>
        <path d="M 11.82004547119141 1 L 1.162151336669922 19 L 11.82004547119141 37 L 33.17995452880859 37 L 43.83784866333008 19 L 33.17995452880859 1 L 11.82004547119141 1 M 11.25 0 L 33.75 0 L 45 19 L 33.75 38 L 11.25 38 L 0 19 L 11.25 0 Z" stroke="none" fill="#c5c9e0"/>
      </g>
      <g id="Polygon_594-4" data-name="Polygon 594" transform="translate(73 45) rotate(-90)" fill="none">
        <path d="M33.75,0,45,19.5,33.75,39H11.25L0,19.5,11.25,0Z" stroke="none"/>
        <path d="M 11.82757568359375 1 L 1.154491424560547 19.5 L 11.82756805419922 38 L 33.17243194580078 38 L 43.84550857543945 19.5 L 33.17243194580078 1 L 11.82757568359375 1 M 11.2500114440918 0 L 33.75 0 L 45 19.5 L 33.75 39 L 11.25 39 L 0 19.5 L 11.2500114440918 0 Z" stroke="none" fill="#c5c9e0"/>
      </g>
      <g id="Polygon_597-4" data-name="Polygon 597" transform="translate(73 126) rotate(-90)" fill="none">
        <path d="M33.75,0,45,19.5,33.75,39H11.25L0,19.5,11.25,0Z" stroke="none"/>
        <path d="M 11.82757568359375 1 L 1.154491424560547 19.5 L 11.82756805419922 38 L 33.17243194580078 38 L 43.84550857543945 19.5 L 33.17243194580078 1 L 11.82757568359375 1 M 11.2500114440918 0 L 33.75 0 L 45 19.5 L 33.75 39 L 11.25 39 L 0 19.5 L 11.2500114440918 0 Z" stroke="none" fill="#c5c9e0"/>
      </g>
      <g id="Polygon_572-4" data-name="Polygon 572" transform="translate(218 127) rotate(-90)" fill="none">
        <path d="M33,0,44,19.5,33,39H11L0,19.5,11,0Z" stroke="none"/>
        <path d="M 11.58403396606445 1 L 1.148136138916016 19.5 L 11.58403396606445 38 L 32.41596984863281 38 L 42.85186386108398 19.5 L 32.41596984863281 1 L 11.58403396606445 1 M 11 0 L 33 0 L 44 19.5 L 33 39 L 11 39 L 0 19.5 L 11 0 Z" stroke="none" fill="#c5c9e0"/>
      </g>
      <g id="Polygon_556-3" data-name="Polygon 556" transform="translate(291 90) rotate(-90)" fill="none">
        <path d="M33.75,0,45,19,33.75,38H11.25L0,19,11.25,0Z" stroke="none"/>
        <path d="M 11.82004547119141 1 L 1.162151336669922 19 L 11.82004547119141 37 L 33.17995452880859 37 L 43.83784866333008 19 L 33.17995452880859 1 L 11.82004547119141 1 M 11.25 0 L 33.75 0 L 45 19 L 33.75 38 L 11.25 38 L 0 19 L 11.25 0 Z" stroke="none" fill="#c5c9e0"/>
      </g>
      <g id="Polygon_599-4" data-name="Polygon 599" transform="translate(49 86) rotate(-90)" fill="none">
        <path d="M33.75,0,45,19.5,33.75,39H11.25L0,19.5,11.25,0Z" stroke="none"/>
        <path d="M 11.82756805419922 1 L 1.154491424560547 19.5 L 11.82756805419922 38 L 33.17243194580078 38 L 43.84550857543945 19.5 L 33.17243194580078 1 L 11.82756805419922 1 M 11.25 0 L 33.75 0 L 45 19.5 L 33.75 39 L 11.25 39 L 0 19.5 L 11.25 0 Z" stroke="none" fill="#c5c9e0"/>
      </g>
      <g id="Polygon_558-4" data-name="Polygon 558" transform="translate(194 87) rotate(-90)" fill="none">
        <path d="M33,0,44,19.5,33,39H11L0,19.5,11,0Z" stroke="none"/>
        <path d="M 11.58403396606445 1 L 1.148136138916016 19.5 L 11.58403396606445 38 L 32.41596984863281 38 L 42.85186386108398 19.5 L 32.41596984863281 1 L 11.58403396606445 1 M 11 0 L 33 0 L 44 19.5 L 33 39 L 11 39 L 0 19.5 L 11 0 Z" stroke="none" fill="#c5c9e0"/>
      </g>
      <g id="Polygon_574-4" data-name="Polygon 574" transform="translate(122 45) rotate(-90)" fill="none">
        <path d="M33,0,44,19,33,38H11L0,19,11,0Z" stroke="none"/>
        <path d="M 11.57655715942383 1 L 1.155506134033203 19 L 11.57655715942383 37 L 32.42344284057617 37 L 42.8444938659668 19 L 32.42344284057617 1 L 11.57655715942383 1 M 11 0 L 33 0 L 44 19 L 33 38 L 11 38 L 0 19 L 11 0 Z" stroke="none" fill="#c5c9e0"/>
      </g>
      <g id="Polygon_575-4" data-name="Polygon 575" transform="translate(122 126) rotate(-90)" fill="none">
        <path d="M33.75,0,45,19,33.75,38H11.25L0,19,11.25,0Z" stroke="none"/>
        <path d="M 11.82004547119141 1 L 1.162151336669922 19 L 11.82004547119141 37 L 33.17995452880859 37 L 43.83784866333008 19 L 33.17995452880859 1 L 11.82004547119141 1 M 11.25 0 L 33.75 0 L 45 19 L 33.75 38 L 11.25 38 L 0 19 L 11.25 0 Z" stroke="none" fill="#c5c9e0"/>
      </g>
      <g id="Polygon_576-6" data-name="Polygon 576" transform="translate(266 128) rotate(-90)" fill="none">
        <path d="M33.75,0,45,19.5,33.75,39H11.25L0,19.5,11.25,0Z" stroke="none"/>
        <path d="M 11.82757568359375 1 L 1.154491424560547 19.5 L 11.82756805419922 38 L 33.17243194580078 38 L 43.84550857543945 19.5 L 33.17243194580078 1 L 11.82757568359375 1 M 11.2500114440918 0 L 33.75 0 L 45 19.5 L 33.75 39 L 11.25 39 L 0 19.5 L 11.2500114440918 0 Z" stroke="none" fill="#c5c9e0"/>
      </g>
    </g>
    <g id="Group_10429" data-name="Group 10429" transform="translate(-18864 -15365)">
      <g id="Polygon_583-7" data-name="Polygon 583" transform="translate(0 128) rotate(-90)" fill="none">
        <path d="M33.75,0,45,19.5,33.75,39H11.25L0,19.5,11.25,0Z" stroke="none"/>
        <path d="M 11.82756805419922 1 L 1.154491424560547 19.5 L 11.82756805419922 38 L 33.17243194580078 38 L 43.84550857543945 19.5 L 33.17243194580078 1 L 11.82756805419922 1 M 11.25 0 L 33.75 0 L 45 19.5 L 33.75 39 L 11.25 39 L 0 19.5 L 11.25 0 Z" stroke="none" fill="#c5c9e0"/>
      </g>
      <g id="Polygon_604-5" data-name="Polygon 604" transform="translate(25 87) rotate(-90)" fill="none">
        <path d="M33.75,0,45,19.5,33.75,39H11.25L0,19.5,11.25,0Z" stroke="none"/>
        <path d="M 11.82757568359375 1 L 1.154491424560547 19.5 L 11.82756805419922 38 L 33.17243194580078 38 L 43.84550857543945 19.5 L 33.17243194580078 1 L 11.82757568359375 1 M 11.2500114440918 0 L 33.75 0 L 45 19.5 L 33.75 39 L 11.25 39 L 0 19.5 L 11.2500114440918 0 Z" stroke="none" fill="#c5c9e0"/>
      </g>
      <g id="Polygon_565-5" data-name="Polygon 565" transform="translate(170 85) rotate(-90)" fill="none">
        <path d="M33,0,44,19,33,38H11L0,19,11,0Z" stroke="none"/>
        <path d="M 11.57655715942383 1 L 1.155506134033203 19 L 11.57655715942383 37 L 32.42344284057617 37 L 42.8444938659668 19 L 32.42344284057617 1 L 11.57655715942383 1 M 11 0 L 33 0 L 44 19 L 33 38 L 11 38 L 0 19 L 11 0 Z" stroke="none" fill="#c5c9e0"/>
      </g>
      <g id="Polygon_579-5" data-name="Polygon 579" transform="translate(97 127) rotate(-90)" fill="none">
        <path d="M33.75,0,45,19.5,33.75,39H11.25L0,19.5,11.25,0Z" stroke="none"/>
        <path d="M 11.82756805419922 1 L 1.154491424560547 19.5 L 11.82756805419922 38 L 33.17243194580078 38 L 43.84550857543945 19.5 L 33.17243194580078 1 L 11.82756805419922 1 M 11.25 0 L 33.75 0 L 45 19.5 L 33.75 39 L 11.25 39 L 0 19.5 L 11.25 0 Z" stroke="none" fill="#c5c9e0"/>
      </g>
      <g id="Polygon_536-5" data-name="Polygon 536" transform="translate(170 166) rotate(-90)" fill="none">
        <path d="M33.75,0,45,19,33.75,38H11.25L0,19,11.25,0Z" stroke="none"/>
        <path d="M 11.8200569152832 1 L 1.162151336669922 19 L 11.82004547119141 37 L 33.17995452880859 37 L 43.83784866333008 19 L 33.17995452880859 1 L 11.8200569152832 1 M 11.2500114440918 0 L 33.75 0 L 45 19 L 33.75 38 L 11.25 38 L 0 19 L 11.2500114440918 0 Z" stroke="none" fill="#c5c9e0"/>
      </g>
      <g id="Polygon_583-8" data-name="Polygon 583" transform="translate(242 45) rotate(-90)" fill="none">
        <path d="M33.75,0,45,19.5,33.75,39H11.25L0,19.5,11.25,0Z" stroke="none"/>
        <path d="M 11.82756805419922 1 L 1.154491424560547 19.5 L 11.82756805419922 38 L 33.17243194580078 38 L 43.84550857543945 19.5 L 33.17243194580078 1 L 11.82756805419922 1 M 11.25 0 L 33.75 0 L 45 19.5 L 33.75 39 L 11.25 39 L 0 19.5 L 11.25 0 Z" stroke="none" fill="#c5c9e0"/>
      </g>
      <g id="Polygon_539-5" data-name="Polygon 539" transform="translate(146 126) rotate(-90)" fill="none">
        <path d="M33.75,0,45,19,33.75,38H11.25L0,19,11.25,0Z" stroke="none"/>
        <path d="M 11.82004547119141 1 L 1.162151336669922 19 L 11.82004547119141 37 L 33.17995452880859 37 L 43.83784866333008 19 L 33.17995452880859 1 L 11.82004547119141 1 M 11.25 0 L 33.75 0 L 45 19 L 33.75 38 L 11.25 38 L 0 19 L 11.25 0 Z" stroke="none" fill="#c5c9e0"/>
      </g>
      <g id="Polygon_594-5" data-name="Polygon 594" transform="translate(73 168) rotate(-90)" fill="none">
        <path d="M33.75,0,45,19.5,33.75,39H11.25L0,19.5,11.25,0Z" stroke="none"/>
        <path d="M 11.82757568359375 1 L 1.154491424560547 19.5 L 11.82756805419922 38 L 33.17243194580078 38 L 43.84550857543945 19.5 L 33.17243194580078 1 L 11.82757568359375 1 M 11.2500114440918 0 L 33.75 0 L 45 19.5 L 33.75 39 L 11.25 39 L 0 19.5 L 11.2500114440918 0 Z" stroke="none" fill="#c5c9e0"/>
      </g>
      <g id="Polygon_597-5" data-name="Polygon 597" transform="translate(73 87) rotate(-90)" fill="none">
        <path d="M33.75,0,45,19.5,33.75,39H11.25L0,19.5,11.25,0Z" stroke="none"/>
        <path d="M 11.82757568359375 1 L 1.154491424560547 19.5 L 11.82756805419922 38 L 33.17243194580078 38 L 43.84550857543945 19.5 L 33.17243194580078 1 L 11.82757568359375 1 M 11.2500114440918 0 L 33.75 0 L 45 19.5 L 33.75 39 L 11.25 39 L 0 19.5 L 11.2500114440918 0 Z" stroke="none" fill="#c5c9e0"/>
      </g>
      <g id="Polygon_572-5" data-name="Polygon 572" transform="translate(218 85) rotate(-90)" fill="none">
        <path d="M33,0,44,19.5,33,39H11L0,19.5,11,0Z" stroke="none"/>
        <path d="M 11.58403396606445 1 L 1.148136138916016 19.5 L 11.58403396606445 38 L 32.41596984863281 38 L 42.85186386108398 19.5 L 32.41596984863281 1 L 11.58403396606445 1 M 11 0 L 33 0 L 44 19.5 L 33 39 L 11 39 L 0 19.5 L 11 0 Z" stroke="none" fill="#c5c9e0"/>
      </g>
      <g id="Polygon_556-4" data-name="Polygon 556" transform="translate(291 123) rotate(-90)" fill="none">
        <path d="M33.75,0,45,19,33.75,38H11.25L0,19,11.25,0Z" stroke="none"/>
        <path d="M 11.82004547119141 1 L 1.162151336669922 19 L 11.82004547119141 37 L 33.17995452880859 37 L 43.83784866333008 19 L 33.17995452880859 1 L 11.82004547119141 1 M 11.25 0 L 33.75 0 L 45 19 L 33.75 38 L 11.25 38 L 0 19 L 11.25 0 Z" stroke="none" fill="#c5c9e0"/>
      </g>
      <g id="Polygon_599-5" data-name="Polygon 599" transform="translate(49 127) rotate(-90)" fill="none">
        <path d="M33.75,0,45,19.5,33.75,39H11.25L0,19.5,11.25,0Z" stroke="none"/>
        <path d="M 11.82756805419922 1 L 1.154491424560547 19.5 L 11.82756805419922 38 L 33.17243194580078 38 L 43.84550857543945 19.5 L 33.17243194580078 1 L 11.82756805419922 1 M 11.25 0 L 33.75 0 L 45 19.5 L 33.75 39 L 11.25 39 L 0 19.5 L 11.25 0 Z" stroke="none" fill="#c5c9e0"/>
      </g>
      <g id="Polygon_558-5" data-name="Polygon 558" transform="translate(194 125) rotate(-90)" fill="none">
        <path d="M33,0,44,19.5,33,39H11L0,19.5,11,0Z" stroke="none"/>
        <path d="M 11.58403396606445 1 L 1.148136138916016 19.5 L 11.58403396606445 38 L 32.41596984863281 38 L 42.85186386108398 19.5 L 32.41596984863281 1 L 11.58403396606445 1 M 11 0 L 33 0 L 44 19.5 L 33 39 L 11 39 L 0 19.5 L 11 0 Z" stroke="none" fill="#c5c9e0"/>
      </g>
      <g id="Polygon_574-5" data-name="Polygon 574" transform="translate(122 167) rotate(-90)" fill="none">
        <path d="M33,0,44,19,33,38H11L0,19,11,0Z" stroke="none"/>
        <path d="M 11.57655715942383 1 L 1.155506134033203 19 L 11.57655715942383 37 L 32.42344284057617 37 L 42.8444938659668 19 L 32.42344284057617 1 L 11.57655715942383 1 M 11 0 L 33 0 L 44 19 L 33 38 L 11 38 L 0 19 L 11 0 Z" stroke="none" fill="#c5c9e0"/>
      </g>
      <g id="Polygon_575-5" data-name="Polygon 575" transform="translate(122 87) rotate(-90)" fill="none">
        <path d="M33.75,0,45,19,33.75,38H11.25L0,19,11.25,0Z" stroke="none"/>
        <path d="M 11.82004547119141 1 L 1.162151336669922 19 L 11.82004547119141 37 L 33.17995452880859 37 L 43.83784866333008 19 L 33.17995452880859 1 L 11.82004547119141 1 M 11.25 0 L 33.75 0 L 45 19 L 33.75 38 L 11.25 38 L 0 19 L 11.25 0 Z" stroke="none" fill="#c5c9e0"/>
      </g>
      <g id="Polygon_576-7" data-name="Polygon 576" transform="translate(266 85) rotate(-90)" fill="none">
        <path d="M33.75,0,45,19.5,33.75,39H11.25L0,19.5,11.25,0Z" stroke="none"/>
        <path d="M 11.82757568359375 1 L 1.154491424560547 19.5 L 11.82756805419922 38 L 33.17243194580078 38 L 43.84550857543945 19.5 L 33.17243194580078 1 L 11.82757568359375 1 M 11.2500114440918 0 L 33.75 0 L 45 19.5 L 33.75 39 L 11.25 39 L 0 19.5 L 11.2500114440918 0 Z" stroke="none" fill="#c5c9e0"/>
      </g>
    </g>
    <g id="Polygon_583-9" data-name="Polygon 583" transform="translate(-18883 -15438) rotate(-90)" fill="none">
      <path d="M33.75,0,45,19.5,33.75,39H11.25L0,19.5,11.25,0Z" stroke="none"/>
      <path d="M 11.82756805419922 1 L 1.154491424560547 19.5 L 11.82756805419922 38 L 33.17243194580078 38 L 43.84550857543945 19.5 L 33.17243194580078 1 L 11.82756805419922 1 M 11.25 0 L 33.75 0 L 45 19.5 L 33.75 39 L 11.25 39 L 0 19.5 L 11.25 0 Z" stroke="none" fill="#c5c9e0"/>
    </g>
    <g id="Polygon_604-6" data-name="Polygon 604" transform="translate(-18858 -15479) rotate(-90)" fill="none">
      <path d="M33.75,0,45,19.5,33.75,39H11.25L0,19.5,11.25,0Z" stroke="none"/>
      <path d="M 11.82757568359375 1 L 1.154491424560547 19.5 L 11.82756805419922 38 L 33.17243194580078 38 L 43.84550857543945 19.5 L 33.17243194580078 1 L 11.82757568359375 1 M 11.2500114440918 0 L 33.75 0 L 45 19.5 L 33.75 39 L 11.25 39 L 0 19.5 L 11.2500114440918 0 Z" stroke="none" fill="#c5c9e0"/>
    </g>
    <g id="Polygon_565-6" data-name="Polygon 565" transform="translate(-18597 -15360) rotate(-90)" fill="none">
      <path d="M33,0,44,19,33,38H11L0,19,11,0Z" stroke="none"/>
      <path d="M 11.57655715942383 1 L 1.155506134033203 19 L 11.57655715942383 37 L 32.42344284057617 37 L 42.8444938659668 19 L 32.42344284057617 1 L 11.57655715942383 1 M 11 0 L 33 0 L 44 19 L 33 38 L 11 38 L 0 19 L 11 0 Z" stroke="none" fill="#c5c9e0"/>
    </g>
    <g id="Polygon_579-6" data-name="Polygon 579" transform="translate(-18839 -15359) rotate(-90)" fill="none">
      <path d="M33.75,0,45,19.5,33.75,39H11.25L0,19.5,11.25,0Z" stroke="none"/>
      <path d="M 11.82756805419922 1 L 1.154491424560547 19.5 L 11.82756805419922 38 L 33.17243194580078 38 L 43.84550857543945 19.5 L 33.17243194580078 1 L 11.82756805419922 1 M 11.25 0 L 33.75 0 L 45 19.5 L 33.75 39 L 11.25 39 L 0 19.5 L 11.25 0 Z" stroke="none" fill="#c5c9e0"/>
    </g>
    <g id="Polygon_536-6" data-name="Polygon 536" transform="translate(-18766 -15320) rotate(-90)" fill="none">
      <path d="M33.75,0,45,19,33.75,38H11.25L0,19,11.25,0Z" stroke="none"/>
      <path d="M 11.8200569152832 1 L 1.162151336669922 19 L 11.82004547119141 37 L 33.17995452880859 37 L 43.83784866333008 19 L 33.17995452880859 1 L 11.8200569152832 1 M 11.2500114440918 0 L 33.75 0 L 45 19 L 33.75 38 L 11.25 38 L 0 19 L 11.2500114440918 0 Z" stroke="none" fill="#c5c9e0"/>
    </g>
    <g id="Polygon_583-10" data-name="Polygon 583" transform="translate(-18525 -15400) rotate(-90)" fill="none">
      <path d="M33.75,0,45,19.5,33.75,39H11.25L0,19.5,11.25,0Z" stroke="none"/>
      <path d="M 11.82756805419922 1 L 1.154491424560547 19.5 L 11.82756805419922 38 L 33.17243194580078 38 L 43.84550857543945 19.5 L 33.17243194580078 1 L 11.82756805419922 1 M 11.25 0 L 33.75 0 L 45 19.5 L 33.75 39 L 11.25 39 L 0 19.5 L 11.25 0 Z" stroke="none" fill="#c5c9e0"/>
    </g>
    <g id="Polygon_539-6" data-name="Polygon 539" transform="translate(-18790 -15360) rotate(-90)" fill="none">
      <path d="M33.75,0,45,19,33.75,38H11.25L0,19,11.25,0Z" stroke="none"/>
      <path d="M 11.82004547119141 1 L 1.162151336669922 19 L 11.82004547119141 37 L 33.17995452880859 37 L 43.83784866333008 19 L 33.17995452880859 1 L 11.82004547119141 1 M 11.25 0 L 33.75 0 L 45 19 L 33.75 38 L 11.25 38 L 0 19 L 11.25 0 Z" stroke="none" fill="#c5c9e0"/>
    </g>
    <g id="Polygon_594-6" data-name="Polygon 594" transform="translate(-18863 -15318) rotate(-90)" fill="none">
      <path d="M33.75,0,45,19.5,33.75,39H11.25L0,19.5,11.25,0Z" stroke="none"/>
      <path d="M 11.82757568359375 1 L 1.154491424560547 19.5 L 11.82756805419922 38 L 33.17243194580078 38 L 43.84550857543945 19.5 L 33.17243194580078 1 L 11.82757568359375 1 M 11.2500114440918 0 L 33.75 0 L 45 19.5 L 33.75 39 L 11.25 39 L 0 19.5 L 11.2500114440918 0 Z" stroke="none" fill="#c5c9e0"/>
    </g>
    <g id="Polygon_597-6" data-name="Polygon 597" transform="translate(-18863 -15399) rotate(-90)" fill="none">
      <path d="M33.75,0,45,19.5,33.75,39H11.25L0,19.5,11.25,0Z" stroke="none"/>
      <path d="M 11.82757568359375 1 L 1.154491424560547 19.5 L 11.82756805419922 38 L 33.17243194580078 38 L 43.84550857543945 19.5 L 33.17243194580078 1 L 11.82757568359375 1 M 11.2500114440918 0 L 33.75 0 L 45 19.5 L 33.75 39 L 11.25 39 L 0 19.5 L 11.2500114440918 0 Z" stroke="none" fill="#c5c9e0"/>
    </g>
    <g id="Polygon_572-6" data-name="Polygon 572" transform="translate(-18549 -15360) rotate(-90)" fill="none">
      <path d="M33,0,44,19.5,33,39H11L0,19.5,11,0Z" stroke="none"/>
      <path d="M 11.58403396606445 1 L 1.148136138916016 19.5 L 11.58403396606445 38 L 32.41596984863281 38 L 42.85186386108398 19.5 L 32.41596984863281 1 L 11.58403396606445 1 M 11 0 L 33 0 L 44 19.5 L 33 39 L 11 39 L 0 19.5 L 11 0 Z" stroke="none" fill="#c5c9e0"/>
    </g>
    <g id="Polygon_556-5" data-name="Polygon 556" transform="translate(-18476 -15322) rotate(-90)" fill="none">
      <path d="M33.75,0,45,19,33.75,38H11.25L0,19,11.25,0Z" stroke="none"/>
      <path d="M 11.82004547119141 1 L 1.162151336669922 19 L 11.82004547119141 37 L 33.17995452880859 37 L 43.83784866333008 19 L 33.17995452880859 1 L 11.82004547119141 1 M 11.25 0 L 33.75 0 L 45 19 L 33.75 38 L 11.25 38 L 0 19 L 11.25 0 Z" stroke="none" fill="#c5c9e0"/>
    </g>
    <g id="Polygon_599-6" data-name="Polygon 599" transform="translate(-18834 -15439) rotate(-90)" fill="none">
      <path d="M33.75,0,45,19.5,33.75,39H11.25L0,19.5,11.25,0Z" stroke="none"/>
      <path d="M 11.82756805419922 1 L 1.154491424560547 19.5 L 11.82756805419922 38 L 33.17243194580078 38 L 43.84550857543945 19.5 L 33.17243194580078 1 L 11.82756805419922 1 M 11.25 0 L 33.75 0 L 45 19.5 L 33.75 39 L 11.25 39 L 0 19.5 L 11.25 0 Z" stroke="none" fill="#c5c9e0"/>
    </g>
    <g id="Polygon_558-6" data-name="Polygon 558" transform="translate(-18573 -15320) rotate(-90)" fill="none">
      <path d="M33,0,44,19.5,33,39H11L0,19.5,11,0Z" stroke="none"/>
      <path d="M 11.58403396606445 1 L 1.148136138916016 19.5 L 11.58403396606445 38 L 32.41596984863281 38 L 42.85186386108398 19.5 L 32.41596984863281 1 L 11.58403396606445 1 M 11 0 L 33 0 L 44 19.5 L 33 39 L 11 39 L 0 19.5 L 11 0 Z" stroke="none" fill="#c5c9e0"/>
    </g>
    <g id="Polygon_574-6" data-name="Polygon 574" transform="translate(-18814 -15319) rotate(-90)" fill="none">
      <path d="M33,0,44,19,33,38H11L0,19,11,0Z" stroke="none"/>
      <path d="M 11.57655715942383 1 L 1.155506134033203 19 L 11.57655715942383 37 L 32.42344284057617 37 L 42.8444938659668 19 L 32.42344284057617 1 L 11.57655715942383 1 M 11 0 L 33 0 L 44 19 L 33 38 L 11 38 L 0 19 L 11 0 Z" stroke="none" fill="#c5c9e0"/>
    </g>
    <g id="Polygon_575-6" data-name="Polygon 575" transform="translate(-18814 -15399) rotate(-90)" fill="none">
      <path d="M33.75,0,45,19,33.75,38H11.25L0,19,11.25,0Z" stroke="none"/>
      <path d="M 11.82004547119141 1 L 1.162151336669922 19 L 11.82004547119141 37 L 33.17995452880859 37 L 43.83784866333008 19 L 33.17995452880859 1 L 11.82004547119141 1 M 11.25 0 L 33.75 0 L 45 19 L 33.75 38 L 11.25 38 L 0 19 L 11.25 0 Z" stroke="none" fill="#c5c9e0"/>
    </g>
    <g id="Polygon_576-8" data-name="Polygon 576" transform="translate(-18501 -15360) rotate(-90)" fill="none">
      <path d="M33.75,0,45,19.5,33.75,39H11.25L0,19.5,11.25,0Z" stroke="none"/>
      <path d="M 11.82757568359375 1 L 1.154491424560547 19.5 L 11.82756805419922 38 L 33.17243194580078 38 L 43.84550857543945 19.5 L 33.17243194580078 1 L 11.82757568359375 1 M 11.2500114440918 0 L 33.75 0 L 45 19.5 L 33.75 39 L 11.25 39 L 0 19.5 L 11.2500114440918 0 Z" stroke="none" fill="#c5c9e0"/>
    </g>
  </g>
</svg>
