<svg xmlns="http://www.w3.org/2000/svg" width="204.369" height="204.369" viewBox="0 0 204.369 204.369">
  <path id="iconmonstr-linkedin-3-2" d="M161.792,0H42.577A42.582,42.582,0,0,0,0,42.577V161.792a42.582,42.582,0,0,0,42.577,42.577H161.792a42.576,42.576,0,0,0,42.577-42.577V42.577A42.576,42.576,0,0,0,161.792,0ZM68.123,161.792H42.577V68.123H68.123ZM55.35,57.326A15.022,15.022,0,1,1,70.252,42.3,14.966,14.966,0,0,1,55.35,57.326ZM170.308,161.792H144.761v-47.72c0-28.68-34.062-26.508-34.062,0v47.72H85.154V68.123H110.7v15.03c11.887-22.021,59.608-23.647,59.608,21.084Z" fill="#313457" opacity="0.3"/>
</svg>
