<svg id="Icon" xmlns="http://www.w3.org/2000/svg" xmlns:xlink="http://www.w3.org/1999/xlink" width="68" height="68" viewBox="0 0 68 68">
  <defs>
    <clipPath id="clip-path">
      <rect id="Mask" width="68" height="68" rx="10" transform="translate(0 0)" fill="#2fe8b6" opacity="0.185"/>
    </clipPath>
    <clipPath id="clip-path-2">
      <path id="Combined_Shape" data-name="Combined Shape" d="M10.011,17.507A2.812,2.812,0,1,1,12,18.331,2.816,2.816,0,0,1,10.011,17.507Zm4.972-4.972a4.192,4.192,0,0,0-2.553-1.214l8.579-7.826H24V6.485l-7.807,8.6A4.2,4.2,0,0,0,14.983,12.535Zm5.288.147,3.354-3.694A12.076,12.076,0,0,1,24,11.979v.7ZM0,12.682v-.7A11.91,11.91,0,0,1,3.032,4.006L5.7,6.672a6.328,6.328,0,0,0-2.885,5.307v.7Zm12.7-5.93V0a11.89,11.89,0,0,1,7,2.78L14.027,7.961A6.4,6.4,0,0,0,12.7,6.752ZM9.14,5.651a6.291,6.291,0,0,0-2.111.363l-3-3A11.9,11.9,0,0,1,11.3,0V6.029A6.3,6.3,0,0,0,9.14,5.651Z" transform="translate(0 0)" fill="none"/>
    </clipPath>
  </defs>
  <g id="icon_Icon-bg" data-name="icon/Icon-bg">
    <g id="Color_Secondary" data-name="Color/Secondary" transform="translate(0 0)">
      <rect id="Mask-2" data-name="Mask" width="68" height="68" rx="10" transform="translate(0 0)" fill="#2fe8b6" opacity="0.185"/>
      <g id="Color_Secondary-2" data-name="Color/Secondary" clip-path="url(#clip-path)">
        <g id="Color_Secondary-3" data-name="Color/Secondary">
          <rect id="Rectangle" width="68" height="68" fill="#026cff"/>
        </g>
      </g>
    </g>
  </g>
  <g id="Icon-2" data-name="Icon" transform="translate(22 25)">
    <g id="Group_5" data-name="Group 5">
      <path id="Combined_Shape-2" data-name="Combined Shape" d="M10.011,17.507A2.812,2.812,0,1,1,12,18.331,2.816,2.816,0,0,1,10.011,17.507Zm4.972-4.972a4.192,4.192,0,0,0-2.553-1.214l8.579-7.826H24V6.485l-7.807,8.6A4.2,4.2,0,0,0,14.983,12.535Zm5.288.147,3.354-3.694A12.076,12.076,0,0,1,24,11.979v.7ZM0,12.682v-.7A11.91,11.91,0,0,1,3.032,4.006L5.7,6.672a6.328,6.328,0,0,0-2.885,5.307v.7Zm12.7-5.93V0a11.89,11.89,0,0,1,7,2.78L14.027,7.961A6.4,6.4,0,0,0,12.7,6.752ZM9.14,5.651a6.291,6.291,0,0,0-2.111.363l-3-3A11.9,11.9,0,0,1,11.3,0V6.029A6.3,6.3,0,0,0,9.14,5.651Z" transform="translate(0 0)" fill="none"/>
      <g id="Mask_Group_5" data-name="Mask Group 5" clip-path="url(#clip-path-2)">
        <g id="_color" data-name="🎨 color">
          <rect id="Rectangle-2" data-name="Rectangle" width="24" height="24" fill="#fff"/>
        </g>
      </g>
    </g>
  </g>
</svg>
