<svg width="117" height="29" viewBox="0 0 117 29" fill="none" xmlns="http://www.w3.org/2000/svg">
<path d="M37.0733 5.50135H29.5908V21.8148H34.2206V17.55H37.0733C41.5394 17.55 44.3454 15.2428 44.3454 11.5373C44.3454 7.80854 41.5394 5.50135 37.0733 5.50135ZM36.7927 13.9144H34.2206V9.13693H36.7927C38.7101 9.13693 39.6688 10.0225 39.6688 11.5373C39.6688 13.0289 38.7101 13.9144 36.7927 13.9144Z" fill="#FF7028"/>
<path d="M48.7278 7.78524C50.3646 7.78524 51.4402 6.75982 51.4402 5.36152C51.4402 4.03314 50.3646 3.07764 48.7278 3.07764C47.091 3.07764 46.0154 4.10305 46.0154 5.43144C46.0154 6.75982 47.091 7.78524 48.7278 7.78524ZM46.5064 21.8148H50.9492V9.18354H46.5064V21.8148Z" fill="#FF7028"/>
<path d="M60.1965 22.0246C64.382 22.0246 67.3516 19.2979 67.3516 15.4759C67.3516 11.6772 64.382 8.97379 60.1965 8.97379C56.0577 8.97379 53.0414 11.6772 53.0414 15.4759C53.0414 19.2979 56.0577 22.0246 60.1965 22.0246ZM60.1965 18.5055C58.7 18.5055 57.5309 17.4102 57.5309 15.4759C57.5309 13.5649 58.7 12.4928 60.1965 12.4928C61.7164 12.4928 62.8621 13.5649 62.8621 15.4759C62.8621 17.4102 61.7164 18.5055 60.1965 18.5055Z" fill="#FF7028"/>
<path d="M77.6638 8.97379C76.0738 8.97379 74.6474 9.50981 73.642 10.5585V9.18354H69.4097V21.8148H73.8524V15.7089C73.8524 13.6115 74.9514 12.7259 76.3777 12.7259C77.6638 12.7259 78.4588 13.495 78.4588 15.3127V21.8148H82.9015V14.5903C82.9015 10.6751 80.6334 8.97379 77.6638 8.97379Z" fill="#FF7028"/>
<path d="M98.8276 15.5225C98.8276 11.3509 95.7878 8.97379 92.0466 8.97379C88.0481 8.97379 85.0785 11.6772 85.0785 15.4759C85.0785 19.2513 88.0014 22.0246 92.5142 22.0246C94.9227 22.0246 96.6998 21.3254 97.9157 19.9737L95.5774 17.55C94.7122 18.2958 93.8938 18.6454 92.6545 18.6454C91.0177 18.6454 89.9187 17.8996 89.5446 16.6178H98.7574C98.7808 16.2682 98.8276 15.8488 98.8276 15.5225ZM92.07 12.12C93.4495 12.12 94.4316 12.9589 94.6655 14.2873H89.4745C89.7317 12.9589 90.6904 12.12 92.07 12.12Z" fill="#FF7028"/>
<path d="M113.651 21.8148L108.811 15.336L113.487 9.18354H108.788L106.449 12.3763L104.205 9.18354H99.2006L103.877 15.4992L99.0603 21.8148H103.877L106.309 18.5055L108.577 21.8148H113.651Z" fill="#FF7028"/>
<path d="M9.58849 12.2221C10.3959 10.7314 11.955 9.80273 13.6503 9.80273H25.2975C25.2975 13.0215 22.6882 15.6307 19.4695 15.6307H7.74219L9.58849 12.2221Z" fill="url(#paint0_linear)"/>
<path d="M9.58849 7.38341C10.3959 8.8741 11.955 9.80273 13.6503 9.80273H25.2975C25.2975 6.58401 22.6882 3.97473 19.4695 3.97473H7.74219L9.58849 7.38341Z" fill="url(#paint1_linear)"/>
<path d="M9.16869 12.9784C10.2285 11.0205 12.276 9.80093 14.5024 9.80155L18.7788 9.80275L13.6658 19.2425C12.8079 20.8265 11.1512 21.8132 9.34974 21.8131L4.38687 21.8127L9.16869 12.9784Z" fill="url(#paint2_linear)"/>
<g opacity="0.6">
<path d="M13.9418 18.7197C12.0206 15.9903 8.87953 15.6549 7.7207 15.6396H15.619C15.619 15.6396 14.4907 17.7133 13.9418 18.7197Z" fill="url(#paint3_linear)" style="mix-blend-mode:multiply"/>
</g>
<path d="M13.6446 9.8042C11.9466 9.8042 10.3851 10.7328 9.5781 12.2268C8.67674 13.8955 7.74219 15.63 7.74219 15.63H15.6217L18.7772 9.8042L13.6446 9.8042Z" fill="url(#paint4_linear)"/>
<defs>
<linearGradient id="paint0_linear" x1="8.85136" y1="11.7703" x2="32.7008" y2="11.7703" gradientUnits="userSpaceOnUse">
<stop stop-color="#FF7028"/>
<stop offset="1" stop-color="#FFCD4D"/>
</linearGradient>
<linearGradient id="paint1_linear" x1="28.2304" y1="9.80277" x2="-2.00828" y2="9.80277" gradientUnits="userSpaceOnUse">
<stop stop-color="#FF7028"/>
<stop offset="1" stop-color="#FFCD4D"/>
</linearGradient>
<linearGradient id="paint2_linear" x1="19.7418" y1="16.6654" x2="1.17709" y2="16.6654" gradientUnits="userSpaceOnUse">
<stop stop-color="#FF7028"/>
<stop offset="1" stop-color="#FFCD4D"/>
</linearGradient>
<linearGradient id="paint3_linear" x1="8.4399" y1="15.6396" x2="13.6784" y2="15.6396" gradientUnits="userSpaceOnUse">
<stop stop-color="#C44100"/>
<stop offset="1" stop-color="#C84300" stop-opacity="0"/>
</linearGradient>
<linearGradient id="paint4_linear" x1="47.9868" y1="48.6997" x2="19.5875" y2="57.0816" gradientUnits="userSpaceOnUse">
<stop stop-color="#FF7028"/>
<stop offset="1" stop-color="#FFCD4D"/>
</linearGradient>
</defs>
</svg>

