<svg width="109" height="24" viewBox="0 0 109 24" fill="none" xmlns="http://www.w3.org/2000/svg">
<rect width="24" height="24" rx="12" fill="#5661FF"/>
<path d="M19 16.9214L16.3668 9.59908H12.4588L10.6991 14.4929H8.66025L12.0027 5.19995H10.7458C10.2969 5.20027 9.85898 5.33908 9.49185 5.59744C9.12472 5.8558 8.84623 6.22112 8.69437 6.64358L5 16.9214H11.0771C11.5263 16.9214 11.9646 16.7828 12.3321 16.5244C12.6996 16.266 12.9783 15.9005 13.1303 15.4777L14.4123 11.9118L16.2133 16.9214H19Z" fill="white"/>
<path d="M32 17.8403V6.1597H34.9153V15.5475H39.9333V17.8403H32Z" fill="#5661FF"/>
<path d="M44.2135 17.8403H41.0802L45.1499 6.1597H49.0312L53.1009 17.8403H49.9676L47.1347 9.10266H47.0405L44.2135 17.8403ZM43.7953 13.2433H50.3445V15.3878H43.7953V13.2433Z" fill="#5661FF"/>
<path d="M52.4987 8.45247V6.1597H62.6935V8.45247H59.0361V17.8403H56.162V8.45247H52.4987Z" fill="#5661FF"/>
<path d="M74.9512 12C74.9512 13.2852 74.696 14.3745 74.1855 15.2681C73.6751 16.1616 72.9841 16.8403 72.1124 17.3042C71.2447 17.7681 70.2709 18 69.1912 18C68.1075 18 67.1318 17.7662 66.2641 17.2985C65.3963 16.8308 64.7072 16.1521 64.1968 15.2624C63.6903 14.3688 63.4371 13.2814 63.4371 12C63.4371 10.7148 63.6903 9.62547 64.1968 8.73194C64.7072 7.8384 65.3963 7.1597 66.2641 6.69582C67.1318 6.23194 68.1075 6 69.1912 6C70.2709 6 71.2447 6.23194 72.1124 6.69582C72.9841 7.1597 73.6751 7.8384 74.1855 8.73194C74.696 9.62547 74.9512 10.7148 74.9512 12ZM71.971 12C71.971 11.2395 71.8591 10.597 71.6353 10.0722C71.4155 9.54753 71.0974 9.15019 70.6812 8.88023C70.269 8.61027 69.7723 8.47529 69.1912 8.47529C68.614 8.47529 68.1173 8.61027 67.7011 8.88023C67.2849 9.15019 66.9649 9.54753 66.7411 10.0722C66.5212 10.597 66.4113 11.2395 66.4113 12C66.4113 12.7605 66.5212 13.403 66.7411 13.9278C66.9649 14.4525 67.2849 14.8498 67.7011 15.1198C68.1173 15.3897 68.614 15.5247 69.1912 15.5247C69.7723 15.5247 70.269 15.3897 70.6812 15.1198C71.0974 14.8498 71.4155 14.4525 71.6353 13.9278C71.8591 13.403 71.971 12.7605 71.971 12Z" fill="#5661FF"/>
<path d="M76.6533 17.8403V6.1597H79.5686V11.0989H79.7276L83.7149 6.1597H87.1485L82.8726 11.3726L87.225 17.8403H83.7384L80.7347 13.249L79.5686 14.6749V17.8403H76.6533Z" fill="#5661FF"/>
<path d="M88.2984 17.8403V6.1597H96.7087V8.45247H91.2137V10.8479H96.2788V13.1464H91.2137V15.5475H96.7087V17.8403H88.2984Z" fill="#5661FF"/>
<path d="M108.8 6.1597V17.8403H106.326L101.526 11.0989H101.45V17.8403H98.5345V6.1597H101.043L105.79 12.8897H105.891V6.1597H108.8Z" fill="#5661FF"/>
</svg>
