<svg xmlns="http://www.w3.org/2000/svg" xmlns:xlink="http://www.w3.org/1999/xlink" width="1915" height="956" viewBox="0 0 1915 956"><defs><clipPath id="a"><rect width="1915" height="956" transform="translate(-21666 -15215)" fill="#fff"/></clipPath><clipPath id="b"><rect width="1920" height="946" fill="none" stroke="#c5c9e0" stroke-width="1"/></clipPath><clipPath id="c"><rect width="1920" height="946" fill="none" stroke="#c5c9e0" stroke-width="0.9"/></clipPath><clipPath id="d"><rect width="1920" height="946" fill="none" stroke="#c5c9e0" stroke-width="0.8"/></clipPath><clipPath id="e"><rect width="1920" height="946" fill="none" stroke="#c5c9e0" stroke-width="0.7"/></clipPath><clipPath id="f"><rect width="1920" height="946" fill="none" stroke="#c5c9e0" stroke-width="0.6"/></clipPath><clipPath id="g"><rect width="1920" height="946" fill="none" stroke="#c5c9e0" stroke-width="0.5"/></clipPath><clipPath id="h"><rect width="1920" height="946" fill="none" stroke="#c5c9e0" stroke-width="0.4"/></clipPath><clipPath id="i"><rect width="1920" height="946" fill="none" stroke="#c5c9e0" stroke-width="0.3"/></clipPath><clipPath id="j"><rect width="1920" height="946" fill="none" stroke="#c5c9e0" stroke-width="0.2"/></clipPath><clipPath id="k"><rect width="1920" height="946" fill="none" stroke="#c5c9e0" stroke-width="0.1"/></clipPath></defs><g transform="translate(21666 15215)" clip-path="url(#a)"><g transform="translate(-21671 -15198)" clip-path="url(#b)"><path d="M326.923,288.788C196.154,325.7,54.487,248.794,0,205.725V946H2000V67.287c-192.31-184.585-250,55.375-432.69,184.584s-288.46-64.6-413.46-166.126S971.154,2.682,884.615,67.287,778.846,168.808,625,122.662,490.385,242.641,326.923,288.788Z" fill="none" stroke="#c5c9e0" stroke-width="1"/></g><g transform="translate(-21671 -15158)" clip-path="url(#c)"><path d="M326.923,288.788C196.154,325.7,54.487,248.794,0,205.725V946H2000V67.287c-192.31-184.585-250,55.375-432.69,184.584s-288.46-64.6-413.46-166.126S971.154,2.682,884.615,67.287,778.846,168.808,625,122.662,490.385,242.641,326.923,288.788Z" fill="none" stroke="#c5c9e0" stroke-width="0.9"/></g><g transform="translate(-21671 -15127)" clip-path="url(#d)"><path d="M326.923,288.788C196.154,325.7,54.487,248.794,0,205.725V946H2000V67.287c-192.31-184.585-250,55.375-432.69,184.584s-288.46-64.6-413.46-166.126S971.154,2.682,884.615,67.287,778.846,168.808,625,122.662,490.385,242.641,326.923,288.788Z" fill="none" stroke="#c5c9e0" stroke-width="0.8"/></g><g transform="translate(-21671 -15099)" clip-path="url(#e)"><path d="M326.923,288.788C196.154,325.7,54.487,248.794,0,205.725V946H2000V67.287c-192.31-184.585-250,55.375-432.69,184.584s-288.46-64.6-413.46-166.126S971.154,2.682,884.615,67.287,778.846,168.808,625,122.662,490.385,242.641,326.923,288.788Z" fill="none" stroke="#c5c9e0" stroke-width="0.7"/></g><g transform="translate(-21671 -15071)" clip-path="url(#f)"><path d="M326.923,288.788C196.154,325.7,54.487,248.794,0,205.725V946H2000V67.287c-192.31-184.585-250,55.375-432.69,184.584s-288.46-64.6-413.46-166.126S971.154,2.682,884.615,67.287,778.846,168.808,625,122.662,490.385,242.641,326.923,288.788Z" fill="none" stroke="#c5c9e0" stroke-width="0.6"/></g><g transform="translate(-21671 -15044)" clip-path="url(#g)"><path d="M326.923,288.788C196.154,325.7,54.487,248.794,0,205.725V946H2000V67.287c-192.31-184.585-250,55.375-432.69,184.584s-288.46-64.6-413.46-166.126S971.154,2.682,884.615,67.287,778.846,168.808,625,122.662,490.385,242.641,326.923,288.788Z" fill="none" stroke="#c5c9e0" stroke-width="0.5"/></g><g transform="translate(-21671 -15010)" clip-path="url(#h)"><path d="M326.923,288.788C196.154,325.7,54.487,248.794,0,205.725V946H2000V67.287c-192.31-184.585-250,55.375-432.69,184.584s-288.46-64.6-413.46-166.126S971.154,2.682,884.615,67.287,778.846,168.808,625,122.662,490.385,242.641,326.923,288.788Z" fill="none" stroke="#c5c9e0" stroke-width="0.4"/></g><g transform="translate(-21671 -14969)" clip-path="url(#i)"><path d="M326.923,288.788C196.154,325.7,54.487,248.794,0,205.725V946H2000V67.287c-192.31-184.585-250,55.375-432.69,184.584s-288.46-64.6-413.46-166.126S971.154,2.682,884.615,67.287,778.846,168.808,625,122.662,490.385,242.641,326.923,288.788Z" fill="none" stroke="#c5c9e0" stroke-width="0.3"/></g><g transform="translate(-21671 -14926)" clip-path="url(#j)"><path d="M326.923,288.788C196.154,325.7,54.487,248.794,0,205.725V946H2000V67.287c-192.31-184.585-250,55.375-432.69,184.584s-288.46-64.6-413.46-166.126S971.154,2.682,884.615,67.287,778.846,168.808,625,122.662,490.385,242.641,326.923,288.788Z" fill="none" stroke="#c5c9e0" stroke-width="0.2"/></g><g transform="translate(-21671 -14880)" clip-path="url(#k)"><path d="M326.923,288.788C196.154,325.7,54.487,248.794,0,205.725V946H2000V67.287c-192.31-184.585-250,55.375-432.69,184.584s-288.46-64.6-413.46-166.126S971.154,2.682,884.615,67.287,778.846,168.808,625,122.662,490.385,242.641,326.923,288.788Z" fill="none" stroke="#c5c9e0" stroke-width="0.1"/></g></g></svg>