<svg xmlns="http://www.w3.org/2000/svg" xmlns:xlink="http://www.w3.org/1999/xlink" width="177.708" height="139.192" viewBox="0 0 177.708 139.192"><defs><linearGradient id="a" x1="0.995" y1="1.828" x2="0.001" y2="1.828" gradientUnits="objectBoundingBox"><stop offset="0" stop-color="#4171f7"/><stop offset="1" stop-color="#f74bda"/></linearGradient><linearGradient id="b" x1="0.129" y1="2.404" x2="0.752" y2="2.185" gradientUnits="objectBoundingBox"><stop offset="0" stop-color="#f14cdb" stop-opacity="0.031"/><stop offset="0" stop-color="#fff" stop-opacity="0"/><stop offset="1" stop-color="#fff" stop-opacity="0.4"/></linearGradient><linearGradient id="c" x1="0.087" y1="2.152" x2="0.879" y2="2.384" gradientUnits="objectBoundingBox"><stop offset="0" stop-color="#231f20" stop-opacity="0.4"/><stop offset="1" stop-color="#231f20" stop-opacity="0"/></linearGradient><linearGradient id="d" y1="0.5" x2="1" y2="0.5" gradientUnits="objectBoundingBox"><stop offset="0" stop-color="#fff"/><stop offset="1" stop-color="#ebe9fb"/></linearGradient><linearGradient id="e" x1="0.331" y1="2.547" x2="0.61" y2="3.347" gradientUnits="objectBoundingBox"><stop offset="0" stop-color="#eae8fc"/><stop offset="1" stop-color="#eae9f0"/></linearGradient><linearGradient id="f" x1="0.636" y1="2.694" x2="0.364" y2="3.349" gradientUnits="objectBoundingBox"><stop offset="0" stop-color="#dad4f4"/><stop offset="1" stop-color="#f0f0f0"/></linearGradient><linearGradient id="g" x1="0.197" y1="0.133" x2="0.719" y2="0.764" gradientUnits="objectBoundingBox"><stop offset="0" stop-color="#eae8fc"/><stop offset="1" stop-color="#f0f0f0"/></linearGradient><linearGradient id="h" x1="0.636" y1="2.694" x2="0.364" y2="3.349" xlink:href="#f"/><linearGradient id="i" y1="0.5" x2="1" y2="0.5" gradientUnits="objectBoundingBox"><stop offset="0" stop-color="#f7f6fa"/><stop offset="1" stop-color="#ebe9fb"/></linearGradient></defs><path d="M79.6,98.692l56.473,32.624,56.473-32.624V33.484L136.073.9,79.6,33.484Z" transform="translate(-47.26 -0.9)" fill="url(#a)"/><path d="M79.6,146.546l56.433,32.584V114.084L79.6,81.5Z" transform="translate(-47.26 -48.753)" opacity="0.56" fill="url(#b)"/><path d="M274.973,81.4,218.5,114.024V179.07l.041.041,56.473-32.624V81.441Z" transform="translate(-129.728 -48.694)" opacity="0.56" fill="url(#c)"/><path d="M242.6,141.433,282.172,118.6l39.572,22.833V187.1l-39.572,22.874L242.6,187.1Z" transform="translate(-144.036 -70.781)" fill="#f0f0f0"/><path d="M242.6,141.433,282.172,118.6l39.572,22.833V187.1l-39.572,22.874L242.6,187.1Z" transform="translate(-144.036 -70.781)" fill="#fff"/><path d="M282.172,118.6l39.572,22.833-39.572,22.833L242.6,141.433Z" transform="translate(-144.036 -70.781)" fill="url(#d)"/><path d="M242.6,174.8l39.572,22.833V243.34L242.6,220.466Z" transform="translate(-144.036 -104.147)" fill="url(#e)"/><path d="M340,197.633,379.572,174.8v45.666L340,243.34Z" transform="translate(-201.864 -104.147)" fill="url(#f)"/><path d="M0,141.433,39.572,118.6l39.572,22.833V187.1L39.572,209.973,0,187.1Z" transform="translate(0 -70.781)" fill="#f0f0f0"/><path d="M0,174.8l39.572,22.833V243.34L0,220.466Z" transform="translate(0 -104.147)" fill="url(#g)"/><path d="M97.4,197.633,136.972,174.8v45.666L97.4,243.34Z" transform="translate(-57.828 -104.147)" fill="url(#h)"/><path d="M39.572,118.6l39.572,22.833L39.572,164.266,0,141.433Z" transform="translate(0 -70.781)" fill="url(#i)"/></svg>