<svg xmlns="http://www.w3.org/2000/svg" width="198.521" height="27.092" viewBox="0 0 198.521 27.092">
  <g id="logo.d71c1de1" transform="translate(-6.006 -3.371)">
    <path id="Path_479332" data-name="Path 479332" d="M11.232,13.58v6.411a.524.524,0,0,0,.087.341c.077.127.348.274.256.224l6.983,3.826a.687.687,0,0,0,.646,0L25.763,20.9a.5.5,0,0,1,.471,0l2.147,1.129a.489.489,0,0,1,.191.177.469.469,0,0,1,.07.247v2.257a.458.458,0,0,1-.067.239.476.476,0,0,1-.183.173L19.135,30.4a.508.508,0,0,1-.483,0L6.262,23.879a.478.478,0,0,1-.188-.174.458.458,0,0,1-.068-.243V10.279a.468.468,0,0,1,.07-.247.488.488,0,0,1,.191-.176L18.675,3.422a.532.532,0,0,1,.454,0l9.253,4.362a.49.49,0,0,1,.2.176.469.469,0,0,1,.076.253v3.471a.474.474,0,0,1-.068.241.493.493,0,0,1-.183.176l-1.606.863a.509.509,0,0,1-.46,0L19.193,9.658a.67.67,0,0,0-.582,0l-6.983,3.335a.675.675,0,0,0-.285.238A.646.646,0,0,0,11.232,13.58Z" fill="#008eff"/>
    <path id="Path_479333" data-name="Path 479333" d="M22.64,16.916a3.675,3.675,0,0,1-.669,2.076,3.851,3.851,0,0,1-1.744,1.367,3.984,3.984,0,0,1-2.233.2,3.909,3.909,0,0,1-1.973-1.035A3.718,3.718,0,0,1,14.97,17.6a3.647,3.647,0,0,1,.226-2.164,3.781,3.781,0,0,1,1.426-1.679,3.956,3.956,0,0,1,3.634-.338,3.891,3.891,0,0,1,1.258.823,3.757,3.757,0,0,1,.837,1.228A3.666,3.666,0,0,1,22.64,16.916Z" fill="#008eff"/>
    <path id="Path_479334" data-name="Path 479334" d="M47.083,24.089H50.2V14.748l4.666,5.684,4.672-5.684v9.341h3.117V9.872h-2.8l-4.987,6.094L49.886,9.872h-2.8Z" fill="#fff"/>
    <path id="Path_479335" data-name="Path 479335" d="M69.317,24.089h3.111V19.014l5.505-9.142H74.3l-3.385,6.094h-.081L67.447,9.872H63.818l5.5,9.142Z" fill="#fff"/>
    <path id="Path_479336" data-name="Path 479336" d="M89.374,19.521a4.9,4.9,0,0,1-1.055,1.014,5.322,5.322,0,0,1-3.093,1.019,4.733,4.733,0,0,1-3.308-1.34,4.5,4.5,0,0,1,0-6.468,4.733,4.733,0,0,1,3.308-1.34,4.977,4.977,0,0,1,2.989,1.02,6.306,6.306,0,0,1,1.06,1.008L91.349,12.4a8.088,8.088,0,0,0-1.538-1.384,7.964,7.964,0,0,0-4.585-1.424,7.662,7.662,0,0,0-5.355,2.169,7.288,7.288,0,0,0,0,10.471A7.662,7.662,0,0,0,85.226,24.4a8.117,8.117,0,0,0,3.444-.733,7.942,7.942,0,0,0,2.783-2.115Z" fill="#fff"/>
    <path id="Path_479337" data-name="Path 479337" d="M100.208,24.32a7.374,7.374,0,1,0-7.487-7.374A7.431,7.431,0,0,0,100.208,24.32Zm0-2.809a4.565,4.565,0,1,0-4.589-4.565A4.577,4.577,0,0,0,100.208,21.511Z" fill="#fff" fill-rule="evenodd"/>
    <path id="Path_479338" data-name="Path 479338" d="M112.887,9.872h-3.111V24.094h3.111Z" fill="#fff"/>
    <path id="Path_479339" data-name="Path 479339" d="M116.035,24.089h3.111V15.255l7.061,8.834h2.8V9.872h-3.117v8.834l-7.055-8.834h-2.8Z" fill="#fff"/>
    <path id="Path_479340" data-name="Path 479340" d="M134.843,24.089h3.111V12.714h4.153V9.872H130.689v2.842h4.154Z" fill="#fff"/>
    <path id="Path_479341" data-name="Path 479341" d="M140.794,24.117h3.326l1.241-3.247h5.61l1.241,3.247h3.327L149.928,9.878h-3.495Zm5.61-5.992,1.718-4.671h.088l1.718,4.671Z" fill="#fff"/>
    <path id="Path_479342" data-name="Path 479342" d="M160.019,9.872h-3.111V24.094h3.111Z" fill="#fff"/>
    <path id="Path_479343" data-name="Path 479343" d="M163.167,24.089h3.111V15.255l7.061,8.834h2.8V9.872h-3.117v8.834l-7.055-8.834h-2.8Z" fill="#fff"/>
    <path id="Path_479344" data-name="Path 479344" d="M179.276,24.089h11.005V21.247h-7.888V18.2h6.018V15.46h-6.018V12.714h7.678V9.872H179.276Z" fill="#fff"/>
    <path id="Path_479345" data-name="Path 479345" d="M195.6,16.576v-3.85h3.216a2,2,0,0,1,1.4.566,1.9,1.9,0,0,1,0,2.731,2,2,0,0,1-1.4.566Zm-3.117,7.541H195.6v-4.67h2.913l2.592,4.67h3.42l-3.012-5.28a3.771,3.771,0,0,0,1.247-.854,4.482,4.482,0,0,0,.969-1.53,4.409,4.409,0,0,0,.278-1.779c0-2.848-1.969-4.773-5.086-4.773h-6.438Z" fill="#fff"/>
  </g>
</svg>
