<svg id="Logo.5434370508c7" xmlns="http://www.w3.org/2000/svg" width="403.652" height="71.762" viewBox="0 0 403.652 71.762">
  <path id="Path_479595" data-name="Path 479595" d="M8.45,7.6v8.559H0v4.659H.013V29.4H4.685V20.818h8.433V7.6Z" transform="translate(0 9.443)" fill="#fff"/>
  <path id="Path_479596" data-name="Path 479596" d="M35.762,14.967V23.53H27.316v4.655h.013v8.59H32v-8.59h8.437V14.967Z" transform="translate(33.942 18.597)" fill="#fff"/>
  <path id="Path_479597" data-name="Path 479597" d="M12.348,18.584v8.559H3.9V31.8h.013v8.59H8.583V31.8H17.02V18.584Z" transform="translate(4.849 23.091)" fill="#fff"/>
  <path id="Path_479598" data-name="Path 479598" d="M31.868,3.75v8.564h-8.45v4.655h.013v8.59H28.1v-8.59h8.433V3.75Z" transform="translate(29.098 4.66)" fill="#fff"/>
  <path id="Path_479599" data-name="Path 479599" d="M16.394,0V8.559h8.45v4.659h-.018v8.59H20.159v-8.59H11.727V0Z" transform="translate(14.571)" fill="#fff"/>
  <path id="Path_479600" data-name="Path 479600" d="M45.287,16.07H36.7V24.5H32.032v-.013H23.418V19.829h8.614V11.415H45.287Z" transform="translate(29.098 14.184)" fill="#fff"/>
  <path id="Path_479601" data-name="Path 479601" d="M21.869,19.84H13.282v8.427H8.614v-.018H0V23.595H8.614V15.186H21.869Z" transform="translate(0 18.869)" fill="#fff"/>
  <path id="Path_479602" data-name="Path 479602" d="M20.156,22.275v8.564H28.6v4.655h-.013v8.59H23.921v-8.59H15.484V22.275Z" transform="translate(19.24 27.678)" fill="#fff"/>
  <path id="Path_479603" data-name="Path 479603" d="M7.684,30.821h9.065v8.427h4.672v-.013h8.433V34.575H21.421V26.166H7.684Z" transform="translate(9.547 32.512)" fill="#fff"/>
  <path id="Path_479604" data-name="Path 479604" d="M19.609,26.934H28.2v8.422h4.668v-.013h8.809V30.689H32.864V22.275H19.609Z" transform="translate(24.365 27.678)" fill="#fff"/>
  <path id="Path_479605" data-name="Path 479605" d="M3.77,8.546h8.583v8.427H17.02v-.018h9.318V12.3H17.02V3.892H3.77Z" transform="translate(4.684 4.835)" fill="#fff"/>
  <path id="Path_479606" data-name="Path 479606" d="M23.943,13.081V4.655H15.484V0H28.611V8.409h9.428v4.659" transform="translate(19.24)" fill="#fff"/>
  <path id="Path_479607" data-name="Path 479607" d="M12.283,11.412H7.6v4.672h4.685Z" transform="translate(9.44 14.18)" fill="#fff"/>
  <path id="Path_479608" data-name="Path 479608" d="M28.1,18.787H23.418v4.672H28.1Z" transform="translate(29.098 23.344)" fill="#fff"/>
  <path id="Path_479609" data-name="Path 479609" d="M23.939,7.642H19.254v4.672h4.685Z" transform="translate(23.924 9.495)" fill="#fff"/>
  <path id="Path_479610" data-name="Path 479610" d="M16.412,22.275H11.727v4.672h4.685Z" transform="translate(14.571 27.678)" fill="#fff"/>
  <path id="Path_479611" data-name="Path 479611" d="M49.621,7.719V23.942L67.632,7.719h7.61L54.808,26.144,76.058,45.3h-7.61L49.621,28.4V45.3h-5.4V7.719Z" transform="translate(54.948 9.591)" fill="#fff"/>
  <path id="Path_479612" data-name="Path 479612" d="M79.811,39.93A7.86,7.86,0,0,0,85.6,37.911a7.78,7.78,0,0,0,2.028-5.766V20.876a9.5,9.5,0,0,0-.527-3.276,6.627,6.627,0,0,0-4-3.984,9.629,9.629,0,0,0-3.292-.524h-13.8V39.93ZM60.615,45.3V7.719h19.2a14.919,14.919,0,0,1,5.451.944,11.461,11.461,0,0,1,6.82,6.788,14.857,14.857,0,0,1,.948,5.425v11.27a14.857,14.857,0,0,1-.948,5.425,11.563,11.563,0,0,1-2.66,4.167,11.849,11.849,0,0,1-4.16,2.647,15.3,15.3,0,0,1-5.451.917Z" transform="translate(75.316 9.591)" fill="#fff"/>
  <path id="Path_479613" data-name="Path 479613" d="M84.331,7.719V39.93h19.407V45.3H78.933V7.719Z" transform="translate(98.077 9.591)" fill="#fff"/>
  <path id="Path_479614" data-name="Path 479614" d="M111.4,7.719,125.959,45.3h-5.4l-3.344-8.649H100.181L96.836,45.3h-5.4L106,7.719Zm-9.164,23.562h12.9l-6.425-16.564Z" transform="translate(113.615 9.591)" fill="#fff"/>
  <path id="Path_479615" data-name="Path 479615" d="M109.721,7.719h5.4V39.93h21.566V7.719h5.4V39.93a5.338,5.338,0,0,1-.422,2.1,5.372,5.372,0,0,1-2.9,2.857,5.213,5.213,0,0,1-2.081.419H115.119a5.389,5.389,0,0,1-2.106-.419,5.437,5.437,0,0,1-2.87-2.857,5.338,5.338,0,0,1-.422-2.1Z" transform="translate(136.333 9.591)" fill="#fff"/>
  <path id="Path_479616" data-name="Path 479616" d="M133.883,45.3h-5.4V7.719h5.4l22.7,29.144V7.719h5.4V45.3h-5.4l-22.7-29.144Z" transform="translate(159.648 9.591)" fill="#fff"/>
  <path id="Path_479617" data-name="Path 479617" d="M147.742,13.092a5.149,5.149,0,0,1,.422-2.07,5.064,5.064,0,0,1,1.159-1.7,5.449,5.449,0,0,1,1.711-1.153,5.128,5.128,0,0,1,2.106-.446h20.488a4.948,4.948,0,0,1,2.081.446,5.418,5.418,0,0,1,1.738,1.153,5.059,5.059,0,0,1,1.157,1.7,5.149,5.149,0,0,1,.422,2.07V17.94h-5.4V13.092H153.14V39.93h20.488V35.107h5.4V39.93a5.338,5.338,0,0,1-.422,2.1,5.372,5.372,0,0,1-2.9,2.857,5.213,5.213,0,0,1-2.081.419H153.14a5.416,5.416,0,0,1-4.976-3.276,5.338,5.338,0,0,1-.422-2.1Z" transform="translate(183.575 9.591)" fill="#fff"/>
  <path id="Path_479618" data-name="Path 479618" d="M197.958,7.719V45.3h-5.4V29.21H170.942V45.3h-5.4V7.719h5.4V23.837H192.56V7.719Z" transform="translate(205.695 9.591)" fill="#fff"/>
</svg>
