<svg xmlns="http://www.w3.org/2000/svg" width="309" height="307" viewBox="0 0 309 307">
  <g id="mandala" transform="translate(14572 -11761)">
    <g id="Group_9609" data-name="Group 9609" transform="translate(-14555.708 11784.845)">
      <g id="Group_9599" data-name="Group 9599" transform="translate(44.727 134.354)">
        <g id="Group_9596" data-name="Group 9596" transform="translate(77.08 5.094)">
          <g id="Group_9595" data-name="Group 9595">
            <path id="Path_474944" data-name="Path 474944" d="M47.592,50.066c3.382,4.6,6.664,9.143,10.43,13.451,6.784,7.765,14.54,14.134,24.625,17.182A85.336,85.336,0,0,0,99.6,83.65a1.072,1.072,0,0,1,1.049.585c3,5.715,4.65,11.71,3.873,18.221-.062.507-.143,1.014-.237,1.641a.162.162,0,0,1-.273.091,40.886,40.886,0,0,0-4.068-3.607c-4.728-3.561-9.929-5.982-15.924-6.222a17.815,17.815,0,0,0-17.636,12.054c-2.284,6.216-2.187,12.519-.666,18.871.075.309.153.617.208.933.026.146.007.331-.11.3a22.73,22.73,0,0,1-6.459-3.249,32.275,32.275,0,0,1-8.9-9.614c-.39-.621-.143-1.043.084-1.54a95.677,95.677,0,0,0,4.984-13.075c2.651-9.088,2.248-18.147-.123-27.205a137.955,137.955,0,0,0-7.681-20.489c-.159-.364-.3-.734-.452-1.1C47.17,49.972,47.468,49.858,47.592,50.066Z" transform="translate(-17.01 -35.65)" fill="#0fd297"/>
            <path id="Path_474945" data-name="Path 474945" d="M54.894,104.091a.451.451,0,0,1-.848.007c-3.1-8.532-7.311-16.2-10.813-24.19-2.31-5.267-4.481-10.586-5.283-16.343v0a.45.45,0,0,1,.634-.468,37.274,37.274,0,0,0,31.624-.055.451.451,0,0,1,.627.478,51.026,51.026,0,0,1-3.321,11.791c-2.746,7.031-6.245,13.724-9.315,20.606C57.026,98.529,55.934,101.173,54.894,104.091Z" transform="translate(-37.946 -6.321)" fill="#0fd297"/>
            <path id="Path_474946" data-name="Path 474946" d="M51.751,45.9a.562.562,0,0,1,1.043.01c.429,1.095.845,2.17,1.3,3.226,3.035,7.025,6.115,14.033,9.124,21.068.907,2.122,1.6,4.334,2.46,6.482.305.764.166,1.085-.611,1.378a34.805,34.805,0,0,1-25.49.039c-.8-.3-.845-.64-.591-1.391,2.6-7.678,6.092-14.988,9.276-22.422,1.2-2.785,2.326-5.6,3.49-8.389Z" transform="translate(-35.917 -45.555)" fill="#0fd297"/>
          </g>
          <path id="Path_474947" data-name="Path 474947" d="M113.884,60.892a.328.328,0,0,1,.325-.448,129.311,129.311,0,0,1,16.629,2.031c.731.146.715.611.793,1.1a62.76,62.76,0,0,1-.66,23.69c-2.066,9.419-5.978,17.965-12.532,25.116-10.014,10.927-22.637,15.632-37.284,14.865-13.4-.7-25.21-5.67-35.64-14.04a1.063,1.063,0,0,1-.413-1.4A127.821,127.821,0,0,1,51.578,96.6a0,0,0,0,1,0,0,.323.323,0,0,1,.543-.036c12.188,15.489,32.349,19.654,48.172,9.747C114.752,97.263,121.065,79.126,113.884,60.892Z" transform="translate(-22.084 -12.07)" fill="#0fd297"/>
        </g>
        <g id="Group_9598" data-name="Group 9598">
          <g id="Group_9597" data-name="Group 9597">
            <path id="Path_474948" data-name="Path 474948" d="M78.585,50.281C76.288,55.516,74,60.623,72.149,66.04,68.815,75.8,67.178,85.7,69.582,95.958a85.308,85.308,0,0,0,5.923,16.161,1.077,1.077,0,0,1,.02,1.2c-3.454,5.452-7.814,9.881-13.845,12.464-.471.2-.949.383-1.54.614a.161.161,0,0,1-.214-.192,40.631,40.631,0,0,0,1.088-5.329c.718-5.874.214-11.59-2.573-16.9a17.81,17.81,0,0,0-19.258-9.244c-6.524,1.131-11.934,4.364-16.675,8.86-.231.218-.461.442-.7.647-.114.1-.283.172-.315.055a22.555,22.555,0,0,1-.413-7.216,32.3,32.3,0,0,1,3.876-12.512c.341-.65.832-.647,1.374-.7a95.579,95.579,0,0,0,13.815-2.219c9.2-2.248,16.84-7.125,23.5-13.711a137.9,137.9,0,0,0,13.9-16.9c.234-.322.487-.627.731-.942C78.455,49.869,78.7,50.07,78.585,50.281Z" transform="translate(0.953 -30.469)" fill="#0fd297"/>
            <path id="Path_474949" data-name="Path 474949" d="M14.757,83.531a.451.451,0,0,1-.429-.731c5.842-6.947,10.378-14.433,15.544-21.461,3.405-4.633,6.927-9.172,11.512-12.746l0,0a.45.45,0,0,1,.721.312A37.269,37.269,0,0,0,57.968,76.259a.452.452,0,0,1-.1.783,50.965,50.965,0,0,1-11.872,3.018c-7.463,1.137-15.008,1.452-22.5,2.235C20.641,82.595,17.8,82.972,14.757,83.531Z" transform="translate(-14.222 -33.849)" fill="#0fd297"/>
            <path id="Path_474950" data-name="Path 474950" d="M63.729,43.993a.562.562,0,0,1,.513.907c-.734.92-1.456,1.816-2.144,2.739C57.533,53.779,53,59.949,48.413,66.074c-1.384,1.849-2.953,3.555-4.383,5.371-.51.647-.855.686-1.5.159A34.813,34.813,0,0,1,29.749,49.552c-.14-.848.13-1.053.907-1.205,7.951-1.586,16.025-2.216,24.057-3.178,3.012-.361,6.011-.786,9.016-1.176Z" transform="translate(20.621 -43.987)" fill="#0fd297"/>
          </g>
          <path id="Path_474951" data-name="Path 474951" d="M94.559,96.682a.328.328,0,0,1,.552.058,128.908,128.908,0,0,1,6.557,15.417c.24.708-.172.923-.562,1.241a62.755,62.755,0,0,1-20.847,11.275c-9.192,2.921-18.546,3.8-28.017,1.706-14.472-3.207-24.856-11.788-31.517-24.856-6.089-11.95-7.694-24.668-5.663-37.885a1.066,1.066,0,0,1,1-1.056,128.382,128.382,0,0,1,16.408-1.995h0a.323.323,0,0,1,.3.452c-7.32,18.3-.848,37.843,15.641,46.593C63.494,115.618,82.358,112.018,94.559,96.682Z" transform="translate(-14.208 -6.653)" fill="#0fd297"/>
        </g>
      </g>
      <g id="Group_9604" data-name="Group 9604" transform="translate(44.247 3.809)">
        <g id="Group_9601" data-name="Group 9601" transform="translate(0 0.527)">
          <g id="Group_9600" data-name="Group 9600" transform="translate(22.661 17.189)">
            <path id="Path_474952" data-name="Path 474952" d="M78.175,87.931c-3.382-4.6-6.664-9.143-10.43-13.452C60.961,66.714,53.205,60.346,43.12,57.3a85.334,85.334,0,0,0-16.957-2.95,1.072,1.072,0,0,1-1.049-.585c-3-5.715-4.65-11.71-3.873-18.221.062-.507.143-1.014.237-1.641a.162.162,0,0,1,.273-.091,40.882,40.882,0,0,0,4.068,3.607c4.728,3.561,9.929,5.982,15.924,6.222A17.815,17.815,0,0,0,59.379,31.584c2.284-6.216,2.187-12.519.666-18.871-.075-.309-.153-.617-.208-.933-.026-.146-.006-.331.11-.3a22.729,22.729,0,0,1,6.459,3.249,32.275,32.275,0,0,1,8.9,9.614c.39.621.143,1.043-.084,1.54A95.678,95.678,0,0,0,70.234,38.96c-2.651,9.088-2.248,18.147.123,27.205a137.958,137.958,0,0,0,7.681,20.489c.159.364.3.734.452,1.1C78.6,88.025,78.3,88.139,78.175,87.931Z" transform="translate(-21.049 -4.277)" fill="#0fd297"/>
            <path id="Path_474953" data-name="Path 474953" d="M53.864,9.562a.451.451,0,0,1,.848-.006c3.1,8.532,7.311,16.2,10.813,24.19,2.31,5.267,4.481,10.586,5.283,16.343v0a.45.45,0,0,1-.634.468,37.274,37.274,0,0,0-31.624.055.451.451,0,0,1-.627-.478,51.027,51.027,0,0,1,3.321-11.791C43.99,31.315,47.49,24.622,50.56,17.74,51.733,15.125,52.825,12.48,53.864,9.562Z" transform="translate(16.895 -9.261)" fill="#0fd297"/>
            <path id="Path_474954" data-name="Path 474954" d="M52.914,63.289a.562.562,0,0,1-1.043-.01c-.429-1.095-.845-2.17-1.3-3.226-3.035-7.025-6.115-14.033-9.124-21.068-.907-2.122-1.6-4.334-2.46-6.482-.305-.764-.166-1.085.611-1.378a34.805,34.805,0,0,1,25.49-.039c.8.3.845.64.591,1.391-2.6,7.678-6.092,14.988-9.276,22.422-1.2,2.785-2.326,5.6-3.49,8.389Z" transform="translate(18.96 34.434)" fill="#0fd297"/>
          </g>
          <path id="Path_474955" data-name="Path 474955" d="M32.644,70.409a.328.328,0,0,1-.325.448A129.308,129.308,0,0,1,15.69,68.827c-.731-.146-.715-.611-.793-1.1a62.761,62.761,0,0,1,.66-23.69c2.066-9.419,5.978-17.965,12.532-25.116C38.1,7.99,50.726,3.285,65.373,4.052c13.4.7,25.21,5.67,35.64,14.04a1.063,1.063,0,0,1,.413,1.4A127.824,127.824,0,0,1,94.95,34.7a0,0,0,0,1,0,0,.323.323,0,0,1-.543.036C82.217,19.248,62.056,15.083,46.232,24.989,31.777,34.038,25.464,52.175,32.644,70.409Z" transform="translate(-14.075 -3.971)" fill="#0fd297"/>
        </g>
        <g id="Group_9603" data-name="Group 9603" transform="translate(99.919)">
          <g id="Group_9602" data-name="Group 9602" transform="translate(2.544 24.938)">
            <path id="Path_474956" data-name="Path 474956" d="M47.308,87.614c2.3-5.234,4.585-10.342,6.437-15.758,3.334-9.76,4.971-19.661,2.567-29.918a85.307,85.307,0,0,0-5.923-16.161,1.077,1.077,0,0,1-.02-1.2c3.454-5.452,7.814-9.881,13.845-12.464.471-.2.949-.383,1.54-.614a.162.162,0,0,1,.214.192,40.632,40.632,0,0,0-1.088,5.329c-.718,5.874-.214,11.59,2.573,16.9a17.81,17.81,0,0,0,19.258,9.244c6.524-1.131,11.934-4.364,16.675-8.86.231-.218.461-.442.7-.647.114-.1.283-.172.315-.055a22.555,22.555,0,0,1,.413,7.216,32.3,32.3,0,0,1-3.876,12.512c-.341.65-.832.647-1.374.7a95.576,95.576,0,0,0-13.815,2.219c-9.2,2.248-16.84,7.125-23.5,13.711a137.906,137.906,0,0,0-13.9,16.9c-.234.322-.487.627-.731.942C47.438,88.027,47.191,87.825,47.308,87.614Z" transform="translate(-41.859 -11.484)" fill="#0fd297"/>
            <path id="Path_474957" data-name="Path 474957" d="M101.641,25.727a.451.451,0,0,1,.429.731c-5.842,6.947-10.378,14.433-15.544,21.461-3.405,4.633-6.927,9.172-11.512,12.746l0,0a.45.45,0,0,1-.721-.312A37.269,37.269,0,0,0,58.43,33a.452.452,0,0,1,.1-.783A50.965,50.965,0,0,1,70.4,29.2c7.463-1.137,15.008-1.452,22.5-2.235C95.757,26.663,98.6,26.286,101.641,25.727Z" transform="translate(-17.188 20.533)" fill="#0fd297"/>
            <path id="Path_474958" data-name="Path 474958" d="M46.247,60.376a.562.562,0,0,1-.513-.907c.734-.92,1.456-1.816,2.144-2.739,4.565-6.141,9.094-12.311,13.685-18.436,1.384-1.849,2.953-3.555,4.383-5.371.51-.647.855-.686,1.5-.159A34.813,34.813,0,0,1,80.227,54.817c.14.848-.13,1.053-.907,1.205C71.37,57.608,63.3,58.238,55.264,59.2c-3.012.361-6.011.786-9.016,1.176Z" transform="translate(-45.61 35.561)" fill="#0fd297"/>
          </g>
          <path id="Path_474959" data-name="Path 474959" d="M52.008,34.659a.328.328,0,0,1-.552-.058A128.907,128.907,0,0,1,44.9,19.184c-.24-.708.172-.923.562-1.241A62.755,62.755,0,0,1,66.307,6.668c9.192-2.921,18.546-3.8,28.017-1.706C108.8,8.169,119.181,16.75,125.841,29.818c6.089,11.95,7.694,24.668,5.663,37.885a1.066,1.066,0,0,1-1,1.056,128.381,128.381,0,0,1-16.408,1.995h0a.323.323,0,0,1-.3-.452c7.32-18.3.848-37.843-15.641-46.593C83.073,15.723,64.208,19.323,52.008,34.659Z" transform="translate(-44.827 -3.809)" fill="#0fd297"/>
        </g>
      </g>
      <g id="Group_9606" data-name="Group 9606" transform="translate(146.91 79.168)">
        <g id="Group_9605" data-name="Group 9605" transform="translate(0 21.182)">
          <path id="Path_474960" data-name="Path 474960" d="M51.866,62.392c5.68-.627,11.249-1.2,16.863-2.307,10.118-1.992,19.511-5.527,27.192-12.733A85.31,85.31,0,0,0,106.956,34.14a1.073,1.073,0,0,1,1.03-.617c6.446.266,12.467,1.826,17.718,5.758.409.305.806.63,1.3,1.027a.162.162,0,0,1-.058.283,40.865,40.865,0,0,0-5.16,1.719c-5.449,2.313-10.147,5.608-13.351,10.68a17.816,17.816,0,0,0,1.621,21.3c4.24,5.085,9.747,8.155,16.009,10.011.305.091.611.179.91.286.14.049.289.159.2.247a22.647,22.647,0,0,1-6.043,3.967,32.256,32.256,0,0,1-12.776,2.9c-.734.029-.975-.4-1.29-.842a95.528,95.528,0,0,0-8.831-10.852C91.7,73.166,83.65,68.984,74.617,66.512a138.283,138.283,0,0,0-21.584-3.594c-.4-.042-.786-.107-1.183-.162A.182.182,0,1,1,51.866,62.392Z" transform="translate(-32.192 -33.522)" fill="#0fd297"/>
          <path id="Path_474961" data-name="Path 474961" d="M102.2,82.533a.451.451,0,0,1-.419.738c-8.938-1.586-17.688-1.771-26.357-2.729-5.715-.634-11.408-1.413-16.795-3.594a0,0,0,0,1,0,0,.45.45,0,0,1-.088-.783A37.281,37.281,0,0,0,74.3,48.748a.452.452,0,0,1,.728-.305,50.741,50.741,0,0,1,8.549,8.773c4.718,5.894,8.763,12.269,13.188,18.371C98.452,77.906,100.2,80.177,102.2,82.533Z" transform="translate(-17.156 -0.178)" fill="#0fd297"/>
          <path id="Path_474962" data-name="Path 474962" d="M45.79,44.8a.561.561,0,0,1,.53-.9c1.163.175,2.3.354,3.444.487,7.6.884,15.209,1.719,22.809,2.635,2.291.276,4.555.78,6.843,1.111.816.117,1.02.4.89,1.218A34.8,34.8,0,0,1,67.595,71.448c-.663.543-.975.413-1.5-.182-5.348-6.1-9.933-12.769-14.78-19.248-1.82-2.43-3.688-4.812-5.527-7.22Z" transform="translate(-45.672 -10.191)" fill="#0fd297"/>
        </g>
        <path id="Path_474963" data-name="Path 474963" d="M70.513,41.242a.33.33,0,0,1-.227-.507A128.747,128.747,0,0,1,80.358,27.349c.494-.562.887-.312,1.355-.133A62.766,62.766,0,0,1,101.9,39.63c7.125,6.5,12.568,14.16,15.485,23.413,4.458,14.137,2.219,27.423-5.767,39.724-7.3,11.249-17.516,19-29.977,23.846a1.065,1.065,0,0,1-1.417-.341,128.341,128.341,0,0,1-9.933-13.211l0,0a.323.323,0,0,1,.237-.487c19.508-2.811,33.2-18.186,32.527-36.842C102.446,58.677,89.894,44.14,70.513,41.242Z" transform="translate(9.567 -27.002)" fill="#0fd297"/>
      </g>
      <g id="Group_9608" data-name="Group 9608" transform="translate(0.66 75.426)">
        <g id="Group_9607" data-name="Group 9607" transform="translate(34.199)">
          <path id="Path_474964" data-name="Path 474964" d="M86.525,62.83c-5.68.627-11.249,1.2-16.863,2.307C59.544,67.129,50.151,70.664,42.47,77.871A85.308,85.308,0,0,0,31.436,91.082a1.073,1.073,0,0,1-1.03.617c-6.446-.266-12.467-1.826-17.718-5.758-.409-.305-.806-.63-1.3-1.027a.162.162,0,0,1,.058-.283,40.866,40.866,0,0,0,5.16-1.719c5.449-2.313,10.147-5.608,13.351-10.68a17.816,17.816,0,0,0-1.621-21.3c-4.24-5.085-9.747-8.155-16.009-10.011-.305-.091-.611-.179-.91-.286-.14-.049-.289-.159-.2-.247a22.647,22.647,0,0,1,6.043-3.967,32.256,32.256,0,0,1,12.776-2.9c.734-.029.975.4,1.29.842A95.525,95.525,0,0,0,40.15,45.217c6.544,6.839,14.592,11.021,23.625,13.494A138.284,138.284,0,0,0,85.359,62.3c.4.042.786.107,1.183.162A.182.182,0,1,1,86.525,62.83Z" transform="translate(-11.185 -8.598)" fill="#0fd297"/>
          <path id="Path_474965" data-name="Path 474965" d="M14.33,26.6a.451.451,0,0,1,.419-.738c8.938,1.586,17.688,1.771,26.357,2.729C46.821,29.221,52.514,30,57.9,32.181a0,0,0,0,1,0,0,.45.45,0,0,1,.088.783A37.281,37.281,0,0,0,42.227,60.38a.452.452,0,0,1-.728.305,50.741,50.741,0,0,1-8.549-8.773c-4.718-5.894-8.763-12.269-13.188-18.371C18.079,31.225,16.334,28.954,14.33,26.6Z" transform="translate(-4.359 -25.851)" fill="#0fd297"/>
          <path id="Path_474966" data-name="Path 474966" d="M64.31,59.461a.561.561,0,0,1-.53.9c-1.163-.175-2.3-.354-3.444-.487-7.6-.884-15.209-1.719-22.809-2.635-2.291-.276-4.555-.78-6.843-1.111-.816-.117-1.02-.4-.89-1.218A34.8,34.8,0,0,1,42.5,32.812c.663-.543.975-.413,1.5.182,5.348,6.1,9.933,12.769,14.78,19.248,1.82,2.427,3.688,4.812,5.527,7.22Z" transform="translate(30.587 -10.967)" fill="#0fd297"/>
        </g>
        <path id="Path_474967" data-name="Path 474967" d="M49.794,112.752a.33.33,0,0,1,.227.507,128.743,128.743,0,0,1-10.072,13.387c-.494.562-.887.312-1.355.133a62.766,62.766,0,0,1-20.187-12.415C11.282,107.866,5.84,100.2,2.922,90.95-1.536,76.813.7,63.528,8.689,51.226c7.3-11.249,17.516-19,29.977-23.846a1.065,1.065,0,0,1,1.417.341,128.345,128.345,0,0,1,9.933,13.211l0,0a.323.323,0,0,1-.237.487c-19.508,2.811-33.2,18.189-32.527,36.845C17.861,95.317,30.413,109.854,49.794,112.752Z" transform="translate(-0.66 -22.708)" fill="#0fd297"/>
      </g>
    </g>
    <rect id="Rectangle_1563" data-name="Rectangle 1563" width="309" height="307" transform="translate(-14572 11761)" fill="none"/>
  </g>
</svg>
