<svg width="46" height="46" viewBox="0 0 46 46" fill="none" xmlns="http://www.w3.org/2000/svg">
<path fill-rule="evenodd" clip-rule="evenodd" d="M2.90625 14.0489C2.90625 12.1033 4.48346 10.5261 6.42904 10.5261H17.702C19.6476 10.5261 21.2248 12.1033 21.2248 14.0489V21.0945C21.2248 23.0401 19.6476 24.6173 17.702 24.6173H6.42904C4.48346 24.6173 2.90625 23.0401 2.90625 21.0945V14.0489ZM25.4521 16.8671C25.4521 14.9216 27.0293 13.3444 28.9749 13.3444H38.8387C40.7843 13.3444 42.3615 14.9216 42.3615 16.8671V32.3674C42.3615 34.313 40.7843 35.8902 38.8387 35.8902H28.9749C27.0293 35.8902 25.4521 34.313 25.4521 32.3674V16.8671ZM5.72448 30.9583C5.72448 29.0127 7.30169 27.4355 9.24728 27.4355H19.1111C21.0567 27.4355 22.6339 29.0127 22.6339 30.9583V35.1857C22.6339 37.1313 21.0567 38.7085 19.1111 38.7085H9.24728C7.30169 38.7085 5.72448 37.1313 5.72448 35.1857V30.9583Z" fill="#2B61D1"/>
</svg>
