<svg xmlns="http://www.w3.org/2000/svg" xmlns:xlink="http://www.w3.org/1999/xlink" width="74" height="74" viewBox="0 0 74 74"><defs><clipPath id="a"><path d="M0,0H74V74H0Z" transform="translate(-5947 -2070)" fill="#4e4c4c" opacity="0.43" clip-rule="evenodd"/></clipPath></defs><g transform="translate(5947 2070)" clip-path="url(#a)"><g transform="translate(-107.058 133.381)"><path d="M57.95,21.069a2.63,2.63,0,0,0-2.679-.166,20.121,20.121,0,0,1-6.841,1.467,30.9,30.9,0,0,1-7.859-1.623c-5.566-1.625-7.494-2.009-11.762-1.459a2.487,2.487,0,0,0-2.165,2.47v24.9a2.487,2.487,0,0,0,2.772,2.47c3.739-.429,5.48-.065,10.681,1.457a32.022,32.022,0,0,0,8.333,1.693,23.359,23.359,0,0,0,8.422-1.91c1.114-.424,2.122-.995,2.122-2.533V23.1a2.487,2.487,0,0,0-1.025-2.033Z" transform="translate(-5842.184 -2203.903)" fill="#709af2"/><path d="M19.487,17A2.487,2.487,0,0,0,17,19.487V54.3a2.487,2.487,0,1,0,4.974,0V19.487A2.487,2.487,0,0,0,19.487,17Z" transform="translate(-5840 -2203.438)" fill="#aec6f7"/></g></g></svg>