<svg xmlns="http://www.w3.org/2000/svg" xmlns:xlink="http://www.w3.org/1999/xlink" width="1942" height="2307" viewBox="0 0 1942 2307"><defs><clipPath id="a"><rect width="1942" height="2307" transform="translate(-23723 -13446)" fill="#fff" stroke="#707070" stroke-width="1"/></clipPath></defs><g transform="translate(23723 13446)" clip-path="url(#a)"><g transform="translate(-36565.219 -30943.855) rotate(-45)"><g transform="translate(-2800.304 21242.996)"><path d="M251.271,232.456l-53.12,30.691L84.03,197.271l51.825-29.93,1.295-.761,1.98,1.142Z" transform="translate(-84.03 -166.58)" fill="none" stroke="#e9eaf2" stroke-width="2"/></g><g transform="translate(-1436.322 21242.996)"><path d="M251.271,232.456l-53.12,30.691L84.03,197.271l51.825-29.93,1.295-.761,1.98,1.142Z" transform="translate(-84.03 -166.58)" fill="none" stroke="#e9eaf2" stroke-width="2"/></g><g transform="translate(-2800.304 21637.402)"><path d="M251.271,232.456l-53.12,30.691L84.03,197.271l51.825-29.93,1.295-.761,1.98,1.142Z" transform="translate(-84.03 -166.58)" fill="none" stroke="#e9eaf2" stroke-width="2"/></g><g transform="translate(-1436.322 21637.402)"><path d="M251.271,232.456l-53.12,30.691L84.03,197.271l51.825-29.93,1.295-.761,1.98,1.142Z" transform="translate(-84.03 -166.58)" fill="none" stroke="#e9eaf2" stroke-width="2"/></g><g transform="translate(-2800.304 21440.197)"><path d="M251.271,232.456l-53.12,30.691L84.03,197.271l51.825-29.93,1.295-.761,1.98,1.142Z" transform="translate(-84.03 -166.58)" fill="none" stroke="#e9eaf2" stroke-width="2"/></g><g transform="translate(-1436.322 21440.197)"><path d="M251.271,232.456l-53.12,30.691L84.03,197.271l51.825-29.93,1.295-.761,1.98,1.142Z" transform="translate(-84.03 -166.58)" fill="none" stroke="#e9eaf2" stroke-width="2"/></g><g transform="translate(-2800.304 21834.602)"><path d="M251.271,232.456l-53.12,30.691L84.03,197.271l51.825-29.93,1.295-.761,1.98,1.142Z" transform="translate(-84.03 -166.58)" fill="none" stroke="#e9eaf2" stroke-width="2"/></g><g transform="translate(-1436.322 21834.602)"><path d="M251.271,232.456l-53.12,30.691L84.03,197.271l51.825-29.93,1.295-.761,1.98,1.142Z" transform="translate(-84.03 -166.58)" fill="none" stroke="#e9eaf2" stroke-width="2"/></g><g transform="translate(-3482.295 21242.996)"><path d="M251.271,232.456l-53.12,30.691L84.03,197.271l51.825-29.93,1.295-.761,1.98,1.142Z" transform="translate(-84.03 -166.58)" fill="none" stroke="#e9eaf2" stroke-width="2"/></g><g transform="translate(-2118.313 21242.996)"><path d="M251.271,232.456l-53.12,30.691L84.03,197.271l51.825-29.93,1.295-.761,1.98,1.142Z" transform="translate(-84.03 -166.58)" fill="none" stroke="#e9eaf2" stroke-width="2"/></g><g transform="translate(-3482.295 21637.402)"><path d="M251.271,232.456l-53.12,30.691L84.03,197.271l51.825-29.93,1.295-.761,1.98,1.142Z" transform="translate(-84.03 -166.58)" fill="none" stroke="#e9eaf2" stroke-width="2"/></g><g transform="translate(-2118.313 21637.402)"><path d="M251.271,232.456l-53.12,30.691L84.03,197.271l51.825-29.93,1.295-.761,1.98,1.142Z" transform="translate(-84.03 -166.58)" fill="none" stroke="#e9eaf2" stroke-width="2"/></g><g transform="translate(-3482.295 21440.197)"><path d="M251.271,232.456l-53.12,30.691L84.03,197.271l51.825-29.93,1.295-.761,1.98,1.142Z" transform="translate(-84.03 -166.58)" fill="none" stroke="#e9eaf2" stroke-width="2"/></g><g transform="translate(-2118.313 21440.197)"><path d="M251.271,232.456l-53.12,30.691L84.03,197.271l51.825-29.93,1.295-.761,1.98,1.142Z" transform="translate(-84.03 -166.58)" fill="none" stroke="#e9eaf2" stroke-width="2"/></g><g transform="translate(-3482.295 21834.602)"><path d="M251.271,232.456l-53.12,30.691L84.03,197.271l51.825-29.93,1.295-.761,1.98,1.142Z" transform="translate(-84.03 -166.58)" fill="none" stroke="#e9eaf2" stroke-width="2"/></g><g transform="translate(-2118.313 21834.602)"><path d="M251.271,232.456l-53.12,30.691L84.03,197.271l51.825-29.93,1.295-.761,1.98,1.142Z" transform="translate(-84.03 -166.58)" fill="none" stroke="#e9eaf2" stroke-width="2"/></g><g transform="translate(-3137.191 21242.996)"><path d="M251.271,232.456l-53.12,30.691L84.03,197.271l51.825-29.93,1.295-.761,1.98,1.142Z" transform="translate(-84.03 -166.58)" fill="none" stroke="#e9eaf2" stroke-width="2"/></g><g transform="translate(-1773.209 21242.996)"><path d="M251.271,232.456l-53.12,30.691L84.03,197.271l51.825-29.93,1.295-.761,1.98,1.142Z" transform="translate(-84.03 -166.58)" fill="none" stroke="#e9eaf2" stroke-width="2"/></g><g transform="translate(-3137.191 21637.402)"><path d="M251.271,232.456l-53.12,30.691L84.03,197.271l51.825-29.93,1.295-.761,1.98,1.142Z" transform="translate(-84.03 -166.58)" fill="none" stroke="#e9eaf2" stroke-width="2"/></g><g transform="translate(-1773.209 21637.402)"><path d="M251.271,232.456l-53.12,30.691L84.03,197.271l51.825-29.93,1.295-.761,1.98,1.142Z" transform="translate(-84.03 -166.58)" fill="none" stroke="#e9eaf2" stroke-width="2"/></g><g transform="translate(-3137.191 21440.197)"><path d="M251.271,232.456l-53.12,30.691L84.03,197.271l51.825-29.93,1.295-.761,1.98,1.142Z" transform="translate(-84.03 -166.58)" fill="none" stroke="#e9eaf2" stroke-width="2"/></g><g transform="translate(-1773.209 21440.197)"><path d="M251.271,232.456l-53.12,30.691L84.03,197.271l51.825-29.93,1.295-.761,1.98,1.142Z" transform="translate(-84.03 -166.58)" fill="none" stroke="#e9eaf2" stroke-width="2"/></g><g transform="translate(-3137.191 21834.602)"><path d="M251.271,232.456l-53.12,30.691L84.03,197.271l51.825-29.93,1.295-.761,1.98,1.142Z" transform="translate(-84.03 -166.58)" fill="none" stroke="#e9eaf2" stroke-width="2"/></g><g transform="translate(-1773.209 21834.602)"><path d="M251.271,232.456l-53.12,30.691L84.03,197.271l51.825-29.93,1.295-.761,1.98,1.142Z" transform="translate(-84.03 -166.58)" fill="none" stroke="#e9eaf2" stroke-width="2"/></g><g transform="translate(-3819.182 21242.996)"><path d="M251.271,232.456l-53.12,30.691L84.03,197.271l51.825-29.93,1.295-.761,1.98,1.142Z" transform="translate(-84.03 -166.58)" fill="none" stroke="#e9eaf2" stroke-width="2"/></g><g transform="translate(-2455.2 21242.996)"><path d="M251.271,232.456l-53.12,30.691L84.03,197.271l51.825-29.93,1.295-.761,1.98,1.142Z" transform="translate(-84.03 -166.58)" fill="none" stroke="#e9eaf2" stroke-width="2"/></g><g transform="translate(-3819.182 21637.402)"><path d="M251.271,232.456l-53.12,30.691L84.03,197.271l51.825-29.93,1.295-.761,1.98,1.142Z" transform="translate(-84.03 -166.58)" fill="none" stroke="#e9eaf2" stroke-width="2"/></g><g transform="translate(-2455.2 21637.402)"><path d="M251.271,232.456l-53.12,30.691L84.03,197.271l51.825-29.93,1.295-.761,1.98,1.142Z" transform="translate(-84.03 -166.58)" fill="none" stroke="#e9eaf2" stroke-width="2"/></g><g transform="translate(-3819.182 21440.197)"><path d="M251.271,232.456l-53.12,30.691L84.03,197.271l51.825-29.93,1.295-.761,1.98,1.142Z" transform="translate(-84.03 -166.58)" fill="none" stroke="#e9eaf2" stroke-width="2"/></g><g transform="translate(-2455.2 21440.197)"><path d="M251.271,232.456l-53.12,30.691L84.03,197.271l51.825-29.93,1.295-.761,1.98,1.142Z" transform="translate(-84.03 -166.58)" fill="none" stroke="#e9eaf2" stroke-width="2"/></g><g transform="translate(-3819.182 21834.602)"><path d="M251.271,232.456l-53.12,30.691L84.03,197.271l51.825-29.93,1.295-.761,1.98,1.142Z" transform="translate(-84.03 -166.58)" fill="none" stroke="#e9eaf2" stroke-width="2"/></g><g transform="translate(-2455.2 21834.602)"><path d="M251.271,232.456l-53.12,30.691L84.03,197.271l51.825-29.93,1.295-.761,1.98,1.142Z" transform="translate(-84.03 -166.58)" fill="none" stroke="#e9eaf2" stroke-width="2"/></g><g transform="translate(-2623.644 21242.996)"><path d="M251.271,232.456l-53.12,30.691L84.03,197.271l51.825-29.93,1.295-.761,1.98,1.142Z" transform="translate(-84.03 -166.58)" fill="none" stroke="#e9eaf2" stroke-width="2"/></g><g transform="translate(-1259.662 21242.996)"><path d="M251.271,232.456l-53.12,30.691L84.03,197.271l51.825-29.93,1.295-.761,1.98,1.142Z" transform="translate(-84.03 -166.58)" fill="none" stroke="#e9eaf2" stroke-width="2"/></g><g transform="translate(-2623.644 21637.402)"><path d="M251.271,232.456l-53.12,30.691L84.03,197.271l51.825-29.93,1.295-.761,1.98,1.142Z" transform="translate(-84.03 -166.58)" fill="none" stroke="#e9eaf2" stroke-width="2"/></g><g transform="translate(-1259.662 21637.402)"><path d="M251.271,232.456l-53.12,30.691L84.03,197.271l51.825-29.93,1.295-.761,1.98,1.142Z" transform="translate(-84.03 -166.58)" fill="none" stroke="#e9eaf2" stroke-width="2"/></g><g transform="translate(-2623.644 21440.197)"><path d="M251.271,232.456l-53.12,30.691L84.03,197.271l51.825-29.93,1.295-.761,1.98,1.142Z" transform="translate(-84.03 -166.58)" fill="none" stroke="#e9eaf2" stroke-width="2"/></g><g transform="translate(-1259.662 21440.197)"><path d="M251.271,232.456l-53.12,30.691L84.03,197.271l51.825-29.93,1.295-.761,1.98,1.142Z" transform="translate(-84.03 -166.58)" fill="none" stroke="#e9eaf2" stroke-width="2"/></g><g transform="translate(-2623.644 21834.602)"><path d="M251.271,232.456l-53.12,30.691L84.03,197.271l51.825-29.93,1.295-.761,1.98,1.142Z" transform="translate(-84.03 -166.58)" fill="none" stroke="#e9eaf2" stroke-width="2"/></g><g transform="translate(-1259.662 21834.602)"><path d="M251.271,232.456l-53.12,30.691L84.03,197.271l51.825-29.93,1.295-.761,1.98,1.142Z" transform="translate(-84.03 -166.58)" fill="none" stroke="#e9eaf2" stroke-width="2"/></g><g transform="translate(-3305.635 21242.996)"><path d="M251.271,232.456l-53.12,30.691L84.03,197.271l51.825-29.93,1.295-.761,1.98,1.142Z" transform="translate(-84.03 -166.58)" fill="none" stroke="#e9eaf2" stroke-width="2"/></g><g transform="translate(-1941.653 21242.996)"><path d="M251.271,232.456l-53.12,30.691L84.03,197.271l51.825-29.93,1.295-.761,1.98,1.142Z" transform="translate(-84.03 -166.58)" fill="none" stroke="#e9eaf2" stroke-width="2"/></g><g transform="translate(-3305.635 21637.402)"><path d="M251.271,232.456l-53.12,30.691L84.03,197.271l51.825-29.93,1.295-.761,1.98,1.142Z" transform="translate(-84.03 -166.58)" fill="none" stroke="#e9eaf2" stroke-width="2"/></g><g transform="translate(-1941.653 21637.402)"><path d="M251.271,232.456l-53.12,30.691L84.03,197.271l51.825-29.93,1.295-.761,1.98,1.142Z" transform="translate(-84.03 -166.58)" fill="none" stroke="#e9eaf2" stroke-width="2"/></g><g transform="translate(-3305.635 21440.197)"><path d="M251.271,232.456l-53.12,30.691L84.03,197.271l51.825-29.93,1.295-.761,1.98,1.142Z" transform="translate(-84.03 -166.58)" fill="none" stroke="#e9eaf2" stroke-width="2"/></g><g transform="translate(-1941.653 21440.197)"><path d="M251.271,232.456l-53.12,30.691L84.03,197.271l51.825-29.93,1.295-.761,1.98,1.142Z" transform="translate(-84.03 -166.58)" fill="none" stroke="#e9eaf2" stroke-width="2"/></g><g transform="translate(-3305.635 21834.602)"><path d="M251.271,232.456l-53.12,30.691L84.03,197.271l51.825-29.93,1.295-.761,1.98,1.142Z" transform="translate(-84.03 -166.58)" fill="none" stroke="#e9eaf2" stroke-width="2"/></g><g transform="translate(-1941.653 21834.602)"><path d="M251.271,232.456l-53.12,30.691L84.03,197.271l51.825-29.93,1.295-.761,1.98,1.142Z" transform="translate(-84.03 -166.58)" fill="none" stroke="#e9eaf2" stroke-width="2"/></g><g transform="translate(-2960.531 21242.996)"><path d="M251.271,232.456l-53.12,30.691L84.03,197.271l51.825-29.93,1.295-.761,1.98,1.142Z" transform="translate(-84.03 -166.58)" fill="none" stroke="#e9eaf2" stroke-width="2"/></g><g transform="translate(-1596.549 21242.996)"><path d="M251.271,232.456l-53.12,30.691L84.03,197.271l51.825-29.93,1.295-.761,1.98,1.142Z" transform="translate(-84.03 -166.58)" fill="none" stroke="#e9eaf2" stroke-width="2"/></g><g transform="translate(-2960.531 21637.402)"><path d="M251.271,232.456l-53.12,30.691L84.03,197.271l51.825-29.93,1.295-.761,1.98,1.142Z" transform="translate(-84.03 -166.58)" fill="none" stroke="#e9eaf2" stroke-width="2"/></g><g transform="translate(-1596.549 21637.402)"><path d="M251.271,232.456l-53.12,30.691L84.03,197.271l51.825-29.93,1.295-.761,1.98,1.142Z" transform="translate(-84.03 -166.58)" fill="none" stroke="#e9eaf2" stroke-width="2"/></g><g transform="translate(-2960.531 21440.197)"><path d="M251.271,232.456l-53.12,30.691L84.03,197.271l51.825-29.93,1.295-.761,1.98,1.142Z" transform="translate(-84.03 -166.58)" fill="none" stroke="#e9eaf2" stroke-width="2"/></g><g transform="translate(-1596.549 21440.197)"><path d="M251.271,232.456l-53.12,30.691L84.03,197.271l51.825-29.93,1.295-.761,1.98,1.142Z" transform="translate(-84.03 -166.58)" fill="none" stroke="#e9eaf2" stroke-width="2"/></g><g transform="translate(-2960.531 21834.602)"><path d="M251.271,232.456l-53.12,30.691L84.03,197.271l51.825-29.93,1.295-.761,1.98,1.142Z" transform="translate(-84.03 -166.58)" fill="none" stroke="#e9eaf2" stroke-width="2"/></g><g transform="translate(-1596.549 21834.602)"><path d="M251.271,232.456l-53.12,30.691L84.03,197.271l51.825-29.93,1.295-.761,1.98,1.142Z" transform="translate(-84.03 -166.58)" fill="none" stroke="#e9eaf2" stroke-width="2"/></g><g transform="translate(-3642.522 21242.996)"><path d="M251.271,232.456l-53.12,30.691L84.03,197.271l51.825-29.93,1.295-.761,1.98,1.142Z" transform="translate(-84.03 -166.58)" fill="none" stroke="#e9eaf2" stroke-width="2"/></g><g transform="translate(-2278.54 21242.996)"><path d="M251.271,232.456l-53.12,30.691L84.03,197.271l51.825-29.93,1.295-.761,1.98,1.142Z" transform="translate(-84.03 -166.58)" fill="none" stroke="#e9eaf2" stroke-width="2"/></g><g transform="translate(-3642.522 21637.402)"><path d="M251.271,232.456l-53.12,30.691L84.03,197.271l51.825-29.93,1.295-.761,1.98,1.142Z" transform="translate(-84.03 -166.58)" fill="none" stroke="#e9eaf2" stroke-width="2"/></g><g transform="translate(-2278.54 21637.402)"><path d="M251.271,232.456l-53.12,30.691L84.03,197.271l51.825-29.93,1.295-.761,1.98,1.142Z" transform="translate(-84.03 -166.58)" fill="none" stroke="#e9eaf2" stroke-width="2"/></g><g transform="translate(-3642.522 21440.197)"><path d="M251.271,232.456l-53.12,30.691L84.03,197.271l51.825-29.93,1.295-.761,1.98,1.142Z" transform="translate(-84.03 -166.58)" fill="none" stroke="#e9eaf2" stroke-width="2"/></g><g transform="translate(-2278.54 21440.197)"><path d="M251.271,232.456l-53.12,30.691L84.03,197.271l51.825-29.93,1.295-.761,1.98,1.142Z" transform="translate(-84.03 -166.58)" fill="none" stroke="#e9eaf2" stroke-width="2"/></g><g transform="translate(-3642.522 21834.602)"><path d="M251.271,232.456l-53.12,30.691L84.03,197.271l51.825-29.93,1.295-.761,1.98,1.142Z" transform="translate(-84.03 -166.58)" fill="none" stroke="#e9eaf2" stroke-width="2"/></g><g transform="translate(-2278.54 21834.602)"><path d="M251.271,232.456l-53.12,30.691L84.03,197.271l51.825-29.93,1.295-.761,1.98,1.142Z" transform="translate(-84.03 -166.58)" fill="none" stroke="#e9eaf2" stroke-width="2"/></g><g transform="translate(-2968.748 21144.395)"><path d="M251.271,232.456l-53.12,30.691L84.03,197.271l51.825-29.93,1.295-.761,1.98,1.142Z" transform="translate(-84.03 -166.58)" fill="none" stroke="#e9eaf2" stroke-width="2"/></g><g transform="translate(-1604.766 21144.395)"><path d="M251.271,232.456l-53.12,30.691L84.03,197.271l51.825-29.93,1.295-.761,1.98,1.142Z" transform="translate(-84.03 -166.58)" fill="none" stroke="#e9eaf2" stroke-width="2"/></g><g transform="translate(-2968.748 21538.799)"><path d="M251.271,232.456l-53.12,30.691L84.03,197.271l51.825-29.93,1.295-.761,1.98,1.142Z" transform="translate(-84.03 -166.58)" fill="none" stroke="#e9eaf2" stroke-width="2"/></g><g transform="translate(-1604.766 21538.799)"><path d="M251.271,232.456l-53.12,30.691L84.03,197.271l51.825-29.93,1.295-.761,1.98,1.142Z" transform="translate(-84.03 -166.58)" fill="none" stroke="#e9eaf2" stroke-width="2"/></g><g transform="translate(-2968.748 21341.6)"><path d="M251.271,232.456l-53.12,30.691L84.03,197.271l51.825-29.93,1.295-.761,1.98,1.142Z" transform="translate(-84.03 -166.58)" fill="none" stroke="#e9eaf2" stroke-width="2"/></g><g transform="translate(-1604.766 21341.6)"><path d="M251.271,232.456l-53.12,30.691L84.03,197.271l51.825-29.93,1.295-.761,1.98,1.142Z" transform="translate(-84.03 -166.58)" fill="none" stroke="#e9eaf2" stroke-width="2"/></g><g transform="translate(-2968.748 21736)"><path d="M251.271,232.456l-53.12,30.691L84.03,197.271l51.825-29.93,1.295-.761,1.98,1.142Z" transform="translate(-84.03 -166.58)" fill="none" stroke="#e9eaf2" stroke-width="2"/></g><g transform="translate(-1604.766 21736)"><path d="M251.271,232.456l-53.12,30.691L84.03,197.271l51.825-29.93,1.295-.761,1.98,1.142Z" transform="translate(-84.03 -166.58)" fill="none" stroke="#e9eaf2" stroke-width="2"/></g><g transform="translate(-3650.739 21144.395)"><path d="M251.271,232.456l-53.12,30.691L84.03,197.271l51.825-29.93,1.295-.761,1.98,1.142Z" transform="translate(-84.03 -166.58)" fill="none" stroke="#e9eaf2" stroke-width="2"/></g><g transform="translate(-2286.757 21144.395)"><path d="M251.271,232.456l-53.12,30.691L84.03,197.271l51.825-29.93,1.295-.761,1.98,1.142Z" transform="translate(-84.03 -166.58)" fill="none" stroke="#e9eaf2" stroke-width="2"/></g><g transform="translate(-3650.739 21538.799)"><path d="M251.271,232.456l-53.12,30.691L84.03,197.271l51.825-29.93,1.295-.761,1.98,1.142Z" transform="translate(-84.03 -166.58)" fill="none" stroke="#e9eaf2" stroke-width="2"/></g><g transform="translate(-2286.757 21538.799)"><path d="M251.271,232.456l-53.12,30.691L84.03,197.271l51.825-29.93,1.295-.761,1.98,1.142Z" transform="translate(-84.03 -166.58)" fill="none" stroke="#e9eaf2" stroke-width="2"/></g><g transform="translate(-3650.739 21341.6)"><path d="M251.271,232.456l-53.12,30.691L84.03,197.271l51.825-29.93,1.295-.761,1.98,1.142Z" transform="translate(-84.03 -166.58)" fill="none" stroke="#e9eaf2" stroke-width="2"/></g><g transform="translate(-2286.757 21341.6)"><path d="M251.271,232.456l-53.12,30.691L84.03,197.271l51.825-29.93,1.295-.761,1.98,1.142Z" transform="translate(-84.03 -166.58)" fill="none" stroke="#e9eaf2" stroke-width="2"/></g><g transform="translate(-3650.739 21736)"><path d="M251.271,232.456l-53.12,30.691L84.03,197.271l51.825-29.93,1.295-.761,1.98,1.142Z" transform="translate(-84.03 -166.58)" fill="none" stroke="#e9eaf2" stroke-width="2"/></g><g transform="translate(-2286.757 21736)"><path d="M251.271,232.456l-53.12,30.691L84.03,197.271l51.825-29.93,1.295-.761,1.98,1.142Z" transform="translate(-84.03 -166.58)" fill="none" stroke="#e9eaf2" stroke-width="2"/></g><g transform="translate(-3305.635 21144.395)"><path d="M251.271,232.456l-53.12,30.691L84.03,197.271l51.825-29.93,1.295-.761,1.98,1.142Z" transform="translate(-84.03 -166.58)" fill="none" stroke="#e9eaf2" stroke-width="2"/></g><g transform="translate(-1941.653 21144.395)"><path d="M251.271,232.456l-53.12,30.691L84.03,197.271l51.825-29.93,1.295-.761,1.98,1.142Z" transform="translate(-84.03 -166.58)" fill="none" stroke="#e9eaf2" stroke-width="2"/></g><g transform="translate(-3305.635 21538.799)"><path d="M251.271,232.456l-53.12,30.691L84.03,197.271l51.825-29.93,1.295-.761,1.98,1.142Z" transform="translate(-84.03 -166.58)" fill="none" stroke="#e9eaf2" stroke-width="2"/></g><g transform="translate(-1941.653 21538.799)"><path d="M251.271,232.456l-53.12,30.691L84.03,197.271l51.825-29.93,1.295-.761,1.98,1.142Z" transform="translate(-84.03 -166.58)" fill="none" stroke="#e9eaf2" stroke-width="2"/></g><g transform="translate(-3305.635 21341.6)"><path d="M251.271,232.456l-53.12,30.691L84.03,197.271l51.825-29.93,1.295-.761,1.98,1.142Z" transform="translate(-84.03 -166.58)" fill="none" stroke="#e9eaf2" stroke-width="2"/></g><g transform="translate(-1941.653 21341.6)"><path d="M251.271,232.456l-53.12,30.691L84.03,197.271l51.825-29.93,1.295-.761,1.98,1.142Z" transform="translate(-84.03 -166.58)" fill="none" stroke="#e9eaf2" stroke-width="2"/></g><g transform="translate(-3305.635 21736)"><path d="M251.271,232.456l-53.12,30.691L84.03,197.271l51.825-29.93,1.295-.761,1.98,1.142Z" transform="translate(-84.03 -166.58)" fill="none" stroke="#e9eaf2" stroke-width="2"/></g><g transform="translate(-1941.653 21736)"><path d="M251.271,232.456l-53.12,30.691L84.03,197.271l51.825-29.93,1.295-.761,1.98,1.142Z" transform="translate(-84.03 -166.58)" fill="none" stroke="#e9eaf2" stroke-width="2"/></g><g transform="translate(-3987.626 21144.395)"><path d="M251.271,232.456l-53.12,30.691L84.03,197.271l51.825-29.93,1.295-.761,1.98,1.142Z" transform="translate(-84.03 -166.58)" fill="none" stroke="#e9eaf2" stroke-width="2"/></g><g transform="translate(-2623.644 21144.395)"><path d="M251.271,232.456l-53.12,30.691L84.03,197.271l51.825-29.93,1.295-.761,1.98,1.142Z" transform="translate(-84.03 -166.58)" fill="none" stroke="#e9eaf2" stroke-width="2"/></g><g transform="translate(-3987.626 21538.799)"><path d="M251.271,232.456l-53.12,30.691L84.03,197.271l51.825-29.93,1.295-.761,1.98,1.142Z" transform="translate(-84.03 -166.58)" fill="none" stroke="#e9eaf2" stroke-width="2"/></g><g transform="translate(-2623.644 21538.799)"><path d="M251.271,232.456l-53.12,30.691L84.03,197.271l51.825-29.93,1.295-.761,1.98,1.142Z" transform="translate(-84.03 -166.58)" fill="none" stroke="#e9eaf2" stroke-width="2"/></g><g transform="translate(-3987.626 21341.6)"><path d="M251.271,232.456l-53.12,30.691L84.03,197.271l51.825-29.93,1.295-.761,1.98,1.142Z" transform="translate(-84.03 -166.58)" fill="none" stroke="#e9eaf2" stroke-width="2"/></g><g transform="translate(-2623.644 21341.6)"><path d="M251.271,232.456l-53.12,30.691L84.03,197.271l51.825-29.93,1.295-.761,1.98,1.142Z" transform="translate(-84.03 -166.58)" fill="none" stroke="#e9eaf2" stroke-width="2"/></g><g transform="translate(-3987.626 21736)"><path d="M251.271,232.456l-53.12,30.691L84.03,197.271l51.825-29.93,1.295-.761,1.98,1.142Z" transform="translate(-84.03 -166.58)" fill="none" stroke="#e9eaf2" stroke-width="2"/></g><g transform="translate(-2623.644 21736)"><path d="M251.271,232.456l-53.12,30.691L84.03,197.271l51.825-29.93,1.295-.761,1.98,1.142Z" transform="translate(-84.03 -166.58)" fill="none" stroke="#e9eaf2" stroke-width="2"/></g><g transform="translate(-2792.087 21144.395)"><path d="M251.271,232.456l-53.12,30.691L84.03,197.271l51.825-29.93,1.295-.761,1.98,1.142Z" transform="translate(-84.03 -166.58)" fill="none" stroke="#e9eaf2" stroke-width="2"/></g><g transform="translate(-1428.105 21144.395)"><path d="M251.271,232.456l-53.12,30.691L84.03,197.271l51.825-29.93,1.295-.761,1.98,1.142Z" transform="translate(-84.03 -166.58)" fill="none" stroke="#e9eaf2" stroke-width="2"/></g><g transform="translate(-2792.087 21538.799)"><path d="M251.271,232.456l-53.12,30.691L84.03,197.271l51.825-29.93,1.295-.761,1.98,1.142Z" transform="translate(-84.03 -166.58)" fill="none" stroke="#e9eaf2" stroke-width="2"/></g><g transform="translate(-1428.105 21538.799)"><path d="M251.271,232.456l-53.12,30.691L84.03,197.271l51.825-29.93,1.295-.761,1.98,1.142Z" transform="translate(-84.03 -166.58)" fill="none" stroke="#e9eaf2" stroke-width="2"/></g><g transform="translate(-2792.087 21341.6)"><path d="M251.271,232.456l-53.12,30.691L84.03,197.271l51.825-29.93,1.295-.761,1.98,1.142Z" transform="translate(-84.03 -166.58)" fill="none" stroke="#e9eaf2" stroke-width="2"/></g><g transform="translate(-1428.105 21341.6)"><path d="M251.271,232.456l-53.12,30.691L84.03,197.271l51.825-29.93,1.295-.761,1.98,1.142Z" transform="translate(-84.03 -166.58)" fill="none" stroke="#e9eaf2" stroke-width="2"/></g><g transform="translate(-2792.087 21736)"><path d="M251.271,232.456l-53.12,30.691L84.03,197.271l51.825-29.93,1.295-.761,1.98,1.142Z" transform="translate(-84.03 -166.58)" fill="none" stroke="#e9eaf2" stroke-width="2"/></g><g transform="translate(-1428.105 21736)"><path d="M251.271,232.456l-53.12,30.691L84.03,197.271l51.825-29.93,1.295-.761,1.98,1.142Z" transform="translate(-84.03 -166.58)" fill="none" stroke="#e9eaf2" stroke-width="2"/></g><g transform="translate(-3474.078 21144.395)"><path d="M251.271,232.456l-53.12,30.691L84.03,197.271l51.825-29.93,1.295-.761,1.98,1.142Z" transform="translate(-84.03 -166.58)" fill="none" stroke="#e9eaf2" stroke-width="2"/></g><g transform="translate(-2110.096 21144.395)"><path d="M251.271,232.456l-53.12,30.691L84.03,197.271l51.825-29.93,1.295-.761,1.98,1.142Z" transform="translate(-84.03 -166.58)" fill="none" stroke="#e9eaf2" stroke-width="2"/></g><g transform="translate(-3474.078 21538.799)"><path d="M251.271,232.456l-53.12,30.691L84.03,197.271l51.825-29.93,1.295-.761,1.98,1.142Z" transform="translate(-84.03 -166.58)" fill="none" stroke="#e9eaf2" stroke-width="2"/></g><g transform="translate(-2110.096 21538.799)"><path d="M251.271,232.456l-53.12,30.691L84.03,197.271l51.825-29.93,1.295-.761,1.98,1.142Z" transform="translate(-84.03 -166.58)" fill="none" stroke="#e9eaf2" stroke-width="2"/></g><g transform="translate(-3474.078 21341.6)"><path d="M251.271,232.456l-53.12,30.691L84.03,197.271l51.825-29.93,1.295-.761,1.98,1.142Z" transform="translate(-84.03 -166.58)" fill="none" stroke="#e9eaf2" stroke-width="2"/></g><g transform="translate(-2110.096 21341.6)"><path d="M251.271,232.456l-53.12,30.691L84.03,197.271l51.825-29.93,1.295-.761,1.98,1.142Z" transform="translate(-84.03 -166.58)" fill="none" stroke="#e9eaf2" stroke-width="2"/></g><g transform="translate(-3474.078 21736)"><path d="M251.271,232.456l-53.12,30.691L84.03,197.271l51.825-29.93,1.295-.761,1.98,1.142Z" transform="translate(-84.03 -166.58)" fill="none" stroke="#e9eaf2" stroke-width="2"/></g><g transform="translate(-2110.096 21736)"><path d="M251.271,232.456l-53.12,30.691L84.03,197.271l51.825-29.93,1.295-.761,1.98,1.142Z" transform="translate(-84.03 -166.58)" fill="none" stroke="#e9eaf2" stroke-width="2"/></g><g transform="translate(-3128.975 21144.395)"><path d="M251.271,232.456l-53.12,30.691L84.03,197.271l51.825-29.93,1.295-.761,1.98,1.142Z" transform="translate(-84.03 -166.58)" fill="none" stroke="#e9eaf2" stroke-width="2"/></g><g transform="translate(-1764.992 21144.395)"><path d="M251.271,232.456l-53.12,30.691L84.03,197.271l51.825-29.93,1.295-.761,1.98,1.142Z" transform="translate(-84.03 -166.58)" fill="none" stroke="#e9eaf2" stroke-width="2"/></g><g transform="translate(-3128.975 21538.799)"><path d="M251.271,232.456l-53.12,30.691L84.03,197.271l51.825-29.93,1.295-.761,1.98,1.142Z" transform="translate(-84.03 -166.58)" fill="none" stroke="#e9eaf2" stroke-width="2"/></g><g transform="translate(-1764.992 21538.799)"><path d="M251.271,232.456l-53.12,30.691L84.03,197.271l51.825-29.93,1.295-.761,1.98,1.142Z" transform="translate(-84.03 -166.58)" fill="none" stroke="#e9eaf2" stroke-width="2"/></g><g transform="translate(-3128.975 21341.6)"><path d="M251.271,232.456l-53.12,30.691L84.03,197.271l51.825-29.93,1.295-.761,1.98,1.142Z" transform="translate(-84.03 -166.58)" fill="none" stroke="#e9eaf2" stroke-width="2"/></g><g transform="translate(-1764.992 21341.6)"><path d="M251.271,232.456l-53.12,30.691L84.03,197.271l51.825-29.93,1.295-.761,1.98,1.142Z" transform="translate(-84.03 -166.58)" fill="none" stroke="#e9eaf2" stroke-width="2"/></g><g transform="translate(-3128.975 21736)"><path d="M251.271,232.456l-53.12,30.691L84.03,197.271l51.825-29.93,1.295-.761,1.98,1.142Z" transform="translate(-84.03 -166.58)" fill="none" stroke="#e9eaf2" stroke-width="2"/></g><g transform="translate(-1764.992 21736)"><path d="M251.271,232.456l-53.12,30.691L84.03,197.271l51.825-29.93,1.295-.761,1.98,1.142Z" transform="translate(-84.03 -166.58)" fill="none" stroke="#e9eaf2" stroke-width="2"/></g><g transform="translate(-3810.966 21144.395)"><path d="M251.271,232.456l-53.12,30.691L84.03,197.271l51.825-29.93,1.295-.761,1.98,1.142Z" transform="translate(-84.03 -166.58)" fill="none" stroke="#e9eaf2" stroke-width="2"/></g><g transform="translate(-2446.983 21144.395)"><path d="M251.271,232.456l-53.12,30.691L84.03,197.271l51.825-29.93,1.295-.761,1.98,1.142Z" transform="translate(-84.03 -166.58)" fill="none" stroke="#e9eaf2" stroke-width="2"/></g><g transform="translate(-3810.966 21538.799)"><path d="M251.271,232.456l-53.12,30.691L84.03,197.271l51.825-29.93,1.295-.761,1.98,1.142Z" transform="translate(-84.03 -166.58)" fill="none" stroke="#e9eaf2" stroke-width="2"/></g><g transform="translate(-2446.983 21538.799)"><path d="M251.271,232.456l-53.12,30.691L84.03,197.271l51.825-29.93,1.295-.761,1.98,1.142Z" transform="translate(-84.03 -166.58)" fill="none" stroke="#e9eaf2" stroke-width="2"/></g><g transform="translate(-3810.966 21341.6)"><path d="M251.271,232.456l-53.12,30.691L84.03,197.271l51.825-29.93,1.295-.761,1.98,1.142Z" transform="translate(-84.03 -166.58)" fill="none" stroke="#e9eaf2" stroke-width="2"/></g><g transform="translate(-2446.983 21341.6)"><path d="M251.271,232.456l-53.12,30.691L84.03,197.271l51.825-29.93,1.295-.761,1.98,1.142Z" transform="translate(-84.03 -166.58)" fill="none" stroke="#e9eaf2" stroke-width="2"/></g><g transform="translate(-3810.966 21736)"><path d="M251.271,232.456l-53.12,30.691L84.03,197.271l51.825-29.93,1.295-.761,1.98,1.142Z" transform="translate(-84.03 -166.58)" fill="none" stroke="#e9eaf2" stroke-width="2"/></g><g transform="translate(-2446.983 21736)"><path d="M251.271,232.456l-53.12,30.691L84.03,197.271l51.825-29.93,1.295-.761,1.98,1.142Z" transform="translate(-84.03 -166.58)" fill="none" stroke="#e9eaf2" stroke-width="2"/></g></g><g transform="translate(-37852.219 -28444.303) rotate(-45)"><g transform="translate(-1436.322 21242.996)"><path d="M251.271,232.456l-53.12,30.691L84.03,197.271l51.825-29.93,1.295-.761,1.98,1.142Z" transform="translate(-84.03 -166.58)" fill="none" stroke="#e9eaf2" stroke-width="2"/></g><g transform="translate(-2800.304 21637.402)"><path d="M251.271,232.456l-53.12,30.691L84.03,197.271l51.825-29.93,1.295-.761,1.98,1.142Z" transform="translate(-84.03 -166.58)" fill="none" stroke="#e9eaf2" stroke-width="2"/></g><g transform="translate(-1436.322 21637.402)"><path d="M251.271,232.456l-53.12,30.691L84.03,197.271l51.825-29.93,1.295-.761,1.98,1.142Z" transform="translate(-84.03 -166.58)" fill="none" stroke="#e9eaf2" stroke-width="2"/></g><g transform="translate(-1436.322 21440.197)"><path d="M251.271,232.456l-53.12,30.691L84.03,197.271l51.825-29.93,1.295-.761,1.98,1.142Z" transform="translate(-84.03 -166.58)" fill="none" stroke="#e9eaf2" stroke-width="2"/></g><g transform="translate(-2800.304 21834.602)"><path d="M251.271,232.456l-53.12,30.691L84.03,197.271l51.825-29.93,1.295-.761,1.98,1.142Z" transform="translate(-84.03 -166.58)" fill="none" stroke="#e9eaf2" stroke-width="2"/></g><g transform="translate(-1436.322 21834.602)"><path d="M251.271,232.456l-53.12,30.691L84.03,197.271l51.825-29.93,1.295-.761,1.98,1.142Z" transform="translate(-84.03 -166.58)" fill="none" stroke="#e9eaf2" stroke-width="2"/></g><g transform="translate(-2118.313 21242.996)"><path d="M251.271,232.456l-53.12,30.691L84.03,197.271l51.825-29.93,1.295-.761,1.98,1.142Z" transform="translate(-84.03 -166.58)" fill="none" stroke="#e9eaf2" stroke-width="2"/></g><g transform="translate(-2118.313 21637.402)"><path d="M251.271,232.456l-53.12,30.691L84.03,197.271l51.825-29.93,1.295-.761,1.98,1.142Z" transform="translate(-84.03 -166.58)" fill="none" stroke="#e9eaf2" stroke-width="2"/></g><g transform="translate(-2118.313 21440.197)"><path d="M251.271,232.456l-53.12,30.691L84.03,197.271l51.825-29.93,1.295-.761,1.98,1.142Z" transform="translate(-84.03 -166.58)" fill="none" stroke="#e9eaf2" stroke-width="2"/></g><g transform="translate(-2118.313 21834.602)"><path d="M251.271,232.456l-53.12,30.691L84.03,197.271l51.825-29.93,1.295-.761,1.98,1.142Z" transform="translate(-84.03 -166.58)" fill="none" stroke="#e9eaf2" stroke-width="2"/></g><g transform="translate(-1773.209 21242.996)"><path d="M251.271,232.456l-53.12,30.691L84.03,197.271l51.825-29.93,1.295-.761,1.98,1.142Z" transform="translate(-84.03 -166.58)" fill="none" stroke="#e9eaf2" stroke-width="2"/></g><g transform="translate(-1773.209 21637.402)"><path d="M251.271,232.456l-53.12,30.691L84.03,197.271l51.825-29.93,1.295-.761,1.98,1.142Z" transform="translate(-84.03 -166.58)" fill="none" stroke="#e9eaf2" stroke-width="2"/></g><g transform="translate(-1773.209 21440.197)"><path d="M251.271,232.456l-53.12,30.691L84.03,197.271l51.825-29.93,1.295-.761,1.98,1.142Z" transform="translate(-84.03 -166.58)" fill="none" stroke="#e9eaf2" stroke-width="2"/></g><g transform="translate(-1773.209 21834.602)"><path d="M251.271,232.456l-53.12,30.691L84.03,197.271l51.825-29.93,1.295-.761,1.98,1.142Z" transform="translate(-84.03 -166.58)" fill="none" stroke="#e9eaf2" stroke-width="2"/></g><g transform="translate(-2455.2 21242.996)"><path d="M251.271,232.456l-53.12,30.691L84.03,197.271l51.825-29.93,1.295-.761,1.98,1.142Z" transform="translate(-84.03 -166.58)" fill="none" stroke="#e9eaf2" stroke-width="2"/></g><g transform="translate(-2455.2 21637.402)"><path d="M251.271,232.456l-53.12,30.691L84.03,197.271l51.825-29.93,1.295-.761,1.98,1.142Z" transform="translate(-84.03 -166.58)" fill="none" stroke="#e9eaf2" stroke-width="2"/></g><g transform="translate(-2455.2 21440.197)"><path d="M251.271,232.456l-53.12,30.691L84.03,197.271l51.825-29.93,1.295-.761,1.98,1.142Z" transform="translate(-84.03 -166.58)" fill="none" stroke="#e9eaf2" stroke-width="2"/></g><g transform="translate(-2455.2 21834.602)"><path d="M251.271,232.456l-53.12,30.691L84.03,197.271l51.825-29.93,1.295-.761,1.98,1.142Z" transform="translate(-84.03 -166.58)" fill="none" stroke="#e9eaf2" stroke-width="2"/></g><g transform="translate(-2623.644 21637.402)"><path d="M251.271,232.456l-53.12,30.691L84.03,197.271l51.825-29.93,1.295-.761,1.98,1.142Z" transform="translate(-84.03 -166.58)" fill="none" stroke="#e9eaf2" stroke-width="2"/></g><g transform="translate(-2623.644 21440.197)"><path d="M251.271,232.456l-53.12,30.691L84.03,197.271l51.825-29.93,1.295-.761,1.98,1.142Z" transform="translate(-84.03 -166.58)" fill="none" stroke="#e9eaf2" stroke-width="2"/></g><g transform="translate(-2623.644 21834.602)"><path d="M251.271,232.456l-53.12,30.691L84.03,197.271l51.825-29.93,1.295-.761,1.98,1.142Z" transform="translate(-84.03 -166.58)" fill="none" stroke="#e9eaf2" stroke-width="2"/></g><g transform="translate(-1941.653 21242.996)"><path d="M251.271,232.456l-53.12,30.691L84.03,197.271l51.825-29.93,1.295-.761,1.98,1.142Z" transform="translate(-84.03 -166.58)" fill="none" stroke="#e9eaf2" stroke-width="2"/></g><g transform="translate(-1941.653 21637.402)"><path d="M251.271,232.456l-53.12,30.691L84.03,197.271l51.825-29.93,1.295-.761,1.98,1.142Z" transform="translate(-84.03 -166.58)" fill="none" stroke="#e9eaf2" stroke-width="2"/></g><g transform="translate(-1941.653 21440.197)"><path d="M251.271,232.456l-53.12,30.691L84.03,197.271l51.825-29.93,1.295-.761,1.98,1.142Z" transform="translate(-84.03 -166.58)" fill="none" stroke="#e9eaf2" stroke-width="2"/></g><g transform="translate(-1941.653 21834.602)"><path d="M251.271,232.456l-53.12,30.691L84.03,197.271l51.825-29.93,1.295-.761,1.98,1.142Z" transform="translate(-84.03 -166.58)" fill="none" stroke="#e9eaf2" stroke-width="2"/></g><g transform="translate(-1596.549 21242.996)"><path d="M251.271,232.456l-53.12,30.691L84.03,197.271l51.825-29.93,1.295-.761,1.98,1.142Z" transform="translate(-84.03 -166.58)" fill="none" stroke="#e9eaf2" stroke-width="2"/></g><g transform="translate(-1596.549 21637.402)"><path d="M251.271,232.456l-53.12,30.691L84.03,197.271l51.825-29.93,1.295-.761,1.98,1.142Z" transform="translate(-84.03 -166.58)" fill="none" stroke="#e9eaf2" stroke-width="2"/></g><g transform="translate(-1596.549 21440.197)"><path d="M251.271,232.456l-53.12,30.691L84.03,197.271l51.825-29.93,1.295-.761,1.98,1.142Z" transform="translate(-84.03 -166.58)" fill="none" stroke="#e9eaf2" stroke-width="2"/></g><g transform="translate(-2960.531 21834.602)"><path d="M251.271,232.456l-53.12,30.691L84.03,197.271l51.825-29.93,1.295-.761,1.98,1.142Z" transform="translate(-84.03 -166.58)" fill="none" stroke="#e9eaf2" stroke-width="2"/></g><g transform="translate(-1596.549 21834.602)"><path d="M251.271,232.456l-53.12,30.691L84.03,197.271l51.825-29.93,1.295-.761,1.98,1.142Z" transform="translate(-84.03 -166.58)" fill="none" stroke="#e9eaf2" stroke-width="2"/></g><g transform="translate(-2278.54 21242.996)"><path d="M251.271,232.456l-53.12,30.691L84.03,197.271l51.825-29.93,1.295-.761,1.98,1.142Z" transform="translate(-84.03 -166.58)" fill="none" stroke="#e9eaf2" stroke-width="2"/></g><g transform="translate(-2278.54 21637.402)"><path d="M251.271,232.456l-53.12,30.691L84.03,197.271l51.825-29.93,1.295-.761,1.98,1.142Z" transform="translate(-84.03 -166.58)" fill="none" stroke="#e9eaf2" stroke-width="2"/></g><g transform="translate(-2278.54 21440.197)"><path d="M251.271,232.456l-53.12,30.691L84.03,197.271l51.825-29.93,1.295-.761,1.98,1.142Z" transform="translate(-84.03 -166.58)" fill="none" stroke="#e9eaf2" stroke-width="2"/></g><g transform="translate(-2278.54 21834.602)"><path d="M251.271,232.456l-53.12,30.691L84.03,197.271l51.825-29.93,1.295-.761,1.98,1.142Z" transform="translate(-84.03 -166.58)" fill="none" stroke="#e9eaf2" stroke-width="2"/></g><g transform="translate(-1604.766 21144.395)"><path d="M251.271,232.456l-53.12,30.691L84.03,197.271l51.825-29.93,1.295-.761,1.98,1.142Z" transform="translate(-84.03 -166.58)" fill="none" stroke="#e9eaf2" stroke-width="2"/></g><g transform="translate(-1604.766 21538.799)"><path d="M251.271,232.456l-53.12,30.691L84.03,197.271l51.825-29.93,1.295-.761,1.98,1.142Z" transform="translate(-84.03 -166.58)" fill="none" stroke="#e9eaf2" stroke-width="2"/></g><g transform="translate(-1604.766 21341.6)"><path d="M251.271,232.456l-53.12,30.691L84.03,197.271l51.825-29.93,1.295-.761,1.98,1.142Z" transform="translate(-84.03 -166.58)" fill="none" stroke="#e9eaf2" stroke-width="2"/></g><g transform="translate(-2968.748 21736)"><path d="M251.271,232.456l-53.12,30.691L84.03,197.271l51.825-29.93,1.295-.761,1.98,1.142Z" transform="translate(-84.03 -166.58)" fill="none" stroke="#e9eaf2" stroke-width="2"/></g><g transform="translate(-1604.766 21736)"><path d="M251.271,232.456l-53.12,30.691L84.03,197.271l51.825-29.93,1.295-.761,1.98,1.142Z" transform="translate(-84.03 -166.58)" fill="none" stroke="#e9eaf2" stroke-width="2"/></g><g transform="translate(-2286.757 21144.395)"><path d="M251.271,232.456l-53.12,30.691L84.03,197.271l51.825-29.93,1.295-.761,1.98,1.142Z" transform="translate(-84.03 -166.58)" fill="none" stroke="#e9eaf2" stroke-width="2"/></g><g transform="translate(-2286.757 21538.799)"><path d="M251.271,232.456l-53.12,30.691L84.03,197.271l51.825-29.93,1.295-.761,1.98,1.142Z" transform="translate(-84.03 -166.58)" fill="none" stroke="#e9eaf2" stroke-width="2"/></g><g transform="translate(-2286.757 21341.6)"><path d="M251.271,232.456l-53.12,30.691L84.03,197.271l51.825-29.93,1.295-.761,1.98,1.142Z" transform="translate(-84.03 -166.58)" fill="none" stroke="#e9eaf2" stroke-width="2"/></g><g transform="translate(-2286.757 21736)"><path d="M251.271,232.456l-53.12,30.691L84.03,197.271l51.825-29.93,1.295-.761,1.98,1.142Z" transform="translate(-84.03 -166.58)" fill="none" stroke="#e9eaf2" stroke-width="2"/></g><g transform="translate(-1941.653 21144.395)"><path d="M251.271,232.456l-53.12,30.691L84.03,197.271l51.825-29.93,1.295-.761,1.98,1.142Z" transform="translate(-84.03 -166.58)" fill="none" stroke="#e9eaf2" stroke-width="2"/></g><g transform="translate(-1941.653 21538.799)"><path d="M251.271,232.456l-53.12,30.691L84.03,197.271l51.825-29.93,1.295-.761,1.98,1.142Z" transform="translate(-84.03 -166.58)" fill="none" stroke="#e9eaf2" stroke-width="2"/></g><g transform="translate(-1941.653 21341.6)"><path d="M251.271,232.456l-53.12,30.691L84.03,197.271l51.825-29.93,1.295-.761,1.98,1.142Z" transform="translate(-84.03 -166.58)" fill="none" stroke="#e9eaf2" stroke-width="2"/></g><g transform="translate(-1941.653 21736)"><path d="M251.271,232.456l-53.12,30.691L84.03,197.271l51.825-29.93,1.295-.761,1.98,1.142Z" transform="translate(-84.03 -166.58)" fill="none" stroke="#e9eaf2" stroke-width="2"/></g><g transform="translate(-2623.644 21538.799)"><path d="M251.271,232.456l-53.12,30.691L84.03,197.271l51.825-29.93,1.295-.761,1.98,1.142Z" transform="translate(-84.03 -166.58)" fill="none" stroke="#e9eaf2" stroke-width="2"/></g><g transform="translate(-2623.644 21736)"><path d="M251.271,232.456l-53.12,30.691L84.03,197.271l51.825-29.93,1.295-.761,1.98,1.142Z" transform="translate(-84.03 -166.58)" fill="none" stroke="#e9eaf2" stroke-width="2"/></g><g transform="translate(-1428.105 21144.395)"><path d="M251.271,232.456l-53.12,30.691L84.03,197.271l51.825-29.93,1.295-.761,1.98,1.142Z" transform="translate(-84.03 -166.58)" fill="none" stroke="#e9eaf2" stroke-width="2"/></g><g transform="translate(-2792.087 21538.799)"><path d="M251.271,232.456l-53.12,30.691L84.03,197.271l51.825-29.93,1.295-.761,1.98,1.142Z" transform="translate(-84.03 -166.58)" fill="none" stroke="#e9eaf2" stroke-width="2"/></g><g transform="translate(-1428.105 21538.799)"><path d="M251.271,232.456l-53.12,30.691L84.03,197.271l51.825-29.93,1.295-.761,1.98,1.142Z" transform="translate(-84.03 -166.58)" fill="none" stroke="#e9eaf2" stroke-width="2"/></g><g transform="translate(-1428.105 21341.6)"><path d="M251.271,232.456l-53.12,30.691L84.03,197.271l51.825-29.93,1.295-.761,1.98,1.142Z" transform="translate(-84.03 -166.58)" fill="none" stroke="#e9eaf2" stroke-width="2"/></g><g transform="translate(-2792.087 21736)"><path d="M251.271,232.456l-53.12,30.691L84.03,197.271l51.825-29.93,1.295-.761,1.98,1.142Z" transform="translate(-84.03 -166.58)" fill="none" stroke="#e9eaf2" stroke-width="2"/></g><g transform="translate(-1428.105 21736)"><path d="M251.271,232.456l-53.12,30.691L84.03,197.271l51.825-29.93,1.295-.761,1.98,1.142Z" transform="translate(-84.03 -166.58)" fill="none" stroke="#e9eaf2" stroke-width="2"/></g><g transform="translate(-2110.096 21144.395)"><path d="M251.271,232.456l-53.12,30.691L84.03,197.271l51.825-29.93,1.295-.761,1.98,1.142Z" transform="translate(-84.03 -166.58)" fill="none" stroke="#e9eaf2" stroke-width="2"/></g><g transform="translate(-2110.096 21538.799)"><path d="M251.271,232.456l-53.12,30.691L84.03,197.271l51.825-29.93,1.295-.761,1.98,1.142Z" transform="translate(-84.03 -166.58)" fill="none" stroke="#e9eaf2" stroke-width="2"/></g><g transform="translate(-2110.096 21341.6)"><path d="M251.271,232.456l-53.12,30.691L84.03,197.271l51.825-29.93,1.295-.761,1.98,1.142Z" transform="translate(-84.03 -166.58)" fill="none" stroke="#e9eaf2" stroke-width="2"/></g><g transform="translate(-2110.096 21736)"><path d="M251.271,232.456l-53.12,30.691L84.03,197.271l51.825-29.93,1.295-.761,1.98,1.142Z" transform="translate(-84.03 -166.58)" fill="none" stroke="#e9eaf2" stroke-width="2"/></g><g transform="translate(-1764.992 21144.395)"><path d="M251.271,232.456l-53.12,30.691L84.03,197.271l51.825-29.93,1.295-.761,1.98,1.142Z" transform="translate(-84.03 -166.58)" fill="none" stroke="#e9eaf2" stroke-width="2"/></g><g transform="translate(-1764.992 21538.799)"><path d="M251.271,232.456l-53.12,30.691L84.03,197.271l51.825-29.93,1.295-.761,1.98,1.142Z" transform="translate(-84.03 -166.58)" fill="none" stroke="#e9eaf2" stroke-width="2"/></g><g transform="translate(-1764.992 21341.6)"><path d="M251.271,232.456l-53.12,30.691L84.03,197.271l51.825-29.93,1.295-.761,1.98,1.142Z" transform="translate(-84.03 -166.58)" fill="none" stroke="#e9eaf2" stroke-width="2"/></g><g transform="translate(-1764.992 21736)"><path d="M251.271,232.456l-53.12,30.691L84.03,197.271l51.825-29.93,1.295-.761,1.98,1.142Z" transform="translate(-84.03 -166.58)" fill="none" stroke="#e9eaf2" stroke-width="2"/></g><g transform="translate(-2446.983 21538.799)"><path d="M251.271,232.456l-53.12,30.691L84.03,197.271l51.825-29.93,1.295-.761,1.98,1.142Z" transform="translate(-84.03 -166.58)" fill="none" stroke="#e9eaf2" stroke-width="2"/></g><g transform="translate(-2446.983 21341.6)"><path d="M251.271,232.456l-53.12,30.691L84.03,197.271l51.825-29.93,1.295-.761,1.98,1.142Z" transform="translate(-84.03 -166.58)" fill="none" stroke="#e9eaf2" stroke-width="2"/></g><g transform="translate(-2446.983 21736)"><path d="M251.271,232.456l-53.12,30.691L84.03,197.271l51.825-29.93,1.295-.761,1.98,1.142Z" transform="translate(-84.03 -166.58)" fill="none" stroke="#e9eaf2" stroke-width="2"/></g></g><g transform="translate(-20404.105 -13092.667) rotate(135)"><g transform="translate(1532.425 98.602)"><path d="M167.241,65.876l-53.12,30.691L0,30.691,51.825.761,53.12,0,55.1,1.142Z" transform="translate(0)" fill="none" stroke="#e9eaf2" stroke-width="2"/></g><g transform="translate(168.444 493.008)"><path d="M167.241,65.876l-53.12,30.691L0,30.691,51.825.761,53.12,0,55.1,1.142Z" transform="translate(0 0)" fill="none" stroke="#e9eaf2" stroke-width="2"/></g><g transform="translate(1532.426 493.008)"><path d="M167.241,65.876l-53.12,30.691L0,30.691,51.825.761,53.12,0,55.1,1.142Z" transform="translate(0 0)" fill="none" stroke="#e9eaf2" stroke-width="2"/></g><g transform="translate(1532.426 295.803)"><path d="M167.241,65.876l-53.12,30.691L0,30.691,51.825.761,53.12,0,55.1,1.142Z" transform="translate(0 0)" fill="none" stroke="#e9eaf2" stroke-width="2"/></g><g transform="translate(168.444 690.207)"><path d="M167.241,65.876l-53.12,30.691L0,30.691,51.825.761,53.12,0,55.1,1.142Z" transform="translate(0 0)" fill="none" stroke="#e9eaf2" stroke-width="2"/></g><g transform="translate(1532.426 690.207)"><path d="M167.241,65.876l-53.12,30.691L0,30.691,51.825.761,53.12,0,55.1,1.142Z" transform="translate(0 0)" fill="none" stroke="#e9eaf2" stroke-width="2"/></g><g transform="translate(850.435 98.602)"><path d="M167.241,65.876l-53.12,30.691L0,30.691,51.825.761,53.12,0,55.1,1.142Z" transform="translate(0)" fill="none" stroke="#e9eaf2" stroke-width="2"/></g><g transform="translate(850.435 493.008)"><path d="M167.241,65.876l-53.12,30.691L0,30.691,51.825.761,53.12,0,55.1,1.142Z" transform="translate(0 0)" fill="none" stroke="#e9eaf2" stroke-width="2"/></g><g transform="translate(850.435 295.803)"><path d="M167.241,65.876l-53.12,30.691L0,30.691,51.825.761,53.12,0,55.1,1.142Z" transform="translate(0 0)" fill="none" stroke="#e9eaf2" stroke-width="2"/></g><g transform="translate(850.435 690.207)"><path d="M167.241,65.876l-53.12,30.691L0,30.691,51.825.761,53.12,0,55.1,1.142Z" transform="translate(0 0)" fill="none" stroke="#e9eaf2" stroke-width="2"/></g><g transform="translate(1195.539 98.602)"><path d="M167.241,65.876l-53.12,30.691L0,30.691,51.825.761,53.12,0,55.1,1.142Z" transform="translate(0)" fill="none" stroke="#e9eaf2" stroke-width="2"/></g><g transform="translate(1195.539 493.008)"><path d="M167.241,65.876l-53.12,30.691L0,30.691,51.825.761,53.12,0,55.1,1.142Z" transform="translate(0 0)" fill="none" stroke="#e9eaf2" stroke-width="2"/></g><g transform="translate(1195.539 295.803)"><path d="M167.241,65.876l-53.12,30.691L0,30.691,51.825.761,53.12,0,55.1,1.142Z" transform="translate(0 0)" fill="none" stroke="#e9eaf2" stroke-width="2"/></g><g transform="translate(1195.539 690.207)"><path d="M167.241,65.876l-53.12,30.691L0,30.691,51.825.761,53.12,0,55.1,1.142Z" transform="translate(0 0)" fill="none" stroke="#e9eaf2" stroke-width="2"/></g><g transform="translate(513.548 98.601)"><path d="M167.241,65.876l-53.12,30.691L0,30.691,51.825.761,53.12,0,55.1,1.142Z" transform="translate(0)" fill="none" stroke="#e9eaf2" stroke-width="2"/></g><g transform="translate(513.548 493.008)"><path d="M167.241,65.876l-53.12,30.691L0,30.691,51.825.761,53.12,0,55.1,1.142Z" transform="translate(0 0)" fill="none" stroke="#e9eaf2" stroke-width="2"/></g><g transform="translate(513.548 295.803)"><path d="M167.241,65.876l-53.12,30.691L0,30.691,51.825.761,53.12,0,55.1,1.142Z" transform="translate(0 0)" fill="none" stroke="#e9eaf2" stroke-width="2"/></g><g transform="translate(513.548 690.207)"><path d="M167.241,65.876l-53.12,30.691L0,30.691,51.825.761,53.12,0,55.1,1.142Z" transform="translate(0 0)" fill="none" stroke="#e9eaf2" stroke-width="2"/></g><g transform="translate(345.104 493.008)"><path d="M167.241,65.876l-53.12,30.691L0,30.691,51.825.761,53.12,0,55.1,1.142Z" transform="translate(0 0)" fill="none" stroke="#e9eaf2" stroke-width="2"/></g><g transform="translate(345.104 295.803)"><path d="M167.241,65.876l-53.12,30.691L0,30.691,51.825.761,53.12,0,55.1,1.142Z" transform="translate(0 0)" fill="none" stroke="#e9eaf2" stroke-width="2"/></g><g transform="translate(345.104 690.207)"><path d="M167.241,65.876l-53.12,30.691L0,30.691,51.825.761,53.12,0,55.1,1.142Z" transform="translate(0 0)" fill="none" stroke="#e9eaf2" stroke-width="2"/></g><g transform="translate(1027.095 98.602)"><path d="M167.241,65.876l-53.12,30.691L0,30.691,51.825.761,53.12,0,55.1,1.142Z" transform="translate(0)" fill="none" stroke="#e9eaf2" stroke-width="2"/></g><g transform="translate(1027.095 493.008)"><path d="M167.241,65.876l-53.12,30.691L0,30.691,51.825.761,53.12,0,55.1,1.142Z" transform="translate(0 0)" fill="none" stroke="#e9eaf2" stroke-width="2"/></g><g transform="translate(1027.095 295.803)"><path d="M167.241,65.876l-53.12,30.691L0,30.691,51.825.761,53.12,0,55.1,1.142Z" transform="translate(0 0)" fill="none" stroke="#e9eaf2" stroke-width="2"/></g><g transform="translate(1027.095 690.207)"><path d="M167.241,65.876l-53.12,30.691L0,30.691,51.825.761,53.12,0,55.1,1.142Z" transform="translate(0 0)" fill="none" stroke="#e9eaf2" stroke-width="2"/></g><g transform="translate(1372.199 98.602)"><path d="M167.241,65.876l-53.12,30.691L0,30.691,51.825.761,53.12,0,55.1,1.142Z" transform="translate(0)" fill="none" stroke="#e9eaf2" stroke-width="2"/></g><g transform="translate(1372.199 493.008)"><path d="M167.241,65.876l-53.12,30.691L0,30.691,51.825.761,53.12,0,55.1,1.142Z" transform="translate(0 0)" fill="none" stroke="#e9eaf2" stroke-width="2"/></g><g transform="translate(1372.199 295.803)"><path d="M167.241,65.876l-53.12,30.691L0,30.691,51.825.761,53.12,0,55.1,1.142Z" transform="translate(0 0)" fill="none" stroke="#e9eaf2" stroke-width="2"/></g><g transform="translate(8.217 690.207)"><path d="M167.241,65.876l-53.12,30.691L0,30.691,51.825.761,53.12,0,55.1,1.142Z" transform="translate(0 0)" fill="none" stroke="#e9eaf2" stroke-width="2"/></g><g transform="translate(1372.199 690.207)"><path d="M167.241,65.876l-53.12,30.691L0,30.691,51.825.761,53.12,0,55.1,1.142Z" transform="translate(0 0)" fill="none" stroke="#e9eaf2" stroke-width="2"/></g><g transform="translate(690.208 98.602)"><path d="M167.241,65.876l-53.12,30.691L0,30.691,51.825.761,53.12,0,55.1,1.142Z" transform="translate(0)" fill="none" stroke="#e9eaf2" stroke-width="2"/></g><g transform="translate(690.208 493.008)"><path d="M167.241,65.876l-53.12,30.691L0,30.691,51.825.761,53.12,0,55.1,1.142Z" transform="translate(0 0)" fill="none" stroke="#e9eaf2" stroke-width="2"/></g><g transform="translate(690.208 295.803)"><path d="M167.241,65.876l-53.12,30.691L0,30.691,51.825.761,53.12,0,55.1,1.142Z" transform="translate(0 0)" fill="none" stroke="#e9eaf2" stroke-width="2"/></g><g transform="translate(690.208 690.207)"><path d="M167.241,65.876l-53.12,30.691L0,30.691,51.825.761,53.12,0,55.1,1.142Z" transform="translate(0 0)" fill="none" stroke="#e9eaf2" stroke-width="2"/></g><g transform="translate(1363.982 0)"><path d="M167.241,65.876l-53.12,30.691L0,30.691,51.825.761,53.12,0,55.1,1.142Z" transform="translate(0)" fill="none" stroke="#e9eaf2" stroke-width="2"/></g><g transform="translate(1363.982 394.405)"><path d="M167.241,65.876l-53.12,30.691L0,30.691,51.825.761,53.12,0,55.1,1.142Z" transform="translate(0 0)" fill="none" stroke="#e9eaf2" stroke-width="2"/></g><g transform="translate(1363.982 197.205)"><path d="M167.241,65.876l-53.12,30.691L0,30.691,51.825.761,53.12,0,55.1,1.142Z" transform="translate(0 0)" fill="none" stroke="#e9eaf2" stroke-width="2"/></g><g transform="translate(0 591.605)"><path d="M167.241,65.876l-53.12,30.691L0,30.691,51.825.761,53.12,0,55.1,1.142Z" transform="translate(0 0)" fill="none" stroke="#e9eaf2" stroke-width="2"/></g><g transform="translate(1363.982 591.606)"><path d="M167.241,65.876l-53.12,30.691L0,30.691,51.825.761,53.12,0,55.1,1.142Z" transform="translate(0 0)" fill="none" stroke="#e9eaf2" stroke-width="2"/></g><g transform="translate(681.991 0)"><path d="M167.241,65.876l-53.12,30.691L0,30.691,51.825.761,53.12,0,55.1,1.142Z" transform="translate(0)" fill="none" stroke="#e9eaf2" stroke-width="2"/></g><g transform="translate(681.991 394.404)"><path d="M167.241,65.876l-53.12,30.691L0,30.691,51.825.761,53.12,0,55.1,1.142Z" transform="translate(0 0)" fill="none" stroke="#e9eaf2" stroke-width="2"/></g><g transform="translate(681.991 197.205)"><path d="M167.241,65.876l-53.12,30.691L0,30.691,51.825.761,53.12,0,55.1,1.142Z" transform="translate(0 0)" fill="none" stroke="#e9eaf2" stroke-width="2"/></g><g transform="translate(681.991 591.605)"><path d="M167.241,65.876l-53.12,30.691L0,30.691,51.825.761,53.12,0,55.1,1.142Z" transform="translate(0 0)" fill="none" stroke="#e9eaf2" stroke-width="2"/></g><g transform="translate(1027.095 0)"><path d="M167.241,65.876l-53.12,30.691L0,30.691,51.825.761,53.12,0,55.1,1.142Z" transform="translate(0)" fill="none" stroke="#e9eaf2" stroke-width="2"/></g><g transform="translate(1027.095 394.404)"><path d="M167.241,65.876l-53.12,30.691L0,30.691,51.825.761,53.12,0,55.1,1.142Z" transform="translate(0 0)" fill="none" stroke="#e9eaf2" stroke-width="2"/></g><g transform="translate(1027.095 197.205)"><path d="M167.241,65.876l-53.12,30.691L0,30.691,51.825.761,53.12,0,55.1,1.142Z" transform="translate(0 0)" fill="none" stroke="#e9eaf2" stroke-width="2"/></g><g transform="translate(1027.095 591.606)"><path d="M167.241,65.876l-53.12,30.691L0,30.691,51.825.761,53.12,0,55.1,1.142Z" transform="translate(0 0)" fill="none" stroke="#e9eaf2" stroke-width="2"/></g><g transform="translate(345.104 394.404)"><path d="M167.241,65.876l-53.12,30.691L0,30.691,51.825.761,53.12,0,55.1,1.142Z" transform="translate(0 0)" fill="none" stroke="#e9eaf2" stroke-width="2"/></g><g transform="translate(345.104 591.605)"><path d="M167.241,65.876l-53.12,30.691L0,30.691,51.825.761,53.12,0,55.1,1.142Z" transform="translate(0 0)" fill="none" stroke="#e9eaf2" stroke-width="2"/></g><g transform="translate(1540.643 0)"><path d="M167.241,65.876l-53.12,30.691L0,30.691,51.825.761,53.12,0,55.1,1.142Z" transform="translate(0)" fill="none" stroke="#e9eaf2" stroke-width="2"/></g><g transform="translate(176.66 394.404)"><path d="M167.241,65.876l-53.12,30.691L0,30.691,51.825.761,53.12,0,55.1,1.142Z" transform="translate(0 0)" fill="none" stroke="#e9eaf2" stroke-width="2"/></g><g transform="translate(1540.643 394.405)"><path d="M167.241,65.876l-53.12,30.691L0,30.691,51.825.761,53.12,0,55.1,1.142Z" transform="translate(0 0)" fill="none" stroke="#e9eaf2" stroke-width="2"/></g><g transform="translate(1540.643 197.206)"><path d="M167.241,65.876l-53.12,30.691L0,30.691,51.825.761,53.12,0,55.1,1.142Z" transform="translate(0 0)" fill="none" stroke="#e9eaf2" stroke-width="2"/></g><g transform="translate(176.66 591.605)"><path d="M167.241,65.876l-53.12,30.691L0,30.691,51.825.761,53.12,0,55.1,1.142Z" transform="translate(0 0)" fill="none" stroke="#e9eaf2" stroke-width="2"/></g><g transform="translate(1540.643 591.606)"><path d="M167.241,65.876l-53.12,30.691L0,30.691,51.825.761,53.12,0,55.1,1.142Z" transform="translate(0 0)" fill="none" stroke="#e9eaf2" stroke-width="2"/></g><g transform="translate(858.651 0)"><path d="M167.241,65.876l-53.12,30.691L0,30.691,51.825.761,53.12,0,55.1,1.142Z" transform="translate(0)" fill="none" stroke="#e9eaf2" stroke-width="2"/></g><g transform="translate(858.651 394.404)"><path d="M167.241,65.876l-53.12,30.691L0,30.691,51.825.761,53.12,0,55.1,1.142Z" transform="translate(0 0)" fill="none" stroke="#e9eaf2" stroke-width="2"/></g><g transform="translate(858.651 197.205)"><path d="M167.241,65.876l-53.12,30.691L0,30.691,51.825.761,53.12,0,55.1,1.142Z" transform="translate(0 0)" fill="none" stroke="#e9eaf2" stroke-width="2"/></g><g transform="translate(858.652 591.606)"><path d="M167.241,65.876l-53.12,30.691L0,30.691,51.825.761,53.12,0,55.1,1.142Z" transform="translate(0 0)" fill="none" stroke="#e9eaf2" stroke-width="2"/></g><g transform="translate(1203.755 0)"><path d="M167.241,65.876l-53.12,30.691L0,30.691,51.825.761,53.12,0,55.1,1.142Z" transform="translate(0)" fill="none" stroke="#e9eaf2" stroke-width="2"/></g><g transform="translate(1203.756 394.405)"><path d="M167.241,65.876l-53.12,30.691L0,30.691,51.825.761,53.12,0,55.1,1.142Z" transform="translate(0 0)" fill="none" stroke="#e9eaf2" stroke-width="2"/></g><g transform="translate(1203.755 197.205)"><path d="M167.241,65.876l-53.12,30.691L0,30.691,51.825.761,53.12,0,55.1,1.142Z" transform="translate(0 0)" fill="none" stroke="#e9eaf2" stroke-width="2"/></g><g transform="translate(1203.756 591.606)"><path d="M167.241,65.876l-53.12,30.691L0,30.691,51.825.761,53.12,0,55.1,1.142Z" transform="translate(0 0)" fill="none" stroke="#e9eaf2" stroke-width="2"/></g><g transform="translate(521.764 394.404)"><path d="M167.241,65.876l-53.12,30.691L0,30.691,51.825.761,53.12,0,55.1,1.142Z" transform="translate(0 0)" fill="none" stroke="#e9eaf2" stroke-width="2"/></g><g transform="translate(521.764 197.205)"><path d="M167.241,65.876l-53.12,30.691L0,30.691,51.825.761,53.12,0,55.1,1.142Z" transform="translate(0 0)" fill="none" stroke="#e9eaf2" stroke-width="2"/></g><g transform="translate(521.764 591.605)"><path d="M167.241,65.876l-53.12,30.691L0,30.691,51.825.761,53.12,0,55.1,1.142Z" transform="translate(0 0)" fill="none" stroke="#e9eaf2" stroke-width="2"/></g></g><g transform="translate(-20419.105 -11827.667) rotate(135)"><g transform="translate(1532.425 98.602)"><path d="M167.241,65.876l-53.12,30.691L0,30.691,51.825.761,53.12,0,55.1,1.142Z" transform="translate(0)" fill="none" stroke="#e9eaf2" stroke-width="2"/></g><g transform="translate(168.444 493.008)"><path d="M167.241,65.876l-53.12,30.691L0,30.691,51.825.761,53.12,0,55.1,1.142Z" transform="translate(0 0)" fill="none" stroke="#e9eaf2" stroke-width="2"/></g><g transform="translate(1532.426 493.008)"><path d="M167.241,65.876l-53.12,30.691L0,30.691,51.825.761,53.12,0,55.1,1.142Z" transform="translate(0 0)" fill="none" stroke="#e9eaf2" stroke-width="2"/></g><g transform="translate(1532.426 295.803)"><path d="M167.241,65.876l-53.12,30.691L0,30.691,51.825.761,53.12,0,55.1,1.142Z" transform="translate(0 0)" fill="none" stroke="#e9eaf2" stroke-width="2"/></g><g transform="translate(168.444 690.207)"><path d="M167.241,65.876l-53.12,30.691L0,30.691,51.825.761,53.12,0,55.1,1.142Z" transform="translate(0 0)" fill="none" stroke="#e9eaf2" stroke-width="2"/></g><g transform="translate(1532.426 690.207)"><path d="M167.241,65.876l-53.12,30.691L0,30.691,51.825.761,53.12,0,55.1,1.142Z" transform="translate(0 0)" fill="none" stroke="#e9eaf2" stroke-width="2"/></g><g transform="translate(850.435 98.602)"><path d="M167.241,65.876l-53.12,30.691L0,30.691,51.825.761,53.12,0,55.1,1.142Z" transform="translate(0)" fill="none" stroke="#e9eaf2" stroke-width="2"/></g><g transform="translate(850.435 493.008)"><path d="M167.241,65.876l-53.12,30.691L0,30.691,51.825.761,53.12,0,55.1,1.142Z" transform="translate(0 0)" fill="none" stroke="#e9eaf2" stroke-width="2"/></g><g transform="translate(850.435 295.803)"><path d="M167.241,65.876l-53.12,30.691L0,30.691,51.825.761,53.12,0,55.1,1.142Z" transform="translate(0 0)" fill="none" stroke="#e9eaf2" stroke-width="2"/></g><g transform="translate(850.435 690.207)"><path d="M167.241,65.876l-53.12,30.691L0,30.691,51.825.761,53.12,0,55.1,1.142Z" transform="translate(0 0)" fill="none" stroke="#e9eaf2" stroke-width="2"/></g><g transform="translate(1195.539 98.602)"><path d="M167.241,65.876l-53.12,30.691L0,30.691,51.825.761,53.12,0,55.1,1.142Z" transform="translate(0)" fill="none" stroke="#e9eaf2" stroke-width="2"/></g><g transform="translate(1195.539 493.008)"><path d="M167.241,65.876l-53.12,30.691L0,30.691,51.825.761,53.12,0,55.1,1.142Z" transform="translate(0 0)" fill="none" stroke="#e9eaf2" stroke-width="2"/></g><g transform="translate(1195.539 295.803)"><path d="M167.241,65.876l-53.12,30.691L0,30.691,51.825.761,53.12,0,55.1,1.142Z" transform="translate(0 0)" fill="none" stroke="#e9eaf2" stroke-width="2"/></g><g transform="translate(1195.539 690.207)"><path d="M167.241,65.876l-53.12,30.691L0,30.691,51.825.761,53.12,0,55.1,1.142Z" transform="translate(0 0)" fill="none" stroke="#e9eaf2" stroke-width="2"/></g><g transform="translate(513.548 98.601)"><path d="M167.241,65.876l-53.12,30.691L0,30.691,51.825.761,53.12,0,55.1,1.142Z" transform="translate(0)" fill="none" stroke="#e9eaf2" stroke-width="2"/></g><g transform="translate(513.548 493.008)"><path d="M167.241,65.876l-53.12,30.691L0,30.691,51.825.761,53.12,0,55.1,1.142Z" transform="translate(0 0)" fill="none" stroke="#e9eaf2" stroke-width="2"/></g><g transform="translate(513.548 295.803)"><path d="M167.241,65.876l-53.12,30.691L0,30.691,51.825.761,53.12,0,55.1,1.142Z" transform="translate(0 0)" fill="none" stroke="#e9eaf2" stroke-width="2"/></g><g transform="translate(513.548 690.207)"><path d="M167.241,65.876l-53.12,30.691L0,30.691,51.825.761,53.12,0,55.1,1.142Z" transform="translate(0 0)" fill="none" stroke="#e9eaf2" stroke-width="2"/></g><g transform="translate(345.104 493.008)"><path d="M167.241,65.876l-53.12,30.691L0,30.691,51.825.761,53.12,0,55.1,1.142Z" transform="translate(0 0)" fill="none" stroke="#e9eaf2" stroke-width="2"/></g><g transform="translate(345.104 295.803)"><path d="M167.241,65.876l-53.12,30.691L0,30.691,51.825.761,53.12,0,55.1,1.142Z" transform="translate(0 0)" fill="none" stroke="#e9eaf2" stroke-width="2"/></g><g transform="translate(345.104 690.207)"><path d="M167.241,65.876l-53.12,30.691L0,30.691,51.825.761,53.12,0,55.1,1.142Z" transform="translate(0 0)" fill="none" stroke="#e9eaf2" stroke-width="2"/></g><g transform="translate(1027.095 98.602)"><path d="M167.241,65.876l-53.12,30.691L0,30.691,51.825.761,53.12,0,55.1,1.142Z" transform="translate(0)" fill="none" stroke="#e9eaf2" stroke-width="2"/></g><g transform="translate(1027.095 493.008)"><path d="M167.241,65.876l-53.12,30.691L0,30.691,51.825.761,53.12,0,55.1,1.142Z" transform="translate(0 0)" fill="none" stroke="#e9eaf2" stroke-width="2"/></g><g transform="translate(1027.095 295.803)"><path d="M167.241,65.876l-53.12,30.691L0,30.691,51.825.761,53.12,0,55.1,1.142Z" transform="translate(0 0)" fill="none" stroke="#e9eaf2" stroke-width="2"/></g><g transform="translate(1027.095 690.207)"><path d="M167.241,65.876l-53.12,30.691L0,30.691,51.825.761,53.12,0,55.1,1.142Z" transform="translate(0 0)" fill="none" stroke="#e9eaf2" stroke-width="2"/></g><g transform="translate(1372.199 98.602)"><path d="M167.241,65.876l-53.12,30.691L0,30.691,51.825.761,53.12,0,55.1,1.142Z" transform="translate(0)" fill="none" stroke="#e9eaf2" stroke-width="2"/></g><g transform="translate(1372.199 493.008)"><path d="M167.241,65.876l-53.12,30.691L0,30.691,51.825.761,53.12,0,55.1,1.142Z" transform="translate(0 0)" fill="none" stroke="#e9eaf2" stroke-width="2"/></g><g transform="translate(1372.199 295.803)"><path d="M167.241,65.876l-53.12,30.691L0,30.691,51.825.761,53.12,0,55.1,1.142Z" transform="translate(0 0)" fill="none" stroke="#e9eaf2" stroke-width="2"/></g><g transform="translate(8.217 690.207)"><path d="M167.241,65.876l-53.12,30.691L0,30.691,51.825.761,53.12,0,55.1,1.142Z" transform="translate(0 0)" fill="none" stroke="#e9eaf2" stroke-width="2"/></g><g transform="translate(1372.199 690.207)"><path d="M167.241,65.876l-53.12,30.691L0,30.691,51.825.761,53.12,0,55.1,1.142Z" transform="translate(0 0)" fill="none" stroke="#e9eaf2" stroke-width="2"/></g><g transform="translate(690.208 98.602)"><path d="M167.241,65.876l-53.12,30.691L0,30.691,51.825.761,53.12,0,55.1,1.142Z" transform="translate(0)" fill="none" stroke="#e9eaf2" stroke-width="2"/></g><g transform="translate(690.208 493.008)"><path d="M167.241,65.876l-53.12,30.691L0,30.691,51.825.761,53.12,0,55.1,1.142Z" transform="translate(0 0)" fill="none" stroke="#e9eaf2" stroke-width="2"/></g><g transform="translate(690.208 295.803)"><path d="M167.241,65.876l-53.12,30.691L0,30.691,51.825.761,53.12,0,55.1,1.142Z" transform="translate(0 0)" fill="none" stroke="#e9eaf2" stroke-width="2"/></g><g transform="translate(690.208 690.207)"><path d="M167.241,65.876l-53.12,30.691L0,30.691,51.825.761,53.12,0,55.1,1.142Z" transform="translate(0 0)" fill="none" stroke="#e9eaf2" stroke-width="2"/></g><g transform="translate(1363.982 0)"><path d="M167.241,65.876l-53.12,30.691L0,30.691,51.825.761,53.12,0,55.1,1.142Z" transform="translate(0)" fill="none" stroke="#e9eaf2" stroke-width="2"/></g><g transform="translate(1363.982 394.405)"><path d="M167.241,65.876l-53.12,30.691L0,30.691,51.825.761,53.12,0,55.1,1.142Z" transform="translate(0 0)" fill="none" stroke="#e9eaf2" stroke-width="2"/></g><g transform="translate(1363.982 197.205)"><path d="M167.241,65.876l-53.12,30.691L0,30.691,51.825.761,53.12,0,55.1,1.142Z" transform="translate(0 0)" fill="none" stroke="#e9eaf2" stroke-width="2"/></g><g transform="translate(0 591.605)"><path d="M167.241,65.876l-53.12,30.691L0,30.691,51.825.761,53.12,0,55.1,1.142Z" transform="translate(0 0)" fill="none" stroke="#e9eaf2" stroke-width="2"/></g><g transform="translate(1363.982 591.606)"><path d="M167.241,65.876l-53.12,30.691L0,30.691,51.825.761,53.12,0,55.1,1.142Z" transform="translate(0 0)" fill="none" stroke="#e9eaf2" stroke-width="2"/></g><g transform="translate(681.991 0)"><path d="M167.241,65.876l-53.12,30.691L0,30.691,51.825.761,53.12,0,55.1,1.142Z" transform="translate(0)" fill="none" stroke="#e9eaf2" stroke-width="2"/></g><g transform="translate(681.991 394.404)"><path d="M167.241,65.876l-53.12,30.691L0,30.691,51.825.761,53.12,0,55.1,1.142Z" transform="translate(0 0)" fill="none" stroke="#e9eaf2" stroke-width="2"/></g><g transform="translate(681.991 197.205)"><path d="M167.241,65.876l-53.12,30.691L0,30.691,51.825.761,53.12,0,55.1,1.142Z" transform="translate(0 0)" fill="none" stroke="#e9eaf2" stroke-width="2"/></g><g transform="translate(681.991 591.605)"><path d="M167.241,65.876l-53.12,30.691L0,30.691,51.825.761,53.12,0,55.1,1.142Z" transform="translate(0 0)" fill="none" stroke="#e9eaf2" stroke-width="2"/></g><g transform="translate(1027.095 0)"><path d="M167.241,65.876l-53.12,30.691L0,30.691,51.825.761,53.12,0,55.1,1.142Z" transform="translate(0)" fill="none" stroke="#e9eaf2" stroke-width="2"/></g><g transform="translate(1027.095 394.404)"><path d="M167.241,65.876l-53.12,30.691L0,30.691,51.825.761,53.12,0,55.1,1.142Z" transform="translate(0 0)" fill="none" stroke="#e9eaf2" stroke-width="2"/></g><g transform="translate(1027.095 197.205)"><path d="M167.241,65.876l-53.12,30.691L0,30.691,51.825.761,53.12,0,55.1,1.142Z" transform="translate(0 0)" fill="none" stroke="#e9eaf2" stroke-width="2"/></g><g transform="translate(1027.095 591.606)"><path d="M167.241,65.876l-53.12,30.691L0,30.691,51.825.761,53.12,0,55.1,1.142Z" transform="translate(0 0)" fill="none" stroke="#e9eaf2" stroke-width="2"/></g><g transform="translate(345.104 394.404)"><path d="M167.241,65.876l-53.12,30.691L0,30.691,51.825.761,53.12,0,55.1,1.142Z" transform="translate(0 0)" fill="none" stroke="#e9eaf2" stroke-width="2"/></g><g transform="translate(345.104 591.605)"><path d="M167.241,65.876l-53.12,30.691L0,30.691,51.825.761,53.12,0,55.1,1.142Z" transform="translate(0 0)" fill="none" stroke="#e9eaf2" stroke-width="2"/></g><g transform="translate(1540.643 0)"><path d="M167.241,65.876l-53.12,30.691L0,30.691,51.825.761,53.12,0,55.1,1.142Z" transform="translate(0)" fill="none" stroke="#e9eaf2" stroke-width="2"/></g><g transform="translate(176.66 394.404)"><path d="M167.241,65.876l-53.12,30.691L0,30.691,51.825.761,53.12,0,55.1,1.142Z" transform="translate(0 0)" fill="none" stroke="#e9eaf2" stroke-width="2"/></g><g transform="translate(1540.643 394.405)"><path d="M167.241,65.876l-53.12,30.691L0,30.691,51.825.761,53.12,0,55.1,1.142Z" transform="translate(0 0)" fill="none" stroke="#e9eaf2" stroke-width="2"/></g><g transform="translate(1540.643 197.206)"><path d="M167.241,65.876l-53.12,30.691L0,30.691,51.825.761,53.12,0,55.1,1.142Z" transform="translate(0 0)" fill="none" stroke="#e9eaf2" stroke-width="2"/></g><g transform="translate(176.66 591.605)"><path d="M167.241,65.876l-53.12,30.691L0,30.691,51.825.761,53.12,0,55.1,1.142Z" transform="translate(0 0)" fill="none" stroke="#e9eaf2" stroke-width="2"/></g><g transform="translate(1540.643 591.606)"><path d="M167.241,65.876l-53.12,30.691L0,30.691,51.825.761,53.12,0,55.1,1.142Z" transform="translate(0 0)" fill="none" stroke="#e9eaf2" stroke-width="2"/></g><g transform="translate(858.651 0)"><path d="M167.241,65.876l-53.12,30.691L0,30.691,51.825.761,53.12,0,55.1,1.142Z" transform="translate(0)" fill="none" stroke="#e9eaf2" stroke-width="2"/></g><g transform="translate(858.651 394.404)"><path d="M167.241,65.876l-53.12,30.691L0,30.691,51.825.761,53.12,0,55.1,1.142Z" transform="translate(0 0)" fill="none" stroke="#e9eaf2" stroke-width="2"/></g><g transform="translate(858.651 197.205)"><path d="M167.241,65.876l-53.12,30.691L0,30.691,51.825.761,53.12,0,55.1,1.142Z" transform="translate(0 0)" fill="none" stroke="#e9eaf2" stroke-width="2"/></g><g transform="translate(858.652 591.606)"><path d="M167.241,65.876l-53.12,30.691L0,30.691,51.825.761,53.12,0,55.1,1.142Z" transform="translate(0 0)" fill="none" stroke="#e9eaf2" stroke-width="2"/></g><g transform="translate(1203.755 0)"><path d="M167.241,65.876l-53.12,30.691L0,30.691,51.825.761,53.12,0,55.1,1.142Z" transform="translate(0)" fill="none" stroke="#e9eaf2" stroke-width="2"/></g><g transform="translate(1203.756 394.405)"><path d="M167.241,65.876l-53.12,30.691L0,30.691,51.825.761,53.12,0,55.1,1.142Z" transform="translate(0 0)" fill="none" stroke="#e9eaf2" stroke-width="2"/></g><g transform="translate(1203.755 197.205)"><path d="M167.241,65.876l-53.12,30.691L0,30.691,51.825.761,53.12,0,55.1,1.142Z" transform="translate(0 0)" fill="none" stroke="#e9eaf2" stroke-width="2"/></g><g transform="translate(1203.756 591.606)"><path d="M167.241,65.876l-53.12,30.691L0,30.691,51.825.761,53.12,0,55.1,1.142Z" transform="translate(0 0)" fill="none" stroke="#e9eaf2" stroke-width="2"/></g><g transform="translate(521.764 394.404)"><path d="M167.241,65.876l-53.12,30.691L0,30.691,51.825.761,53.12,0,55.1,1.142Z" transform="translate(0 0)" fill="none" stroke="#e9eaf2" stroke-width="2"/></g><g transform="translate(521.764 197.205)"><path d="M167.241,65.876l-53.12,30.691L0,30.691,51.825.761,53.12,0,55.1,1.142Z" transform="translate(0 0)" fill="none" stroke="#e9eaf2" stroke-width="2"/></g><g transform="translate(521.764 591.605)"><path d="M167.241,65.876l-53.12,30.691L0,30.691,51.825.761,53.12,0,55.1,1.142Z" transform="translate(0 0)" fill="none" stroke="#e9eaf2" stroke-width="2"/></g></g></g></svg>