<svg xmlns="http://www.w3.org/2000/svg" xmlns:xlink="http://www.w3.org/1999/xlink" width="1920" height="791" viewBox="0 0 1920 791">
  <defs>
    <clipPath id="clip-path">
      <rect id="Rectangle_1054" data-name="Rectangle 1054" width="1920" height="791" fill="none"/>
    </clipPath>
  </defs>
  <g id="node_background" opacity="0.68" clip-path="url(#clip-path)">
    <rect id="Rectangle_1050" data-name="Rectangle 1050" width="1920" height="776" fill="none"/>
    <g id="node_system" data-name="node system" transform="translate(10.439 -169.413)" opacity="0.5">
      <path id="Path_474854" data-name="Path 474854" d="M1714.8,642.3c65.468,0,84.29,26.307,84.29,26.307M1714.8,617.74c79.5,0,95.146,31.816,95.146,31.816M1714.8,585c100.54,0,105.845,48.647,105.845,48.647" transform="translate(-712.44 -186.656)" fill="none" stroke="#c5c9e0" stroke-width="1" fill-rule="evenodd"/>
      <path id="Path_474855" data-name="Path 474855" d="M1714.8,1c159.484,0,289.228,108.1,289.228,241.462,0,100.623-75.98,173.6-180.96,202.249" transform="translate(-712.44 -1)" fill="none" stroke="#c5c9e0" stroke-width="1" fill-rule="evenodd"/>
      <path id="Path_474856" data-name="Path 474856" d="M1714.8,146.875c147.515,0,254.272,89.5,254.272,165.313,0,88.612-48.575,147.071-140.85,172.3m-10.615,14.161c221.8-45.728,230.844-235.732,230.844-235.732M1813.119,505.306c235.076-43.545,277.42-236.933,277.42-236.933M1805.52,517.611c249.74-41.171,327.105-243.781,327.105-243.781M1800.4,526.778c261.123-38.8,374.312-244.763,374.312-244.763M1795.84,535.755c272.3-36.642,427.973-245.554,427.973-245.554M1791.771,544.622C2076.042,510,2286.942,298.385,2286.942,298.385m-499.169,255.84c325.375-29.767,520.212-247.655,520.212-247.655M1785.412,560.446c364.048-26.574,581.027-248.419,581.027-248.419M1782.419,569.4C2204.5,546.777,2415.54,320.212,2415.54,320.212m-635.623,259.27c458.064-20.545,726.81-251.085,726.81-251.085M1777.158,589.122C2274.9,570.569,2654.03,339.311,2654.03,339.311m-878.508,258.3c503.214-14.515,941.638-201,941.638-201M1774.873,603.8c503.775-9.631,942.287-133.524,942.287-133.524M1773.066,611.892c504.243-5.293,944.093-70.681,944.093-70.681" transform="translate(-712.44 -47.374)" fill="none" stroke="#c5c9e0" stroke-width="1" fill-rule="evenodd"/>
      <path id="Path_474857" data-name="Path 474857" d="M1714.8,441c83.775,0,152.166,39.4,152.166,87.99a52.988,52.988,0,0,1-3.32,18.362c-5.794,10.442-30.3,24.61-30.3,24.61s-.888.955-2.455,2.783c-.748.9-1.637,1.964-2.666,3.247-.725.9-1.52,1.855-2.361,2.947-2.1,2.7-4.583,5.975-7.248,9.795-.958,1.31-1.917,2.729-2.9,4.175-16.451,24.244-38.986,65.874-42.65,115.9" transform="translate(-712.44 -140.878)" fill="none" stroke="#c5c9e0" stroke-width="1" fill-rule="evenodd"/>
      <path id="Path_474858" data-name="Path 474858" d="M1714.8,547c64.1,0,116.547,23.219,116.547,51.839a24.78,24.78,0,0,1-1.967,9.549c-.215.518-.449,1.009-.687,1.528a29.151,29.151,0,0,1-1.445,2.619c-.617.982-1.279,1.992-2.015,2.947" transform="translate(-712.44 -174.576)" fill="none" stroke="#c5c9e0" stroke-width="1" fill-rule="evenodd"/>
      <path id="Path_474859" data-name="Path 474859" d="M1842.369,583.626a38.527,38.527,0,0,0,4.421-17.735c0-38.061-59.342-68.892-131.99-68.892" transform="translate(-712.44 -158.681)" fill="none" stroke="#c5c9e0" stroke-width="1" fill-rule="evenodd"/>
      <path id="Path_474860" data-name="Path 474860" d="M1714.8,384.387s171.451,3.135,171.451,104.1c0,26.918-32.834,51.725-32.834,51.725" transform="translate(-712.44 -122.88)" fill="none" stroke="#c5c9e0" stroke-width="1" fill-rule="evenodd"/>
      <path id="Path_474861" data-name="Path 474861" d="M1714.8,314.778s198.646,7.83,198.646,128.245c0,54.693-80.1,88.814-80.1,88.814" transform="translate(-712.44 -100.751)" fill="none" stroke="#c5c9e0" stroke-width="1" fill-rule="evenodd"/>
      <path id="Path_474862" data-name="Path 474862" d="M1639.569,238.576s225.764,9.148,223.832,150.675c0,89.936-105.289,118.36-105.289,118.36M1715.529,576.1s-27.459-17.628-75.961-17.628m67.62,40.075s-11.441-13.639-67.619-13.639m62.954,30.758s-22.949-7.258-62.952-7.258m59.164,28.825s-10.664-4.013-59.167-4.013m0-101.054c-65.468,0-84.29,26.307-84.29,26.307m84.29-50.862c-79.5,0-95.148,31.816-95.148,31.816m95.148-64.556c-100.54,0-105.845,48.647-105.845,48.647" transform="translate(-637.209 -76.526)" fill="none" stroke="#c5c9e0" stroke-width="1" fill-rule="evenodd"/>
      <path id="Path_474863" data-name="Path 474863" d="M1400.958,444.713C1295.976,416.065,1220,343.084,1220,242.464,1220,109.1,1349.739,1,1509.224,1" transform="translate(-506.866 -1.001)" fill="none" stroke="#c5c9e0" stroke-width="1" fill-rule="evenodd"/>
      <path id="Path_474864" data-name="Path 474864" d="M888.937,484.489c-92.275-25.229-140.849-83.688-140.849-172.3,0-75.813,106.757-165.313,254.272-165.313M668.707,262.917s9.049,190,230.844,235.732M626.621,268.374s42.344,193.388,277.42,236.933M584.534,273.83S661.9,476.44,911.64,517.611m-369.192-235.6S655.637,487.981,916.76,526.779M493.347,290.2S649.02,499.113,921.32,535.755m-491.1-237.369S641.117,510,925.388,544.622M409.174,306.571S604.011,524.46,929.386,554.226m-578.666-242.2S567.7,533.872,931.748,560.447M301.62,320.213S512.66,546.778,934.741,569.4m-724.308-241s268.746,230.54,726.81,251.085M63.13,339.311S442.259,570.569,940,589.122M0,396.607s438.424,186.485,941.638,201M0,470.274S438.511,594.17,942.287,603.8M0,541.212S439.85,606.6,944.093,611.893" transform="translate(0 -47.375)" fill="none" stroke="#c5c9e0" stroke-width="1" fill-rule="evenodd"/>
      <path id="Path_474865" data-name="Path 474865" d="M1548.378,710.81c-3.664-50.027-26.2-91.656-42.65-115.9-.982-1.446-1.941-2.865-2.9-4.175-2.668-3.82-5.146-7.094-7.251-9.795-.839-1.091-1.636-2.046-2.359-2.947-1.031-1.282-1.92-2.346-2.666-3.247-1.566-1.828-2.457-2.783-2.457-2.783s-24.506-14.168-30.3-24.61a53.04,53.04,0,0,1-3.32-18.362c0-48.592,68.391-87.99,152.166-87.99" transform="translate(-604.285 -140.878)" fill="none" stroke="#c5c9e0" stroke-width="1" fill-rule="evenodd"/>
      <path id="Path_474866" data-name="Path 474866" d="M1521.536,615.482c-.734-.955-1.4-1.964-2.013-2.947a28.556,28.556,0,0,1-1.445-2.619c-.239-.518-.475-1.009-.687-1.528a24.784,24.784,0,0,1-1.966-9.549c0-28.621,52.442-51.839,116.544-51.839" transform="translate(-629.606 -174.576)" fill="none" stroke="#c5c9e0" stroke-width="1" fill-rule="evenodd"/>
      <path id="Path_474867" data-name="Path 474867" d="M1620.988,497C1548.342,497,1489,527.831,1489,565.892a38.522,38.522,0,0,0,4.419,17.735" transform="translate(-618.628 -158.681)" fill="none" stroke="#c5c9e0" stroke-width="1" fill-rule="evenodd"/>
      <path id="Path_474868" data-name="Path 474868" d="M1592.939,384.387s-171.451,3.135-171.451,104.1c0,26.918,32.832,51.725,32.832,51.725" transform="translate(-590.579 -122.88)" fill="none" stroke="#c5c9e0" stroke-width="1" fill-rule="evenodd"/>
      <path id="Path_474869" data-name="Path 474869" d="M1573.61,314.778s-198.646,7.83-198.646,128.245c0,54.693,80.1,88.814,80.1,88.814" transform="translate(-571.25 -100.751)" fill="none" stroke="#c5c9e0" stroke-width="1" fill-rule="evenodd"/>
      <path id="Path_474870" data-name="Path 474870" d="M1555.7,238.576s-225.764,9.148-223.833,150.675c0,89.936,105.289,118.36,105.289,118.36m42.583,68.491s27.459-17.628,75.961-17.628m-67.62,40.075s11.44-13.639,67.619-13.639m-62.949,30.758s22.949-7.258,62.952-7.258m-59.17,28.825s10.664-4.013,59.167-4.013m0,127.113c-65.468,0-84.29-26.31-84.29-26.31m84.29,50.865c-79.5,0-95.148-31.816-95.148-31.816M1555.7,817.63c-100.54,0-105.845-48.65-105.845-48.65" transform="translate(-553.34 -76.526)" fill="none" stroke="#c5c9e0" stroke-width="1" fill-rule="evenodd"/>
      <path id="Path_474871" data-name="Path 474871" d="M1509.228,1464.708c-159.484,0-289.228-108.1-289.228-241.462,0-100.625,75.98-173.6,180.962-202.252" transform="translate(-506.868 -325.261)" fill="none" stroke="#c5c9e0" stroke-width="1" fill-rule="evenodd"/>
      <path id="Path_474872" data-name="Path 474872" d="M1002.36,1308.908c-147.515,0-254.272-89.5-254.272-165.313,0-88.612,48.575-147.073,140.849-172.3m10.615-14.162c-221.8,45.728-230.844,235.732-230.844,235.732M904.041,950.474c-235.076,43.545-277.42,236.935-277.42,236.935M911.64,938.17C661.9,979.341,584.534,1181.954,584.534,1181.954M916.76,929c-261.123,38.8-374.312,244.766-374.312,244.766M921.32,920.028c-272.3,36.642-427.973,245.554-427.973,245.554M925.388,911.161C641.117,945.781,430.217,1157.4,430.217,1157.4M929.386,901.555c-325.375,29.767-520.212,247.658-520.212,247.658m522.574-253.88C567.7,921.908,350.721,1143.756,350.721,1143.756m584.02-257.369C512.66,909.005,301.62,1135.57,301.62,1135.57M937.242,875.526c-458.065,20.542-726.81,251.863-726.81,251.863M940,866.659C442.259,885.212,63.13,1116.473,63.13,1116.473m878.508-258.3C438.424,872.688,0,1059.173,0,1059.173M942.287,851.981C438.511,861.612,0,985.506,0,985.506M944.093,843.889C439.852,849.182,0,914.57,0,914.57" transform="translate(0 -268.958)" fill="none" stroke="#c5c9e0" stroke-width="1" fill-rule="evenodd"/>
      <path id="Path_474873" data-name="Path 474873" d="M1631.963,1093.591c-64.1,0-116.547-23.221-116.547-51.839a24.736,24.736,0,0,1,1.969-9.549c.21-.519.449-1.01.685-1.531a29.635,29.635,0,0,1,1.445-2.619c.617-.982,1.281-1.989,2.015-2.947" transform="translate(-629.603 -326.568)" fill="none" stroke="#c5c9e0" stroke-width="1" fill-rule="evenodd"/>
      <path id="Path_474874" data-name="Path 474874" d="M1493.419,1048.51a38.514,38.514,0,0,0-4.419,17.734c0,38.058,59.342,68.891,131.988,68.891" transform="translate(-618.628 -334.008)" fill="none" stroke="#c5c9e0" stroke-width="1" fill-rule="evenodd"/>
      <path id="Path_474875" data-name="Path 474875" d="M1592.939,1215.506s-171.451-3.135-171.451-104.1c0-26.918,32.832-51.725,32.832-51.725" transform="translate(-590.579 -337.561)" fill="none" stroke="#c5c9e0" stroke-width="1" fill-rule="evenodd"/>
      <path id="Path_474876" data-name="Path 474876" d="M1573.61,1256.566s-198.646-7.828-198.646-128.245c0-54.693,80.1-88.811,80.1-88.811" transform="translate(-571.25 -331.147)" fill="none" stroke="#c5c9e0" stroke-width="1" fill-rule="evenodd"/>
      <path id="Path_474877" data-name="Path 474877" d="M1555.7,1248.136s-225.764-9.148-223.833-150.675c0-89.936,105.289-118.357,105.289-118.357m42.583-68.5s27.459,17.628,75.961,17.628m-67.62-40.073s11.44,13.636,67.619,13.636m-62.949-30.758S1515.7,878.3,1555.7,878.3m-59.17-28.823s10.664,4.013,59.167,4.013m0,101.053c65.468,0,84.29-26.31,84.29-26.31M1555.7,979.1c79.5,0,95.146-31.816,95.146-31.816m-95.146,64.556c100.54,0,105.845-48.65,105.845-48.65" transform="translate(-553.34 -270.734)" fill="none" stroke="#c5c9e0" stroke-width="1" fill-rule="evenodd"/>
      <path id="Path_474878" data-name="Path 474878" d="M1823.067,1021c104.98,28.648,180.96,101.627,180.96,202.252,0,133.363-129.743,241.462-289.228,241.462" transform="translate(-712.44 -325.262)" fill="none" stroke="#c5c9e0" stroke-width="1" fill-rule="evenodd"/>
      <path id="Path_474879" data-name="Path 474879" d="M1828.223,971.292c92.275,25.23,140.85,83.691,140.85,172.3,0,75.811-106.757,165.313-254.272,165.313m333.652-116.044s-9.049-190.007-230.844-235.732m272.931,230.276s-42.344-193.391-277.42-236.936m319.506,231.479s-77.369-202.612-327.105-243.784m369.192,235.6S2061.522,967.8,1800.4,929m423.413,236.581S2068.139,956.668,1795.84,920.025m491.1,237.369s-210.9-211.616-495.171-246.237m516.214,238.052s-194.837-217.889-520.212-247.658m578.666,242.2S2149.46,921.905,1785.412,895.331m630.128,240.237S2204.5,909,1782.419,886.384m724.308,241s-268.745-230.54-726.81-251.085m874.113,240.171S2274.9,885.208,1777.158,866.656m940,192.518s-438.425-186.488-941.638-201M2717.16,985.507s-438.511-123.9-942.287-133.527m942.287,62.592s-439.851-65.388-944.093-70.681" transform="translate(-712.44 -268.958)" fill="none" stroke="#c5c9e0" stroke-width="1" fill-rule="evenodd"/>
      <path id="Path_474880" data-name="Path 474880" d="M1825.239,1025.11c.734.958,1.4,1.965,2.013,2.947a28.1,28.1,0,0,1,1.445,2.619c.239.518.475,1.009.688,1.531a24.764,24.764,0,0,1,1.967,9.549c0,28.618-52.442,51.839-116.545,51.839" transform="translate(-712.443 -326.569)" fill="none" stroke="#c5c9e0" stroke-width="1" fill-rule="evenodd"/>
      <path id="Path_474881" data-name="Path 474881" d="M1714.8,1135.136c72.646,0,131.988-30.833,131.988-68.891a38.514,38.514,0,0,0-4.419-17.734" transform="translate(-712.44 -334.008)" fill="none" stroke="#c5c9e0" stroke-width="1" fill-rule="evenodd"/>
      <path id="Path_474882" data-name="Path 474882" d="M1714.8,1215.506s171.451-3.135,171.451-104.1c0-26.918-32.834-51.725-32.834-51.725" transform="translate(-712.44 -337.561)" fill="none" stroke="#c5c9e0" stroke-width="1" fill-rule="evenodd"/>
      <path id="Path_474883" data-name="Path 474883" d="M1714.8,1256.566s198.646-7.828,198.646-128.245c0-54.693-80.1-88.811-80.1-88.811" transform="translate(-712.44 -331.147)" fill="none" stroke="#c5c9e0" stroke-width="1" fill-rule="evenodd"/>
      <path id="Path_474884" data-name="Path 474884" d="M1002.36,1243.835s225.764-9.148,223.832-150.675c0-89.935-105.289-118.357-105.289-118.357m-42.583-68.5s-27.459,17.628-75.962,17.628m67.62-40.073S1058.538,897.5,1002.36,897.5m62.954-30.758S1042.365,874,1002.362,874m59.164-28.823s-10.664,4.013-59.167,4.013m0,256.571c-83.775,0-152.166-39.4-152.166-87.99a52.959,52.959,0,0,1,3.32-18.362c5.8-10.444,30.3-24.61,30.3-24.61s.889-.958,2.455-2.786c.748-.9,1.637-1.962,2.666-3.247.725-.9,1.52-1.855,2.362-2.944,2.1-2.7,4.583-5.975,7.248-9.8.959-1.307,1.917-2.728,2.9-4.172,16.451-24.247,38.986-65.874,42.65-115.9L0,836.366" transform="translate(0 -266.433)" fill="none" stroke="#c5c9e0" stroke-width="1" fill-rule="evenodd"/>
      <path id="Path_474885" data-name="Path 474885" d="M2717.161,835.951H1773.068c3.664,50.03,26.2,91.657,42.65,115.9.982,1.446,1.94,2.865,2.9,4.174,2.665,3.82,5.142,7.094,7.248,9.8.842,1.089,1.637,2.046,2.362,2.944,1.029,1.282,1.917,2.346,2.666,3.247,1.566,1.828,2.455,2.786,2.455,2.786s24.506,14.166,30.3,24.607a52.992,52.992,0,0,1,3.32,18.365c0,48.59-68.391,87.99-152.166,87.99" transform="translate(-712.442 -266.435)" fill="none" stroke="#c5c9e0" stroke-width="1" fill-rule="evenodd"/>
    </g>
  </g>
</svg>
