<svg xmlns="http://www.w3.org/2000/svg" width="32.268" height="41.202" viewBox="0 0 32.268 41.202">
  <g id="nofail" transform="translate(4051 3046)">
    <g id="Group_10904" data-name="Group 10904">
      <path id="download" d="M13.934,3V7.467M27.335,3V7.467m-13.4,31.268V43.2m13.4-4.467V43.2m-13.4-26.8h0M18.4,29.8h8.934M9.467,38.735H31.8a4.467,4.467,0,0,0,4.467-4.467V11.934A4.467,4.467,0,0,0,31.8,7.467H9.467A4.467,4.467,0,0,0,5,11.934V34.268A4.467,4.467,0,0,0,9.467,38.735ZM13.934,16.4h13.4V29.8h-13.4Z" transform="translate(-4055.5 -3048.5)" fill="none" stroke="#313457" stroke-linecap="round" stroke-linejoin="round" stroke-width="1"/>
      <g id="Group_10903" data-name="Group 10903" transform="translate(1.166 1.166)">
        <line id="Line_444" data-name="Line 444" y1="6" x2="6" transform="translate(-4039.166 -3029.167)" fill="none" stroke="#313457" stroke-linecap="round" stroke-width="1"/>
        <line id="Line_445" data-name="Line 445" x1="6" y1="6" transform="translate(-4039.166 -3029.167)" fill="none" stroke="#313457" stroke-linecap="round" stroke-width="1"/>
      </g>
    </g>
  </g>
</svg>
