<svg xmlns="http://www.w3.org/2000/svg" width="472.668" height="116" viewBox="0 0 472.668 116">
  <g id="owncast" transform="translate(-17717.332 650)">
    <g id="logo" transform="translate(17684.508 -659.211)">
      <g id="Group_9705" data-name="Group 9705" transform="translate(32.825 18.94)">
        <g id="Group_9704" data-name="Group 9704" transform="translate(0 0)">
          <g id="Group_9702" data-name="Group 9702" transform="translate(3.469)">
            <g id="Group_9701" data-name="Group 9701" transform="translate(0 0)">
              <g id="Group_9694" data-name="Group 9694" transform="translate(36.364 49.835)">
                <path id="Path_475493" data-name="Path 475493" d="M86.237,75.467a8.768,8.768,0,0,0,.128-6.5,9.658,9.658,0,0,0-4.25-4.59,22.012,22.012,0,0,0-7.1-2.465,42.121,42.121,0,0,0-8.245-.6,49.971,49.971,0,0,0-8.33.935,37.269,37.269,0,0,0-6.8,2.04,16.423,16.423,0,0,0-4.505,2.678,4.747,4.747,0,0,0-1.7,3.145q-.127,1.913,1.955,4.123a22.652,22.652,0,0,0,5.355,3.995,43.438,43.438,0,0,0,7.608,3.358,40.191,40.191,0,0,0,8.8,1.913,32.647,32.647,0,0,0,5.228.085,18.96,18.96,0,0,0,4.888-1.105,12.021,12.021,0,0,0,4.123-2.592,11.336,11.336,0,0,0,2.848-4.42M68.472,68.794a5.343,5.343,0,0,1,2.125,1.87,3.773,3.773,0,0,1,.3,2.805,4.9,4.9,0,0,1-.977,1.913,4.395,4.395,0,0,1-1.7,1.148,8.324,8.324,0,0,1-2.168.552,14.331,14.331,0,0,1-2.465.043,22.873,22.873,0,0,1-4.76-.85,28.683,28.683,0,0,1-4.335-1.7,15.874,15.874,0,0,1-3.145-1.955q-1.19-1.063-1.148-1.87a2.047,2.047,0,0,1,.978-1.318,9.27,9.27,0,0,1,2.465-1.062,19.779,19.779,0,0,1,3.485-.765,35.34,35.34,0,0,1,4.123-.255,26.447,26.447,0,0,1,3.91.34A13.393,13.393,0,0,1,68.472,68.794Z" transform="translate(-45.43 -61.305)" fill="#fff"/>
              </g>
              <g id="Group_9695" data-name="Group 9695" transform="translate(25.904 0)">
                <path id="Path_475494" data-name="Path 475494" d="M62.678,12.8a14.041,14.041,0,0,0-2.3-7.65,11.354,11.354,0,0,0-6.63-4.59A11.779,11.779,0,0,0,51.67.139a9.381,9.381,0,0,0-2-.043A8.414,8.414,0,0,0,47.8.309a11.408,11.408,0,0,0-1.785.553,14.06,14.06,0,0,0-5.7,4.335,25.694,25.694,0,0,0-4.08,6.97,42.662,42.662,0,0,0-2.38,7.735,58.336,58.336,0,0,0-1.148,8.033,54.12,54.12,0,0,0-.043,7.1,36.555,36.555,0,0,0,.935,6.078q1.36,5.568,4.165,6.843a3.894,3.894,0,0,0,.51.212l1.1.17q.213,0,.638-.042A10.137,10.137,0,0,0,44.063,46.8a26.6,26.6,0,0,0,4.548-3.613,43.7,43.7,0,0,0,4.93-5.738A53.352,53.352,0,0,0,58,30.272a48.39,48.39,0,0,0,3.528-8.755A29.875,29.875,0,0,0,62.678,12.8M46.485,19.689a3.685,3.685,0,0,1,.723.212q3.443,1.19,3.528,5.483A18.628,18.628,0,0,1,48.568,33.5a28.914,28.914,0,0,1-4.378,6.715q-2.38,2.72-4,2.89l-.213.042-.382-.042-.213-.085q-1.19-.552-1.658-3.613a25.929,25.929,0,0,1,.042-7.1,26.731,26.731,0,0,1,2.083-7.82q1.828-4,4.505-4.718a2.946,2.946,0,0,1,.68-.127,5.477,5.477,0,0,1,.68-.043A3.939,3.939,0,0,1,46.485,19.689Z" transform="translate(-32.576 -0.063)" fill="#fff"/>
              </g>
              <g id="Group_9696" data-name="Group 9696" transform="translate(0 26.756)">
                <path id="Path_475495" data-name="Path 475495" d="M2.433,34.7a6.986,6.986,0,0,0-.85,1.488,9.963,9.963,0,0,0-.553,2,12.275,12.275,0,0,0,.978,8.075,18.24,18.24,0,0,0,4.93,6.078,26.451,26.451,0,0,0,6.8,4.08,16.058,16.058,0,0,0,6.673,1.445,6.089,6.089,0,0,0,1.19-.127,4.262,4.262,0,0,0,1.063-.34,3.719,3.719,0,0,0,.808-.553,2.542,2.542,0,0,0,.595-.765q1.02-1.955-.552-6.035a34.32,34.32,0,0,0-4.888-8.118,32.027,32.027,0,0,0-7.1-6.843q-4-2.678-6.758-2a3.74,3.74,0,0,0-1.275.6A4.015,4.015,0,0,0,2.433,34.7m6.29,8.458a2.694,2.694,0,0,1,.425-.595,2.4,2.4,0,0,1,.51-.382,3.263,3.263,0,0,1,.6-.17A4.881,4.881,0,0,1,13.7,43.2a17.523,17.523,0,0,1,3.74,3.485,22.726,22.726,0,0,1,2.72,4q.978,2,.6,2.805a.642.642,0,0,1-.212.255.535.535,0,0,1-.3.212.65.65,0,0,1-.34.128l-.468.085a8.7,8.7,0,0,1-3.528-.765,17.415,17.415,0,0,1-4-2.252,10.528,10.528,0,0,1-2.975-3.23,5.017,5.017,0,0,1-.51-4A4.785,4.785,0,0,1,8.723,43.154Z" transform="translate(-0.742 -32.944)" fill="#fff"/>
              </g>
              <g id="Group_9697" data-name="Group 9697" transform="translate(23.723 63.017)">
                <path id="Path_475496" data-name="Path 475496" d="M35.276,77.507h-.17a3.485,3.485,0,0,0-2.423.893,7.088,7.088,0,0,0-1.743,2.55,12.936,12.936,0,0,0-.893,3.357,16.861,16.861,0,0,0-.085,3.783,13.282,13.282,0,0,0,2.38,6.843,11.159,11.159,0,0,0,6.63,4.25h.085l.255.085h.128q4.633.892,6.205-1.743a6.151,6.151,0,0,0,.722-3.145,15.529,15.529,0,0,0-.68-4,24.075,24.075,0,0,0-1.785-4.42,24.439,24.439,0,0,0-2.593-4.08,17.31,17.31,0,0,0-3.06-3.06,6.144,6.144,0,0,0-2.975-1.318m-1.19,5.27q.68-1.87,1.742-1.785h.043q1.062.127,2.507,2.21a16.174,16.174,0,0,1,2.168,4.378,6.81,6.81,0,0,1,.34,4q-.553,1.572-2.72,1.275h-.042l-.043-.043h-.128a4.866,4.866,0,0,1-3.273-2.21,8.334,8.334,0,0,1-1.1-3.91A9.373,9.373,0,0,1,34.086,82.777Z" transform="translate(-29.896 -77.505)" fill="#fff"/>
              </g>
              <g id="Group_9698" data-name="Group 9698" transform="translate(8.064 58.171)">
                <path id="Path_475497" data-name="Path 475497" d="M21.279,72.53a3.646,3.646,0,0,0-.935-.51,5.257,5.257,0,0,0-1.148-.3,7.519,7.519,0,0,0-1.19-.17,10.228,10.228,0,0,0-3.57.553,6.562,6.562,0,0,0-2.763,1.657,3.694,3.694,0,0,0-1.02,2.635,5.907,5.907,0,0,0,1.488,3.4q.383.468.935,1.02a5.31,5.31,0,0,0,.978.765,7.191,7.191,0,0,0,.935.467,3,3,0,0,0,.935.213,4.51,4.51,0,0,0,2.975-.638,7.447,7.447,0,0,0,2.423-2.295,7.564,7.564,0,0,0,1.318-3.145A3.727,3.727,0,0,0,22,73.252a4.354,4.354,0,0,0-.722-.722m-.85,1.742a1.552,1.552,0,0,1,.17,1.36,4.557,4.557,0,0,1-.765,1.658,4.811,4.811,0,0,1-1.36,1.275,2.418,2.418,0,0,1-1.573.425l-.468-.085a1.505,1.505,0,0,1-.467-.255,2.6,2.6,0,0,1-.468-.34q-.17-.17-.425-.468a2.2,2.2,0,0,1-.6-1.785,1.83,1.83,0,0,1,.893-1.275,5.162,5.162,0,0,1,1.743-.765,6.777,6.777,0,0,1,1.955-.213l.467.042.383.085a2.777,2.777,0,0,1,.3.17Z" transform="translate(-10.653 -71.55)" fill="#fff"/>
              </g>
              <g id="Group_9699" data-name="Group 9699" transform="translate(27.276 0)">
                <path id="Path_475498" data-name="Path 475498" d="M51.092,16.374a46.158,46.158,0,0,1,11.56,1.445,26.027,26.027,0,0,0,.34-5.015,14.041,14.041,0,0,0-2.3-7.65,11.354,11.354,0,0,0-6.63-4.59A11.779,11.779,0,0,0,51.984.139a9.381,9.381,0,0,0-2-.043,8.414,8.414,0,0,0-1.87.213,11.408,11.408,0,0,0-1.785.553,14.06,14.06,0,0,0-5.7,4.335,25.694,25.694,0,0,0-4.08,6.97,46.372,46.372,0,0,0-2.3,7.268A46.875,46.875,0,0,1,51.092,16.374Z" transform="translate(-34.262 -0.063)" fill="#fff"/>
              </g>
              <g id="Group_9700" data-name="Group 9700" transform="translate(0 26.756)">
                <path id="Path_475499" data-name="Path 475499" d="M1.031,38.181a12.275,12.275,0,0,0,.978,8.075,14.383,14.383,0,0,0,1.573,2.593,39.971,39.971,0,0,1,8.8-13.175q-.34-.255-.85-.6-4-2.678-6.758-2a3.74,3.74,0,0,0-1.275.6A4.015,4.015,0,0,0,2.433,34.7a6.986,6.986,0,0,0-.85,1.488A9.963,9.963,0,0,0,1.031,38.181Z" transform="translate(-0.742 -32.944)" fill="#fff"/>
              </g>
            </g>
          </g>
          <g id="Group_9703" data-name="Group 9703" transform="translate(0 56.659)">
            <path id="Path_475500" data-name="Path 475500" fill="#fff"/>
          </g>
        </g>
      </g>
    </g>
    <text id="OWNCAST-2" data-name="OWNCAST" transform="translate(17824 -571)" fill="#fff" font-size="71" font-family="Poppins-Medium, Poppins" font-weight="500"><tspan x="0" y="0">OWNCAST</tspan></text>
  </g>
</svg>
