<svg xmlns="http://www.w3.org/2000/svg" xmlns:xlink="http://www.w3.org/1999/xlink" width="74" height="74" viewBox="0 0 74 74"><defs><clipPath id="a"><path d="M0,0H74V74H0Z" transform="translate(-4851 -2591)" fill="#4e4c4c" opacity="0.43" clip-rule="evenodd"/></clipPath></defs><g transform="translate(-2517 4851) rotate(90)" clip-path="url(#a)"><g transform="translate(-32 251)"><rect width="10" height="10" rx="1.5" transform="translate(-4799 -2823)" fill="#aec6f7"/><rect width="10" height="10" rx="1.5" transform="translate(-4775 -2810)" fill="#aec6f7"/><rect width="10" height="10" rx="1.5" transform="translate(-4799 -2796)" fill="#aec6f7"/><circle cx="6" cy="6" r="6" transform="translate(-4776 -2825)" fill="#709af2"/><circle cx="6" cy="6" r="6" transform="translate(-4787 -2799) rotate(180)" fill="#709af2"/><circle cx="6" cy="6" r="6" transform="translate(-4776 -2797)" fill="#709af2"/><rect width="13" height="3" rx="1.5" transform="translate(-4786 -2820)" fill="#709af2"/><rect width="13" height="3" rx="1.5" transform="translate(-4777 -2804) rotate(180)" fill="#709af2"/><rect width="13" height="3" rx="1.5" transform="translate(-4786 -2792)" fill="#709af2"/><circle cx="3" cy="3" r="3" transform="translate(-4796 -2808)" fill="#aec6f7"/><circle cx="3" cy="3" r="3" transform="translate(-4773 -2822)" fill="#aec6f7"/><circle cx="3" cy="3" r="3" transform="translate(-4773 -2794)" fill="#aec6f7"/></g></g></svg>