<svg xmlns="http://www.w3.org/2000/svg" xmlns:xlink="http://www.w3.org/1999/xlink" width="104.688" height="104.688" viewBox="0 0 104.688 104.688">
  <defs>
    <filter id="Path_475684" x="0" y="0" width="104.688" height="104.688" filterUnits="userSpaceOnUse">
      <feOffset dy="5" input="SourceAlpha"/>
      <feGaussianBlur stdDeviation="7.5" result="blur"/>
      <feFlood flood-color="#242c60" flood-opacity="0.149"/>
      <feComposite operator="in" in2="blur"/>
      <feComposite in="SourceGraphic"/>
    </filter>
  </defs>
  <g id="polka-flux-node" transform="translate(19.057 14.057)">
    <g transform="matrix(1, 0, 0, 1, -19.06, -14.06)" filter="url(#Path_475684)">
      <path id="Path_475684-2" data-name="Path 475684" d="M29.844,0A29.844,29.844,0,1,1,0,29.844,29.844,29.844,0,0,1,29.844,0Z" transform="translate(22.5 17.5)" fill="none"/>
    </g>
    <circle id="Ellipse_1021" data-name="Ellipse 1021" cx="33.287" cy="33.287" r="33.287" transform="translate(0 0)" fill="none"/>
    <g id="Polkadot_symbol_white" transform="translate(19.285 12.939)">
      <g id="Group_2517" data-name="Group 2517" transform="translate(0 0)">
        <path id="Path_1213" data-name="Path 1213" d="M62.349,34.7A15.163,15.163,0,0,0,47.2,49.849a15.872,15.872,0,0,0,.8,4.93,2.116,2.116,0,1,0,4.008-1.363,10.672,10.672,0,0,1-.6-3.887A10.943,10.943,0,1,1,62.99,60.75s-2.124.12-3.166.281c-.521.08-.922.16-1.2.2a.161.161,0,0,1-.2-.2l.361-1.763,1.964-9.057a2.091,2.091,0,1,0-4.088-.882s-4.729,22.042-4.769,22.283a2.091,2.091,0,1,0,4.088.882c.04-.24.681-3.166.681-3.166a5.323,5.323,0,0,1,4.489-4.168c.481-.08,2.365-.2,2.365-.2A15.152,15.152,0,0,0,62.349,34.7Zm1.082,34.867a2.539,2.539,0,1,0,1.964,3.006A2.523,2.523,0,0,0,63.431,69.567Z" transform="translate(-47.2 -34.7)" fill="#e6007a"/>
      </g>
    </g>
  </g>
</svg>
