<svg width="38" height="38" viewBox="0 0 38 38" fill="none" xmlns="http://www.w3.org/2000/svg">
<path d="M32.9308 10.0586C32.9308 14.2633 26.6381 17.6719 18.8756 17.6719C11.1131 17.6719 4.82031 14.2633 4.82031 10.0586C4.82031 5.85389 11.1131 2.44531 18.8756 2.44531C26.6381 2.44531 32.9308 5.85389 32.9308 10.0586Z" fill="#2B61D1"/>
<path d="M18.8756 20.0144C23.069 20.0144 26.9816 19.0987 29.9299 17.5018C31.0074 16.9181 32.0325 16.195 32.8913 15.3398C32.9175 15.5297 32.9308 15.7215 32.9308 15.9149C32.9308 20.1196 26.6381 23.5282 18.8756 23.5282C11.1131 23.5282 4.82031 20.1196 4.82031 15.9149C4.82031 15.7215 4.83364 15.5297 4.85981 15.3398C5.71864 16.195 6.74373 16.9181 7.82129 17.5018C10.7696 19.0987 14.6821 20.0144 18.8756 20.0144Z" fill="#2B61D1"/>
<path d="M18.8756 25.8707C23.069 25.8707 26.9816 24.9551 29.9299 23.3581C31.0074 22.7744 32.0325 22.0514 32.8913 21.1962C32.9175 21.386 32.9308 21.5778 32.9308 21.7713C32.9308 25.976 26.6381 29.3846 18.8756 29.3846C11.1131 29.3846 4.82031 25.976 4.82031 21.7713C4.82031 21.5778 4.83364 21.386 4.85981 21.1962C5.71864 22.0514 6.74373 22.7744 7.82129 23.3581C10.7696 24.9551 14.6821 25.8707 18.8756 25.8707Z" fill="#2B61D1"/>
<path d="M18.8756 31.7271C23.069 31.7271 26.9816 30.8115 29.9299 29.2145C31.0074 28.6308 32.0325 27.9077 32.8913 27.0525C32.9175 27.2424 32.9308 27.4342 32.9308 27.6277C32.9308 31.8323 26.6381 35.2409 18.8756 35.2409C11.1131 35.2409 4.82031 31.8323 4.82031 27.6277C4.82031 27.4342 4.83364 27.2424 4.85981 27.0525C5.71864 27.9077 6.74373 28.6308 7.82129 29.2145C10.7696 30.8115 14.6821 31.7271 18.8756 31.7271Z" fill="#2B61D1"/>
</svg>
