<svg width="46" height="46" viewBox="0 0 46 46" fill="none" xmlns="http://www.w3.org/2000/svg">
<path d="M25.0458 7.59557V7.63322C25.0458 8.89461 25.893 9.9489 27.079 10.3254C32.4446 12.001 36.3417 16.9901 36.3417 22.9016C36.3417 23.8806 36.2288 24.8031 36.0217 25.7068C35.7581 26.9117 36.2476 28.1542 37.3207 28.7943L37.3395 28.8132C38.9586 29.7545 41.0672 28.9073 41.5002 27.1C41.8203 25.7444 41.9897 24.3324 41.9897 22.9016C41.9897 14.4296 36.3794 7.23786 28.6605 4.88454C26.8719 4.33856 25.0458 5.71291 25.0458 7.59557ZM21.1675 35.9296C15.5383 35.1201 10.9634 30.5452 10.1351 24.9349C9.11843 18.1573 13.2603 12.1893 19.2283 10.3254C20.4332 9.96772 21.2804 8.89461 21.2804 7.63322V7.59557C21.2804 5.71291 19.4542 4.33856 17.6469 4.88454C9.15608 7.48261 3.22569 15.9169 4.5059 25.5185C5.61668 33.7646 12.2813 40.4292 20.5274 41.54C26.4389 42.3307 31.8986 40.3916 35.8334 36.7768C37.2266 35.4966 36.9818 33.2186 35.3439 32.2773C34.252 31.6372 32.8965 31.8443 31.9551 32.6915C29.1876 35.2142 25.347 36.5509 21.1675 35.9296Z" fill="#2B61D1"/>
</svg>
