<svg xmlns="http://www.w3.org/2000/svg" width="84" height="84" viewBox="0 0 84 84"><g transform="translate(12760.336 8516)"><circle cx="42" cy="42" r="42" transform="translate(-12760.336 -8516)" fill="none"/><path d="M42.111,22.556H7.889m34.222,0A4.889,4.889,0,0,1,47,27.444V42.111A4.889,4.889,0,0,1,42.111,47H7.889A4.889,4.889,0,0,1,3,42.111V27.444a4.889,4.889,0,0,1,4.889-4.889m34.222,0V17.667a4.889,4.889,0,0,0-4.889-4.889M7.889,22.556V17.667a4.889,4.889,0,0,1,4.889-4.889m0,0V7.889A4.889,4.889,0,0,1,17.667,3H32.333a4.889,4.889,0,0,1,4.889,4.889v4.889m-24.444,0H37.222" transform="translate(-12743.336 -8498.5)" fill="none" stroke="#36c9a5" stroke-linecap="round" stroke-linejoin="round" stroke-width="2.5"/></g></svg>