<svg xmlns="http://www.w3.org/2000/svg" width="50" height="50" viewBox="0 0 50 50"><g transform="translate(1150 4323)"><g transform="translate(0.127 -0.836)"><path d="M35.607,14.316V9.658A4.658,4.658,0,0,0,30.949,5H7.658A4.658,4.658,0,0,0,3,9.658V23.633a4.658,4.658,0,0,0,4.658,4.658h4.658M19.3,37.607H42.595a4.658,4.658,0,0,0,4.658-4.658V18.975a4.658,4.658,0,0,0-4.658-4.658H16.975a4.658,4.658,0,0,0-4.658,4.658V32.949a4.658,4.658,0,0,0,4.658,4.658Zm16.3-11.646A4.658,4.658,0,1,1,30.949,21.3,4.658,4.658,0,0,1,35.607,25.962Z" transform="translate(-1150.127 -4318.164)" fill="none" stroke="#0ee589" stroke-linecap="round" stroke-linejoin="round" stroke-width="2"/></g><rect width="50" height="50" transform="translate(-1150 -4323)" fill="none"/></g></svg>