<svg xmlns="http://www.w3.org/2000/svg" width="50" height="50" viewBox="0 0 50 50"><g transform="translate(1473 4323)"><g transform="translate(0.102 -1.09)"><path d="M13.934,3V7.467M27.335,3V7.467m-13.4,31.268V43.2m13.4-4.467V43.2m-13.4-26.8h0M18.4,29.8h8.934M9.467,38.735H31.8a4.467,4.467,0,0,0,4.467-4.467V11.934A4.467,4.467,0,0,0,31.8,7.467H9.467A4.467,4.467,0,0,0,5,11.934V34.268A4.467,4.467,0,0,0,9.467,38.735ZM13.934,16.4h13.4V29.8h-13.4Z" transform="translate(-1468.635 -4319.91)" fill="none" stroke="#f855ba" stroke-linecap="round" stroke-linejoin="round" stroke-width="2"/><path d="M13.934,3V7.467M27.335,3V7.467m-13.4,31.268V43.2m13.4-4.467V43.2m-13.4-26.8h0M18.4,29.8h8.934M9.467,38.735H31.8a4.467,4.467,0,0,0,4.467-4.467V11.934A4.467,4.467,0,0,0,31.8,7.467H9.467A4.467,4.467,0,0,0,5,11.934V34.268A4.467,4.467,0,0,0,9.467,38.735ZM13.934,16.4h13.4V29.8h-13.4Z" transform="translate(-1424.9 -4317.443) rotate(90)" fill="none" stroke="#f855ba" stroke-linecap="round" stroke-linejoin="round" stroke-width="2"/></g><rect width="50" height="50" transform="translate(-1473 -4323)" fill="none"/></g></svg>