<svg width="47" height="46" viewBox="0 0 47 46" fill="none" xmlns="http://www.w3.org/2000/svg">
<path fill-rule="evenodd" clip-rule="evenodd" d="M24.53 4.73246C23.9854 4.21674 23.1327 4.21674 22.5882 4.73246C18.7913 8.32829 13.668 10.5316 8.02712 10.5316C7.93737 10.5316 7.84776 10.5311 7.75829 10.53C7.14197 10.5223 6.59191 10.9153 6.3994 11.5008C5.62272 13.8631 5.20312 16.3858 5.20312 19.0037C5.20312 30.1905 12.8544 39.5867 23.2071 42.2513C23.438 42.3108 23.6802 42.3108 23.911 42.2513C34.2638 39.5867 41.915 30.1905 41.915 19.0037C41.915 16.3858 41.4954 13.8631 40.7188 11.5008C40.5263 10.9153 39.9762 10.5223 39.3599 10.53C39.2704 10.5311 39.1808 10.5316 39.091 10.5316C33.4501 10.5316 28.3269 8.32829 24.53 4.73246ZM30.3561 19.8241C30.8093 19.1896 30.6623 18.3077 30.0278 17.8544C29.3932 17.4012 28.5113 17.5481 28.0581 18.1827L21.9669 26.7103L18.9095 23.653C18.3581 23.1015 17.4641 23.1015 16.9127 23.653C16.3612 24.2044 16.3612 25.0984 16.9127 25.6498L21.1487 29.8858C21.4421 30.1793 21.8499 30.3288 22.2635 30.2946C22.6772 30.2603 23.0548 30.0458 23.2961 29.7081L30.3561 19.8241Z" fill="#2B61D1"/>
</svg>
