<?xml version="1.0" encoding="iso-8859-1"?>
<!-- Generator: Adobe Illustrator 19.0.0, SVG Export Plug-In . SVG Version: 6.00 Build 0)  -->
<svg version="1.1" id="Layer_1" xmlns="http://www.w3.org/2000/svg" xmlns:xlink="http://www.w3.org/1999/xlink" x="0px" y="0px"
	 viewBox="0 0 462.426 462.426" style="enable-background:new 0 0 462.426 462.426;" xml:space="preserve">
<g id="XMLID_9_">
	<g>
		<g>
			<path d="M377.426,16.213H276.214v15c0,24.813-20.188,45-45.001,45c-24.813,0-45.001-20.187-45.001-45v-15H85l-85,85
				l76.213,76.213v268.787h310V177.426l76.213-76.213L377.426,16.213z M356.213,165v251.213h-250V165l-63.787-63.787l55-55h60.292
				c6.969,34.19,37.275,60,73.494,60s66.524-25.81,73.494-60H365l55,55L356.213,165z"/>
			<path d="M236.213,191.215c0,24.813,20.187,45,45,45s45-20.187,45-45v-55.002h-90V191.215z M266.213,166.213h30v25.002
				c0,8.271-6.729,15-15,15c-8.272,0-15-6.729-15-15V166.213z"/>
		</g>
	</g>
</g>
<g>
</g>
<g>
</g>
<g>
</g>
<g>
</g>
<g>
</g>
<g>
</g>
<g>
</g>
<g>
</g>
<g>
</g>
<g>
</g>
<g>
</g>
<g>
</g>
<g>
</g>
<g>
</g>
<g>
</g>
</svg>
