<svg xmlns="http://www.w3.org/2000/svg" width="969.689" height="143.776" viewBox="0 0 969.689 143.776">
  <g id="synctube2" transform="translate(1 1.008)">
    <g id="Ebene_1" data-name="Ebene 1">
      <path id="Path_475484" data-name="Path 475484" d="M92.49,106.8a26.15,26.15,0,0,0-4.12-14.93q-4.12-6.11-13-10.8T48.61,71.45q-17.91-4.92-26.86-10T8.62,49.84q-4.17-6.63-4.17-16.1,0-15.08,12.7-24.41T50.22,0A53.64,53.64,0,0,1,74.06,5.16,38.75,38.75,0,0,1,90.4,19.66a39.19,39.19,0,0,1,5.78,21.09H91.07A32.65,32.65,0,0,0,79.69,15.21Q68.32,5.12,50.22,5.12T20.8,13.22Q9.57,21.32,9.57,33.55a24.07,24.07,0,0,0,9.76,20Q29.1,61.13,51.55,67T84.43,80.5Q97.7,90.26,97.7,106.66A30.32,30.32,0,0,1,91.82,125Q86,133,75.15,137.4a64.29,64.29,0,0,1-24.26,4.36,69.33,69.33,0,0,1-26.92-5Q12,131.81,6,122.62t-6-21.7H5.12q0,17,12.7,26.35t33.07,9.38q18.09,0,29.85-8.3T92.49,106.8Z" fill="#fff" stroke="#fff" stroke-width="2"/>
      <path id="Path_475485" data-name="Path 475485" d="M152.72,93.35l39.4-66h5.1L154.8,97.14v42.73h-4.17V97.14L108.21,27.36h5.56Z" fill="#fff" stroke="#fff" stroke-width="2"/>
      <path id="Path_475486" data-name="Path 475486" d="M296.67,139.87H292.5L219.86,34.47v105.4h-4.25V27.36h4.25L292.5,132.53V27.36h4.17Z" fill="#fff" stroke="#fff" stroke-width="2"/>
      <path id="Path_475487" data-name="Path 475487" d="M404.07,105.41q-1.62,17.39-12,26.69T364,141.41a37.8,37.8,0,0,1-21.21-6.06,39.8,39.8,0,0,1-14.33-17.23,61.669,61.669,0,0,1-5.18-25.54V75.19a62.71,62.71,0,0,1,5-25.69A39.75,39.75,0,0,1,342.61,32,37.7,37.7,0,0,1,364,25.82q17.63,0,28,9.27t12.05,26.58H399.9q-1.78-15.53-10.82-23.6T364,30q-16.38,0-26.46,12.36T327.42,75.5V92a58.33,58.33,0,0,0,4.48,23.53,36.49,36.49,0,0,0,12.87,16,33.21,33.21,0,0,0,19.2,5.72q16.15,0,25.23-8t10.7-23.87Z" fill="#fff" stroke="#fff" stroke-width="2"/>
      <path id="Path_475488" data-name="Path 475488" d="M677.67,7H627.44V139.87h-5.12V7H572.1V1.9H677.67Z" fill="#fff" stroke="#fff" stroke-width="2"/>
      <path id="Path_475489" data-name="Path 475489" d="M774.05,27.36v76.19q0,17.85-10.35,27.86t-28.05,10q-17.68,0-28-10t-10.43-27.55V27.36h4.17v76q0,15.6,9.39,24.72t24.92,9.12q15.54,0,24.88-9.12t9.35-24.8v-76Z" fill="#fff" stroke="#fff" stroke-width="2"/>
      <path id="Path_475490" data-name="Path 475490" d="M803.8,139.87V27.36h29.6q18.15,0,27.47,7.38t9.31,21.45q0,10.2-5.18,16.92t-14.6,8.57a28.16,28.16,0,0,1,17.77,9.24,26,26,0,0,1,7.11,18q0,14.37-9.31,22.68T840,139.87ZM808,80.14h27q15.38,0,23.18-5.91t7.81-18.35q0-24-31.61-24.34H808Zm0,4.17V135.7h32.53q14.29,0,22.44-7.07T871.1,109a22.34,22.34,0,0,0-7.88-17.58q-7.87-6.92-21.09-7.15Z" fill="#fff" stroke="#fff" stroke-width="2"/>
      <path id="Path_475491" data-name="Path 475491" d="M959.81,84.08H903.4V135.7h64.29v4.17H899.23V27.36h68.46v4.18H903.4V79.91h56.41Z" fill="#fff" stroke="#fff" stroke-width="2"/>
      <path id="Path_475492" data-name="Path 475492" d="M466.18,25.99v110l74.51-55Z" fill="#fff" stroke="#fff" stroke-width="2"/>
    </g>
  </g>
</svg>
