<svg xmlns="http://www.w3.org/2000/svg" width="439.705" height="128" viewBox="0 0 439.705 128">
  <g id="teamspeak" transform="translate(-0.002)">
    <g id="Group_9717" data-name="Group 9717" transform="translate(3)">
      <g id="Group_9706" data-name="Group 9706" transform="translate(292.473 -10.776)">
        <circle id="Ellipse_1003" data-name="Ellipse 1003" cx="26.247" cy="26.247" r="26.247" transform="translate(9.406 51.906)" fill="#fff"/>
      </g>
      <g id="Group_9707" data-name="Group 9707" transform="translate(292.473 -10.776)">
        <path id="Path_475501" data-name="Path 475501" d="M35.652,51.906A26.247,26.247,0,1,1,9.406,78.152,26.259,26.259,0,0,1,35.652,51.906Zm0,1.64A24.606,24.606,0,1,1,11.047,78.152,24.619,24.619,0,0,1,35.652,53.546Z" fill="#fff" fill-rule="evenodd"/>
      </g>
      <g id="Group_9708" data-name="Group 9708" transform="translate(292.473 -10.776)">
        <circle id="Ellipse_1004" data-name="Ellipse 1004" cx="19.684" cy="19.684" r="19.684" transform="translate(15.968 58.468)" fill="#fff"/>
      </g>
      <g id="Group_9709" data-name="Group 9709" transform="translate(292.473 -10.776)">
        <circle id="Ellipse_1005" data-name="Ellipse 1005" cx="18.044" cy="18.044" r="18.044" transform="translate(17.608 60.108)" fill="#fff"/>
      </g>
      <g id="Group_9710" data-name="Group 9710" transform="translate(292.473 -10.776)">
        <circle id="Ellipse_1006" data-name="Ellipse 1006" cx="13.534" cy="13.534" r="13.534" transform="translate(22.119 64.619)" fill="#fff"/>
      </g>
      <g id="Group_9711" data-name="Group 9711" transform="translate(292.473 -10.776)">
        <path id="Path_475502" data-name="Path 475502" d="M67.071,30.136A12.456,12.456,0,0,1,69.02,31.59,38.307,38.307,0,0,1,81.345,53.2c1.7,7.787,2.522,11.558-1.571,14.4-5.524,3.833,5.9,20.213,8.131,24.953-2.945,3.777-6.785,3.7-8.814,4.743-1.125.58-.66,2.728-.478,4.382.178,1.619,1.67,2.638.852,3.892-.733,1.124-3.5,1.2-4.707,1.979,1.158,1.275,3.733,2.554,3.394,4.212-.261,1.28-3.15,1.055-4.262,3.97-.6,1.562-.289,4.459-1.521,5.921a8.931,8.931,0,0,1-6.549,3.479,10.552,10.552,0,0,1-4.384-.457,48.367,48.367,0,0,1-12.709-6.386c1.577.264,3.293.512,5.1.713,5.242.582,7.875.079,10.392-2.906,1.084-1.286.813-3.832,1.338-5.206.978-2.562,3.518-2.364,3.747-3.491.3-1.458-1.966-2.582-2.984-3.7,1.058-.679,3.495-.75,4.14-1.739.719-1.1-.593-2-.749-3.423-.16-1.454-.571-3.342.419-3.852,1.785-.921,5.161-.848,7.75-4.169C75.92,86.336,65.873,71.934,70.73,68.563c3.6-2.5,2.879-5.812,1.381-12.658a33.689,33.689,0,0,0-10.837-19,15.681,15.681,0,0,0-5.456-3A48.722,48.722,0,0,1,67.071,30.136Z" fill="#fff" fill-rule="evenodd"/>
      </g>
      <g id="Group_9712" data-name="Group 9712" transform="translate(292.473 -10.776)">
        <path id="Path_475503" data-name="Path 475503" d="M78.154,29.176q1.557.043,3.129.185a49,49,0,0,1-2.659,97.77,10.011,10.011,0,0,0,.994-.892c2.078-2.137,2.474-4.709,2.833-7.333.188-1.33,1.189-1.43,2.044-1.923,3.707-2.139,2.134-7.077,2.134-7.077a5.5,5.5,0,0,0,2.092-3.367c.331-1.874-.939-3.482-1.206-5.635.516-.146,1.032-.294,1.541-.461,4.168-1.366,9.879-4.681,7.719-9.162-2.4-4.974-5.727-9.674-7.91-14.843-.853-2.019-1.825-4.057-1.5-5.921,4.063-2.924,4.907-7.673,4.322-11.971C90.146,47.177,85.809,36.886,78.154,29.176Z" fill="#fff" fill-rule="evenodd"/>
      </g>
      <g id="Group_9713" data-name="Group 9713" transform="translate(292.473 -10.776)">
        <path id="Path_475504" data-name="Path 475504" d="M89.445,36.4A47.413,47.413,0,0,1,106.957,47.67c9.279,9.592,14.8,23.535,12.123,36.532-2.533,12.3-13.214,22.556-20.291,25.714-3.388,1.512-6.135,1.291-6.117.879s.448-1.275,2.57-3.832c7.591-9.154,12.062-22.524,5.39-32.964a22.9,22.9,0,0,0-4.882-5.434A15.4,15.4,0,0,0,97.088,59.3,60.733,60.733,0,0,0,89.445,36.4Z" fill="#fff" fill-rule="evenodd"/>
      </g>
      <g id="Group_9714" data-name="Group 9714" transform="translate(292.473 -10.776)">
        <path id="Path_475505" data-name="Path 475505" d="M75.687,10.786a76.779,76.779,0,0,0-38.85,80.847c-.389.034-.784.052-1.184.052A13.541,13.541,0,0,1,22.119,78.152a89.847,89.847,0,0,1,21.8-58.782A67,67,0,0,1,75.687,10.786Z" fill="#fff" fill-rule="evenodd"/>
      </g>
      <g id="Group_9715" data-name="Group 9715" transform="translate(292.473 -10.776)">
        <path id="Path_475506" data-name="Path 475506" d="M43.917,19.37A67.386,67.386,0,0,1,144.234,78.16c0,36.012-32.7,69.235-81.329,58.6l-.111-.094c29.093,3.092,50.537-8.757,62.163-26.071l.07-.105a57.725,57.725,0,0,0,9.847-32.332v-.008A58.023,58.023,0,0,0,27.3,47.967,90.216,90.216,0,0,1,43.917,19.37Z" fill="#fff" fill-rule="evenodd"/>
      </g>
      <g id="Group_9716" data-name="Group 9716" transform="translate(292.473 -10.776)">
        <path id="Path_475507" data-name="Path 475507" d="M76.851,10.776A67.415,67.415,0,0,1,144.234,78.16a60.177,60.177,0,0,1-14.682,39.314,65.75,65.75,0,0,0-88.7-94.338q1.483-1.925,3.066-3.766a67.148,67.148,0,0,1,13.061-5.611l.02-.005.495-.151H57.5l.509-.151.509-.146.016,0,.477-.133.051-.014.494-.133.518-.135.488-.122.072-.018.442-.108.06-.014.5-.119.5-.113.072-.016.425-.092.1-.021.453-.1.039-.009.512-.1.039-.008.449-.087.115-.021.4-.074.106-.018.5-.089.5-.083.113-.018.387-.063.134-.021.413-.063.083-.013.5-.072.086-.012.41-.055.145-.02.371-.047.135-.017.5-.059.5-.055.141-.016.366-.036.156-.016.392-.036.109-.01.5-.043.111-.009.392-.03.162-.012.361-.025.15-.01.5-.031.5-.026.152-.008.361-.016.165-.007.389-.014.12-.005.5-.014.12,0,.391-.008.167,0,.362,0h.156Z" fill="#fff" fill-rule="evenodd"/>
      </g>
    </g>
    <g id="Group_9727" data-name="Group 9727" transform="translate(-3.293)">
      <g id="Group_9718" data-name="Group 9718" transform="translate(-1629.99 -1218.34)">
        <path id="Path_475508" data-name="Path 475508" d="M1641.956,1260.111h6.069v7.61h-2.938a3.766,3.766,0,0,0-2.5.671,4.262,4.262,0,0,0-.628,2.6v41.278h0c-2.45,0-5.042-.376-6.619-1.979s-2.048-4.78-2.048-6.534v-58.317h8.67Z" fill="#fff" fill-rule="evenodd"/>
      </g>
      <g id="Group_9719" data-name="Group 9719" transform="translate(20.837 93.226)">
        <path id="Path_475509" data-name="Path 475509" d="M11.492-22.307v11.914c0,1.605.253,2.7.676,3.126.422.507,1.352.76,2.957.76,1.521,0,2.535-.253,2.957-.76.422-.422.676-1.521.676-3.126v-6.844h7.774v7.351a32.95,32.95,0,0,1-.422,5.661,6.2,6.2,0,0,1-1.774,3.3A6.845,6.845,0,0,1,20.871.507a37.28,37.28,0,0,1-5.83.338A40.883,40.883,0,0,1,8.957.507,6.875,6.875,0,0,1,5.323-1.014,5.043,5.043,0,0,1,3.549-4.225a25.391,25.391,0,0,1-.507-5.661V-40.728a25.391,25.391,0,0,1,.507-5.661,5.257,5.257,0,0,1,1.774-3.3,7.61,7.61,0,0,1,3.633-1.436,40.883,40.883,0,0,1,6.084-.338,37.281,37.281,0,0,1,5.83.338,6.845,6.845,0,0,1,3.464,1.436,5.938,5.938,0,0,1,1.774,3.211,34.052,34.052,0,0,1,.422,5.746v18.42Zm0-6.929h7.267V-40.052c0-1.605-.253-2.7-.676-3.126a4.537,4.537,0,0,0-2.957-.676c-1.605,0-2.535.253-2.957.676s-.676,1.521-.676,3.126Z" fill="#fff"/>
      </g>
      <g id="Group_9720" data-name="Group 9720" transform="translate(50.327 93.226)">
        <path id="Path_475510" data-name="Path 475510" d="M14.534.845A51.839,51.839,0,0,1,8.788.591,7.618,7.618,0,0,1,5.239-.76a4.933,4.933,0,0,1-1.69-2.957,21.411,21.411,0,0,1-.507-5.239V-21.209c0-3.042.591-5.239,1.774-6.675C5.915-29.321,7.943-30,10.731-30h1.605a39.171,39.171,0,0,1,4.056.169,6.184,6.184,0,0,1,1.774.591V-39.714a6.623,6.623,0,0,0-.676-3.549c-.422-.591-1.436-.845-2.873-.845-1.605,0-2.619.253-3.042.845a6.623,6.623,0,0,0-.676,3.549v4.985H3.042v-6a26.229,26.229,0,0,1,.507-5.746,5.371,5.371,0,0,1,1.69-3.211A6.845,6.845,0,0,1,8.7-51.121a35.447,35.447,0,0,1,5.746-.338,40.883,40.883,0,0,1,6.084.338,8.358,8.358,0,0,1,3.718,1.436,6.2,6.2,0,0,1,1.774,3.3,25.391,25.391,0,0,1,.507,5.661V0a29.564,29.564,0,0,1-4.647.676C19.772.76,17.322.845,14.534.845Zm.507-7.1a20.326,20.326,0,0,0,3.126-.169V-22.983a3.59,3.59,0,0,0-1.436-.422,12.479,12.479,0,0,0-1.774-.084,13.619,13.619,0,0,0-2.2.169,1.854,1.854,0,0,0-1.267.676,2.834,2.834,0,0,0-.507,1.352,17.722,17.722,0,0,0-.084,2.281v7.943a20.71,20.71,0,0,0,.084,2.535A3.194,3.194,0,0,0,11.492-7.1a1.854,1.854,0,0,0,1.267.676A15.8,15.8,0,0,0,15.041-6.253Z" fill="#fff"/>
      </g>
      <g id="Group_9721" data-name="Group 9721" transform="translate(80.153 93.226)">
        <path id="Path_475511" data-name="Path 475511" d="M12.337,0H3.718V-50.614h8.027v3.38a6.307,6.307,0,0,1,2.873-2.873,12.8,12.8,0,0,1,5.323-.929,12.069,12.069,0,0,1,5.07.929A5.583,5.583,0,0,1,27.8-46.9a6.912,6.912,0,0,1,3.3-3.3,14.573,14.573,0,0,1,5.154-.845,15,15,0,0,1,4.14.507,5.65,5.65,0,0,1,2.619,1.69,7.479,7.479,0,0,1,1.436,3.211,26.447,26.447,0,0,1,.422,4.9V0H36.249V-39.8a4.348,4.348,0,0,0-.676-2.7,3.831,3.831,0,0,0-2.7-.76,4.463,4.463,0,0,0-2.788.676,5.454,5.454,0,0,0-1.436,1.859V0H20.026V-39.8a4.348,4.348,0,0,0-.676-2.7,3.831,3.831,0,0,0-2.7-.76,5.065,5.065,0,0,0-2.957.676,5.359,5.359,0,0,0-1.352,1.943Z" fill="#fff"/>
      </g>
      <g id="Group_9722" data-name="Group 9722" transform="translate(128.487 93.226)">
        <path id="Path_475512" data-name="Path 475512" d="M18.674-36v-3.8a4.988,4.988,0,0,0-.591-2.957c-.422-.422-1.521-.676-3.126-.676s-2.619.253-3.042.676a4.988,4.988,0,0,0-.591,2.957v4.056a9.967,9.967,0,0,0,.169,1.859,3.121,3.121,0,0,0,.591,1.183,2.611,2.611,0,0,0,1.267,1.014c.591.338,1.352.676,2.281,1.1.169.084.507.253,1.1.507l3.718,1.69a12.711,12.711,0,0,1,1.521.76,14.984,14.984,0,0,1,2.7,1.774,7.108,7.108,0,0,1,1.521,1.774,6.187,6.187,0,0,1,.676,2.112,24.089,24.089,0,0,1,.169,2.619v9.379a32.95,32.95,0,0,1-.422,5.661,6.2,6.2,0,0,1-1.774,3.3A7.529,7.529,0,0,1,21.209.507a41.392,41.392,0,0,1-6.168.338A40.883,40.883,0,0,1,8.957.507,7.506,7.506,0,0,1,5.239-1.014a5.772,5.772,0,0,1-1.859-3.3,25.391,25.391,0,0,1-.507-5.661v-7.774h8.45V-10.9A4.537,4.537,0,0,0,12-7.943q.634.76,3.042.76t3.042-.76a4.988,4.988,0,0,0,.591-2.957v-6.168a9.732,9.732,0,0,0-.084-1.69,2.963,2.963,0,0,0-.507-1.183,6.5,6.5,0,0,0-1.1-1.014,18.78,18.78,0,0,0-1.859-.929c-.676-.338-1.267-.591-1.859-.845s-1.1-.422-1.605-.676a14.088,14.088,0,0,1-1.69-.676,12.684,12.684,0,0,1-1.859-.929A14.082,14.082,0,0,1,5.492-26.7a7.045,7.045,0,0,1-1.605-1.943,5.58,5.58,0,0,1-.76-2.45,19.017,19.017,0,0,1-.253-3.38v-6.168a26.229,26.229,0,0,1,.507-5.746,5.772,5.772,0,0,1,1.859-3.3,7.61,7.61,0,0,1,3.633-1.436,41.392,41.392,0,0,1,6.168-.338,40.883,40.883,0,0,1,6.084.338,8.358,8.358,0,0,1,3.718,1.436,6.2,6.2,0,0,1,1.774,3.3,34.052,34.052,0,0,1,.422,5.746V-36Z" fill="#fff"/>
      </g>
      <g id="Group_9723" data-name="Group 9723" transform="translate(158.397 93.226)">
        <path id="Path_475513" data-name="Path 475513" d="M27.884-9.886a26.655,26.655,0,0,1-.338,4.9,7.513,7.513,0,0,1-1.183,3.211,5.133,5.133,0,0,1-2.45,1.69,12.386,12.386,0,0,1-3.887.507,12.44,12.44,0,0,1-4.647-.76,6.266,6.266,0,0,1-3.042-2.7v15.97H3.718V-50.614h8.027V-46.9a6.435,6.435,0,0,1,3.211-3.3,11.444,11.444,0,0,1,4.816-.845,13.959,13.959,0,0,1,4.056.507,5,5,0,0,1,2.535,1.69,8.482,8.482,0,0,1,1.183,3.211,27.246,27.246,0,0,1,.338,4.9Zm-15.8,0a5.036,5.036,0,0,0,1.605,2.028,4.334,4.334,0,0,0,2.535.591A3.151,3.151,0,0,0,18.843-8.2a5.785,5.785,0,0,0,.676-3.3V-39.038a6.329,6.329,0,0,0-.676-3.38,3.145,3.145,0,0,0-2.619-.845,4.334,4.334,0,0,0-2.535.591,5.036,5.036,0,0,0-1.605,2.028Z" fill="#fff"/>
      </g>
      <g id="Group_9724" data-name="Group 9724" transform="translate(189.323 93.226)">
        <path id="Path_475514" data-name="Path 475514" d="M11.492-22.307v11.914c0,1.605.253,2.7.676,3.126.422.507,1.352.76,2.957.76,1.521,0,2.535-.253,2.957-.76.422-.422.676-1.521.676-3.126v-6.844h7.774v7.351a32.95,32.95,0,0,1-.422,5.661,6.2,6.2,0,0,1-1.774,3.3A6.845,6.845,0,0,1,20.871.507a37.28,37.28,0,0,1-5.83.338A40.883,40.883,0,0,1,8.957.507,6.875,6.875,0,0,1,5.323-1.014,5.043,5.043,0,0,1,3.549-4.225a25.391,25.391,0,0,1-.507-5.661V-40.728a25.391,25.391,0,0,1,.507-5.661,5.257,5.257,0,0,1,1.774-3.3,7.61,7.61,0,0,1,3.633-1.436,40.883,40.883,0,0,1,6.084-.338,37.281,37.281,0,0,1,5.83.338,6.845,6.845,0,0,1,3.464,1.436,5.938,5.938,0,0,1,1.774,3.211,34.052,34.052,0,0,1,.422,5.746v18.42Zm0-6.929h7.267V-40.052c0-1.605-.253-2.7-.676-3.126a4.537,4.537,0,0,0-2.957-.676c-1.605,0-2.535.253-2.957.676s-.676,1.521-.676,3.126Z" fill="#fff"/>
      </g>
      <g id="Group_9725" data-name="Group 9725" transform="translate(218.815 93.226)">
        <path id="Path_475515" data-name="Path 475515" d="M14.534.845A51.839,51.839,0,0,1,8.788.591,7.618,7.618,0,0,1,5.239-.76a4.933,4.933,0,0,1-1.69-2.957,21.411,21.411,0,0,1-.507-5.239V-21.209c0-3.042.591-5.239,1.774-6.675C5.915-29.321,7.943-30,10.731-30h1.605a39.171,39.171,0,0,1,4.056.169,6.184,6.184,0,0,1,1.774.591V-39.714a6.623,6.623,0,0,0-.676-3.549c-.422-.591-1.436-.845-2.873-.845-1.605,0-2.619.253-3.042.845a6.623,6.623,0,0,0-.676,3.549v4.985H3.042v-6a26.229,26.229,0,0,1,.507-5.746,5.371,5.371,0,0,1,1.69-3.211A6.845,6.845,0,0,1,8.7-51.121a35.447,35.447,0,0,1,5.746-.338,40.883,40.883,0,0,1,6.084.338,8.358,8.358,0,0,1,3.718,1.436,6.2,6.2,0,0,1,1.774,3.3,25.391,25.391,0,0,1,.507,5.661V0a29.564,29.564,0,0,1-4.647.676C19.772.76,17.322.845,14.534.845Zm.507-7.1a20.326,20.326,0,0,0,3.126-.169V-22.983a3.59,3.59,0,0,0-1.436-.422,12.479,12.479,0,0,0-1.774-.084,13.619,13.619,0,0,0-2.2.169,1.854,1.854,0,0,0-1.267.676,2.834,2.834,0,0,0-.507,1.352,17.722,17.722,0,0,0-.084,2.281v7.943a20.71,20.71,0,0,0,.084,2.535A3.194,3.194,0,0,0,11.492-7.1a1.854,1.854,0,0,0,1.267.676A15.8,15.8,0,0,0,15.041-6.253Z" fill="#fff"/>
      </g>
      <g id="Group_9726" data-name="Group 9726" transform="translate(248.64 93.226)">
        <path id="Path_475516" data-name="Path 475516" d="M20.533,0,12.59-26.025h-.338V0H3.718V-66.753h8.534V-31.94h.338l7.1-18.674h9.379L19.857-29.49,30.166,0Z" fill="#fff"/>
      </g>
    </g>
  </g>
</svg>
