<svg width="24" height="20" viewBox="0 0 24 20" fill="none" xmlns="http://www.w3.org/2000/svg">
<path d="M19.0649 5.4964C18.5124 5.73296 17.9285 5.89018 17.3303 5.96137C17.9614 5.5891 18.4337 5.00251 18.6608 4.31062C18.0679 4.6599 17.4195 4.9061 16.7426 5.0381C15.6144 3.82785 13.7081 3.75147 12.4848 4.86754C11.6812 5.60096 11.3423 6.70666 11.598 7.75747C9.17521 7.63659 6.91738 6.50198 5.38816 4.63839C5.1228 5.09669 4.98412 5.61505 4.98412 6.14305C4.98262 7.139 5.48411 8.06968 6.32143 8.62289C5.84243 8.60955 5.37317 8.482 4.95489 8.25211V8.28844C4.96238 9.70412 5.97586 10.9196 7.37989 11.1962C7.11752 11.2748 6.84541 11.317 6.5718 11.32C6.38215 11.3178 6.1925 11.3007 6.00584 11.2688C6.40314 12.4798 7.53281 13.3089 8.82065 13.3334C7.75994 14.1595 6.45111 14.6097 5.10181 14.6134C4.85594 14.6141 4.61081 14.5993 4.36719 14.5696C5.74423 15.4499 7.3499 15.9163 8.98931 15.9148C13.6931 15.9623 17.5462 12.2299 17.5949 7.57653C17.5956 7.52462 17.5956 7.47419 17.5949 7.42302V7.0374C18.1713 6.61247 18.6691 6.0904 19.0649 5.4964Z" fill="#98A7B9"/>
</svg>
