<?xml version="1.0" encoding="utf-8"?>
<!-- Generator: Adobe Illustrator 25.4.2, SVG Export Plug-In . SVG Version: 6.00 Build 0)  -->
<svg version="1.1" id="Layer_1" xmlns="http://www.w3.org/2000/svg" xmlns:xlink="http://www.w3.org/1999/xlink" x="0px" y="0px"
	 viewBox="0 0 170 50" style="enable-background:new 0 0 170 50;" xml:space="preserve">
<style type="text/css">
	.st0{fill:#1B83C9;}
	.st1{fill:#F4C84D;}
	.st2{fill-rule:evenodd;clip-rule:evenodd;fill:#0C0C0C;}
</style>
<g>
	<path class="st0" d="M19.4,8.6L19.4,8.6l-0.7,0.2v2.5c0,1.3-0.8,2.4-2,2.8l-6.9,2.2l0,3.7l9-2.8c2.1-0.7,3.4-2.5,3.4-4.9v-1.7
		C22.3,9.4,21,8.1,19.4,8.6z"/>
	<path class="st0" d="M5,7.5l12.8-4c1.4-0.4,2.5-0.4,3.2-0.3L19.3,2c-0.7-0.5-3-1.8-5.8-0.9L1.5,4.9L5,7.5z"/>
	<path class="st1" d="M24.4,18.5c0,0,2.3-2,2.3-6.4v-1.9c0-2.9-3.3-7.6-8.7-5.9l-12.7,4v23.5l3.6-1.1v-5.8l11.4-3.6
		c2.1-0.7,3.9,1,3.9,2.9v2.3c0,2.3-2.1,5.6-5.3,6.6L1.5,38.6L5,41.2l15.8-5c3.3-1.1,7-3.9,7-10v-2.3C27.8,20.3,24.4,18.5,24.4,18.5z
		 M19.1,18L8.9,21.2V10.9l10.2-3.2c2.1-0.7,4,1,4,2.8l0,1.7C23.1,15.1,21.6,17.2,19.1,18z"/>
	<path class="st0" d="M23.4,26.5v-2.3c0-1.3-1.2-2.5-2.8-2l-0.8,0.3l0,3.2c0,1.6-1,2.9-2.5,3.4L4.5,33l0-24.8L0.9,5.6v32.2l17.8-5.6
		C21.5,31.4,23.4,28.5,23.4,26.5z"/>
</g>
<path class="st2" d="M47.8,33.5c-1.9,0-3.4-0.6-4.5-1.8v1.5h-3.4V11.8l3.4-1.1v8.5c1.1-1.2,2.6-1.7,4.5-1.7c2.2,0,4.1,0.8,5.5,2.3
	c1.5,1.6,2.2,3.5,2.2,5.7s-0.7,4.1-2.2,5.7C51.9,32.8,50,33.5,47.8,33.5 M47.4,30.4c1.3,0,2.4-0.5,3.3-1.4c0.9-1,1.3-2.1,1.3-3.5
	c0-1.4-0.4-2.5-1.3-3.5c-0.9-1-2-1.4-3.3-1.4c-1.8,0-3.1,0.7-4.1,2.1v5.6C44.3,29.7,45.6,30.4,47.4,30.4"/>
<path class="st2" d="M60.4,15c-0.6,0-1.1-0.2-1.6-0.7c-0.4-0.4-0.7-1-0.7-1.6c0-0.6,0.2-1.1,0.7-1.6c0.4-0.4,1-0.7,1.6-0.7
	c0.6,0,1.2,0.2,1.6,0.7c0.4,0.4,0.7,1,0.7,1.6c0,0.6-0.2,1.2-0.7,1.6C61.6,14.8,61,15,60.4,15z M58.7,33.2h3.4V17.8h-3.4V33.2z"/>
<path class="st2" d="M73.7,33.4c-1.6,0-2.9-0.4-3.9-1.3c-1-0.9-1.5-2.1-1.5-3.8v-7.4h-3.8v-3h3.8v-3.4l3.4-1.1v4.5h4.7v3h-4.7v6.9
	c0,1.8,0.8,2.6,2.4,2.6c0.8,0,1.6-0.2,2.2-0.6l1,2.8C76.3,33.1,75,33.4,73.7,33.4"/>
<path class="st2" d="M79.6,40.3V17.8H83v1.4c1.1-1.2,2.6-1.7,4.5-1.7c2.2,0,4.1,0.8,5.5,2.3c1.5,1.6,2.2,3.5,2.2,5.7
	s-0.7,4.1-2.2,5.7c-1.5,1.6-3.3,2.3-5.5,2.3c-1.9,0-3.4-0.6-4.5-1.8v7.4L79.6,40.3z M87.1,30.4c1.3,0,2.4-0.5,3.3-1.4
	c0.9-1,1.3-2.1,1.3-3.5c0-1.4-0.4-2.5-1.3-3.5s-2-1.4-3.3-1.4c-1.8,0-3.2,0.7-4.1,2.1v5.6C83.9,29.7,85.3,30.4,87.1,30.4z"/>
<path class="st2" d="M105,33.5c-2.2,0-4.1-0.8-5.5-2.3c-1.4-1.6-2.2-3.5-2.2-5.7s0.7-4.1,2.2-5.7c1.4-1.6,3.3-2.3,5.5-2.3
	c1.9,0,3.4,0.6,4.5,1.7v-1.4h3.4v15.4h-3.4v-1.5C108.4,32.9,106.9,33.5,105,33.5 M105.4,30.4c1.8,0,3.1-0.7,4.1-2.2v-5.6
	c-1-1.4-2.4-2.1-4.1-2.1c-1.3,0-2.4,0.5-3.3,1.4c-0.9,1-1.3,2.1-1.3,3.5c0,1.4,0.4,2.5,1.3,3.5S104.1,30.4,105.4,30.4"/>
<path class="st2" d="M116.6,33.2V17.8h3.4v1.6c1.1-1.3,2.6-1.9,4.5-1.9c1.8,0,3.3,0.6,4.4,1.8c1.1,1.2,1.7,2.8,1.7,4.7v9.2h-3.4
	v-8.7c0-1.3-0.3-2.2-0.9-2.9c-0.6-0.7-1.4-1-2.5-1c-1.8,0-3.1,0.8-3.8,2.4v10.2H116.6z"/>
<path class="st2" d="M141.2,33.5c-2.2,0-4.1-0.8-5.5-2.3c-1.4-1.6-2.2-3.5-2.2-5.7s0.7-4.1,2.2-5.7c1.4-1.6,3.3-2.3,5.5-2.3
	c1.9,0,3.4,0.6,4.5,1.7v-7.5l3.4-1.1v22.5h-3.4v-1.5C144.6,32.9,143.1,33.5,141.2,33.5 M141.6,30.4c1.8,0,3.1-0.7,4.1-2.2v-5.6
	c-1-1.4-2.4-2.1-4.1-2.1c-1.3,0-2.4,0.5-3.3,1.4c-0.9,1-1.3,2.1-1.3,3.5c0,1.4,0.4,2.5,1.3,3.5S140.3,30.4,141.6,30.4"/>
<path class="st2" d="M160,33.5c-2.2,0-4.1-0.8-5.5-2.3c-1.4-1.6-2.2-3.5-2.2-5.7s0.7-4.1,2.2-5.7c1.4-1.6,3.3-2.3,5.5-2.3
	c1.9,0,3.4,0.6,4.5,1.7v-1.4h3.4v15.4h-3.4v-1.5C163.4,32.9,161.9,33.5,160,33.5 M160.4,30.4c1.8,0,3.1-0.7,4.1-2.2v-5.6
	c-1-1.4-2.4-2.1-4.1-2.1c-1.3,0-2.4,0.5-3.3,1.4c-0.9,1-1.3,2.1-1.3,3.5c0,1.4,0.4,2.5,1.3,3.5S159.1,30.4,160.4,30.4"/>
</svg>
