<svg width="30" height="10" viewBox="0 0 30 10" fill="none" xmlns="http://www.w3.org/2000/svg">
<path d="M7 5.07082C7 5.84796 7.54687 6.36456 8.23046 6.36456C8.66015 6.36456 8.96777 6.17589 9.1289 5.96027V6.32413H9.81738V3.83547H9.1289V4.19035C8.96777 3.98371 8.66992 3.79504 8.23535 3.79504C7.54687 3.79504 7 4.29368 7 5.07082ZM9.1289 5.0798C9.1289 5.55148 8.7871 5.81203 8.41113 5.81203C8.04492 5.81203 7.69824 5.5425 7.69824 5.07082C7.69824 4.59914 8.04492 4.34758 8.41113 4.34758C8.7871 4.34758 9.1289 4.60813 9.1289 5.0798Z" fill="white"/>
<path d="M11.0723 3H10.3887V6.3242H11.0723V3Z" fill="white"/>
<path d="M12.8105 4.31164C13.1621 4.31164 13.4453 4.51828 13.4551 4.84621H12.1709C12.2246 4.50481 12.4834 4.31164 12.8105 4.31164ZM14.0947 5.5425H13.3574C13.2695 5.70871 13.1084 5.84347 12.8154 5.84347C12.4736 5.84347 12.2002 5.63683 12.166 5.26847H14.1435C14.1582 5.18762 14.1631 5.10676 14.1631 5.0259C14.1631 4.28469 13.6113 3.79504 12.8301 3.79504C12.0293 3.79504 11.4727 4.29367 11.4727 5.0798C11.4727 5.86144 12.0439 6.36456 12.8301 6.36456C13.499 6.36456 13.9482 6.0007 14.0947 5.5425Z" fill="white"/>
<path d="M15.2471 4.19485V3.83547H14.5635V7.51006H15.2471V5.96925C15.4131 6.1714 15.7158 6.36456 16.1406 6.36456C16.834 6.36456 17.376 5.84796 17.376 5.07082C17.376 4.29368 16.834 3.79504 16.1406 3.79504C15.7207 3.79504 15.4082 3.98372 15.2471 4.19485ZM16.6777 5.07082C16.6777 5.5425 16.331 5.81203 15.96 5.81203C15.5937 5.81203 15.2471 5.55148 15.2471 5.0798C15.2471 4.60813 15.5937 4.34758 15.96 4.34758C16.331 4.34758 16.6777 4.59914 16.6777 5.07082Z" fill="white"/>
<path d="M17.7773 6.3242H18.4609V4.9496C18.4609 4.5498 18.7002 4.33417 19.0713 4.33417C19.4326 4.33417 19.6719 4.5498 19.6719 4.9496V6.3242H20.3555V4.86425C20.3555 4.17695 19.9111 3.7996 19.3008 3.7996C18.9395 3.7996 18.6367 3.93437 18.4609 4.1455V3H17.7773V6.3242Z" fill="white"/>
<path d="M21.5908 3.83545H20.9072V6.32411H21.5908V3.83545Z" fill="white"/>
<path d="M24.7197 3.83545H24.0312V5.20556C24.0312 5.60536 23.7969 5.82099 23.4258 5.82099C23.0645 5.82099 22.8252 5.60536 22.8252 5.20556V3.83545H22.1416V5.2954C22.1416 5.97821 22.5957 6.35555 23.2256 6.35555C23.5625 6.35555 23.8603 6.22079 24.0312 6.00966V6.32411H24.7197V3.83545Z" fill="white"/>
<path d="M29.081 6.32416H29.7646V4.8642C29.7646 4.1769 29.3057 3.79956 28.6562 3.79956C28.2607 3.79956 27.9043 3.99272 27.7285 4.27573C27.543 3.96577 27.1963 3.79956 26.7764 3.79956C26.4395 3.79956 26.1514 3.92983 25.9805 4.13647V3.8355H25.2969V6.32416H25.9805V4.94956C25.9805 4.55424 26.2197 4.34761 26.5908 4.34761C26.9521 4.34761 27.1914 4.55424 27.1914 4.94956V6.32416H27.875V4.94956C27.875 4.55424 28.1142 4.34761 28.4805 4.34761C28.8418 4.34761 29.081 4.55424 29.081 4.94956V6.32416Z" fill="white"/>
<path fill-rule="evenodd" clip-rule="evenodd" d="M1.83474 6.14769C1.83474 6.027 1.73936 5.94572 1.62153 5.9665L0.213212 6.21478C0.095384 6.23556 0 6.35047 0 6.47116V9.13433C0 9.25529 0.095384 9.33657 0.213212 9.3158L1.62153 9.06751C1.73936 9.04674 1.83474 8.93183 1.83474 8.81086V6.14769Z" fill="white"/>
<path fill-rule="evenodd" clip-rule="evenodd" d="M5.50369 0.184436C5.50369 0.0637464 5.40831 -0.0175324 5.29048 0.00324066L3.88216 0.251528C3.76433 0.272301 3.66895 0.387212 3.66895 0.507902V3.17107C3.66895 3.29203 3.76433 3.37331 3.88216 3.35254L5.29048 3.10425C5.40831 3.08348 5.50369 2.96857 5.50369 2.8476V0.184436Z" fill="#FF5D51"/>
<path fill-rule="evenodd" clip-rule="evenodd" d="M2.06333 0.806206C2.00894 0.686406 1.86272 0.607476 1.73648 0.629733L0.227567 0.895756C0.101323 0.918013 0.043144 1.03298 0.0975375 1.15278L3.43881 8.51181C3.4932 8.63161 3.63973 8.71123 3.76597 8.68897L5.27488 8.42295C5.40113 8.40069 5.45899 8.28503 5.4046 8.16523L2.06333 0.806206Z" fill="white"/>
</svg>
