<svg width="994" height="286" viewBox="0 0 994 286" fill="none" xmlns="http://www.w3.org/2000/svg">
<path fill-rule="evenodd" clip-rule="evenodd" d="M142.911 286C221.838 286 285.822 221.977 285.822 143C285.822 64.0233 221.838 0 142.911 0C63.9834 0 0 64.0233 0 143C0 221.977 63.9834 286 142.911 286ZM93.8362 66.8086L84.0212 76.7173C96.0616 88.8726 110.871 96.528 126.4 99.6835L142.911 116.352L159.422 99.6835C174.951 96.528 189.76 88.8726 201.801 76.7173L191.986 66.8086L159.422 99.6835C148.533 101.896 137.29 101.896 126.4 99.6835L93.8362 66.8086ZM66.7668 93.8797L76.6265 84.0586L135.784 142.985L76.6265 201.912L66.7668 192.091L116.065 142.985L66.7668 93.8797ZM219.055 192.091L209.195 201.912L150.038 142.985L209.195 84.0586L219.055 93.8797L169.757 142.985L219.055 192.091ZM126.4 186.316L142.911 169.648L159.422 186.316C148.533 184.104 137.29 184.104 126.4 186.316ZM126.4 186.316L93.8362 219.191L84.0212 209.283C96.0616 197.127 110.871 189.472 126.4 186.316ZM159.422 186.316C174.951 189.472 189.76 197.127 201.801 209.283L191.986 219.191L159.422 186.316Z" fill="white"/>
<path d="M690.924 86.3444H714.291V103.378L710.208 118.367H716.56C721.702 95.5046 734.936 84.0732 756.262 84.0732C766.244 84.0732 773.957 87.1771 779.402 93.3849C784.998 99.4413 788.553 107.769 790.065 118.367H794.376C796.795 107.466 801.106 99.0628 807.307 93.1578C813.659 87.1014 822.507 84.0732 833.851 84.0732C845.799 84.0732 854.722 88.4641 860.621 97.2459C866.519 105.876 869.469 117.308 869.469 131.54V199.674H846.101V135.401C846.101 124.045 844.589 116.021 841.564 111.327C838.539 106.633 832.867 104.286 824.549 104.286C813.962 104.286 805.87 108.602 800.274 117.232C794.678 125.862 791.88 137.596 791.88 152.435V199.674H768.513V135.401C768.513 124.045 767 116.021 763.975 111.327C760.95 106.633 755.279 104.286 746.96 104.286C736.373 104.286 728.281 108.602 722.685 117.232C717.089 125.862 714.291 137.596 714.291 152.435V199.674H690.924V86.3444Z" fill="white"/>
<path d="M673.67 199.675H626.818C615.856 199.675 610.375 194.195 610.375 183.235V106.593H585.147V86.3257H610.375V60.5032L633.576 53.2969V86.3257H669.165V106.593H633.576V179.632H673.67V199.675Z" fill="white"/>
<path d="M466.617 142.134C466.617 130.251 468.875 120.023 473.392 111.449C478.058 102.724 484.532 96.1057 492.812 91.5931C501.092 87.0805 510.726 84.8242 521.716 84.8242C539.028 84.8242 552.728 89.7129 562.814 99.4902C572.9 109.268 577.944 122.805 577.944 140.104V148.001H489.65C490.102 158.681 493.113 167.255 498.683 173.723C504.403 180.191 512.458 183.425 522.845 183.425C531.727 183.425 538.878 181.394 544.297 177.333C549.867 173.271 553.556 167.555 555.362 160.185H578.395C575.987 172.219 570.191 182.221 561.008 190.194C551.975 198.016 539.405 201.927 523.297 201.927C511.253 201.927 500.941 199.369 492.36 194.255C483.93 188.99 477.532 181.845 473.166 172.82C468.8 163.795 466.617 153.566 466.617 142.134ZM555.136 132.884C554.534 123.407 551.222 116.036 545.201 110.772C539.329 105.507 531.576 102.875 521.942 102.875C512.909 102.875 505.457 105.507 499.586 110.772C493.715 116.036 490.403 123.407 489.65 132.884H555.136Z" fill="white"/>
<path d="M882.222 142.134C882.222 130.251 884.48 120.023 888.996 111.449C893.663 102.724 900.136 96.1057 908.416 91.5931C916.696 87.0805 926.331 84.8242 937.32 84.8242C954.633 84.8242 968.332 89.7129 978.419 99.4902C988.505 109.268 993.548 122.805 993.548 140.104V148.001H905.255C905.706 158.681 908.717 167.255 914.287 173.723C920.008 180.191 928.062 183.425 938.449 183.425C947.331 183.425 954.482 181.394 959.902 177.333C965.472 173.271 969.16 167.555 970.967 160.185H994C991.591 172.219 985.795 182.221 976.612 190.194C967.58 198.016 955.009 201.927 938.901 201.927C926.858 201.927 916.545 199.369 907.965 194.255C899.534 188.99 893.136 181.845 888.77 172.82C884.405 163.795 882.222 153.566 882.222 142.134ZM970.741 132.884C970.139 123.407 966.827 116.036 960.805 110.772C954.934 105.507 947.181 102.875 937.546 102.875C928.514 102.875 921.062 105.507 915.191 110.772C909.319 116.036 906.007 123.407 905.255 132.884H970.741Z" fill="white"/>
<path d="M462.116 86.3252L427.973 199.674H379.679L345.087 86.3252H368.448L400.794 193.314H407.083L439.205 86.3252H462.116Z" fill="white"/>
</svg>
