<svg width="47" height="46" viewBox="0 0 47 46" fill="none" xmlns="http://www.w3.org/2000/svg">
<path d="M23.5624 4.5022C13.1889 4.5022 4.77344 12.9177 4.77344 23.2912C4.77344 33.6646 13.1889 42.0801 23.5624 42.0801C33.9359 42.0801 42.3514 33.6646 42.3514 23.2912C42.3514 12.9177 33.9359 4.5022 23.5624 4.5022ZM22.5834 34.3612V26.567H17.5755C16.879 26.567 16.4083 25.8139 16.7472 25.1927L23.6754 11.694C24.1084 10.8091 25.4451 11.1292 25.4451 12.127V20.0153H30.227C30.9236 20.0153 31.3755 20.7496 31.0742 21.3708L24.372 34.7754C23.9201 35.6791 22.5834 35.359 22.5834 34.3612Z" fill="#2B61D1"/>
</svg>
