<svg width="39" height="39" viewBox="0 0 39 39" fill="none" xmlns="http://www.w3.org/2000/svg">
<path d="M18.11 7.68952C15.7433 6.17456 12.929 5.29565 9.91105 5.29565C8.13349 5.29565 6.42465 5.60074 4.83564 6.16238C4.36761 6.3278 4.05469 6.77029 4.05469 7.2667V29.5209C4.05469 29.9011 4.23925 30.2576 4.54968 30.4772C4.86012 30.6967 5.2578 30.7519 5.61628 30.6252C6.95806 30.1509 8.40309 29.8924 9.91105 29.8924C13.0267 29.8924 15.8818 30.9969 18.11 32.8373V7.68952Z" fill="#2B61D1"/>
<path d="M20.4525 32.8373C22.6807 30.9969 25.5358 29.8924 28.6514 29.8924C30.1594 29.8924 31.6044 30.1509 32.9462 30.6252C33.3047 30.7519 33.7023 30.6967 34.0128 30.4772C34.3232 30.2576 34.5078 29.9011 34.5078 29.5209V7.2667C34.5078 6.77029 34.1948 6.3278 33.7268 6.16238C32.1378 5.60074 30.429 5.29565 28.6514 5.29565C25.6335 5.29565 22.8192 6.17456 20.4525 7.68952V32.8373Z" fill="#2B61D1"/>
</svg>
