<svg xmlns="http://www.w3.org/2000/svg" width="1222" height="564" viewBox="0 0 1222 564"><g transform="translate(1983 2863)"><g transform="translate(-1972 -2858.5)"><path d="M1195.66,479.8c1.356-.123,3.19-1.35,4.34-.228a9.2,9.2,0,0,1-4.34,4.87c-.943.438-2.178.28-3.172.7-1.9.789-2.9,2.8-4.545,4.187a62.2,62.2,0,0,1-5.249,3.5c-1.612,1.1-3.79,3.135-5.694,1.629.154-2.733,2.984-2.7,3.653-4.888,0-1.629-1.423-1.751-1.355-3.5,3.139-2.82,8.113-4.852,8.85-10.686.36-2.592-1.715-8.128,1.373-8.373,3.636-.28,1.577,3.731,1.835,5.816,0,.84.943,1.419,1.355,2.557.754,2.032.686,3.89,2.95,4.415ZM1174,493.043c-1.282,3.823-7.026,5.83-10.715,8.25-1.142.762-2.09,2.457-3.513,2.993-1.757.71-3.882.467-5.815,1.367-3.091,1.435-5.392,4.22-8.168,5.984s-6.657,4.117-9.784,4.342c-3.513.26-9.82-1.92-5.6-5.033a62.91,62.91,0,0,1,7.694-3.91c6.64-3.269,15.95-5.465,21.447-9.41,3.092-2.213,5.9-4.583,8.783-6.416,1.564-.934,4.04,1.539,5.674,1.833Zm-40.186-154c.761-.185.726.31,1.186.4-.283,2.939-2.3,4.857-6.584,4.517-1.911-.155-5.31-1.408-5.4-2.259-.478-2.94,8.655-1.13,10.8-2.66Zm-12.007,15.5c1.745.468,9.111,5.693,6.72,8.029-1.31,1.3-2.985-.692-5.1-1.142-2.828-.623-5.01.138-6.982-1.384s-2.74-5.433-5.1-7.579a10.39,10.39,0,0,0-6.476-2.284c-3.683.38-3.648,4.568-6.982,6.42-3.176-.33-5.044.57-7.418-.225s-3.77-4.067-6.022-4.36-7.925,3.754-8.727.224c-.716-2.855,3.875-3.79,4.154-5.727s-1.746-5.1-2.776-5.987-2.321-.934-3.49-1.592-2.095-2.059-3.492-2.768c-4.852-2.51-12.218-1.488-14.12-5.5-.332-.709.174-1.505-.228-2.526s-2.374-1.73-3.02-2.75c-1.64-2.8-.488-6.922,2.322-7.355,2.531-.363,7.523,2.734,8.1,4.6.314.969-.21,2.076,0,3.2s2.32,4.673,4.171,4.828c2.391.19,3.823-3.46,6.022-4.827a11.522,11.522,0,0,1,6.022-1.834c1.972.156,3.3,1.73,5.55,2.526,1.624.606,3.649.848,5.569,1.384s3.124,1.436,4.852,2.06c5.516,1.99,12.08,3.148,15.064,6.66.8.97.786,2.389,1.85,3.462s6.337,1.937,6.476,4.135c.122,1.73-2.2,1.73-2.3,3.46-.157,3.3,4.556,3.115,5.359,6.852ZM1074,493.021a14.16,14.16,0,0,1-6.053,7.729c-2.194,1.38-9.142,4.172-9.947.216a24.2,24.2,0,0,1,1.938-7.28c1.72-3.091,3.548-1.064,6.309-.665S1071.751,491.526,1074,493.021Zm-18.328-336.286c.945,2.783,1.593,5.531,2.328,8.122-2.556,3.186-7.614,2.013-11.378,3.71-1.75.806-2.24,3.747-3.938,4.184-1.366.368-2.433-1.19-3.729-1.155-3.325,0-4.953,5.584-9.05,4.184-2.345,1.383,0,6.74-2.782,7.194-2.048.315-3.186-2.328-4.429-3.956-1.488-1.96-3.64-3.046-3.693-4.639s3.325-4.428,4.393-5.566c1.33-1.418,3.921-4.061,5.584-4.429,3.08-.665,6.232.3,8.595-.683,2.03-.875,2.153-4.078,3.238-4.883s1.995-.49,2.8-.928a8.455,8.455,0,0,0,3.256-9.295c-.787-2.59-5.076-5.427-2.328-8.6,4.114.438,9.54,4.5,10.223,8.6.262,1.61-.63,3.2-.473,4.884a23.912,23.912,0,0,0,1.383,3.256Zm.328-25.366c-.515,1.22-1.546.97-2.508,1.67s-2.044,2.873-3.194,3.106c-1.82.36-3.882-1.885-5.7-1.436-2.13.538-.876,2.244-1.58,4.291-1.872-.413-4.946-2.586-5.015-4.758,0-1.365,1.718-2.209,2.044-3.825.687-2.711-1.065-4.094-2.044-6.661,0-.395.206-.413.223-.719,2.216-.484,6.6,3.9,11.628,4.759,3.246.574,5.96.269,6.149,3.573Zm-9.01,235.415c.208,1.629-2.676,1.48-2.99.385C1044.075,365.9,1046.63,365.511,1046.99,366.784ZM1032.18,112c2.082,1.113,7.151,3.661,3.591,6C1033.611,117.177,1031.353,114.42,1032.18,112Zm-11.628,244.232c2.72-1.355,5.692-4.31,10.453-2.825-1.056,2.7-4.636,2.646-6.891,3.9s-4.225,3.429-7.16,3.69a2.163,2.163,0,0,0-.949-.882c.018-2.416,2.667-2.971,4.547-3.886Zm-5.6-44.359c2.676,0,5.147-.775,7.052.226-.36,5.345-9.18,1.276-15.031,2.132-1.236.177-1.613,1.1-2.969.645a4.826,4.826,0,0,1,4.341-3.859c1.665-.161,4.084.856,6.607.856Zm2.04,7.889c.27,3.262-4.223,3.546-5.392,6.134,1.977,2.979,2.75,7.092,5.015,9.875-.108,1.773.36,4.13-.719,4.929-4.8.921-7.387-7.588-9.31-10.638-3.595.674-.324,12.25-5.23,10.815-2.427-.71,0-4.025-.486-6.577-.45-2.27-2.7-2.73-2.858-4.486-.143-1.453,1.618-3,2.14-4.467.754-2.128.269-6.24,2.857-6.347,1.276,0,2.984,2.642,3.828,2.819,2.75.673,6.13-2.8,10.155-2.057ZM1008,353.954c-.855,1.88-5.6.978-6-.752C1002.8,351.228,1007.6,351.83,1008,353.954Zm-4,5.281a4.832,4.832,0,0,1-.91.765c-1.719-.462-3.575-.823-4.09-2.294,1.271-1.573,4.948-.275,5,1.53Zm-6-5.6c-1.174,1.464-5.255-.117-6.745,1.362-2.417,0-4.852-.073-5.255-1.742.7-1.465,2.908-.454,4.642-.586C993.375,352.452,997.247,350.812,998,353.638Z" transform="translate(-0.001 0)" fill="#f5f5fa"/><path d="M965.07,442.733c0-2.04-1.287-3.852-1.618-6.013-.122-.784.122-1.742,0-2.788-.156-1.429-.852-2.614-.7-3.485.33-1.516,2.1-1.743,2.556-3,.713-2.161-.887-2.51-.94-5.089,0-1.83,1.392-2.718,2.314-5.088.435-1.1.452-3.137.922-3.921s3.148-1.743,4.156-2.318c3.479-1.743,6.366-4.967,9.93-5.542.888-.157,2.122.105,2.766,0,2.087-.366,4.713-2.126,7.617-2.77s5.218-.4,7.374-1.639a19.155,19.155,0,0,0,6.47-6.97c1.043-2.544.73-4.688,2.765-5.56.991-.417,1.965,0,2.991-.226a14.3,14.3,0,0,0,4.157-2.073c1.617-1.447,1.878-3.817,3.687-5.333a32.2,32.2,0,0,1,5.322-3.485,9.168,9.168,0,0,1,3.687-.941c3.252.279,4.765,4.827,8.3,3.938,1.27-.331,2.557-3.015,3.7-4.635,1.739-2.353,2.87-5.524,5.774-6.239,2.33-.575,4.939.906,6.226-1.15.278-1.464-1.1-2.335,0-3.241,2.678.174,7.235,3.8,11.3,3.92,2.191.088,6.261-2.387,6.7.942.191,1.463-1.74,2.648-2.087,4.164-.3,1.063.452,1.621-.226,2.771-1.878.732-3.861,1.133-3.93,3.224,0,2.649,3.738,3.886,6,5.333,1.565.993,2.869,2.492,3.7,3a22.76,22.76,0,0,0,2.3.924c1.5.975,2.557,3.189,4.626,3.24,2.348,0,4.679-2.927,6-5.785,1.531-3.328,1.618-7.371,2.3-10.856.226-1.168,1.061-2.318,1.391-3.486.887-3.171,2.1-7.44,4.835-8.556,2.766,2.91,3.7,8.609,3.252,13.418,1.827,1.394,5.079.924,5.53,4.148.157,1.115-.556,2.544-.469,3.694.157,1.952,1.6,3.66,1.861,5.333.452,3.067-.522,5.611.905,7.859,1.739,2.823,5.339,2.736,7.617,5.786a11.026,11.026,0,0,0,1.148,4.147c.226.715,0,1.865.243,2.318.73,1.55,2.73,1.742,3.479,3,.347.645.26,1.865.695,3.015a27.062,27.062,0,0,0,3.218,4.618c1.043,1.6,2.747,3.363,3.008,4.635.453,2.3-1.2,3.886-1.617,5.769-.5,2.3,0,5.227-.922,7.632-1.06,2.789-3.7,5.524-5.774,9.027a30.521,30.521,0,0,1-6.452,8.086c-1.46,1.168-3.2,1.847-4.626,3.015a67.9,67.9,0,0,0-6,6.238c-2.07,2.2-4.591,3.887-6.226,5.769-2.365,2.753-3.478,7.2-7.618,7.632a24.3,24.3,0,0,0-6.695.924c-3.479,1.36-5.67,3.869-7.374,3.938s-3.478-2.09-5.078-2.317-3.305,1.411-6,1.394c-1.1,0-1.653-.662-3.218-1.168-3.3-1.045-6.956-.993-7.391-4.618-.261-1.969,1.252-2.858,1.148-4.618s-1.913-2.056-2.557-3.625a3.821,3.821,0,0,0-1.148-4.618,4.531,4.531,0,0,1,.922-3.24,30.205,30.205,0,0,0-4.626,1.864c-1.74,1.01-2.887,3.346-4.835,3-1.74-.645-.417-2.457-.7-3.938a20.224,20.224,0,0,0-3.913-6.692,33,33,0,0,0-7.843-3.015c-7.13-1.115-11.687,2.7-17.392,3.242-1.443.139-3.008-.244-4.382,0-4.626.819-9.791,4.513-12.678,6.97-4.783.47-9.618-.976-14.557.47s-7.687,5.507-15.217,4.375c-1.479-1.272-4.14-1.917-4.157-4.148,0-1.742,2.609-2.91,3.478-4.165A16.418,16.418,0,0,0,965,452.666c0-1.534-1.026-3.364-.922-5.315.157-1.534,1.009-3.155.992-4.618Zm-3.007-96.4c1.263-.166,2.21-1.046,3.507-1.1,2.7-.1,5.383,1.893,8.592,1.544.7.7.228,1.3.246,2.424,2.718,1.379,7.19,1.13,8.592,3.736-2.034,2.043-5.05.581-7.663.216s-4.875-.15-7.452-.432c-3.244-.365-6.19-2.058-9.294-2.424-1.894-.216-3.823.25-5.594,0-2.086-.3-9.89-3.088-9.995-4.981s3.507-2.607,6.734-2.208c4.173.481,6.961,3.935,12.327,3.22Zm4.691-16.151c-1.759-.487-3.429-.226-4.2-.7-1.582-.974-1.354-3.738-1.864-5.216s-2.461-2.452-3.516-4.626c-1.512-3.147-2.163-10.19,1.864-10.834,1.617-.278,3.3.957,4.43.7,2.251-.556,1.865-3.478,3.728-4.626,1.055-.66,2.954-.382,4.45-.921a10.008,10.008,0,0,0,3.727-3.235c.967-1.147,1.758-3.077,3.024-3.912s2.8-.974,3.974-1.843c3.06-2.313,3.148-5.53,5.592-8.312,2.075-2.348,5.275,2.26,5.609,4.156,1.16,1.46,3.517,1.825,4.431,3.477-1.372,4.052-5.275,4.417-4.431,10.156a16.215,16.215,0,0,0,1.389,3.912c.668,1.357,2.655,2.817,2.567,3.687-.14,1.739-3.657,1.739-4.43,3.478s0,1.739-.23,4.382c-.984,1.895-3.622,2.347-4.43,4.625-.985,2.748.14,6.3-2.11,8.312-1.548-.087-3.236,1.322-5.117,1.148s-3.992-2.956-7.245-3.008c-1.23,0-2.69.782-3.956.7-.985-.19-1.794-1.1-3.253-1.495ZM952,325c5.333,0,5.333,9,0,9S946.667,325,952,325Zm-8.24-.744a9.6,9.6,0,0,1,3.24,4.657c0,1.629-2.526,1.541-3.24,3.712-1.08,3.345.487,7.127-1.377,8.843a10.717,10.717,0,0,1-4.617.455,67.953,67.953,0,0,1-11.1-10.506,26.119,26.119,0,0,1-3.712-4.185c-1.2-2.223-1.62-4.657-3-6.741-1.22-1.751-3.485-3.117-4.635-5.113-.958-1.628-1.045-3.764-2.073-5.34s-2.561-2.084-3.694-3.257c-.749-.753-1.167-1.944-1.847-2.784-2.91-3.5-8.5-5.253-8.711-10.506,1.185-1.366,2.4.508,4.617.928,1.429.28,3.136-.105,4.164.227,2.09.718,3.485,4.01,5.767,5.814,1.255,1.015,2.892,1.75,4.164,2.784s2.37,2.819,3.485,3.5c1.5.928,3.589,1.54,5.558,2.8,2.665,1.751,7.44,3.5,8.084,7,.157.858-.4,2.33-.227,3.012.314,1.226,1.847,1.751,2.77,2.784,1.133,1.3,1.377,3.24,3,3.5s1.62-1.821,3.38-1.593ZM834.636,276c1.793.655,7.784,8.85,6.054,13.4a4.576,4.576,0,0,1-4.591,2.566c-4.136-.726-3.35-11.08-2.092-15.258a1.113,1.113,0,0,1,.63-.708ZM681.1,392.1a10.505,10.505,0,0,1,2.93-5.994c2.1-1.582,4.907-1.425,7.019-2.537a17.684,17.684,0,0,0,5.417-4.153c1.09-1.443,1.141-3.076,2.044-4.153.6-.73,1.976-.939,2.692-1.842s.528-2.329,1.6-3.215c3.135-1.373,4.038,4.483,4.515,8.515a29.409,29.409,0,0,1,.681,3.232c-.34,1.841-2.317,2.206-2.947,3.475-.153,5.056-2.095,9.453-3.85,13.606-1.5,3.58-2.368,7.506-3.612,10.6-.442,1.129-1.4,2-1.8,2.988-1.619,3.927-2.215,10.1-5.2,11.764A23,23,0,0,1,684.253,426a6.427,6.427,0,0,1-5.86-4.605,32.038,32.038,0,0,1-.239-4.153c-.272-1.842-1.346-3.475-1.124-5.543.494-4.692,4.974-6.95,5.2-10.825.187-2.937-1.431-5.822-1.125-8.776Z" transform="translate(-0.001 0)" fill="#f5f5fa"/><path d="M570.454,63.368c.261,3.886-5.918,3.4-6.7,6.708-.349,1.5.713,3.484.47,4.86-.47,2.423-2.82,1.743-5.78,3-1.514.662-2.976,3.066-4.612,3.24s-2.454-.888-3.48-.7c-1.533.3-1.01,2.16-3.238,2.544-1.74.313-4.874-1.586-5.083.7-.139,1.463,2.785,2.265,4.613,2.073,1.462-.14,2.524-1.132,3.933-1.15,2.733,0,4.508,2.039,6.231,2.09,3.969.105,7.85-3.675,12.01-3.24,1.88.192,2.994,1.516,4.386,1.377,2.228-.21,4.125-2.77,5.779-3.694-.714-3.9,0-9.025,3.69-9.251,2.489-.14,6.248,4.268,6.7,0,.192-1.847-1.984-3.485-3.48-3.485s-3.081,2.631-4.16.47c0-2.125,2.384-1.55,3.69-2.09.992-.383,1.74-1.446,2.767-1.847,5.5-1.934,13.124,1.9,15.247-2.77-4.873-4.164-13.176,1.516-18.71,1.15a7.588,7.588,0,0,1-6.2-4.13,30.087,30.087,0,0,1-.226-3.013c-.209-1.464-.975-3.014-.923-3.938C577.608,48.106,588,47.322,588,42.113c-1.985-1.9-7.8-1.585-9.7.453-.679.732-.644,2.23-1.619,3.711-2.071,3.153-8.7,3.485-10.86,7.387A8.421,8.421,0,0,0,564.9,58.3c.557,2.178,5.448,2.77,5.552,5.07ZM515.488,289.441c-6.648-.975-13.454,1.743-18.014,3.694-2.628,1.167-5.309,2.91-7.624,3.014s-4.35-1.167-6.457-1.376a34.776,34.776,0,0,0-9.016.453c-2.645.47-5.047,2.369-7.38,2.543-4.49.331-8.7-4.042-11.557-6.237-1.74-1.342-3.48-2.44-5.082-3.694s-3.951-2.177-5.309-3.484c-1.74-1.742-1.74-4.826-2.767-7.178-1.131-2.753-4.543-4.774-7.154-7.387-1.966-1.969-6.44-4.878-6.962-7.4-.243-1.289.54-2.77.453-4.164-.122-2.02-1.636-3.17-1.619-4.617,0-2.038,2.437-3.606,3.011-5.313.3-.889.157-2.126.453-3.24.661-2.353,2.21-3.73,1.862-7.162-.156-1.376-1.323-2.613-1.392-4.39,0-1.22.8-1.9.7-3.014-.174-1.969-2.733-2.352-3.011-4.617s2.228-4.268,3.707-6.969c.644-1.2,1.01-3.014,1.6-3.937,1.306-1.97,3.481-2.91,4.4-4.844.714-1.446.957-3.484,1.6-4.634.853-1.377,2.559-2.108,4.16-3.92,1.323-1.481,1.862-3.276,2.768-3.938a24.2,24.2,0,0,1,4.16-1.62,18.177,18.177,0,0,0,9.468-8.554c-.627-3.711.33-5.227,1.845-7.858s2.454-4.634,4.856-6.01c2.89-1.638,5.6-1.743,7.623-4.844a14.467,14.467,0,0,0,2.542-5.784,6.445,6.445,0,0,0-4.387-5.558c-2.088-.331-5.221,1.585-6.474-.68-.366-.731.139-2.439,0-3.24-.261-1.516-1.567-2.579-1.619-3.694-.1-2.177,2.14-4.442,2.785-6.969.853-3.484,0-6.028-.244-9.948,3.237-5.087,10.443-2.56,17.562-2.073,1.062,0,2.3-.261,3.481-.244,4.23.1,7.571,1.394,9-2.3a24.809,24.809,0,0,0,.7-7.857,18.066,18.066,0,0,0-4.856-6.481c-2.3-1.464-5.622-.82-6.962-3.485,1.061-4.564,6.178-.766,9.242-1.847,1.566-.557,1.392-3.257,2.767-3.693.958-.3,2.158.94,3.481.923a22.7,22.7,0,0,0,6.231-2.787c1.48-.993,1.932-3.067,3.238-3.92a18.959,18.959,0,0,1,3.01-.924,17.3,17.3,0,0,0,5.8-4.111c1.914-2.283,2.767-5.123,5.082-5.54,3.1-.576,10.095.61,10.635-2.788s-2.855-5.767-1.619-9.234c.957-2.753,3.481-2.265,6.962-3.938,1.74,1.2,1.2,4.617,1.375,6.708,2.158,0,6.51-.627,6.962-2.544.522-2.387-3.115-4.808-3.916-6.237s-1.044-4.3-2.767-4.634c-3.481-.662-6.962,4.86-11.331,4.86a7.71,7.71,0,0,1-6.684-4.39,18.577,18.577,0,0,1-.243-3.693c-.279-1.9-1.41-3.868-.923-6.481,1.74-3.032,5.848-3.485,8.79-5.088,1.1-.592,2-1.847,3.22-2.317,2.07-.75,5.221,0,7.17-1.15,1.271-.732.923-1.986,1.846-3.484.574-.924,1.984-1.464,2.767-2.544.54-.732.61-1.864,1.149-2.544,2.019-2.491,5.674-3.484,7.153-6.01.662-1.133-1.131-1.568-.678-3.224.748-1.62,3.62-.435,5.308-.7,2.3-.366,4.421-3.154,6.962-3.694s5.413-.226,7.85-1.167c1.462-.558,2.785-1.882,4.16-2.074.487,0,1.845.262,2.541.227s1.828-.575,2.994-.7c1.74-.174,3.811.418,6,.47,3.656,0,7.137-1.1,10.165.227,1.584.7,1.41,2.491,3.481,3.24,1.027.366,2.4-.156,3.934,0,2.262.21,4.612,1.743,7.606,2.074,1.079.1,2.176-.122,3.237,0a55.5,55.5,0,0,1,10.165,3.24c2.7.906,8.441,2.056,8.546,4.617.122,3.05-4.995,3.938-7.154,3.938-3.637,0-8.459-2.126-12.183-.924,0,5.227,5.691,9.182,10.843,8.555.453-2.457-2.907-1.1-2.541-3.485,2.3-1.742,5.065,1.168,8.32.68,1.27-.331,1.044-2.178,1.375-3.485,2.75-1.742,6.2-4.111,10.443-2.3a2.02,2.02,0,0,1,.94-.923c.26-2.544-2.785-3.868-1.166-6.255.8-1.637,5.117-1.062,5.778.244.33,1.568-1.062,1.394-.922,2.77a3.69,3.69,0,0,0,3.463,2.2c2.263-.122,2.715-2.143,4.856-3.223.853-.453,2.124-.488,3.22-.924s2.42-1.585,3.481-1.864c.784-.192,1.932,0,3.011-.226,1.358-.3,2.8-1.394,3.917-1.377,1.41,0,2.4,1.6,4.16,1.847.974.122,2.07-.558,3.48-.7,1.132-.122,2.315.14,3.238,0,2.21-.314,3.725-1.48,5.552-1.394,1.288,0,3.481,1.742,4.386.924,1.48-1.481-2-2.579-.922-3.92,3.48.26,7.293.174,10.843.7,5.222.749,10.252,3.362,15.021,3.484-.453-3.223-4.125-2.3-5.779-3.711a13.228,13.228,0,0,1-2.54-4.843,28.111,28.111,0,0,1,3.237-5.558c2.036-1.9,8.7-1.9,10.617.7,1.3,1.742.87,4.442,2.767,4.39,1.636,0,2.507-4.06,4.386-4.164,1.567,0,2.368,2.579,3.934,2.544,1.915,0,3.237-3.607,5.779-3.694,1.357,0,1.74.7,3.916.924,1.444-.924-.488-2.16.226-3.485,2.593-1.881,8.494-.453,11.783-1.62.923-1.1-1.183-1.864-.226-3,2.837-2,7.624-2.177,12.462-3.014,2.977-.505,5.761-2.56,8.076-2.77s4.752,1.429,6.962,1.394a13.321,13.321,0,0,0,4.16-.923c1.306-.506,2.193-1.743,3.481-2.091,2.02-.488,4.578.244,6.962,0s4.665-1.22,6.458-.924,3.028,2.056,4.612,2.318c4.874.749,9.886-.732,14.325.453.783.226,1.583,1.045,2.54,1.393,2.96,1.08,5,.75,5.553,4.39,2.332.837,3.69,2.98,6.457,3.694,1.845.488,3.69-.226,5.779-.226a65.85,65.85,0,0,1,8.528.453c1.323.209,2.42,1.185,3.708,1.394.922.156,2.158-.1,3.22,0,1.462.139,2.75.731,3.933.7,2.42,0,4.247-2.23,6.231-2.544a17.364,17.364,0,0,1,3.481.453c3.9.33,8.372-.505,11.558.244a22.952,22.952,0,0,1,6.318,3.676c1.357,1.045,2.175,2.683,3.48,3.484a12.784,12.784,0,0,0,5.553,1.847c1.48-.226,1.532-1.881,2.994-2.544,4.577-1.01,12.706,1.464,16.4-.226,1.428-.662,1.15-2.178,2.315-3.014,6.962-.331,13.925.3,20.312.47a51.989,51.989,0,0,1,6.7-.226c2.3.4,3.969,2.683,6.231,3.484,1.515.506,4.2.244,6.475.7,1.532.3,2.785,1.22,3.916,1.377a32.687,32.687,0,0,0,7.171-.453c5.222-.436,12.1-.715,17.318,1.376,2.785,1.115,3.951,3.38,6.963,3.71,4.264.471,10.878-.365,15.247,0,1.044.088,2.019.506,2.767.454,1.462-.1,2.35-1.342,4.16-1.376,2.28,0,5.918,3.484,9.242,3,1.427-.958-1.149-2.317.209-3.24s3.08,0,5.1,0c1.079,0,2.419-.558,3.48-.453,2.524.209,4.944,2.491,8.077,3.223a28.589,28.589,0,0,0,9.016.47,24.952,24.952,0,0,1,6.23-.7,30.82,30.82,0,0,1,2.994,1.168c.992.244,1.95,0,2.768.226s1.531.923,2.315,1.15c4.3,1.237,10.008,1.847,14.55,3.24,2.68.82,5.4,2.475,7.624,2.544,1.1,0,2.071-.47,3.481-.47,6.962,0,15.177,2.962,14.533,9.478-8.163,1.742-14.986-5.628-23.549-3.485a3.71,3.71,0,0,0-2.767,3.24c.313,4.025,10.443,3.694,11.313,7.632-1.74,1.237-3.481,0-4.856.226a17.052,17.052,0,0,0-6.962,3.694c-1.55,1.463-2.924,5.226-4.612,5.557-2.054.4-5.222-2.038-8.32-1.393-1.132.244-2.228,1.742-3.22,1.846-2.559.488-5.8-1.376-7.38,1.62.835,2.126.313,5.053,2.071,6.238,1.114.784,2.541.174,3.916.7s2.524,2.6,3.917,3.71,2.384.924,3.01,2.074c.157,1.742-.678,1.9-.452,3.014.348,1.934,3.377,2.37,3.481,3.694.1,1.742-1.914,1.306-2.315,3-.139,1.08,1.254,1.36,1.393,2.77,0,.959-.766,1.934-.7,3.015.1,1.533,1.322,2.56,1.148,3.92A3.484,3.484,0,0,1,1073,98.753c-4.421-2.84-8.39-6.76-13.159-10.453s-12.584-8.31-13.384-16.168c0-1.2,2.54-2.16,2.993-3.938.192-.731-.278-1.742-.226-2.77.174-2.718,2.4-5.331,2.315-6.969s-3.394-5.052-5.082-5.557c-1.34.714,0,2.108-.227,3.24a4.614,4.614,0,0,1-3.48,3.24c-4.37.384-4.874-5.627-11.784-3.937a5.855,5.855,0,0,0-3.69,6.481c.192,1.01,2.959,2.091,2.768,3.485s-6.3,1.742-7.624,1.62c-3.725-.3-5.64-3.084-9-3.014-1.654,0-3.1,1.394-4.4,1.62-7.258,1.324-18.067-3.589-20.538,2.77-.348.906-.157,2.074-.47,3.015a33.91,33.91,0,0,1-1.845,3.24c-.279.714-.226,2.108-.7,3.223s-4.787,4.966-.923,6.011c.923.261,1.358-.383,2.541-.227,1.985.262,5.222,3.485,7.624,3.485,1.392,0,3.324-1.568,4.386-1.62,2.14-.105,3.69,1.289,5.309,2.09s3.933,2.37,5.082,2.3c2.176-.1,1.149-1.62,3.237-2.3,3.986,1.185,5.866,5.419,9.7,8.712,1.392,1.2,3.481,2.247,5.222,3.92,1.044.94,4.264,3.484,4.4,4.634s-.905,1.568-1.166,2.544c-.383,1.393.505,2.439-.47,3.484-3.672-1.376-4.508-5-7.154-8.1-.974-1.15-1.966-2.51-3.48-4.164-.68-.732-3.116-3.345-4.63-2.77-2.89,1.115,1.6,5.522,2.315,6.48,1.531,2.04,3.568,4.774,3.707,6.97.087,1.376-.905,3.885-.923,6.237a40.385,40.385,0,0,1,.227,4.39,29.021,29.021,0,0,1-1.62,4.39c-.539,1.743-.66,3.73-1.148,4.862a8.7,8.7,0,0,1-6.022,4.617c-1.915.087-2.733-1.481-4.612-1.377-2.837.122-3.36,2.753-5.065,4.844.139,2.282.853,3.066.452,4.634-.626,2.44-4.02,2.875-3.916,5.227s3.116,2.7,4.612,3.693a39.56,39.56,0,0,1,7.624,6.97c1.288,1.654,3.133,4.72,2.994,6.463-.174,2.3-6.754,5.47-9.469,4.634s-1.74-3.275-2.3-5.558c-.488-1.742-1.845-2.49-2.541-3.92-.366-.749-.21-1.933-.7-2.77-1.392-2.352-3.829-1.062-6.7-2.543-1.88-.976-1.34-3.014-2.09-4.861-.991-2.492-5.22-3.659-8.528-3-2.471.47-3.237,2.561-5.552,3-3.377-2,.7-6.97-3.481-7.387-3.185-.349-5.222,4.564-7.154,6.01-1.27.959-3.48,1.15-3.69,2.527-.278,2.56,2.68,2.038,5.065,3.014s2.42,3.345,4.4,3.484c1.636.1,2.732-1.742,4.386-1.847a11.39,11.39,0,0,1,6.962,2.074c-1.149,2.8-7.362,4.86-7.38,8.554,0,2.143,2.472,2.509,4.386,3.938,1.619,1.184,3.742,4.564,6.005,6.969.975,1.01,2.576,1.742,3.011,2.3,1.062,1.532.905,3.484,2.071,4.407.192,1.255-.574,1.568-.47,2.77.575,1.743,3.133,1.342,3.708,3-.47,3.99,1.183,7.753-2.071,9.251-1.515,7.143-3.2,12.736-8.094,16.639-4.386,3.484-10.182,4.53-15.473,6.237-1.375.453-2.472,1.9-3.69,2.317-3.08,1.045-8.546.418-8.7,4.164-.122,1.847,2.35,2.962,2.542,4.843a5.993,5.993,0,0,1-4.16,6.029c-1.34.139-4.23-.8-4.386-3.241-.192-2.77,3.48-3.885,3.69-5.558.487-2.944-2.542-5.8-6.005-5.54-3.046.226-9.991,6.36-10.148,9.7-.139,2.509,4.943,7.718,6.684,9.251,6.492,5.715,13.367,9.147,12.184,23.12-1.619,3.484-5.761,4.286-9,6.237-2.471,1.481-3.707,6.08-7.85,6.464-1.74-.558-.7-3.171-1.166-4.39-.626-1.743-3.933-2.457-6.005-4.147-1.74-1.394-2.4-3.59-3.69-4.86-1.618-1.6-4.038-1.935-6-3.015-1.236-.68-2.21-3.049-3.481-3-2.037.087-1.323,2.039-1.845,5.314s-2.855,5.68-2.089,9.478c.33,1.55,2.263,2.8,3.237,4.39,1.6,2.614,1.741,5.68,3.481,7.161,1.08.993,2.925,1.2,4.16,2.09,2.454,1.743,6.754,5.541,7.624,7.632.992,2.421,0,5.226.7,7.857.766,2.962,4.63,5.07,2.315,8.084a23.894,23.894,0,0,1-12.706-9.966,22.07,22.07,0,0,1-1.862-2.77c-.8-2.073-.627-4.425-1.375-6.969a21.4,21.4,0,0,0-5.083-7.4c-1.618-1.533-4.49-2.422-4.612-4.634-.174-3.1,1.044-6.743.923-10.454,0-.784-.575-1.585-.7-2.526-.243-1.742.174-3.955-.226-5.558a26.6,26.6,0,0,0-2.089-4.164c-.609-1.324-1.235-2.665-1.845-4.39-.94-2.666-1.984-7.823-4.16-8.084s-4.594,4.338-7.6,4.39a4.23,4.23,0,0,1-3.934-2.77c-.3-1.429.73-2.857.7-4.39-.087-3.1-2.28-4.3-3.933-6.482-.662-.888-.836-2.125-1.393-2.77-1.044-1.254-3.046-1.951-4.386-3.24a18.535,18.535,0,0,1-3.237-4.164c-.888-1.742-1.167-4.147-2.524-4.39s-2.8,1.637-4.16,2.09a40.226,40.226,0,0,1-6.231,1.15c-4.647.314-8.407-.923-7.85,4.617-.73,2.491-3.359,2.526-5.082,3.693-2.21,1.516-3.83,4.53-6.249,6.97-1.166,1.184-2.854,1.916-3.916,3.013s-1.149,2.37-2.088,3.241c-2.455,2.335-6.162,2.526-7.833,5.784-.1,3.833,1.74,6.743,1.375,10.454-.191,1.742-1.444,3.153-1.618,4.86s.609,3.05.243,4.635c-.209.836-1.149,1.272-1.862,2.3s-.905,2.143-1.375,2.77c-.783,1.01-2.054,1.742-2.785,2.543-1.166,1.394-1.41,2.387-2.541,2.544-5.048.732-6.3-8.9-8.529-12.945-1.044-1.846-3.133-3.484-4.16-5.767-1.183-2.6-1.549-5.853-3.237-8.71a55.329,55.329,0,0,1-4.386-7.614c-.818-2.213-1.532-4.966-2.315-7.405a40.346,40.346,0,0,1-1.845-7.857c-.191-3,.574-4.844-1.845-6.011-2.228.523-3.22,2.77-5.778,2.77s-9.086-4.268-7.154-8.084c-1.619-2.3-5.674-3.484-8.7-6.237-1.74-1.55-3.376-5.227-6.474-5.558a16.525,16.525,0,0,0-2.768.47c-1.95.157-5.413-.174-7.623,0a50.144,50.144,0,0,1-9.7.454c-2.263-.244-5.065-.68-7.4-.924-2.96-.3-6.875-.993-8.529-2.543-1.027-.941-1.444-3.973-3.237-4.39-2.141-.489-3.325,1.166-5.309,1.62-4.247.975-7.78-.872-10.634-2.77-2.02-1.36-3.882-2.057-5.309-3.015-3.481-2.352-4.142-9.425-9.468-9.478-1.863,0-4.8,1.15-5.083,3.24-.174,1.482,1.74,4.2,2.541,5.315,2.594,3.658,7.345,5.035,8.7,9.948.957.366,2.907-.854,3.934.226.887,2.109,0,6.011,2.07,6.97,9.609,1.585,12.341-3.677,16.64-7.388,2.49,1.62,1.654,3.05,2.524,4.844a7.662,7.662,0,0,0,3.934,3.937c1.166.436,2.645,0,4.386.68,1.1.418,5.639,4.739,5.778,6.254s-2.993,5.994-3.933,7.16-2.333,1.743-2.768,2.771-.226,2.491-.47,3.014c-.417.923-2.489,2.126-3.69,3.223a45.607,45.607,0,0,1-3.916,3.014c-1.462,1.115-2.367,2.666-3.933,3.24-3.081,1.133-5.988.646-8.546,2.3-1.74,1.1-1.74,3.485-3.69,4.861s-5.727,1.377-8.7,2.77c-1.967.907-3.15,2.631-4.856,3.241-.679.244-1.549,0-2.315.227-1.532.4-2.941,1.48-4.386,1.846-1.131.3-2.35.157-3.481.47-3.481,1.029-6.8,4.653-10.443,2.545-1.74-3.9-1.95-8.8-3.916-12.2-1.01-1.742-2.977-2.317-3.69-4.164-.1-1.481,1.74-1.08,1.827-2.317-.574-2.492-2.941-3.659-4.386-5.784-.7-1.028-1.027-2.51-1.845-3.694-2.75-4.007-8.18-6.1-9.242-11.1-.278-1.359,0-2.422-.226-3.485a13.1,13.1,0,0,0-2.768-4.843c-.887-1.028-2.68-1.742-3.69-3.24-.678-.994-.818-2.4-1.392-3.485a38.321,38.321,0,0,0-9.242-11.1c-1.88.279-3.9.4-4.839,1.62a35.852,35.852,0,0,0,3.916,8.084,44.561,44.561,0,0,1,4.386,7.4c.366.958.3,2.23.7,3.24,1.462,3.659,6.022,4.791,6.962,9.008.626,2.84-.122,4.79.7,7.63s4.8,4.321,6.475,6.97c1.34,2.125,1.357,5.14,2.3,7.16,1.393,2.962,5.222,4.251,8.094,6.237,2.54,1.743,4.351,4.565,6.457,6.482,1.236,1.115,2.941,1.324,3.237,2.543.383,1.568-.661,2.09-.922,3.485,1.74,1.846,3.48,5.226,6.457,5.54,1.219.122,2.768-1.115,4.63-1.376.94-.14,1.984.139,2.767,0,1.219-.227,2.3-1.324,3.69-1.62,2.367-.506,5.1-.314,8.094-.7s4.751-2.752,6.962-2.073c2.367,2.6.661,5.558,0,8.084-.244.889-.244,1.742-.453,2.544-1.253,4.112-4.525,7.16-6.022,10.871-.452,1.133-.383,2.51-.922,3.694-1.74,3.694-5.222,7.352-8.076,10.453a44.5,44.5,0,0,1-4.63,4.617c-1.654,1.377-3.673,2.108-5.535,3.485a49.806,49.806,0,0,0-10.165,10.174c-1.01,1.394-1.5,3-2.54,4.164-1.5,1.743-3.83,2.51-5.083,4.164a48.887,48.887,0,0,0-2.768,6.011c-1.27,2.63-3.916,4.425-3.48,8.084.173,1.394,1.427,2.265,1.844,3.711a15.693,15.693,0,0,1-.226,7.16c1.3,3.172,2.245,6.69,4.612,8.712.3,4.67-.382,9.216,0,13.171.244,2.526,1.236,4.373.244,6.708a21.892,21.892,0,0,1-6.248,6.969c-2.176,1.411-5.518,1.742-7.85,3.484-1.619,1.185-2.976,3.24-4.613,4.635-2.732,2.265-6.457,4.39-6.7,6.69-.14,1.324,1.044,3.345,1.374,4.617.906,3.484,1.741,8.328.244,12.021-1.74,4.007-10.147,3.171-11.087,7.4-.278,1.289.574,2.3.47,3.693a31.676,31.676,0,0,1-2.315,6.708c-1.027,1.916-3.342,2.77-4.856,4.39-1.88,2.056-2.837,5.018-4.839,7.16a69.513,69.513,0,0,1-9.938,8.555,29.1,29.1,0,0,1-13.385,4.861c-2.8.192-5.813-.662-8.7-.226-1.1.139-2.263,1.15-3.708,1.376-.835.14-1.74-.14-2.54,0-1.445.244-2.8,1.411-4.143,1.394a8.133,8.133,0,0,1-6.962-7.16c0-1.377,1.166-2.684,1.148-3.938s-1.827-3.328-3.237-6.011-1.88-5.505-3.237-7.614-3.325-3.327-4.386-5.1c-2.124-3.485-2.28-7.753-2.994-12.022-.244-1.376-1.184-2.892-1.393-4.617-.243-2.125.261-4.477-.226-6.237a30.154,30.154,0,0,0-2.785-4.39c-1.618-3-2.767-6.97-4.142-9.252s-3.934-4.46-4.16-6.969a34.883,34.883,0,0,1,.453-6.463c.26-1.638,1.462-2.91,1.862-4.635.261-1.132,0-2.439.226-3.693,1.166-5.227,6.962-7.213,6.231-13.642-.313-2.718-2.245-4.077-2.54-7.16-.14-1.464.73-2.718.7-4.164,0-1.952-1.74-4.861-2.54-6.708-2.333-5.105-3.778-9.757-7.154-13.642-1.845-2.108-4.265-3.589-5.779-5.54a14.589,14.589,0,0,1-2.767-5.784c0-1.325,1.01-2.143,1.375-3.485.487-1.742.522-4.93,1.166-7.63.3-1.238,1.618-4.235,1.392-6.238a9.649,9.649,0,0,0-5.552-6.237c-3.22-.8-6.544,1.028-10.617.7-3.586-2.352-3.325-8.172-8.39-8.92Zm127.7,82.757c1.079-1.743,2.419-6.464,0-7.631h-.453c-1.027,1.934-2.14,6.516.453,7.63Zm-3.22-48.313c.783-1.6,2.61-3.292,2.315-5.226-.662-4.443-8.982-2.248-9.921.923-.644,2.143.365,3.85-.47,6.01.905,1.743,3.185,2.057,6,1.848,1.532-.767,1.34-2.074,2.072-3.555ZM625.89,347.7c.922-1.742-1.462-2.8-1.845-4.617-.453-2.143.522-4.635-1.393-5.784h-.678c-1.706,3.78.591,10.035,3.9,10.4h.018Zm157.482-229.54c-.87-1.742-3.376.5-2.314,2.073C782.694,120.34,783.181,119.434,783.372,118.162Zm-53.817,9.478c3.76-.732,0-6.708-2.767-6.011-3.672.923.209,6.5,2.767,6.01Zm-17.074,29.81c1.149-8.015-5.1-8.607-6.249-14.322.54,0,.262-.662.7-.7,1.514-.732,3.811,1.167,4.612-.7,0-2.735-3.481-4.773-6.962-3.484-.992-.68-1.131-2.248-1.375-3.694-2.628-1.55-9.1-4.965-9.016-8.084,0-2.578,3.394-4.024,7.171-3.937,1.584-1.2.557-4.913-.923-5.784-5.97-1.307-9.155-.419-12.949,2.317-1.74,1.306-3.83,2.212-4.839,3.014a5.82,5.82,0,0,0-2.07,3.693c.138,1.429,2.175,2.265,2.993,4.164.418.976.33,2.2.7,3,1.01,2.23,3.585,3.676,5.535,5.54,1.375,1.342,5.221,4.2,5.308,5.785s-1.183,1.62-1.6,3.014a17.334,17.334,0,0,0-.7,5.766c.505,2.544,3.133,2.631,5.535,3.711s4.682,2.945,7.153,3a9.776,9.776,0,0,0,6.98-2.3Zm-54.287-16.64c6.266-1.132,3.481-6.428.244-8.31-2.4-1.446-5.222-2.683-8.094-4.407-1.618-.994-7.8-2.858-7.85-4.844s4.613-2.892,2.768-6.707c-3.15-.767-10.67.435-10.147,3.937.3,2,2.68.889,3.22,3-2.263.8-5.013,2.927-7.38,2.543-2.837-.435-3.481-3.92-5.083-6.01-2.193,0-3.637-2.126-6.23-1.847s-4.16,4.233-5.553,6.237c-.73,1.063-1.9,1.6-2.3,2.544-.244.575,0,1.48-.227,2.317-.8,2.561-3.028,3.484-2.785,5.767.21,2,2.385,2.91,2.542,4.634-.157,1.742-2.994.854-2.768,3,4.125,3.484,4.369-1.6,6.475-2.3,1.74-.575,4.995.453,7.154,0,1.74-.383,3.08-2.038,5.064-2.77a13.911,13.911,0,0,1,4.4-.941c7.345-.3,12.08,4.5,18.467,4.634a50.731,50.731,0,0,0,8.076-.47Zm-14.742,27.284c.139-2.491-.94-4.355-1.149-7.857-4.264-2.579-7.45,2.387-11.783,1.847-2.646-.331-4.56-3.485-7.38-3-1.567.226-2.332,2.23-3.934,2.526-3.307.61-4.8-2.648-8.3-1.376-4.943-3.78-7.154-9.913-8.32-16.882-2.7-3.485-6.8-.662-8.7,1.62-1.219,0-2.733-.662-3.012.7-.905,4.268,6.04,4.721,6.005,7.63,0,1.882-2.715,1.743-3.916,3s-.435,2.6-2.089,3.485c-4.542.557-6.057-1.951-6-6.01-1.967-2.98-4.439-5.228-6.231-7.632a9.342,9.342,0,0,1-1.845-3.693c-.157-1.08.5-2.457.226-3.694-.487-2.213-4.595-3.868-7.154-5.087a41.653,41.653,0,0,1-8.215-4.182c-1.375-1.15-2.019-3.153-3.237-3.92s-2.315-.522-3.238-1.167c-1.27-.889-1.061-2.352-2.767-2.77-.87-.331-2.21.854-2.768,1.62-1.13,5.035,2.977,5.384,4.84,7.631,1.287,1.533,1.931,3.833,3.237,4.844s3.29.888,5.082,1.62c1.236.505,2.036,2.056,3.237,2.77,2.193,1.342,5.744,1.585,6.005,4.164-1.375.94-4.49-1.359-5.552.923-.261,1.516,1.2,2.283,1.166,3.694a4.823,4.823,0,0,1-4.821,4.408c-.227-1.36,1.2-2.474,1.148-3.938,0-2.944-6-7.44-9-8.71-1.41-.628-3.116-.663-4.386-1.4a32.363,32.363,0,0,1-7.624-6.237c-1.653-2.2-3.063-6.237-6.7-6.01-1.48,0-2.7,1.445-3.917,2.09a29.148,29.148,0,0,0-3.481,1.847,8.23,8.23,0,0,1-3.707,1.847c-2.89.122-5.361-2.16-7.85-1.62-.836.174-1.532.94-2.541,1.846a35.071,35.071,0,0,1,.243,3.694c-.765,1.306-2.993,1.22-4.63,2.09a31.6,31.6,0,0,0-6.44,5.785c-1.252,1.237-2.384,2.247-2.54,3.223s.644,2.212.452,3.24a10.869,10.869,0,0,1-3.69,4.39c-.818.558-1.9.645-2.767,1.15-1.828,1.08-2.646,2.492-4.16,2.788-4.038.75-11.366-.819-11.314,3.485,0,2.857,3.882,2.857,6.232,2.77,3.272-.14,6.04.7,7.85.226a30.248,30.248,0,0,0,3.916-2.317c.835-.366,1.74-.366,2.314-.68,1.393-.7,2.159-1.742,3.238-2.317a28.5,28.5,0,0,1,8.32-1.846c3.1-.192,6.352.313,10.443,0,1.427-.122,2.837-1.046,4.386-1.168,2.506-.191,5.813.993,7.85.941,1.41,0,2.976-1.411,4.612-1.394a4.735,4.735,0,0,1,4.16,2.544c.191.68-.383,1.742-.227,2.77.262,1.742,1.741,2.37,1.62,3.485-.123,1.446-3.726,3.38-3.238,5.087.313,1.1,2.906,2.248,4.16,3.014a15.413,15.413,0,0,0,5.082,2.073c1.3.14,2.454-.365,3.69-.226a18.02,18.02,0,0,1,6.475,2.3c2.158,1.533,1.862,3.99,4.386,4.86,1.061.366,2.993.157,4.386.47,3.36.715,5.848,3.485,8.3,3.224,3.864-.453,2.106-4.094,2.541-6.69.992-5.906,12.515-5.645,14.777-1.638,1.74.453,3.168,0,5.083.7,1.114.366,1.932,1.585,3.01,1.864.8.192,1.968-.122,2.995,0,4.438.488,8.441,3.8,12.183,3.223,2.4-.348,4.16-2.63,6.458-2.77,4.42-.279,7.24,3.293,12.01,1.62,3.48-1.236,2.714-4.878,3.915-8.554.853-2.666,2.472-4.408,2.594-6.342Zm248.9-78.836a8.246,8.246,0,0,0-2.315-7.857c-2.663.47-.731,3.24-.923,4.86-.26,2.3-2.68,3.886-2.54,6.238-.889,1.045-2.4,1.446-2.525,3.24,1.462,1.01,2.106-.8,3.22-1.847,1.793-1.568,4.49-2.648,5.083-4.634Zm-60.5-80.143a8.784,8.784,0,0,0-5.082,1.864c-.87.453-2.628.715-2.072,2.074,2.228-.349,6.632-1.342,7.171-4.008Zm-97.47,28.433a4.808,4.808,0,0,0,4.387-8.31c-.836-.819-3.673-1.133-4.839-3.014-1.427-2.248-1.218-5.227-4.63-4.617,0,.261,0,.662-.226.7-.33,5.052,6.962,6.324,6.962,10.453-.052,2.074-2.315,2.23-1.618,4.722l-.035.07Z" transform="translate(-0.001 0)" fill="#f5f5fa"/><path d="M658.059,28.408c-.6-2.068,3.579-1.736,2.857.2C660.194,29.16,658.474,29.16,658.059,28.408ZM629,166.856c.1-1.891,4.267-2.579,5-.911-.2,1.822-4.15,3.077-5,.91ZM550,154.98c2.6-1.785,8.4-.573,12-.637-.678,1.6-.772,3.716-2.26,4.657C555.651,158.378,551.827,157.517,550,154.98Zm-16.766-12.406c3.3-3.176,6.738-1.505,5.513,4.646-.793,1.839-4.216,4.3-5.747,1.555a21.25,21.25,0,0,0,.234-6.2Zm4.681-7.934a2.974,2.974,0,0,1-1.534,3.36C533.494,137.48,535.688,132.2,537.915,134.64ZM491.46,87.377a3.806,3.806,0,0,0-2.077-3.612c-.744-.426-1.9-.238-2.75-.681-2.232-1.21-3.046-3.749-4.36-4.294.173-2.487-.692-4.276,0-5.878a13.335,13.335,0,0,1,5.051-4.293c2.007-.7,4.1,0,5.277-1.585a1.51,1.51,0,0,1,1.16.222c0,1.43-1.229,1.7-1.385,2.93.277,2.062,3.962.784,4.36,2.726-.346,2.113-2.284,2.522-2.3,4.055s2.785,3.9,4.134,5.657c1,1.311,2.768,2.283,3.668,3.629s.969,2.555,1.609,3.151c1.211,1.125,3.927,1.312,4.135,2.948.277,2.147-2.716,3-2.3,5.418-3.149,2.436-8.408,1.175-13.547,1.806-2.318.29-4.879,2.573-7.335.681-.571-1.516,2.041-1.7,2.3-3.152-.19-1.346-1.9-1.158-2.3-2.266.674-1.7,2.75-2.112,2.525-4.753,1.3-1.38,3.772-.852,4.135-2.709Z" transform="translate(-0.001 0)" fill="#f5f5fa"/><path d="M475.184,82.9c3.114-1.961,8.568-.454,8.8,1.942.229,1.816-1.654,2.052-2.34,4.086s.123,4.03-.686,5.3-2.657,1.035-3.976,1.453c-2.939.89-8.6,4.448-10.979.472.352-2.142,2.358-2.56,3.044-4.34,0-1.38-1.408-2.124-1.18-3.63.282-1.816,1.62-1.18,3.52-1.925,1.425-.527,2.023-2.234,3.8-3.36ZM316.977,32.053c.433,1.9-5.392,4.37-5.948,1.928C310.581,32.021,315.494,29.561,316.977,32.053ZM310,553.334h-3a3.538,3.538,0,0,1,3,0ZM300,16.2a2.652,2.652,0,0,1,2,0c-.35.463-.6.941-2,.767ZM279,52.163c0,1.135-4.5,3.016-4.975.824a1.521,1.521,0,0,1,.9-1.648c1.21-.684,4.02-.295,4.072.824Zm-96,215.79c-.153.376-.436.652-.588,1.047C179.34,268.9,182.107,265.347,183,267.953ZM89.023,106.23c1.312-1,2.567,1.524,1.679,2.732C89.263,109.315,88.9,107.141,89.023,106.23Z" transform="translate(-0.001 0)" fill="#f5f5fa"/><path d="M341.31,114.251c-1.081-.262-2.563-.21-3.94-.453s-2.579-.559-3.694-.7c-2.858-.331-5.943.49-7.633-1.151a74.665,74.665,0,0,1,9.95-10.47c1.047-.943,3.312-1.589,2.772-3.491-1.97-1.745-4.392.105-6.24,1.152a20.9,20.9,0,0,1-6.482,3c-3.817.576-8.888-1.117-12.025.925-.419,1.745,3.485,1.082,3.015,3.717a4.666,4.666,0,0,1-4.166-.7c-1.08-.977-.47-2.426-1.15-3.019-1.185-.977-5.646-1.239-7.633-.925a5.387,5.387,0,0,0-4.862,3.944c2.91,1.361,7.737-1.413,8.713,2.094-1.6,2.88-5.367,4.468-4.862,8.324a5.233,5.233,0,0,0,3.311,3.735c1.29.227,2-1.047,3.242-.925s1.01,1.623,2.544,1.4c2.231-.96,3.486-4.083,6.013-3.944,3.05,3.717-2.771,5.532-6.013,6.719-3.694,1.344-8.5,2.06-11.328,3.246-1.481.628-7.075,6.038-7.86,1.85-.575-3.02,2.771-2.147,3.486-4.642-3.59-.681-6.971,1.553-10.178,2.792-4.653,1.745-12.513,2.88-13.646,8.1-.226,1.047.453,3.019-.226,3.7s-3.87.663-5.316,1.169c-2.23.768-4.182,2.39-5.559,2.775-1.028.279-2.58.209-3.224.47-1.847.716-2.527,3.194-4.636,4.852-.854.68-2.77,1.17-3.485,1.85-1.186,1.2-1.342,4.188-3.486,4.642-1.342.1-2.422-1.012-3.7-.244-.156,2.966,1.029,6.98-.226,9.964a63.233,63.233,0,0,1-9.254,5.829c-1.935,1.082-3.678,1.361-6.013,2.548-1.655.82-3.172,2.81-5.089,3.926-4.409,2.6-9.742,5.69-9.707,12.216,0,1.43.732,2.967.924,4.642.1.977-.122,1.937,0,3,.279,2.426,2.021,5.515,0,7.173-3.12-1.274-7.076-1.745-9.254-3.927-.593-2.286,1.2-4.17.923-6.247-.209-1.745-2.561-4.66-3.92-4.869s-2.72,1.274-4.166,1.152c-1.743-.122-3.329-2.513-5.56-2.775-3.241-.384-5.646.75-9.236.244-3.486,1.868-4.514,5.236-8.714,4.852-1.516-.1-2.893-1.257-4.636-1.623a29.885,29.885,0,0,0-6.71-.925c-3.92.262-6.779,3.106-10.16,4.869-2.98,1.553-7.215,3.49-8.1,6.718-.47,1.745,0,4.171-.68,5.777a28.744,28.744,0,0,1-1.864,3.019c-2.58,4.729-4.74,11.011-2.771,17.835a42.536,42.536,0,0,0,3.886,7.975,12.767,12.767,0,0,0,6.693,3.228,29.993,29.993,0,0,0,5.332-1.152,53.474,53.474,0,0,0,6.013-.924c4.984-1.606,4.008-8.377,9.01-10.663a23.83,23.83,0,0,1,8.557-1.379,5.24,5.24,0,0,1,1.62,4.4c-.121,1.187-1.254,2.251-1.846,3.927s-.645,3.21-1.168,4.415c-.68,1.553-2.213,2.705-2.771,4.17-.366.943-.157,2.13-.453,3-.54,1.518-2.58,2.6-1.621,4.17,4.95,1.973,10.927-.558,15.25.228,1.742.331,5.593,2.513,5.559,5.322,0,2.112-1.621,3.49-1.865,5.794-.279,2.9-1.482,6.457-1.6,8.725-.209,3.84,5.63,10.471,9.708,10.471,4.391,0,6.97-4.38,12.2-2.077,1.743.75,3.625,3.613,5.56,3.49,1.6-.122,4.008-2.931,5.088-4.868,1.29-2.374,1.4-4.363,3.7-5.55s4.444-.663,7.633-1.867a18.625,18.625,0,0,0,3.922-2.3c1.115-.768,2.3-2.793,3.712-1.4,1.83,1.85-2.266,2.9-.7,4.87,3.206,1.744,4.844-3.16,7.162-3.247a16.182,16.182,0,0,1,4.619,2.321c1.742,1.187,2.422,2.845,4.391,3.246,1.273.245,3.312-.488,5.09-.244,2.37.349,3.764,2.373,5.559,2.321,2.178,0,3.224-2.443,5.089-2.775,4.078-.75,5.594.454,7.389,3,2.021.349,2.091-2.321,3.939-1.379-1.011,2.007.33,2.95,1.15,4.625.523,1.082.435,1.85.923,2.32,1.116,1.048,3.242,1.048,4.863,2.077s2.666,3.072,4.618,5.323,5.4,4.694,8.086,4.869,4.619-.733,6.71-.471c4.793.593,7.755,2.984,11.1,5.567,1.882,1.43,3.485,2.443,4.165,4.153.418,1.2.209,2.827.7,4.17,1.01,2.9,5.228,4.276,3.7,9.267.7,1.466,2.265,1.99,3.938,3.02,1.342.82,2.475,2.53,3.921,2.774a19.269,19.269,0,0,0,2.771-.244,21.38,21.38,0,0,1,6.71,2.094,27.531,27.531,0,0,1,4.165,1.4c1.185.785,1.325,3.49,2.771,4.153.959.471,3.05-.174,4.636,0,2.475.3,5.838,1.745,8.086,1.867,1.36,0,2.493-.558,3.7-.47,5.664.436,8.87,7.224,14.343,9.266,1.743.628,4.374.192,5.542.7,2.056.89,3.782,7.155,3.939,9.947.47,8.411-5.995,11.116-9.708,16.666-.784,1.169-1.22,3.019-2.317,4.642-2.214,3.263-4.688,3.944-4.392,9.947.087,1.658.923,3.263.923,5.1a33.2,33.2,0,0,1-.7,7.19c-.383,1.518-1.638,2.775-1.847,4.171s.418,2.5.227,3.7a21.774,21.774,0,0,1-2.545,5.078c-2.126,3.961-2.6,8.6-6.97,10.191-2.545.943-6,.42-8.715,1.4-1.115.4-2.544,1.431-3.938,2.077-4.009,1.885-9.76,4.415-10.858,8.569-.993,3.7,1.377,6.666.7,10.889a36.868,36.868,0,0,1-2.77,3.926c-1.011,1.327-1.5,2.862-2.545,4.171-1.394,1.745-3.486,2.513-4.392,4.87-.3.8-.1,1.744-.47,3-.14.472-.994,1.187-1.395,2.077s-.348,1.885-.7,2.566c-1.045,2.129-4.182,6.98-6.465,7.643-4.81,1.344-9.864-2.042-13.176-1.4.47,2.321,2.161,2.077,3.242,3.7a24.981,24.981,0,0,0,1.847,3.246c1.028,1.2,1.952,1.64,2.074,3a8.222,8.222,0,0,1-3.483,6.718,20.786,20.786,0,0,1-6.711,1.851c-1.743.3-6.117.314-6.971,1.4-1.185,1.605.627,5.584-.227,7.172-1.743,3.386-6.378-.087-8.714.925a4.435,4.435,0,0,0,1.848,4.4c1.446.855,3.66-.262,4.618,1.4-.47,2.3-2.945,2.6-3.485,4.869,0,2.2.749,2.792.47,4.153-.61,2.984-5.228,2.862-5.089,6.02.192,4.747,9.08,2.81,9.254,7.417,0,2.792-2.544,2.827-3.485,5.55-.506,1.466.279,1.745,0,3.019-.384,1.64-2.318,2.111-2.318,3.926,0,2.217,3.241,4.66,4.845,6.492a26.157,26.157,0,0,0,5.786,5.55c3.241,1.745,8.086,1.4,9.48,4.641-.435,1.937-2.317,2.461-4.165,3h-.453a5.36,5.36,0,0,0-3.485,0h-3.242c-3.085-1.431-6.849-2.356-10.63-3.7-1.378-.488-2.911-1.64-4.393-2.3-1.115-.524-2.37-.716-3.241-1.17-1.987-1.046-4.235-4.432-6.24-5.793-1.22-.82-3.136-1.257-3.938-2.077a38.133,38.133,0,0,1-1.847-3.49c-.75-1.065-2.126-1.85-3.015-3.019-1.917-2.548-4.357-5.986-4.375-7.87s1.743-3.107,1.15-4.852-4.112-1.291-4.635-3.246c-.3-1.186,1.028-3.176.924-4.869,0-.96-1.865-2.3-1.15-3.7s2.387.123,3.711-.7c-.993-3.333,0-8.726-3.241-9.72-1.743,1.43,1.743,4.659-1.168,5.549-2.788-1.24-2.143-4.921-2.77-7.644a29.436,29.436,0,0,1-1.378-5.235,21.971,21.971,0,0,0,.227-3.228c-.488-3.124-3.956-5.672-4.165-8.813-.1-1.5.923-2.775,1.15-4.4.174-1.082-.157-2.32,0-3.49.21-1.466,1.028-2.81,1.168-4.153a37.236,37.236,0,0,0-.47-9.04c-.576-2.67-2.685-4.956-3-7.87-.122-1.047.348-2.81.226-4.171s-.8-2.5-.924-3.944a27.309,27.309,0,0,1,.454-4.153c.261-2.915-.558-6.16-.454-9.04,0-.855.471-1.483.454-2.3,0-2.39-.82-4.8-.924-7.19-.174-4.4.488-7.5-.227-11.57-.54-3.07-1.2-7.8-2.317-9.72s-6.1-5.811-8.54-7.19c-1.62-.89-3.486-1.2-5.333-2.076-3.764-1.85-11.066-5.76-12.705-9.494-.488-1.082-.418-2.513-.94-3.7-.994-2.373-3.12-4.432-4.62-6.718-2.857-4.38-5.227-9.842-8.086-14.362a59.342,59.342,0,0,0-4.391-6.7c-.959-1.082-4.009-2.094-4.392-3.717-.523-2.147-2.109-5.079-1.865-6.719.349-2.216,4.636-4,4.636-6,0-1.745-2.3-2.723-2.771-4.171-1.168-3.49.68-5.62,2.074-8.568a30.679,30.679,0,0,1,1.394-3.246c.837-1.274,2.562-1.64,3.7-3.02.627-.767,1.028-2.373,1.847-3.49,1.743-2.338,4.6-3.21,5.228-5.322a43.782,43.782,0,0,0,.227-13.193c-.4-1.658-1.952-3.054-2.527-4.625-1.046-2.81-1.29-5.846-4.165-5.793-1.743,0-3.033,2.006-4.166,3.245-.278,1.64-.139,3.49-1.847,3.927-2.631.785-3.642-2.775-6.71-3.7-1.22-.366-3.171-.349-3.938-.7-2.23-1.012-2.945-4.293-5.228-5.567-1.97-1.047-3.66-.68-4.863-2.3a18.75,18.75,0,0,1-.226-4.642c-2.527-1.483-4.67-6.98-7.634-8.324-1.952-.873-4.95-.786-7.389-1.623a29.778,29.778,0,0,0-3.207-1.187,19.565,19.565,0,0,1-4.165-.925c-4.566-2.286-6.97-9.65-12.705-9.493-2.422,0-4.757,2.32-6.97,2.3s-5.839-1.745-8.558-3-6-2.042-8.33-3.246c-1.882-.96-3.207-2.74-4.862-3.49-1.255-.559-3.12-.663-4.148-1.152a46.253,46.253,0,0,1-4.862-3.49c-1.743-1.222-3.625-3.072-3.695-4.625s1.743-3.368,1.847-5.113c.593-5.514-3.485-9.476-6.012-12.722-1.9-2.425-4.113-4.485-6.013-6.718a16.763,16.763,0,0,0,0-3.246,44.06,44.06,0,0,1-4.165-5.55c-1.377-1.884-4.043-3.909-4.392-6.02-.418-2.6.994-4.887,0-7.417-1.638-4.188-7.459-2.3-6.71,3.246.21,1.536,2.353,3.49,3.015,5.1s.523,3.49,1.15,5.235,2.388,3.316,3.016,5.235c.976,3.176.94,6.6,1.847,8.569s3.712,3.49,2.074,5.567c-2.2.453-3.032-1.746-4.392-3.02-.75-.715-3.485-2.059-3.921-3.7-.366-1.36.854-3.193.453-4.868-.8-3.263-7.372-3.35-7.407-6.7,0-2.112,2.754-2.373,2.789-4.415s-3.05-4.119-3.712-6.02a35.714,35.714,0,0,1-.924-6.981,43.494,43.494,0,0,0-.453-6.719,11.075,11.075,0,0,0-4.392-4.624c-2.039-1.135-3.642-.664-4.636-2.321a19.321,19.321,0,0,1-1.62-6c-.332-2.792,0-5.828-.227-8.725a44.593,44.593,0,0,1,0-9.022c1.15-2.234,3.224-3.35,4.392-5.567.819-1.536.94-3.49,1.847-5.078,1.743-3.037,5.385-5.83,7.86-8.726a40.925,40.925,0,0,0,6.814-9.93c.558-1.308,2.074-4.188,1.848-5.793-.3-2.234-4.5-4.066-4.166-6.719.227-1.64,2.562-1.605,3.242-3.228a16.22,16.22,0,0,0,.7-4.171c0-2.234-1.133-4.555-.7-6.98.383-2.042,3.485-2.863,1.865-5.1s-4.322,1.186-6.03-.227.33-2.915.47-5.34c0-.96-.557-2.06-.47-2.775.156-1.03,2.16-2.775,1.62-3.49-1.237-1.57-2.649-5.6-5.228-6.98-3.485-1.746-7.058-.559-11.781-1.38-2.91-.523-4.27-3.228-6.971-3.018-1.656.14-2.6,2.024-4.862,3.019s-5.229.645-7.407,1.152-3.364,2.111-5.7,1.937c-1.917-.14-1.917-1.868-4.165-2.077a34.9,34.9,0,0,0-3.921.7,54.2,54.2,0,0,1-13.646-.244,38.867,38.867,0,0,1-9.028-3.49C4.9,59.263-.2,57.692.007,55.668.146,54.377,4.851,53,6.716,52.44c3.015-.925,4.862-2.409,7.18-2.548.871,0,2.04.54,3.224.471s2.65-1.187,4.165-1.4c3.225-.454,7.79.157,7.39-3.02-2.44-1.936-12.444,1.45-12.7-2.774-.157-2.548,3.8-3.316,6.71-3.926a43.254,43.254,0,0,1,9.01-1.4c2.649.14,6.117,3.088,7.633-.227.732-2.356-.906-4.346-1.394-6.265,1.97-2.7,5.577-2.374,8.33-2.775a33.53,33.53,0,0,0,8.714-2.3,33.652,33.652,0,0,1,8.714-2.321c3.137-.42,6.187-1.606,9.027-1.85a64.587,64.587,0,0,0,6.693-.471c1.986-.384,4.078-1.484,6.256-1.38,1.447,0,2.7,1.118,4.165,1.38s2.928,0,4.392.244c1.115.227,2.109.977,3.224,1.152,1.743.261,3.643-.245,5.333,0s2.876,1.186,4.392,1.378c3.485.471,7.633-.174,11.1.471,1.307.245,2.492.89,3.921,1.152s2.841,0,4.166.245c1.742.366,3.38,2.094,5.228,2.3,3.573.384,7.6-1.553,11.328-1.85a68,68,0,0,0,8.33-.453,51.56,51.56,0,0,1,7.39-1.623,26.958,26.958,0,0,0,3.485.226c1.168-.157,2.65-1.6,3.939-1.4,1.743.28,1.412,2.461,3.241,3.02,2.005-1.048,4.026,0,6.24,0s4.1-1.065,6.483-.7c4.2.663,10.09,4.782,13.4,2.548.837-.558.628-1.535,1.4-3,1.01-2.007,3.032-4.346,2.544-7.19-4.636,0-9.062,2.338-14.343,2.548-5.333-3.333,1.43-5.41,5.228-6.98,3.207-1.257,5.752-4.067,9.725-4.625,3.224-.471,6.78.715,10.63,1.151,2.232.262,4.48-.157,5.77.227,2.283.68,3.485,2.932,5.332,3.49.8.245,2.144.21,3.224.472,2.092.488,3.94,1.588,6.013,0,1.638.3,1.743,2.024,3.486,2.32,1.533-.837,2.718-2.949,5.088-3.49,1.029-.244,2.11.175,3.242,0,1.882-.314,4.392-2.861,5.542-.47-.47,1.744-2.98,1.919-4.392,3.245s-3.154,3.874-3,5.1c.278,2.2,3.572,1.344,3.694,4.17-.488,1.606-2.37.89-3.92,1.606s-1.97,2.042-3.486,2.321c-4.2.8-7.686-1.064-11.311-.925-.174,1.588,1.743,2.5,2.771,3,3.294,1.745,5.978,1.5,10.63,1.4,2.371,0,5.125.715,7.164-.7,1.307-.89,1.237-2.845,2.317-3.927a8.846,8.846,0,0,1,6.24-2.32c1.045.174,2.527,1.43,2.544,2.32,0,2.095-2.963,1.431-3,3.7,1.952,1.17,7.111-1.291,7.39-3.246.209-1.43-1.743-2.251-1.621-3.7.122-2.425,3.486-2.39,3.015-4.868-1.586-1.24-3.242.279-4.862,0-2.266-.367-4.322-3.107-5.316-4.852.994-1.256,3.1-.419,4.619-.227,1.742-2.373,4.862-3.28,9.254-3.717,1.55-.157,3.642-.767,4.391.7.384,2.2-3.241,3.49-2.544,6.021,3.12.785,4.13-3.49,6.71-5.1a25.809,25.809,0,0,1,4.391-1.85c1.43-.54,3-1.884,4.166-1.85s1.5,1.083,2.77,1.624,2.632-.332,3.016,1.151c-2.684,4.642-12.67,1.972-15.267,6.72.575,3.175-1.569,6.194.227,8.323,1.29,1.536,4.182.489,4.862,2.094.906,2.13-2.806,2.13-1.847,4.625,2.44,1.466,5.35-1.4,7.615-2.548s5.508-2.687,5.786-5.55c-1.22-2.355-5.768-.54-6.465-3.018-.384-1.344,1.394-4.346,1.847-4.852,2.4-2.7,10.823-6.561,16.87-6.02,1.15.1,2.318.8,3.486.924,3.973.4,8.713-1.745,11.8,0,2.51-1.465,5.525.192,9.01-.244,2.7,1.606,1.952,4.991,6.03,6.492,1.1.4,2.475.122,3.921.454,1.08.261,2.231,1.535,3.486,2.094,1.743.8,3.1.61,3.485,1.85s-1.272,1.989-1.15,3.245c.994.82.157,2.06.7,3.246.994,2.13,3.486,1.972,5.995,3,1.743.715,5.49,2.932,5.333,4.624-.122,1.152-3.485,3.16-4.635,3.718-.785.383-4.689,2.268-6.013,2.076-2.178-.314-3.032-4.746-6.013-4.624a2.473,2.473,0,0,0-2.544,2.548c0,3.036,3.4,3.158,3.486,5.793.1,3.141-1.743,3.35-4.392,5.236a18.944,18.944,0,0,0-6.013-2.077c-1.481,1.745,2.44,2.39,1.168,4.642-3.73.785-6.553-1.065-9.951-2.094a18.765,18.765,0,0,1-3.486-.7c-1.307-.75-1.743-3-2.77-4.154a9.547,9.547,0,0,0-5.787-3.245c-2.858,0-6.97,3.49-9.254.226,1.569-5.235,8.993-1.36,13.942-3.246,1.83-.7,2.458-2.617,3.939-3.49,3-1.745,7.86-1.937,7.407-5.322-.227-1.745-2.615-1.745-3.939-2.548-1.743-1.187-3.19-5.358-5.769-5.55-1.342-.1-2.3,1.013-3.712,1.152-2.98.28-6.308-1.2-9.01,0-1.255.716-.418,1.867-1.394,3.246s-2.7,1.431-3.486,2.548-.7,2.914-1.847,3.926c-1.9,1.746-5.908,1.955-8.33,2.775-1.063.367-2.423,1.64-3.486,1.64-1.9,0-2.718-2.582-4.845-1.64-.191,2.478,2.614,3.49,4.392,4.642s3.939,2.478,4.618,4.625c-1.882,4-4.88-.21-7.86-.227-3.276,0-8.068,6.265-10.857,1.152.68-2.688,3.66-3.124,4.374-5.777-3.259.559-6.1,3.3-9.933,4.171-1.621.35-3.19.262-4.619.68-2.77.82-4.705,2.863-7.633,3.945-1.15.418-2.51.3-3.7.68a62.822,62.822,0,0,0-9.027,4.171,52.792,52.792,0,0,0-8.087,4.869c-.993.855-3.485,3.891-3.485,4.869.122,1.378,2.7,1.832,2.77,3.228,0,.855-1.5,2.705-.452,3.944s2.84.21,4.845.454c3.485.453,5.838,3.368,8.557,4.869a23.368,23.368,0,0,0,7.406,2.774c3.172.4,6.727-.925,7.163,1.623s-3,3.333-3.241,4.87c1.742,2.268-1.168,3.35-1.15,5.234a5.024,5.024,0,0,0,3.694,4.171c2.335.192,5.734-2.3,6.71-4.642,1.15-2.774.662-6.544,2.77-8.55,10.771.3,19.886-4.9,19.171-15.986a15.043,15.043,0,0,1-.453-3.7c.331-1.745,3.486-3.3,3-5.566,3.015-.925,2.893-5.777,6.012-6.475,2.614-.593,5.577,1.85,9.01,1.623,1.133,0,2.58-1.082,3.712-.925,2.266.314,3.625,3.107,5.316,4.4s3.084.785,3.485,2.3c-.453,2.6-2.265,2.67-2.091,5.1a5.024,5.024,0,0,0,3.485,3.944,10.992,10.992,0,0,0,5.769-1.4c3.1-1.466,5.751-5.881,8.33-5.323,2.04.454,3.625,6.98,3.922,9.267a64.657,64.657,0,0,1-.227,6.719c.314,3.909,5.228,3.49,7.633,5.549.732.628,1.011,2.2,1.621,3.02,1.168,1.552,2.6,1.552,2.771,3.228.436,4-3.607,4.345-3.241,8.725-.837,1.745-2.946,1.64-2.771,3.944.278,3.647,5.507.855,6.97,3.7.768,1.535-.121,2.67-.7,4.868,1.742,2.13,1.742,5.55-1.377,5.55-1.743.227-2.2-1.78-4.218-2.269Zm-249.965-6c1.1-1.134-.454-3.49-2.074-2.565C89.114,106.538,89.567,108.58,91.345,108.248Zm161.362,21.063c-.958-.942-4.1-.68-6.239-.47-1.516.156-3.311.47-3.485,1.622C245.44,131.563,251.993,132.453,252.707,129.311Zm-12.025-3.943a2.83,2.83,0,0,0-.924-4.852c-.749-.21-1.742.559-3,.454s-2.614-1.291-3.7-1.379a5.555,5.555,0,0,0-4.409,1.606c0,1.4,1.028,1.605.941,3.019-2.248,1.605-1.063,6.98,1.15,7.172s3.486-5.933,6.693-6.474c1.185-.21,1.76.646,3.276.454h-.035Zm-3.241,9.266c-3.277-1.17-6.31.8-9.01,1.152-1.6.227-4.532-.314-4.166,2.094.3,1.954,3.329,1.239,5.09.68a21.86,21.86,0,0,0,8.12-3.926h-.034Zm-10.16-17.608c4.6-1.955-.907-8.01-3.016-8.551-3.747-1-9.08,2.74-13.4,3.926-2.44.664-4.775.733-5.333,2.793,2.2,3.612,6.518-.8,9.725-.245,1.6.3,2.562,2.513,4.165,2.775a47.151,47.151,0,0,0,7.9-.7h-.035Zm-3.242,3.717c-.959-1.134-6.152.14-7.634,1.152-1.028.715-1.742,2.443-2.77,3.717s-2.319,2.32-3.242,3.49-5.507,7.783-1.848,8.569c1.569.314,4.776-2.932,5.09-4.171a13.857,13.857,0,0,1,6.238-9.267c1.935-1.169,3.887-1.03,4.2-3.49h-.034ZM195.2,94.811c2.58,0,4.34-7.731,0-6.719C192.268,88.825,191.571,94.932,195.2,94.811ZM182.718,268.466c.122-.349.348-.593.47-.925-.75-2.3-2.962.838-.505.925ZM84.878,74.672c0-.436-.26-.523-.226-.942-.714,0-1.533-.122-1.394.7a.959.959,0,0,0,1.62.244ZM327.89,38.3c1.15.14,1.743-.21,1.62-1.378C328.483,36.193,326.984,37.153,327.89,38.3ZM301.313,15.618a1.149,1.149,0,0,0-1.394,0v.925c.976.21,1.15-.367,1.394-.925Zm-87.87,17.835c.766-.506,1.952-1.17,1.376-2.321-2.544-1.187-6.866-.28-10.63-.7-2.144-3.02-5.717-3.49-6.013,1.4C202.481,35.338,209,30.207,213.443,33.453ZM172.052,57.308c1.307-.47,3.137-.226,3.486-1.64-1.081-.855-2.2-2.024-3.486-2.077-1.743,0-2.492,1.431-4.165,2.321-1.952,1.03-4.67,1.292-4.863,3C166.614,59.629,169.839,58.059,172.052,57.308Zm-1.168-16.683c1.482-.244,3,.42,3.939-.925-1.1-5.1-8.139-1.972-12.2-1.623a11.75,11.75,0,0,0-2.282,4.642C163.443,43.452,167.311,41.236,170.884,40.625ZM240.264,277.3c1.743-.3,1.29-4.5-.924-3.49C237.667,274.556,238.521,277.541,240.264,277.3Z" transform="translate(-0.001 0)" fill="#f5f5fa"/><path d="M84.716,74.01c0,.647.34.782.276,1.456a1.048,1.048,0,0,1-1.07.517,1.257,1.257,0,0,1-.9-.894c-.17-1.268.827-1.08,1.7-1.08ZM77,88.084A4.792,4.792,0,0,1,74.06,91,6.1,6.1,0,0,1,73,89.779C73.1,87.482,75.925,85.805,77,88.084Z" transform="translate(-0.001 0)" fill="#f5f5fa"/></g><rect width="1222" height="564" transform="translate(-1983 -2863)" fill="none"/></g></svg>