<svg xmlns="http://www.w3.org/2000/svg" width="1152.092" height="330" viewBox="0 0 1152.092 330">
  <g id="Group_9359" data-name="Group 9359" transform="translate(-479.749 -402)">
    <g id="XDAO_white" transform="translate(479.749 402)">
      <g id="Group_2585" data-name="Group 2585" transform="translate(0 26.976)">
        <path id="Path_73" data-name="Path 73" d="M162.468,197.477l-24.914,14.395-53.524-30.9,24.307-14.037.607-.357.929.536Z" transform="translate(-17.005 66.52)" fill="#fff"/>
        <path id="Path_74" data-name="Path 74" d="M287.6,105.658v28.968l-52.685-30.414L220.629,95.96l-14.287,8.251-66.973,38.666-14.287,8.251v17.056L99.31,153.307l-14.287-8.251-14.287,8.251L46.5,167.291V105.658l120.551-69.6Z" transform="translate(-46.5 -36.06)" fill="#fff"/>
        <path id="Path_75" data-name="Path 75" d="M240.445,126.753v77.331L173.473,242.75l-.089-.054L106.5,204.084V126.753L173.473,88.07Z" transform="translate(0.658 4.817)" fill="#fff"/>
        <path id="Path_76" data-name="Path 76" d="M123.545,137.8v44.47L85.023,204.527,46.5,182.275V137.8L85.023,115.57Z" transform="translate(-46.5 26.43)" fill="#fff"/>
      </g>
      <text id="XDAO" transform="translate(309.092 262)" fill="#fff" font-size="271" font-family="Montserrat-Bold, Montserrat" font-weight="700"><tspan x="0" y="0">XDAO</tspan></text>
    </g>
  </g>
</svg>
