<svg xmlns="http://www.w3.org/2000/svg" xmlns:xlink="http://www.w3.org/1999/xlink" width="61.528" height="48.193" viewBox="0 0 61.528 48.193"><defs><linearGradient id="a" x1="0.995" y1="1.828" x2="0.001" y2="1.828" gradientUnits="objectBoundingBox"><stop offset="0" stop-color="#4171f7"/><stop offset="1" stop-color="#f74bda"/></linearGradient><linearGradient id="b" x1="0.129" y1="2.404" x2="0.752" y2="2.185" gradientUnits="objectBoundingBox"><stop offset="0" stop-color="#f14cdb" stop-opacity="0.031"/><stop offset="0" stop-color="#fff" stop-opacity="0"/><stop offset="1" stop-color="#fff" stop-opacity="0.4"/></linearGradient><linearGradient id="c" x1="0.087" y1="2.152" x2="0.879" y2="2.384" gradientUnits="objectBoundingBox"><stop offset="0" stop-color="#231f20" stop-opacity="0.4"/><stop offset="1" stop-color="#231f20" stop-opacity="0"/></linearGradient><linearGradient id="d" y1="0.5" x2="1" y2="0.5" gradientUnits="objectBoundingBox"><stop offset="0" stop-color="#fff"/><stop offset="1" stop-color="#ebe9fb"/></linearGradient><linearGradient id="e" x1="0.331" y1="2.547" x2="0.61" y2="3.347" gradientUnits="objectBoundingBox"><stop offset="0" stop-color="#eae8fc"/><stop offset="1" stop-color="#eae9f0"/></linearGradient><linearGradient id="f" x1="0.636" y1="2.694" x2="0.364" y2="3.349" gradientUnits="objectBoundingBox"><stop offset="0" stop-color="#dad4f4"/><stop offset="1" stop-color="#f0f0f0"/></linearGradient><linearGradient id="g" x1="0.197" y1="0.133" x2="0.719" y2="0.764" gradientUnits="objectBoundingBox"><stop offset="0" stop-color="#eae8fc"/><stop offset="1" stop-color="#f0f0f0"/></linearGradient><linearGradient id="h" x1="0.636" y1="2.694" x2="0.364" y2="3.349" xlink:href="#f"/><linearGradient id="i" y1="0.5" x2="1" y2="0.5" gradientUnits="objectBoundingBox"><stop offset="0" stop-color="#f7f6fa"/><stop offset="1" stop-color="#ebe9fb"/></linearGradient></defs><g transform="translate(-11598.869 7943.081)"><path d="M79.6,34.759l19.553,11.3,19.553-11.3V12.182L99.153.9,79.6,12.182Z" transform="translate(11530.467 -7943.981)" fill="url(#a)"/><path d="M79.6,104.021,99.139,115.3V92.782L79.6,81.5Z" transform="translate(11530.467 -8013.243)" opacity="0.56" fill="url(#b)"/><path d="M238.053,81.4,218.5,92.7v22.521l.014.014,19.553-11.3V81.414Z" transform="translate(11411.105 -8013.157)" opacity="0.56" fill="url(#c)"/><path d="M242.6,126.506l13.7-7.906,13.7,7.906v15.811l-13.7,7.92-13.7-7.92Z" transform="translate(11390.396 -8045.125)" fill="#f0f0f0"/><path d="M242.6,126.506l13.7-7.906,13.7,7.906v15.811l-13.7,7.92-13.7-7.92Z" transform="translate(11390.396 -8045.125)" fill="#fff"/><path d="M256.3,118.6l13.7,7.906-13.7,7.906-13.7-7.906Z" transform="translate(11390.396 -8045.125)" fill="url(#d)"/><path d="M242.6,174.8l13.7,7.906v15.825l-13.7-7.92Z" transform="translate(11390.396 -8093.419)" fill="url(#e)"/><path d="M340,182.705l13.7-7.906v15.811l-13.7,7.92Z" transform="translate(11306.696 -8093.419)" fill="url(#f)"/><path d="M0,126.506,13.7,118.6l13.7,7.906v15.811l-13.7,7.92L0,142.317Z" transform="translate(11598.869 -8045.125)" fill="#f0f0f0"/><path d="M0,174.8l13.7,7.906v15.825L0,190.611Z" transform="translate(11598.869 -8093.419)" fill="url(#g)"/><path d="M97.4,182.705l13.7-7.906v15.811l-13.7,7.92Z" transform="translate(11515.17 -8093.419)" fill="url(#h)"/><path d="M13.7,118.6l13.7,7.906-13.7,7.906L0,126.506Z" transform="translate(11598.869 -8045.125)" fill="url(#i)"/></g></svg>