<svg id="Group_7530" data-name="Group 7530" xmlns="http://www.w3.org/2000/svg" xmlns:xlink="http://www.w3.org/1999/xlink" width="79.691" height="79.691" viewBox="0 0 79.691 79.691">
  <defs>
    <linearGradient id="linear-gradient" x1="0.995" y1="1.828" x2="0.001" y2="1.828" gradientUnits="objectBoundingBox">
      <stop offset="0" stop-color="#4171f7"/>
      <stop offset="1" stop-color="#f74bda"/>
    </linearGradient>
    <linearGradient id="linear-gradient-2" x1="0.129" y1="2.404" x2="0.752" y2="2.185" gradientUnits="objectBoundingBox">
      <stop offset="0" stop-color="#f14cdb" stop-opacity="0.031"/>
      <stop offset="0" stop-color="#fff" stop-opacity="0"/>
      <stop offset="1" stop-color="#fff" stop-opacity="0.4"/>
    </linearGradient>
    <linearGradient id="linear-gradient-3" x1="0.087" y1="2.152" x2="0.879" y2="2.384" gradientUnits="objectBoundingBox">
      <stop offset="0" stop-color="#231f20" stop-opacity="0.4"/>
      <stop offset="1" stop-color="#231f20" stop-opacity="0"/>
    </linearGradient>
    <linearGradient id="linear-gradient-4" y1="0.5" x2="1" y2="0.5" gradientUnits="objectBoundingBox">
      <stop offset="0" stop-color="#fff"/>
      <stop offset="1" stop-color="#ebe9fb"/>
    </linearGradient>
    <linearGradient id="linear-gradient-5" x1="0.331" y1="2.547" x2="0.61" y2="3.347" gradientUnits="objectBoundingBox">
      <stop offset="0" stop-color="#eae8fc"/>
      <stop offset="1" stop-color="#eae9f0"/>
    </linearGradient>
    <linearGradient id="linear-gradient-6" x1="0.636" y1="2.694" x2="0.364" y2="3.349" gradientUnits="objectBoundingBox">
      <stop offset="0" stop-color="#dad4f4"/>
      <stop offset="1" stop-color="#f0f0f0"/>
    </linearGradient>
    <linearGradient id="linear-gradient-7" x1="0.197" y1="0.133" x2="0.719" y2="0.764" gradientUnits="objectBoundingBox">
      <stop offset="0" stop-color="#eae8fc"/>
      <stop offset="1" stop-color="#f0f0f0"/>
    </linearGradient>
    <linearGradient id="linear-gradient-8" x1="0.636" y1="2.694" x2="0.364" y2="3.349" xlink:href="#linear-gradient-6"/>
    <linearGradient id="linear-gradient-9" y1="0.5" x2="1" y2="0.5" gradientUnits="objectBoundingBox">
      <stop offset="0" stop-color="#f7f6fa"/>
      <stop offset="1" stop-color="#ebe9fb"/>
    </linearGradient>
  </defs>
  <ellipse id="Ellipse_808" data-name="Ellipse 808" cx="39.846" cy="39.846" rx="39.846" ry="39.846" fill="#01060d"/>
  <g id="Group_7529" data-name="Group 7529" transform="translate(10.953 14.745)">
    <path id="polygon63" d="M79.6,32.7,97.963,43.308,116.327,32.7V11.5L97.963.9,79.6,11.5Z" transform="translate(-69.084 -0.9)" fill="url(#linear-gradient)"/>
    <path id="polygon65" d="M79.6,102.651l18.35,10.6V92.1L79.6,81.5Z" transform="translate(-69.084 -70.852)" opacity="0.56" fill="url(#linear-gradient-2)"/>
    <path id="polygon67" d="M236.863,81.4,218.5,92.009V113.16l.013.013,18.363-10.609V81.413Z" transform="translate(-189.634 -70.765)" opacity="0.56" fill="url(#linear-gradient-3)"/>
    <path id="polygon69" d="M242.6,126.025l12.868-7.425,12.868,7.425v14.849l-12.868,7.438L242.6,140.874Z" transform="translate(-210.55 -103.051)" fill="#f0f0f0"/>
    <path id="polygon71" d="M242.6,126.025l12.868-7.425,12.868,7.425v14.849l-12.868,7.438L242.6,140.874Z" transform="translate(-210.55 -103.051)" fill="#fff"/>
    <path id="polygon73" d="M255.468,118.6l12.868,7.425-12.868,7.425L242.6,126.025Z" transform="translate(-210.55 -103.051)" fill="url(#linear-gradient-4)"/>
    <path id="polygon75" d="M242.6,174.8l12.868,7.425v14.863L242.6,189.649Z" transform="translate(-210.55 -151.826)" fill="url(#linear-gradient-5)"/>
    <path id="polygon77" d="M340,182.225l12.868-7.425v14.849L340,197.087Z" transform="translate(-295.082 -151.826)" fill="url(#linear-gradient-6)"/>
    <path id="polygon79" d="M0,126.025,12.868,118.6l12.868,7.425v14.849l-12.868,7.438L0,140.874Z" transform="translate(0 -103.051)" fill="#f0f0f0"/>
    <path id="polygon81" d="M0,174.8l12.868,7.425v14.863L0,189.649Z" transform="translate(0 -151.826)" fill="url(#linear-gradient-7)"/>
    <path id="polygon83" d="M97.4,182.225l12.868-7.425v14.849L97.4,197.087Z" transform="translate(-84.532 -151.826)" fill="url(#linear-gradient-8)"/>
    <path id="polygon85" d="M12.868,118.6l12.868,7.425-12.868,7.425L0,126.025Z" transform="translate(0 -103.051)" fill="url(#linear-gradient-9)"/>
  </g>
</svg>
