<svg width="35" height="21" viewBox="0 0 35 21" fill="none" xmlns="http://www.w3.org/2000/svg">
<path d="M10.378 7.84656C10.378 8.25792 10.4224 8.59145 10.5003 8.83604C10.5892 9.08063 10.7004 9.34746 10.856 9.63652C10.9116 9.72546 10.9339 9.8144 10.9339 9.89223C10.9339 10.0034 10.8672 10.1146 10.7226 10.2258L10.0222 10.6927C9.92215 10.7594 9.82209 10.7928 9.73315 10.7928C9.62197 10.7928 9.51079 10.7372 9.39961 10.6371C9.24397 10.4703 9.11055 10.2925 8.99937 10.1146C8.8882 9.92558 8.77702 9.71434 8.65473 9.45863C7.78754 10.4815 6.698 10.9929 5.38611 10.9929C4.45222 10.9929 3.70733 10.7261 3.16256 10.1924C2.61779 9.65875 2.33984 8.94722 2.33984 8.0578C2.33984 7.11279 2.67338 6.34566 3.35156 5.76754C4.02974 5.18942 4.93028 4.90036 6.07541 4.90036C6.45341 4.90036 6.84253 4.93371 7.25389 4.9893C7.66524 5.04489 8.08772 5.13383 8.53243 5.23389V4.42229C8.53243 3.57734 8.35455 2.9881 8.0099 2.64345C7.65413 2.2988 7.05377 2.13204 6.1977 2.13204C5.80858 2.13204 5.40834 2.17651 4.99699 2.27657C4.58563 2.37663 4.18539 2.49892 3.79627 2.65457C3.61838 2.7324 3.48497 2.77687 3.40715 2.7991C3.32932 2.82134 3.27373 2.83245 3.22926 2.83245C3.07362 2.83245 2.99579 2.72128 2.99579 2.4878V1.94304C2.99579 1.76515 3.01803 1.63174 3.07362 1.55391C3.1292 1.47609 3.22926 1.39827 3.38491 1.32044C3.77403 1.12032 4.24098 0.953556 4.78575 0.820143C5.33052 0.675612 5.90864 0.608905 6.52012 0.608905C7.84313 0.608905 8.81037 0.909085 9.43297 1.50944C10.0444 2.1098 10.3557 3.02146 10.3557 4.24441V7.84656H10.378ZM5.86417 9.53646C6.23106 9.53646 6.60906 9.46975 7.0093 9.33634C7.40954 9.20293 7.76531 8.95833 8.06548 8.6248C8.24337 8.41357 8.37678 8.18009 8.44349 7.91327C8.51019 7.64644 8.55467 7.32403 8.55467 6.94602V6.47908C8.23225 6.40125 7.8876 6.33455 7.53183 6.29008C7.17606 6.2456 6.83141 6.22337 6.48676 6.22337C5.74187 6.22337 5.1971 6.3679 4.83022 6.66808C4.46333 6.96826 4.28545 7.39073 4.28545 7.94662C4.28545 8.46915 4.41886 8.85827 4.69681 9.1251C4.96363 9.40304 5.35275 9.53646 5.86417 9.53646ZM14.7917 10.7372C14.5916 10.7372 14.4582 10.7038 14.3692 10.626C14.2803 10.5593 14.2025 10.4036 14.1358 10.1924L11.5231 1.59838C11.4564 1.37603 11.423 1.2315 11.423 1.15368C11.423 0.975791 11.512 0.875731 11.6899 0.875731H12.7794C12.9906 0.875731 13.1352 0.909085 13.213 0.986909C13.3019 1.05362 13.3687 1.20926 13.4354 1.4205L15.3031 8.78045L17.0375 1.4205C17.0931 1.19815 17.1598 1.05362 17.2487 0.986909C17.3377 0.920202 17.4933 0.875731 17.6935 0.875731H18.5829C18.7941 0.875731 18.9386 0.909085 19.0276 0.986909C19.1165 1.05362 19.1943 1.20926 19.2388 1.4205L20.9954 8.86939L22.9188 1.4205C22.9855 1.19815 23.0633 1.05362 23.1411 0.986909C23.2301 0.920202 23.3746 0.875731 23.5747 0.875731H24.6087C24.7866 0.875731 24.8866 0.964673 24.8866 1.15368C24.8866 1.20926 24.8755 1.26485 24.8644 1.33156C24.8533 1.39827 24.831 1.48721 24.7866 1.6095L22.1072 10.2035C22.0405 10.4259 21.9627 10.5704 21.8737 10.6371C21.7848 10.7038 21.6403 10.7483 21.4513 10.7483H20.4951C20.2839 10.7483 20.1394 10.7149 20.0504 10.6371C19.9615 10.5593 19.8836 10.4148 19.8392 10.1924L18.1159 3.02146L16.4038 10.1813C16.3482 10.4036 16.2815 10.5482 16.1926 10.626C16.1036 10.7038 15.948 10.7372 15.7478 10.7372H14.7917ZM29.078 11.0374C28.4999 11.0374 27.9218 10.9706 27.3659 10.8372C26.81 10.7038 26.3764 10.5593 26.0874 10.3925C25.9095 10.2925 25.7872 10.1813 25.7427 10.0812C25.6982 9.98117 25.676 9.86999 25.676 9.76993V9.20292C25.676 8.96945 25.7649 8.85827 25.9317 8.85827C25.9984 8.85827 26.0651 8.86939 26.1318 8.89163C26.1985 8.91386 26.2986 8.95833 26.4098 9.00281C26.7878 9.16957 27.1991 9.30299 27.6327 9.39193C28.0774 9.48087 28.511 9.52534 28.9557 9.52534C29.6562 9.52534 30.2009 9.40304 30.5789 9.15845C30.9569 8.91386 31.157 8.55809 31.157 8.10227C31.157 7.79097 31.057 7.53526 30.8569 7.32403C30.6567 7.11279 30.2787 6.92379 29.734 6.7459L28.1219 6.2456C27.3103 5.9899 26.7099 5.61189 26.3431 5.11159C25.9762 4.62241 25.7872 4.07764 25.7872 3.49952C25.7872 3.03257 25.8872 2.62122 26.0874 2.26545C26.2875 1.90968 26.5543 1.59838 26.8878 1.35379C27.2214 1.09809 27.5994 0.909085 28.0441 0.775672C28.4888 0.642259 28.9557 0.58667 29.4449 0.58667C29.6895 0.58667 29.9452 0.597788 30.1898 0.631141C30.4455 0.664494 30.679 0.708965 30.9125 0.753436C31.1348 0.809025 31.346 0.864614 31.5462 0.93132C31.7463 0.998027 31.9019 1.06473 32.0131 1.13144C32.1688 1.22038 32.2799 1.30932 32.3466 1.40938C32.4134 1.49833 32.4467 1.62062 32.4467 1.77627V2.2988C32.4467 2.53228 32.3578 2.65457 32.191 2.65457C32.1021 2.65457 31.9575 2.6101 31.7685 2.52116C31.1348 2.2321 30.4233 2.08757 29.6339 2.08757C29.0002 2.08757 28.4999 2.18763 28.1553 2.39886C27.8106 2.6101 27.6327 2.93251 27.6327 3.38834C27.6327 3.69964 27.7439 3.96647 27.9663 4.1777C28.1886 4.38894 28.6 4.60018 29.1892 4.78918L30.7679 5.28948C31.5684 5.54519 32.1465 5.90095 32.4912 6.35678C32.8358 6.81261 33.0026 7.33514 33.0026 7.91327C33.0026 8.39133 32.9025 8.82492 32.7135 9.20292C32.5134 9.58093 32.2466 9.91446 31.9019 10.1813C31.5573 10.4592 31.1459 10.6594 30.6679 10.8039C30.1676 10.9595 29.645 11.0374 29.078 11.0374Z" fill="#252F3E"/>
<path fill-rule="evenodd" clip-rule="evenodd" d="M31.1786 16.4422C27.5209 19.1438 22.2066 20.578 17.6372 20.578C11.2334 20.578 5.46328 18.2099 1.10512 14.2742C0.760471 13.9629 1.07177 13.5404 1.48313 13.785C6.19705 16.52 12.0116 18.1765 18.0263 18.1765C22.0843 18.1765 26.5425 17.3316 30.645 15.5972C31.2565 15.3193 31.779 15.9975 31.1786 16.4422Z" fill="#FF9900"/>
<path fill-rule="evenodd" clip-rule="evenodd" d="M32.7031 14.7087C32.2361 14.1083 29.6124 14.4196 28.4228 14.5641C28.067 14.6086 28.0114 14.2973 28.3338 14.0638C30.4239 12.5963 33.8593 13.0188 34.2596 13.508C34.6598 14.0083 34.1484 17.4437 32.1917 19.0891C31.8915 19.3448 31.6024 19.2114 31.7358 18.8778C32.1805 17.7772 33.17 15.2979 32.7031 14.7087Z" fill="#FF9900"/>
</svg>
