<svg width="41" height="41" viewBox="0 0 41 41" fill="none" xmlns="http://www.w3.org/2000/svg">
<path d="M3.84673 27.4742L5.81296 26.6597L3.84673 27.4742C5.20504 30.7534 7.50524 33.5562 10.4565 35.5281C13.4077 37.5001 16.8774 38.5526 20.4268 38.5526C22.7835 38.5526 25.1172 38.0884 27.2945 37.1865C29.4718 36.2847 31.4502 34.9628 33.1166 33.2963C34.7831 31.6299 36.105 29.6515 37.0069 27.4742C37.9087 25.2968 38.3729 22.9632 38.3729 20.6065C38.3729 17.0571 37.3204 13.5874 35.3485 10.6361C33.3765 7.68492 30.5737 5.38472 27.2945 4.02642L26.48 5.99265L27.2945 4.02642C24.0153 2.66812 20.4069 2.31273 16.9257 3.00518C13.4445 3.69764 10.2468 5.40684 7.73697 7.91665C5.22716 10.4265 3.51795 13.6242 2.8255 17.1054C2.13304 20.5866 2.48843 24.1949 3.84673 27.4742Z" fill="white" stroke="#2B61D1" stroke-width="4.25645"/>
<path d="M20.429 23.0097V10.754" stroke="#2B61D1" stroke-width="4.25645" stroke-linecap="round"/>
<path d="M20.429 23.0086L26.5126 19.3586" stroke="#2B61D1" stroke-width="4.25645" stroke-linecap="round"/>
</svg>
