<svg width="106" height="106" viewBox="0 0 106 106" fill="none" xmlns="http://www.w3.org/2000/svg">
<g clip-path="url(#clip0_1220_2453)">
<path d="M106 52.9999C106 46.5169 104.834 40.3066 102.703 34.5652L53 32.2607L3.29656 34.565C1.16621 40.3066 0 46.5169 0 52.9999C0 59.4829 1.16621 65.6932 3.29656 71.4346L53 73.739L102.703 71.4348C104.834 65.6932 106 59.4829 106 52.9999Z" fill="#496E2D"/>
<path d="M53.0003 106C75.7885 106 95.2152 91.617 102.704 71.4346H3.29688C10.7854 91.617 30.2122 106 53.0003 106Z" fill="#D80027"/>
<path d="M3.29688 34.5653H102.704C95.2152 14.3829 75.7885 0 53.0003 0C30.2122 0 10.7854 14.3829 3.29688 34.5653Z" fill="#F0F0F0"/>
</g>
<defs>
<clipPath id="clip0_1220_2453">
<rect width="106" height="106" fill="white"/>
</clipPath>
</defs>
</svg>
