<svg width="106" height="106" viewBox="0 0 106 106" fill="none" xmlns="http://www.w3.org/2000/svg">
<g clip-path="url(#clip0_1220_2457)">
<path d="M53 106C82.2711 106 106 82.2711 106 53C106 23.7289 82.2711 0 53 0C23.7289 0 0 23.7289 0 53C0 82.2711 23.7289 106 53 106Z" fill="#F0F0F0"/>
<path d="M106 52.9998C106 31.9873 93.7713 13.8315 76.043 5.25879V100.741C93.7713 92.168 106 74.0122 106 52.9998Z" fill="#D80027"/>
<path d="M0 52.9998C0 74.0122 12.2283 92.168 29.9566 100.741V5.25879C12.2283 13.8315 0 31.9873 0 52.9998Z" fill="#D80027"/>
<path d="M62.2185 59.9125L71.4358 55.3038L66.8273 52.9996V48.3908L57.6098 52.9996L62.2185 43.7821H57.6098L53.0011 36.8691L48.3924 43.7821H43.7836L48.3924 52.9996L39.1749 48.3908V52.9996L34.5664 55.3038L43.7836 59.9125L41.4794 64.5213H50.6968V71.4342H55.3053V64.5213H64.5228L62.2185 59.9125Z" fill="#D80027"/>
</g>
<defs>
<clipPath id="clip0_1220_2457">
<rect width="106" height="106" fill="white"/>
</clipPath>
</defs>
</svg>
