<svg width="671" height="513" viewBox="0 0 671 513" fill="none" xmlns="http://www.w3.org/2000/svg">
<path d="M167.865 132H200.365C202.365 132 206.365 133.2 206.365 138C206.365 142.8 206.365 145.333 206.365 146C206.365 147.833 207.265 151.5 210.865 151.5C214.465 151.5 258.198 151.5 262.365 151.5C263.865 151.5 266.865 152.2 266.865 155C266.865 157.8 266.865 159.5 266.865 160" stroke="#2B61D1" stroke-linecap="round"/>
<path d="M407.865 113H377.663C375.804 113 372.087 114.371 372.087 119.857C372.087 125.343 372.087 128.238 372.087 129C372.087 131.095 371.251 134 367.905 134C364.56 134 323.919 134 320.047 134C318.653 134 315.865 136.086 315.865 139.286C315.865 142.486 315.865 144.429 315.865 145" stroke="#2B61D1" stroke-linecap="round"/>
<g filter="url(#filter0_d_1_1048)">
<circle cx="330.575" cy="289.816" r="141.415" transform="rotate(-107.086 330.575 289.816)" fill="white"/>
</g>
<path d="M265.306 169.394C264.137 167.237 264.934 164.534 267.127 163.433C269.32 162.332 271.965 163.307 272.996 165.534L288.758 199.557C289.462 201.076 288.799 202.872 287.303 203.623C285.808 204.374 283.971 203.832 283.173 202.361L265.306 169.394Z" fill="#127E2B"/>
<path d="M304.708 164.366C303.221 157.156 307.86 150.041 315.177 149.239C322.495 148.438 328.564 154.381 328.673 161.741L329.041 186.6C329.114 191.51 325.184 195.506 320.303 196.041C315.422 196.575 310.72 193.525 309.728 188.715L304.708 164.366Z" fill="#16BB3B"/>
<g filter="url(#filter1_d_1_1048)">
<path d="M282.126 165.029C280.617 161.141 282.539 156.744 286.503 155.444C290.466 154.144 294.62 156.548 295.706 160.575L304.422 192.878C305.154 195.592 303.542 198.373 300.871 199.249C298.2 200.126 295.254 198.84 294.236 196.219L282.126 165.029Z" fill="#0BE23B"/>
</g>
<g filter="url(#filter2_d_1_1048)">
<path d="M331.43 171.944C331.524 158.943 342.213 148.281 355.018 150.529C380.118 154.933 403.717 166.07 423.194 182.951C448.639 205.003 465.38 235.411 470.407 268.706C475.433 302 468.415 335.995 450.614 364.576C436.988 386.454 417.729 404.061 395.048 415.68C383.477 421.607 370.117 414.576 366.189 402.182C362.261 389.789 369.363 376.785 380.403 369.918C392.579 362.343 402.96 352.034 410.65 339.686C422.525 320.62 427.206 297.943 423.853 275.734C420.5 253.524 409.333 233.24 392.359 218.529C381.366 209.002 368.405 202.217 354.535 198.575C341.96 195.272 331.336 184.945 331.43 171.944Z" fill="#0BE23B"/>
</g>
<path d="M356.132 404.886C358.951 417.578 350.92 430.363 337.937 431.039C312.488 432.366 286.995 426.794 264.233 414.703C234.497 398.906 211.373 373.018 199.02 341.694C186.668 310.37 185.898 275.667 196.848 243.826C205.23 219.452 220.059 197.98 239.563 181.58C249.514 173.212 264.109 177.074 270.712 188.274C277.315 199.473 273.304 213.737 264.082 222.901C253.91 233.01 246.101 245.381 241.37 259.137C234.065 280.377 234.579 303.527 242.819 324.422C251.059 345.317 266.484 362.587 286.32 373.124C299.167 379.949 313.318 383.66 327.652 384.105C340.646 384.508 353.314 392.195 356.132 404.886Z" fill="#2B61D1"/>
<path d="M228.657 8.88V6.8H220.193V18H222.785V13.92H227.969V11.84H222.785V8.88H228.657ZM234.113 18.128C236.849 18.128 238.833 16.288 238.833 13.696C238.833 11.104 236.849 9.264 234.113 9.264C231.377 9.264 229.377 11.104 229.377 13.696C229.377 16.288 231.377 18.128 234.113 18.128ZM234.113 16.08C232.865 16.08 231.905 15.184 231.905 13.696C231.905 12.208 232.865 11.312 234.113 11.312C235.361 11.312 236.305 12.208 236.305 13.696C236.305 15.184 235.361 16.08 234.113 16.08ZM246.677 9.392V13.648C246.677 15.232 245.845 15.968 244.693 15.968C243.589 15.968 242.949 15.328 242.949 13.888V9.392H240.453V14.256C240.453 16.912 241.973 18.128 244.133 18.128C245.189 18.128 246.149 17.728 246.805 16.976V18H249.173V9.392H246.677ZM256.718 9.264C255.55 9.264 254.542 9.664 253.87 10.4V9.392H251.486V18H253.982V13.744C253.982 12.16 254.846 11.424 256.046 11.424C257.15 11.424 257.79 12.064 257.79 13.456V18H260.286V13.072C260.286 10.448 258.75 9.264 256.718 9.264ZM268.914 6.128V10.304C268.29 9.6 267.394 9.264 266.338 9.264C263.906 9.264 262.034 10.992 262.034 13.696C262.034 16.4 263.906 18.128 266.338 18.128C267.49 18.128 268.402 17.76 269.026 17.008V18H271.41V6.128H268.914ZM266.77 16.08C265.522 16.08 264.562 15.184 264.562 13.696C264.562 12.208 265.522 11.312 266.77 11.312C268.002 11.312 268.962 12.208 268.962 13.696C268.962 15.184 268.002 16.08 266.77 16.08ZM277.192 9.264C275.816 9.264 274.424 9.632 273.48 10.304L274.376 12.048C275 11.552 275.944 11.248 276.856 11.248C278.2 11.248 278.84 11.872 278.84 12.944H276.856C274.232 12.944 273.16 14 273.16 15.52C273.16 17.008 274.36 18.128 276.376 18.128C277.64 18.128 278.536 17.712 279 16.928V18H281.336V13.088C281.336 10.48 279.816 9.264 277.192 9.264ZM277 16.448C276.12 16.448 275.592 16.032 275.592 15.408C275.592 14.832 275.96 14.4 277.128 14.4H278.84V15.28C278.552 16.064 277.832 16.448 277 16.448ZM288.475 15.824C288.203 16.032 287.835 16.144 287.467 16.144C286.795 16.144 286.395 15.744 286.395 15.008V11.504H288.539V9.584H286.395V7.488H283.899V9.584H282.571V11.504H283.899V15.04C283.899 17.088 285.083 18.128 287.115 18.128C287.883 18.128 288.635 17.952 289.147 17.584L288.475 15.824ZM291.796 8.192C292.724 8.192 293.348 7.584 293.348 6.752C293.348 5.984 292.724 5.408 291.796 5.408C290.868 5.408 290.244 6.016 290.244 6.8C290.244 7.584 290.868 8.192 291.796 8.192ZM290.548 18H293.044V9.392H290.548V18ZM299.457 18.128C302.193 18.128 304.177 16.288 304.177 13.696C304.177 11.104 302.193 9.264 299.457 9.264C296.721 9.264 294.721 11.104 294.721 13.696C294.721 16.288 296.721 18.128 299.457 18.128ZM299.457 16.08C298.209 16.08 297.249 15.184 297.249 13.696C297.249 12.208 298.209 11.312 299.457 11.312C300.705 11.312 301.649 12.208 301.649 13.696C301.649 15.184 300.705 16.08 299.457 16.08ZM311.077 9.264C309.909 9.264 308.901 9.664 308.229 10.4V9.392H305.845V18H308.341V13.744C308.341 12.16 309.205 11.424 310.405 11.424C311.509 11.424 312.149 12.064 312.149 13.456V18H314.645V13.072C314.645 10.448 313.109 9.264 311.077 9.264Z" fill="#2B61D1"/>
<g filter="url(#filter3_bd_1_1048)">
<rect x="223.023" y="34" width="88.6841" height="46.7389" rx="23.3695" fill="white" fill-opacity="0.67" shape-rendering="crispEdges"/>
</g>
<path d="M246.65 62.5353L250.122 59.2581C252.235 57.2961 252.644 55.9593 252.644 54.4932C252.644 51.755 250.402 50.0301 247.038 50.0301C244.322 50.0301 242.209 51.1297 241.045 52.833L243.589 54.4716C244.322 53.4583 245.421 52.9624 246.715 52.9624C248.31 52.9624 249.13 53.6523 249.13 54.8382C249.13 55.5712 248.893 56.3474 247.556 57.6195L241.734 63.1175V65.3813H253.14V62.5353H246.65ZM256.775 65.5538C257.94 65.5538 258.867 64.6698 258.867 63.4409C258.867 62.1904 257.94 61.3711 256.775 61.3711C255.611 61.3711 254.684 62.1904 254.684 63.4409C254.684 64.6698 255.611 65.5538 256.775 65.5538ZM265.739 50.0301C262.548 50.0301 260.025 51.9706 260.025 55.0538C260.025 57.8998 262.31 59.754 265.221 59.754C266.795 59.754 268.089 59.2797 268.973 58.3957C268.865 61.3064 267.226 62.7941 264.725 62.7941C263.69 62.7941 262.72 62.6 261.901 62.0394L260.607 64.6052C261.664 65.2735 263.194 65.6401 264.79 65.6401C269.361 65.6401 272.487 62.7294 272.487 57.5117C272.487 52.639 269.921 50.0301 265.739 50.0301ZM265.997 57.1452C264.445 57.1452 263.432 56.2612 263.432 54.8813C263.432 53.5014 264.467 52.639 265.954 52.639C267.614 52.639 268.585 53.5876 268.585 54.8813C268.585 56.1965 267.528 57.1452 265.997 57.1452ZM277.656 58.4388C279.855 58.4388 281.386 56.8433 281.386 54.2776C281.386 51.7119 279.855 50.1164 277.656 50.1164C275.456 50.1164 273.904 51.7334 273.904 54.2776C273.904 56.8217 275.456 58.4388 277.656 58.4388ZM276.34 65.3813H278.906L289.212 50.2889H286.646L276.34 65.3813ZM277.656 56.6708C276.728 56.6708 276.082 55.8731 276.082 54.2776C276.082 52.6821 276.728 51.8843 277.656 51.8843C278.604 51.8843 279.23 52.6605 279.23 54.2776C279.23 55.8946 278.604 56.6708 277.656 56.6708ZM287.897 65.5538C290.096 65.5538 291.649 63.9368 291.649 61.3926C291.649 58.8485 290.096 57.2314 287.897 57.2314C285.719 57.2314 284.167 58.8485 284.167 61.3926C284.167 63.9368 285.719 65.5538 287.897 65.5538ZM287.897 63.7859C286.97 63.7859 286.323 63.0097 286.323 61.3926C286.323 59.7756 286.97 58.9994 287.897 58.9994C288.846 58.9994 289.471 59.7971 289.471 61.3926C289.471 62.9881 288.846 63.7859 287.897 63.7859Z" fill="#2B61D1"/>
<path d="M384.769 68.92V66.328H389.969V64.312H384.769V61.88H390.657V59.8H382.193V71H390.865V68.92H384.769ZM400.946 71L397.618 66.6L400.818 62.392H398.162L396.29 64.904L394.466 62.392H391.666L394.866 66.664L391.554 71H394.274L396.226 68.36L398.114 71H400.946ZM406.052 71.128C407.86 71.128 409.284 70.328 409.908 68.952L407.972 67.896C407.508 68.728 406.82 69.08 406.036 69.08C404.772 69.08 403.78 68.2 403.78 66.696C403.78 65.192 404.772 64.312 406.036 64.312C406.82 64.312 407.508 64.68 407.972 65.496L409.908 64.456C409.284 63.048 407.86 62.264 406.052 62.264C403.252 62.264 401.252 64.104 401.252 66.696C401.252 69.288 403.252 71.128 406.052 71.128ZM414.817 62.264C413.441 62.264 412.049 62.632 411.105 63.304L412.001 65.048C412.625 64.552 413.569 64.248 414.481 64.248C415.825 64.248 416.465 64.872 416.465 65.944H414.481C411.857 65.944 410.785 67 410.785 68.52C410.785 70.008 411.985 71.128 414.001 71.128C415.265 71.128 416.161 70.712 416.625 69.928V71H418.961V66.088C418.961 63.48 417.441 62.264 414.817 62.264ZM414.625 69.448C413.745 69.448 413.217 69.032 413.217 68.408C413.217 67.832 413.585 67.4 414.753 67.4H416.465V68.28C416.177 69.064 415.457 69.448 414.625 69.448ZM426.452 62.264C425.284 62.264 424.276 62.664 423.604 63.4V62.392H421.22V71H423.716V66.744C423.716 65.16 424.58 64.424 425.78 64.424C426.884 64.424 427.524 65.064 427.524 66.456V71H430.02V66.072C430.02 63.448 428.484 62.264 426.452 62.264ZM438.888 62.392V63.496C438.232 62.664 437.24 62.264 436.04 62.264C433.656 62.264 431.736 63.912 431.736 66.424C431.736 68.936 433.656 70.584 436.04 70.584C437.16 70.584 438.104 70.232 438.76 69.512V69.88C438.76 71.432 437.992 72.232 436.232 72.232C435.128 72.232 433.928 71.848 433.192 71.256L432.2 73.048C433.208 73.832 434.792 74.232 436.424 74.232C439.528 74.232 441.256 72.76 441.256 69.56V62.392H438.888ZM436.536 68.536C435.224 68.536 434.264 67.688 434.264 66.424C434.264 65.16 435.224 64.312 436.536 64.312C437.848 64.312 438.792 65.16 438.792 66.424C438.792 67.688 437.848 68.536 436.536 68.536ZM452.011 66.728C452.011 63.96 450.059 62.264 447.531 62.264C444.907 62.264 442.939 64.12 442.939 66.696C442.939 69.256 444.875 71.128 447.851 71.128C449.403 71.128 450.603 70.648 451.403 69.736L450.075 68.296C449.483 68.856 448.827 69.128 447.915 69.128C446.603 69.128 445.691 68.472 445.451 67.4H451.963C451.979 67.192 452.011 66.92 452.011 66.728ZM447.547 64.152C448.667 64.152 449.483 64.856 449.659 65.944H445.419C445.595 64.84 446.411 64.152 447.547 64.152ZM458.38 71H466.588V68.888H460.972V59.8H458.38V71ZM469.109 61.192C470.037 61.192 470.661 60.584 470.661 59.752C470.661 58.984 470.037 58.408 469.109 58.408C468.181 58.408 467.557 59.016 467.557 59.8C467.557 60.584 468.181 61.192 469.109 61.192ZM467.861 71H470.357V62.392H467.861V71ZM479.025 62.392V63.384C478.401 62.632 477.489 62.264 476.337 62.264C473.905 62.264 472.033 63.992 472.033 66.696C472.033 69.4 473.905 71.128 476.337 71.128C477.393 71.128 478.289 70.792 478.913 70.088V74.104H481.409V62.392H479.025ZM476.769 69.08C475.521 69.08 474.561 68.184 474.561 66.696C474.561 65.208 475.521 64.312 476.769 64.312C478.001 64.312 478.961 65.208 478.961 66.696C478.961 68.184 478.001 69.08 476.769 69.08ZM489.896 62.392V66.648C489.896 68.232 489.064 68.968 487.912 68.968C486.808 68.968 486.168 68.328 486.168 66.888V62.392H483.672V67.256C483.672 69.912 485.192 71.128 487.352 71.128C488.408 71.128 489.368 70.728 490.024 69.976V71H492.392V62.392H489.896ZM495.952 61.192C496.88 61.192 497.504 60.584 497.504 59.752C497.504 58.984 496.88 58.408 495.952 58.408C495.024 58.408 494.4 59.016 494.4 59.8C494.4 60.584 495.024 61.192 495.952 61.192ZM494.704 71H497.2V62.392H494.704V71ZM505.789 59.128V63.304C505.165 62.6 504.269 62.264 503.213 62.264C500.781 62.264 498.909 63.992 498.909 66.696C498.909 69.4 500.781 71.128 503.213 71.128C504.365 71.128 505.277 70.76 505.901 70.008V71H508.285V59.128H505.789ZM503.645 69.08C502.397 69.08 501.437 68.184 501.437 66.696C501.437 65.208 502.397 64.312 503.645 64.312C504.877 64.312 505.837 65.208 505.837 66.696C505.837 68.184 504.877 69.08 503.645 69.08ZM511.843 61.192C512.771 61.192 513.395 60.584 513.395 59.752C513.395 58.984 512.771 58.408 511.843 58.408C510.915 58.408 510.291 59.016 510.291 59.8C510.291 60.584 510.915 61.192 511.843 61.192ZM510.595 71H513.091V62.392H510.595V71ZM520.288 68.824C520.016 69.032 519.648 69.144 519.28 69.144C518.608 69.144 518.208 68.744 518.208 68.008V64.504H520.352V62.584H518.208V60.488H515.712V62.584H514.384V64.504H515.712V68.04C515.712 70.088 516.896 71.128 518.928 71.128C519.696 71.128 520.448 70.952 520.96 70.584L520.288 68.824ZM528.348 62.392L525.916 68.232L523.5 62.392H520.924L524.652 71.064L524.62 71.144C524.284 71.912 523.9 72.216 523.212 72.216C522.716 72.216 522.188 72.008 521.804 71.672L520.892 73.448C521.452 73.944 522.412 74.232 523.292 74.232C524.844 74.232 526.028 73.608 526.86 71.528L530.748 62.392H528.348Z" fill="#2B61D1"/>
<g filter="url(#filter4_bd_1_1048)">
<rect x="411.523" y="87" width="88.6841" height="46.7389" rx="23.3695" fill="white" fill-opacity="0.67" shape-rendering="crispEdges"/>
</g>
<path d="M432.674 103.289V106.092H435.692V118.381H439.185V103.289H432.674ZM443.791 118.554C444.955 118.554 445.882 117.67 445.882 116.441C445.882 115.19 444.955 114.371 443.791 114.371C442.626 114.371 441.699 115.19 441.699 116.441C441.699 117.67 442.626 118.554 443.791 118.554ZM446.833 103.289V108.593H449.937V106.135H454.94L449.528 118.381H453.322L458.928 105.553V103.289H446.833ZM464.102 111.439C466.302 111.439 467.832 109.843 467.832 107.278C467.832 104.712 466.302 103.116 464.102 103.116C461.903 103.116 460.351 104.733 460.351 107.278C460.351 109.822 461.903 111.439 464.102 111.439ZM462.787 118.381H465.353L475.659 103.289H473.093L462.787 118.381ZM464.102 109.671C463.175 109.671 462.528 108.873 462.528 107.278C462.528 105.682 463.175 104.884 464.102 104.884C465.051 104.884 465.676 105.661 465.676 107.278C465.676 108.895 465.051 109.671 464.102 109.671ZM474.344 118.554C476.543 118.554 478.095 116.937 478.095 114.393C478.095 111.848 476.543 110.231 474.344 110.231C472.166 110.231 470.614 111.848 470.614 114.393C470.614 116.937 472.166 118.554 474.344 118.554ZM474.344 116.786C473.417 116.786 472.77 116.01 472.77 114.393C472.77 112.776 473.417 111.999 474.344 111.999C475.292 111.999 475.918 112.797 475.918 114.393C475.918 115.988 475.292 116.786 474.344 116.786Z" fill="#2B61D1"/>
<path d="M521.193 195H529.401V192.888H523.785V183.8H521.193V195ZM531.921 185.192C532.849 185.192 533.473 184.584 533.473 183.752C533.473 182.984 532.849 182.408 531.921 182.408C530.993 182.408 530.369 183.016 530.369 183.8C530.369 184.584 530.993 185.192 531.921 185.192ZM530.673 195H533.169V186.392H530.673V195ZM541.838 186.392V187.384C541.214 186.632 540.302 186.264 539.15 186.264C536.718 186.264 534.846 187.992 534.846 190.696C534.846 193.4 536.718 195.128 539.15 195.128C540.206 195.128 541.102 194.792 541.726 194.088V198.104H544.222V186.392H541.838ZM539.582 193.08C538.334 193.08 537.374 192.184 537.374 190.696C537.374 189.208 538.334 188.312 539.582 188.312C540.814 188.312 541.774 189.208 541.774 190.696C541.774 192.184 540.814 193.08 539.582 193.08ZM552.709 186.392V190.648C552.709 192.232 551.877 192.968 550.725 192.968C549.621 192.968 548.981 192.328 548.981 190.888V186.392H546.485V191.256C546.485 193.912 548.005 195.128 550.165 195.128C551.221 195.128 552.181 194.728 552.837 193.976V195H555.205V186.392H552.709ZM558.765 185.192C559.693 185.192 560.317 184.584 560.317 183.752C560.317 182.984 559.693 182.408 558.765 182.408C557.837 182.408 557.213 183.016 557.213 183.8C557.213 184.584 557.837 185.192 558.765 185.192ZM557.517 195H560.013V186.392H557.517V195ZM568.601 183.128V187.304C567.977 186.6 567.081 186.264 566.025 186.264C563.593 186.264 561.721 187.992 561.721 190.696C561.721 193.4 563.593 195.128 566.025 195.128C567.177 195.128 568.089 194.76 568.713 194.008V195H571.097V183.128H568.601ZM566.457 193.08C565.209 193.08 564.249 192.184 564.249 190.696C564.249 189.208 565.209 188.312 566.457 188.312C567.689 188.312 568.649 189.208 568.649 190.696C568.649 192.184 567.689 193.08 566.457 193.08ZM574.656 185.192C575.584 185.192 576.208 184.584 576.208 183.752C576.208 182.984 575.584 182.408 574.656 182.408C573.728 182.408 573.104 183.016 573.104 183.8C573.104 184.584 573.728 185.192 574.656 185.192ZM573.408 195H575.904V186.392H573.408V195ZM583.1 192.824C582.828 193.032 582.46 193.144 582.092 193.144C581.42 193.144 581.02 192.744 581.02 192.008V188.504H583.164V186.584H581.02V184.488H578.524V186.584H577.196V188.504H578.524V192.04C578.524 194.088 579.708 195.128 581.74 195.128C582.508 195.128 583.26 194.952 583.772 194.584L583.1 192.824ZM591.161 186.392L588.729 192.232L586.313 186.392H583.737L587.465 195.064L587.433 195.144C587.097 195.912 586.713 196.216 586.025 196.216C585.529 196.216 585.001 196.008 584.617 195.672L583.705 197.448C584.265 197.944 585.225 198.232 586.105 198.232C587.657 198.232 588.841 197.608 589.673 195.528L593.561 186.392H591.161ZM611.911 195L611.879 183.8H609.751L605.623 190.76L601.431 183.8H599.287V195H601.719V188.424L604.999 193.816H606.167L609.463 188.28L609.479 195H611.911ZM615.64 185.192C616.568 185.192 617.192 184.584 617.192 183.752C617.192 182.984 616.568 182.408 615.64 182.408C614.712 182.408 614.088 183.016 614.088 183.8C614.088 184.584 614.712 185.192 615.64 185.192ZM614.392 195H616.888V186.392H614.392V195ZM624.436 186.264C623.268 186.264 622.26 186.664 621.588 187.4V186.392H619.204V195H621.7V190.744C621.7 189.16 622.564 188.424 623.764 188.424C624.868 188.424 625.508 189.064 625.508 190.456V195H628.004V190.072C628.004 187.448 626.468 186.264 624.436 186.264ZM631.515 185.192C632.443 185.192 633.067 184.584 633.067 183.752C633.067 182.984 632.443 182.408 631.515 182.408C630.587 182.408 629.963 183.016 629.963 183.8C629.963 184.584 630.587 185.192 631.515 185.192ZM630.267 195H632.763V186.392H630.267V195ZM640.311 186.264C639.143 186.264 638.135 186.664 637.463 187.4V186.392H635.079V195H637.575V190.744C637.575 189.16 638.439 188.424 639.639 188.424C640.743 188.424 641.383 189.064 641.383 190.456V195H643.879V190.072C643.879 187.448 642.343 186.264 640.311 186.264ZM652.748 186.392V187.496C652.092 186.664 651.1 186.264 649.9 186.264C647.516 186.264 645.596 187.912 645.596 190.424C645.596 192.936 647.516 194.584 649.9 194.584C651.02 194.584 651.964 194.232 652.62 193.512V193.88C652.62 195.432 651.852 196.232 650.092 196.232C648.988 196.232 647.788 195.848 647.052 195.256L646.06 197.048C647.068 197.832 648.652 198.232 650.284 198.232C653.388 198.232 655.116 196.76 655.116 193.56V186.392H652.748ZM650.396 192.536C649.084 192.536 648.124 191.688 648.124 190.424C648.124 189.16 649.084 188.312 650.396 188.312C651.708 188.312 652.652 189.16 652.652 190.424C652.652 191.688 651.708 192.536 650.396 192.536Z" fill="#2B61D1"/>
<g filter="url(#filter5_bd_1_1048)">
<rect x="544.023" y="211" width="88.6841" height="46.7389" rx="23.3695" fill="white" fill-opacity="0.67" shape-rendering="crispEdges"/>
</g>
<path d="M571.367 236.366H568.909V233.541H565.611V236.366H561.557L568.155 227.289H564.49L557.374 236.862V239.212H565.503V242.381H568.909V239.212H571.367V236.366ZM571.226 227.289V232.593H574.331V230.135H579.333L573.921 242.381H577.716L583.322 229.553V227.289H571.226ZM585.808 242.554C586.972 242.554 587.899 241.67 587.899 240.441C587.899 239.19 586.972 238.371 585.808 238.371C584.643 238.371 583.716 239.19 583.716 240.441C583.716 241.67 584.643 242.554 585.808 242.554ZM594.642 232.959H593.413L593.65 230.092H599.945V227.289H590.739L589.963 235.784H593.822C596.56 235.784 597.337 236.56 597.337 237.746C597.337 238.975 596.259 239.708 594.512 239.708C592.938 239.708 591.364 239.212 590.222 238.349L588.842 241.023C590.308 242.058 592.507 242.64 594.598 242.64C598.911 242.64 600.873 240.312 600.873 237.638C600.873 234.964 599.105 232.959 594.642 232.959ZM605.572 235.439C607.771 235.439 609.302 233.843 609.302 231.278C609.302 228.712 607.771 227.116 605.572 227.116C603.373 227.116 601.82 228.733 601.82 231.278C601.82 233.822 603.373 235.439 605.572 235.439ZM604.257 242.381H606.822L617.128 227.289H614.563L604.257 242.381ZM605.572 233.671C604.645 233.671 603.998 232.873 603.998 231.278C603.998 229.682 604.645 228.884 605.572 228.884C606.521 228.884 607.146 229.661 607.146 231.278C607.146 232.895 606.521 233.671 605.572 233.671ZM615.813 242.554C618.012 242.554 619.565 240.937 619.565 238.393C619.565 235.848 618.012 234.231 615.813 234.231C613.636 234.231 612.083 235.848 612.083 238.393C612.083 240.937 613.636 242.554 615.813 242.554ZM615.813 240.786C614.886 240.786 614.239 240.01 614.239 238.393C614.239 236.776 614.886 235.999 615.813 235.999C616.762 235.999 617.387 236.797 617.387 238.393C617.387 239.988 616.762 240.786 615.813 240.786Z" fill="#2B61D1"/>
<path d="M7.04099 237.8H2.19299V249H4.78499V245.912H7.04099C10.033 245.912 11.905 244.36 11.905 241.864C11.905 239.352 10.033 237.8 7.04099 237.8ZM6.89699 243.8H4.78499V239.912H6.89699C8.48099 239.912 9.28099 240.632 9.28099 241.864C9.28099 243.08 8.48099 243.8 6.89699 243.8ZM16.9734 240.264C15.5974 240.264 14.2054 240.632 13.2614 241.304L14.1574 243.048C14.7814 242.552 15.7254 242.248 16.6374 242.248C17.9814 242.248 18.6214 242.872 18.6214 243.944H16.6374C14.0134 243.944 12.9414 245 12.9414 246.52C12.9414 248.008 14.1414 249.128 16.1574 249.128C17.4214 249.128 18.3174 248.712 18.7814 247.928V249H21.1174V244.088C21.1174 241.48 19.5974 240.264 16.9734 240.264ZM16.7814 247.448C15.9014 247.448 15.3734 247.032 15.3734 246.408C15.3734 245.832 15.7414 245.4 16.9094 245.4H18.6214V246.28C18.3334 247.064 17.6134 247.448 16.7814 247.448ZM25.7604 241.528V240.392H23.3764V249H25.8724V244.936C25.8724 243.288 26.7844 242.536 28.1604 242.536C28.3524 242.536 28.5124 242.552 28.7204 242.568V240.264C27.3924 240.264 26.3684 240.696 25.7604 241.528ZM33.6296 240.264C32.2536 240.264 30.8616 240.632 29.9176 241.304L30.8136 243.048C31.4376 242.552 32.3816 242.248 33.2936 242.248C34.6376 242.248 35.2776 242.872 35.2776 243.944H33.2936C30.6696 243.944 29.5976 245 29.5976 246.52C29.5976 248.008 30.7976 249.128 32.8136 249.128C34.0776 249.128 34.9736 248.712 35.4376 247.928V249H37.7736V244.088C37.7736 241.48 36.2536 240.264 33.6296 240.264ZM33.4376 247.448C32.5576 247.448 32.0296 247.032 32.0296 246.408C32.0296 245.832 32.3976 245.4 33.5656 245.4H35.2776V246.28C34.9896 247.064 34.2696 247.448 33.4376 247.448ZM40.0326 249H42.5286V237.128H40.0326V249ZM44.8451 249H47.3411V237.128H44.8451V249ZM58.0896 244.728C58.0896 241.96 56.1376 240.264 53.6096 240.264C50.9856 240.264 49.0176 242.12 49.0176 244.696C49.0176 247.256 50.9536 249.128 53.9296 249.128C55.4816 249.128 56.6816 248.648 57.4816 247.736L56.1536 246.296C55.5616 246.856 54.9056 247.128 53.9936 247.128C52.6816 247.128 51.7696 246.472 51.5296 245.4H58.0416C58.0576 245.192 58.0896 244.92 58.0896 244.728ZM53.6256 242.152C54.7456 242.152 55.5616 242.856 55.7376 243.944H51.4976C51.6736 242.84 52.4896 242.152 53.6256 242.152ZM59.7514 249H62.2474V237.128H59.7514V249ZM79.1911 249L76.6791 245.4C78.1351 244.776 78.9831 243.544 78.9831 241.864C78.9831 239.352 77.1111 237.8 74.1191 237.8H69.2711V249H71.8631V245.88H74.1191H74.2471L76.4071 249H79.1911ZM76.3591 241.864C76.3591 243.08 75.5591 243.816 73.9751 243.816H71.8631V239.912H73.9751C75.5591 239.912 76.3591 240.632 76.3591 241.864ZM89.2927 244.728C89.2927 241.96 87.3407 240.264 84.8127 240.264C82.1887 240.264 80.2207 242.12 80.2207 244.696C80.2207 247.256 82.1567 249.128 85.1327 249.128C86.6847 249.128 87.8847 248.648 88.6847 247.736L87.3567 246.296C86.7647 246.856 86.1087 247.128 85.1967 247.128C83.8847 247.128 82.9727 246.472 82.7327 245.4H89.2447C89.2607 245.192 89.2927 244.92 89.2927 244.728ZM84.8287 242.152C85.9487 242.152 86.7647 242.856 86.9407 243.944H82.7007C82.8767 242.84 83.6927 242.152 84.8287 242.152ZM102.414 240.392L100.318 246.216L98.2702 240.392H96.1582L94.0462 246.216L92.0142 240.392H89.6622L92.7662 249H95.1662L97.1662 243.656L99.1022 249H101.502L104.622 240.392H102.414ZM108.973 240.264C107.597 240.264 106.205 240.632 105.261 241.304L106.157 243.048C106.781 242.552 107.725 242.248 108.637 242.248C109.981 242.248 110.621 242.872 110.621 243.944H108.637C106.013 243.944 104.941 245 104.941 246.52C104.941 248.008 106.141 249.128 108.157 249.128C109.421 249.128 110.317 248.712 110.781 247.928V249H113.117V244.088C113.117 241.48 111.597 240.264 108.973 240.264ZM108.781 247.448C107.901 247.448 107.373 247.032 107.373 246.408C107.373 245.832 107.741 245.4 108.909 245.4H110.621V246.28C110.333 247.064 109.613 247.448 108.781 247.448ZM117.76 241.528V240.392H115.376V249H117.872V244.936C117.872 243.288 118.784 242.536 120.16 242.536C120.352 242.536 120.512 242.552 120.72 242.568V240.264C119.392 240.264 118.368 240.696 117.76 241.528ZM128.398 237.128V241.304C127.774 240.6 126.878 240.264 125.822 240.264C123.39 240.264 121.518 241.992 121.518 244.696C121.518 247.4 123.39 249.128 125.822 249.128C126.974 249.128 127.886 248.76 128.51 248.008V249H130.894V237.128H128.398ZM126.254 247.08C125.006 247.08 124.046 246.184 124.046 244.696C124.046 243.208 125.006 242.312 126.254 242.312C127.486 242.312 128.446 243.208 128.446 244.696C128.446 246.184 127.486 247.08 126.254 247.08ZM136.1 249.128C138.676 249.128 140.164 247.992 140.164 246.392C140.164 243 134.964 244.424 134.964 242.952C134.964 242.504 135.444 242.152 136.564 242.152C137.348 242.152 138.196 242.312 139.044 242.792L139.876 241.016C139.06 240.536 137.748 240.264 136.564 240.264C134.052 240.264 132.58 241.416 132.58 243.048C132.58 246.488 137.78 245.048 137.78 246.456C137.78 246.936 137.348 247.24 136.196 247.24C135.14 247.24 133.972 246.904 133.204 246.408L132.372 248.2C133.172 248.728 134.644 249.128 136.1 249.128Z" fill="#2B61D1"/>
<g filter="url(#filter6_bd_1_1048)">
<rect x="26.523" y="265" width="88.6841" height="46.7389" rx="23.3695" fill="white" fill-opacity="0.67" shape-rendering="crispEdges"/>
</g>
<path d="M53.1838 290.366H50.7259V287.541H47.4271V290.366H43.3736L49.9712 281.289H46.3059L39.1909 290.862V293.212H47.3193V296.381H50.7259V293.212H53.1838V290.366ZM53.0428 281.289V286.593H56.1475V284.135H61.1496L55.7379 296.381H59.5326L65.1383 283.552V281.289H53.0428ZM67.6241 296.554C68.7883 296.554 69.7154 295.67 69.7154 294.441C69.7154 293.19 68.7883 292.371 67.6241 292.371C66.4598 292.371 65.5327 293.19 65.5327 294.441C65.5327 295.67 66.4598 296.554 67.6241 296.554ZM76.2803 293.535L79.7516 290.258C81.8646 288.296 82.2742 286.959 82.2742 285.493C82.2742 282.755 80.0319 281.03 76.6684 281.03C73.9518 281.03 71.8388 282.129 70.6746 283.833L73.2187 285.471C73.9518 284.458 75.0514 283.962 76.345 283.962C77.9405 283.962 78.7598 284.652 78.7598 285.838C78.7598 286.571 78.5227 287.347 77.1859 288.619L71.3645 294.117V296.381H82.7701V293.535H76.2803ZM87.9147 289.439C90.1139 289.439 91.6447 287.843 91.6447 285.277C91.6447 282.712 90.1139 281.116 87.9147 281.116C85.7155 281.116 84.1631 282.733 84.1631 285.277C84.1631 287.822 85.7155 289.439 87.9147 289.439ZM86.5995 296.381H89.1652L99.4712 281.289H96.9055L86.5995 296.381ZM87.9147 287.671C86.9876 287.671 86.3408 286.873 86.3408 285.277C86.3408 283.682 86.9876 282.884 87.9147 282.884C88.8634 282.884 89.4886 283.66 89.4886 285.277C89.4886 286.894 88.8634 287.671 87.9147 287.671ZM98.156 296.554C100.355 296.554 101.908 294.937 101.908 292.392C101.908 289.848 100.355 288.231 98.156 288.231C95.9784 288.231 94.426 289.848 94.426 292.392C94.426 294.937 95.9784 296.554 98.156 296.554ZM98.156 294.786C97.2289 294.786 96.5821 294.009 96.5821 292.392C96.5821 290.775 97.2289 289.999 98.156 289.999C99.1047 289.999 99.73 290.797 99.73 292.392C99.73 293.988 99.1047 294.786 98.156 294.786Z" fill="#2B61D1"/>
<path d="M68.7029 69.192C72.2229 69.192 74.8309 66.744 74.8309 63.4C74.8309 60.056 72.2229 57.608 68.7029 57.608C65.1669 57.608 62.5749 60.072 62.5749 63.4C62.5749 66.728 65.1669 69.192 68.7029 69.192ZM68.7029 66.984C66.7029 66.984 65.1989 65.528 65.1989 63.4C65.1989 61.272 66.7029 59.816 68.7029 59.816C70.7029 59.816 72.2069 61.272 72.2069 63.4C72.2069 65.528 70.7029 66.984 68.7029 66.984ZM81.6909 60.264C80.5389 60.264 79.6109 60.632 78.9869 61.384V60.392H76.6029V72.104H79.0989V68.088C79.7389 68.792 80.6189 69.128 81.6909 69.128C84.1069 69.128 85.9789 67.4 85.9789 64.696C85.9789 61.992 84.1069 60.264 81.6909 60.264ZM81.2589 67.08C80.0109 67.08 79.0669 66.184 79.0669 64.696C79.0669 63.208 80.0109 62.312 81.2589 62.312C82.5069 62.312 83.4509 63.208 83.4509 64.696C83.4509 66.184 82.5069 67.08 81.2589 67.08ZM96.0818 64.728C96.0818 61.96 94.1298 60.264 91.6018 60.264C88.9778 60.264 87.0098 62.12 87.0098 64.696C87.0098 67.256 88.9458 69.128 91.9218 69.128C93.4738 69.128 94.6738 68.648 95.4738 67.736L94.1458 66.296C93.5538 66.856 92.8978 67.128 91.9858 67.128C90.6738 67.128 89.7618 66.472 89.5218 65.4H96.0338C96.0498 65.192 96.0818 64.92 96.0818 64.728ZM91.6178 62.152C92.7378 62.152 93.5538 62.856 93.7298 63.944H89.4898C89.6658 62.84 90.4818 62.152 91.6178 62.152ZM100.128 61.528V60.392H97.7436V69H100.24V64.936C100.24 63.288 101.152 62.536 102.528 62.536C102.72 62.536 102.88 62.552 103.088 62.568V60.264C101.76 60.264 100.736 60.696 100.128 61.528ZM107.997 60.264C106.621 60.264 105.229 60.632 104.285 61.304L105.181 63.048C105.805 62.552 106.749 62.248 107.661 62.248C109.005 62.248 109.645 62.872 109.645 63.944H107.661C105.037 63.944 103.965 65 103.965 66.52C103.965 68.008 105.165 69.128 107.181 69.128C108.445 69.128 109.341 68.712 109.805 67.928V69H112.141V64.088C112.141 61.48 110.621 60.264 107.997 60.264ZM107.805 67.448C106.925 67.448 106.397 67.032 106.397 66.408C106.397 65.832 106.765 65.4 107.933 65.4H109.645V66.28C109.357 67.064 108.637 67.448 107.805 67.448ZM119.28 66.824C119.008 67.032 118.64 67.144 118.272 67.144C117.6 67.144 117.2 66.744 117.2 66.008V62.504H119.344V60.584H117.2V58.488H114.704V60.584H113.376V62.504H114.704V66.04C114.704 68.088 115.888 69.128 117.92 69.128C118.688 69.128 119.44 68.952 119.952 68.584L119.28 66.824ZM122.601 59.192C123.529 59.192 124.153 58.584 124.153 57.752C124.153 56.984 123.529 56.408 122.601 56.408C121.673 56.408 121.049 57.016 121.049 57.8C121.049 58.584 121.673 59.192 122.601 59.192ZM121.353 69H123.849V60.392H121.353V69ZM130.261 69.128C132.997 69.128 134.981 67.288 134.981 64.696C134.981 62.104 132.997 60.264 130.261 60.264C127.525 60.264 125.525 62.104 125.525 64.696C125.525 67.288 127.525 69.128 130.261 69.128ZM130.261 67.08C129.013 67.08 128.053 66.184 128.053 64.696C128.053 63.208 129.013 62.312 130.261 62.312C131.509 62.312 132.453 63.208 132.453 64.696C132.453 66.184 131.509 67.08 130.261 67.08ZM141.882 60.264C140.714 60.264 139.706 60.664 139.034 61.4V60.392H136.65V69H139.146V64.744C139.146 63.16 140.01 62.424 141.21 62.424C142.314 62.424 142.954 63.064 142.954 64.456V69H145.45V64.072C145.45 61.448 143.914 60.264 141.882 60.264ZM151.184 60.264C149.808 60.264 148.416 60.632 147.472 61.304L148.368 63.048C148.992 62.552 149.936 62.248 150.848 62.248C152.192 62.248 152.832 62.872 152.832 63.944H150.848C148.224 63.944 147.152 65 147.152 66.52C147.152 68.008 148.352 69.128 150.368 69.128C151.632 69.128 152.528 68.712 152.992 67.928V69H155.328V64.088C155.328 61.48 153.808 60.264 151.184 60.264ZM150.992 67.448C150.112 67.448 149.584 67.032 149.584 66.408C149.584 65.832 149.952 65.4 151.12 65.4H152.832V66.28C152.544 67.064 151.824 67.448 150.992 67.448ZM157.587 69H160.083V57.128H157.587V69ZM81.061 93H83.781L78.773 81.8H76.213L71.221 93H73.877L74.869 90.6H80.069L81.061 93ZM75.701 88.632L77.477 84.344L79.253 88.632H75.701ZM84.767 93H87.263V81.128H84.767V93ZM89.5795 93H92.0755V81.128H89.5795V93ZM98.488 93.128C101.224 93.128 103.208 91.288 103.208 88.696C103.208 86.104 101.224 84.264 98.488 84.264C95.752 84.264 93.752 86.104 93.752 88.696C93.752 91.288 95.752 93.128 98.488 93.128ZM98.488 91.08C97.24 91.08 96.28 90.184 96.28 88.696C96.28 87.208 97.24 86.312 98.488 86.312C99.736 86.312 100.68 87.208 100.68 88.696C100.68 90.184 99.736 91.08 98.488 91.08ZM109.036 93.128C110.844 93.128 112.268 92.328 112.892 90.952L110.956 89.896C110.492 90.728 109.804 91.08 109.02 91.08C107.756 91.08 106.764 90.2 106.764 88.696C106.764 87.192 107.756 86.312 109.02 86.312C109.804 86.312 110.492 86.68 110.956 87.496L112.892 86.456C112.268 85.048 110.844 84.264 109.036 84.264C106.236 84.264 104.236 86.104 104.236 88.696C104.236 91.288 106.236 93.128 109.036 93.128ZM117.801 84.264C116.425 84.264 115.033 84.632 114.089 85.304L114.985 87.048C115.609 86.552 116.553 86.248 117.465 86.248C118.809 86.248 119.449 86.872 119.449 87.944H117.465C114.841 87.944 113.769 89 113.769 90.52C113.769 92.008 114.969 93.128 116.985 93.128C118.249 93.128 119.145 92.712 119.609 91.928V93H121.945V88.088C121.945 85.48 120.425 84.264 117.801 84.264ZM117.609 91.448C116.729 91.448 116.201 91.032 116.201 90.408C116.201 89.832 116.569 89.4 117.737 89.4H119.449V90.28C119.161 91.064 118.441 91.448 117.609 91.448ZM129.084 90.824C128.812 91.032 128.444 91.144 128.076 91.144C127.404 91.144 127.004 90.744 127.004 90.008V86.504H129.148V84.584H127.004V82.488H124.508V84.584H123.18V86.504H124.508V90.04C124.508 92.088 125.692 93.128 127.724 93.128C128.492 93.128 129.244 92.952 129.756 92.584L129.084 90.824ZM132.406 83.192C133.334 83.192 133.958 82.584 133.958 81.752C133.958 80.984 133.334 80.408 132.406 80.408C131.478 80.408 130.854 81.016 130.854 81.8C130.854 82.584 131.478 83.192 132.406 83.192ZM131.158 93H133.654V84.392H131.158V93ZM140.066 93.128C142.802 93.128 144.786 91.288 144.786 88.696C144.786 86.104 142.802 84.264 140.066 84.264C137.33 84.264 135.33 86.104 135.33 88.696C135.33 91.288 137.33 93.128 140.066 93.128ZM140.066 91.08C138.818 91.08 137.858 90.184 137.858 88.696C137.858 87.208 138.818 86.312 140.066 86.312C141.314 86.312 142.258 87.208 142.258 88.696C142.258 90.184 141.314 91.08 140.066 91.08ZM151.686 84.264C150.518 84.264 149.51 84.664 148.838 85.4V84.392H146.454V93H148.95V88.744C148.95 87.16 149.814 86.424 151.014 86.424C152.118 86.424 152.758 87.064 152.758 88.456V93H155.254V88.072C155.254 85.448 153.718 84.264 151.686 84.264Z" fill="#2B61D1"/>
<g filter="url(#filter7_bd_1_1048)">
<rect x="69.523" y="109" width="88.6841" height="46.7389" rx="23.3695" fill="white" fill-opacity="0.67" shape-rendering="crispEdges"/>
</g>
<path d="M94.8628 140.64C98.5928 140.64 101.331 137.815 101.331 132.835C101.331 127.854 98.5928 125.03 94.8628 125.03C91.1544 125.03 88.3946 127.854 88.3946 132.835C88.3946 137.815 91.1544 140.64 94.8628 140.64ZM94.8628 137.686C93.138 137.686 91.9306 136.263 91.9306 132.835C91.9306 129.407 93.138 127.984 94.8628 127.984C96.6092 127.984 97.8166 129.407 97.8166 132.835C97.8166 136.263 96.6092 137.686 94.8628 137.686ZM104.738 140.554C105.902 140.554 106.829 139.67 106.829 138.441C106.829 137.19 105.902 136.371 104.738 136.371C103.574 136.371 102.647 137.19 102.647 138.441C102.647 139.67 103.574 140.554 104.738 140.554ZM107.78 125.289V130.593H110.885V128.135H115.887L110.475 140.381H114.27L119.876 127.552V125.289H107.78ZM125.05 133.439C127.249 133.439 128.78 131.843 128.78 129.277C128.78 126.712 127.249 125.116 125.05 125.116C122.85 125.116 121.298 126.733 121.298 129.277C121.298 131.822 122.85 133.439 125.05 133.439ZM123.734 140.381H126.3L136.606 125.289H134.04L123.734 140.381ZM125.05 131.671C124.123 131.671 123.476 130.873 123.476 129.277C123.476 127.682 124.123 126.884 125.05 126.884C125.998 126.884 126.624 127.66 126.624 129.277C126.624 130.894 125.998 131.671 125.05 131.671ZM135.291 140.554C137.49 140.554 139.043 138.937 139.043 136.392C139.043 133.848 137.49 132.231 135.291 132.231C133.113 132.231 131.561 133.848 131.561 136.392C131.561 138.937 133.113 140.554 135.291 140.554ZM135.291 138.786C134.364 138.786 133.717 138.009 133.717 136.392C133.717 134.775 134.364 133.999 135.291 133.999C136.24 133.999 136.865 134.797 136.865 136.392C136.865 137.988 136.24 138.786 135.291 138.786Z" fill="#2B61D1"/>
<path d="M118.865 288H151.365C153.365 288 157.365 289.2 157.365 294C157.365 298.8 157.365 301.333 157.365 302C157.365 303.833 158.265 307.5 161.865 307.5C165.465 307.5 182.698 307.5 186.865 307.5" stroke="#2B61D1" stroke-linecap="round"/>
<path d="M286.865 152L286.865 119.5C286.865 117.5 285.942 113.5 282.25 113.5C278.557 113.5 276.609 113.5 276.096 113.5C274.686 113.5 271.865 112.6 271.865 109C271.865 105.4 271.865 88.1667 271.865 84" stroke="#2B61D1" stroke-linecap="round"/>
<path d="M536.865 241H507.711C505.916 241 502.328 242.231 502.328 247.154C502.328 252.077 502.328 254.675 502.328 255.359C502.328 257.239 501.521 261 498.291 261C495.062 261 479.603 261 475.865 261" stroke="#2B61D1" stroke-linecap="round"/>
<defs>
<filter id="filter0_d_1_1048" x="178.342" y="137.583" width="331.417" height="331.417" filterUnits="userSpaceOnUse" color-interpolation-filters="sRGB">
<feFlood flood-opacity="0" result="BackgroundImageFix"/>
<feColorMatrix in="SourceAlpha" type="matrix" values="0 0 0 0 0 0 0 0 0 0 0 0 0 0 0 0 0 0 127 0" result="hardAlpha"/>
<feMorphology radius="1.79673" operator="dilate" in="SourceAlpha" result="effect1_dropShadow_1_1048"/>
<feOffset dx="13.4754" dy="13.4754"/>
<feGaussianBlur stdDeviation="11.2295"/>
<feComposite in2="hardAlpha" operator="out"/>
<feColorMatrix type="matrix" values="0 0 0 0 0.168627 0 0 0 0 0.380392 0 0 0 0 0.819608 0 0 0 0.1 0"/>
<feBlend mode="normal" in2="BackgroundImageFix" result="effect1_dropShadow_1_1048"/>
<feBlend mode="normal" in="SourceGraphic" in2="effect1_dropShadow_1_1048" result="shape"/>
</filter>
<filter id="filter1_d_1_1048" x="254.648" y="152.094" width="52.9472" height="74.3942" filterUnits="userSpaceOnUse" color-interpolation-filters="sRGB">
<feFlood flood-opacity="0" result="BackgroundImageFix"/>
<feColorMatrix in="SourceAlpha" type="matrix" values="0 0 0 0 0 0 0 0 0 0 0 0 0 0 0 0 0 0 127 0" result="hardAlpha"/>
<feMorphology radius="1.79765" operator="dilate" in="SourceAlpha" result="effect1_dropShadow_1_1048"/>
<feOffset dx="-11.9843" dy="11.9843"/>
<feGaussianBlur stdDeviation="6.59138"/>
<feComposite in2="hardAlpha" operator="out"/>
<feColorMatrix type="matrix" values="0 0 0 0 0.168627 0 0 0 0 0.380392 0 0 0 0 0.819608 0 0 0 0.1 0"/>
<feBlend mode="normal" in2="BackgroundImageFix" result="effect1_dropShadow_1_1048"/>
<feBlend mode="normal" in="SourceGraphic" in2="effect1_dropShadow_1_1048" result="shape"/>
</filter>
<filter id="filter2_d_1_1048" x="304.464" y="147.232" width="170.523" height="297.548" filterUnits="userSpaceOnUse" color-interpolation-filters="sRGB">
<feFlood flood-opacity="0" result="BackgroundImageFix"/>
<feColorMatrix in="SourceAlpha" type="matrix" values="0 0 0 0 0 0 0 0 0 0 0 0 0 0 0 0 0 0 127 0" result="hardAlpha"/>
<feMorphology radius="1.79765" operator="dilate" in="SourceAlpha" result="effect1_dropShadow_1_1048"/>
<feOffset dx="-11.9843" dy="11.9843"/>
<feGaussianBlur stdDeviation="6.59138"/>
<feComposite in2="hardAlpha" operator="out"/>
<feColorMatrix type="matrix" values="0 0 0 0 0.168627 0 0 0 0 0.380392 0 0 0 0 0.819608 0 0 0 0.1 0"/>
<feBlend mode="normal" in2="BackgroundImageFix" result="effect1_dropShadow_1_1048"/>
<feBlend mode="normal" in="SourceGraphic" in2="effect1_dropShadow_1_1048" result="shape"/>
</filter>
<filter id="filter3_bd_1_1048" x="175.086" y="-13.9373" width="184.559" height="142.614" filterUnits="userSpaceOnUse" color-interpolation-filters="sRGB">
<feFlood flood-opacity="0" result="BackgroundImageFix"/>
<feGaussianBlur in="BackgroundImageFix" stdDeviation="23.9687"/>
<feComposite in2="SourceAlpha" operator="in" result="effect1_backgroundBlur_1_1048"/>
<feColorMatrix in="SourceAlpha" type="matrix" values="0 0 0 0 0 0 0 0 0 0 0 0 0 0 0 0 0 0 127 0" result="hardAlpha"/>
<feMorphology radius="1.79673" operator="dilate" in="SourceAlpha" result="effect2_dropShadow_1_1048"/>
<feOffset dx="13.4754" dy="13.4754"/>
<feGaussianBlur stdDeviation="11.2295"/>
<feComposite in2="hardAlpha" operator="out"/>
<feColorMatrix type="matrix" values="0 0 0 0 0.168627 0 0 0 0 0.380392 0 0 0 0 0.819608 0 0 0 0.1 0"/>
<feBlend mode="normal" in2="effect1_backgroundBlur_1_1048" result="effect2_dropShadow_1_1048"/>
<feBlend mode="normal" in="SourceGraphic" in2="effect2_dropShadow_1_1048" result="shape"/>
</filter>
<filter id="filter4_bd_1_1048" x="363.586" y="39.0627" width="184.559" height="142.614" filterUnits="userSpaceOnUse" color-interpolation-filters="sRGB">
<feFlood flood-opacity="0" result="BackgroundImageFix"/>
<feGaussianBlur in="BackgroundImageFix" stdDeviation="23.9687"/>
<feComposite in2="SourceAlpha" operator="in" result="effect1_backgroundBlur_1_1048"/>
<feColorMatrix in="SourceAlpha" type="matrix" values="0 0 0 0 0 0 0 0 0 0 0 0 0 0 0 0 0 0 127 0" result="hardAlpha"/>
<feMorphology radius="1.79673" operator="dilate" in="SourceAlpha" result="effect2_dropShadow_1_1048"/>
<feOffset dx="13.4754" dy="13.4754"/>
<feGaussianBlur stdDeviation="11.2295"/>
<feComposite in2="hardAlpha" operator="out"/>
<feColorMatrix type="matrix" values="0 0 0 0 0.168627 0 0 0 0 0.380392 0 0 0 0 0.819608 0 0 0 0.1 0"/>
<feBlend mode="normal" in2="effect1_backgroundBlur_1_1048" result="effect2_dropShadow_1_1048"/>
<feBlend mode="normal" in="SourceGraphic" in2="effect2_dropShadow_1_1048" result="shape"/>
</filter>
<filter id="filter5_bd_1_1048" x="496.086" y="163.063" width="184.559" height="142.614" filterUnits="userSpaceOnUse" color-interpolation-filters="sRGB">
<feFlood flood-opacity="0" result="BackgroundImageFix"/>
<feGaussianBlur in="BackgroundImageFix" stdDeviation="23.9687"/>
<feComposite in2="SourceAlpha" operator="in" result="effect1_backgroundBlur_1_1048"/>
<feColorMatrix in="SourceAlpha" type="matrix" values="0 0 0 0 0 0 0 0 0 0 0 0 0 0 0 0 0 0 127 0" result="hardAlpha"/>
<feMorphology radius="1.79673" operator="dilate" in="SourceAlpha" result="effect2_dropShadow_1_1048"/>
<feOffset dx="13.4754" dy="13.4754"/>
<feGaussianBlur stdDeviation="11.2295"/>
<feComposite in2="hardAlpha" operator="out"/>
<feColorMatrix type="matrix" values="0 0 0 0 0.168627 0 0 0 0 0.380392 0 0 0 0 0.819608 0 0 0 0.1 0"/>
<feBlend mode="normal" in2="effect1_backgroundBlur_1_1048" result="effect2_dropShadow_1_1048"/>
<feBlend mode="normal" in="SourceGraphic" in2="effect2_dropShadow_1_1048" result="shape"/>
</filter>
<filter id="filter6_bd_1_1048" x="-21.4144" y="217.063" width="184.559" height="142.614" filterUnits="userSpaceOnUse" color-interpolation-filters="sRGB">
<feFlood flood-opacity="0" result="BackgroundImageFix"/>
<feGaussianBlur in="BackgroundImageFix" stdDeviation="23.9687"/>
<feComposite in2="SourceAlpha" operator="in" result="effect1_backgroundBlur_1_1048"/>
<feColorMatrix in="SourceAlpha" type="matrix" values="0 0 0 0 0 0 0 0 0 0 0 0 0 0 0 0 0 0 127 0" result="hardAlpha"/>
<feMorphology radius="1.79673" operator="dilate" in="SourceAlpha" result="effect2_dropShadow_1_1048"/>
<feOffset dx="13.4754" dy="13.4754"/>
<feGaussianBlur stdDeviation="11.2295"/>
<feComposite in2="hardAlpha" operator="out"/>
<feColorMatrix type="matrix" values="0 0 0 0 0.168627 0 0 0 0 0.380392 0 0 0 0 0.819608 0 0 0 0.1 0"/>
<feBlend mode="normal" in2="effect1_backgroundBlur_1_1048" result="effect2_dropShadow_1_1048"/>
<feBlend mode="normal" in="SourceGraphic" in2="effect2_dropShadow_1_1048" result="shape"/>
</filter>
<filter id="filter7_bd_1_1048" x="21.5856" y="61.0627" width="184.559" height="142.614" filterUnits="userSpaceOnUse" color-interpolation-filters="sRGB">
<feFlood flood-opacity="0" result="BackgroundImageFix"/>
<feGaussianBlur in="BackgroundImageFix" stdDeviation="23.9687"/>
<feComposite in2="SourceAlpha" operator="in" result="effect1_backgroundBlur_1_1048"/>
<feColorMatrix in="SourceAlpha" type="matrix" values="0 0 0 0 0 0 0 0 0 0 0 0 0 0 0 0 0 0 127 0" result="hardAlpha"/>
<feMorphology radius="1.79673" operator="dilate" in="SourceAlpha" result="effect2_dropShadow_1_1048"/>
<feOffset dx="13.4754" dy="13.4754"/>
<feGaussianBlur stdDeviation="11.2295"/>
<feComposite in2="hardAlpha" operator="out"/>
<feColorMatrix type="matrix" values="0 0 0 0 0.168627 0 0 0 0 0.380392 0 0 0 0 0.819608 0 0 0 0.1 0"/>
<feBlend mode="normal" in2="effect1_backgroundBlur_1_1048" result="effect2_dropShadow_1_1048"/>
<feBlend mode="normal" in="SourceGraphic" in2="effect2_dropShadow_1_1048" result="shape"/>
</filter>
</defs>
</svg>
