<svg version="1.2" xmlns="http://www.w3.org/2000/svg" viewBox="0 0 508 414" width="508" height="414">
	<title>circleGraph-svg</title>
	<style>
		.s0 { fill: #ffffff } 
		.s1 { fill: #2b61d1 } 
		.s2 { fill: #127e2b } 
		.s3 { fill: #16bb3b } 
		.s4 { fill: #0be23b } 
		.s5 { opacity: .7;fill: #ffffff } 
	</style>
	<g id="Layer">
		<path id="Layer" class="s0" d="m387.1 210.7c2.3 78.1-59.1 143.2-137.2 145.5-78.2 2.3-143.2-59.1-145.5-137.2-2.3-78.2 59-143.2 137.1-145.5 78.2-2.3 143.3 59 145.6 137.2z"/>
	</g>
	<path id="Layer" class="s1" d="m359.6 245c12.6 3.4 20.3 16.4 14.9 28.2-5.2 11.4-11.8 22.1-19.8 31.8-13.1 15.7-29.4 28.5-47.8 37.3-18.4 8.9-38.6 13.6-59 13.9-20.4 0.3-40.7-3.8-59.4-12.1-18.7-8.2-35.4-20.4-48.9-35.8-13.5-15.3-23.5-33.4-29.4-53-5.8-19.6-7.4-40.2-4.5-60.4 1.8-12.5 5.2-24.6 10.1-36.1 5.2-11.9 20-15 30.9-7.9 10.9 7 13.7 21.6 9.6 33.9-1.8 5.4-3.2 11-4 16.7-1.9 13.5-0.9 27.3 3 40.3 3.9 13.1 10.6 25.2 19.6 35.4 9 10.2 20.2 18.4 32.6 23.9 12.5 5.5 26 8.3 39.7 8 13.6-0.2 27-3.3 39.3-9.2 12.3-5.9 23.2-14.4 31.9-24.9 3.7-4.5 6.9-9.2 9.7-14.2 6.3-11.4 19-19.1 31.5-15.8z"/>
	<path id="Layer" class="s2" d="m131.8 184.5c-12.6-3.3-20.2-16.4-14.8-28.2 5.9-13.1 13.8-25.2 23.5-35.9 9.6-10.8 20.8-19.9 33.1-27.3 11.2-6.6 25-0.4 29.7 11.7 4.7 12.2-1.6 25.6-12.2 33.1-5.7 4-10.9 8.7-15.6 13.9-4.7 5.2-8.7 10.9-12.1 17-6.4 11.3-19 19-31.6 15.7z"/>
	<path id="Layer" class="s3" d="m164.6 129.2c-8.9-9.4-8.6-24.5 2.2-31.7 15.6-10.5 33.2-17.8 51.8-21.5 18.6-3.6 37.6-3.5 56 0.4 12.8 2.7 18.7 16.5 14 28.6-4.7 12.1-18.4 17.8-31.3 16.2-9.9-1.2-19.9-0.9-29.7 1-9.8 1.9-19.2 5.4-27.9 10.2-11.3 6.4-26.1 6.3-35.1-3.2z"/>
	<path id="Layer" class="s4" d="m245.7 96.9c0-13 10.6-23.7 23.4-21.5 17.9 2.9 35 9.3 50.5 18.8 22.2 13.7 40.3 33.2 52.1 56.4 11.9 23.3 17 49.3 15 75.3-1.4 18.2-6.4 35.8-14.4 51.9-5.8 11.7-20.7 13.9-31.2 6.3-10.6-7.6-12.6-22.3-7.7-34.4 3.4-8.7 5.6-18 6.4-27.5 1.3-17.3-2.1-34.7-10-50.2-7.9-15.5-20-28.5-34.8-37.6-8.1-5-16.9-8.7-26-11-12.6-3.2-23.3-13.5-23.3-26.5z"/>
	<g id="Layer">
	</g>
	<path id="Layer" class="s5" d="m12 297.8c0-12.9 10.5-23.3 23.4-23.3h41.9c12.9 0 23.4 10.4 23.4 23.3 0 12.9-10.5 23.4-23.4 23.4h-41.9c-12.9 0-23.4-10.5-23.4-23.4z"/>
	<path id="Layer" fill-rule="evenodd" class="s1" d="m44.8 294.1c0 2.7-1.9 5-6.3 5-2 0-4.2-0.6-5.7-1.6l1.4-2.7c1.1 0.9 2.7 1.4 4.3 1.4 1.7 0 2.8-0.8 2.8-2 0-1.2-0.8-2-3.5-2h-3.9l0.8-8.5h9.2v2.8h-6.3l-0.2 2.9h1.2c4.4 0 6.2 2 6.2 4.7zm1.4-2.8c0-5 2.8-7.8 6.5-7.8 3.7 0 6.5 2.8 6.5 7.8 0 5-2.8 7.8-6.5 7.8-3.7 0-6.5-2.8-6.5-7.8zm9.5 0c0-3.4-1.3-4.9-3-4.9-1.7 0-2.9 1.5-2.9 4.9 0 3.4 1.2 4.8 2.9 4.8 1.7 0 3-1.4 3-4.8zm4.9-3.6c0-2.5 1.6-4.1 3.8-4.1 2.2 0 3.7 1.6 3.7 4.1 0 2.6-1.5 4.2-3.7 4.2-2.2 0-3.8-1.6-3.8-4.2zm12.8-4h2.5l-10.3 15.1h-2.6zm-7.4 4c0-1.6-0.6-2.4-1.5-2.4-1 0-1.6 0.8-1.6 2.4 0 1.6 0.6 2.4 1.6 2.4 0.9 0 1.5-0.8 1.5-2.4zm5 7.1c0-2.5 1.5-4.1 3.7-4.1 2.2 0 3.7 1.6 3.7 4.1 0 2.6-1.5 4.2-3.7 4.2-2.2 0-3.7-1.6-3.7-4.2zm5.3 0c0-1.6-0.7-2.4-1.6-2.4-0.9 0-1.6 0.8-1.6 2.4 0 1.7 0.7 2.4 1.6 2.4 0.9 0 1.6-0.8 1.6-2.4z"/>
	<g id="Layer">
	</g>
	<path id="Layer" class="s5" d="m372.2 123.1c0-13 10.5-23.4 23.4-23.4h60.1c12.9 0 23.4 10.4 23.4 23.4v9.5c0 12.9-10.5 23.4-23.4 23.4h-60.1c-12.9 0-23.4-10.5-23.4-23.4z"/>
	<path id="Layer" fill-rule="evenodd" class="s1" d="m414.9 121.5c0 2.5-2 4.8-6.3 4.8-2.1 0-4.3-0.6-5.7-1.6l1.3-2.7c1.2 0.9 2.8 1.4 4.3 1.4 1.8 0 2.9-0.7 2.9-1.9 0-1.2-0.9-1.9-2.9-1.9h-1.6v-2.3l3.1-3.5h-6.4v-2.8h10.6v2.2l-3.4 3.9c2.7 0.4 4.1 2.1 4.1 4.4zm1.6-3c0-5 2.7-7.8 6.5-7.8 3.7 0 6.4 2.8 6.4 7.8 0 5-2.7 7.8-6.4 7.8-3.8 0-6.5-2.8-6.5-7.8zm9.4 0c0-3.4-1.2-4.8-2.9-4.8-1.8 0-3 1.4-3 4.8 0 3.4 1.2 4.9 3 4.9 1.7 0 2.9-1.5 2.9-4.9zm5-3.5c0-2.6 1.5-4.2 3.7-4.2 2.2 0 3.7 1.6 3.7 4.2 0 2.5-1.5 4.1-3.7 4.1-2.2 0-3.7-1.6-3.7-4.1zm12.7-4h2.6l-10.3 15.1h-2.6zm-7.4 4c0-1.7-0.6-2.4-1.6-2.4-0.9 0-1.6 0.8-1.6 2.4 0 1.6 0.7 2.3 1.6 2.3 1 0 1.6-0.7 1.6-2.3zm4.9 7.1c0-2.6 1.6-4.2 3.7-4.2 2.2 0 3.8 1.6 3.8 4.2 0 2.5-1.6 4.1-3.8 4.1-2.1 0-3.7-1.6-3.7-4.1zm5.3 0c0-1.6-0.6-2.4-1.6-2.4-0.9 0-1.5 0.8-1.5 2.4 0 1.6 0.6 2.4 1.5 2.4 1 0 1.6-0.8 1.6-2.4z"/>
	<g id="Layer">
	</g>
	<path id="Layer" fill-rule="evenodd" class="s1" d="m389.5 145.6l1-2.2c1.1 0.8 2.6 1.3 4.2 1.3 1.7 0 2.4-0.6 2.4-1.3 0-2.4-7.3-0.8-7.3-5.5 0-2.1 1.7-3.9 5.3-3.9 1.5 0 3.2 0.4 4.3 1.1l-0.9 2.2c-1.1-0.6-2.3-0.9-3.5-0.9-1.7 0-2.3 0.6-2.3 1.4 0 2.3 7.3 0.7 7.3 5.3 0 2.1-1.8 3.9-5.4 3.9-2 0-4-0.5-5.1-1.4zm18.5 0.8c-0.6 0.4-1.4 0.6-2.3 0.6-2.3 0-3.6-1.2-3.6-3.5v-4h-1.5v-2.1h1.5v-2.4h2.8v2.4h2.4v2.1h-2.4v4c0 0.8 0.5 1.2 1.2 1.2 0.4 0 0.9-0.1 1.2-0.3zm7.6-9.4v2.6c-0.3 0-0.5 0-0.7 0-1.5 0-2.6 0.8-2.6 2.7v4.6h-2.8v-9.7h2.7v1.2c0.7-0.9 1.9-1.4 3.4-1.4zm10.1 4.3v5.6h-2.6v-1.3c-0.5 0.9-1.5 1.4-2.9 1.4-2.3 0-3.7-1.3-3.7-2.9 0-1.7 1.2-2.9 4.2-2.9h2.2c0-1.2-0.7-1.9-2.2-1.9-1 0-2.1 0.3-2.8 0.9l-1-2c1.1-0.8 2.6-1.2 4.2-1.2 2.9 0 4.6 1.4 4.6 4.3zm-2.8 2.5v-1h-1.9c-1.3 0-1.7 0.5-1.7 1.1 0 0.7 0.6 1.2 1.6 1.2 0.9 0 1.7-0.4 2-1.3zm11.6 2.6c-0.6 0.4-1.4 0.6-2.3 0.6-2.2 0-3.6-1.2-3.6-3.5v-4h-1.5v-2.1h1.5v-2.4h2.8v2.4h2.4v2.1h-2.4v4c0 0.8 0.5 1.3 1.2 1.3 0.4 0 0.9-0.2 1.2-0.4zm11.3-9.2v9.7h-2.7v-1.2c-0.7 0.9-1.8 1.3-3 1.3-2.4 0-4.1-1.4-4.1-4.3v-5.5h2.8v5c0 1.7 0.7 2.4 2 2.4 1.3 0 2.2-0.8 2.2-2.6v-4.8zm1.7 8.8l0.9-2c0.9 0.5 2.2 0.9 3.4 0.9 1.3 0 1.7-0.3 1.7-0.9 0-1.6-5.8 0-5.8-3.8 0-1.9 1.6-3.2 4.5-3.2 1.3 0 2.8 0.4 3.7 0.9l-0.9 2c-1-0.6-1.9-0.7-2.8-0.7-1.3 0-1.8 0.4-1.8 0.9 0 1.6 5.8 0 5.8 3.8 0 1.8-1.6 3.1-4.5 3.1-1.7 0-3.3-0.4-4.2-1z"/>
	<path id="POW" class="s1" aria-label="POW"  d="m33.7 301.6h-6.7v15.4h3.6v-4.2h3.1c4.1 0 6.6-2.2 6.6-5.6 0-3.5-2.5-5.6-6.6-5.6zm-0.2 8.2h-2.9v-5.3h2.9c2.1 0 3.2 1 3.2 2.7 0 1.7-1.1 2.6-3.2 2.6zm17.1 7.5c4.8 0 8.4-3.4 8.4-8 0-4.6-3.6-8-8.4-8-4.9 0-8.5 3.4-8.5 8 0 4.6 3.6 8 8.5 8zm0-3.1c-2.8 0-4.9-2-4.9-4.9 0-2.9 2.1-4.9 4.9-4.9 2.7 0 4.8 2 4.8 4.9 0 2.9-2.1 4.9-4.8 4.9zm30.4-12.6l-3.6 10.9-3.5-10.9h-3.3l-3.6 10.8-3.5-10.8h-3.7l5.1 15.4h3.8l3.5-10.4 3.4 10.4h3.8l5-15.4z"/>
	<path id="Layer" class="s5" d="m152 34.4c0-12.9 10.5-23.4 23.4-23.4h59.5c12.9 0 23.4 10.5 23.4 23.4v9.2c0 12.9-10.5 23.4-23.4 23.4h-59.5c-12.9 0-23.4-10.5-23.4-23.4z"/>
	<path id="Layer" fill-rule="evenodd" class="s1" d="m184.2 22.3v15.1h-3.4v-12.3h-3.1v-2.8zm13.9 12.2v2.9h-11.4v-2.3l5.8-5.5c1.4-1.3 1.6-2 1.6-2.8 0-1.1-0.8-1.8-2.4-1.8-1.3 0-2.4 0.5-3.1 1.5l-2.6-1.7c1.2-1.7 3.3-2.8 6-2.8 3.4 0 5.6 1.8 5.6 4.5 0 1.5-0.4 2.8-2.5 4.8l-3.5 3.2zm1.6 0.9c0-1.2 0.9-2 2.1-2 1.1 0 2.1 0.8 2.1 2 0 1.3-1 2.2-2.1 2.2-1.2 0-2.1-0.9-2.1-2.2zm17.1-2.8c0 2.7-1.9 5-6.2 5-2.1 0-4.3-0.5-5.8-1.6l1.4-2.7c1.1 0.9 2.7 1.4 4.3 1.4 1.7 0 2.8-0.7 2.8-2 0-1.1-0.8-1.9-3.5-1.9h-3.9l0.8-8.5h9.2v2.8h-6.3l-0.2 2.9h1.2c4.5 0 6.2 2 6.2 4.6zm1-6.3c0-2.6 1.5-4.2 3.7-4.2 2.2 0 3.8 1.6 3.8 4.2 0 2.5-1.6 4.1-3.8 4.1-2.2 0-3.7-1.6-3.7-4.1zm12.7-4h2.6l-10.3 15.1h-2.6zm-7.4 4c0-1.6-0.6-2.4-1.6-2.4-0.9 0-1.5 0.8-1.5 2.4 0 1.6 0.6 2.4 1.5 2.4 1 0 1.6-0.8 1.6-2.4zm4.9 7.1c0-2.6 1.6-4.2 3.8-4.2 2.2 0 3.7 1.6 3.7 4.2 0 2.5-1.5 4.1-3.7 4.1-2.2 0-3.8-1.6-3.8-4.1zm5.4 0c0-1.6-0.7-2.4-1.6-2.4-0.9 0-1.6 0.8-1.6 2.4 0 1.6 0.7 2.4 1.6 2.4 0.9 0 1.6-0.8 1.6-2.4z"/>
	<g id="Layer">
	</g>
	<path id="Layer" class="s5" d="m29.7 99.1c0-12.9 10.5-23.4 23.4-23.4h52.4c13 0 23.4 10.5 23.4 23.4v5.5c0 12.9-10.4 23.4-23.4 23.4h-52.4c-12.9 0-23.4-10.5-23.4-23.4z"/>
	<path id="Layer" fill-rule="evenodd" class="s1" d="m181 45.2v12.6h-2.3l-6.3-7.6v7.6h-2.9v-12.6h2.4l6.3 7.7v-7.7zm2.4 0c0-0.8 0.7-1.5 1.8-1.5 1 0 1.7 0.6 1.7 1.5 0 0.9-0.7 1.6-1.7 1.6-1.1 0-1.8-0.7-1.8-1.6zm0.4 2.9h2.8v9.7h-2.8zm21.7 4.2v5.5h-2.8v-5.1c0-1.6-0.7-2.3-1.8-2.3-1.3 0-2.2 0.8-2.2 2.6v4.8h-2.8v-5.1c0-1.6-0.6-2.3-1.8-2.3-1.2 0-2.1 0.8-2.1 2.6v4.8h-2.8v-9.7h2.6v1.1c0.8-0.8 1.8-1.2 3.1-1.2 1.3 0 2.5 0.5 3.2 1.6 0.8-1 2-1.6 3.5-1.6 2.3 0 3.9 1.3 3.9 4.3zm13.1 0.7c0 3-2.1 5-4.8 5-1.3 0-2.4-0.5-3.1-1.3v1.1h-2.7v-13.3h2.9v4.7c0.7-0.8 1.7-1.2 2.9-1.2 2.7 0 4.8 1.9 4.8 5zm-2.8 0c0-1.7-1.1-2.7-2.5-2.7-1.4 0-2.5 1-2.5 2.7 0 1.6 1.1 2.7 2.5 2.7 1.4 0 2.5-1.1 2.5-2.7zm14.4-4.9v9.7h-2.6v-1.1c-0.8 0.8-1.9 1.3-3 1.3-2.5 0-4.2-1.4-4.2-4.4v-5.5h2.8v5.1c0 1.6 0.7 2.3 2 2.3 1.3 0 2.2-0.8 2.2-2.6v-4.8zm1.7 8.8l0.9-2c0.9 0.6 2.2 0.9 3.4 0.9 1.3 0 1.8-0.3 1.8-0.8 0-1.6-5.9 0-5.9-3.9 0-1.8 1.7-3.1 4.5-3.1 1.3 0 2.8 0.3 3.7 0.8l-0.9 2c-1-0.5-1.9-0.7-2.8-0.7-1.3 0-1.8 0.4-1.8 0.9 0 1.7 5.9 0.1 5.9 3.9 0 1.8-1.7 3.1-4.6 3.1-1.7 0-3.3-0.5-4.2-1.1z"/>
	<path id="Layer" class="s1" d="m46.5 119c2.2 0 4-0.7 5.2-2.2l-1.8-1.7q-1.3 1.5-3.2 1.5c-2.4 0-4-1.7-4-4.1 0-2.3 1.6-4 4-4q1.9 0 3.2 1.5l1.8-1.8c-1.2-1.4-3-2.2-5.2-2.2-3.9 0-6.8 2.7-6.8 6.5 0 3.8 2.9 6.5 6.8 6.5zm13.7-9.9v4.8c0 1.8-0.9 2.6-2.2 2.6-1.3 0-2-0.7-2-2.3v-5.1h-2.8v5.5c0 3 1.7 4.4 4.1 4.4 1.2 0 2.3-0.5 3-1.3v1.1h2.7v-9.7zm17.8-0.1c-1.4 0-2.7 0.6-3.5 1.6-0.7-1.1-1.8-1.6-3.2-1.6-1.2 0-2.3 0.4-3 1.3v-1.2h-2.7v9.7h2.8v-4.8c0-1.8 0.9-2.6 2.1-2.6 1.2 0 1.9 0.8 1.9 2.3v5.1h2.8v-4.8c0-1.8 0.9-2.6 2.1-2.6 1.2 0 1.9 0.8 1.9 2.3v5.1h2.8v-5.5c0-3-1.7-4.3-4-4.3zm13.5 0.1v4.8c0 1.8-1 2.6-2.3 2.6-1.2 0-2-0.7-2-2.3v-5.1h-2.8v5.5c0 3 1.8 4.4 4.2 4.4 1.2 0 2.2-0.5 3-1.3v1.1h2.6v-9.7zm5.4 9.7h2.9v-13.3h-2.9zm12.4-9.7v4.8c0 1.8-0.9 2.6-2.2 2.6-1.3 0-2-0.7-2-2.3v-5.1h-2.8v5.5c0 3 1.7 4.3 4.1 4.3 1.2 0 2.3-0.4 3.1-1.3v1.2h2.6v-9.7zm8.7 9.8c2.9 0 4.6-1.3 4.6-3.1 0-3.8-5.9-2.2-5.9-3.8 0-0.5 0.5-0.9 1.8-0.9 0.9 0 1.8 0.2 2.8 0.7l0.9-2c-0.9-0.5-2.4-0.9-3.7-0.9-2.8 0-4.5 1.3-4.5 3.2 0 3.9 5.9 2.2 5.9 3.8 0 0.6-0.5 0.9-1.8 0.9-1.2 0-2.5-0.4-3.4-0.9l-0.9 2c0.9 0.6 2.5 1 4.2 1z"/>
	<path id="Layer" fill-rule="evenodd" class="s1" d="m69.2 84v2.3l-5.6 12.8h-3.8l5.4-12.2h-5v2.4h-3.1v-5.3zm0.4 13.2c0-1.3 0.9-2.1 2.1-2.1 1.1 0 2.1 0.8 2.1 2.1 0 1.2-1 2.1-2.1 2.1-1.2 0-2.1-0.9-2.1-2.1zm17.2-2.8c0 2.6-2 5-6.3 5-2.1 0-4.3-0.6-5.8-1.7l1.4-2.6c1.1 0.8 2.7 1.3 4.3 1.3 1.7 0 2.8-0.7 2.8-1.9 0-1.2-0.8-2-3.5-2h-3.9l0.8-8.5h9.2v2.8h-6.3l-0.2 2.9h1.2c4.5 0 6.3 2 6.3 4.7zm0.9-6.4c0-2.6 1.6-4.2 3.7-4.2 2.2 0 3.8 1.6 3.8 4.2 0 2.6-1.6 4.2-3.8 4.2-2.1 0-3.7-1.7-3.7-4.2zm12.7-4h2.6l-10.3 15.1h-2.6zm-7.4 4c0-1.6-0.6-2.4-1.6-2.4-0.9 0-1.5 0.8-1.5 2.4 0 1.6 0.6 2.4 1.5 2.4 1 0 1.6-0.8 1.6-2.4zm5 7.1c0-2.5 1.5-4.2 3.7-4.2 2.2 0 3.7 1.7 3.7 4.2 0 2.5-1.5 4.2-3.7 4.2-2.2 0-3.7-1.7-3.7-4.2zm5.3 0c0-1.6-0.7-2.4-1.6-2.4-0.9 0-1.6 0.8-1.6 2.4 0 1.6 0.7 2.4 1.6 2.4 0.9 0 1.6-0.8 1.6-2.4z"/>
	<g id="Layer">
	</g>
</svg>