<svg width="35" height="28" viewBox="0 0 35 28" fill="none" xmlns="http://www.w3.org/2000/svg">
<path d="M22.3898 7.87712H23.4373L26.4232 4.89125L26.5696 3.62307C21.0123 -1.28258 12.5311 -0.752633 7.6254 4.80464C6.26237 6.34707 5.27464 8.18437 4.73438 10.1722C5.06637 10.0361 5.43548 10.0134 5.78191 10.1103L11.7537 9.12467C11.7537 9.12467 12.0568 8.62153 12.2156 8.65246C14.8715 5.73463 19.3421 5.39439 22.4104 7.87712H22.3898Z" fill="#EA4335"/>
<path d="M30.6757 10.1726C29.9891 7.64452 28.5807 5.37212 26.6217 3.63586L22.4316 7.82599C24.2008 9.27149 25.2092 11.4511 25.1659 13.7359V14.4803C27.2259 14.4803 28.8962 16.1506 28.8962 18.2106C28.8962 20.2706 27.2259 21.9408 25.1659 21.9408H17.7053L16.9609 22.6956V27.1702L17.7053 27.9146H25.1659C30.5231 27.9559 34.9009 23.6462 34.9421 18.2889C34.9669 15.035 33.3647 11.9914 30.6757 10.1726Z" fill="#4285F4"/>
<path d="M10.2313 27.8669H17.6918V21.8953H10.2313C9.69925 21.8953 9.17549 21.7798 8.6909 21.5591L7.64337 21.8849L4.63688 24.8708L4.375 25.9183C6.05971 27.1926 8.11765 27.8772 10.2313 27.8669Z" fill="#34A853"/>
<path d="M10.2343 8.49489C4.87499 8.52582 0.559078 12.8953 0.590009 18.2547C0.608568 21.2467 2.00459 24.0635 4.37803 25.8864L8.70425 21.5601C6.82777 20.7126 5.99263 18.5021 6.84014 16.6256C7.68765 14.7491 9.89819 13.914 11.7747 14.7615C12.6016 15.1347 13.2635 15.7987 13.6388 16.6256L17.965 12.2994C16.1256 9.89091 13.2635 8.48252 10.2343 8.49489Z" fill="#FBBC05"/>
</svg>
