<svg id="Layer_1" data-name="Layer 1" xmlns="http://www.w3.org/2000/svg" xmlns:xlink="http://www.w3.org/1999/xlink" viewBox="0 0 718 181"><defs><style>.cls-1{fill:url(#linear-gradient);}.cls-2{fill:url(#linear-gradient-2);}.cls-3{fill:url(#linear-gradient-3);}.cls-4{fill:url(#linear-gradient-4);}.cls-5{fill:url(#linear-gradient-5);}.cls-6{fill:url(#linear-gradient-6);}.cls-7{fill:url(#linear-gradient-7);}.cls-8{fill:url(#linear-gradient-8);}.cls-9{fill:url(#linear-gradient-9);}.cls-10{fill:url(#linear-gradient-10);}.cls-11{fill:#e23577;}.cls-12{fill:none;}</style><linearGradient id="linear-gradient" x1="-163.77" y1="726.9" x2="-155.86" y2="735.31" gradientTransform="translate(1761.68 -7435.85) scale(9.98 10.61)" gradientUnits="userSpaceOnUse"><stop offset="0" stop-color="#ea3671"/><stop offset="0.04" stop-color="#e03a75"/><stop offset="0.39" stop-color="#82619b"/><stop offset="0.69" stop-color="#3c7eb8"/><stop offset="0.89" stop-color="#1190c9"/><stop offset="1" stop-color="#0197d0"/></linearGradient><linearGradient id="linear-gradient-2" x1="-169.12" y1="738.98" x2="-161.1" y2="744.69" gradientTransform="translate(2006.89 -5663.53) scale(11.29 8.09)" xlink:href="#linear-gradient"/><linearGradient id="linear-gradient-3" x1="-172.71" y1="723.98" x2="-165.8" y2="730.74" gradientTransform="translate(2318.23 -8911.58) scale(12.91 12.73)" xlink:href="#linear-gradient"/><linearGradient id="linear-gradient-4" x1="-178.49" y1="726.19" x2="-173.03" y2="730.64" gradientTransform="translate(2996.25 -9406.25) scale(16.46 13.45)" xlink:href="#linear-gradient"/><linearGradient id="linear-gradient-5" x1="-167.14" y1="732.62" x2="-159.22" y2="741.03" gradientTransform="translate(1728.13 -7435.85) scale(9.98 10.61)" xlink:href="#linear-gradient"/><linearGradient id="linear-gradient-6" x1="-170.41" y1="741.44" x2="-162.4" y2="747.2" gradientTransform="translate(1983.37 -5663.53) scale(11.29 8.09)" xlink:href="#linear-gradient"/><linearGradient id="linear-gradient-7" x1="-174.44" y1="727.58" x2="-167.48" y2="734.34" gradientTransform="translate(2293.27 -8911.58) scale(12.91 12.73)" xlink:href="#linear-gradient"/><linearGradient id="linear-gradient-8" x1="-179.02" y1="727.46" x2="-173.51" y2="731.92" gradientTransform="translate(2978.53 -9406.25) scale(16.46 13.45)" xlink:href="#linear-gradient"/><linearGradient id="linear-gradient-9" x1="-164.6" y1="756.34" x2="-152.78" y2="766.31" gradientTransform="translate(1270.36 -4315.83) scale(7.51 6.21)" xlink:href="#linear-gradient"/><linearGradient id="linear-gradient-10" x1="-178.04" y1="713.77" x2="-175.49" y2="717.28" gradientTransform="translate(3470.63 -18078.64) scale(18.98 25.77)" xlink:href="#linear-gradient"/></defs><title>cointigerlogo-freelogovectors.net</title><g id="资源-3备份-7"><path id="路径" class="cls-1" d="M173.38,347a19.33,19.33,0,1,0-23.79-29.35,69,69,0,0,1,24,29.35Z" transform="translate(-16 -284.5)"/><path id="路径-2" class="cls-2" d="M130,349.3a43.52,43.52,0,0,1,16-27.74,65.91,65.91,0,0,1,22.68,27.74Z" transform="translate(-16 -284.5)"/><path id="路径-3" class="cls-3" d="M129.56,354.51h40.82a63.61,63.61,0,0,1,2.75,29.2h-.35a28.61,28.61,0,0,1-20-8.36,47.08,47.08,0,0,1-2.51,4.7,33.71,33.71,0,0,0,22.19,8.77,64.34,64.34,0,0,1-2.8,9.31,43,43,0,0,1-40.07-42.57Z" transform="translate(-16 -284.5)"/><path id="路径-4" class="cls-4" d="M111.13,403.49a48.57,48.57,0,0,0,29.45-12,48.52,48.52,0,0,0,26.94,12.12,65.73,65.73,0,0,1-39.66,34A43.27,43.27,0,0,1,111.13,403.49Z" transform="translate(-16 -284.5)"/><path id="路径-5" class="cls-5" d="M44.42,347a19.33,19.33,0,1,1,24.19-29.35A69,69,0,0,0,44.42,347Z" transform="translate(-16 -284.5)"/><path id="路径-6" class="cls-6" d="M88,349.3a43.48,43.48,0,0,0-16-27.74A66,66,0,0,0,49.43,349.3Z" transform="translate(-16 -284.5)"/><path id="路径-7" class="cls-7" d="M88.29,354.51H47.48a63.61,63.61,0,0,0-2.81,29.2H45a28.63,28.63,0,0,0,20-8.36,47,47,0,0,0,2.5,4.7,33.7,33.7,0,0,1-22.18,8.77,63.37,63.37,0,0,0,2.8,9.36,43,43,0,0,0,40.06-42.57A4.06,4.06,0,0,0,88.29,354.51Z" transform="translate(-16 -284.5)"/><path id="路径-8" class="cls-8" d="M106.82,403.49a48.51,48.51,0,0,1-29.44-12,48.58,48.58,0,0,1-26.95,12.07,65.75,65.75,0,0,0,39.67,34,43.29,43.29,0,0,0,16.72-34.11Z" transform="translate(-16 -284.5)"/><path id="路径-9" class="cls-9" d="M109.08,418.77a49.08,49.08,0,0,1-12.87,20,61.69,61.69,0,0,0,25.74,0A48.87,48.87,0,0,1,109.08,418.77Z" transform="translate(-16 -284.5)"/><path id="路径-10" class="cls-10" d="M141.68,318.55a64.65,64.65,0,0,0-29.8-8.71v25h-5v-25a64.64,64.64,0,0,0-30,8.71A48.44,48.44,0,0,1,82,386.85l-.68.77a42.64,42.64,0,0,0,56,0,48.43,48.43,0,0,1,3.74-68.39l.77-.68Z" transform="translate(-16 -284.5)"/></g><path id="COINTIGER" class="cls-11" d="M249.4,411.65a45.06,45.06,0,0,0,18.78-3.35l-1.8-7.36a36.9,36.9,0,0,1-15,2.95c-17.18,0-27.2-11.07-27.2-28.54,0-18.68,11.07-29.3,27.75-29.3A32.59,32.59,0,0,1,266.13,349l2.3-7.46a38.32,38.32,0,0,0-16.87-3.15,35,35,0,0,0-37.11,37.31C214.45,399,229.42,411.65,249.4,411.65Zm58.1,0c18.13,0,33-13.07,33-37.41,0-21.18-12.52-36.05-32.05-36.05S275.54,353,275.54,375.5C275.54,397,288.62,411.65,307.5,411.65Zm.55-7.46c-14.53,0-22.79-13.57-22.79-28.89s7.61-29.6,22.89-29.6,22.63,14.77,22.63,29C330.78,390.82,322.57,404.19,308.05,404.19Zm53.53,6.31v-71h-9.26v71Zm24.64,0V380c0-11.82,0-20.33-.65-29.29h.3A207.93,207.93,0,0,0,399,374.39l22.54,36.06h9.26v-71h-8.56v29.75c0,11.06,0,19.73,1.05,29.19H423a198.8,198.8,0,0,0-12.67-23.08l-22.64-35.86h-10v71Zm89.5,0V353h19.43V339.49H440.51V353h19.18V410.5Zm44.07,0v-71h-16v71Zm49.53.75a79.42,79.42,0,0,0,23.73-4V369.94H566.61v12.52h11v15a24.58,24.58,0,0,1-7.81.95,21.39,21.39,0,0,1-22.56-20.14,20.71,20.71,0,0,1,.07-3.34c0-15.48,10-23,23.59-23A37.19,37.19,0,0,1,587.29,355l3.36-13a51.31,51.31,0,0,0-19.73-3.35c-23.29,0-40.47,13.47-40.57,37.11a35.62,35.62,0,0,0,10,25.94A40,40,0,0,0,569.32,411.25Zm81.58-.75V397.33H621.7V380.45h26.14v-13H621.7V352.66h27.74V339.49H605.72v71Zm26.89,0V382.61h4.76c6.66,0,9.71,2.4,11.72,11.37a95.31,95.31,0,0,0,5,16.52H715.5c-1.35-2.75-3.46-12-5.71-20a17.72,17.72,0,0,0-9.31-13.27v-.3A18.86,18.86,0,0,0,713,359.52a18,18,0,0,0-6.66-15c-5-4-12.42-5.61-23-5.61A140.39,140.39,0,0,0,662,340.34v70.11ZM684.1,371h-6.31V351.51a31.58,31.58,0,0,1,7.26-.55c7.36,0,11.82,3.35,11.82,10S692.11,371,684.1,371Z" transform="translate(-16 -284.5)"/><rect class="cls-12" width="718" height="181"/></svg>