<svg width="39" height="39" viewBox="0 0 39 39" fill="none" xmlns="http://www.w3.org/2000/svg">
<path d="M26.4495 12.4915H12.3942V26.5468H26.4495V12.4915Z" fill="#2B61D1"/>
<path fill-rule="evenodd" clip-rule="evenodd" d="M13.5655 4.2926C14.2124 4.2926 14.7368 4.817 14.7368 5.46387V6.63515H18.2506V5.46387C18.2506 4.817 18.775 4.2926 19.4219 4.2926C20.0687 4.2926 20.5931 4.817 20.5931 5.46387V6.63515H24.1069V5.46387C24.1069 4.817 24.6313 4.2926 25.2782 4.2926C25.9251 4.2926 26.4495 4.817 26.4495 5.46387V6.63515H27.6208C30.2083 6.63515 32.3058 8.73273 32.3058 11.3202V12.4915H33.4771C34.124 12.4915 34.6484 13.0159 34.6484 13.6628C34.6484 14.3097 34.124 14.8341 33.4771 14.8341H32.3058V18.3479H33.4771C34.124 18.3479 34.6484 18.8723 34.6484 19.5191C34.6484 20.166 34.124 20.6904 33.4771 20.6904H32.3058V24.2042H33.4771C34.124 24.2042 34.6484 24.7286 34.6484 25.3755C34.6484 26.0224 34.124 26.5468 33.4771 26.5468H32.3058V27.718C32.3058 30.3056 30.2083 32.4031 27.6208 32.4031H26.4495V33.5744C26.4495 34.2213 25.9251 34.7457 25.2782 34.7457C24.6313 34.7457 24.1069 34.2213 24.1069 33.5744V32.4031H20.5931V33.5744C20.5931 34.2213 20.0687 34.7457 19.4219 34.7457C18.775 34.7457 18.2506 34.2213 18.2506 33.5744V32.4031H14.7368V33.5744C14.7368 34.2213 14.2124 34.7457 13.5655 34.7457C12.9186 34.7457 12.3942 34.2213 12.3942 33.5744V32.4031H11.2229C8.63544 32.4031 6.53786 30.3056 6.53786 27.718V26.5468H5.36658C4.71971 26.5468 4.19531 26.0224 4.19531 25.3755C4.19531 24.7286 4.71971 24.2042 5.36658 24.2042H6.53786V20.6904H5.36658C4.71971 20.6904 4.19531 20.166 4.19531 19.5191C4.19531 18.8723 4.71971 18.3479 5.36658 18.3479H6.53786V14.8341H5.36658C4.71971 14.8341 4.19531 14.3097 4.19531 13.6628C4.19531 13.0159 4.71971 12.4915 5.36658 12.4915H6.53786V11.3202C6.53786 8.73273 8.63544 6.63515 11.2229 6.63515H12.3942V5.46387C12.3942 4.817 12.9186 4.2926 13.5655 4.2926ZM10.0517 11.3202C10.0517 10.6734 10.5761 10.149 11.2229 10.149H27.6208C28.2676 10.149 28.792 10.6734 28.792 11.3202V27.718C28.792 28.3649 28.2676 28.8893 27.6208 28.8893H11.2229C10.5761 28.8893 10.0517 28.3649 10.0517 27.718V11.3202Z" fill="#2B61D1"/>
</svg>
