<svg width="106" height="106" viewBox="0 0 106 106" fill="none" xmlns="http://www.w3.org/2000/svg">
<g clip-path="url(#clip0_1220_2471)">
<path d="M106 52.9999C106 46.5169 104.834 40.3066 102.703 34.5652L53 32.2607L3.29656 34.565C1.16621 40.3066 0 46.5169 0 52.9999C0 59.4829 1.16621 65.6932 3.29656 71.4346L53 73.739L102.703 71.4348C104.834 65.6932 106 59.4829 106 52.9999Z" fill="#F0F0F0"/>
<path d="M53.0003 106C75.7885 106 95.2152 91.617 102.704 71.4346H3.29688C10.7854 91.617 30.2122 106 53.0003 106Z" fill="#0052B4"/>
<path d="M3.29688 34.5653H102.704C95.2152 14.3829 75.7885 0 53.0003 0C30.2122 0 10.7854 14.3829 3.29688 34.5653Z" fill="#D80027"/>
<path d="M66.8268 36.8699H57.6094L59.1458 25.348L65.2904 20.7393L71.4353 25.348V34.5654L66.8268 36.8699Z" fill="#338AF3"/>
<path d="M39.1749 36.8699H48.3924L46.856 25.348L40.7111 20.7393L34.5664 25.348V34.5654L39.1749 36.8699Z" fill="#338AF3"/>
<path d="M59.1457 36.8699H46.8555V25.348L53.0006 20.7393L59.1457 25.348V36.8699Z" fill="#0052B4"/>
<path d="M34.5664 34.5654V59.9131C34.5664 65.9487 37.4818 71.3162 41.9785 74.681L45.2047 73.8738L49.2758 77.9693C50.4797 78.2173 51.7254 78.348 53.0013 78.348C54.2704 78.348 55.5099 78.219 56.7074 77.9735L61.3546 74.1041L64.0236 74.6736C68.5185 71.3089 71.436 65.947 71.436 59.9131V34.5654H34.5664Z" fill="#F0F0F0"/>
<path d="M34.5664 34.5654H41.9402V41.9393H34.5664V34.5654Z" fill="#D80027"/>
<path d="M49.3125 34.5654H56.6863V41.9393H49.3125V34.5654Z" fill="#D80027"/>
<path d="M64.0625 34.5654H71.4363V41.9393H64.0625V34.5654Z" fill="#D80027"/>
<path d="M41.9414 41.9395H49.3152V49.3133H41.9414V41.9395Z" fill="#D80027"/>
<path d="M56.6875 41.9395H64.0613V49.3133H56.6875V41.9395Z" fill="#D80027"/>
<path d="M34.5664 49.311H41.9402V56.6849H34.5664V49.311Z" fill="#D80027"/>
<path d="M41.9414 56.6851H49.3152V64.0589H41.9414V56.6851Z" fill="#D80027"/>
<path d="M49.3125 49.311H56.6863V56.6849H49.3125V49.311Z" fill="#D80027"/>
<path d="M64.0625 49.311H71.4363V56.6849H64.0625V49.311Z" fill="#D80027"/>
<path d="M56.6875 56.6851H64.0613V64.0589H56.6875V56.6851Z" fill="#D80027"/>
<path d="M49.3125 64.0586H56.6863V71.4324H49.3125V64.0586Z" fill="#D80027"/>
<path d="M41.941 64.0591H35.043C35.6757 66.8002 36.9195 69.3084 38.625 71.4329H41.941V64.0591Z" fill="#D80027"/>
<path d="M64.0625 71.4334H67.3783C69.0842 69.3088 70.3277 66.8005 70.9604 64.0596H64.0625V71.4334Z" fill="#D80027"/>
<path d="M41.9414 71.4336V74.6511C44.086 76.2649 46.5924 77.422 49.3152 77.9772V71.4336H41.9414Z" fill="#D80027"/>
<path d="M56.6875 71.4336V77.9772C59.4106 77.4224 61.9167 76.2649 64.0613 74.6511V71.4336H56.6875Z" fill="#D80027"/>
</g>
<defs>
<clipPath id="clip0_1220_2471">
<rect width="106" height="106" fill="white"/>
</clipPath>
</defs>
</svg>
