<svg width="46" height="46" viewBox="0 0 46 46" fill="none" xmlns="http://www.w3.org/2000/svg">
<path d="M23.1626 3.94697C12.7703 3.94697 4.33594 12.3813 4.33594 22.7736C4.33594 33.1659 12.7703 41.6002 23.1626 41.6002C33.5549 41.6002 41.9892 33.1659 41.9892 22.7736C41.9892 12.3813 33.5549 3.94697 23.1626 3.94697ZM21.2799 37.7031C13.8434 36.7806 8.10126 30.4549 8.10126 22.7736C8.10126 21.6063 8.25188 20.4956 8.49662 19.4036L17.5146 28.4216V30.3042C17.5146 32.3752 19.209 34.0696 21.2799 34.0696V37.7031ZM34.2703 32.9211C33.7808 31.3962 32.3876 30.3042 30.6932 30.3042H28.8105V24.6563C28.8105 23.6208 27.9634 22.7736 26.9279 22.7736H15.6319V19.0083H19.3972C20.4327 19.0083 21.2799 18.1611 21.2799 17.1256V13.3603H25.0452C27.1162 13.3603 28.8105 11.6659 28.8105 9.59496V8.82306C34.3267 11.0634 38.2239 16.4667 38.2239 22.7736C38.2239 26.6895 36.7177 30.2478 34.2703 32.9211Z" fill="#2B61D1"/>
</svg>
