<svg width="252" height="41" viewBox="0 0 252 41" fill="none" xmlns="http://www.w3.org/2000/svg">
<path fill-rule="evenodd" clip-rule="evenodd" d="M29.152 11.8478C28.7754 12.0904 28.4495 12.4235 28.2102 12.838C27.4065 14.2297 27.8833 16.0091 29.2752 16.8128C30.6669 17.6161 32.4462 17.1393 33.2499 15.7478C34.0288 14.3982 33.6044 12.6839 32.3083 11.8486V7.3966C36.4379 6.76516 40.6152 8.11008 43.6045 11.0992C45.6346 13.129 47.0036 15.8195 47.3628 18.82H40.4728C40.2304 18.4437 39.8972 18.1179 39.4827 17.8788C38.0912 17.0752 36.3117 17.5521 35.508 18.9439C34.7044 20.3354 35.1813 22.1149 36.5731 22.9185C37.9227 23.6977 39.637 23.2728 40.4724 21.9769L47.3651 21.9767C47.0047 24.9741 45.6341 27.6639 43.6031 29.6947C42.5188 30.7792 41.2458 31.6749 39.8378 32.329C39.7289 32.2433 39.6125 32.1639 39.489 32.0926C38.0971 31.2892 36.3176 31.766 35.5143 33.1573C34.7111 34.5492 35.1877 36.3287 36.5794 37.1321C37.9711 37.9358 39.7506 37.4588 40.5538 36.0673C40.6894 35.8325 40.7883 35.5868 40.8529 35.3367C42.7251 34.5153 44.4138 33.353 45.8392 31.9274C52.2046 25.562 52.203 15.2275 45.8373 8.86352C41.4529 4.47936 34.9685 2.98487 29.152 4.92005V11.8478V11.8478Z" stroke="url(#paint0_linear)" stroke-width="0.872642" stroke-miterlimit="10"/>
<path d="M22.7733 9.20982C16.4079 15.575 16.4093 25.909 22.7749 32.2737C25.2806 34.7795 28.6021 36.4724 32.3083 36.9239L32.3071 21.5443H32.9855C33.0279 21.5443 33.0672 21.5207 33.0867 21.4827C33.0956 21.4664 33.0995 21.4481 33.0995 21.4296C33.0995 21.4067 33.0928 21.3844 33.0794 21.3647L30.7891 18.0439C30.7678 18.0125 30.7325 17.9942 30.6952 17.9942C30.6571 17.9942 30.6219 18.0127 30.6006 18.0439L28.3102 21.3647C28.2862 21.3999 28.2835 21.4453 28.3031 21.4827C28.3232 21.5207 28.3617 21.5443 28.4048 21.5443H29.1066L29.1518 32.8432C27.5936 32.1776 26.1894 31.2192 25.0078 30.0377C19.8678 24.8978 19.8704 16.5817 25.0094 11.4426C25.3227 11.1289 25.6522 10.8317 25.9956 10.5507L25.9953 6.70621C24.8176 7.4045 23.7353 8.24729 22.7733 9.20982Z" fill="url(#paint1_linear)"/>
<path d="M65.3053 25.352H62.9501V24.4039C61.9724 25.1298 60.891 25.4853 59.6911 25.4853C58.1357 25.4853 56.8173 24.9224 55.7211 23.7966C54.6249 22.6855 54.0769 21.3523 54.0769 19.7821C54.0769 18.2118 54.6249 16.8638 55.7211 15.7527C56.8173 14.6417 58.1357 14.0788 59.6911 14.0788C60.891 14.0788 61.9724 14.4343 62.9501 15.1454V10.5235H65.3053V25.352ZM59.6911 23.13C60.58 23.13 61.3502 22.8042 61.9872 22.1523C62.6242 21.5005 62.9352 20.7154 62.9352 19.7822C62.9352 18.849 62.6242 18.0638 61.9872 17.4121C61.3502 16.7603 60.58 16.4344 59.6911 16.4344C58.7876 16.4344 58.0172 16.7603 57.3802 17.4121C56.758 18.064 56.4321 18.8639 56.4321 19.7822C56.4321 20.7006 56.7431 21.4858 57.3802 22.1523C58.0172 22.8042 58.7874 23.13 59.6911 23.13Z" fill="url(#paint2_linear)"/>
<path d="M69.6013 10.7903C69.8384 11.0422 69.9717 11.3383 69.9717 11.6939C69.9717 12.0494 69.8532 12.3457 69.6013 12.5976C69.3643 12.8494 69.0533 12.9679 68.6976 12.9679C68.342 12.9679 68.0458 12.8494 67.7939 12.5976C67.5421 12.3457 67.4236 12.0496 67.4236 11.6939C67.4236 11.3382 67.5421 11.042 67.7939 10.7903C68.0458 10.5385 68.342 10.42 68.6976 10.42C69.068 10.42 69.3642 10.5385 69.6013 10.7903ZM67.5423 25.3373H69.8384V14.1531H67.5423V25.3373Z" fill="url(#paint3_linear)"/>
<path d="M74.1045 24.8485C74.3563 25.3965 74.7267 25.841 75.2155 26.1965C75.7784 26.5817 76.3414 26.789 76.8746 26.789C77.6005 26.789 78.2375 26.478 78.7855 25.8558C79.2744 25.293 79.5559 24.5819 79.615 23.7376C78.7558 24.3004 77.8226 24.5968 76.8004 24.5968C75.3635 24.5968 74.1488 24.0783 73.1266 23.0562C72.1192 22.0193 71.6009 20.775 71.6009 19.3232C71.6009 17.8715 72.1046 16.6271 73.1266 15.6051C74.1488 14.5829 75.3634 14.0645 76.8004 14.0645C77.8226 14.0645 78.7707 14.346 79.6299 14.9237V14.1533H81.9851V23.5451C81.9555 25.145 81.4371 26.4782 80.4297 27.5447C79.4224 28.6113 78.2373 29.1446 76.8744 29.1446C75.8522 29.1446 74.845 28.804 73.8673 28.1373C72.9636 27.5151 72.3119 26.7004 71.8822 25.7078L74.1045 24.8485ZM76.8006 22.2412C77.5856 22.2412 78.2523 21.9597 78.8152 21.382C79.3632 20.8043 79.6447 20.1227 79.6447 19.308C79.6447 18.5082 79.3632 17.8118 78.8152 17.249C78.2672 16.6861 77.5856 16.3898 76.8006 16.3898C76.0156 16.3898 75.3489 16.6713 74.786 17.249C74.238 17.8118 73.9565 18.5082 73.9565 19.308C73.9565 20.1079 74.238 20.8043 74.786 21.3671C75.3489 21.945 76.0154 22.2412 76.8006 22.2412Z" fill="url(#paint4_linear)"/>
<path d="M86.2961 10.7903C86.5331 11.0422 86.6664 11.3383 86.6664 11.6939C86.6664 12.0494 86.5479 12.3457 86.2961 12.5976C86.0591 12.8494 85.7481 12.9679 85.3924 12.9679C85.0367 12.9679 84.7405 12.8494 84.4887 12.5976C84.2368 12.3457 84.1183 12.0496 84.1183 11.6939C84.1183 11.3382 84.2368 11.042 84.4887 10.7903C84.7405 10.5385 85.0367 10.42 85.3924 10.42C85.7481 10.42 86.0442 10.5385 86.2961 10.7903ZM84.237 25.3373H86.5331V14.1531H84.237V25.3373Z" fill="url(#paint5_linear)"/>
<path d="M91.9845 14.153H93.4954V16.4491H91.9845V25.3223H89.6735V16.4491H88.1773V14.153H89.6735V10.5237H91.9696V14.153H91.9845V14.153Z" fill="url(#paint6_linear)"/>
<path d="M105.776 25.3373H103.42V24.3744C102.443 25.0854 101.361 25.4558 100.161 25.4558C98.6061 25.4558 97.2877 24.8929 96.1915 23.7819C95.0952 22.6708 94.5472 21.3228 94.5472 19.7526C94.5472 18.1823 95.0952 16.8343 96.1915 15.7232C97.2877 14.6122 98.6061 14.0493 100.161 14.0493C101.361 14.0493 102.443 14.4048 103.42 15.1159V14.1678H105.776V25.3373ZM100.161 23.0855C101.05 23.0855 101.821 22.7597 102.458 22.1078C103.095 21.456 103.406 20.6561 103.406 19.7377C103.406 18.8045 103.095 18.0193 102.458 17.3676C101.821 16.7158 101.05 16.3899 100.161 16.3899C99.2579 16.3899 98.4876 16.7158 97.8505 17.3676C97.2283 18.0195 96.9025 18.8194 96.9025 19.7377C96.9025 20.6709 97.2135 21.4561 97.8505 22.1078C98.4876 22.7745 99.2579 23.0855 100.161 23.0855Z" fill="url(#paint7_linear)"/>
<path d="M108.205 10.5237H110.501V25.3371H108.205V10.5237Z" fill="url(#paint8_linear)"/>
<path d="M121.903 22.9818C121.429 23.6928 120.821 24.2705 120.081 24.715C119.207 25.2484 118.259 25.5001 117.251 25.5001C115.696 25.5001 114.378 24.9372 113.281 23.8261C112.185 22.7151 111.637 21.367 111.637 19.7968C111.637 18.2266 112.185 16.8785 113.281 15.7675C114.378 14.6564 115.696 14.0936 117.251 14.0936C118.792 14.0936 120.11 14.6564 121.221 15.7675C122.318 16.8785 122.866 18.2266 122.866 19.7968V20.7597H114.2C114.392 21.5004 114.777 22.0929 115.37 22.5373C115.933 22.9373 116.555 23.1446 117.251 23.1446C118.377 23.1446 119.251 22.7003 119.873 21.7966L121.903 22.9818ZM120.303 18.6266C120.066 17.9896 119.681 17.4564 119.133 17.0712C118.57 16.6712 117.948 16.4638 117.251 16.4638C116.555 16.4638 115.933 16.6712 115.37 17.0712C114.822 17.4712 114.437 17.9896 114.2 18.6266H120.303Z" fill="url(#paint9_linear)"/>
<path d="M133.205 25.3965L129.858 21.5746L126.539 25.3965H123.488L128.332 19.8266L123.473 14.2123H126.525L129.858 18.0638L133.22 14.2123H136.272L131.384 19.8266L136.257 25.3965H133.205Z" fill="url(#paint10_linear)"/>
<path d="M142.493 16.449C141.59 16.449 140.82 16.7749 140.197 17.4267C139.56 18.0786 139.249 18.8785 139.249 19.7968C139.249 20.73 139.56 21.5152 140.197 22.1669C140.834 22.8188 141.605 23.1446 142.493 23.1446C143.59 23.1446 144.479 22.6854 145.13 21.7817L147.041 23.1446C145.915 24.7149 144.39 25.5147 142.479 25.5147C140.923 25.5147 139.605 24.9519 138.509 23.8408C137.412 22.7298 136.864 21.3817 136.864 19.8115C136.864 18.2413 137.413 16.8932 138.509 15.7821C139.605 14.6711 140.923 14.1082 142.479 14.1082C144.39 14.1082 145.901 14.8934 147.041 16.4783L145.13 17.8412C144.479 16.9084 143.605 16.449 142.493 16.449Z" fill="url(#paint11_linear)"/>
<path d="M153.826 14.0938C155.248 14.0938 156.463 14.6418 157.47 15.738C158.477 16.8342 158.996 18.1378 158.996 19.6784V25.3964H156.7V19.6784C156.7 18.7748 156.418 18.0045 155.855 17.3526C155.307 16.7156 154.626 16.3897 153.841 16.3897C153.056 16.3897 152.389 16.7156 151.826 17.3526C151.278 17.9896 150.997 18.7746 150.997 19.6784V25.3964H148.7V10.583H150.997V15.027C151.841 14.4048 152.789 14.0938 153.826 14.0938Z" fill="url(#paint12_linear)"/>
<path d="M171.78 25.3964H169.424V24.4335C168.447 25.1446 167.365 25.5149 166.166 25.5149C164.61 25.5149 163.292 24.9521 162.196 23.841C161.099 22.73 160.551 21.3819 160.551 19.8117C160.551 18.2414 161.099 16.8934 162.196 15.7823C163.292 14.6713 164.61 14.1084 166.166 14.1084C167.365 14.1084 168.447 14.4639 169.424 15.175V14.2269H171.78V25.3964ZM166.166 23.1448C167.054 23.1448 167.825 22.819 168.462 22.1671C169.099 21.5152 169.41 20.7154 169.41 19.797C169.41 18.8638 169.099 18.0786 168.462 17.4269C167.825 16.7752 167.054 16.4492 166.166 16.4492C165.262 16.4492 164.492 16.775 163.855 17.4269C163.232 18.0788 162.907 18.8786 162.907 19.797C162.907 20.7302 163.218 21.5154 163.855 22.1671C164.492 22.8336 165.262 23.1448 166.166 23.1448Z" fill="url(#paint13_linear)"/>
<path d="M179.068 13.9901C180.49 13.9901 181.705 14.5382 182.712 15.6344C183.72 16.7306 184.223 18.0341 184.223 19.5747V25.3965H181.927V19.5749C181.927 18.6713 181.645 17.901 181.083 17.2491C180.52 16.6121 179.853 16.2862 179.068 16.2862C178.283 16.2862 177.616 16.6121 177.053 17.2491C176.505 17.8861 176.224 18.6712 176.224 19.5749V25.3966H173.928V14.2125H176.224V14.9235C177.068 14.3012 178.031 13.9901 179.068 13.9901Z" fill="url(#paint14_linear)"/>
<path d="M188.356 24.9076C188.608 25.4556 188.978 25.9001 189.467 26.2556C190.03 26.6408 190.593 26.8482 191.126 26.8482C191.852 26.8482 192.489 26.5372 193.037 25.915C193.526 25.3521 193.807 24.6411 193.867 23.7967C193.007 24.3596 192.074 24.6559 191.052 24.6559C189.615 24.6559 188.4 24.1374 187.378 23.1154C186.371 22.0931 185.852 20.8489 185.852 19.3972C185.852 17.9455 186.356 16.7011 187.378 15.6791C188.4 14.6568 189.615 14.1385 191.052 14.1385C192.074 14.1385 193.022 14.42 193.881 14.9977V14.2273H196.237V23.619C196.207 25.2189 195.689 26.5522 194.681 27.6187C193.674 28.6853 192.489 29.2186 191.126 29.2186C190.104 29.2186 189.097 28.8779 188.119 28.2112C187.215 27.589 186.564 26.7744 186.134 25.7818L188.356 24.9076ZM191.052 22.3005C191.837 22.3005 192.504 22.019 193.067 21.4413C193.615 20.8636 193.896 20.1821 193.896 19.3674C193.896 18.5675 193.615 17.8711 193.067 17.3083C192.519 16.7454 191.837 16.4491 191.052 16.4491C190.267 16.4491 189.6 16.7306 189.037 17.3083C188.489 17.8711 188.208 18.5675 188.208 19.3674C188.208 20.1672 188.489 20.8636 189.037 21.4264C189.6 22.0041 190.267 22.3005 191.052 22.3005Z" fill="url(#paint15_linear)"/>
<path d="M208.28 22.9818C207.806 23.6928 207.199 24.2705 206.458 24.715C205.584 25.2484 204.636 25.5001 203.629 25.5001C202.073 25.5001 200.755 24.9372 199.659 23.8261C198.562 22.7151 198.014 21.367 198.014 19.7968C198.014 18.2266 198.562 16.8785 199.659 15.7675C200.755 14.6564 202.073 14.0936 203.629 14.0936C205.169 14.0936 206.488 14.6564 207.599 15.7675C208.695 16.8785 209.243 18.2266 209.243 19.7968V20.7597H200.577C200.77 21.5004 201.155 22.0929 201.747 22.5373C202.31 22.9373 202.932 23.1446 203.628 23.1446C204.754 23.1446 205.628 22.7003 206.25 21.7966L208.28 22.9818ZM206.68 18.6266C206.443 17.9896 206.058 17.4564 205.51 17.0712C204.947 16.6712 204.325 16.4638 203.629 16.4638C202.933 16.4638 202.31 16.6712 201.748 17.0712C201.199 17.4712 200.814 17.9896 200.577 18.6266H206.68Z" fill="url(#paint16_linear)"/>
<path d="M219.031 10.7432C219.28 10.9959 219.405 11.3018 219.405 11.6615C219.405 12.0212 219.28 12.3274 219.031 12.5797C218.782 12.8325 218.474 12.9585 218.107 12.9585C217.748 12.9585 217.441 12.8323 217.189 12.5797C216.936 12.3274 216.81 12.0212 216.81 11.6615C216.81 11.3018 216.937 10.9959 217.189 10.7432C217.441 10.4908 217.748 10.3644 218.107 10.3644C218.474 10.3644 218.782 10.4908 219.031 10.7432ZM216.925 25.6182H219.28V14.1831H216.925V25.6182Z" fill="url(#paint17_linear)"/>
<path d="M232.79 25.6287H230.383V24.6635C229.387 25.4039 228.277 25.7739 227.052 25.7739C225.468 25.7739 224.115 25.1997 222.995 24.0513C221.874 22.9169 221.314 21.5472 221.314 19.9422C221.314 18.3304 221.874 16.9572 222.995 15.8226C224.115 14.6812 225.468 14.1105 227.052 14.1105C228.277 14.1105 229.387 14.4737 230.383 15.1999V10.4681H232.79V25.6287ZM227.052 23.3665C227.965 23.3665 228.75 23.031 229.408 22.36C230.058 21.6891 230.383 20.8831 230.383 19.9422C230.383 18.9945 230.058 18.1851 229.408 17.514C228.75 16.8431 227.965 16.5075 227.052 16.5075C226.132 16.5075 225.343 16.8433 224.686 17.514C224.043 18.1851 223.721 18.9945 223.721 19.9422C223.721 20.8831 224.043 21.6891 224.686 22.36C225.343 23.031 226.132 23.3665 227.052 23.3665Z" fill="url(#paint18_linear)"/>
<path d="M212.218 25.1346C211.932 24.8491 211.789 24.4917 211.789 24.063C211.789 23.6244 211.932 23.2696 212.218 22.9991C212.503 22.7288 212.856 22.5933 213.274 22.5933C213.692 22.5933 214.044 22.7286 214.33 22.9991C214.616 23.2696 214.759 23.6243 214.759 24.063C214.759 24.4917 214.616 24.8491 214.33 25.1346C214.044 25.4205 213.692 25.5633 213.274 25.5633C212.856 25.5633 212.504 25.4205 212.218 25.1346Z" fill="url(#paint19_linear)"/>
<path d="M56.5008 29.8918V30.6433H55.5428V34.7254H54.8503V30.6433H53.8955V29.8918H56.5008Z" fill="#343438"/>
<path d="M59.1633 31.0362C59.5905 31.0362 59.9553 31.2151 60.2584 31.5725C60.5637 31.928 60.7159 32.3572 60.7159 32.8603V34.7241H60.0235V32.8603C60.0235 32.5645 59.9391 32.312 59.7701 32.1022C59.6034 31.8924 59.4012 31.7875 59.1631 31.7875C58.9273 31.7875 58.725 31.8924 58.5561 32.1022C58.3894 32.312 58.306 32.5645 58.306 32.8603V34.7241H57.6135V29.8906H58.306V31.3407C58.5666 31.1377 58.8523 31.0362 59.1633 31.0362Z" fill="#343438"/>
<path d="M64.9313 33.9363C64.791 34.1703 64.6081 34.3592 64.3822 34.5025C64.1199 34.6744 63.8361 34.7608 63.5312 34.7608C63.0656 34.7608 62.668 34.5786 62.3385 34.2145C62.0088 33.8527 61.8442 33.4144 61.8442 32.9001C61.8442 32.3859 62.0088 31.9479 62.3385 31.5859C62.668 31.2219 63.0654 31.0396 63.5312 31.0396C63.9949 31.0396 64.3923 31.2219 64.7239 31.5859C65.0535 31.9477 65.2182 32.3859 65.2182 32.9001V33.2148H62.6128C62.6699 33.4555 62.7879 33.6487 62.9668 33.794C63.1357 33.9265 63.3237 33.9928 63.5312 33.9928C63.8708 33.9928 64.1332 33.8461 64.3182 33.5525L64.9313 33.9363ZM64.4492 32.516C64.378 32.3065 64.2602 32.1366 64.0956 32.0064C63.9267 31.8739 63.7387 31.8076 63.5312 31.8076C63.3237 31.8076 63.1357 31.8739 62.9668 32.0064C62.8022 32.1366 62.6841 32.3064 62.6128 32.516H64.4492Z" fill="#343438"/>
<path d="M69.1766 29.8908H71.9129V30.6423H69.8692V31.9268H71.9129V32.6783H69.8692V34.7243H69.1766V29.8908Z" fill="#343438"/>
<path d="M76.0854 34.7243H75.3928V34.476C75.1509 34.6636 74.8865 34.7575 74.5998 34.7575C74.191 34.7575 73.8411 34.5798 73.5503 34.2245C73.2617 33.867 73.1173 33.4365 73.1173 32.9333V31.0762H73.8069V32.9333C73.8069 33.2291 73.8849 33.4819 74.0416 33.6915C74.1963 33.9012 74.3823 34.0061 74.6 34.0061C74.8197 34.0061 75.0068 33.9012 75.1614 33.6915C75.3159 33.4839 75.3932 33.2325 75.3932 32.9366V31.0762H76.0857V34.7243H76.0854Z" fill="#343438"/>
<path d="M78.3118 31.0761H78.7663V31.8276H78.3118V34.7243H77.6193V31.8276H77.1676V31.0761H77.6193V29.8909H78.3118V31.0761Z" fill="#343438"/>
<path d="M82.8166 34.7243H82.1243V34.476C81.882 34.6636 81.6178 34.7575 81.3309 34.7575C80.9221 34.7575 80.5725 34.5798 80.2816 34.2245C79.9927 33.867 79.8482 33.4365 79.8482 32.9333V31.0762H80.5378V32.9333C80.5378 33.2291 80.6162 33.4819 80.7729 33.6915C80.9273 33.9012 81.1132 34.0061 81.331 34.0061C81.5508 34.0061 81.7379 33.9012 81.8925 33.6915C82.0471 33.4839 82.1244 33.2325 82.1244 32.9366V31.0762H82.8168V34.7243H82.8166Z" fill="#343438"/>
<path d="M84.8052 31.3805C85.0635 31.1777 85.349 31.0762 85.6623 31.0762H86.0101V31.8277H85.6623C85.4263 31.8277 85.2239 31.9326 85.0553 32.142C84.8885 32.3518 84.8052 32.6033 84.8052 32.8968V34.7243H84.1127V31.0762H84.8052V31.3805Z" fill="#343438"/>
<path d="M89.9813 33.9363C89.841 34.1703 89.6577 34.3592 89.4322 34.5025C89.1699 34.6744 88.8861 34.7608 88.5811 34.7608C88.1154 34.7608 87.7178 34.5786 87.3883 34.2145C87.0588 33.8527 86.8941 33.4144 86.8941 32.9001C86.8941 32.3859 87.0588 31.9479 87.3883 31.5859C87.7178 31.2219 88.1152 31.0396 88.5811 31.0396C89.045 31.0396 89.4425 31.2219 89.774 31.5859C90.1035 31.9477 90.2681 32.3859 90.2681 32.9001V33.2148H87.663C87.7199 33.4555 87.8379 33.6487 88.017 33.794C88.1856 33.9265 88.3737 33.9928 88.5812 33.9928C88.9209 33.9928 89.1832 33.8461 89.3684 33.5525L89.9813 33.9363ZM89.4993 32.516C89.4281 32.3065 89.3102 32.1366 89.1453 32.0064C88.9764 31.8739 88.7884 31.8076 88.5809 31.8076C88.3734 31.8076 88.1854 31.8739 88.0166 32.0064C87.8519 32.1366 87.7339 32.3064 87.6627 32.516H89.4993Z" fill="#343438"/>
<path d="M95.8063 31.0395C96.2702 31.0395 96.6678 31.2217 96.9993 31.5858C97.3288 31.9476 97.4933 32.3858 97.4933 32.9C97.4933 33.4145 97.3288 33.8525 96.9993 34.2143C96.6678 34.5784 96.2702 34.7606 95.8063 34.7606C95.3407 34.7606 94.9431 34.5784 94.6136 34.2143C94.2841 33.8525 94.1194 33.4143 94.1194 32.9C94.1194 32.3858 94.2841 31.9477 94.6136 31.5858C94.9431 31.2217 95.3407 31.0395 95.8063 31.0395ZM95.8063 33.9927C96.0748 33.9927 96.3057 33.8867 96.4989 33.6747C96.69 33.4605 96.7856 33.2026 96.7856 32.9C96.7856 32.5978 96.69 32.3395 96.4989 32.1256C96.3057 31.9135 96.0748 31.8076 95.8063 31.8076C95.5358 31.8076 95.3042 31.9135 95.111 32.1256C94.9217 32.3397 94.8272 32.5978 94.8272 32.9C94.8272 33.2026 94.9217 33.4605 95.111 33.6747C95.3042 33.8867 95.5358 33.9927 95.8063 33.9927Z" fill="#343438"/>
<path d="M99.3569 30.2353C99.5724 30.0122 99.8815 29.9007 100.284 29.9007H100.666V30.6522H100.284C100.067 30.6522 99.9164 30.6953 99.833 30.7814C99.7761 30.8411 99.7393 30.9393 99.7232 31.0761H100.66V31.8277H99.7141V34.7243H99.0216V31.8277H98.683V31.0761H99.0277C99.0518 30.7185 99.1617 30.4381 99.3569 30.2353Z" fill="#343438"/>
<path d="M105.835 29.8908C106.447 29.8908 106.972 30.1271 107.409 30.5994C107.842 31.0716 108.059 31.6399 108.059 32.3042C108.059 32.9707 107.842 33.5412 107.409 34.0159C106.972 34.4882 106.447 34.7243 105.835 34.7243H104.548V29.8908H105.835V29.8908ZM105.835 33.9728C106.256 33.9728 106.616 33.8095 106.915 33.4829C107.216 33.1583 107.366 32.7656 107.366 32.3043C107.366 31.8476 107.216 31.4568 106.915 31.1324C106.616 30.8058 106.256 30.6425 105.835 30.6425H105.24V33.973H105.835V33.9728Z" fill="#343438"/>
<path d="M109.885 29.9786C109.959 30.0592 109.995 30.1569 109.995 30.2714C109.995 30.3863 109.958 30.484 109.885 30.5643C109.812 30.6449 109.722 30.6852 109.614 30.6852C109.508 30.6852 109.418 30.6449 109.344 30.5643C109.27 30.4838 109.232 30.3861 109.232 30.2714C109.232 30.1569 109.27 30.0592 109.344 29.9786C109.418 29.8979 109.508 29.8578 109.614 29.8578C109.722 29.858 109.812 29.8979 109.885 29.9786ZM109.266 34.7243H109.959V31.0762H109.266V34.7243Z" fill="#343438"/>
<path d="M111.862 34.5653C111.937 34.7442 112.049 34.891 112.198 35.0057C112.368 35.1334 112.535 35.1975 112.698 35.1975C112.917 35.1975 113.109 35.0959 113.271 34.8931C113.42 34.7076 113.503 34.4769 113.522 34.2011C113.263 34.3866 112.981 34.4793 112.674 34.4793C112.242 34.4793 111.874 34.3116 111.569 33.9761C111.264 33.6405 111.112 33.2356 111.112 32.7612C111.112 32.2867 111.264 31.8816 111.569 31.5462C111.874 31.2109 112.242 31.043 112.674 31.043C112.983 31.043 113.266 31.1369 113.525 31.3245V31.0728H114.233V34.1384C114.224 34.6613 114.069 35.0961 113.766 35.4427C113.463 35.7916 113.107 35.9657 112.698 35.9657C112.389 35.9657 112.088 35.8554 111.795 35.6348C111.525 35.4294 111.326 35.1648 111.2 34.8402L111.862 34.5653ZM112.673 33.7145C112.909 33.7145 113.111 33.6218 113.277 33.4363C113.444 33.2487 113.527 33.0237 113.527 32.7611C113.527 32.4982 113.444 32.2741 113.277 32.089C113.111 31.9034 112.909 31.8108 112.673 31.8108C112.437 31.8108 112.236 31.9034 112.069 32.089C111.902 32.2743 111.819 32.4982 111.819 32.7611C111.819 33.0235 111.902 33.2476 112.069 33.433C112.236 33.6206 112.437 33.7145 112.673 33.7145Z" fill="#343438"/>
<path d="M116.15 29.9786C116.224 30.0592 116.26 30.1569 116.26 30.2714C116.26 30.3863 116.223 30.484 116.15 30.5643C116.077 30.6449 115.987 30.6852 115.879 30.6852C115.773 30.6852 115.683 30.6449 115.609 30.5643C115.534 30.4838 115.497 30.3861 115.497 30.2714C115.497 30.1569 115.534 30.0592 115.609 29.9786C115.683 29.8979 115.773 29.8578 115.879 29.8578C115.987 29.858 116.077 29.8979 116.15 29.9786ZM115.531 34.7243H116.224V31.0762H115.531V34.7243Z" fill="#343438"/>
<path d="M118.486 31.0761H118.941V31.8276H118.486V34.7243H117.794V31.8276H117.342V31.0761H117.794V29.8909H118.486V31.0761Z" fill="#343438"/>
<path d="M123.257 34.7243H122.549V34.4096C122.256 34.6437 121.93 34.7608 121.57 34.7608C121.104 34.7608 120.707 34.5786 120.377 34.2145C120.048 33.8527 119.883 33.4144 119.883 32.9001C119.883 32.3859 120.048 31.9479 120.377 31.5859C120.707 31.2219 121.104 31.0396 121.57 31.0396C121.93 31.0396 122.256 31.1555 122.549 31.3871V31.0761H123.257V34.7243ZM121.57 33.9927C121.838 33.9927 122.069 33.8867 122.262 33.6747C122.453 33.4605 122.549 33.2026 122.549 32.8999C122.549 32.5978 122.453 32.3395 122.262 32.1256C122.069 31.9135 121.838 31.8076 121.57 31.8076C121.299 31.8076 121.068 31.9135 120.874 32.1256C120.685 32.3397 120.591 32.5978 120.591 32.8999C120.591 33.2026 120.685 33.4605 120.874 33.6747C121.067 33.8867 121.299 33.9927 121.57 33.9927Z" fill="#343438"/>
<path d="M124.614 29.8908H125.303V34.7243H124.614V29.8908Z" fill="#343438"/>
<path d="M131.473 29.8908L133.319 34.7243H132.571L132.037 33.3306H130.366L129.829 34.7243H129.078L130.93 29.8908H131.473ZM131.75 32.579L131.201 31.1455L130.652 32.579H131.75Z" fill="#343438"/>
<path d="M135.218 31.8076C135.113 31.8076 135.022 31.8418 134.947 31.9102C134.872 31.9809 134.834 32.0648 134.834 32.1619C134.834 32.2524 134.86 32.3198 134.91 32.364C134.967 32.4081 135.102 32.4622 135.313 32.5259C135.602 32.6142 135.815 32.7125 135.954 32.8207C136.194 33.0106 136.314 33.282 136.314 33.6352C136.314 33.9462 136.207 34.2112 135.993 34.4295C135.78 34.6503 135.522 34.7608 135.218 34.7608C134.918 34.7608 134.66 34.6503 134.447 34.4295C134.233 34.211 134.127 33.9462 134.127 33.6352H134.834C134.834 33.7345 134.872 33.8195 134.947 33.8902C135.022 33.9586 135.113 33.9928 135.218 33.9928C135.326 33.9928 135.418 33.9586 135.493 33.8902C135.57 33.8195 135.609 33.7345 135.609 33.6352C135.609 33.5424 135.583 33.474 135.53 33.4298C135.471 33.3836 135.335 33.3286 135.121 33.2645C134.832 33.1762 134.619 33.078 134.483 32.9698C134.245 32.7821 134.126 32.5127 134.126 32.1619C134.126 31.8528 134.233 31.5882 134.447 31.3676C134.66 31.1489 134.918 31.0396 135.218 31.0396C135.521 31.0396 135.78 31.1489 135.993 31.3676C136.207 31.5884 136.313 31.8529 136.313 32.1619H135.609C135.609 32.0648 135.57 31.9809 135.493 31.9102C135.418 31.8418 135.326 31.8076 135.218 31.8076Z" fill="#343438"/>
<path d="M138.488 31.8076C138.382 31.8076 138.292 31.8418 138.216 31.9102C138.141 31.9809 138.103 32.0648 138.103 32.1619C138.103 32.2524 138.129 32.3198 138.18 32.364C138.237 32.4081 138.371 32.4622 138.582 32.5259C138.871 32.6142 139.084 32.7125 139.223 32.8207C139.463 33.0106 139.583 33.282 139.583 33.6352C139.583 33.9462 139.476 34.2112 139.263 34.4295C139.049 34.6503 138.791 34.7608 138.488 34.7608C138.187 34.7608 137.93 34.6503 137.716 34.4295C137.503 34.211 137.396 33.9462 137.396 33.6352H138.103C138.103 33.7345 138.141 33.8195 138.216 33.8902C138.291 33.9586 138.382 33.9928 138.488 33.9928C138.596 33.9928 138.687 33.9586 138.762 33.8902C138.84 33.8195 138.878 33.7345 138.878 33.6352C138.878 33.5424 138.852 33.474 138.799 33.4298C138.74 33.3836 138.604 33.3286 138.39 33.2645C138.101 33.1762 137.889 33.078 137.752 32.9698C137.515 32.7821 137.396 32.5127 137.396 32.1619C137.396 31.8528 137.502 31.5882 137.716 31.3676C137.93 31.1489 138.187 31.0396 138.488 31.0396C138.791 31.0396 139.049 31.1489 139.263 31.3676C139.476 31.5884 139.583 31.8529 139.583 32.1619H138.878C138.878 32.0648 138.839 31.9809 138.762 31.9102C138.687 31.8418 138.596 31.8076 138.488 31.8076Z" fill="#343438"/>
<path d="M143.753 33.9363C143.613 34.1703 143.43 34.3592 143.204 34.5025C142.941 34.6744 142.658 34.7608 142.353 34.7608C141.887 34.7608 141.489 34.5786 141.16 34.2145C140.83 33.8527 140.666 33.4144 140.666 32.9001C140.666 32.3859 140.83 31.9479 141.16 31.5859C141.489 31.2219 141.887 31.0396 142.353 31.0396C142.816 31.0396 143.214 31.2219 143.545 31.5859C143.875 31.9477 144.04 32.3859 144.04 32.9001V33.2148H141.434C141.491 33.4555 141.609 33.6487 141.788 33.794C141.957 33.9265 142.145 33.9928 142.353 33.9928C142.692 33.9928 142.955 33.8461 143.14 33.5525L143.753 33.9363ZM143.271 32.516C143.2 32.3065 143.082 32.1366 142.917 32.0064C142.748 31.8739 142.56 31.8076 142.353 31.8076C142.145 31.8076 141.957 31.8739 141.788 32.0064C141.623 32.1366 141.505 32.3064 141.434 32.516H143.271Z" fill="#343438"/>
<path d="M146.159 31.0761H146.614V31.8276H146.159V34.7243H145.467V31.8276H145.015V31.0761H145.467V29.8909H146.159V31.0761Z" fill="#343438"/>
<path d="M148.681 31.8076C148.575 31.8076 148.485 31.8418 148.409 31.9102C148.334 31.9809 148.297 32.0648 148.297 32.1619C148.297 32.2524 148.322 32.3198 148.373 32.364C148.43 32.4081 148.564 32.4622 148.776 32.5259C149.064 32.6142 149.278 32.7125 149.416 32.8207C149.656 33.0106 149.776 33.282 149.776 33.6352C149.776 33.9462 149.67 34.2112 149.456 34.4295C149.242 34.6503 148.984 34.7608 148.681 34.7608C148.38 34.7608 148.123 34.6503 147.909 34.4295C147.696 34.211 147.589 33.9462 147.589 33.6352H148.297C148.297 33.7345 148.334 33.8195 148.409 33.8902C148.485 33.9586 148.575 33.9928 148.681 33.9928C148.789 33.9928 148.88 33.9586 148.956 33.8902C149.033 33.8195 149.072 33.7345 149.072 33.6352C149.072 33.5424 149.045 33.474 148.992 33.4298C148.933 33.3836 148.797 33.3286 148.583 33.2645C148.295 33.1762 148.082 33.078 147.946 32.9698C147.708 32.7821 147.589 32.5127 147.589 32.1619C147.589 31.8528 147.696 31.5882 147.909 31.3676C148.123 31.1489 148.38 31.0396 148.681 31.0396C148.984 31.0396 149.242 31.1489 149.456 31.3676C149.669 31.5884 149.776 31.8529 149.776 32.1619H149.071C149.071 32.0648 149.033 31.9809 148.955 31.9102C148.88 31.8418 148.789 31.8076 148.681 31.8076Z" fill="#343438"/>
<path d="M153.735 29.8908H156.471V30.6423H154.427V31.9268H156.471V32.6783H154.427V33.9761H156.471V34.7243H153.735V29.8908Z" fill="#343438"/>
<path d="M160.25 34.7243L159.243 33.4796L158.246 34.7243H157.331L158.786 32.9068L157.325 31.0762H158.24L159.243 32.3342L160.256 31.0762H161.175L159.704 32.9068L161.171 34.7243H160.25Z" fill="#343438"/>
<path d="M163.669 31.8076C163.399 31.8076 163.168 31.9135 162.977 32.1256C162.786 32.3397 162.69 32.5978 162.69 32.8999C162.69 33.2026 162.786 33.4605 162.977 33.6747C163.168 33.8867 163.399 33.9927 163.669 33.9927C164.001 33.9927 164.265 33.8436 164.462 33.5455L165.039 33.9893C164.699 34.5035 164.243 34.7608 163.669 34.7608C163.203 34.7608 162.806 34.5786 162.476 34.2145C162.147 33.8527 161.982 33.4144 161.982 32.9001C161.982 32.3859 162.147 31.9479 162.476 31.5859C162.806 31.2219 163.203 31.0396 163.669 31.0396C164.243 31.0396 164.699 31.2969 165.039 31.8111L164.462 32.2549C164.265 31.9566 164.001 31.8076 163.669 31.8076Z" fill="#343438"/>
<path d="M167.701 31.0362C168.129 31.0362 168.493 31.2151 168.796 31.5725C169.101 31.928 169.254 32.3572 169.254 32.8603V34.7241H168.561V32.8603C168.561 32.5645 168.477 32.312 168.308 32.1022C168.142 31.8924 167.939 31.7875 167.701 31.7875C167.465 31.7875 167.263 31.8924 167.094 32.1022C166.927 32.312 166.844 32.5645 166.844 32.8603V34.7241H166.152V29.8906H166.844V31.3407C167.105 31.1377 167.39 31.0362 167.701 31.0362Z" fill="#343438"/>
<path d="M173.722 34.7243H173.015V34.4096C172.722 34.6437 172.396 34.7608 172.036 34.7608C171.57 34.7608 171.172 34.5786 170.843 34.2145C170.513 33.8527 170.349 33.4144 170.349 32.9001C170.349 32.3859 170.513 31.9479 170.843 31.5859C171.172 31.2219 171.57 31.0396 172.036 31.0396C172.396 31.0396 172.722 31.1555 173.015 31.3871V31.0761H173.722V34.7243ZM172.036 33.9927C172.304 33.9927 172.535 33.8867 172.728 33.6747C172.919 33.4605 173.015 33.2026 173.015 32.8999C173.015 32.5978 172.919 32.3395 172.728 32.1256C172.535 31.9135 172.304 31.8076 172.036 31.8076C171.765 31.8076 171.533 31.9135 171.34 32.1256C171.151 32.3397 171.056 32.5978 171.056 32.8999C171.056 33.2026 171.151 33.4605 171.34 33.6747C171.533 33.8867 171.765 33.9927 172.036 33.9927Z" fill="#343438"/>
<path d="M176.538 31.0031C176.965 31.0031 177.33 31.1819 177.633 31.5394C177.935 31.8949 178.087 32.3241 178.087 32.8272V34.7242H177.398V32.8272C177.398 32.5314 177.313 32.2789 177.145 32.0691C176.976 31.8593 176.773 31.7544 176.538 31.7544C176.302 31.7544 176.099 31.8593 175.93 32.0691C175.764 32.2789 175.68 32.5314 175.68 32.8272V34.7242H174.988V31.076H175.68V31.3078C175.939 31.1046 176.224 31.0031 176.538 31.0031Z" fill="#343438"/>
<path d="M179.954 34.5653C180.029 34.7442 180.141 34.891 180.289 35.0057C180.46 35.1334 180.627 35.1975 180.79 35.1975C181.009 35.1975 181.2 35.0959 181.363 34.8931C181.511 34.7076 181.595 34.4769 181.613 34.2011C181.355 34.3866 181.072 34.4793 180.765 34.4793C180.334 34.4793 179.966 34.3116 179.661 33.9761C179.356 33.6405 179.204 33.2356 179.204 32.7612C179.204 32.2867 179.356 31.8816 179.661 31.5462C179.966 31.2109 180.334 31.043 180.765 31.043C181.075 31.043 181.358 31.1369 181.616 31.3245V31.0728H182.324V34.1384C182.316 34.6613 182.16 35.0961 181.857 35.4427C181.554 35.7916 181.198 35.9657 180.79 35.9657C180.481 35.9657 180.18 35.8554 179.887 35.6348C179.616 35.4294 179.418 35.1648 179.292 34.8402L179.954 34.5653ZM180.765 33.7145C181.001 33.7145 181.202 33.6218 181.369 33.4363C181.536 33.2487 181.619 33.0237 181.619 32.7611C181.619 32.4982 181.536 32.2741 181.369 32.089C181.202 31.9034 181.001 31.8108 180.765 31.8108C180.529 31.8108 180.328 31.9034 180.161 32.089C179.994 32.2743 179.911 32.4982 179.911 32.7611C179.911 33.0235 179.994 33.2476 180.161 33.433C180.328 33.6206 180.529 33.7145 180.765 33.7145Z" fill="#343438"/>
<path d="M186.57 33.9363C186.429 34.1703 186.246 34.3592 186.021 34.5025C185.758 34.6744 185.474 34.7608 185.169 34.7608C184.704 34.7608 184.306 34.5786 183.977 34.2145C183.647 33.8527 183.483 33.4144 183.483 32.9001C183.483 32.3859 183.647 31.9479 183.977 31.5859C184.306 31.2219 184.704 31.0396 185.169 31.0396C185.633 31.0396 186.031 31.2219 186.362 31.5859C186.692 31.9477 186.856 32.3859 186.856 32.9001V33.2148H184.251C184.308 33.4555 184.426 33.6487 184.605 33.794C184.774 33.9265 184.962 33.9928 185.169 33.9928C185.509 33.9928 185.771 33.8461 185.956 33.5525L186.57 33.9363ZM186.088 32.516C186.016 32.3065 185.899 32.1366 185.734 32.0064C185.565 31.8739 185.377 31.8076 185.169 31.8076C184.962 31.8076 184.773 31.8739 184.605 32.0064C184.44 32.1366 184.322 32.3064 184.251 32.516H186.088Z" fill="#343438"/>
<path d="M191.467 29.9786C191.541 30.0592 191.577 30.1569 191.577 30.2714C191.577 30.3863 191.541 30.484 191.467 30.5643C191.394 30.6449 191.304 30.6852 191.196 30.6852C191.09 30.6852 191 30.6449 190.926 30.5643C190.852 30.4838 190.815 30.3861 190.815 30.2714C190.815 30.1569 190.852 30.0592 190.926 29.9786C191 29.8979 191.09 29.8578 191.196 29.8578C191.304 29.858 191.394 29.8979 191.467 29.9786ZM190.848 34.7243H191.541V31.0762H190.848V34.7243Z" fill="#343438"/>
<path d="M194.423 31.0031C194.85 31.0031 195.215 31.1819 195.518 31.5394C195.821 31.8949 195.973 32.3241 195.973 32.8272V34.7242H195.283V32.8272C195.283 32.5314 195.199 32.2789 195.03 32.0691C194.861 31.8593 194.659 31.7544 194.423 31.7544C194.187 31.7544 193.985 31.8593 193.816 32.0691C193.649 32.2789 193.566 32.5314 193.566 32.8272V34.7242H192.873V31.076H193.566V31.3078C193.824 31.1046 194.11 31.0031 194.423 31.0031Z" fill="#343438"/>
<path d="M200.13 29.8908H200.819V34.7243H200.13V29.8908Z" fill="#343438"/>
<path d="M203.756 31.0031C204.183 31.0031 204.548 31.1819 204.851 31.5394C205.154 31.8949 205.305 32.3241 205.305 32.8272V34.7242H204.616V32.8272C204.616 32.5314 204.532 32.2789 204.363 32.0691C204.194 31.8593 203.992 31.7544 203.756 31.7544C203.52 31.7544 203.318 31.8593 203.149 32.0691C202.982 32.2789 202.899 32.5314 202.899 32.8272V34.7242H202.206V31.076H202.899V31.3078C203.157 31.1046 203.443 31.0031 203.756 31.0031Z" fill="#343438"/>
<path d="M209.866 34.7277H209.158V34.4196C208.865 34.6559 208.539 34.7741 208.179 34.7741C207.713 34.7741 207.315 34.5908 206.986 34.2245C206.656 33.8627 206.492 33.4255 206.492 32.9134C206.492 32.3993 206.656 31.9612 206.986 31.5992C207.315 31.2352 207.713 31.053 208.179 31.053C208.539 31.053 208.865 31.1689 209.158 31.4005V29.8908H209.866V34.7277ZM208.179 34.006C208.447 34.006 208.678 33.8988 208.871 33.6847C209.062 33.4705 209.158 33.2136 209.158 32.9133C209.158 32.6108 209.062 32.3527 208.871 32.1385C208.678 31.9247 208.447 31.8176 208.179 31.8176C207.908 31.8176 207.676 31.9247 207.483 32.1385C207.294 32.3527 207.199 32.6108 207.199 32.9133C207.199 33.2136 207.294 33.4705 207.483 33.6847C207.676 33.8988 207.908 34.006 208.179 34.006Z" fill="#343438"/>
<path d="M212.711 31.0395C213.175 31.0395 213.572 31.2217 213.904 31.5858C214.233 31.9476 214.398 32.3858 214.398 32.9C214.398 33.4145 214.233 33.8525 213.904 34.2143C213.572 34.5784 213.175 34.7606 212.711 34.7606C212.245 34.7606 211.847 34.5784 211.518 34.2143C211.189 33.8525 211.024 33.4143 211.024 32.9C211.024 32.3858 211.189 31.9477 211.518 31.5858C211.848 31.2217 212.245 31.0395 212.711 31.0395ZM212.711 33.9927C212.979 33.9927 213.21 33.8867 213.403 33.6747C213.594 33.4605 213.69 33.2026 213.69 32.9C213.69 32.5978 213.594 32.3395 213.403 32.1256C213.21 31.9135 212.98 31.8076 212.711 31.8076C212.44 31.8076 212.208 31.9135 212.015 32.1256C211.826 32.3397 211.732 32.5978 211.732 32.9C211.732 33.2026 211.826 33.4605 212.015 33.6747C212.209 33.8867 212.441 33.9927 212.711 33.9927Z" fill="#343438"/>
<path d="M217.137 31.0031C217.564 31.0031 217.929 31.1819 218.232 31.5394C218.535 31.8949 218.686 32.3241 218.686 32.8272V34.7242H217.997V32.8272C217.997 32.5314 217.913 32.2789 217.744 32.0691C217.575 31.8593 217.373 31.7544 217.137 31.7544C216.901 31.7544 216.699 31.8593 216.53 32.0691C216.363 32.2789 216.28 32.5314 216.28 32.8272V34.7242H215.587V31.076H216.28V31.3078C216.538 31.1046 216.824 31.0031 217.137 31.0031Z" fill="#343438"/>
<path d="M222.963 33.9363C222.822 34.1703 222.639 34.3592 222.414 34.5025C222.151 34.6744 221.867 34.7608 221.563 34.7608C221.097 34.7608 220.699 34.5786 220.37 34.2145C220.04 33.8527 219.876 33.4144 219.876 32.9001C219.876 32.3859 220.04 31.9479 220.37 31.5859C220.699 31.2219 221.097 31.0396 221.563 31.0396C222.026 31.0396 222.424 31.2219 222.755 31.5859C223.085 31.9477 223.25 32.3859 223.25 32.9001V33.2148H220.644C220.701 33.4555 220.819 33.6487 220.998 33.794C221.167 33.9265 221.355 33.9928 221.563 33.9928C221.902 33.9928 222.164 33.8461 222.349 33.5525L222.963 33.9363ZM222.481 32.516C222.409 32.3065 222.292 32.1366 222.127 32.0064C221.958 31.8739 221.77 31.8076 221.562 31.8076C221.355 31.8076 221.167 31.8739 220.998 32.0064C220.833 32.1366 220.715 32.3064 220.644 32.516H222.481Z" fill="#343438"/>
<path d="M225.424 31.8076C225.318 31.8076 225.228 31.8418 225.152 31.9102C225.077 31.9809 225.039 32.0648 225.039 32.1619C225.039 32.2524 225.065 32.3198 225.116 32.364C225.173 32.4081 225.307 32.4622 225.518 32.5259C225.807 32.6142 226.02 32.7125 226.159 32.8207C226.399 33.0106 226.519 33.282 226.519 33.6352C226.519 33.9462 226.412 34.2112 226.199 34.4295C225.985 34.6503 225.727 34.7608 225.424 34.7608C225.123 34.7608 224.866 34.6503 224.652 34.4295C224.439 34.211 224.332 33.9462 224.332 33.6352H225.039C225.039 33.7345 225.077 33.8195 225.152 33.8902C225.227 33.9586 225.318 33.9928 225.424 33.9928C225.532 33.9928 225.623 33.9586 225.698 33.8902C225.776 33.8195 225.814 33.7345 225.814 33.6352C225.814 33.5424 225.788 33.474 225.735 33.4298C225.676 33.3836 225.54 33.3286 225.326 33.2645C225.037 33.1762 224.825 33.078 224.688 32.9698C224.451 32.7821 224.332 32.5127 224.332 32.1619C224.332 31.8528 224.438 31.5882 224.652 31.3676C224.866 31.1489 225.123 31.0396 225.424 31.0396C225.727 31.0396 225.985 31.1489 226.198 31.3676C226.412 31.5884 226.519 31.8529 226.519 32.1619H225.814C225.814 32.0648 225.775 31.9809 225.698 31.9102C225.623 31.8418 225.532 31.8076 225.424 31.8076Z" fill="#343438"/>
<path d="M228.361 29.9786C228.434 30.0592 228.471 30.1569 228.471 30.2714C228.471 30.3863 228.434 30.484 228.361 30.5643C228.287 30.6449 228.197 30.6852 228.089 30.6852C227.984 30.6852 227.894 30.6449 227.819 30.5643C227.745 30.4838 227.708 30.3861 227.708 30.2714C227.708 30.1569 227.745 30.0592 227.819 29.9786C227.893 29.8979 227.984 29.8578 228.089 29.8578C228.197 29.858 228.288 29.8979 228.361 29.9786ZM227.742 34.7243H228.434V31.0762H227.742V34.7243Z" fill="#343438"/>
<path d="M233 34.7243H232.293V34.4096C232 34.6437 231.673 34.7608 231.313 34.7608C230.848 34.7608 230.45 34.5786 230.12 34.2145C229.791 33.8527 229.626 33.4144 229.626 32.9001C229.626 32.3859 229.791 31.9479 230.12 31.5859C230.45 31.2219 230.847 31.0396 231.313 31.0396C231.673 31.0396 232 31.1555 232.293 31.3871V31.0761H233V34.7243ZM231.313 33.9927C231.581 33.9927 231.812 33.8867 232.006 33.6747C232.197 33.4605 232.292 33.2026 232.292 32.8999C232.292 32.5978 232.197 32.3395 232.006 32.1256C231.812 31.9135 231.581 31.8076 231.313 31.8076C231.043 31.8076 230.811 31.9135 230.617 32.1256C230.428 32.3397 230.334 32.5978 230.334 32.8999C230.334 33.2026 230.428 33.4605 230.617 33.6747C230.811 33.8867 231.043 33.9927 231.313 33.9927Z" fill="#343438"/>
<defs>
<linearGradient id="paint0_linear" x1="27.3835" y1="20.8054" x2="51.0487" y2="20.8054" gradientUnits="userSpaceOnUse">
<stop stop-color="#2C2A60"/>
<stop offset="1" stop-color="#65A8DE"/>
</linearGradient>
<linearGradient id="paint1_linear" x1="18" y1="21.8151" x2="33.0994" y2="21.8151" gradientUnits="userSpaceOnUse">
<stop stop-color="#2C2A60"/>
<stop offset="1" stop-color="#65A8DE"/>
</linearGradient>
<linearGradient id="paint2_linear" x1="54.0767" y1="18.0046" x2="65.3054" y2="18.0046" gradientUnits="userSpaceOnUse">
<stop stop-color="#2C2A60"/>
<stop offset="1" stop-color="#65A8DE"/>
</linearGradient>
<linearGradient id="paint3_linear" x1="67.4237" y1="17.8786" x2="69.9716" y2="17.8786" gradientUnits="userSpaceOnUse">
<stop stop-color="#2C2A60"/>
<stop offset="1" stop-color="#65A8DE"/>
</linearGradient>
<linearGradient id="paint4_linear" x1="71.601" y1="21.6042" x2="81.9853" y2="21.6042" gradientUnits="userSpaceOnUse">
<stop stop-color="#2C2A60"/>
<stop offset="1" stop-color="#65A8DE"/>
</linearGradient>
<linearGradient id="paint5_linear" x1="84.1185" y1="17.8786" x2="86.6664" y2="17.8786" gradientUnits="userSpaceOnUse">
<stop stop-color="#2C2A60"/>
<stop offset="1" stop-color="#65A8DE"/>
</linearGradient>
<linearGradient id="paint6_linear" x1="88.1774" y1="17.9231" x2="93.4954" y2="17.9231" gradientUnits="userSpaceOnUse">
<stop stop-color="#2C2A60"/>
<stop offset="1" stop-color="#65A8DE"/>
</linearGradient>
<linearGradient id="paint7_linear" x1="94.5472" y1="19.7525" x2="105.776" y2="19.7525" gradientUnits="userSpaceOnUse">
<stop stop-color="#2C2A60"/>
<stop offset="1" stop-color="#65A8DE"/>
</linearGradient>
<linearGradient id="paint8_linear" x1="108.205" y1="17.9305" x2="110.501" y2="17.9305" gradientUnits="userSpaceOnUse">
<stop stop-color="#2C2A60"/>
<stop offset="1" stop-color="#65A8DE"/>
</linearGradient>
<linearGradient id="paint9_linear" x1="111.637" y1="19.7969" x2="122.866" y2="19.7969" gradientUnits="userSpaceOnUse">
<stop stop-color="#2C2A60"/>
<stop offset="1" stop-color="#65A8DE"/>
</linearGradient>
<linearGradient id="paint10_linear" x1="123.473" y1="19.8044" x2="136.272" y2="19.8044" gradientUnits="userSpaceOnUse">
<stop stop-color="#2C2A60"/>
<stop offset="1" stop-color="#65A8DE"/>
</linearGradient>
<linearGradient id="paint11_linear" x1="136.864" y1="19.8117" x2="147.041" y2="19.8117" gradientUnits="userSpaceOnUse">
<stop stop-color="#2C2A60"/>
<stop offset="1" stop-color="#65A8DE"/>
</linearGradient>
<linearGradient id="paint12_linear" x1="148.7" y1="17.9897" x2="158.996" y2="17.9897" gradientUnits="userSpaceOnUse">
<stop stop-color="#2C2A60"/>
<stop offset="1" stop-color="#65A8DE"/>
</linearGradient>
<linearGradient id="paint13_linear" x1="160.551" y1="19.8118" x2="171.78" y2="19.8118" gradientUnits="userSpaceOnUse">
<stop stop-color="#2C2A60"/>
<stop offset="1" stop-color="#65A8DE"/>
</linearGradient>
<linearGradient id="paint14_linear" x1="173.928" y1="19.6933" x2="184.223" y2="19.6933" gradientUnits="userSpaceOnUse">
<stop stop-color="#2C2A60"/>
<stop offset="1" stop-color="#65A8DE"/>
</linearGradient>
<linearGradient id="paint15_linear" x1="185.852" y1="21.6783" x2="196.237" y2="21.6783" gradientUnits="userSpaceOnUse">
<stop stop-color="#2C2A60"/>
<stop offset="1" stop-color="#65A8DE"/>
</linearGradient>
<linearGradient id="paint16_linear" x1="198.014" y1="19.7969" x2="209.243" y2="19.7969" gradientUnits="userSpaceOnUse">
<stop stop-color="#2C2A60"/>
<stop offset="1" stop-color="#65A8DE"/>
</linearGradient>
<linearGradient id="paint17_linear" x1="216.81" y1="17.9913" x2="219.404" y2="17.9913" gradientUnits="userSpaceOnUse">
<stop stop-color="#2C2A60"/>
<stop offset="1" stop-color="#65A8DE"/>
</linearGradient>
<linearGradient id="paint18_linear" x1="221.314" y1="18.121" x2="232.79" y2="18.121" gradientUnits="userSpaceOnUse">
<stop stop-color="#2C2A60"/>
<stop offset="1" stop-color="#65A8DE"/>
</linearGradient>
<linearGradient id="paint19_linear" x1="211.789" y1="24.0784" x2="214.759" y2="24.0784" gradientUnits="userSpaceOnUse">
<stop stop-color="#2C2A60"/>
<stop offset="1" stop-color="#65A8DE"/>
</linearGradient>
</defs>
</svg>
