<svg width="21" height="22" viewBox="0 0 21 22" fill="none" xmlns="http://www.w3.org/2000/svg">
<path d="M12.5586 12.7871C12.5586 12.7871 12.3157 12.5001 12.1133 12.2465C12.6021 12.133 13.0346 11.8512 13.3337 11.453C13.0916 11.6132 12.8314 11.7452 12.5586 11.846C12.2452 11.9788 11.9169 12.0752 11.5811 12.133C11.0039 12.2383 10.4117 12.2361 9.83523 12.1264C9.49715 12.0611 9.16507 11.9654 8.84424 11.8401C8.67557 11.7756 8.51141 11.6999 8.35249 11.6132C8.33225 11.5998 8.31201 11.5932 8.29177 11.5798C8.28203 11.5746 8.27228 11.5679 8.26479 11.5598C8.14335 11.493 8.07588 11.4463 8.07588 11.4463C8.36448 11.8371 8.78202 12.1152 9.25578 12.2331C9.05338 12.4868 8.80451 12.7871 8.80451 12.7871C7.99118 12.8079 7.22057 12.4289 6.74832 11.7734C6.77005 10.4215 7.10213 9.09256 7.71907 7.88601C8.26179 7.46331 8.9237 7.21933 9.61334 7.18522L9.68006 7.26605C9.03164 7.42475 8.4267 7.72286 7.90797 8.13889C7.90797 8.13889 8.05564 8.0588 8.30527 7.94608C8.78952 7.72731 9.306 7.58493 9.83523 7.5256C9.87346 7.51819 9.91169 7.51374 9.94992 7.51225C10.4019 7.45441 10.8592 7.44996 11.312 7.4989C12.0234 7.57974 12.713 7.79702 13.3404 8.13889C12.8479 7.74214 12.276 7.45441 11.662 7.292L11.7565 7.18522C12.4461 7.21933 13.108 7.46405 13.6508 7.88601C14.2677 9.09256 14.5998 10.4215 14.6215 11.7734C14.1455 12.4282 13.3734 12.8071 12.5586 12.7871ZM15.1605 4.078H6.12838C5.36303 4.08023 4.7446 4.695 4.7461 5.45141V14.4675C4.7446 15.2239 5.36303 15.8387 6.12838 15.8409H13.7722L13.4146 14.6069L14.2774 15.4004L15.093 16.1472L16.542 17.4146V5.45141C16.5443 4.695 15.9258 4.08023 15.1605 4.078ZM11.8847 9.67321C11.4716 9.63836 11.1081 9.94166 11.0728 10.3503C11.0376 10.7589 11.3442 11.1185 11.758 11.1534C12.171 11.1883 12.5346 10.885 12.5691 10.4756C12.5713 10.4541 12.5721 10.4333 12.5721 10.4133C12.5893 10.021 12.2812 9.68953 11.8854 9.67321H11.8847ZM9.42444 9.67321C9.04289 9.67321 8.73404 9.97874 8.73404 10.3555C8.73404 10.7322 9.04289 11.0385 9.42444 11.0385C9.80524 11.0385 10.1141 10.7322 10.1141 10.3555C10.1141 9.97874 9.80524 9.67321 9.42444 9.67321Z" fill="#98A7B9"/>
</svg>
