<svg width="13" height="17" viewBox="0 0 13 17" fill="none" xmlns="http://www.w3.org/2000/svg">
<path d="M8.3242 11.3041C8.3242 11.3041 8.08133 10.9547 7.87893 10.646C8.36768 10.5078 8.80021 10.1648 9.0993 9.67997C8.85718 9.87497 8.59706 10.0357 8.3242 10.1584C8.01086 10.32 7.68253 10.4374 7.3467 10.5078C6.7695 10.636 6.17731 10.6333 5.60085 10.4997C5.26278 10.4203 4.9307 10.3038 4.60986 10.1512C4.4412 10.0727 4.27703 9.98059 4.11812 9.87497C4.09788 9.85872 4.07764 9.85059 4.0574 9.83434C4.04765 9.82802 4.03791 9.8199 4.03041 9.80997C3.90897 9.72872 3.84151 9.67184 3.84151 9.67184C4.13011 10.1476 4.54764 10.4862 5.0214 10.6297C4.81901 10.9385 4.57013 11.3041 4.57013 11.3041C3.7568 11.3294 2.9862 10.868 2.51394 10.07C2.53568 8.42418 2.86776 6.80638 3.48469 5.33754C4.02741 4.82295 4.68932 4.52593 5.37897 4.4844L5.44568 4.58281C4.79727 4.77601 4.19233 5.13893 3.67359 5.64539C3.67359 5.64539 3.82127 5.54789 4.07089 5.41067C4.55514 5.14434 5.07163 4.97101 5.60085 4.89879C5.63908 4.88976 5.67731 4.88434 5.71554 4.88253C6.16756 4.81212 6.62483 4.8067 7.07759 4.86628C7.78898 4.96469 8.47862 5.22921 9.10605 5.64539C8.61355 5.1624 8.0416 4.81212 7.42766 4.61441L7.52211 4.4844C8.21176 4.52593 8.87367 4.82385 9.41639 5.33754C10.0333 6.80638 10.3654 8.42418 10.3871 10.07C9.91113 10.8671 9.13903 11.3285 8.3242 11.3041ZM10.9261 0.70171H1.89401C1.12865 0.704418 0.510222 1.45283 0.511721 2.37368V13.3498C0.510222 14.2707 1.12865 15.0191 1.89401 15.0218H9.53783L9.18026 13.5195L10.0431 14.4855L10.8586 15.3946L12.3077 16.9375V2.37368C12.3099 1.45283 11.6915 0.704418 10.9261 0.70171ZM7.6503 7.51327C7.23726 7.47084 6.8737 7.84008 6.83847 8.33751C6.80323 8.83495 7.10983 9.27281 7.52361 9.31524C7.93665 9.35767 8.30021 8.98843 8.3347 8.49009C8.33694 8.46391 8.33769 8.43863 8.33769 8.41425C8.35494 7.93668 8.04684 7.53313 7.65105 7.51327H7.6503ZM5.19006 7.51327C4.80851 7.51327 4.49967 7.88522 4.49967 8.34383C4.49967 8.80245 4.80851 9.17531 5.19006 9.17531C5.57087 9.17531 5.87971 8.80245 5.87971 8.34383C5.87971 7.88522 5.57087 7.51327 5.19006 7.51327Z" fill="#98A7B9"/>
</svg>
