<svg width="32" height="37" viewBox="0 0 32 37" fill="none" xmlns="http://www.w3.org/2000/svg">
<path d="M20.844 24.3042C20.844 24.3042 20.196 23.5302 19.656 22.8462C20.96 22.5402 22.114 21.7802 22.912 20.7062C22.266 21.1382 21.572 21.4942 20.844 21.7662C20.008 22.1242 19.132 22.3842 18.236 22.5402C16.696 22.8242 15.116 22.8182 13.578 22.5222C12.676 22.3462 11.79 22.0882 10.934 21.7502C10.484 21.5762 10.046 21.3722 9.62201 21.1382C9.56801 21.1022 9.51401 21.0842 9.46001 21.0482C9.43401 21.0342 9.40801 21.0162 9.38801 20.9942C9.06401 20.8142 8.88401 20.6882 8.88401 20.6882C9.65401 21.7422 10.768 22.4922 12.032 22.8102C11.492 23.4942 10.828 24.3042 10.828 24.3042C8.65801 24.3602 6.60201 23.3382 5.34201 21.5702C5.40001 17.9242 6.28601 14.3402 7.93201 11.0862C9.38001 9.94618 11.146 9.28818 12.986 9.19618L13.164 9.41418C11.434 9.84218 9.82001 10.6462 8.43601 11.7682C8.43601 11.7682 8.83001 11.5522 9.49601 11.2482C10.788 10.6582 12.166 10.2742 13.578 10.1142C13.68 10.0942 13.782 10.0822 13.884 10.0782C15.09 9.92218 16.31 9.91018 17.518 10.0422C19.416 10.2602 21.256 10.8462 22.93 11.7682C21.616 10.6982 20.09 9.92218 18.452 9.48418L18.704 9.19618C20.544 9.28818 22.31 9.94818 23.758 11.0862C25.404 14.3402 26.29 17.9242 26.348 21.5702C25.078 23.3362 23.018 24.3582 20.844 24.3042ZM27.786 0.816177H3.68801C1.64601 0.822178 -0.00399274 2.48018 7.25737e-06 4.52018V28.8362C-0.00399274 30.8762 1.64601 32.5342 3.68801 32.5402H24.082L23.128 29.2122L25.43 31.3522L27.606 33.3662L31.472 36.7842V4.52018C31.478 2.48018 29.828 0.822178 27.786 0.816177ZM19.046 15.9062C17.944 15.8122 16.974 16.6302 16.88 17.7322C16.786 18.8342 17.604 19.8042 18.708 19.8982C19.81 19.9922 20.78 19.1742 20.872 18.0702C20.878 18.0122 20.88 17.9562 20.88 17.9022C20.926 16.8442 20.104 15.9502 19.048 15.9062H19.046ZM12.482 15.9062C11.464 15.9062 10.64 16.7302 10.64 17.7462C10.64 18.7622 11.464 19.5882 12.482 19.5882C13.498 19.5882 14.322 18.7622 14.322 17.7462C14.322 16.7302 13.498 15.9062 12.482 15.9062Z" fill="black"/>
</svg>
