<?xml version="1.0" encoding="UTF-8"?><svg id="Layer_1" xmlns="http://www.w3.org/2000/svg" viewBox="0 0 1062 202.03"><path d="m506.58,88.15c-1.02-4.29-2.66-8.11-4.89-11.47-2.25-3.36-5.17-6.05-8.77-8.04-3.62-2.01-8-3-13.16-3s-9.56,1-13.16,3c-3.62,1.99-6.54,4.68-8.77,8.04-2.25,3.36-3.88,7.18-4.9,11.47-1.02,4.29-1.53,8.72-1.53,13.3s.51,8.65,1.53,12.8c1.02,4.13,2.66,7.87,4.9,11.18,2.23,3.31,5.16,5.97,8.77,7.97,3.6,1.99,7.99,2.99,13.16,2.99s9.54-1,13.16-2.99c3.6-2.01,6.53-4.67,8.77-7.97,2.23-3.31,3.87-7.04,4.89-11.18,1.02-4.15,1.54-8.41,1.54-12.8s-.52-9.01-1.54-13.3Zm0,0c-1.02-4.29-2.66-8.11-4.89-11.47-2.25-3.36-5.17-6.05-8.77-8.04-3.62-2.01-8-3-13.16-3s-9.56,1-13.16,3c-3.62,1.99-6.54,4.68-8.77,8.04-2.25,3.36-3.88,7.18-4.9,11.47-1.02,4.29-1.53,8.72-1.53,13.3s.51,8.65,1.53,12.8c1.02,4.13,2.66,7.87,4.9,11.18,2.23,3.31,5.16,5.97,8.77,7.97,3.6,1.99,7.99,2.99,13.16,2.99s9.54-1,13.16-2.99c3.6-2.01,6.53-4.67,8.77-7.97,2.23-3.31,3.87-7.04,4.89-11.18,1.02-4.15,1.54-8.41,1.54-12.8s-.52-9.01-1.54-13.3Zm0,0c-1.02-4.29-2.66-8.11-4.89-11.47-2.25-3.36-5.17-6.05-8.77-8.04-3.62-2.01-8-3-13.16-3s-9.56,1-13.16,3c-3.62,1.99-6.54,4.68-8.77,8.04-2.25,3.36-3.88,7.18-4.9,11.47-1.02,4.29-1.53,8.72-1.53,13.3s.51,8.65,1.53,12.8c1.02,4.13,2.66,7.87,4.9,11.18,2.23,3.31,5.16,5.97,8.77,7.97,3.6,1.99,7.99,2.99,13.16,2.99s9.54-1,13.16-2.99c3.6-2.01,6.53-4.67,8.77-7.97,2.23-3.31,3.87-7.04,4.89-11.18,1.02-4.15,1.54-8.41,1.54-12.8s-.52-9.01-1.54-13.3Zm0,0c-1.02-4.29-2.66-8.11-4.89-11.47-2.25-3.36-5.17-6.05-8.77-8.04-3.62-2.01-8-3-13.16-3s-9.56,1-13.16,3c-3.62,1.99-6.54,4.68-8.77,8.04-2.25,3.36-3.88,7.18-4.9,11.47-1.02,4.29-1.53,8.72-1.53,13.3s.51,8.65,1.53,12.8c1.02,4.13,2.66,7.87,4.9,11.18,2.23,3.31,5.16,5.97,8.77,7.97,3.6,1.99,7.99,2.99,13.16,2.99s9.54-1,13.16-2.99c3.6-2.01,6.53-4.67,8.77-7.97,2.23-3.31,3.87-7.04,4.89-11.18,1.02-4.15,1.54-8.41,1.54-12.8s-.52-9.01-1.54-13.3ZM0,0v202.03h1062V0H0Zm266.88,153.21h-79.24V48.82h78.07v19.3h-55.12v22.37h50.59v17.84h-50.59v25.59h56.29v19.3Zm93.28,0h-25.88l-33.77-104.39h23.54l23.25,73.4h.29l23.54-73.4h23.69l-34.65,104.39Zm167.41-30.48c-2.34,6.58-5.72,12.29-10.09,17.17-4.39,4.88-9.76,8.71-16.08,11.48-6.34,2.78-13.56,4.16-21.64,4.16s-15.19-1.38-21.57-4.16c-6.38-2.78-11.76-6.61-16.15-11.48-4.39-4.88-7.75-10.59-10.09-17.17-2.34-6.58-3.51-13.68-3.51-21.28s1.17-15.03,3.51-21.71c2.34-6.69,5.7-12.51,10.09-17.48s9.77-8.87,16.15-11.7c6.38-2.83,13.57-4.24,21.57-4.24s15.3,1.41,21.64,4.24c6.33,2.83,11.7,6.73,16.08,11.7,4.37,4.97,7.75,10.79,10.09,17.48,2.33,6.67,3.51,13.9,3.51,21.71s-1.18,14.7-3.51,21.28Zm122.23,30.48h-73.83V48.82h22.95v85.09h50.88v19.3Zm77.2,0h-25.89l-33.76-104.39h23.54l23.23,73.4h.31l23.54-73.4h23.67l-34.64,104.39Zm152.04,0h-79.24V48.82h78.07v19.3h-55.12v22.37h50.59v17.84h-50.59v25.59h56.29v19.3Zm-377.35-76.53c-2.25-3.36-5.17-6.05-8.77-8.04-3.62-2.01-8-3-13.16-3s-9.56,1-13.16,3c-3.62,1.99-6.54,4.68-8.77,8.04-2.25,3.36-3.88,7.18-4.9,11.47-1.02,4.29-1.53,8.72-1.53,13.3s.51,8.65,1.53,12.8c1.02,4.13,2.66,7.87,4.9,11.18,2.23,3.31,5.16,5.97,8.77,7.97,3.6,1.99,7.99,2.99,13.16,2.99s9.54-1,13.16-2.99c3.6-2.01,6.53-4.67,8.77-7.97,2.23-3.31,3.87-7.04,4.89-11.18,1.02-4.15,1.54-8.41,1.54-12.8s-.52-9.01-1.54-13.3c-1.02-4.29-2.66-8.11-4.89-11.47Zm4.89,11.47c-1.02-4.29-2.66-8.11-4.89-11.47-2.25-3.36-5.17-6.05-8.77-8.04-3.62-2.01-8-3-13.16-3s-9.56,1-13.16,3c-3.62,1.99-6.54,4.68-8.77,8.04-2.25,3.36-3.88,7.18-4.9,11.47-1.02,4.29-1.53,8.72-1.53,13.3s.51,8.65,1.53,12.8c1.02,4.13,2.66,7.87,4.9,11.18,2.23,3.31,5.16,5.97,8.77,7.97,3.6,1.99,7.99,2.99,13.16,2.99s9.54-1,13.16-2.99c3.6-2.01,6.53-4.67,8.77-7.97,2.23-3.31,3.87-7.04,4.89-11.18,1.02-4.15,1.54-8.41,1.54-12.8s-.52-9.01-1.54-13.3Zm0,0c-1.02-4.29-2.66-8.11-4.89-11.47-2.25-3.36-5.17-6.05-8.77-8.04-3.62-2.01-8-3-13.16-3s-9.56,1-13.16,3c-3.62,1.99-6.54,4.68-8.77,8.04-2.25,3.36-3.88,7.18-4.9,11.47-1.02,4.29-1.53,8.72-1.53,13.3s.51,8.65,1.53,12.8c1.02,4.13,2.66,7.87,4.9,11.18,2.23,3.31,5.16,5.97,8.77,7.97,3.6,1.99,7.99,2.99,13.16,2.99s9.54-1,13.16-2.99c3.6-2.01,6.53-4.67,8.77-7.97,2.23-3.31,3.87-7.04,4.89-11.18,1.02-4.15,1.54-8.41,1.54-12.8s-.52-9.01-1.54-13.3Z"/></svg>