<svg width="46" height="46" viewBox="0 0 46 46" fill="none" xmlns="http://www.w3.org/2000/svg">
<path d="M37.1743 40.2055C40.2872 40.2055 42.8107 37.682 42.8107 34.5691V26.1144C42.8107 23.0014 40.2872 20.4779 37.1743 20.4779H8.99194C5.879 20.4779 3.35547 23.0014 3.35547 26.1144V34.5691C3.35547 37.682 5.879 40.2055 8.99194 40.2055H37.1743Z" fill="#2B61D1"/>
<path d="M3.35547 19.8125V12.0232C3.35547 8.91025 5.879 6.38672 8.99194 6.38672H19.0975C20.2187 6.38672 21.2939 6.8321 22.0867 7.62488L26.0723 11.6105C26.3366 11.8747 26.695 12.0232 27.0687 12.0232H37.1743C40.2872 12.0232 42.8107 14.5467 42.8107 17.6597V19.8125C41.3149 18.4737 39.3397 17.6597 37.1743 17.6597H8.99194C6.82653 17.6597 4.85126 18.4737 3.35547 19.8125Z" fill="#2B61D1"/>
</svg>
