<svg xmlns="http://www.w3.org/2000/svg" width="51.448" height="51.107" viewBox="0 0 51.448 51.107"><g transform="translate(-11605.41 8157.87)"><path d="M25.724,0A25.554,25.554,0,1,1,0,25.554,25.639,25.639,0,0,1,25.724,0Z" transform="translate(11605.41 -8157.87)" fill="#2b61d1"/><g transform="translate(11617.078 -8148.526)"><path d="M93.255,170.214l-2.93,1.693-6.295-3.634,2.859-1.651.071-.042.109.063Z" transform="translate(-76.147 -139.166)" fill="#fff"/><path d="M74.855,44.245v3.407l-6.2-3.577-1.68-.97-1.68.97-7.876,4.547-1.68.97V51.6l-3.031-1.75-1.68-.97-1.68.97L46.5,51.494V44.245L60.678,36.06Z" transform="translate(-46.5 -36.06)" fill="#fff"/><path d="M122.253,92.619v9.095l-7.876,4.547-.01-.006-7.866-4.541V92.619l7.876-4.549Z" transform="translate(-93.898 -77.146)" fill="#fff"/><path d="M55.561,118.185v5.23l-4.531,2.617-4.53-2.617v-5.23l4.53-2.615Z" transform="translate(-46.5 -98.87)" fill="#fff"/></g></g></svg>