<svg width="106" height="106" viewBox="0 0 106 106" fill="none" xmlns="http://www.w3.org/2000/svg">
<g clip-path="url(#clip0_1220_2521)">
<path d="M53 106C82.2711 106 106 82.2711 106 53C106 23.7289 82.2711 0 53 0C23.7289 0 0 23.7289 0 53C0 82.2711 23.7289 106 53 106Z" fill="#F0F0F0"/>
<path d="M105.999 52.9998C105.999 30.2117 91.616 10.7849 71.4336 3.29639V102.703C91.616 95.2147 105.999 75.788 105.999 52.9998Z" fill="#D80027"/>
<path d="M0 52.9998C0 75.788 14.3831 95.2147 34.5653 102.703V3.29639C14.3831 10.7849 0 30.2117 0 52.9998Z" fill="#0052B4"/>
</g>
<defs>
<clipPath id="clip0_1220_2521">
<rect width="106" height="106" fill="white"/>
</clipPath>
</defs>
</svg>
