<svg width="23" height="22" viewBox="0 0 23 22" fill="none" xmlns="http://www.w3.org/2000/svg">
<path d="M11.4089 4.07776C7.51841 4.07776 4.36328 7.21093 4.36328 11.0768C4.36029 14.0846 6.30104 16.7588 9.1833 17.7176C9.53562 17.7814 9.66381 17.5648 9.66381 17.3795C9.66381 17.2133 9.65781 16.7728 9.65406 16.1892C7.69457 16.6119 7.28078 15.2504 7.28078 15.2504C6.9607 14.4428 6.49819 14.2277 6.49819 14.2277C5.85802 13.7932 6.54616 13.8021 6.54616 13.8021C7.25305 13.8518 7.62486 14.5236 7.62486 14.5236C8.25378 15.5922 9.27476 15.2838 9.67655 15.1043C9.73952 14.6527 9.92242 14.3442 10.1241 14.1684C8.55963 13.9919 6.91422 13.392 6.91422 10.7104C6.91422 9.94587 7.18933 9.32146 7.63985 8.83128C7.56714 8.65478 7.32576 7.94287 7.70881 6.9803C7.70881 6.9803 8.30026 6.79194 9.64657 7.6974C10.2215 7.54167 10.8145 7.46232 11.4104 7.46158C12.0064 7.46307 12.6 7.54241 13.175 7.69815C14.5198 6.79268 15.1113 6.98104 15.1113 6.98104C15.4951 7.94509 15.2537 8.65552 15.1817 8.83276C15.633 9.3222 15.9051 9.94735 15.9051 10.7112C15.9051 13.3994 14.2582 13.9912 12.6885 14.1647C12.9419 14.3805 13.1668 14.8077 13.1668 15.4602C13.1668 16.3954 13.1585 17.1503 13.1585 17.3795C13.1585 17.5671 13.2852 17.7844 13.6428 17.7161C16.522 16.7558 18.4598 14.0824 18.456 11.0768C18.456 7.21093 15.3009 4.07776 11.4089 4.07776Z" fill="#98A7B9"/>
</svg>
