<svg width="39" height="37" viewBox="0 0 39 37" fill="none" xmlns="http://www.w3.org/2000/svg">
<path d="M19.6339 -0.000312805C9.25395 -0.000312805 0.835947 8.44969 0.835947 18.8757C0.827947 26.9877 6.00595 34.1997 13.6959 36.7857C14.6359 36.9577 14.9779 36.3737 14.9779 35.8737C14.9779 35.4257 14.9619 34.2377 14.9519 32.6637C9.72395 33.8037 8.61995 30.1317 8.61995 30.1317C7.76595 27.9537 6.53195 27.3737 6.53195 27.3737C4.82395 26.2017 6.65995 26.2257 6.65995 26.2257C8.54595 26.3597 9.53795 28.1717 9.53795 28.1717C11.2159 31.0537 13.9399 30.2217 15.0119 29.7377C15.1799 28.5197 15.6679 27.6877 16.2059 27.2137C12.0319 26.7377 7.64195 25.1197 7.64195 17.8877C7.64195 15.8257 8.37595 14.1417 9.57795 12.8197C9.38395 12.3437 8.73995 10.4237 9.76195 7.82769C9.76195 7.82769 11.3399 7.31969 14.9319 9.76169C16.4659 9.34169 18.0479 9.12769 19.6379 9.12569C21.2279 9.12969 22.8119 9.34369 24.3459 9.76369C27.9339 7.32169 29.5119 7.82969 29.5119 7.82969C30.5359 10.4297 29.8919 12.3457 29.6999 12.8237C30.9039 14.1437 31.6299 15.8297 31.6299 17.8897C31.6299 25.1397 27.2359 26.7357 23.0479 27.2037C23.7239 27.7857 24.3239 28.9377 24.3239 30.6977C24.3239 33.2197 24.3019 35.2557 24.3019 35.8737C24.3019 36.3797 24.6399 36.9657 25.5939 36.7817C33.2759 34.1917 38.4459 26.9817 38.4359 18.8757C38.4359 8.44969 30.0179 -0.000312805 19.6339 -0.000312805Z" fill="black"/>
</svg>
