<svg width="15" height="17" viewBox="0 0 15 17" fill="none" xmlns="http://www.w3.org/2000/svg">
<path d="M7.85813 0.332764C3.96763 0.332764 0.812503 4.14705 0.812503 8.8533C0.809505 12.515 2.75026 15.7705 5.63252 16.9378C5.98484 17.0154 6.11303 16.7518 6.11303 16.5261C6.11303 16.3239 6.10703 15.7876 6.10328 15.0771C4.14379 15.5917 3.73 13.9342 3.73 13.9342C3.40992 12.9511 2.9474 12.6893 2.9474 12.6893C2.30723 12.1602 2.99538 12.1711 2.99538 12.1711C3.70227 12.2315 4.07408 13.0495 4.07408 13.0495C4.703 14.3504 5.72398 13.9748 6.12577 13.7564C6.18874 13.2066 6.37164 12.831 6.57329 12.617C5.00884 12.4022 3.36344 11.6718 3.36344 8.40732C3.36344 7.47655 3.63855 6.7164 4.08907 6.11965C4.01636 5.90479 3.77498 5.03811 4.15803 3.86629C4.15803 3.86629 4.74948 3.63698 6.09579 4.73929C6.67074 4.5497 7.26368 4.4531 7.85963 4.4522C8.45557 4.454 9.04927 4.5506 9.62422 4.74019C10.969 3.63788 11.5605 3.86719 11.5605 3.86719C11.9443 5.04082 11.7029 5.90569 11.6309 6.12146C12.0822 6.7173 12.3543 7.47835 12.3543 8.40823C12.3543 11.6808 10.7074 12.4013 9.13772 12.6125C9.39109 12.8752 9.61597 13.3952 9.61597 14.1897C9.61597 15.3281 9.60773 16.2472 9.60773 16.5261C9.60773 16.7545 9.73441 17.019 10.092 16.936C12.9712 15.7669 14.909 12.5123 14.9053 8.8533C14.9053 4.14705 11.7501 0.332764 7.85813 0.332764Z" fill="#98A7B9"/>
</svg>
