<svg width="39" height="38" viewBox="0 0 39 38" fill="none" xmlns="http://www.w3.org/2000/svg">
<path d="M34.8343 20.0175C34.8638 19.6301 34.8789 19.2385 34.8789 18.8435C34.8789 16.4632 34.3327 14.2105 33.3588 12.2038C31.4269 14.0378 29.1274 15.4882 26.5822 16.4332C26.6469 17.228 26.68 18.0319 26.68 18.8435C26.68 20.5632 26.5317 22.2483 26.2473 23.8867C29.3602 23.1034 32.2579 21.7783 34.8343 20.0175Z" fill="#2B61D1"/>
<path d="M23.7663 24.3877C24.1406 22.5984 24.3374 20.7439 24.3374 18.8435C24.3374 18.2682 24.3194 17.6971 24.2838 17.1307C22.7977 17.4848 21.2469 17.6722 19.6523 17.6722C18.0578 17.6722 16.507 17.4848 15.0208 17.1307C14.9853 17.6971 14.9672 18.2682 14.9672 18.8435C14.9672 20.7439 15.164 22.5984 15.5383 24.3877C16.8796 24.5932 18.2535 24.6998 19.6523 24.6998C21.0511 24.6998 22.425 24.5932 23.7663 24.3877Z" fill="#2B61D1"/>
<path d="M16.1732 26.8379C17.3141 26.9729 18.4751 27.0424 19.6523 27.0424C20.8295 27.0424 21.9905 26.9729 23.1314 26.8379C22.329 29.4235 21.1477 31.8423 19.6523 34.0295C18.157 31.8423 16.9756 29.4235 16.1732 26.8379Z" fill="#2B61D1"/>
<path d="M13.0574 23.8867C12.7729 22.2483 12.6247 20.5632 12.6247 18.8435C12.6247 18.0319 12.6577 17.228 12.7225 16.4332C10.1773 15.4882 7.87774 14.0378 5.94583 12.2038C4.97196 14.2105 4.42578 16.4632 4.42578 18.8435C4.42578 19.2385 4.44083 19.6301 4.47038 20.0175C7.04671 21.7783 9.9444 23.1034 13.0574 23.8867Z" fill="#2B61D1"/>
<path d="M34.2636 23.1421C32.6774 28.5424 28.1788 32.6966 22.5845 33.7879C23.9376 31.5125 24.991 29.0381 25.6905 26.4191C28.7512 25.7775 31.6361 24.6579 34.2636 23.1421Z" fill="#2B61D1"/>
<path d="M5.04101 23.1421C7.66852 24.6579 10.5534 25.7775 13.6141 26.4191C14.3136 29.0381 15.3671 31.5125 16.7201 33.7879C11.1259 32.6967 6.62721 28.5424 5.04101 23.1421Z" fill="#2B61D1"/>
<path d="M22.5845 3.89903C26.5225 4.66722 29.9175 6.95315 32.136 10.1231C30.4829 11.7923 28.4973 13.1317 26.2869 14.0338C25.6837 10.3836 24.4054 6.96115 22.5845 3.89903Z" fill="#2B61D1"/>
<path d="M19.6523 3.65747C21.8835 6.92079 23.4155 10.6999 24.0328 14.7792C22.6325 15.1386 21.1647 15.3297 19.6523 15.3297C18.1399 15.3297 16.6721 15.1386 15.2718 14.7792C15.8891 10.6999 17.4212 6.92079 19.6523 3.65747Z" fill="#2B61D1"/>
<path d="M16.7201 3.89902C14.8993 6.96115 13.621 10.3836 13.0178 14.0338C10.8073 13.1317 8.82178 11.7923 7.16866 10.1231C9.38712 6.95315 12.7822 4.66721 16.7201 3.89902Z" fill="#2B61D1"/>
</svg>
