<svg width="106" height="106" viewBox="0 0 106 106" fill="none" xmlns="http://www.w3.org/2000/svg">
<g clip-path="url(#clip0_1220_2508)">
<path d="M53 106C82.2711 106 106 82.2711 106 53C106 23.7289 82.2711 0 53 0C23.7289 0 0 23.7289 0 53C0 82.2711 23.7289 106 53 106Z" fill="#F0F0F0"/>
<path d="M53 39.1738H104.174C102.845 34.2436 100.825 29.5976 98.221 25.3477H53V39.1738Z" fill="#338AF3"/>
<path d="M20.0065 94.4783H85.99C90.8269 90.6258 94.975 85.9465 98.2191 80.6521H7.77734C11.0217 85.9463 15.1698 90.6258 20.0065 94.4783Z" fill="#338AF3"/>
<path d="M18.433 12.8232C14.2663 16.4113 10.6642 20.6366 7.77734 25.3478H18.433V12.8232Z" fill="#338AF3"/>
<path d="M53 53C53 47.6014 53 43.0834 53 39.1738H32.2609V53H18.4347V39.1738H1.82581C0.637656 43.5824 0 48.2161 0 53C0 57.7839 0.637656 62.4176 1.82581 66.8262H104.174C105.362 62.4176 106 57.7839 106 53H53Z" fill="#338AF3"/>
<path d="M53.0009 0C45.6411 0 38.6321 1.5016 32.2617 4.21267V25.3479H53.0009C53.0009 20.5216 53.0009 16.4167 53.0009 11.5217H85.9927C76.9391 4.31122 65.4743 0 53.0009 0Z" fill="#338AF3"/>
</g>
<defs>
<clipPath id="clip0_1220_2508">
<rect width="106" height="106" fill="white"/>
</clipPath>
</defs>
</svg>
