<svg width="16" height="16" viewBox="0 0 16 16" fill="none" xmlns="http://www.w3.org/2000/svg">
<rect x="0.339844" y="0.219482" width="15.3671" height="15.3671" rx="7.68355" fill="#F1F9F3"/>
<path d="M8.43031 10.6606V6.12512L10.4118 8.1066C10.5702 8.26495 10.83 8.26495 10.9884 8.1066C11.1467 7.94824 11.1467 7.69244 10.9884 7.53408L8.31256 4.85827C8.15421 4.69991 7.8984 4.69991 7.74004 4.85827L5.06017 7.53002C4.90182 7.68838 4.90182 7.94418 5.06017 8.10254C5.21853 8.26089 5.47434 8.26089 5.63269 8.10254L7.61823 6.12512V10.6606C7.61823 10.8839 7.80095 11.0666 8.02427 11.0666C8.2476 11.0666 8.43031 10.8839 8.43031 10.6606Z" fill="#7EC897"/>
</svg>
