<svg width="106" height="106" viewBox="0 0 106 106" fill="none" xmlns="http://www.w3.org/2000/svg">
<g clip-path="url(#clip0_1220_2529)">
<path d="M53 106C82.2711 106 106 82.2711 106 53C106 23.7289 82.2711 0 53 0C23.7289 0 0 23.7289 0 53C0 82.2711 23.7289 106 53 106Z" fill="#F0F0F0"/>
<path d="M52.9988 0C31.9864 0 13.8306 12.2283 5.25781 29.9566H100.74C92.167 12.2283 74.011 0 52.9988 0Z" fill="#FF9811"/>
<path d="M52.9988 106C74.011 106 92.167 93.7717 100.74 76.0435H5.25781C13.8306 93.7717 31.9864 106 52.9988 106Z" fill="#6DA544"/>
<path d="M53.0011 71.4348C63.1823 71.4348 71.4358 63.1813 71.4358 53.0001C71.4358 42.8189 63.1823 34.5654 53.0011 34.5654C42.8199 34.5654 34.5664 42.8189 34.5664 53.0001C34.5664 63.1813 42.8199 71.4348 53.0011 71.4348Z" fill="#0052B4"/>
<path d="M52.9983 64.5217C59.3615 64.5217 64.52 59.3632 64.52 53C64.52 46.6367 59.3615 41.4783 52.9983 41.4783C46.635 41.4783 41.4766 46.6367 41.4766 53C41.4766 59.3632 46.635 64.5217 52.9983 64.5217Z" fill="#F0F0F0"/>
<path d="M53.0003 38.7822L56.5548 46.8436L65.313 45.8911L60.1091 52.9999L65.313 60.1087L56.5548 59.1562L53.0003 67.2176L49.4458 59.1562L40.6875 60.1085L45.8914 52.9999L40.6875 45.8911L49.4458 46.8436L53.0003 38.7822Z" fill="#0052B4"/>
</g>
<defs>
<clipPath id="clip0_1220_2529">
<rect width="106" height="106" fill="white"/>
</clipPath>
</defs>
</svg>
