<svg xmlns="http://www.w3.org/2000/svg" xmlns:xlink="http://www.w3.org/1999/xlink" width="142" height="142" viewBox="0 0 142 142"><defs><clipPath id="a"><rect width="142" height="142" transform="translate(-13419 -15659)" fill="none"/></clipPath></defs><g transform="translate(13419 15659)" clip-path="url(#a)"><g transform="translate(-13416 -15656)"><path d="M27.82,62.89H40.56a24.613,24.613,0,0,0,10.53-2.383,26.346,26.346,0,0,0,8.19-6.283,29.076,29.076,0,0,0,5.2-9.143,30.073,30.073,0,0,0,1.907-10.573,26.26,26.26,0,0,0-2.037-10.227,31.676,31.676,0,0,0-5.5-8.97,27.43,27.43,0,0,0-8.363-6.457A22.62,22.62,0,0,0,39.91,6.341H6.37V87.763H28.036Zm0-36.876H38.653A5.807,5.807,0,0,1,42.6,27.921a9.533,9.533,0,0,1,2.037,6.89,9.186,9.186,0,0,1-1.863,6.63,4.853,4.853,0,0,1-3.64,1.907H27.82Z" transform="translate(21.235 21.132)" fill="#2d8eff"/><path d="M0,7.843V128.655A7.843,7.843,0,0,0,7.843,136.5H128.655a7.843,7.843,0,0,0,7.843-7.843V7.843A7.843,7.843,0,0,0,128.655,0H7.843A7.843,7.843,0,0,0,0,7.843ZM112.665,120.509H23.746a7.843,7.843,0,0,1-7.843-7.843V23.746A7.843,7.843,0,0,1,23.746,15.9h88.919a7.843,7.843,0,0,1,7.843,7.843v88.919a7.843,7.843,0,0,1-7.843,7.757Z" transform="translate(0 0)" fill="#2d8eff"/><rect width="50.223" height="15.427" transform="translate(58.627 93.599)" fill="#2d8eff"/></g></g></svg>