<svg xmlns="http://www.w3.org/2000/svg" xmlns:xlink="http://www.w3.org/1999/xlink" width="142" height="142" viewBox="0 0 142 142"><defs><clipPath id="a"><rect width="142" height="142" transform="translate(-13190 -15254)" fill="none"/></clipPath></defs><g transform="translate(13190 15254)" clip-path="url(#a)"><g transform="translate(-13316.473 -15382.099)"><g transform="translate(130.206 130.206)"><circle cx="68.893" cy="68.893" r="68.893" transform="translate(0 0)" fill="#fefefe"/></g><g transform="translate(130.1 130.1)"><path d="M170.629,229.323a4.383,4.383,0,0,0,3.824-2.284L184.6,207.757h-15.67a4.319,4.319,0,0,1-4.3-4.3V194.8a4.318,4.318,0,0,1,4.3-4.3h24.806l19.282-36.545a4.28,4.28,0,0,1,3.824-2.284H249.3a69.062,69.062,0,0,0-112.237,77.711h33.57Z" transform="translate(-130.1 -130.1)" fill="#9b1c2e"/><path d="M244.267,203.053a4.383,4.383,0,0,0-3.824,2.284L230.3,224.619h15.67a4.319,4.319,0,0,1,4.3,4.3v8.658a4.318,4.318,0,0,1-4.3,4.3H221.161l-19.282,36.545a4.28,4.28,0,0,1-3.824,2.284H165.6A69.062,69.062,0,0,0,277.837,203h-33.57Z" transform="translate(-146.743 -164.277)" fill="#9b1c2e"/></g></g></g></svg>