<svg width="46" height="46" viewBox="0 0 46 46" fill="none" xmlns="http://www.w3.org/2000/svg">
<path d="M30.938 15.257C28.7353 13.0543 25.8548 11.9435 22.9555 11.9435V23.2395L14.973 31.222C19.3785 35.6274 26.5326 35.6274 30.9568 31.222C35.3623 26.8166 35.3623 19.6624 30.938 15.257ZM22.9555 4.41287C12.5632 4.41287 4.12891 12.8472 4.12891 23.2395C4.12891 33.6318 12.5632 42.0661 22.9555 42.0661C33.3478 42.0661 41.7822 33.6318 41.7822 23.2395C41.7822 12.8472 33.3478 4.41287 22.9555 4.41287ZM22.9555 38.3008C14.6342 38.3008 7.89423 31.5609 7.89423 23.2395C7.89423 14.9181 14.6342 8.1782 22.9555 8.1782C31.2769 8.1782 38.0168 14.9181 38.0168 23.2395C38.0168 31.5609 31.2769 38.3008 22.9555 38.3008Z" fill="#2B61D1"/>
</svg>
