<svg width="300" height="300" viewBox="0 0 300 300" fill="none" xmlns="http://www.w3.org/2000/svg">
<path d="M176.471 35.2941V52.9412H194.118H229.412V35.2941H194.118V17.6471V0H176.471H141.177V17.6471H176.471V35.2941Z" fill="#56BCF7"/>
<path d="M264.706 82.3536V70.5889H247.059V82.3536V88.2359H264.706V82.3536Z" fill="#56BCF7"/>
<path d="M264.706 105.884H247.059V123.531V141.178H211.765V158.825H247.059H264.706V141.178V123.531H300V105.884H264.706Z" fill="#56BCF7"/>
<path d="M282.353 176.472H264.706H247.059V194.119V229.413H264.706V194.119H282.353H300V176.472V141.178H282.353V176.472Z" fill="#56BCF7"/>
<path d="M123.529 0H105.882V17.6471H123.529V0Z" fill="#56BCF7"/>
<path d="M88.2359 65.4194L93.4026 70.5861L111.05 88.2332H132.354H211.765V123.527H229.412V88.2332V70.5861H211.765H132.354H118.363L100.716 52.9391H158.824V35.292H88.2359H70.5889V123.527H88.2359V65.4194Z" fill="#56BCF7"/>
<path d="M123.53 264.704V247.057H105.883H70.5889V264.704H105.883V282.351V299.998H123.53H158.824V282.351H123.53V264.704Z" fill="#56BCF7"/>
<path d="M35.2939 217.647V229.412H52.941V217.647V211.765H35.2939V217.647Z" fill="#56BCF7"/>
<path d="M88.2353 141.178H52.9412H35.2941V158.825V176.472H0V194.119H35.2941H52.9412V176.472V158.825H88.2353V141.178Z" fill="#56BCF7"/>
<path d="M17.6471 123.53H35.2941H52.9412V105.883V70.5889H35.2941V105.883H17.6471H0V123.53V158.824H17.6471V123.53Z" fill="#56BCF7"/>
<path d="M194.118 282.352H176.471V299.999H194.118V282.352Z" fill="#56BCF7"/>
<path d="M211.765 234.581L188.952 211.767H167.648H88.2359V176.473H70.5889V211.767V229.414H88.2359H167.648H181.638L199.285 247.061H141.177V264.708H211.765H229.412V176.473H211.765V234.581Z" fill="#56BCF7"/>
</svg>
