<svg width="39" height="39" viewBox="0 0 39 39" fill="none" xmlns="http://www.w3.org/2000/svg">
<path fill-rule="evenodd" clip-rule="evenodd" d="M25.4729 3.32654C19.651 3.32654 14.9315 8.04611 14.9315 13.868C14.9315 14.4829 14.9842 15.0864 15.0858 15.6739C15.1907 16.2812 15.0358 16.7924 14.7404 17.0877L4.59098 27.2371C3.71236 28.1158 3.21875 29.3074 3.21875 30.55V34.9509C3.21875 35.5978 3.74315 36.1222 4.39002 36.1222H10.2464C10.8933 36.1222 11.4177 35.5978 11.4177 34.9509V32.6083H13.7602C14.4071 32.6083 14.9315 32.0839 14.9315 31.4371V29.0945H17.274C17.5847 29.0945 17.8826 28.9711 18.1022 28.7515L22.2532 24.6005C22.5486 24.3051 23.0597 24.1502 23.667 24.2551C24.2546 24.3567 24.858 24.4094 25.4729 24.4094C31.2948 24.4094 36.0144 19.6899 36.0144 13.868C36.0144 8.04611 31.2948 3.32654 25.4729 3.32654ZM25.4729 8.01163C24.826 8.01163 24.3017 8.53602 24.3017 9.1829C24.3017 9.82978 24.826 10.3542 25.4729 10.3542C27.4136 10.3542 28.9867 11.9274 28.9867 13.868C28.9867 14.5149 29.5111 15.0393 30.158 15.0393C30.8049 15.0393 31.3293 14.5149 31.3293 13.868C31.3293 10.6336 28.7073 8.01163 25.4729 8.01163Z" fill="#2B61D1"/>
</svg>
