<svg width="1069" height="82" viewBox="0 0 1069 82" fill="none" xmlns="http://www.w3.org/2000/svg">
<rect y="36.8324" width="1064" height="11" rx="5.5" fill="#2B61D1"/>
<rect x="532" y="36.8324" width="332.5" height="11" rx="5.5" fill="#0BE23B"/>
<rect x="852.309" y="36.8324" width="138.542" height="11" rx="5.5" fill="#16BB3B"/>
<rect x="980.875" y="36.8324" width="83.125" height="11" rx="5.5" fill="#137F2C"/>
<path d="M238.948 8.2324H233.494V20.8324H236.41V17.3584H238.948C242.314 17.3584 244.42 15.6124 244.42 12.8044C244.42 9.9784 242.314 8.2324 238.948 8.2324ZM238.786 14.9824H236.41V10.6084H238.786C240.568 10.6084 241.468 11.4184 241.468 12.8044C241.468 14.1724 240.568 14.9824 238.786 14.9824ZM252.78 21.0484C256.74 21.0484 259.674 18.2944 259.674 14.5324C259.674 10.7704 256.74 8.0164 252.78 8.0164C248.802 8.0164 245.886 10.7884 245.886 14.5324C245.886 18.2764 248.802 21.0484 252.78 21.0484ZM252.78 18.5644C250.53 18.5644 248.838 16.9264 248.838 14.5324C248.838 12.1384 250.53 10.5004 252.78 10.5004C255.03 10.5004 256.722 12.1384 256.722 14.5324C256.722 16.9264 255.03 18.5644 252.78 18.5644ZM277.697 8.2324L274.763 17.1604L271.883 8.2324H269.183L266.213 17.0884L263.369 8.2324H260.345L264.485 20.8324H267.599L270.461 12.3004L273.233 20.8324H276.365L280.487 8.2324H277.697Z" fill="#2B61D1"/>
<path d="M666.634 21.0484C670.234 21.0484 671.98 19.2484 671.98 17.1424C671.98 12.5164 664.654 14.1184 664.654 11.7964C664.654 11.0044 665.32 10.3564 667.048 10.3564C668.164 10.3564 669.37 10.6804 670.54 11.3464L671.44 9.1324C670.27 8.3944 668.65 8.0164 667.066 8.0164C663.484 8.0164 661.756 9.7984 661.756 11.9404C661.756 16.6204 669.082 15.0004 669.082 17.3584C669.082 18.1324 668.38 18.7084 666.652 18.7084C665.14 18.7084 663.556 18.1684 662.494 17.3944L661.504 19.5904C662.62 20.4544 664.636 21.0484 666.634 21.0484ZM679.265 18.3844C678.959 18.6184 678.545 18.7444 678.131 18.7444C677.375 18.7444 676.925 18.2944 676.925 17.4664V13.5244H679.337V11.3644H676.925V9.0064H674.117V11.3644H672.623V13.5244H674.117V17.5024C674.117 19.8064 675.449 20.9764 677.735 20.9764C678.599 20.9764 679.445 20.7784 680.021 20.3644L679.265 18.3844ZM684.279 12.4264V11.1484H681.597V20.8324H684.405V16.2604C684.405 14.4064 685.431 13.5604 686.979 13.5604C687.195 13.5604 687.375 13.5784 687.609 13.5964V11.0044C686.115 11.0044 684.963 11.4904 684.279 12.4264ZM693.132 11.0044C691.584 11.0044 690.018 11.4184 688.956 12.1744L689.964 14.1364C690.666 13.5784 691.728 13.2364 692.754 13.2364C694.266 13.2364 694.986 13.9384 694.986 15.1444H692.754C689.802 15.1444 688.596 16.3324 688.596 18.0424C688.596 19.7164 689.946 20.9764 692.214 20.9764C693.636 20.9764 694.644 20.5084 695.166 19.6264V20.8324H697.794V15.3064C697.794 12.3724 696.084 11.0044 693.132 11.0044ZM692.916 19.0864C691.926 19.0864 691.332 18.6184 691.332 17.9164C691.332 17.2684 691.746 16.7824 693.06 16.7824H694.986V17.7724C694.662 18.6544 693.852 19.0864 692.916 19.0864ZM705.825 18.3844C705.519 18.6184 705.105 18.7444 704.691 18.7444C703.935 18.7444 703.485 18.2944 703.485 17.4664V13.5244H705.897V11.3644H703.485V9.0064H700.677V11.3644H699.183V13.5244H700.677V17.5024C700.677 19.8064 702.009 20.9764 704.295 20.9764C705.159 20.9764 706.005 20.7784 706.581 20.3644L705.825 18.3844ZM715.105 11.1484V15.9364C715.105 17.7184 714.169 18.5464 712.873 18.5464C711.631 18.5464 710.911 17.8264 710.911 16.2064V11.1484H708.103V16.6204C708.103 19.6084 709.813 20.9764 712.243 20.9764C713.431 20.9764 714.511 20.5264 715.249 19.6804V20.8324H717.913V11.1484H715.105ZM723.773 20.9764C726.671 20.9764 728.345 19.6984 728.345 17.8984C728.345 14.0824 722.495 15.6844 722.495 14.0284C722.495 13.5244 723.035 13.1284 724.295 13.1284C725.177 13.1284 726.131 13.3084 727.085 13.8484L728.021 11.8504C727.103 11.3104 725.627 11.0044 724.295 11.0044C721.469 11.0044 719.813 12.3004 719.813 14.1364C719.813 18.0064 725.663 16.3864 725.663 17.9704C725.663 18.5104 725.177 18.8524 723.881 18.8524C722.693 18.8524 721.379 18.4744 720.515 17.9164L719.579 19.9324C720.479 20.5264 722.135 20.9764 723.773 20.9764Z" fill="#2B61D1"/>
<path d="M895.17 8.2324V15.8824L888.906 8.2324H886.494V20.8324H889.374V13.1824L895.656 20.8324H898.05V8.2324H895.17ZM902.237 9.7984C903.281 9.7984 903.983 9.1144 903.983 8.1784C903.983 7.3144 903.281 6.6664 902.237 6.6664C901.193 6.6664 900.491 7.3504 900.491 8.2324C900.491 9.1144 901.193 9.7984 902.237 9.7984ZM900.833 20.8324H903.641V11.1484H900.833V20.8324ZM918.649 11.0044C917.191 11.0044 915.931 11.5984 915.157 12.5884C914.473 11.5264 913.321 11.0044 911.971 11.0044C910.729 11.0044 909.649 11.4364 908.929 12.2644V11.1484H906.247V20.8324H909.055V15.9724C909.055 14.2444 909.937 13.4344 911.179 13.4344C912.349 13.4344 913.015 14.1544 913.015 15.7204V20.8324H915.823V15.9724C915.823 14.2444 916.705 13.4344 917.965 13.4344C919.099 13.4344 919.801 14.1544 919.801 15.7204V20.8324H922.609V15.2884C922.609 12.3364 920.953 11.0044 918.649 11.0044ZM930.85 11.0044C929.644 11.0044 928.654 11.3824 927.934 12.1744V7.4764H925.126V20.8324H927.808V19.7164C928.51 20.5624 929.554 20.9764 930.85 20.9764C933.568 20.9764 935.674 19.0324 935.674 15.9904C935.674 12.9484 933.568 11.0044 930.85 11.0044ZM930.364 18.6724C928.96 18.6724 927.898 17.6644 927.898 15.9904C927.898 14.3164 928.96 13.3084 930.364 13.3084C931.768 13.3084 932.83 14.3164 932.83 15.9904C932.83 17.6644 931.768 18.6724 930.364 18.6724ZM944.502 11.1484V15.9364C944.502 17.7184 943.566 18.5464 942.27 18.5464C941.028 18.5464 940.308 17.8264 940.308 16.2064V11.1484H937.5V16.6204C937.5 19.6084 939.21 20.9764 941.64 20.9764C942.828 20.9764 943.908 20.5264 944.646 19.6804V20.8324H947.31V11.1484H944.502ZM953.169 20.9764C956.067 20.9764 957.741 19.6984 957.741 17.8984C957.741 14.0824 951.891 15.6844 951.891 14.0284C951.891 13.5244 952.431 13.1284 953.691 13.1284C954.573 13.1284 955.527 13.3084 956.481 13.8484L957.417 11.8504C956.499 11.3104 955.023 11.0044 953.691 11.0044C950.865 11.0044 949.209 12.3004 949.209 14.1364C949.209 18.0064 955.059 16.3864 955.059 17.9704C955.059 18.5104 954.573 18.8524 953.277 18.8524C952.089 18.8524 950.775 18.4744 949.911 17.9164L948.975 19.9324C949.875 20.5264 951.531 20.9764 953.169 20.9764Z" fill="#2B61D1"/>
<path d="M992.524 21.0484C994.72 21.0484 996.538 20.2564 997.726 18.7984L995.854 17.0704C995.008 18.0604 993.946 18.5644 992.686 18.5644C990.328 18.5644 988.654 16.9084 988.654 14.5324C988.654 12.1564 990.328 10.5004 992.686 10.5004C993.946 10.5004 995.008 11.0044 995.854 11.9764L997.726 10.2484C996.538 8.8084 994.72 8.0164 992.542 8.0164C988.618 8.0164 985.702 10.7344 985.702 14.5324C985.702 18.3304 988.618 21.0484 992.524 21.0484ZM1006.2 11.1484V15.9364C1006.2 17.7184 1005.26 18.5464 1003.97 18.5464C1002.73 18.5464 1002.01 17.8264 1002.01 16.2064V11.1484H999.197V16.6204C999.197 19.6084 1000.91 20.9764 1003.34 20.9764C1004.53 20.9764 1005.61 20.5264 1006.34 19.6804V20.8324H1009.01V11.1484H1006.2ZM1024.01 11.0044C1022.55 11.0044 1021.29 11.5984 1020.52 12.5884C1019.83 11.5264 1018.68 11.0044 1017.33 11.0044C1016.09 11.0044 1015.01 11.4364 1014.29 12.2644V11.1484H1011.61V20.8324H1014.42V15.9724C1014.42 14.2444 1015.3 13.4344 1016.54 13.4344C1017.71 13.4344 1018.38 14.1544 1018.38 15.7204V20.8324H1021.18V15.9724C1021.18 14.2444 1022.07 13.4344 1023.33 13.4344C1024.46 13.4344 1025.16 14.1544 1025.16 15.7204V20.8324H1027.97V15.2884C1027.97 12.3364 1026.31 11.0044 1024.01 11.0044ZM1037.44 11.1484V15.9364C1037.44 17.7184 1036.5 18.5464 1035.2 18.5464C1033.96 18.5464 1033.24 17.8264 1033.24 16.2064V11.1484H1030.43V16.6204C1030.43 19.6084 1032.14 20.9764 1034.57 20.9764C1035.76 20.9764 1036.84 20.5264 1037.58 19.6804V20.8324H1040.24V11.1484H1037.44ZM1042.84 20.8324H1045.65V7.4764H1042.84V20.8324ZM1055.21 11.1484V15.9364C1055.21 17.7184 1054.27 18.5464 1052.97 18.5464C1051.73 18.5464 1051.01 17.8264 1051.01 16.2064V11.1484H1048.2V16.6204C1048.2 19.6084 1049.91 20.9764 1052.34 20.9764C1053.53 20.9764 1054.61 20.5264 1055.35 19.6804V20.8324H1058.01V11.1484H1055.21ZM1063.87 20.9764C1066.77 20.9764 1068.45 19.6984 1068.45 17.8984C1068.45 14.0824 1062.6 15.6844 1062.6 14.0284C1062.6 13.5244 1063.14 13.1284 1064.4 13.1284C1065.28 13.1284 1066.23 13.3084 1067.19 13.8484L1068.12 11.8504C1067.2 11.3104 1065.73 11.0044 1064.4 11.0044C1061.57 11.0044 1059.91 12.3004 1059.91 14.1364C1059.91 18.0064 1065.76 16.3864 1065.76 17.9704C1065.76 18.5104 1065.28 18.8524 1063.98 18.8524C1062.79 18.8524 1061.48 18.4744 1060.62 17.9164L1059.68 19.9324C1060.58 20.5264 1062.24 20.9764 1063.87 20.9764Z" fill="#2B61D1"/>
<path d="M239.015 64.4104H237.786L238.024 61.5428H244.319V58.7399H235.113L234.337 67.2348H238.196C240.934 67.2348 241.711 68.011 241.711 69.1968C241.711 70.4258 240.632 71.1589 238.886 71.1589C237.312 71.1589 235.738 70.663 234.595 69.8005L233.216 72.4741C234.682 73.509 236.881 74.0911 238.972 74.0911C243.284 74.0911 245.246 71.7626 245.246 69.089C245.246 66.4155 243.479 64.4104 239.015 64.4104ZM253.132 74.0911C256.862 74.0911 259.6 71.2667 259.6 66.2861C259.6 61.3056 256.862 58.4812 253.132 58.4812C249.423 58.4812 246.664 61.3056 246.664 66.2861C246.664 71.2667 249.423 74.0911 253.132 74.0911ZM253.132 71.1373C251.407 71.1373 250.2 69.7143 250.2 66.2861C250.2 62.858 251.407 61.435 253.132 61.435C254.878 61.435 256.086 62.858 256.086 66.2861C256.086 69.7143 254.878 71.1373 253.132 71.1373ZM264.79 66.8898C266.989 66.8898 268.52 65.2944 268.52 62.7286C268.52 60.1629 266.989 58.5674 264.79 58.5674C262.591 58.5674 261.038 60.1845 261.038 62.7286C261.038 65.2728 262.591 66.8898 264.79 66.8898ZM263.475 73.8324H266.04L276.346 58.7399H273.781L263.475 73.8324ZM264.79 65.1219C263.863 65.1219 263.216 64.3241 263.216 62.7286C263.216 61.1331 263.863 60.3354 264.79 60.3354C265.739 60.3354 266.364 61.1116 266.364 62.7286C266.364 64.3457 265.739 65.1219 264.79 65.1219ZM275.031 74.0049C277.23 74.0049 278.783 72.3878 278.783 69.8437C278.783 67.2995 277.23 65.6824 275.031 65.6824C272.854 65.6824 271.301 67.2995 271.301 69.8437C271.301 72.3878 272.854 74.0049 275.031 74.0049ZM275.031 72.2369C274.104 72.2369 273.457 71.4607 273.457 69.8437C273.457 68.2266 274.104 67.4504 275.031 67.4504C275.98 67.4504 276.605 68.2482 276.605 69.8437C276.605 71.4392 275.98 72.2369 275.031 72.2369Z" fill="#2B61D1"/>
<path d="M679.891 64.8847L683.298 61.0038V58.7399H672.733V61.5428H679.158L676.053 65.0572V67.3642H677.649C679.632 67.3642 680.473 68.0757 680.473 69.2184C680.473 70.4474 679.395 71.1589 677.649 71.1589C676.075 71.1589 674.479 70.663 673.337 69.8005L671.978 72.4741C673.445 73.509 675.622 74.0911 677.735 74.0911C682.026 74.0911 683.988 71.7626 683.988 69.2184C683.988 66.9977 682.608 65.3159 679.891 64.8847ZM692.069 74.0911C695.799 74.0911 698.537 71.2667 698.537 66.2861C698.537 61.3056 695.799 58.4812 692.069 58.4812C688.36 58.4812 685.6 61.3056 685.6 66.2861C685.6 71.2667 688.36 74.0911 692.069 74.0911ZM692.069 71.1373C690.344 71.1373 689.136 69.7143 689.136 66.2861C689.136 62.858 690.344 61.435 692.069 61.435C693.815 61.435 695.022 62.858 695.022 66.2861C695.022 69.7143 693.815 71.1373 692.069 71.1373ZM703.727 66.8898C705.926 66.8898 707.457 65.2944 707.457 62.7286C707.457 60.1629 705.926 58.5674 703.727 58.5674C701.528 58.5674 699.975 60.1845 699.975 62.7286C699.975 65.2728 701.528 66.8898 703.727 66.8898ZM702.412 73.8324H704.977L715.283 58.7399H712.718L702.412 73.8324ZM703.727 65.1219C702.8 65.1219 702.153 64.3241 702.153 62.7286C702.153 61.1331 702.8 60.3354 703.727 60.3354C704.675 60.3354 705.301 61.1116 705.301 62.7286C705.301 64.3457 704.675 65.1219 703.727 65.1219ZM713.968 74.0049C716.167 74.0049 717.72 72.3878 717.72 69.8437C717.72 67.2995 716.167 65.6824 713.968 65.6824C711.79 65.6824 710.238 67.2995 710.238 69.8437C710.238 72.3878 711.79 74.0049 713.968 74.0049ZM713.968 72.2369C713.041 72.2369 712.394 71.4607 712.394 69.8437C712.394 68.2266 713.041 67.4504 713.968 67.4504C714.917 67.4504 715.542 68.2482 715.542 69.8437C715.542 71.4392 714.917 72.2369 713.968 72.2369Z" fill="#2B61D1"/>
<path d="M885.151 56.7399V59.5428H888.169V71.8324H891.662V56.7399H885.151ZM899.071 68.9864L902.542 65.7092C904.655 63.7471 905.064 62.4104 905.064 60.9442C905.064 58.206 902.822 56.4812 899.459 56.4812C896.742 56.4812 894.629 57.5808 893.465 59.2841L896.009 60.9227C896.742 59.9093 897.842 59.4134 899.135 59.4134C900.731 59.4134 901.55 60.1034 901.55 61.2892C901.55 62.0223 901.313 62.7985 899.976 64.0705L894.155 69.5685V71.8324H905.56V68.9864H899.071ZM909.196 72.0049C910.36 72.0049 911.287 71.1209 911.287 69.8919C911.287 68.6414 910.36 67.8221 909.196 67.8221C908.031 67.8221 907.104 68.6414 907.104 69.8919C907.104 71.1209 908.031 72.0049 909.196 72.0049ZM918.029 62.4104H916.801L917.038 59.5428H923.333V56.7399H914.127L913.351 65.2348H917.21C919.948 65.2348 920.725 66.011 920.725 67.1968C920.725 68.4258 919.647 69.1589 917.9 69.1589C916.326 69.1589 914.752 68.663 913.61 67.8005L912.23 70.4741C913.696 71.509 915.895 72.0911 917.986 72.0911C922.299 72.0911 924.261 69.7626 924.261 67.089C924.261 64.4155 922.493 62.4104 918.029 62.4104ZM932.146 72.0911C935.876 72.0911 938.614 69.2667 938.614 64.2861C938.614 59.3056 935.876 56.4812 932.146 56.4812C928.437 56.4812 925.678 59.3056 925.678 64.2861C925.678 69.2667 928.437 72.0911 932.146 72.0911ZM932.146 69.1373C930.421 69.1373 929.214 67.7143 929.214 64.2861C929.214 60.858 930.421 59.435 932.146 59.435C933.892 59.435 935.1 60.858 935.1 64.2861C935.1 67.7143 933.892 69.1373 932.146 69.1373ZM943.804 64.8898C946.003 64.8898 947.534 63.2944 947.534 60.7286C947.534 58.1629 946.003 56.5674 943.804 56.5674C941.605 56.5674 940.052 58.1845 940.052 60.7286C940.052 63.2728 941.605 64.8898 943.804 64.8898ZM942.489 71.8324H945.054L955.361 56.7399H952.795L942.489 71.8324ZM943.804 63.1219C942.877 63.1219 942.23 62.3241 942.23 60.7286C942.23 59.1331 942.877 58.3354 943.804 58.3354C944.753 58.3354 945.378 59.1116 945.378 60.7286C945.378 62.3457 944.753 63.1219 943.804 63.1219ZM954.045 72.0049C956.245 72.0049 957.797 70.3878 957.797 67.8437C957.797 65.2995 956.245 63.6824 954.045 63.6824C951.868 63.6824 950.315 65.2995 950.315 67.8437C950.315 70.3878 951.868 72.0049 954.045 72.0049ZM954.045 70.2369C953.118 70.2369 952.471 69.4607 952.471 67.8437C952.471 66.2266 953.118 65.4504 954.045 65.4504C954.994 65.4504 955.619 66.2482 955.619 67.8437C955.619 69.4392 954.994 70.2369 954.045 70.2369Z" fill="#2B61D1"/>
<path d="M999.561 56.7399V62.0438H1002.67V59.5859H1007.67L1002.26 71.8324H1006.05L1011.66 59.0038V56.7399H999.561ZM1014.14 72.0049C1015.31 72.0049 1016.23 71.1209 1016.23 69.8919C1016.23 68.6414 1015.31 67.8221 1014.14 67.8221C1012.98 67.8221 1012.05 68.6414 1012.05 69.8919C1012.05 71.1209 1012.98 72.0049 1014.14 72.0049ZM1022.98 62.4104H1021.75L1021.98 59.5428H1028.28V56.7399H1019.07L1018.3 65.2348H1022.16C1024.89 65.2348 1025.67 66.011 1025.67 67.1968C1025.67 68.4258 1024.59 69.1589 1022.85 69.1589C1021.27 69.1589 1019.7 68.663 1018.56 67.8005L1017.18 70.4741C1018.64 71.509 1020.84 72.0911 1022.93 72.0911C1027.24 72.0911 1029.21 69.7626 1029.21 67.089C1029.21 64.4155 1027.44 62.4104 1022.98 62.4104ZM1037.09 72.0911C1040.82 72.0911 1043.56 69.2667 1043.56 64.2861C1043.56 59.3056 1040.82 56.4812 1037.09 56.4812C1033.38 56.4812 1030.62 59.3056 1030.62 64.2861C1030.62 69.2667 1033.38 72.0911 1037.09 72.0911ZM1037.09 69.1373C1035.37 69.1373 1034.16 67.7143 1034.16 64.2861C1034.16 60.858 1035.37 59.435 1037.09 59.435C1038.84 59.435 1040.05 60.858 1040.05 64.2861C1040.05 67.7143 1038.84 69.1373 1037.09 69.1373ZM1048.75 64.8898C1050.95 64.8898 1052.48 63.2944 1052.48 60.7286C1052.48 58.1629 1050.95 56.5674 1048.75 56.5674C1046.55 56.5674 1045 58.1845 1045 60.7286C1045 63.2728 1046.55 64.8898 1048.75 64.8898ZM1047.43 71.8324H1050L1060.31 56.7399H1057.74L1047.43 71.8324ZM1048.75 63.1219C1047.82 63.1219 1047.18 62.3241 1047.18 60.7286C1047.18 59.1331 1047.82 58.3354 1048.75 58.3354C1049.7 58.3354 1050.32 59.1116 1050.32 60.7286C1050.32 62.3457 1049.7 63.1219 1048.75 63.1219ZM1058.99 72.0049C1061.19 72.0049 1062.74 70.3878 1062.74 67.8437C1062.74 65.2995 1061.19 63.6824 1058.99 63.6824C1056.81 63.6824 1055.26 65.2995 1055.26 67.8437C1055.26 70.3878 1056.81 72.0049 1058.99 72.0049ZM1058.99 70.2369C1058.06 70.2369 1057.42 69.4607 1057.42 67.8437C1057.42 66.2266 1058.06 65.4504 1058.99 65.4504C1059.94 65.4504 1060.57 66.2482 1060.57 67.8437C1060.57 69.4392 1059.94 70.2369 1058.99 70.2369Z" fill="#2B61D1"/>
</svg>
