<svg xmlns="http://www.w3.org/2000/svg" xmlns:xlink="http://www.w3.org/1999/xlink" width="202" height="191" viewBox="0 0 202 191"><defs><clipPath id="a"><rect width="202" height="191" transform="translate(11035 -2157)" fill="none" stroke="#707070" stroke-width="1"/></clipPath></defs><g transform="translate(-11035 2157)" clip-path="url(#a)"><g transform="translate(281.032 229.067)"><path d="M44.219,99.73H7.849a2.922,2.922,0,0,0-2.922,2.922v116.84a2.922,2.922,0,0,0,2.922,2.922h36.37a2.922,2.922,0,0,0,2.922-2.922V102.652A2.922,2.922,0,0,0,44.219,99.73Z" transform="translate(10761.932 -2427.714)" fill="#9c9dac"/><path d="M24,.341a23.978,23.978,0,1,0,23.98,23.973A24.013,24.013,0,0,0,24,.341Z" transform="translate(10763.98 -2386.408)" fill="#9c9dac"/><path d="M178.805,94.761c-14.607,0-25.405,6.279-31.955,13.415v-7.589a2.922,2.922,0,0,0-2.922-2.922H109.1a2.922,2.922,0,0,0-2.922,2.922v116.84a2.922,2.922,0,0,0,2.922,2.922h36.29a2.922,2.922,0,0,0,2.922-2.922V159.618c0-19.48,5.291-27.069,18.871-27.069,14.789,0,15.964,12.166,15.964,28.072v56.807a2.922,2.922,0,0,0,2.922,2.922h36.3a2.922,2.922,0,0,0,2.922-2.922V153.339C225.293,124.372,219.769,94.761,178.805,94.761Z" transform="translate(10719.855 -2425.649)" fill="#9c9dac"/></g></g></svg>