<svg width="46" height="46" viewBox="0 0 46 46" fill="none" xmlns="http://www.w3.org/2000/svg">
<path d="M43.6647 15.7605V34.5871C43.6647 36.658 41.9703 38.3524 39.8993 38.3524H9.77674C8.74128 38.3524 7.89408 37.5052 7.89408 36.4698C7.89408 35.4343 8.74128 34.5871 9.77674 34.5871H39.8993V15.7605C39.8993 14.725 40.7465 13.8778 41.782 13.8778C42.8175 13.8778 43.6647 14.725 43.6647 15.7605ZM7.89408 30.8218C4.76886 30.8218 2.24609 28.299 2.24609 25.1738V13.8778C2.24609 10.7526 4.76886 8.22984 7.89408 8.22984H30.486C33.6113 8.22984 36.134 10.7526 36.134 13.8778V27.0565C36.134 29.1274 34.4396 30.8218 32.3687 30.8218H7.89408ZM13.5421 19.5258C13.5421 22.651 16.0648 25.1738 19.1901 25.1738C22.3153 25.1738 24.838 22.651 24.838 19.5258C24.838 16.4006 22.3153 13.8778 19.1901 13.8778C16.0648 13.8778 13.5421 16.4006 13.5421 19.5258Z" fill="#2B61D1"/>
</svg>
