<svg width="116" height="116" viewBox="0 0 116 116" fill="none" xmlns="http://www.w3.org/2000/svg">
<g filter="url(#filter0_d_653_322)">
<circle cx="46.5" cy="46.5" r="37.5" fill="white"/>
</g>
<path d="M58.8428 35.9489C58.8428 34.7045 58.0903 34 56.6382 34H36.2074C34.7564 34 34.0039 34.7104 34.0039 35.9489V37.8361L56.697 37.79C58.095 37.79 58.8475 37.1399 58.8475 35.9489" fill="#0C9ED9"/>
<path d="M34 44.6914V57.1056C34 58.408 34.7525 59 36.2046 59H56.8494C58.2475 59 59 58.408 59 57.1056C59 55.86 58.2475 55.2112 56.8494 55.2112H39.056C38.3575 55.2112 38.0883 54.8856 38.0883 54.2368V48.5311H51.5289C52.981 48.5311 53.7336 47.8811 53.7336 46.6367C53.7336 45.4527 52.981 44.7423 51.5289 44.7423L34 44.6914Z" fill="black"/>
<defs>
<filter id="filter0_d_653_322" x="0.00462914" y="0.00462914" width="115.479" height="115.479" filterUnits="userSpaceOnUse" color-interpolation-filters="sRGB">
<feFlood flood-opacity="0" result="BackgroundImageFix"/>
<feColorMatrix in="SourceAlpha" type="matrix" values="0 0 0 0 0 0 0 0 0 0 0 0 0 0 0 0 0 0 127 0" result="hardAlpha"/>
<feMorphology radius="1.49923" operator="dilate" in="SourceAlpha" result="effect1_dropShadow_653_322"/>
<feOffset dx="11.2442" dy="11.2442"/>
<feGaussianBlur stdDeviation="9.37018"/>
<feComposite in2="hardAlpha" operator="out"/>
<feColorMatrix type="matrix" values="0 0 0 0 0.168627 0 0 0 0 0.380392 0 0 0 0 0.819608 0 0 0 0.1 0"/>
<feBlend mode="normal" in2="BackgroundImageFix" result="effect1_dropShadow_653_322"/>
<feBlend mode="normal" in="SourceGraphic" in2="effect1_dropShadow_653_322" result="shape"/>
</filter>
</defs>
</svg>
