<?xml version="1.0" encoding="UTF-8"?><svg id="Layer_1" xmlns="http://www.w3.org/2000/svg" viewBox="0 0 1060 232.34"><path d="m61.99,0h146.69v23.01h23.01v146.69h-23.01v23.01h-15.97v15.24h-23.01v23.08H23.01v-23.08H0V61.33h23.01v-23.08h15.97v-15.24h23.01V0Zm15.61,15.61v23.01h-23.08v115.48h23.08v23.08h115.48v-23.08h23.01V38.61h-23.01V15.61h-115.48Zm46.38,46.38h68.74v68.74h-68.74V61.99Z"/><path d="m285.4,1.02h146.69v23.01h23.37v146.69h-23.37v23.01h-14.59v15.24h-23.37v23.08h-146.69v-23.08h-23.01v-54.51h23.01v-14.59h-23.01V62.35h23.01v-23.08h14.95v-15.24h23.01V1.02Zm15.61,15.61v23.01h-22.36c-.48.05-.73.27-.73.65v45.73h23.08v23.08h115.48v22.36c0,.44-.22.65-.65.65h-137.91v23.01h23.08v23.08h115.48v-23.08h23.01v-69.39h-92.11v-22.72h92.11v-23.37h-23.01v-23.01h-115.48Z"/><path d="m486.81,1.02h123.97v192.71h-38.61v38.32h-100.96v-115.19h-23.01V39.27h38.61V1.02Zm15.9,15.61v46.38h23.08v115.19h69.1V16.62h-92.18Z"/><path d="m665.15,1.38h147.05v23.01h23.01v146.69h-23.01v23.01h-15.61v15.24h-23.01v23.01h-147.05v-23.01h-23.01v-54.51h38.61v-37.6h-38.61v-54.58h23.01v-23.01h15.61v-15.24h23.01V1.38Zm15.97,15.53v23.08h-23.08v23.37h92.18v22.65h-46.09v23.37h46.09v23.08h-92.18v23.01h23.08v23.01h115.12v-23.01h23.37v-46.09h-22.65c-.48,0-.73-.22-.73-.65v-22.36h23.37v-45.73c0-.44-.22-.65-.65-.65h-22.72v-23.08h-115.12Z"/><path d="m866.93.36h100.6v38.25h37.6V.36h54.87v192.71h-38.98v38.25h-77.88v-38.25h-14.59v38.25h-100.6V38.61h38.98V.36Zm15.53,15.53v161.57h69.46v-69.1h22.72v23.08h23.01v46.02h46.74v-69.39h-23.37v-22.72h23.37V15.9h-23.73v46.09h-23.01v23.01h-45.73V15.9h-69.46Z"/></svg>