<svg width="224" height="52" viewBox="0 0 224 52" fill="none" xmlns="http://www.w3.org/2000/svg">
<path d="M42.3664 3.79182C54.6664 3.79182 64.7113 13.7683 64.7113 25.9999C64.7113 38.2315 54.6664 48.208 42.3664 48.208C39.4368 48.2288 36.5319 47.6697 33.8192 46.563C31.1065 45.4563 28.6396 43.8237 26.5607 41.7595C24.4817 39.6952 22.8316 37.2399 21.7057 34.5352C20.5797 31.8305 20 28.9296 20 25.9999C20 23.0701 20.5797 20.1693 21.7057 17.4646C22.8316 14.7598 24.4817 12.3046 26.5607 10.2403C28.6396 8.17604 31.1065 6.54352 33.8192 5.43679C36.5319 4.33006 39.4368 3.771 42.3664 3.79182Z" fill="#32407B"/>
<path d="M42.3695 7.20825C52.8242 7.20825 61.2976 15.6132 61.2976 25.9998C61.2976 36.3864 52.7558 44.8598 42.3695 44.8598C37.3599 44.864 32.5534 42.8805 29.0047 39.3446C25.456 35.8087 23.4552 31.0093 23.4414 25.9998C23.4414 15.6132 31.9147 7.20825 42.3695 7.20825Z" fill="#32407B"/>
<path d="M42.3656 45.2017C31.7056 45.2017 23.0273 36.5916 23.0273 26C23.0273 15.4084 31.7056 6.79858 42.3656 6.79858C53.0255 6.79858 61.7038 15.4084 61.7038 26C61.7038 36.5916 52.9571 45.2017 42.3656 45.2017ZM42.3656 7.61858C38.7329 7.63204 35.1857 8.72155 32.1718 10.7495C29.158 12.7775 26.8125 15.653 25.4317 19.013C24.0509 22.373 23.6966 26.0668 24.4136 29.628C25.1305 33.1892 26.8866 36.4582 29.46 39.0221C32.0335 41.586 35.3089 43.3299 38.8727 44.0336C42.4366 44.7374 46.129 44.3693 49.4839 42.976C52.8387 41.5828 55.7055 39.2267 57.7223 36.2053C59.7391 33.1839 60.8154 29.6327 60.8154 26C60.7982 21.1184 58.8466 16.4426 55.3884 12.9972C51.9302 9.5518 47.2472 7.61766 42.3656 7.61858Z" fill="white"/>
<path d="M50.4973 33.6531H34.0974C33.991 33.6458 33.8909 33.6003 33.8155 33.5249C33.7402 33.4495 33.6947 33.3493 33.6875 33.243V18.8932C33.6871 18.3219 33.8004 17.7563 34.0209 17.2294C34.2414 16.7024 34.5646 16.2246 34.9717 15.8239C35.3788 15.4232 35.8616 15.1075 36.392 14.8954C36.9224 14.6832 37.4897 14.5788 38.0608 14.5882H46.6023C47.7526 14.5808 48.8589 15.0297 49.6787 15.8367C50.4986 16.6437 50.9649 17.7428 50.9756 18.8932V33.243C50.953 33.3548 50.8937 33.456 50.807 33.5302C50.7203 33.6045 50.6113 33.6479 50.4973 33.6531ZM34.5759 32.8331H50.0875V18.9616C50.0836 18.0385 49.7151 17.1543 49.0623 16.5016C48.4096 15.8489 47.5254 15.4805 46.6023 15.4766H38.0608C37.1378 15.4805 36.2536 15.849 35.6009 16.5017C34.9482 17.1544 34.5798 18.0385 34.5759 18.9616V32.8331Z" fill="white"/>
<path d="M37.9956 31.1249C37.7706 31.1271 37.5475 31.0845 37.3392 30.9994C37.1309 30.9143 36.9417 30.7886 36.7827 30.6295C36.6236 30.4704 36.4978 30.2812 36.4127 30.0729C36.3277 29.8646 36.285 29.6415 36.2872 29.4165C36.285 29.1916 36.3277 28.9684 36.4127 28.7601C36.4978 28.5519 36.6236 28.3627 36.7827 28.2036C36.9417 28.0445 37.1309 27.9187 37.3392 27.8337C37.5475 27.7486 37.7706 27.7059 37.9956 27.7081C38.2206 27.7059 38.4437 27.7486 38.652 27.8337C38.8603 27.9187 39.0495 28.0445 39.2085 28.2036C39.3676 28.3627 39.4934 28.5519 39.5785 28.7601C39.6635 28.9684 39.7062 29.1916 39.704 29.4165C39.697 29.8674 39.5147 30.2979 39.1959 30.6168C38.877 30.9357 38.4465 31.1179 37.9956 31.1249ZM37.9956 28.5284C37.8199 28.5284 37.6481 28.5805 37.502 28.6781C37.3559 28.7757 37.2421 28.9145 37.1748 29.0768C37.1076 29.2392 37.09 29.4178 37.1243 29.5901C37.1585 29.7625 37.2432 29.9208 37.3674 30.045C37.4916 30.1692 37.6499 30.2539 37.8223 30.2881C37.9946 30.3224 38.1732 30.3048 38.3356 30.2376C38.4979 30.1703 38.6367 30.0565 38.7343 29.9104C38.8319 29.7643 38.884 29.5925 38.884 29.4168C38.8156 28.8701 38.4741 28.5284 37.9956 28.5284ZM46.7422 31.1249C46.5173 31.1271 46.2941 31.0845 46.0859 30.9994C45.8776 30.9143 45.6884 30.7886 45.5293 30.6295C45.3702 30.4704 45.2445 30.2812 45.1594 30.0729C45.0743 29.8646 45.0316 29.6415 45.0338 29.4165C45.0316 29.1916 45.0743 28.9684 45.1594 28.7601C45.2445 28.5519 45.3702 28.3627 45.5293 28.2036C45.6884 28.0445 45.8776 27.9187 46.0859 27.8337C46.2941 27.7486 46.5173 27.7059 46.7422 27.7081C46.9672 27.7059 47.1904 27.7486 47.3986 27.8337C47.6069 27.9187 47.7961 28.0445 47.9552 28.2036C48.1143 28.3627 48.24 28.5519 48.3251 28.7601C48.4102 28.9684 48.4529 29.1916 48.4506 29.4165C48.4529 29.6415 48.4102 29.8646 48.3251 30.0729C48.24 30.2812 48.1143 30.4704 47.9552 30.6295C47.7961 30.7886 47.6069 30.9143 47.3986 30.9994C47.1904 31.0845 46.9672 31.1271 46.7422 31.1249ZM46.7422 28.5284C46.5665 28.5284 46.3948 28.5805 46.2487 28.6781C46.1026 28.7757 45.9887 28.9145 45.9215 29.0768C45.8542 29.2392 45.8366 29.4178 45.8709 29.5901C45.9052 29.7625 45.9898 29.9208 46.114 30.045C46.2383 30.1692 46.3966 30.2539 46.5689 30.2881C46.7413 30.3224 46.9199 30.3048 47.0822 30.2376C47.2446 30.1703 47.3833 30.0565 47.4809 29.9104C47.5785 29.7643 47.6306 29.5925 47.6306 29.4168C47.6344 29.2991 47.614 29.1819 47.5707 29.0724C47.5274 28.9629 47.4621 28.8635 47.3788 28.7802C47.2956 28.6969 47.1961 28.6316 47.0866 28.5883C46.9771 28.545 46.8599 28.5246 46.7422 28.5284ZM44.8289 17.6635H39.8405C39.7342 17.6562 39.6341 17.6107 39.5588 17.5354C39.4835 17.46 39.4379 17.36 39.4307 17.2536C39.4379 17.1473 39.4834 17.0471 39.5587 16.9717C39.6341 16.8963 39.7342 16.8508 39.8405 16.8435H44.8289C44.935 16.851 45.0348 16.8967 45.1099 16.972C45.1851 17.0473 45.2304 17.1472 45.2377 17.2534C45.2402 17.3078 45.2313 17.3621 45.2117 17.4129C45.192 17.4637 45.162 17.5099 45.1236 17.5484C45.0851 17.587 45.0391 17.6172 44.9884 17.637C44.9376 17.6568 44.8833 17.6658 44.8289 17.6635ZM50.2956 37.6168C50.1688 37.6142 50.0474 37.5656 49.9538 37.48L47.2889 33.7217C47.2615 33.6769 47.2432 33.627 47.2352 33.575C47.2271 33.5231 47.2294 33.47 47.2419 33.4189C47.2545 33.3679 47.277 33.3198 47.3083 33.2775C47.3395 33.2351 47.3788 33.1994 47.4239 33.1724C47.469 33.1453 47.519 33.1275 47.571 33.1198C47.6231 33.1122 47.6761 33.1149 47.727 33.1279C47.778 33.1409 47.8259 33.1638 47.868 33.1954C47.91 33.227 47.9454 33.2665 47.9721 33.3119L50.6373 37.0701C50.6686 37.1137 50.69 37.1635 50.7001 37.2162C50.7102 37.2688 50.7087 37.3231 50.6957 37.3751C50.6827 37.4271 50.6586 37.4757 50.6249 37.5174C50.5912 37.5592 50.5489 37.5931 50.5008 37.6168H50.2956ZM34.3742 37.6168C34.2785 37.6197 34.1838 37.5961 34.1008 37.5484C34.0186 37.4869 33.9601 37.3989 33.9352 37.2994C33.9103 37.1998 33.9205 37.0947 33.964 37.0017L36.6289 33.2435C36.6538 33.1965 36.6883 33.1553 36.7302 33.1226C36.772 33.0898 36.8203 33.0662 36.8718 33.0533C36.9234 33.0405 36.9771 33.0386 37.0294 33.0478C37.0818 33.057 37.1316 33.0772 37.1756 33.1069C37.3121 33.2435 37.4489 33.5168 37.3124 33.6536L34.6472 37.4116C34.6472 37.5484 34.5107 37.6165 34.3739 37.6165L34.3742 37.6168Z" fill="white"/>
<path d="M35.0543 36.7282C34.9586 36.7312 34.864 36.7075 34.781 36.6598C34.6988 36.5983 34.6404 36.5103 34.6155 36.4108C34.5907 36.3112 34.6009 36.2061 34.6444 36.1132L36.6262 33.3114C36.6511 33.2645 36.6855 33.2233 36.7274 33.1905C36.7692 33.1578 36.8175 33.1342 36.8691 33.1213C36.9206 33.1084 36.9743 33.1065 37.0267 33.1158C37.079 33.125 37.1288 33.1452 37.1728 33.1749C37.3094 33.3114 37.4462 33.5848 37.3094 33.7216L35.3276 36.5233C35.3276 36.6601 35.1908 36.7282 35.0543 36.7282ZM50.4975 20.8068H34.0975C33.9888 20.8068 33.8845 20.7636 33.8076 20.6867C33.7307 20.6098 33.6875 20.5056 33.6875 20.3968C33.6875 20.2881 33.7307 20.1838 33.8076 20.1069C33.8845 20.03 33.9888 19.9868 34.0975 19.9868H50.4975C50.6038 19.9941 50.7038 20.0396 50.7792 20.1149C50.8545 20.1903 50.9 20.2904 50.9073 20.3967C50.9098 20.4512 50.9009 20.5056 50.8812 20.5565C50.8615 20.6074 50.8314 20.6536 50.7929 20.6922C50.7543 20.7308 50.7081 20.7609 50.6572 20.7806C50.6064 20.8004 50.552 20.8093 50.4975 20.8068ZM50.4975 26.0685H34.0975C33.9888 26.0685 33.8845 26.0253 33.8076 25.9485C33.7307 25.8716 33.6875 25.7673 33.6875 25.6585C33.6875 25.5498 33.7307 25.4455 33.8076 25.3686C33.8845 25.2917 33.9888 25.2485 34.0975 25.2485H50.4975C50.6038 25.2558 50.7038 25.3013 50.7792 25.3767C50.8545 25.452 50.9 25.5521 50.9073 25.6584C50.9098 25.7129 50.9009 25.7673 50.8812 25.8182C50.8615 25.8691 50.8314 25.9153 50.7929 25.9539C50.7543 25.9925 50.7081 26.0226 50.6572 26.0424C50.6064 26.0621 50.552 26.071 50.4975 26.0685Z" fill="white"/>
<path d="M37.9931 26.0684C37.8565 26.0684 37.7881 26.0684 37.7197 25.9319C37.6759 25.9032 37.6388 25.8653 37.611 25.8208C37.5833 25.7763 37.5655 25.7264 37.559 25.6744C37.5525 25.6224 37.5574 25.5696 37.5734 25.5196C37.5893 25.4697 37.6159 25.4238 37.6513 25.3852L39.5647 23.2669C39.6375 23.1962 39.7353 23.1569 39.8368 23.1576C39.9384 23.1583 40.0356 23.199 40.1074 23.2708C40.1793 23.3427 40.2199 23.4399 40.2207 23.5414C40.2214 23.643 40.1821 23.7408 40.1113 23.8136L38.198 25.9319C38.198 26 38.0612 26.0684 37.9931 26.0684ZM40.4531 26.0684C40.3165 26.0684 40.2481 26.0684 40.1797 25.9319C40.1397 25.8985 40.1074 25.8567 40.0853 25.8095C40.0631 25.7622 40.0517 25.7107 40.0517 25.6585C40.0517 25.6064 40.0631 25.5549 40.0853 25.5076C40.1074 25.4604 40.1397 25.4186 40.1797 25.3852L44.0064 21.0803C44.0792 21.0095 44.177 20.9702 44.2786 20.971C44.3801 20.9717 44.4773 21.0124 44.5492 21.0842C44.621 21.156 44.6616 21.2532 44.6624 21.3548C44.6631 21.4563 44.6238 21.5541 44.553 21.627L40.7264 25.9316C40.6939 25.9733 40.6525 26.0073 40.6052 26.0309C40.5579 26.0546 40.5059 26.0674 40.4531 26.0684ZM48.3113 34.9516H36.3531C36.2443 34.9516 36.14 34.9084 36.0632 34.8315C35.9863 34.7546 35.9431 34.6503 35.9431 34.5416C35.9431 34.4328 35.9863 34.3285 36.0632 34.2517C36.14 34.1748 36.2443 34.1316 36.3531 34.1316H48.3113C48.4176 34.1388 48.5177 34.1844 48.593 34.2597C48.6684 34.335 48.7139 34.4351 48.7212 34.5414C48.7237 34.5959 48.7148 34.6504 48.6951 34.7012C48.6754 34.7521 48.6453 34.7983 48.6067 34.8369C48.5682 34.8755 48.522 34.9056 48.4711 34.9254C48.4202 34.9451 48.3658 34.954 48.3113 34.9516ZM49.6096 36.7281H35.0545C34.9458 36.7281 34.8415 36.6849 34.7646 36.608C34.6877 36.5311 34.6445 36.4268 34.6445 36.3181C34.6445 36.2094 34.6877 36.1051 34.7646 36.0282C34.8415 35.9513 34.9458 35.9081 35.0545 35.9081H49.6096C49.7159 35.9154 49.8159 35.9609 49.8913 36.0362C49.9666 36.1116 50.0122 36.2116 50.0194 36.3179C50.0878 36.5232 49.8829 36.7281 49.6096 36.7281Z" fill="white"/>
<path d="M42.3684 42.6732C33.0751 42.6732 25.5586 35.2248 25.5586 25.9999C25.5586 16.8434 33.0751 9.32692 42.3 9.32692C44.4945 9.31463 46.6699 9.73568 48.7013 10.5659C50.7327 11.3962 52.5803 12.6193 54.138 14.1651C55.6957 15.711 56.9329 17.5491 57.7787 19.5741C58.6245 21.5991 59.0622 23.7712 59.0667 25.9657C59.0712 28.1603 58.6424 30.3341 57.8049 32.3626C56.9675 34.3911 55.7378 36.2343 54.1865 37.7865C52.6351 39.3387 50.7926 40.5694 48.7646 41.408C46.7366 42.2465 44.563 42.6765 42.3684 42.6732ZM42.3684 10.1469C40.2818 10.1414 38.2145 10.5472 36.2847 11.3411C34.355 12.135 32.6007 13.3015 31.122 14.7738C29.6434 16.2461 28.4694 17.9954 27.6672 19.9217C26.8651 21.848 26.4504 23.9136 26.447 26.0002C26.447 34.7469 33.622 41.8535 42.3684 41.8535C51.1148 41.8535 58.2898 34.7469 58.2898 26.0002C58.2898 17.2536 51.1151 10.1469 42.3684 10.1469Z" fill="white"/>
<path d="M82.5737 36.0857C80.6719 36.0857 79.0212 35.6909 77.6217 34.9015C76.2223 34.0941 75.1458 32.9548 74.3922 31.4836C73.6566 30.0124 73.2888 28.272 73.2888 26.2625C73.2888 24.271 73.6566 22.5485 74.3922 21.0953C75.1458 19.624 76.2223 18.4937 77.6217 17.7043C79.0212 16.8969 80.6719 16.4932 82.5737 16.4932C83.8655 16.4932 85.0766 16.6905 86.2069 17.0853C87.3552 17.462 88.3061 18.0182 89.0597 18.7538L87.9293 21.2836C87.0502 20.5839 86.189 20.0815 85.3457 19.7765C84.5024 19.4536 83.5964 19.2921 82.6275 19.2921C80.7795 19.2921 79.3442 19.8932 78.3215 21.0953C77.3167 22.2794 76.8144 24.0018 76.8144 26.2625C76.8144 28.5232 77.3167 30.2635 78.3215 31.4836C79.3442 32.6857 80.7795 33.2867 82.6275 33.2867C83.5964 33.2867 84.5024 33.1342 85.3457 32.8292C86.189 32.5063 87.0502 31.9949 87.9293 31.2952L89.0597 33.825C88.3061 34.5606 87.3552 35.1258 86.2069 35.5205C85.0766 35.8973 83.8655 36.0857 82.5737 36.0857ZM97.9363 36.0588C96.5188 36.0588 95.2898 35.7717 94.2492 35.1975C93.2265 34.6234 92.4371 33.816 91.8809 32.7754C91.3247 31.7168 91.0466 30.4609 91.0466 29.0076C91.0466 27.5723 91.3247 26.3253 91.8809 25.2667C92.4371 24.1902 93.2265 23.3649 94.2492 22.7908C95.2898 22.2166 96.5188 21.9296 97.9363 21.9296C99.3178 21.9296 100.52 22.2166 101.543 22.7908C102.583 23.3649 103.382 24.1902 103.938 25.2667C104.512 26.3253 104.799 27.5723 104.799 29.0076C104.799 30.4609 104.512 31.7168 103.938 32.7754C103.382 33.816 102.583 34.6234 101.543 35.1975C100.52 35.7717 99.3178 36.0588 97.9363 36.0588ZM97.9363 33.4751C99.0486 33.4751 99.9009 33.1073 100.493 32.3717C101.103 31.6181 101.408 30.4968 101.408 29.0076C101.408 27.5364 101.103 26.433 100.493 25.6973C99.9009 24.9438 99.0486 24.567 97.9363 24.567C96.8059 24.567 95.9268 24.9438 95.2988 25.6973C94.6888 26.433 94.3838 27.5364 94.3838 29.0076C94.3838 30.4968 94.6888 31.6181 95.2988 32.3717C95.9088 33.1073 96.788 33.4751 97.9363 33.4751ZM107.673 35.8704V22.2794H111.037V35.8704H107.673ZM107.512 16.1164H111.253V19.4267H107.512V16.1164ZM114.664 35.8704V26.1279C114.664 25.482 114.646 24.8361 114.61 24.1902C114.592 23.5443 114.539 22.9074 114.449 22.2794H117.625L117.921 24.9707L117.625 25.0514C118.055 24.0287 118.692 23.2573 119.535 22.7369C120.397 22.1987 121.383 21.9296 122.496 21.9296C125.725 21.9296 127.34 23.7955 127.34 27.5274V35.8704H123.976V27.662C123.976 26.6034 123.77 25.8319 123.357 25.3475C122.944 24.8451 122.307 24.5939 121.446 24.5939C120.406 24.5939 119.571 24.9258 118.943 25.5897C118.333 26.2356 118.028 27.0968 118.028 28.1733V35.8704H114.664ZM131.177 35.8704V16.7085H133.949L141.188 33.206H139.87L147.055 16.7085H149.827V35.8704H146.732L146.706 21.6873L147.621 21.9026L141.646 35.8704H139.358L133.249 21.9026L134.218 21.6873L134.245 35.8704H131.177ZM165.399 34.3632C164.753 34.9015 163.955 35.3231 163.004 35.6281C162.071 35.9152 161.12 36.0588 160.151 36.0588C158.68 36.0588 157.406 35.7807 156.33 35.2245C155.271 34.6683 154.455 33.8609 153.881 32.8023C153.307 31.7437 153.02 30.4878 153.02 29.0345C153.02 27.6351 153.298 26.406 153.854 25.3475C154.41 24.271 155.181 23.4367 156.168 22.8446C157.155 22.2346 158.294 21.9296 159.586 21.9296C160.842 21.9296 161.919 22.2077 162.816 22.7639C163.713 23.3021 164.404 24.0826 164.888 25.1053C165.39 26.1279 165.642 27.339 165.642 28.7385V29.2498H155.98L156.007 27.4467H163.65L162.735 28.3617C162.753 27.0519 162.493 26.0562 161.955 25.3744C161.434 24.6926 160.672 24.3517 159.667 24.3517C158.59 24.3517 157.756 24.7375 157.164 25.509C156.572 26.2625 156.276 27.348 156.276 28.7654C156.276 30.3802 156.608 31.5733 157.272 32.3448C157.936 33.0983 158.94 33.4751 160.286 33.4751C161.022 33.4751 161.739 33.3585 162.439 33.1253C163.157 32.8741 163.82 32.5152 164.431 32.0488L165.399 34.3632ZM166.611 24.8092V22.2794H176.192V24.8092H166.611ZM176.192 33.0714V35.7358C175.833 35.8614 175.474 35.9421 175.115 35.978C174.774 36.0318 174.407 36.0588 174.012 36.0588C172.487 36.0588 171.303 35.6281 170.459 34.7669C169.634 33.9057 169.221 32.6677 169.221 31.053V18.9692L172.585 17.8388V30.8915C172.585 31.5015 172.684 31.986 172.882 32.3448C173.079 32.6857 173.339 32.9279 173.662 33.0714C174.003 33.215 174.38 33.2867 174.792 33.2867C175.026 33.2867 175.25 33.2688 175.465 33.2329C175.68 33.197 175.923 33.1432 176.192 33.0714ZM178.477 35.8704V26.1279C178.477 25.5 178.459 24.863 178.423 24.2171C178.405 23.5533 178.351 22.9074 178.262 22.2794H181.437L181.814 25.7781L181.437 25.5897C181.671 24.3876 182.2 23.4815 183.025 22.8715C183.85 22.2615 184.783 21.9565 185.824 21.9565C186.093 21.9565 186.344 21.9744 186.578 22.0103C186.811 22.0462 187.017 22.1 187.197 22.1718L187.143 25.2398C186.587 25.0066 185.994 24.89 185.367 24.89C184.559 24.89 183.895 25.0514 183.375 25.3744C182.873 25.6973 182.487 26.1369 182.218 26.6931C181.967 27.2314 181.841 27.8414 181.841 28.5232V35.8704H178.477ZM194.943 36.0588C193.526 36.0588 192.297 35.7717 191.256 35.1975C190.233 34.6234 189.444 33.816 188.888 32.7754C188.331 31.7168 188.053 30.4609 188.053 29.0076C188.053 27.5723 188.331 26.3253 188.888 25.2667C189.444 24.1902 190.233 23.3649 191.256 22.7908C192.297 22.2166 193.526 21.9296 194.943 21.9296C196.325 21.9296 197.527 22.2166 198.549 22.7908C199.59 23.3649 200.388 24.1902 200.945 25.2667C201.519 26.3253 201.806 27.5723 201.806 29.0076C201.806 30.4609 201.519 31.7168 200.945 32.7754C200.388 33.816 199.59 34.6234 198.549 35.1975C197.527 35.7717 196.325 36.0588 194.943 36.0588ZM194.943 33.4751C196.055 33.4751 196.908 33.1073 197.5 32.3717C198.11 31.6181 198.415 30.4968 198.415 29.0076C198.415 27.5364 198.11 26.433 197.5 25.6973C196.908 24.9438 196.055 24.567 194.943 24.567C193.813 24.567 192.934 24.9438 192.306 25.6973C191.696 26.433 191.391 27.5364 191.391 29.0076C191.391 30.4968 191.696 31.6181 192.306 32.3717C192.916 33.1073 193.795 33.4751 194.943 33.4751Z" fill="#32407B"/>
</svg>
