<svg width="162" height="52" viewBox="0 0 162 52" fill="none" xmlns="http://www.w3.org/2000/svg">
<path d="M88.0528 40.2121C91.7703 40.7227 94.077 40.0419 95.8309 38.3019C96.9461 37.1955 97.7945 35.9284 98.5189 34.5667C101.512 29.101 108.775 15.9097 108.775 15.9097H103.561L98.1376 26.7181L96.4314 15.9097H90.8743V16.165C90.8743 16.165 92.7521 26.0467 93.6957 31.1341C93.8196 31.9001 93.9912 33.8481 92.6281 35.0774C91.8561 35.796 90.7503 36.3539 88.8249 36.0513L88.0528 40.2026V40.2121ZM83.9064 15.9191L78.864 27.2855L78.7401 27.2476L78.0538 16.2217H72.5443L67.1968 27.2855L67.0729 27.2004L66.8632 15.9191H61.6016L62.631 34.0277H68.3121L73.8216 22.2359H73.9455L74.8034 34.0277H80.5321L88.8249 15.9191H83.9064ZM114.256 34.0277H108.747C109.986 27.919 111.139 22.0278 112.378 15.9191H116.649V19.2666C117.202 17.9144 118.012 16.6 119.337 16.0421C120.624 15.4936 122.625 15.5314 124.684 16.1272C123.874 17.6969 123.273 19.0491 122.377 20.7512C121.605 20.581 120.881 20.4108 120.156 20.3257C118.536 20.1555 117.383 20.7891 116.82 22.321C116.439 23.3801 116.182 24.5243 115.962 25.6306C115.362 28.4297 114.847 31.2287 114.256 34.0277ZM131.909 20.2501C132.682 19.3139 134.13 18.7654 135.16 19.1059C136.447 19.4841 136.866 20.9309 135.97 21.9049C135.675 22.2453 135.246 22.5006 134.817 22.6708C133.492 23.1815 132.129 23.1342 130.67 22.8789C130.88 21.8576 131.271 21.016 131.909 20.2501ZM138.963 29.536H138.792C136.694 30.3398 134.35 30.5573 132.72 30.0845C130.928 29.5739 129.898 28.0514 130.241 26.3115C135.541 26.737 137.81 25.763 139.049 25.0349C142.337 23.0869 143.148 17.8671 138.877 16.3447C135.112 14.9924 129.86 15.626 127.382 18.5952C125.113 21.3092 124.474 24.2784 124.818 27.6259C125.075 30.1318 126.781 33.6873 132.424 34.283C135.846 34.6235 138.019 33.7346 138.191 33.6873L138.963 29.536Z" fill="#0A1228"/>
<path d="M40.7331 26.0015H53.2581L46.5095 42.4079C45.5658 44.6963 43.3449 46.181 40.8666 46.181H28.332L35.0807 29.7745C36.0243 27.4388 38.2453 26.0015 40.7236 26.0015" fill="#94C5FF"/>
<path d="M53.2617 26.0015L45.6551 35.5806C44.5018 37.103 42.7479 38.0865 40.6985 38.0865H31.5859L35.046 29.7367C35.9897 27.4861 38.2107 26.0015 40.689 26.0015H53.2521H53.2617Z" fill="#1F2FB0"/>
<path d="M36.5439 15.9111H49.0689L42.3203 32.3176C41.3766 34.606 39.1557 36.0906 36.6774 36.0906H24.1523L30.901 19.6842C31.8446 17.3958 34.1037 15.9111 36.5439 15.9111Z" fill="#0193FF"/>
<path d="M49.1132 16.0342L41.5067 25.6133C40.3533 27.1357 38.5994 28.1192 36.5501 28.1192H27.4375L30.8976 19.7694C31.8413 17.5188 34.0622 16.0342 36.5405 16.0342H49.1037H49.1132Z" fill="#1F2FB0"/>
<path d="M32.3916 5.81934H44.9166L38.1679 22.2258C37.2243 24.5142 35.0033 25.9988 32.525 25.9988H20L26.7486 9.59235C27.6923 7.30396 29.9133 5.81934 32.3916 5.81934Z" fill="#0255FE"/>
</svg>
