<svg width="140" height="32" viewBox="0 0 140 32" fill="none" xmlns="http://www.w3.org/2000/svg">
<path fill-rule="evenodd" clip-rule="evenodd" d="M4.24503 14.3883C3.33704 15.2955 1.98581 15.4501 1.07782 14.5429C0.351113 13.8168 0.307959 12.7897 0.785186 11.9435C0.882992 11.7827 1.00141 11.631 1.14044 11.4921L8.23303 4.40546C9.98215 2.6578 12.7448 2.54002 14.6305 4.05214C14.4943 4.1614 14.3626 4.27917 14.2362 4.40545L4.24503 14.3883Z" fill="#0D693B"/>
<path fill-rule="evenodd" clip-rule="evenodd" d="M4.24503 14.3883C3.33704 15.2955 1.98581 15.4501 1.07782 14.5429C0.198398 13.6642 0.320013 12.3448 1.15349 11.4383C1.18083 11.409 1.20865 11.38 1.23696 11.3513C1.20839 11.3799 1.18057 11.4089 1.15349 11.4383C-0.419988 13.1243 -0.38253 15.7631 1.25882 17.4035L9.17268 25.3129C11.4232 27.5622 15.0726 27.5624 17.3234 25.3135L25.9879 16.6563C28.004 14.6418 28.004 11.3756 25.9879 9.36116L25.4274 8.80112C25.374 8.86618 25.3169 8.92923 25.2561 8.98996L22.8549 11.3892C21.8602 12.383 20.2476 12.383 19.253 11.3892C18.2583 10.3954 18.2583 8.78414 19.253 7.79033L21.6542 5.39107C21.715 5.33033 21.7781 5.27331 21.8432 5.21999L21.028 4.40546C19.1525 2.53152 16.1117 2.53151 14.2362 4.40545L4.24503 14.3883Z" fill="#3FBB7D"/>
<path d="M22.8547 11.3893L25.256 8.99C26.2506 7.9962 26.2506 6.38492 25.256 5.39111C24.2614 4.3973 22.6487 4.3973 21.6541 5.39111L19.2528 7.79037C18.2582 8.78418 18.2582 10.3955 19.2528 11.3893C20.2475 12.3831 21.8601 12.3831 22.8547 11.3893Z" fill="#0F7944"/>
<path d="M44.4485 21.1704C43.6126 21.1704 42.8569 21.0272 42.1813 20.741C41.5172 20.4547 40.9905 20.0425 40.6011 19.5043C40.2118 18.9662 40.0115 18.3307 40 17.5978H42.5763C42.6107 18.0902 42.7824 18.4795 43.0916 18.7658C43.4122 19.052 43.8473 19.1952 44.3969 19.1952C44.958 19.1952 45.3989 19.0635 45.7195 18.8001C46.0401 18.5253 46.2004 18.1704 46.2004 17.7352C46.2004 17.3803 46.0916 17.0883 45.874 16.8593C45.6565 16.6303 45.3817 16.4528 45.0496 16.3268C44.729 16.1894 44.2824 16.0406 43.7099 15.8803C42.9313 15.6513 42.2958 15.428 41.8034 15.2104C41.3225 14.9814 40.9046 14.6436 40.5496 14.1971C40.2061 13.7391 40.0344 13.1322 40.0344 12.3765C40.0344 11.6665 40.2118 11.0482 40.5668 10.5215C40.9218 9.99478 41.4198 9.59401 42.0611 9.31921C42.7023 9.03295 43.4351 8.88982 44.2595 8.88982C45.4962 8.88982 46.4981 9.19325 47.2653 9.80012C48.0439 10.3955 48.4733 11.2314 48.5534 12.3078H45.9084C45.8855 11.8955 45.708 11.5578 45.376 11.2944C45.0553 11.0196 44.626 10.8822 44.0878 10.8822C43.6183 10.8822 43.2405 11.0024 42.9542 11.2429C42.6794 11.4833 42.542 11.8326 42.542 12.2906C42.542 12.6112 42.645 12.8803 42.8511 13.0978C43.0687 13.3039 43.3321 13.4757 43.6412 13.6131C43.9618 13.7391 44.4084 13.8879 44.9809 14.0597C45.7595 14.2887 46.395 14.5177 46.8874 14.7467C47.3798 14.9757 47.8034 15.3192 48.1584 15.7772C48.5134 16.2352 48.6908 16.8364 48.6908 17.5807C48.6908 18.2219 48.5248 18.8173 48.1927 19.3669C47.8607 19.9165 47.374 20.3574 46.7328 20.6894C46.0916 21.01 45.3302 21.1704 44.4485 21.1704Z" fill="#1D1D22"/>
<path d="M52.1477 10.4013C51.724 10.4013 51.369 10.2696 51.0828 10.0062C50.808 9.73142 50.6706 9.39363 50.6706 8.99287C50.6706 8.59211 50.808 8.26004 51.0828 7.99669C51.369 7.72188 51.724 7.58447 52.1477 7.58447C52.5713 7.58447 52.9206 7.72188 53.1954 7.99669C53.4816 8.26004 53.6248 8.59211 53.6248 8.99287C53.6248 9.39363 53.4816 9.73142 53.1954 10.0062C52.9206 10.2696 52.5713 10.4013 52.1477 10.4013ZM53.3328 11.5349V21.0501H50.9282V11.5349H53.3328Z" fill="#1D1D22"/>
<path d="M67.678 11.3974C68.8459 11.3974 69.7848 11.7581 70.4948 12.4795C71.2161 13.1894 71.5768 14.1856 71.5768 15.4681V21.0501H69.1722V15.7944C69.1722 15.0501 68.9833 14.4833 68.6054 14.094C68.2276 13.6933 67.7123 13.4929 67.0597 13.4929C66.407 13.4929 65.886 13.6933 65.4967 14.094C65.1188 14.4833 64.9299 15.0501 64.9299 15.7944V21.0501H62.5253V15.7944C62.5253 15.0501 62.3364 14.4833 61.9585 14.094C61.5806 13.6933 61.0654 13.4929 60.4127 13.4929C59.7486 13.4929 59.2219 13.6933 58.8325 14.094C58.4547 14.4833 58.2658 15.0501 58.2658 15.7944V21.0501H55.8612V11.5349H58.2658V12.6856C58.5749 12.2849 58.97 11.97 59.4509 11.741C59.9432 11.512 60.4814 11.3974 61.0654 11.3974C61.8097 11.3974 62.4738 11.5578 63.0577 11.8784C63.6417 12.1875 64.094 12.6341 64.4146 13.2181C64.7238 12.6684 65.1703 12.2276 65.7543 11.8955C66.3497 11.5635 66.9909 11.3974 67.678 11.3974Z" fill="#1D1D22"/>
<path d="M76.4159 12.9089C76.725 12.4738 77.1487 12.1131 77.6869 11.8268C78.2365 11.5291 78.8605 11.3803 79.559 11.3803C80.372 11.3803 81.1048 11.5807 81.7575 11.9814C82.4216 12.3822 82.9426 12.9547 83.3205 13.699C83.7098 14.4318 83.9044 15.2849 83.9044 16.2581C83.9044 17.2314 83.7098 18.0959 83.3205 18.8516C82.9426 19.5959 82.4216 20.1742 81.7575 20.5864C81.1048 20.9986 80.372 21.2047 79.559 21.2047C78.8605 21.2047 78.2422 21.0616 77.704 20.7753C77.1773 20.4891 76.7479 20.1284 76.4159 19.6933V25.5845H74.0113V11.5349H76.4159V12.9089ZM81.4483 16.2581C81.4483 15.6856 81.3281 15.1933 81.0876 14.781C80.8586 14.3574 80.5495 14.0368 80.1602 13.8192C79.7823 13.6016 79.3701 13.4929 78.9235 13.4929C78.4884 13.4929 78.0762 13.6074 77.6869 13.8364C77.309 14.0539 76.9998 14.3745 76.7594 14.7982C76.5304 15.2219 76.4159 15.72 76.4159 16.2925C76.4159 16.865 76.5304 17.3631 76.7594 17.7868C76.9998 18.2104 77.309 18.5368 77.6869 18.7658C78.0762 18.9833 78.4884 19.0921 78.9235 19.0921C79.3701 19.0921 79.7823 18.9776 80.1602 18.7486C80.5495 18.5196 80.8586 18.1933 81.0876 17.7696C81.3281 17.3459 81.4483 16.8421 81.4483 16.2581Z" fill="#1D1D22"/>
<path d="M88.209 8.3402V21.0501H85.8044V8.3402H88.209Z" fill="#1D1D22"/>
<path d="M99.5828 16.0864C99.5828 16.4299 99.5599 16.7391 99.5141 17.0139H92.558C92.6153 17.7009 92.8557 18.2391 93.2794 18.6284C93.7031 19.0177 94.2241 19.2123 94.8424 19.2123C95.7355 19.2123 96.371 18.8287 96.7489 18.0616H99.3424C99.0676 18.9776 98.5409 19.7333 97.7622 20.3287C96.9836 20.9127 96.0275 21.2047 94.8939 21.2047C93.9779 21.2047 93.1535 21.0043 92.4206 20.6036C91.6993 20.1913 91.1325 19.6131 90.7202 18.8688C90.3195 18.1245 90.1191 17.2658 90.1191 16.2925C90.1191 15.3078 90.3195 14.4433 90.7202 13.699C91.121 12.9547 91.6821 12.3822 92.4035 11.9814C93.1248 11.5807 93.955 11.3803 94.8939 11.3803C95.7985 11.3803 96.6057 11.5749 97.3157 11.9642C98.037 12.3536 98.5924 12.9089 98.9817 13.6303C99.3825 14.3402 99.5828 15.1589 99.5828 16.0864ZM97.0924 15.3994C97.0809 14.781 96.8577 14.2887 96.4225 13.9223C95.9874 13.5444 95.455 13.3555 94.8252 13.3555C94.2298 13.3555 93.726 13.5387 93.3138 13.9051C92.913 14.26 92.6668 14.7581 92.5752 15.3994H97.0924Z" fill="#1D1D22"/>
<path d="M111.435 9.06157V21.0501H109.031V15.949H103.895V21.0501H101.491V9.06157H103.895V13.991H109.031V9.06157H111.435Z" fill="#1D1D22"/>
<path d="M118.18 21.2047C117.264 21.2047 116.439 21.0043 115.707 20.6036C114.974 20.1913 114.396 19.6131 113.972 18.8688C113.56 18.1245 113.354 17.2658 113.354 16.2925C113.354 15.3192 113.565 14.4604 113.989 13.7162C114.424 12.9719 115.014 12.3994 115.758 11.9986C116.502 11.5864 117.333 11.3803 118.249 11.3803C119.165 11.3803 119.995 11.5864 120.739 11.9986C121.483 12.3994 122.067 12.9719 122.491 13.7162C122.926 14.4604 123.144 15.3192 123.144 16.2925C123.144 17.2658 122.92 18.1245 122.474 18.8688C122.039 19.6131 121.443 20.1913 120.688 20.6036C119.943 21.0043 119.107 21.2047 118.18 21.2047ZM118.18 19.1093C118.615 19.1093 119.021 19.0062 119.399 18.8001C119.789 18.5826 120.098 18.262 120.327 17.8383C120.556 17.4146 120.67 16.8994 120.67 16.2925C120.67 15.3879 120.43 14.6952 119.949 14.2142C119.48 13.7219 118.901 13.4757 118.214 13.4757C117.527 13.4757 116.949 13.7219 116.48 14.2142C116.022 14.6952 115.792 15.3879 115.792 16.2925C115.792 17.1971 116.016 17.8955 116.462 18.3879C116.92 18.8688 117.493 19.1093 118.18 19.1093Z" fill="#1D1D22"/>
<path d="M127.465 8.3402V21.0501H125.06V8.3402H127.465Z" fill="#1D1D22"/>
<path d="M129.375 16.2581C129.375 15.2963 129.564 14.4433 129.942 13.699C130.331 12.9547 130.858 12.3822 131.522 11.9814C132.186 11.5807 132.924 11.3803 133.737 11.3803C134.356 11.3803 134.945 11.5177 135.507 11.7925C136.068 12.0558 136.514 12.4108 136.846 12.8574V8.3402H139.285V21.0501H136.846V19.6417C136.548 20.1112 136.131 20.4891 135.592 20.7753C135.054 21.0616 134.43 21.2047 133.72 21.2047C132.919 21.2047 132.186 20.9986 131.522 20.5864C130.858 20.1742 130.331 19.5959 129.942 18.8516C129.564 18.0959 129.375 17.2314 129.375 16.2581ZM136.863 16.2925C136.863 15.7085 136.749 15.2104 136.52 14.7982C136.291 14.3745 135.982 14.0539 135.592 13.8364C135.203 13.6074 134.785 13.4929 134.339 13.4929C133.892 13.4929 133.48 13.6016 133.102 13.8192C132.724 14.0368 132.415 14.3574 132.174 14.781C131.945 15.1933 131.831 15.6856 131.831 16.2581C131.831 16.8307 131.945 17.3345 132.174 17.7696C132.415 18.1933 132.724 18.5196 133.102 18.7486C133.491 18.9776 133.903 19.0921 134.339 19.0921C134.785 19.0921 135.203 18.9833 135.592 18.7658C135.982 18.5368 136.291 18.2162 136.52 17.8039C136.749 17.3803 136.863 16.8765 136.863 16.2925Z" fill="#1D1D22"/>
</svg>
