<svg width="166" height="52" viewBox="0 0 166 52" fill="none" xmlns="http://www.w3.org/2000/svg">
<path d="M96.2349 19.6904H102.222V42.2759H96.2349V19.6904ZM96.1923 9.3595H102.322V14.5818H96.1923V9.3595ZM80.403 24.4315H76.0156V19.704H80.403V17.652C80.403 9.72799 82.7324 9.41631 91.9771 9.41631V13.7047C86.9752 13.7047 86.3469 13.9732 86.3469 16.676V19.6904H91.9771V24.4168H86.3469V42.2759H80.403V24.4315Z" fill="black"/>
<path d="M108.488 19.6905H114.075L114.247 23.5967H114.604C115.818 20.2422 118.234 19.3367 121.906 19.3367V24.9686C116.047 24.9686 114.432 27.0912 114.432 33.2474V42.2759H108.488V19.6905Z" fill="black"/>
<path d="M140.013 30.9392C140.013 24.7262 140.013 24.0755 135.541 24.0755C131.068 24.0755 131.068 24.7409 131.068 30.9392C131.068 37.1376 131.068 37.8872 135.541 37.8872C140.013 37.8872 140.013 37.1376 140.013 30.9392ZM125.082 30.9392C125.082 21.8118 125.668 19.3354 135.541 19.3354C145.415 19.3354 146.001 21.8118 146.001 30.9392C146.001 40.0667 145.415 42.6284 135.541 42.6284C125.668 42.6421 125.082 40.053 125.082 30.9392Z" fill="black"/>
<path d="M33.0603 35.6528C33.5748 35.6528 34.0606 35.3696 34.2892 34.9169L37.5615 28.7606H32.5032C31.7314 28.7606 31.1169 28.1384 31.1169 27.3887V24.6291C31.1169 23.8647 31.7452 23.2562 32.5032 23.2562H40.5052L46.7201 11.5955C46.9636 11.1427 47.4345 10.8595 47.9491 10.8595H58.4228C54.3649 6.61428 48.6348 3.96733 42.2625 3.96733C29.9741 3.96733 20 13.8318 20 26.0158C20 29.4682 20.8005 32.7521 22.2432 35.6665H33.0603V35.6528Z" fill="#9B1C2F"/>
<path d="M51.4367 16.3477C50.9222 16.3477 50.4364 16.6309 50.2078 17.0837L46.9356 23.2399H51.9938C52.7656 23.2399 53.3801 23.8622 53.3801 24.6118V27.3714C53.3801 28.1358 52.7518 28.7444 51.9938 28.7444H43.9918L37.7769 40.4051C37.5334 40.8578 37.0625 41.141 36.5479 41.141H26.0742C30.1321 45.3863 35.8622 48.0332 42.2345 48.0332C54.5229 48.0332 64.497 38.1687 64.497 25.9848C64.497 22.5324 63.6965 19.2484 62.2538 16.334H51.4367V16.3477Z" fill="#9B1C2F"/>
</svg>
