<svg id="preseaerch-logo" xmlns="http://www.w3.org/2000/svg" width="561.742" height="121.585" viewBox="0 0 561.742 121.585">
  <text id="Presearch" transform="translate(150.743 94)" fill="#2d8eff" font-size="88" font-family="OpenSans-Regular, Open Sans"><tspan x="0" y="0">Presearch</tspan></text>
  <g id="Group_9116" data-name="Group 9116" transform="translate(0 0)">
    <path id="Path_472476" data-name="Path 472476" d="M25.476,56.712H36.824A21.924,21.924,0,0,0,46.2,54.589a23.468,23.468,0,0,0,7.3-5.6,25.9,25.9,0,0,0,4.632-8.144,26.787,26.787,0,0,0,1.7-9.418,23.391,23.391,0,0,0-1.814-9.109,28.216,28.216,0,0,0-4.9-7.99,24.433,24.433,0,0,0-7.45-5.751,20.148,20.148,0,0,0-9.418-2.239H6.37V78.867h19.3Zm0-32.847h9.65a5.172,5.172,0,0,1,3.512,1.7A8.492,8.492,0,0,1,40.453,31.7a8.183,8.183,0,0,1-1.66,5.906,4.323,4.323,0,0,1-3.242,1.7H25.476Z" transform="translate(18.218 18.131)" fill="#2d8eff"/>
    <path id="Path_472477" data-name="Path 472477" d="M0,6.986V114.6a6.986,6.986,0,0,0,6.986,6.986H114.6a6.986,6.986,0,0,0,6.986-6.986V6.986A6.986,6.986,0,0,0,114.6,0H6.986A6.986,6.986,0,0,0,0,6.986ZM100.356,107.343h-79.2a6.986,6.986,0,0,1-6.986-6.986v-79.2a6.986,6.986,0,0,1,6.986-6.986h79.2a6.986,6.986,0,0,1,6.986,6.986v79.2a6.986,6.986,0,0,1-6.986,6.909Z" fill="#2d8eff"/>
    <rect id="Rectangle_847" data-name="Rectangle 847" width="44.736" height="13.741" transform="translate(52.224 83.373)" fill="#2d8eff"/>
  </g>
</svg>
