<svg width="246" height="52" viewBox="0 0 246 52" fill="none" xmlns="http://www.w3.org/2000/svg">
<path fill-rule="evenodd" clip-rule="evenodd" d="M26.2381 23.6328C24.9045 24.9653 22.9199 25.1923 21.5863 23.8599C20.5189 22.7934 20.4556 21.2849 21.1565 20.042C21.3001 19.8058 21.4741 19.583 21.6783 19.379L32.0955 8.97052C34.6645 6.40364 38.7222 6.23066 41.4918 8.45158C41.2918 8.61206 41.0983 8.78503 40.9127 8.9705L26.2381 23.6328Z" fill="#0D693B"/>
<path fill-rule="evenodd" clip-rule="evenodd" d="M26.2349 23.6328C24.9013 24.9653 22.9167 25.1923 21.583 23.8599C20.2914 22.5693 20.47 20.6314 21.6942 19.3C19.3831 21.7763 19.4382 25.6521 21.8489 28.0614L33.4724 39.6783C36.7778 42.982 42.1379 42.9823 45.4437 39.6792L58.1697 26.9639C61.1309 24.0051 61.1309 19.2079 58.1697 16.2492L57.3465 15.4266C57.2681 15.5222 57.1842 15.6148 57.0949 15.704L53.5681 19.2279C52.1072 20.6875 49.7387 20.6875 48.2778 19.2279C46.8169 17.7682 46.8169 15.4017 48.2778 13.942L51.8046 10.4181C51.8939 10.3289 51.9866 10.2452 52.0822 10.1669L50.8849 8.97052C48.1302 6.21817 43.6641 6.21816 40.9094 8.9705L26.2349 23.6328Z" fill="#3FBB7D"/>
<path d="M53.5695 19.2283L57.0964 15.7043C58.5572 14.2447 58.5572 11.8781 57.0964 10.4185C55.6356 8.95882 53.2669 8.95882 51.8061 10.4185L48.2792 13.9424C46.8184 15.402 46.8184 17.7687 48.2792 19.2283C49.7402 20.688 52.1087 20.688 53.5695 19.2283Z" fill="#0F7944"/>
<path d="M85.2837 33.5937C84.056 33.5937 82.9461 33.3834 81.9538 32.9631C80.9784 32.5426 80.2048 31.9371 79.6329 31.1467C79.0611 30.3563 78.7669 29.4229 78.75 28.3465H82.5339C82.5845 29.0697 82.8366 29.6415 83.2908 30.062C83.7617 30.4823 84.4007 30.6927 85.2079 30.6927C86.0321 30.6927 86.6796 30.4992 87.1505 30.1124C87.6214 29.7088 87.8568 29.1875 87.8568 28.5483C87.8568 28.027 87.697 27.5982 87.3774 27.2618C87.058 26.9255 86.6544 26.6648 86.1666 26.4797C85.6957 26.2779 85.0398 26.0593 84.1989 25.8239C83.0553 25.4876 82.122 25.1596 81.3987 24.84C80.6924 24.5036 80.0786 24.0075 79.5572 23.3517C79.0527 22.679 78.8005 21.7876 78.8005 20.6777C78.8005 19.6349 79.0611 18.7268 79.5825 17.9532C80.1039 17.1795 80.8353 16.5909 81.7772 16.1873C82.719 15.7669 83.7953 15.5566 85.0061 15.5566C86.8225 15.5566 88.2941 16.0023 89.4209 16.8936C90.5645 17.7681 91.1952 18.9958 91.3128 20.5768H87.428C87.3943 19.9712 87.1336 19.4752 86.646 19.0884C86.175 18.6848 85.5444 18.4829 84.754 18.4829C84.0644 18.4829 83.5095 18.6595 83.089 19.0127C82.6854 19.3658 82.4836 19.8788 82.4836 20.5515C82.4836 21.0224 82.6348 21.4177 82.9376 21.7371C83.2572 22.0398 83.644 22.2922 84.098 22.494C84.5689 22.679 85.2248 22.8976 86.0657 23.1499C87.2093 23.4862 88.1427 23.8226 88.8659 24.1589C89.5891 24.4953 90.2112 24.9998 90.7327 25.6725C91.2541 26.3452 91.5146 27.2282 91.5146 28.3214C91.5146 29.2631 91.2708 30.1376 90.783 30.9448C90.2954 31.7521 89.5806 32.3996 88.6388 32.8873C87.697 33.3582 86.5787 33.5937 85.2837 33.5937Z" fill="#1D1D22"/>
<path d="M96.5953 17.7769C95.973 17.7769 95.4516 17.5834 95.0312 17.1966C94.6276 16.793 94.4258 16.2969 94.4258 15.7082C94.4258 15.1196 94.6276 14.6319 95.0312 14.2451C95.4516 13.8415 95.973 13.6396 96.5953 13.6396C97.2174 13.6396 97.7305 13.8415 98.1341 14.2451C98.5544 14.6319 98.7648 15.1196 98.7648 15.7082C98.7648 16.2969 98.5544 16.793 98.1341 17.1966C97.7305 17.5834 97.2174 17.7769 96.5953 17.7769ZM98.3359 19.4418V33.4173H94.8041V19.4418H98.3359Z" fill="#1D1D22"/>
<path d="M119.399 19.2397C121.114 19.2397 122.493 19.7695 123.536 20.8291C124.595 21.8717 125.125 23.3349 125.125 25.2186V33.4171H121.594V25.6978C121.594 24.6046 121.316 23.7722 120.761 23.2004C120.206 22.6118 119.449 22.3175 118.491 22.3175C117.532 22.3175 116.767 22.6118 116.195 23.2004C115.64 23.7722 115.363 24.6046 115.363 25.6978V33.4171H111.831V25.6978C111.831 24.6046 111.553 23.7722 110.998 23.2004C110.443 22.6118 109.687 22.3175 108.728 22.3175C107.753 22.3175 106.979 22.6118 106.407 23.2004C105.852 23.7722 105.575 24.6046 105.575 25.6978V33.4171H102.043V19.4417H105.575V21.1318C106.029 20.5433 106.609 20.0808 107.315 19.7444C108.038 19.4081 108.829 19.2397 109.687 19.2397C110.78 19.2397 111.755 19.4753 112.613 19.9462C113.471 20.4002 114.135 21.0561 114.606 21.9139C115.06 21.1065 115.716 20.4591 116.573 19.9713C117.448 19.4837 118.39 19.2397 119.399 19.2397Z" fill="#1D1D22"/>
<path d="M132.235 21.46C132.689 20.8209 133.311 20.2911 134.102 19.8706C134.909 19.4334 135.825 19.2148 136.851 19.2148C138.045 19.2148 139.122 19.5092 140.08 20.0977C141.056 20.6864 141.821 21.5272 142.376 22.6204C142.948 23.6967 143.234 24.9497 143.234 26.3791C143.234 27.8086 142.948 29.0784 142.376 30.1883C141.821 31.2815 141.056 32.1309 140.08 32.7363C139.122 33.3417 138.045 33.6444 136.851 33.6444C135.825 33.6444 134.917 33.4343 134.127 33.0137C133.353 32.5934 132.723 32.0636 132.235 31.4246V40.0773H128.703V19.4419H132.235V21.46ZM139.626 26.3791C139.626 25.5383 139.45 24.8152 139.096 24.2096C138.76 23.5875 138.306 23.1166 137.734 22.797C137.179 22.4774 136.574 22.3177 135.918 22.3177C135.279 22.3177 134.673 22.4859 134.102 22.8222C133.547 23.1417 133.092 23.6126 132.739 24.2349C132.403 24.8572 132.235 25.5888 132.235 26.4296C132.235 27.2705 132.403 28.0021 132.739 28.6244C133.092 29.2466 133.547 29.726 134.102 30.0623C134.673 30.3818 135.279 30.5416 135.918 30.5416C136.574 30.5416 137.179 30.3734 137.734 30.037C138.306 29.7007 138.76 29.2214 139.096 28.5991C139.45 27.9768 139.626 27.2369 139.626 26.3791Z" fill="#1D1D22"/>
<path d="M149.555 14.75V33.4177H146.023V14.75H149.555Z" fill="#1D1D22"/>
<path d="M166.259 26.1269C166.259 26.6314 166.226 27.0856 166.158 27.4892H155.942C156.026 28.4982 156.379 29.2887 157.001 29.8605C157.623 30.4323 158.389 30.7181 159.297 30.7181C160.608 30.7181 161.542 30.1547 162.097 29.028H165.906C165.502 30.3734 164.729 31.4833 163.585 32.3578C162.442 33.2156 161.037 33.6444 159.372 33.6444C158.027 33.6444 156.816 33.3501 155.74 32.7616C154.68 32.156 153.848 31.3068 153.242 30.2136C152.654 29.1204 152.359 27.8592 152.359 26.4296C152.359 24.9834 152.654 23.7136 153.242 22.6204C153.831 21.5272 154.655 20.6864 155.715 20.0977C156.774 19.5092 157.993 19.2148 159.372 19.2148C160.701 19.2148 161.887 19.5007 162.929 20.0724C163.989 20.6444 164.805 21.46 165.376 22.5195C165.965 23.5622 166.259 24.7647 166.259 26.1269ZM162.601 25.1179C162.585 24.2096 162.257 23.4866 161.617 22.9484C160.978 22.3934 160.196 22.1159 159.271 22.1159C158.397 22.1159 157.657 22.385 157.052 22.9231C156.463 23.4444 156.101 24.176 155.967 25.1179H162.601Z" fill="#1D1D22"/>
<path d="M183.672 15.8091V33.4172H180.141V25.925H172.597V33.4172H169.066V15.8091H172.597V23.0492H180.141V15.8091H183.672Z" fill="#1D1D22"/>
<path d="M193.576 33.6444C192.231 33.6444 191.019 33.3501 189.944 32.7616C188.868 32.156 188.019 31.3068 187.396 30.2136C186.791 29.1204 186.488 27.8592 186.488 26.4296C186.488 25.0001 186.798 23.7387 187.421 22.6457C188.06 21.5525 188.926 20.7116 190.019 20.123C191.112 19.5176 192.332 19.2148 193.678 19.2148C195.023 19.2148 196.242 19.5176 197.335 20.123C198.428 20.7116 199.286 21.5525 199.908 22.6457C200.547 23.7387 200.867 25.0001 200.867 26.4296C200.867 27.8592 200.538 29.1204 199.883 30.2136C199.244 31.3068 198.369 32.156 197.26 32.7616C196.166 33.3501 194.938 33.6444 193.576 33.6444ZM193.576 30.5668C194.215 30.5668 194.812 30.4154 195.367 30.1127C195.94 29.7932 196.394 29.3223 196.73 28.7C197.066 28.0777 197.234 27.321 197.234 26.4296C197.234 25.101 196.881 24.0836 196.175 23.3771C195.486 22.6541 194.635 22.2925 193.626 22.2925C192.617 22.2925 191.768 22.6541 191.08 23.3771C190.407 24.0836 190.069 25.101 190.069 26.4296C190.069 27.7583 190.398 28.784 191.053 29.5073C191.726 30.2136 192.567 30.5668 193.576 30.5668Z" fill="#1D1D22"/>
<path d="M207.212 14.75V33.4177H203.68V14.75H207.212Z" fill="#1D1D22"/>
<path d="M210.02 26.3794C210.02 24.9668 210.297 23.7139 210.852 22.6207C211.424 21.5275 212.198 20.6867 213.173 20.098C214.148 19.5095 215.232 19.2151 216.426 19.2151C217.335 19.2151 218.2 19.417 219.026 19.8206C219.85 20.2073 220.505 20.7287 220.993 21.3846V14.75H224.575V33.4177H220.993V31.3491C220.555 32.0387 219.942 32.5937 219.151 33.0141C218.361 33.4346 217.444 33.6447 216.401 33.6447C215.225 33.6447 214.148 33.342 213.173 32.7366C212.198 32.1312 211.424 31.2818 210.852 30.1886C210.297 29.0787 210.02 27.809 210.02 26.3794ZM221.018 26.4299C221.018 25.5722 220.85 24.8406 220.514 24.2352C220.177 23.6129 219.724 23.142 219.151 22.8225C218.579 22.4862 217.965 22.318 217.31 22.318C216.654 22.318 216.049 22.4777 215.494 22.7973C214.938 23.1169 214.485 23.5878 214.131 24.2099C213.794 24.8155 213.627 25.5386 213.627 26.3794C213.627 27.2204 213.794 27.9604 214.131 28.5994C214.485 29.2217 214.938 29.701 215.494 30.0373C216.065 30.3737 216.67 30.5419 217.31 30.5419C217.965 30.5419 218.579 30.3821 219.151 30.0626C219.724 29.7263 220.177 29.2554 220.514 28.6498C220.85 28.0276 221.018 27.2877 221.018 26.4299Z" fill="#1D1D22"/>
</svg>
