<svg width="246" height="52" viewBox="0 0 246 52" fill="none" xmlns="http://www.w3.org/2000/svg">
<path fill-rule="evenodd" clip-rule="evenodd" d="M34.9732 8.99979C25.5377 17.2641 27.3529 31.9296 37.2514 38.5957C31.5422 28.5111 31.0917 18.689 34.9732 8.99979Z" fill="#93C01D"/>
<path fill-rule="evenodd" clip-rule="evenodd" d="M42.6585 8.99979C52.0932 17.2641 50.2788 31.9296 40.3828 38.5957C46.0879 28.5111 46.5417 18.689 42.6585 8.99979Z" fill="#93C01D"/>
<path fill-rule="evenodd" clip-rule="evenodd" d="M20.8579 16.6493C17.1808 28.2884 25.778 40.8139 37.9748 41.4053C29.6729 36.927 22.5555 28.1403 20.8579 16.6493Z" fill="#93C01D"/>
<path fill-rule="evenodd" clip-rule="evenodd" d="M56.7825 16.6493C60.4588 28.2884 51.8608 40.8139 39.6641 41.4053C47.9668 36.927 55.0816 28.1403 56.7825 16.6493Z" fill="#93C01D"/>
<path d="M144.591 30.5129V11.444H141.669V18.0285C140.336 16.5245 138.706 15.717 136.773 15.6094V18.4777H136.791C138.136 18.4777 139.282 18.9462 140.221 19.8807C141.186 20.8321 141.669 21.9701 141.669 23.2924C141.669 24.6147 141.186 25.7503 140.221 26.7033C139.282 27.637 138.136 28.1047 136.791 28.1047H136.773V30.9486C138.723 30.8409 140.356 30.0343 141.669 28.5286V30.5129H144.591ZM136.773 15.6094C136.625 15.6001 136.472 15.5959 136.318 15.5959C134.21 15.5959 132.451 16.3706 131.04 17.9234C129.647 19.4215 128.949 21.2123 128.949 23.2924C128.949 25.3726 129.647 27.1525 131.04 28.6337C132.451 30.1857 134.21 30.9629 136.318 30.9629C136.472 30.9629 136.625 30.957 136.773 30.9486V28.1047C135.391 28.103 134.23 27.6345 133.29 26.7033C132.349 25.7864 131.879 24.6492 131.879 23.2924C131.879 21.9525 132.349 20.8152 133.29 19.8807C134.23 18.9487 135.391 18.4836 136.773 18.4777V15.6094Z" fill="#073D49"/>
<path d="M127.487 23.291C127.487 21.1763 126.712 19.3678 125.165 17.8697C123.642 16.3531 121.812 15.5953 119.681 15.5953H119.665V18.4779H119.681C120.824 18.4779 121.834 18.8228 122.709 19.5091C123.474 20.0904 124.011 20.8668 124.323 21.8366H119.665V24.7184H127.351C127.396 24.4198 127.431 24.1548 127.453 23.9277C127.474 23.6964 127.487 23.4853 127.487 23.291ZM119.665 30.9614H119.681C120.892 30.9614 122.058 30.6754 123.18 30.1009C124.302 29.5289 125.267 28.7307 126.074 27.707L123.584 26.1475C123.068 26.8002 122.474 27.289 121.798 27.6145C121.13 27.9434 120.423 28.104 119.681 28.104H119.665V30.9614ZM119.665 15.5953C117.52 15.5995 115.685 16.3548 114.165 17.8697C112.617 19.404 111.844 21.2108 111.844 23.291C111.844 25.3905 112.617 27.1889 114.165 28.6878C115.685 30.201 117.52 30.9581 119.665 30.9614V28.104C118.53 28.1024 117.513 27.7499 116.62 27.0475C115.814 26.431 115.273 25.6521 115.006 24.7184H119.665V21.8366H115.006C115.273 20.9206 115.814 20.1442 116.62 19.5091C117.513 18.8245 118.53 18.4813 119.665 18.4779V15.5953Z" fill="#073D49"/>
<path d="M110.382 23.291C110.382 21.1763 109.608 19.3678 108.06 17.8697C106.538 16.3531 104.708 15.5953 102.579 15.5953H102.563V18.4779H102.579C103.723 18.4779 104.731 18.8228 105.605 19.5091C106.367 20.0904 106.907 20.8668 107.219 21.8366H102.563V24.7184H110.248C110.292 24.4198 110.324 24.1548 110.349 23.9277C110.37 23.6964 110.382 23.4853 110.382 23.291ZM102.563 30.9614H102.579C103.79 30.9614 104.955 30.6754 106.074 30.1009C107.198 29.5289 108.16 28.7307 108.97 27.707L106.48 26.1475C105.965 26.8002 105.371 27.289 104.696 27.6145C104.024 27.9434 103.32 28.104 102.579 28.104H102.563V30.9614ZM102.563 15.5953C100.414 15.5995 98.5806 16.3548 97.0607 17.8697C95.5124 19.404 94.7383 21.2108 94.7383 23.291C94.7383 25.3905 95.5124 27.1889 97.0607 28.6878C98.5806 30.201 100.414 30.9581 102.563 30.9614V28.104C101.423 28.1024 100.412 27.7499 99.5174 27.0475C98.7107 26.431 98.1727 25.6521 97.9024 24.7184H102.563V21.8366H97.9024C98.1727 20.9206 98.7107 20.1442 99.5174 19.5091C100.412 18.8245 101.423 18.4813 102.563 18.4779V15.5953Z" fill="#073D49"/>
<path d="M93.2803 23.291C93.2803 21.1763 92.5054 19.3678 90.9579 17.8697C89.4339 16.3531 87.6062 15.5953 85.4748 15.5953H85.4581V18.4779H85.4748C86.6201 18.4779 87.627 18.8228 88.5021 19.5091C89.2645 20.0904 89.8034 20.8668 90.1162 21.8366H85.4581V24.7184H93.1452C93.1894 24.4198 93.2219 24.1548 93.2461 23.9277C93.267 23.6964 93.2803 23.4853 93.2803 23.291ZM85.4581 30.9614H85.4748C86.686 30.9614 87.8522 30.6754 88.9717 30.1009C90.0921 29.5289 91.0589 28.7307 91.8672 27.707L89.3772 26.1475C88.8616 26.8002 88.2668 27.289 87.5936 27.6145C86.9196 27.9434 86.2139 28.104 85.4748 28.104H85.4581V30.9614ZM85.4581 15.5953C83.3126 15.5995 81.4773 16.3548 79.9583 17.8697C78.4092 19.404 77.6367 21.2108 77.6367 23.291C77.6367 25.3905 78.4092 27.1889 79.9583 28.6878C81.4773 30.201 83.3126 30.9581 85.4581 30.9614V28.104C84.3219 28.1024 83.3059 27.7499 82.4133 27.0475C81.6066 26.431 81.0686 25.6521 80.8 24.7184H85.4581V21.8366H80.8C81.0686 20.9206 81.6066 20.1442 82.4133 19.5091C83.3059 18.8245 84.3219 18.4813 85.4581 18.4779V15.5953Z" fill="#073D49"/>
<path d="M75.8032 26.4116C75.8032 24.5594 74.9498 23.3095 73.2464 22.6559H73.2814C73.1471 22.5861 71.6431 22.2782 68.7735 21.7315C67.3387 21.4303 66.6204 20.9029 66.6204 20.1442C66.6204 19.5781 66.9683 19.1466 67.664 18.848C68.2237 18.6007 68.8861 18.4779 69.6477 18.4779C70.4102 18.4779 71.0825 18.6007 71.6656 18.848C72.3396 19.1466 72.6758 19.6774 72.6758 20.4353H75.568C75.568 18.795 74.9065 17.5535 73.5834 16.7039C72.4397 15.9637 71.1292 15.5953 69.6477 15.5953C68.1678 15.5953 66.8548 15.9637 65.7128 16.7039C64.3898 17.5535 63.7283 18.6991 63.7283 20.1442C63.7283 21.9956 64.58 23.2565 66.2834 23.9269C66.4194 23.9782 66.8548 24.08 67.5964 24.228C68.3363 24.3794 69.3899 24.5863 70.758 24.8505C72.1937 25.1508 72.9111 25.6714 72.9111 26.4116C72.9111 27.5413 71.8208 28.104 69.6477 28.104C69.1989 28.104 68.801 28.0738 68.454 28.0132C68.1061 27.9493 67.7874 27.8668 67.4955 27.76H67.5297C66.7656 27.4606 66.3852 26.9163 66.3852 26.1223H63.4922C63.4922 27.7785 64.1996 29.0386 65.611 29.9024C66.8223 30.609 68.1678 30.9614 69.6477 30.9614C70.4343 30.9614 71.1551 30.8714 71.8174 30.6948C72.479 30.5198 73.1029 30.2565 73.6852 29.9024C75.0983 29.0386 75.8032 27.8752 75.8032 26.4116Z" fill="#073D49"/>
<path d="M225.064 23.291C225.064 21.1763 224.291 19.3678 222.741 17.8697C221.217 16.3531 219.39 15.5953 217.26 15.5953H217.243V18.4779H217.26C218.605 18.4779 219.753 18.9447 220.688 19.8809C221.653 20.8323 222.137 21.9695 222.137 23.291C222.137 24.6133 221.653 25.7497 220.688 26.7035C219.753 27.6364 218.605 28.104 217.26 28.104H217.243V30.9614H217.26C219.39 30.9614 221.217 30.2035 222.741 28.6878C224.291 27.204 225.064 25.4065 225.064 23.291ZM217.243 15.5953C215.095 15.5995 213.263 16.3574 211.744 17.8697C210.197 19.404 209.422 21.2108 209.422 23.291C209.422 25.3905 210.197 27.1889 211.744 28.6878C213.263 30.201 215.095 30.9581 217.243 30.9614V28.104C215.859 28.1024 214.7 27.6347 213.76 26.7035C212.82 25.7867 212.347 24.6477 212.347 23.291C212.347 21.9519 212.82 20.8138 213.76 19.8809C214.7 18.9481 215.859 18.4829 217.243 18.4779V15.5953Z" fill="#073D49"/>
<path d="M207.357 16.071H204.465V30.5127H207.357V16.071Z" fill="#073D49"/>
<path d="M201.822 30.5129V11.444H198.894V18.0285C197.561 16.5245 195.929 15.717 194.001 15.6094V18.4777H194.014C195.361 18.4777 196.505 18.9462 197.446 19.8807C198.411 20.8321 198.894 21.9701 198.894 23.2924C198.894 24.6147 198.411 25.7503 197.446 26.7033C196.505 27.637 195.361 28.1047 194.014 28.1047H194.001V30.9486C195.951 30.8409 197.582 30.0343 198.894 28.5286V30.5129H201.822ZM194.001 15.6094C193.85 15.6001 193.698 15.5959 193.544 15.5959C191.436 15.5959 189.676 16.3706 188.264 17.9234C186.873 19.4215 186.18 21.2123 186.18 23.2924C186.18 25.3726 186.873 27.1525 188.264 28.6337C189.676 30.1857 191.436 30.9629 193.544 30.9629C193.698 30.9629 193.85 30.957 194.001 30.9486V28.1047C192.617 28.103 191.456 27.6345 190.52 26.7033C189.574 25.7864 189.103 24.6492 189.103 23.2924C189.103 21.9525 189.574 20.8152 190.52 19.8807C191.456 18.9487 192.617 18.4836 194.001 18.4777V15.6094Z" fill="#073D49"/>
<path d="M184.117 30.5129V16.0703H181.225V24.6669C181.225 25.6006 180.887 26.4131 180.214 27.0995C179.881 27.4174 179.503 27.6639 179.091 27.8405C178.674 28.0172 178.22 28.1047 177.727 28.1047C176.762 28.1047 175.944 27.7699 175.269 27.0995C174.575 26.4131 174.228 25.6006 174.228 24.6669V16.0703H171.336V24.6669C171.336 26.3424 171.883 27.7976 172.985 29.0299C174.127 30.3186 175.552 30.9629 177.255 30.9629C178.781 30.9629 180.102 30.4321 181.225 29.3748V30.5129H184.117Z" fill="#073D49"/>
<path d="M169.738 18.9302V16.072H166.911V12.8193H163.985V16.072H161.156V18.9302H163.985V30.9326H166.911V18.9302H169.738Z" fill="#073D49"/>
<path d="M159.56 26.4116C159.56 24.5594 158.709 23.3095 157.003 22.6559H157.037C156.901 22.5861 155.4 22.2782 152.528 21.7315C151.093 21.4303 150.376 20.9029 150.376 20.1442C150.376 19.5781 150.725 19.1466 151.419 18.848C151.978 18.6007 152.642 18.4779 153.403 18.4779C154.167 18.4779 154.837 18.6007 155.42 18.848C156.093 19.1466 156.43 19.6774 156.43 20.4353H159.324C159.324 18.795 158.663 17.5535 157.34 16.7039C156.194 15.9637 154.886 15.5953 153.403 15.5953C151.925 15.5953 150.611 15.9637 149.468 16.7039C148.145 17.5535 147.484 18.6991 147.484 20.1442C147.484 21.9956 148.336 23.2565 150.039 23.9269C150.175 23.9782 150.611 24.08 151.35 24.228C152.092 24.3794 153.146 24.5863 154.514 24.8505C155.948 25.1508 156.667 25.6714 156.667 26.4116C156.667 27.5413 155.581 28.104 153.403 28.104C152.958 28.104 152.558 28.0738 152.209 28.0132C151.862 27.9493 151.544 27.8668 151.253 27.76H151.286C150.522 27.4606 150.142 26.9163 150.142 26.1223H147.246C147.246 27.7785 147.953 29.0386 149.367 29.9024C150.58 30.609 151.925 30.9614 153.403 30.9614C154.187 30.9614 154.913 30.8714 155.574 30.6948C156.235 30.5198 156.857 30.2565 157.44 29.9024C158.854 29.0386 159.56 27.8752 159.56 26.4116Z" fill="#073D49"/>
<path d="M74.0148 35.6901C74.406 35.6901 74.7797 35.7431 75.1368 35.8499C75.4955 35.9593 75.8141 36.1368 76.0911 36.3799C76.3689 36.623 76.5783 36.9081 76.7184 37.2328C76.861 37.5575 76.9311 37.936 76.9311 38.3675C76.9311 38.7763 76.8644 39.1615 76.7309 39.5333C76.5966 39.9051 76.3897 40.2248 76.1111 40.4914C75.8308 40.7589 75.4913 40.9582 75.0876 41.0878C74.6863 41.2165 74.265 41.2812 73.8229 41.2812C73.4042 41.2812 73.0021 41.219 72.6167 41.1046C72.2296 40.9852 71.8968 40.7993 71.619 40.5436C71.3395 40.2937 71.1393 40.001 71.02 39.6721C70.8999 39.3432 70.8398 38.9874 70.8398 38.6047C70.8398 38.1875 70.9141 37.7846 71.0651 37.4027C71.2161 37.0217 71.4363 36.7037 71.7283 36.4522C72.0202 36.2024 72.3631 36.0123 72.7535 35.8827C73.1447 35.7557 73.5652 35.6901 74.0148 35.6901ZM73.9514 36.5321C73.556 36.5321 73.2131 36.623 72.9203 36.8063C72.6275 36.9914 72.4065 37.2412 72.258 37.5592C72.1087 37.8763 72.0361 38.2211 72.0361 38.5904C72.0361 38.9336 72.107 39.249 72.2505 39.5367C72.3931 39.8277 72.6125 40.0481 72.9078 40.1995C73.2031 40.3501 73.5234 40.4266 73.8646 40.4266C74.1241 40.4266 74.3727 40.3829 74.6071 40.2937C74.8431 40.2021 75.0467 40.0666 75.2177 39.8807C75.3895 39.699 75.5163 39.477 75.6048 39.2187C75.6915 38.9605 75.7341 38.6913 75.7341 38.4112C75.7341 38.1496 75.694 37.9015 75.6173 37.6593C75.5414 37.4204 75.4204 37.2134 75.2586 37.0393C75.0967 36.8686 74.9024 36.7407 74.673 36.6574C74.4427 36.5725 74.2041 36.5321 73.9514 36.5321Z" fill="#A9A9A9"/>
<path d="M78.4883 43C78.555 42.2657 78.6134 41.3101 78.6651 40.1384C78.7177 38.9675 78.7452 38.017 78.7452 37.2861C79.2424 37.1961 79.6261 37.1355 79.8989 37.1086C80.1717 37.08 80.442 37.0632 80.7114 37.0632C81.0643 37.0632 81.3879 37.1069 81.6832 37.1918C81.9769 37.2751 82.213 37.4156 82.389 37.6133C82.565 37.8126 82.696 38.0431 82.7819 38.3039C82.867 38.5621 82.9087 38.8371 82.9087 39.1223C82.9087 39.4091 82.8695 39.6867 82.7852 39.9525C82.7076 40.2183 82.5817 40.4589 82.4157 40.6717C82.248 40.8845 82.052 41.0384 81.8326 41.1343C81.6107 41.2294 81.3704 41.279 81.1085 41.279C80.9542 41.279 80.8015 41.2605 80.6522 41.2252C80.5012 41.1865 80.3694 41.1368 80.2568 41.0763C80.1425 41.0149 80.0482 40.9552 79.9756 40.8938C79.9022 40.8307 79.8088 40.7373 79.6962 40.6137L79.6361 42.3355L79.6328 42.6047C79.6286 42.64 79.6278 42.7704 79.6278 43C79.3892 42.9983 79.2015 42.9983 79.0714 42.9983L78.4883 43ZM79.8272 38.0128C79.8088 38.1567 79.7971 38.2786 79.7871 38.3821L79.7646 38.8212C79.7529 39.0104 79.7487 39.1501 79.7487 39.2409C79.7487 39.4007 79.7654 39.5538 79.798 39.7018C79.8305 39.8482 79.8947 39.9845 79.994 40.1064C80.0924 40.2335 80.2101 40.3277 80.3452 40.3907C80.4778 40.4564 80.6196 40.4883 80.7631 40.4883C80.9625 40.4883 81.1444 40.4294 81.3095 40.3167C81.473 40.2006 81.6007 40.0324 81.6891 39.812C81.7775 39.5917 81.8217 39.3536 81.8217 39.1046C81.8217 38.8279 81.7717 38.5924 81.6732 38.4014C81.5756 38.2122 81.4447 38.0725 81.2795 37.9859C81.1135 37.9001 80.9266 37.8555 80.7181 37.8555C80.4436 37.8555 80.1492 37.9094 79.8272 38.0128Z" fill="#A9A9A9"/>
<path d="M88.4769 40.2877C88.4418 40.4433 88.3934 40.7235 88.33 41.1273C88.0489 41.1862 87.8102 41.2291 87.6158 41.2484C87.4223 41.2712 87.227 41.2812 87.031 41.2812C86.6897 41.2812 86.3819 41.2468 86.1099 41.1778C85.8404 41.1113 85.6034 40.9851 85.3982 40.8009C85.1938 40.6183 85.0436 40.392 84.9468 40.1278C84.8508 39.8603 84.8008 39.5801 84.8008 39.2874C84.8008 38.9643 84.8575 38.6497 84.9693 38.346C85.0828 38.0406 85.2405 37.7907 85.4432 37.598C85.646 37.4037 85.8779 37.2666 86.1357 37.1866C86.3952 37.105 86.6664 37.0647 86.9484 37.0647C87.2154 37.0647 87.4698 37.1 87.7101 37.1673C87.9496 37.2338 88.1532 37.3448 88.3167 37.4954C88.4819 37.6502 88.607 37.8319 88.6938 38.0481C88.7814 38.2627 88.8256 38.5016 88.8256 38.7674C88.8256 38.8886 88.8123 39.0156 88.7864 39.1486L85.9096 39.1519C85.9038 39.2487 85.8996 39.3278 85.8996 39.3841C85.8996 39.5616 85.9313 39.7248 85.9914 39.8746C86.0498 40.021 86.1391 40.1447 86.255 40.2473C86.3677 40.3499 86.507 40.4265 86.6664 40.4761C86.8257 40.5258 86.9834 40.5493 87.1378 40.5493C87.3163 40.5493 87.5132 40.5291 87.7243 40.4904C87.9346 40.4509 88.1849 40.3836 88.4769 40.2877ZM85.9397 38.6884L87.7769 38.6926C87.7769 38.5655 87.7727 38.4722 87.7652 38.4133C87.7577 38.3544 87.7393 38.2837 87.711 38.2071C87.6843 38.1297 87.6475 38.0608 87.6008 38.001C87.5541 37.9421 87.4974 37.8917 87.4356 37.8546C87.3714 37.8143 87.3005 37.7831 87.2162 37.7621C87.1353 37.7427 87.046 37.7318 86.9509 37.7318C86.8432 37.7318 86.7364 37.7495 86.633 37.7814C86.5295 37.8159 86.4344 37.8656 86.3476 37.932C86.26 37.9985 86.1916 38.07 86.1391 38.1516C86.0823 38.2349 86.0439 38.3115 86.0189 38.3863C85.9922 38.4612 85.9664 38.5613 85.9397 38.6884Z" fill="#A9A9A9"/>
<path d="M90.5469 41.186C90.6078 40.5862 90.657 39.9123 90.6971 39.1652C90.7363 38.4198 90.7596 37.751 90.7638 37.1604C91.0066 37.1663 91.1985 37.1688 91.342 37.1688C91.513 37.1688 91.6958 37.1663 91.8868 37.1604L91.8418 37.8318C91.9235 37.7165 91.9953 37.6248 92.0562 37.5567C92.1196 37.486 92.1972 37.4179 92.2931 37.3531C92.3883 37.2875 92.4892 37.2361 92.5977 37.1949C92.707 37.1562 92.8313 37.1251 92.9648 37.0998C93.1 37.0763 93.2418 37.0645 93.3853 37.0645C93.6197 37.0645 93.8433 37.0931 94.0578 37.1545C94.2714 37.2109 94.4424 37.3085 94.5726 37.4364C94.7036 37.5668 94.7903 37.7089 94.8329 37.8604C94.8754 38.0135 94.8963 38.175 94.8963 38.3475C94.8963 38.419 94.8929 38.5309 94.8846 38.6882L94.8037 40.4179C94.7912 40.6585 94.7853 40.9143 94.7828 41.186C94.5767 41.1801 94.3982 41.1776 94.2513 41.1776C94.0536 41.1776 93.8517 41.1801 93.6498 41.186C93.6731 40.9564 93.6982 40.5559 93.7299 39.983C93.7616 39.4126 93.7766 39.0357 93.7766 38.8481C93.7766 38.6411 93.7441 38.4737 93.6798 38.3475C93.6122 38.2221 93.5113 38.1254 93.3745 38.0598C93.2376 37.9925 93.0874 37.9597 92.9281 37.9597C92.7721 37.9597 92.6244 37.9891 92.4875 38.0505C92.3524 38.1102 92.2356 38.2011 92.1363 38.3164C92.0295 38.4341 91.9494 38.5788 91.8927 38.7555C91.8318 38.9398 91.7875 39.2443 91.7592 39.6683C91.735 40.0478 91.7124 40.5517 91.6958 41.186C91.4947 41.1801 91.3111 41.1776 91.1493 41.1776C90.9824 41.1776 90.783 41.1801 90.5469 41.186Z" fill="#A9A9A9"/>
<path d="M101.871 41.186L101.964 39.7636C102.014 38.9881 102.048 38.2689 102.069 37.6069C102.089 36.9416 102.103 36.479 102.103 36.219L102.1 35.7825C102.407 35.7884 102.624 35.7926 102.749 35.7926C102.849 35.7926 103.045 35.7884 103.343 35.7825L103.241 37.5682L103.227 37.9796H105.899L105.948 36.9096C105.959 36.5412 105.964 36.3006 105.964 36.1837V35.7825L106.62 35.7926C106.679 35.7926 106.875 35.7884 107.208 35.7825L107.081 37.9409L107.022 39.5391L107.01 40.4753C107.004 40.8622 107.002 41.0994 107.002 41.186L106.389 41.1776C106.314 41.1776 106.097 41.1801 105.738 41.186C105.808 40.4391 105.849 39.6535 105.869 38.83H103.189L103.133 40.2877L103.116 41.186L102.473 41.1776C102.402 41.1776 102.202 41.1801 101.871 41.186Z" fill="#A9A9A9"/>
<path d="M109.265 38.0454C109.302 37.8544 109.325 37.7198 109.333 37.6441C109.342 37.5684 109.36 37.4523 109.383 37.295C109.739 37.21 110.052 37.1519 110.327 37.1191C110.597 37.0846 110.86 37.0661 111.113 37.0661C111.403 37.0661 111.666 37.1006 111.907 37.1679C112.149 37.2335 112.338 37.3429 112.474 37.491C112.609 37.6382 112.679 37.8494 112.679 38.1262C112.679 38.2768 112.655 38.6612 112.616 39.2787C112.573 39.8929 112.549 40.5306 112.539 41.1876C112.341 41.1818 112.158 41.1792 111.992 41.1792C111.831 41.1792 111.641 41.1818 111.428 41.1876C111.465 40.868 111.493 40.4978 111.513 40.0788L111.564 39.0928C111.465 39.1593 111.389 39.2039 111.336 39.2308C111.284 39.2577 111.225 39.2829 111.158 39.3057C111.095 39.3259 110.98 39.362 110.814 39.4075C110.649 39.4537 110.515 39.4941 110.418 39.5286C110.316 39.5631 110.228 39.601 110.146 39.6455C110.067 39.6885 109.999 39.7372 109.944 39.7919C109.889 39.8449 109.849 39.9021 109.826 39.961C109.8 40.0216 109.786 40.0847 109.786 40.1545C109.786 40.2647 109.82 40.3607 109.884 40.4423C109.949 40.5205 110.027 40.5769 110.125 40.6072C110.223 40.6408 110.337 40.6576 110.467 40.6576C110.551 40.6576 110.64 40.6492 110.731 40.6374C110.825 40.6223 110.95 40.592 111.107 40.5373C111.052 40.6896 110.989 40.9142 110.915 41.2095C110.727 41.2423 110.58 41.2617 110.471 41.2693C110.359 41.2785 110.259 41.2827 110.163 41.2827C109.837 41.2827 109.561 41.2364 109.352 41.1473C109.138 41.0581 108.982 40.9159 108.885 40.7199C108.781 40.5255 108.73 40.3287 108.73 40.1301C108.73 40.0174 108.751 39.9055 108.789 39.7936C108.829 39.6834 108.886 39.5799 108.962 39.4882C109.036 39.3957 109.138 39.3073 109.258 39.2215C109.378 39.134 109.553 39.0524 109.78 38.9717C110.008 38.8926 110.312 38.8101 110.683 38.7277C110.785 38.7067 110.888 38.6814 110.994 38.6528C111.102 38.6208 111.188 38.5922 111.249 38.5611C111.314 38.5325 111.37 38.4955 111.419 38.4509C111.465 38.4029 111.501 38.3558 111.523 38.3054C111.545 38.2557 111.554 38.2044 111.554 38.1497C111.554 38.0479 111.523 37.9613 111.458 37.8898C111.389 37.8199 111.304 37.7695 111.194 37.7417C111.092 37.7122 110.973 37.6979 110.845 37.6979C110.367 37.6979 109.841 37.8149 109.265 38.0454Z" fill="#A9A9A9"/>
<path d="M115.02 41.186L115.133 39.304L115.163 38.2137C115.169 37.9883 115.171 37.7636 115.171 37.5373C115.171 37.4961 115.169 37.3699 115.163 37.1604C115.407 37.1663 115.588 37.1688 115.701 37.1688C115.836 37.1688 116.012 37.1663 116.233 37.1604L116.213 37.7174C116.311 37.5743 116.397 37.4692 116.468 37.3985C116.541 37.3304 116.621 37.2698 116.704 37.2202C116.793 37.1688 116.891 37.1318 116.997 37.1032C117.104 37.0788 117.214 37.0645 117.329 37.0645C117.431 37.0645 117.538 37.0788 117.649 37.1032C117.649 37.3506 117.662 37.661 117.686 38.0371C117.531 37.9975 117.39 37.974 117.266 37.974C117.112 37.974 116.981 37.9984 116.862 38.0446C116.745 38.0909 116.641 38.1607 116.548 38.2541C116.455 38.3475 116.38 38.4644 116.317 38.6016C116.268 38.7126 116.233 38.854 116.208 39.0315C116.188 39.1694 116.172 39.4058 116.158 39.7356C116.143 40.0696 116.135 40.3969 116.135 40.7183C116.135 40.8436 116.14 40.9976 116.148 41.186C115.948 41.1801 115.766 41.1776 115.603 41.1776C115.439 41.1776 115.245 41.1801 115.02 41.186Z" fill="#A9A9A9"/>
<path d="M123.63 41.1877C123.413 41.1826 123.244 41.1793 123.123 41.1793C122.993 41.1793 122.812 41.1826 122.58 41.1877L122.617 40.4979C122.499 40.651 122.402 40.7654 122.321 40.847C122.237 40.9294 122.136 41.0035 122.014 41.0741C121.893 41.1448 121.759 41.1952 121.62 41.2297C121.477 41.2642 121.331 41.2827 121.179 41.2827C120.929 41.2827 120.694 41.2356 120.474 41.1448C120.253 41.0506 120.066 40.9219 119.912 40.7519C119.757 40.5871 119.644 40.386 119.572 40.1556C119.497 39.9259 119.461 39.6854 119.461 39.4347C119.461 39.089 119.529 38.7525 119.656 38.4228C119.787 38.0948 119.966 37.8281 120.194 37.6245C120.422 37.4218 120.678 37.2788 120.966 37.1956C121.254 37.1098 121.566 37.0669 121.893 37.0669C122.13 37.0669 122.401 37.0896 122.701 37.135C122.718 36.7918 122.728 36.4326 122.728 36.0558V35.7858C122.975 35.79 123.163 35.7942 123.293 35.7942C123.465 35.7942 123.658 35.79 123.868 35.7858C123.81 36.4562 123.755 37.3672 123.705 38.5229C123.658 39.677 123.63 40.5644 123.63 41.1877ZM122.659 37.8878C122.463 37.834 122.277 37.8079 122.094 37.8079C121.887 37.8079 121.691 37.8357 121.502 37.8954C121.314 37.9526 121.146 38.051 120.998 38.1915C120.857 38.3311 120.745 38.5094 120.666 38.729C120.588 38.9494 120.549 39.1605 120.549 39.3624C120.549 39.5668 120.584 39.7501 120.656 39.9209C120.73 40.0908 120.841 40.222 120.991 40.3196C121.142 40.4172 121.314 40.4676 121.506 40.4676C121.649 40.4676 121.78 40.4424 121.898 40.3894C122.014 40.3398 122.123 40.2582 122.22 40.1539C122.316 40.0454 122.4 39.9083 122.465 39.7384C122.531 39.5701 122.577 39.3464 122.608 39.0663C122.627 38.861 122.642 38.4682 122.659 37.8878Z" fill="#A9A9A9"/>
<path d="M127.662 41.186L127.206 39.7788L126.542 37.8492L126.297 37.1611C126.496 37.167 126.681 37.1695 126.848 37.1695C127.007 37.1695 127.174 37.167 127.349 37.1611L128.257 40.127L129.299 37.1611C129.496 37.167 129.682 37.1695 129.862 37.1695C130.05 37.1695 130.228 37.167 130.399 37.1611L131.073 39.7754C131.08 39.8158 131.109 39.9327 131.154 40.127L131.248 39.8629C131.249 39.8587 131.272 39.7981 131.32 39.6762L131.931 38.1217L132.291 37.1611C132.489 37.167 132.659 37.1695 132.805 37.1695C132.923 37.1695 133.101 37.167 133.338 37.1611L132.259 39.6459C132.028 40.1783 131.81 40.6914 131.613 41.186C131.392 41.1801 131.219 41.1776 131.095 41.1776C130.962 41.1776 130.765 41.1801 130.498 41.186L129.778 38.3051C129.74 38.4077 129.66 38.6256 129.543 38.9595L128.747 41.186C128.523 41.1801 128.355 41.1776 128.238 41.1776C128.11 41.1776 127.919 41.1801 127.662 41.186Z" fill="#A9A9A9"/>
<path d="M135.746 38.0454C135.78 37.8544 135.807 37.7198 135.814 37.6441C135.823 37.5684 135.841 37.4523 135.863 37.295C136.219 37.21 136.533 37.1519 136.804 37.1191C137.077 37.0846 137.342 37.0661 137.592 37.0661C137.882 37.0661 138.146 37.1006 138.386 37.1679C138.628 37.2335 138.815 37.3429 138.952 37.491C139.09 37.6382 139.155 37.8494 139.155 38.1262C139.155 38.2768 139.135 38.6612 139.094 39.2787C139.052 39.8929 139.029 40.5306 139.021 41.1876C138.82 41.1818 138.638 41.1792 138.469 41.1792C138.311 41.1792 138.124 41.1818 137.911 41.1876C137.944 40.868 137.971 40.4978 137.991 40.0788L138.041 39.0928C137.944 39.1593 137.867 39.2039 137.817 39.2308C137.762 39.2577 137.705 39.2829 137.636 39.3057C137.571 39.3259 137.457 39.362 137.292 39.4075C137.126 39.4537 136.994 39.4941 136.895 39.5286C136.797 39.5631 136.707 39.601 136.628 39.6455C136.547 39.6885 136.479 39.7372 136.422 39.7919C136.369 39.8449 136.332 39.9021 136.304 39.961C136.281 40.0216 136.269 40.0847 136.269 40.1545C136.269 40.2647 136.3 40.3607 136.363 40.4423C136.426 40.5205 136.507 40.5769 136.603 40.6072C136.702 40.6408 136.815 40.6576 136.946 40.6576C137.029 40.6576 137.119 40.6492 137.21 40.6374C137.304 40.6223 137.429 40.592 137.585 40.5373C137.53 40.6896 137.468 40.9142 137.394 41.2095C137.208 41.2423 137.061 41.2617 136.95 41.2693C136.839 41.2785 136.737 41.2827 136.643 41.2827C136.315 41.2827 136.043 41.2364 135.832 41.1473C135.621 41.0581 135.462 40.9159 135.363 40.7199C135.262 40.5255 135.211 40.3287 135.211 40.1301C135.211 40.0174 135.232 39.9055 135.27 39.7936C135.311 39.6834 135.367 39.5799 135.443 39.4882C135.52 39.3957 135.616 39.3073 135.737 39.2215C135.857 39.134 136.033 39.0524 136.261 38.9717C136.487 38.8926 136.79 38.8101 137.163 38.7277C137.263 38.7067 137.366 38.6814 137.472 38.6528C137.581 38.6208 137.667 38.5922 137.731 38.5611C137.797 38.5325 137.852 38.4955 137.899 38.4509C137.945 38.4029 137.981 38.3558 137.999 38.3054C138.025 38.2557 138.035 38.2044 138.035 38.1497C138.035 38.0479 137.999 37.9613 137.936 37.8898C137.869 37.8199 137.782 37.7695 137.676 37.7417C137.57 37.7122 137.454 37.6979 137.323 37.6979C136.847 37.6979 136.321 37.8149 135.746 38.0454Z" fill="#A9A9A9"/>
<path d="M141.879 41.186L141.992 39.304L142.022 38.2137C142.027 37.9883 142.031 37.7636 142.031 37.5373C142.031 37.4961 142.027 37.3699 142.022 37.1604C142.266 37.1663 142.449 37.1688 142.564 37.1688C142.696 37.1688 142.872 37.1663 143.093 37.1604L143.073 37.7174C143.171 37.5743 143.257 37.4692 143.329 37.3985C143.4 37.3304 143.478 37.2698 143.565 37.2202C143.653 37.1688 143.752 37.1318 143.856 37.1032C143.964 37.0788 144.077 37.0645 144.188 37.0645C144.293 37.0645 144.399 37.0788 144.51 37.1032C144.51 37.3506 144.52 37.661 144.545 38.0371C144.39 37.9975 144.25 37.974 144.125 37.974C143.974 37.974 143.838 37.9984 143.724 38.0446C143.605 38.0909 143.501 38.1607 143.408 38.2541C143.314 38.3475 143.241 38.4644 143.18 38.6016C143.13 38.7126 143.093 38.854 143.068 39.0315C143.048 39.1694 143.03 39.4058 143.018 39.7356C143.004 40.0696 142.997 40.3969 142.997 40.7183C142.997 40.8436 143.001 40.9976 143.008 41.186C142.808 41.1801 142.627 41.1776 142.46 41.1776C142.295 41.1776 142.103 41.1801 141.879 41.186Z" fill="#A9A9A9"/>
<path d="M208.016 41.186L208.129 39.304L208.159 38.2137C208.163 37.9883 208.167 37.7636 208.167 37.5373C208.167 37.4961 208.163 37.3699 208.159 37.1604C208.402 37.1663 208.585 37.1688 208.7 37.1688C208.831 37.1688 209.008 37.1663 209.229 37.1604L209.209 37.7174C209.307 37.5743 209.393 37.4692 209.464 37.3985C209.537 37.3304 209.613 37.2698 209.702 37.2202C209.789 37.1688 209.888 37.1318 209.992 37.1032C210.1 37.0788 210.213 37.0645 210.325 37.0645C210.427 37.0645 210.536 37.0788 210.645 37.1032C210.645 37.3506 210.656 37.661 210.682 38.0371C210.526 37.9975 210.386 37.974 210.261 37.974C210.111 37.974 209.973 37.9984 209.86 38.0446C209.742 38.0909 209.638 38.1607 209.543 38.2541C209.45 38.3475 209.375 38.4644 209.315 38.6016C209.265 38.7126 209.229 38.854 209.204 39.0315C209.185 39.1694 209.168 39.4058 209.154 39.7356C209.139 40.0696 209.133 40.3969 209.133 40.7183C209.133 40.8436 209.136 40.9976 209.144 41.186C208.944 41.1801 208.764 41.1776 208.595 41.1776C208.431 41.1776 208.24 41.1801 208.016 41.186Z" fill="#A9A9A9"/>
<path d="M150.332 40.2877C150.3 40.4433 150.25 40.7235 150.189 41.1273C149.905 41.1862 149.666 41.2291 149.474 41.2484C149.28 41.2712 149.086 41.2812 148.888 41.2812C148.545 41.2812 148.239 41.2468 147.968 41.1778C147.697 41.1113 147.459 40.9851 147.257 40.8009C147.051 40.6183 146.9 40.392 146.805 40.1278C146.706 39.8603 146.66 39.5801 146.66 39.2874C146.66 38.9643 146.716 38.6497 146.827 38.346C146.938 38.0406 147.099 37.7907 147.301 37.598C147.502 37.4037 147.734 37.2666 147.993 37.1866C148.255 37.105 148.524 37.0647 148.806 37.0647C149.072 37.0647 149.326 37.1 149.565 37.1673C149.807 37.2338 150.009 37.3448 150.172 37.4954C150.339 37.6502 150.462 37.8319 150.55 38.0481C150.637 38.2627 150.68 38.5016 150.68 38.7674C150.68 38.8886 150.667 39.0156 150.642 39.1486L147.766 39.1519C147.759 39.2487 147.757 39.3278 147.757 39.3841C147.757 39.5616 147.788 39.7248 147.848 39.8746C147.908 40.021 147.995 40.1447 148.11 40.2473C148.226 40.3499 148.366 40.4265 148.524 40.4761C148.683 40.5258 148.84 40.5493 148.995 40.5493C149.173 40.5493 149.37 40.5291 149.581 40.4904C149.793 40.4509 150.043 40.3836 150.332 40.2877ZM147.798 38.6884L149.634 38.6926C149.634 38.5655 149.629 38.4722 149.62 38.4133C149.614 38.3544 149.595 38.2837 149.567 38.2071C149.542 38.1297 149.505 38.0608 149.458 38.001C149.41 37.9421 149.355 37.8917 149.292 37.8546C149.231 37.8143 149.157 37.7831 149.076 37.7621C148.992 37.7427 148.905 37.7318 148.809 37.7318C148.699 37.7318 148.592 37.7495 148.492 37.7814C148.386 37.8159 148.293 37.8656 148.206 37.932C148.118 37.9985 148.049 38.07 147.995 38.1516C147.943 38.2349 147.902 38.3115 147.876 38.3863C147.85 38.4612 147.823 38.5613 147.798 38.6884Z" fill="#A9A9A9"/>
<path d="M157.934 41.186C157.982 40.6679 158.013 40.2524 158.029 39.9394C158.06 39.4129 158.089 38.6617 158.118 37.6826C158.145 36.9601 158.158 36.4487 158.158 36.1509V35.7825C158.905 35.7884 159.563 35.7926 160.126 35.7926L161.224 35.7867L161.877 35.7825C161.849 36.1761 161.835 36.4621 161.833 36.6362L161.268 36.6194L161.042 36.6152H160.736H160.14L159.327 36.6194L159.279 38.0376L159.945 38.0511C160.456 38.0511 160.782 38.0494 160.924 38.0469L161.456 38.0376C161.441 38.3463 161.428 38.6256 161.424 38.8771C160.966 38.867 160.606 38.8619 160.335 38.8619C159.997 38.8619 159.63 38.867 159.236 38.8771L159.19 40.6267L159.185 40.9833V41.186L158.586 41.1776C158.553 41.1776 158.335 41.1801 157.934 41.186Z" fill="#A9A9A9"/>
<path d="M163.948 38.0454C163.984 37.8544 164.011 37.7198 164.018 37.6441C164.027 37.5684 164.042 37.4523 164.068 37.295C164.423 37.21 164.736 37.1519 165.009 37.1191C165.283 37.0846 165.544 37.0661 165.8 37.0661C166.086 37.0661 166.352 37.1006 166.591 37.1679C166.832 37.2335 167.02 37.3429 167.158 37.491C167.294 37.6382 167.36 37.8494 167.36 38.1262C167.36 38.2768 167.34 38.6612 167.3 39.2787C167.255 39.8929 167.234 40.5306 167.224 41.1876C167.024 41.1818 166.842 41.1792 166.672 41.1792C166.514 41.1792 166.328 41.1818 166.113 41.1876C166.146 40.868 166.173 40.4978 166.194 40.0788L166.247 39.0928C166.147 39.1593 166.071 39.2039 166.021 39.2308C165.966 39.2577 165.91 39.2829 165.844 39.3057C165.775 39.3259 165.663 39.362 165.497 39.4075C165.332 39.4537 165.201 39.4941 165.1 39.5286C164.998 39.5631 164.913 39.601 164.832 39.6455C164.752 39.6885 164.684 39.7372 164.627 39.7919C164.574 39.8449 164.533 39.9021 164.51 39.961C164.485 40.0216 164.472 40.0847 164.472 40.1545C164.472 40.2647 164.505 40.3607 164.567 40.4423C164.631 40.5205 164.713 40.5769 164.81 40.6072C164.907 40.6408 165.018 40.6576 165.151 40.6576C165.236 40.6576 165.323 40.6492 165.416 40.6374C165.508 40.6223 165.633 40.592 165.79 40.5373C165.736 40.6896 165.672 40.9142 165.598 41.2095C165.412 41.2423 165.265 41.2617 165.155 41.2693C165.044 41.2785 164.944 41.2827 164.847 41.2827C164.521 41.2827 164.248 41.2364 164.036 41.1473C163.822 41.0581 163.669 40.9159 163.568 40.7199C163.464 40.5255 163.414 40.3287 163.414 40.1301C163.414 40.0174 163.433 39.9055 163.474 39.7936C163.514 39.6834 163.571 39.5799 163.648 39.4882C163.724 39.3957 163.82 39.3073 163.944 39.2215C164.062 39.134 164.238 39.0524 164.464 38.9717C164.692 38.8926 164.993 38.8101 165.367 38.7277C165.467 38.7067 165.57 38.6814 165.677 38.6528C165.783 38.6208 165.87 38.5922 165.936 38.5611C166 38.5325 166.056 38.4955 166.101 38.4509C166.148 38.4029 166.182 38.3558 166.203 38.3054C166.228 38.2557 166.24 38.2044 166.24 38.1497C166.24 38.0479 166.203 37.9613 166.141 37.8898C166.073 37.8199 165.987 37.7695 165.881 37.7417C165.774 37.7122 165.658 37.6979 165.528 37.6979C165.053 37.6979 164.525 37.8149 163.948 38.0454Z" fill="#A9A9A9"/>
<path d="M172.669 40.2725C172.654 40.3811 172.635 40.503 172.609 40.6402C172.582 40.7782 172.556 40.9498 172.527 41.1508C172.152 41.2383 171.781 41.2812 171.42 41.2812C171.208 41.2812 171.004 41.2619 170.806 41.219C170.612 41.1837 170.429 41.1121 170.257 41.0112C170.09 40.9102 169.939 40.7765 169.813 40.6074C169.682 40.4433 169.589 40.2406 169.525 40.005C169.46 39.7686 169.43 39.5263 169.43 39.2739C169.43 38.9424 169.483 38.6227 169.587 38.3174C169.693 38.0111 169.849 37.7604 170.054 37.5686C170.257 37.3726 170.483 37.2405 170.734 37.1715C170.985 37.1017 171.262 37.0647 171.571 37.0647C171.738 37.0647 171.914 37.0748 172.094 37.0949C172.275 37.1168 172.488 37.1564 172.731 37.2153L172.793 38.0835C172.403 37.9497 172.065 37.8824 171.775 37.8824C171.597 37.8824 171.429 37.9135 171.269 37.9741C171.113 38.0347 170.978 38.1297 170.864 38.2593C170.749 38.3914 170.667 38.5411 170.619 38.7136C170.574 38.8844 170.549 39.0594 170.549 39.2403C170.549 39.4901 170.587 39.7089 170.665 39.8906C170.74 40.0731 170.875 40.2162 171.062 40.3146C171.249 40.4164 171.465 40.466 171.704 40.466C171.823 40.466 171.964 40.4509 172.134 40.4189C172.297 40.3895 172.478 40.3407 172.669 40.2725Z" fill="#A9A9A9"/>
<path d="M175.438 41.186C175.479 40.7907 175.506 40.4584 175.52 40.1926C175.548 39.7695 175.569 39.2834 175.591 38.7316C175.608 38.1806 175.625 37.6574 175.632 37.1611C175.89 37.167 176.078 37.1695 176.205 37.1695C176.322 37.1695 176.512 37.167 176.776 37.1611C176.738 37.6196 176.712 38.0586 176.691 38.4742C176.668 38.8914 176.655 39.37 176.643 39.9066C176.634 40.4467 176.628 40.8706 176.628 41.186C176.388 41.1801 176.197 41.1776 176.054 41.1776C175.915 41.1776 175.711 41.1801 175.438 41.186ZM175.65 36.4714C175.662 36.1988 175.666 35.9919 175.666 35.8464V35.7194C175.905 35.727 176.1 35.7278 176.249 35.7278C176.454 35.7278 176.643 35.727 176.817 35.7194C176.808 35.7867 176.804 35.8607 176.802 35.9448L176.78 36.4714C176.585 36.468 176.398 36.4638 176.233 36.4638C176.066 36.4638 175.873 36.468 175.65 36.4714Z" fill="#A9A9A9"/>
<path d="M179.035 41.186C179.076 40.7394 179.122 39.9394 179.179 38.7812C179.236 37.6254 179.269 36.6236 179.282 35.7825C179.553 35.7884 179.748 35.7926 179.864 35.7926C180.018 35.7926 180.204 35.7884 180.431 35.7825L180.336 37.2267L180.201 40.4492L180.184 41.186C179.968 41.1801 179.788 41.1776 179.637 41.1776C179.587 41.1776 179.387 41.1801 179.035 41.186Z" fill="#A9A9A9"/>
<path d="M182.684 41.186C182.724 40.7907 182.75 40.4584 182.77 40.1926C182.796 39.7695 182.818 39.2834 182.837 38.7316C182.856 38.1806 182.872 37.6574 182.88 37.1611C183.136 37.167 183.327 37.1695 183.453 37.1695C183.572 37.1695 183.761 37.167 184.023 37.1611C183.987 37.6196 183.96 38.0586 183.938 38.4742C183.917 38.8914 183.9 39.37 183.891 39.9066C183.88 40.4467 183.876 40.8706 183.876 41.186C183.638 41.1801 183.445 41.1776 183.301 41.1776C183.166 41.1776 182.96 41.1801 182.684 41.186ZM182.899 36.4714C182.91 36.1988 182.915 35.9919 182.915 35.8464V35.7194C183.153 35.727 183.348 35.7278 183.496 35.7278C183.701 35.7278 183.891 35.727 184.068 35.7194C184.056 35.7867 184.053 35.8607 184.052 35.9448L184.03 36.4714C183.83 36.468 183.648 36.4638 183.48 36.4638C183.314 36.4638 183.118 36.468 182.899 36.4714Z" fill="#A9A9A9"/>
<path d="M188.924 40.3608C188.895 40.5055 188.845 40.7755 188.774 41.1666C188.557 41.2171 188.382 41.2499 188.26 41.2617C188.134 41.276 188.014 41.2827 187.904 41.2827C187.713 41.2827 187.539 41.2634 187.386 41.228C187.231 41.1893 187.105 41.1254 187.006 41.0295C186.906 40.9362 186.838 40.8268 186.802 40.7023C186.77 40.5753 186.75 40.4483 186.75 40.312C186.75 40.2792 186.753 40.233 186.755 40.1724C186.757 40.1152 186.77 39.9293 186.786 39.6105L186.876 37.9661H186.309C186.325 37.8071 186.334 37.553 186.346 37.2023H186.937C186.954 37.0484 186.97 36.7884 186.984 36.4217L187.449 36.3317C187.545 36.3115 187.733 36.2686 188.01 36.1988C187.993 36.5571 187.979 36.8902 187.975 37.2023H188.976C188.958 37.5581 188.949 37.813 188.949 37.9661H187.947C187.892 39.0394 187.864 39.661 187.864 39.8309C187.864 39.9941 187.883 40.1211 187.917 40.2111C187.953 40.2986 188.01 40.365 188.087 40.4037C188.166 40.4441 188.251 40.4618 188.341 40.4618C188.403 40.4618 188.472 40.4559 188.547 40.4483C188.618 40.4365 188.745 40.4062 188.924 40.3608Z" fill="#A9A9A9"/>
<path d="M191.276 38.0454C191.315 37.8544 191.337 37.7198 191.345 37.6441C191.357 37.5684 191.37 37.4523 191.396 37.295C191.749 37.21 192.065 37.1519 192.336 37.1191C192.608 37.0846 192.874 37.0661 193.127 37.0661C193.414 37.0661 193.678 37.1006 193.917 37.1679C194.159 37.2335 194.35 37.3429 194.484 37.491C194.62 37.6382 194.688 37.8494 194.688 38.1262C194.688 38.2768 194.665 38.6612 194.627 39.2787C194.586 39.8929 194.559 40.5306 194.553 41.1876C194.353 41.1818 194.173 41.1792 194 41.1792C193.842 41.1792 193.654 41.1818 193.44 41.1876C193.471 40.868 193.503 40.4978 193.524 40.0788L193.575 39.0928C193.475 39.1593 193.399 39.2039 193.349 39.2308C193.296 39.2577 193.239 39.2829 193.17 39.3057C193.103 39.3259 192.987 39.362 192.825 39.4075C192.659 39.4537 192.527 39.4941 192.428 39.5286C192.328 39.5631 192.237 39.601 192.16 39.6455C192.082 39.6885 192.012 39.7372 191.954 39.7919C191.902 39.8449 191.86 39.9021 191.834 39.961C191.811 40.0216 191.8 40.0847 191.8 40.1545C191.8 40.2647 191.83 40.3607 191.894 40.4423C191.959 40.5205 192.039 40.5769 192.138 40.6072C192.233 40.6408 192.347 40.6576 192.48 40.6576C192.564 40.6576 192.652 40.6492 192.743 40.6374C192.836 40.6223 192.962 40.592 193.118 40.5373C193.063 40.6896 192.999 40.9142 192.924 41.2095C192.741 41.2423 192.593 41.2617 192.483 41.2693C192.375 41.2785 192.272 41.2827 192.177 41.2827C191.846 41.2827 191.577 41.2364 191.365 41.1473C191.152 41.0581 190.995 40.9159 190.897 40.7199C190.795 40.5255 190.742 40.3287 190.742 40.1301C190.742 40.0174 190.762 39.9055 190.802 39.7936C190.842 39.6834 190.9 39.5799 190.976 39.4882C191.052 39.3957 191.149 39.3073 191.27 39.2215C191.39 39.134 191.566 39.0524 191.793 38.9717C192.02 38.8926 192.322 38.8101 192.699 38.7277C192.795 38.7067 192.898 38.6814 193.007 38.6528C193.113 38.6208 193.199 38.5922 193.264 38.5611C193.329 38.5325 193.385 38.4955 193.432 38.4509C193.476 38.4029 193.511 38.3558 193.535 38.3054C193.556 38.2557 193.565 38.2044 193.565 38.1497C193.565 38.0479 193.535 37.9613 193.468 37.8898C193.4 37.8199 193.314 37.7695 193.209 37.7417C193.102 37.7122 192.984 37.6979 192.856 37.6979C192.381 37.6979 191.853 37.8149 191.276 38.0454Z" fill="#A9A9A9"/>
<path d="M199.384 40.3608C199.353 40.5055 199.304 40.7755 199.237 41.1666C199.017 41.2171 198.844 41.2499 198.718 41.2617C198.595 41.276 198.475 41.2827 198.368 41.2827C198.175 41.2827 198.001 41.2634 197.848 41.228C197.69 41.1893 197.568 41.1254 197.469 41.0295C197.365 40.9362 197.3 40.8268 197.265 40.7023C197.227 40.5753 197.214 40.4483 197.214 40.312C197.214 40.2792 197.214 40.233 197.218 40.1724C197.22 40.1152 197.227 39.9293 197.246 39.6105L197.337 37.9661H196.773C196.788 37.8071 196.797 37.553 196.81 37.2023H197.402C197.415 37.0484 197.43 36.7884 197.445 36.4217L197.91 36.3317C198.009 36.3115 198.192 36.2686 198.471 36.1988C198.454 36.5571 198.442 36.8902 198.44 37.2023H199.439C199.419 37.5581 199.41 37.813 199.41 37.9661H198.409C198.357 39.0394 198.328 39.661 198.328 39.8309C198.328 39.9941 198.348 40.1211 198.38 40.2111C198.416 40.2986 198.471 40.365 198.55 40.4037C198.63 40.4441 198.712 40.4618 198.801 40.4618C198.866 40.4618 198.936 40.4559 199.01 40.4483C199.08 40.4365 199.207 40.4062 199.384 40.3608Z" fill="#A9A9A9"/>
<path d="M203.752 37.0647C204.053 37.0647 204.34 37.1101 204.617 37.2018C204.894 37.2935 205.129 37.4264 205.321 37.6065C205.513 37.784 205.659 38.0019 205.754 38.2585C205.85 38.5151 205.899 38.7868 205.899 39.0712C205.899 39.3723 205.848 39.6634 205.746 39.9436C205.645 40.2221 205.496 40.4643 205.304 40.6679C205.109 40.8749 204.868 41.0263 204.58 41.1281C204.288 41.2282 203.982 41.2812 203.655 41.2812C203.35 41.2812 203.062 41.2358 202.788 41.1433C202.512 41.0533 202.281 40.9186 202.089 40.7361C201.895 40.5535 201.748 40.3314 201.646 40.0706C201.547 39.8081 201.496 39.5364 201.496 39.2487C201.496 38.9601 201.541 38.6842 201.632 38.42C201.724 38.155 201.867 37.9219 202.062 37.7133C202.26 37.508 202.505 37.3507 202.811 37.2371C203.114 37.121 203.428 37.0647 203.752 37.0647ZM203.752 37.8816C203.524 37.8816 203.322 37.9354 203.143 38.049C202.967 38.1609 202.834 38.3266 202.745 38.5496C202.659 38.7717 202.613 39.0139 202.613 39.2739C202.613 39.5036 202.652 39.7072 202.721 39.8889C202.791 40.0673 202.912 40.212 203.074 40.3239C203.236 40.4332 203.432 40.4896 203.655 40.4896C203.881 40.4896 204.086 40.4315 204.259 40.318C204.433 40.2019 204.564 40.0328 204.65 39.8098C204.736 39.586 204.779 39.3412 204.779 39.0712C204.779 38.8516 204.748 38.6522 204.68 38.4738C204.612 38.2955 204.496 38.1516 204.336 38.0439C204.174 37.9354 203.982 37.8816 203.752 37.8816Z" fill="#A9A9A9"/>
</svg>
