<svg width="210" height="52" viewBox="0 0 210 52" fill="none" xmlns="http://www.w3.org/2000/svg">
<path d="M124.517 12.1525C124.517 11.5532 124.303 11.0452 123.885 10.6295C123.463 10.209 122.92 9.99973 122.256 9.99973C121.625 9.99973 121.09 10.209 120.656 10.6295C120.218 11.0452 120 11.5532 120 12.1525C120 12.7499 120.218 13.2597 120.656 13.6774C121.09 14.0959 121.625 14.3062 122.256 14.3062C122.92 14.3062 123.463 14.0959 123.885 13.6774C124.303 13.2597 124.517 12.7499 124.517 12.1525Z" fill="#073D49"/>
<path d="M186.558 34.9963V34.3181H187.008C187.253 34.3181 187.587 34.3371 187.587 34.6263C187.587 34.9411 187.414 34.9963 187.126 34.9963H186.558ZM186.558 35.4729H186.858L187.555 36.6572H188.319L187.548 35.4234C187.947 35.3959 188.274 35.2123 188.274 34.6929C188.274 34.0469 187.815 33.8396 187.036 33.8396H185.91V36.6572H186.558V35.4729ZM189.83 35.2522C189.83 33.5979 188.503 32.6372 187.023 32.6372C185.534 32.6372 184.207 33.5979 184.207 35.2522C184.207 36.9055 185.534 37.8701 187.023 37.8701C188.503 37.8701 189.83 36.9055 189.83 35.2522ZM189.02 35.2522C189.02 36.4575 188.106 37.267 187.023 37.267V37.2594C185.91 37.267 185.013 36.4575 185.013 35.2522C185.013 34.0469 185.91 33.2403 187.023 33.2403C188.106 33.2403 189.02 34.0469 189.02 35.2522Z" fill="black"/>
<path d="M119.224 17.2261L119.226 37.0225H125V17.2261H119.224ZM73.8047 17.1985V37.0225H79.63V21.9702L84.1431 21.9712C85.637 21.9712 86.7026 22.3316 87.4226 23.0764C88.335 24.018 88.7083 25.5378 88.7083 28.3179V37.0225H94.3518V26.0695C94.3518 18.2523 89.2072 17.1985 84.1726 17.1985H73.8047ZM128.52 17.2261V37.0225H137.884C142.873 37.0225 144.502 36.2197 146.264 34.4174C147.508 33.1524 148.313 30.3771 148.313 27.3421C148.313 24.5582 147.632 22.0777 146.445 20.5312C144.304 17.7663 141.222 17.2261 136.623 17.2261H128.52ZM134.247 21.5365H136.73C140.332 21.5365 142.66 23.102 142.66 27.1661C142.66 31.2302 140.332 32.7967 136.73 32.7967H134.247V21.5365ZM110.9 17.2261L106.08 32.9156L101.464 17.227L95.2319 17.2261L101.825 37.0225H110.146L116.793 17.2261H110.9ZM150.998 37.0225H156.774V17.227L150.997 17.2261L150.998 37.0225ZM167.185 17.2337L159.123 37.0149H164.815L166.091 33.5195H175.632L176.839 37.0149H183.02L174.897 17.2308L167.185 17.2337ZM170.932 20.8422L174.431 30.1108H167.325L170.932 20.8422Z" fill="black"/>
<path d="M37.4268 21.0024V18.2984C37.6979 18.2803 37.9719 18.266 38.2508 18.2575C45.8863 18.0254 50.8954 24.6109 50.8954 24.6109C50.8954 24.6109 45.4846 31.8878 39.6838 31.8878C38.849 31.8878 38.1006 31.7575 37.4268 31.5388V23.3402C40.3988 23.6883 40.997 24.9599 42.7846 27.8447L46.7584 24.5995C46.7584 24.5995 43.8571 20.9149 38.9668 20.9149C38.4355 20.9139 37.9267 20.951 37.4268 21.0024ZM37.4268 12.0724V16.1099C37.7008 16.0889 37.9748 16.0718 38.2508 16.0633C48.8682 15.7161 55.7866 24.4958 55.7866 24.4958C55.7866 24.4958 47.8408 33.8519 39.563 33.8519C38.8038 33.8519 38.0937 33.7834 37.4268 33.6692V36.1659C37.9974 36.2353 38.5887 36.2772 39.2055 36.2772C46.9087 36.2772 52.4796 32.467 57.8738 27.9588C58.7685 28.6521 62.4301 30.3394 63.1824 31.0784C58.0535 35.2367 46.1004 38.5884 39.3243 38.5884C38.6712 38.5884 38.0436 38.5494 37.4268 38.4923V42H66.7065V12.0724H37.4268ZM37.4268 31.5388V33.6692C30.3021 32.4395 28.324 25.2671 28.324 25.2671C28.324 25.2671 31.7449 21.5978 37.4268 21.0024V23.3402C37.4229 23.3402 37.4199 23.3392 37.416 23.3392C34.4341 22.993 32.1044 25.6904 32.1044 25.6904C32.1044 25.6904 33.4097 30.231 37.4268 31.5388ZM24.7724 24.9561C24.7724 24.9561 28.9948 18.9223 37.4268 18.2984V16.1099C28.0873 16.8356 20 24.4958 20 24.4958C20 24.4958 24.5809 37.3186 37.4268 38.4923V36.1659C27.9998 35.017 24.7724 24.9561 24.7724 24.9561Z" fill="#78BA00"/>
</svg>
