<svg width="222" height="52" viewBox="0 0 222 52" fill="none" xmlns="http://www.w3.org/2000/svg">
<mask id="mask0_799_238" style="mask-type:luminance" maskUnits="userSpaceOnUse" x="20" y="2" width="182" height="48">
<path d="M201.428 2.86035H20V49.1395H201.428V2.86035Z" fill="white"/>
</mask>
<g mask="url(#mask0_799_238)">
<path d="M43.3442 12.0793H28.3906V40.4639H43.3442V12.0793Z" fill="#F21E26"/>
<path d="M59.6474 24.8991L45.4258 29.52L49.7285 42.7625L63.9502 38.1416L59.6474 24.8991Z" fill="#FCC707"/>
<path d="M52.1962 24.5912C56.5784 24.5912 60.1308 21.0388 60.1308 16.6567C60.1308 12.2746 56.5784 8.72217 52.1962 8.72217C47.8141 8.72217 44.2617 12.2746 44.2617 16.6567C44.2617 21.0388 47.8141 24.5912 52.1962 24.5912Z" fill="#2767C4"/>
<path d="M79.2318 37.4517C78.6478 37.4517 78.1263 37.2744 77.6675 36.9198C77.2086 36.5444 76.9792 36.0855 76.9792 35.5433V17.4603C76.9792 16.918 77.1565 16.4696 77.5111 16.115C77.8865 15.7396 78.3453 15.5519 78.8876 15.5519H87.8978C88.9824 15.5519 89.9939 15.8439 90.9325 16.4279C91.8919 16.991 92.6636 17.7836 93.2476 18.8056C93.8316 19.8067 94.1236 20.9643 94.1236 22.2782C94.1236 23.0708 93.9568 23.8425 93.623 24.5934C93.3102 25.3442 92.8722 26.0221 92.3091 26.6269C91.7668 27.2318 91.1515 27.701 90.4632 28.0348L90.4945 27.3152C91.0785 27.628 91.5582 28.0035 91.9336 28.4415C92.3299 28.8586 92.6323 29.3175 92.8409 29.818C93.0703 30.2977 93.2059 30.8192 93.2476 31.3823C93.3311 31.9037 93.3832 32.3626 93.4041 32.7589C93.4458 33.1551 93.5083 33.4888 93.5918 33.76C93.696 34.0311 93.8838 34.2397 94.1549 34.3857C94.6138 34.6568 94.8953 35.0531 94.9996 35.5745C95.1247 36.0751 95.01 36.5235 94.6555 36.9198C94.426 37.1909 94.134 37.3682 93.7795 37.4517C93.4249 37.5142 93.0703 37.5142 92.7158 37.4517C92.3612 37.3682 92.0692 37.2639 91.8398 37.1388C91.4852 36.9302 91.1306 36.6278 90.7761 36.2315C90.4215 35.8144 90.1295 35.2617 89.9001 34.5734C89.6915 33.8851 89.5872 32.9987 89.5872 31.9141C89.5872 31.5596 89.5247 31.2363 89.3995 30.9443C89.2744 30.6314 89.0971 30.3707 88.8677 30.1622C88.6382 29.9327 88.3462 29.7659 87.9917 29.6616C87.6371 29.5365 87.22 29.4739 86.7403 29.4739H80.4206L80.8899 28.7543V35.5433C80.8899 36.0855 80.7439 36.5444 80.4519 36.9198C80.1599 37.2744 79.7532 37.4517 79.2318 37.4517ZM80.4519 26.2515H87.7414C88.1168 26.2515 88.4818 26.0846 88.8364 25.7509C89.191 25.3964 89.4829 24.9271 89.7124 24.3431C89.9418 23.7382 90.0565 23.0812 90.0565 22.3721C90.0565 21.4544 89.8062 20.6931 89.3057 20.0883C88.826 19.4626 88.3045 19.1497 87.7414 19.1497H80.5145L80.8899 18.1486V27.0023L80.4519 26.2515ZM114.072 29.0985C114.072 30.8087 113.687 32.3209 112.915 33.6348C112.164 34.928 111.142 35.9395 109.849 36.6695C108.577 37.3995 107.148 37.7645 105.563 37.7645C103.978 37.7645 102.539 37.3995 101.245 36.6695C99.9732 35.9395 98.9512 34.928 98.1795 33.6348C97.4286 32.3209 97.0532 30.8087 97.0532 29.0985C97.0532 27.3882 97.4286 25.8865 98.1795 24.5934C98.9512 23.2794 99.9732 22.2574 101.245 21.5274C102.539 20.7765 103.978 20.4011 105.563 20.4011C107.148 20.4011 108.577 20.7765 109.849 21.5274C111.142 22.2574 112.164 23.2794 112.915 24.5934C113.687 25.8865 114.072 27.3882 114.072 29.0985ZM110.318 29.0985C110.318 28.0348 110.099 27.1171 109.661 26.3453C109.244 25.5528 108.671 24.9375 107.941 24.4995C107.231 24.0615 106.439 23.8425 105.563 23.8425C104.687 23.8425 103.884 24.0615 103.154 24.4995C102.445 24.9375 101.871 25.5528 101.433 26.3453C101.016 27.1171 100.807 28.0348 100.807 29.0985C100.807 30.1413 101.016 31.059 101.433 31.8516C101.871 32.6233 102.445 33.2281 103.154 33.6661C103.884 34.1041 104.687 34.3231 105.563 34.3231C106.439 34.3231 107.231 34.1041 107.941 33.6661C108.671 33.2281 109.244 32.6233 109.661 31.8516C110.099 31.059 110.318 30.1413 110.318 29.0985ZM116.239 34.855C116.031 34.563 115.937 34.1876 115.958 33.7287C115.978 33.2698 116.25 32.8736 116.771 32.5399C117.105 32.3313 117.459 32.2479 117.835 32.2896C118.21 32.3104 118.575 32.4981 118.93 32.8527C119.535 33.4576 120.171 33.9268 120.838 34.2605C121.506 34.5943 122.34 34.7611 123.341 34.7611C123.654 34.7403 123.998 34.6985 124.373 34.636C124.749 34.5525 125.072 34.3857 125.343 34.1354C125.635 33.8643 125.781 33.4576 125.781 32.9153C125.781 32.4564 125.625 32.0914 125.312 31.8203C124.999 31.5491 124.582 31.3197 124.061 31.132C123.56 30.9443 122.997 30.767 122.371 30.6002C121.725 30.4124 121.057 30.2039 120.369 29.9745C119.701 29.745 119.086 29.453 118.523 29.0985C117.96 28.723 117.501 28.2329 117.146 27.628C116.792 27.0232 116.615 26.2619 116.615 25.3442C116.615 24.3014 116.907 23.4149 117.491 22.685C118.075 21.955 118.825 21.3918 119.743 20.9955C120.682 20.5993 121.662 20.4011 122.684 20.4011C123.331 20.4011 124.008 20.4845 124.718 20.6514C125.427 20.7974 126.105 21.0477 126.751 21.4023C127.398 21.736 127.94 22.1844 128.378 22.7475C128.607 23.0604 128.743 23.4358 128.785 23.8738C128.826 24.3118 128.628 24.7081 128.19 25.0626C127.877 25.3129 127.512 25.4276 127.095 25.4068C126.678 25.3651 126.334 25.2191 126.063 24.9688C125.708 24.5099 125.229 24.1449 124.624 23.8738C124.04 23.6027 123.362 23.4671 122.59 23.4671C122.277 23.4671 121.933 23.5088 121.558 23.5922C121.203 23.6548 120.89 23.8112 120.619 24.0615C120.348 24.2909 120.212 24.6664 120.212 25.1878C120.212 25.6675 120.369 26.0533 120.682 26.3453C120.995 26.6165 121.412 26.8459 121.933 27.0336C122.475 27.2005 123.049 27.3673 123.654 27.5342C124.28 27.701 124.916 27.8992 125.562 28.1286C126.209 28.358 126.803 28.6605 127.346 29.0359C127.888 29.4113 128.326 29.9015 128.66 30.5063C128.993 31.0903 129.16 31.8411 129.16 32.7589C129.16 33.8226 128.847 34.7298 128.222 35.4807C127.596 36.2315 126.814 36.8051 125.875 37.2014C124.937 37.5768 123.977 37.7645 122.997 37.7645C121.766 37.7645 120.536 37.5559 119.305 37.1388C118.075 36.7008 117.053 35.9395 116.239 34.855ZM140.029 37.7645C138.256 37.7645 136.713 37.3995 135.399 36.6695C134.106 35.9187 133.105 34.9071 132.396 33.6348C131.707 32.3626 131.363 30.9234 131.363 29.3175C131.363 27.4403 131.739 25.8448 132.49 24.5308C133.261 23.1959 134.262 22.174 135.493 21.4648C136.723 20.7557 138.027 20.4011 139.404 20.4011C140.467 20.4011 141.468 20.6201 142.407 21.0581C143.366 21.4961 144.211 22.101 144.941 22.8727C145.671 23.6235 146.245 24.4995 146.662 25.5006C147.1 26.5018 147.319 27.5655 147.319 28.6917C147.298 29.1923 147.1 29.599 146.724 29.9119C146.349 30.2247 145.911 30.3812 145.41 30.3812H133.459L132.521 27.2526H144.003L143.314 27.8783V27.0336C143.273 26.4288 143.054 25.8865 142.657 25.4068C142.282 24.9271 141.802 24.5516 141.218 24.2805C140.655 23.9885 140.05 23.8425 139.404 23.8425C138.778 23.8425 138.194 23.9259 137.652 24.0928C137.109 24.2597 136.64 24.5412 136.244 24.9375C135.847 25.3338 135.535 25.8656 135.305 26.5331C135.076 27.2005 134.961 28.0452 134.961 29.0672C134.961 30.1934 135.191 31.1529 135.649 31.9454C136.129 32.7171 136.734 33.3116 137.464 33.7287C138.215 34.125 139.007 34.3231 139.842 34.3231C140.613 34.3231 141.229 34.2605 141.687 34.1354C142.146 34.0103 142.511 33.8643 142.782 33.6974C143.074 33.5097 143.335 33.3533 143.565 33.2281C143.94 33.0404 144.295 32.9466 144.628 32.9466C145.087 32.9466 145.463 33.103 145.755 33.4158C146.067 33.7287 146.224 34.0937 146.224 34.5108C146.224 35.074 145.932 35.585 145.348 36.0438C144.806 36.5027 144.044 36.9094 143.064 37.2639C142.084 37.5977 141.072 37.7645 140.029 37.7645ZM150.637 21.0268H158.052C158.553 21.0268 158.97 21.1937 159.304 21.5274C159.637 21.8611 159.804 22.2782 159.804 22.7788C159.804 23.2585 159.637 23.6652 159.304 23.9989C158.97 24.3118 158.553 24.4682 158.052 24.4682H150.637C150.137 24.4682 149.72 24.3014 149.386 23.9677C149.052 23.6339 148.886 23.2168 148.886 22.7162C148.886 22.2365 149.052 21.8402 149.386 21.5274C149.72 21.1937 150.137 21.0268 150.637 21.0268ZM153.985 17.1162C154.527 17.1162 154.965 17.3039 155.299 17.6793C155.654 18.0339 155.831 18.4823 155.831 19.0246V32.9466C155.831 33.2386 155.883 33.4784 155.987 33.6661C156.112 33.8538 156.269 33.9894 156.457 34.0728C156.665 34.1563 156.884 34.198 157.114 34.198C157.364 34.198 157.593 34.1563 157.802 34.0728C158.01 33.9686 158.25 33.9164 158.521 33.9164C158.813 33.9164 159.074 34.052 159.304 34.3231C159.554 34.5943 159.679 34.9697 159.679 35.4494C159.679 36.0334 159.356 36.5131 158.709 36.8885C158.083 37.2639 157.406 37.4517 156.676 37.4517C156.238 37.4517 155.747 37.4204 155.205 37.3578C154.684 37.2744 154.183 37.0971 153.703 36.826C153.245 36.534 152.859 36.096 152.546 35.512C152.233 34.928 152.077 34.125 152.077 33.103V19.0246C152.077 18.4823 152.254 18.0339 152.608 17.6793C152.984 17.3039 153.443 17.1162 153.985 17.1162ZM163.439 21.0268H170.853C171.354 21.0268 171.771 21.1937 172.105 21.5274C172.439 21.8611 172.605 22.2782 172.605 22.7788C172.605 23.2585 172.439 23.6652 172.105 23.9989C171.771 24.3118 171.354 24.4682 170.853 24.4682H163.439C162.938 24.4682 162.521 24.3014 162.187 23.9677C161.854 23.6339 161.687 23.2168 161.687 22.7162C161.687 22.2365 161.854 21.8402 162.187 21.5274C162.521 21.1937 162.938 21.0268 163.439 21.0268ZM166.786 17.1162C167.329 17.1162 167.767 17.3039 168.1 17.6793C168.455 18.0339 168.632 18.4823 168.632 19.0246V32.9466C168.632 33.2386 168.684 33.4784 168.789 33.6661C168.914 33.8538 169.07 33.9894 169.258 34.0728C169.467 34.1563 169.686 34.198 169.915 34.198C170.165 34.198 170.395 34.1563 170.603 34.0728C170.812 33.9686 171.052 33.9164 171.323 33.9164C171.615 33.9164 171.875 34.052 172.105 34.3231C172.355 34.5943 172.48 34.9697 172.48 35.4494C172.48 36.0334 172.157 36.5131 171.51 36.8885C170.885 37.2639 170.207 37.4517 169.477 37.4517C169.039 37.4517 168.549 37.4204 168.007 37.3578C167.485 37.2744 166.985 37.0971 166.505 36.826C166.046 36.534 165.66 36.096 165.347 35.512C165.034 34.928 164.878 34.125 164.878 33.103V19.0246C164.878 18.4823 165.055 18.0339 165.41 17.6793C165.785 17.3039 166.244 17.1162 166.786 17.1162ZM189.599 20.4011C190.141 20.4011 190.59 20.5784 190.944 20.933C191.299 21.2875 191.476 21.7464 191.476 22.3095V35.5433C191.476 36.0855 191.299 36.5444 190.944 36.9198C190.59 37.2744 190.141 37.4517 189.599 37.4517C189.057 37.4517 188.608 37.2744 188.254 36.9198C187.899 36.5444 187.722 36.0855 187.722 35.5433V34.0103L188.41 34.2918C188.41 34.563 188.264 34.8967 187.972 35.293C187.68 35.6684 187.284 36.0438 186.783 36.4192C186.283 36.7947 185.688 37.1179 185 37.3891C184.333 37.6394 183.603 37.7645 182.81 37.7645C181.371 37.7645 180.067 37.3995 178.899 36.6695C177.731 35.9187 176.803 34.8967 176.115 33.6036C175.448 32.2896 175.114 30.7879 175.114 29.0985C175.114 27.3882 175.448 25.8865 176.115 24.5934C176.803 23.2794 177.721 22.2574 178.868 21.5274C180.015 20.7765 181.288 20.4011 182.685 20.4011C183.582 20.4011 184.406 20.5367 185.157 20.8078C185.907 21.079 186.554 21.4231 187.096 21.8402C187.659 22.2574 188.087 22.685 188.379 23.1229C188.692 23.5401 188.848 23.8947 188.848 24.1867L187.722 24.5934V22.3095C187.722 21.7672 187.899 21.3188 188.254 20.9643C188.608 20.5888 189.057 20.4011 189.599 20.4011ZM183.279 34.3231C184.197 34.3231 185 34.0937 185.688 33.6348C186.377 33.176 186.909 32.5503 187.284 31.7577C187.68 30.9652 187.878 30.0787 187.878 29.0985C187.878 28.0973 187.68 27.2005 187.284 26.4079C186.909 25.6154 186.377 24.9896 185.688 24.5308C185 24.0719 184.197 23.8425 183.279 23.8425C182.383 23.8425 181.59 24.0719 180.902 24.5308C180.213 24.9896 179.671 25.6154 179.275 26.4079C178.899 27.2005 178.712 28.0973 178.712 29.0985C178.712 30.0787 178.899 30.9652 179.275 31.7577C179.671 32.5503 180.213 33.176 180.902 33.6348C181.59 34.0937 182.383 34.3231 183.279 34.3231Z" fill="black"/>
</g>
</svg>
