<svg width="218" height="52" viewBox="0 0 218 52" fill="none" xmlns="http://www.w3.org/2000/svg">
<path d="M152.195 16.0259C152.195 14.8799 151.484 14.2043 150.119 14.2043H130.776C129.412 14.2043 128.699 14.8799 128.699 16.0259V17.7886L150.178 17.7595C151.513 17.7595 152.225 17.142 152.195 16.0259Z" fill="#0B8DCA"/>
<path d="M195.092 17.0546C195.507 17.0546 195.715 16.8485 195.715 16.5552C195.715 16.2319 195.478 16.0557 195.092 16.0557H194.321V17.0546H195.092ZM193.757 15.5263H195.152C195.834 15.5263 196.338 15.8496 196.338 16.4962C196.367 16.9366 196.041 17.3189 195.626 17.4369L196.456 18.612H195.745L195.003 17.5541H194.35V18.612H193.757V15.5263ZM197.643 17.1136C197.673 15.6152 196.487 14.4102 194.974 14.3811C193.49 14.3512 192.244 15.5263 192.215 17.0255V17.1427V17.1718C192.184 18.6411 193.371 19.8752 194.885 19.9043C196.367 19.9342 197.614 18.7591 197.643 17.2607V17.1136ZM191.888 17.1427C191.858 15.4681 193.193 14.0578 194.885 14.0279C196.576 13.9988 197.969 15.321 198 16.9956V17.1136V17.1427C198.029 18.8173 196.694 20.1985 195.003 20.2276C193.312 20.2575 191.918 18.9353 191.888 17.2599V17.1427ZM189.189 35.5355V15.7033C189.189 14.7044 188.358 13.9108 187.349 13.9399H187.26C186.281 13.8518 185.42 14.5864 185.331 15.5562V15.7033V31.775L166.197 15.8795C164.891 14.7925 164.15 13.9698 162.903 13.9698C161.539 13.9698 160.619 14.8806 160.619 16.5842V36.064C160.619 37.063 161.45 37.8566 162.459 37.8275H162.548C163.527 37.9156 164.387 37.181 164.476 36.2111V36.064V19.64L183.403 35.7408C184.679 36.7987 185.539 37.7976 186.874 37.7976C188.121 37.8275 189.159 36.8868 189.218 35.6236C189.189 35.5945 189.189 35.5646 189.189 35.5355ZM128.698 24.1651V35.7117C128.698 36.9167 129.41 37.4743 130.775 37.4743H150.296C151.631 37.4743 152.342 36.9167 152.342 35.7117C152.342 34.5657 151.631 33.949 150.296 33.949H133.475C132.822 33.949 132.555 33.6548 132.555 33.0382V27.7203H145.282C146.646 27.7203 147.359 27.1028 147.359 25.9568C147.359 24.8407 146.646 24.1942 145.282 24.1942L128.698 24.1651ZM114.459 19.8162V36.035C114.459 37.0048 115.259 37.7976 116.238 37.7976H116.387C117.336 37.8857 118.226 37.2101 118.315 36.2402V36.035V16.5552C118.404 15.174 117.336 14.0279 115.941 13.9399H115.852C114.517 13.9399 113.924 14.6745 112.649 15.8496L102.77 25.4873L92.8908 15.9086C91.6153 14.6163 90.6663 13.9399 89.5385 13.9399C88.1439 14.0578 87.0765 15.174 87.0463 16.5552V36.035C87.0463 37.0048 87.8477 37.7976 88.8269 37.7976H88.9746C89.9245 37.8857 90.814 37.2101 90.9029 36.2402V36.035V19.758H91.111L100.515 28.6012C101.375 29.424 102.028 30.0705 102.71 30.0705C103.571 30.0705 104.016 29.3949 104.935 28.6012L114.31 19.8162H114.459ZM52.8707 28.7192V15.7033C52.7818 14.6454 51.8621 13.8518 50.7939 13.9399C49.8449 14.0279 49.1031 14.7626 49.0142 15.7033V29.0716C49.0142 37.181 54.0875 38.0918 62.8982 38.0918C71.709 38.0918 76.7822 37.181 76.7822 29.0716V15.7033C76.6933 14.6454 75.7736 13.8518 74.7054 13.9399C73.7564 14.0279 73.0146 14.7626 72.9257 15.7033V28.7192C72.9257 35.3294 69.3653 34.4186 62.8982 34.4186C56.4311 34.4186 52.8707 35.2122 52.8707 28.7192ZM20 15.6734V35.7117C20 36.9167 20.7124 37.4743 22.0768 37.4743H41.212C42.5471 37.4743 43.2889 36.9167 43.2889 35.7117C43.2889 34.5657 42.5169 33.949 41.212 33.949H24.7763C24.1242 33.949 23.8566 33.6548 23.8566 33.0382V15.6734C23.8566 14.7044 23.0561 13.9108 22.0768 13.9108H21.9283C20.9197 13.8518 20.0596 14.5864 20 15.5853V15.6734Z" fill="black"/>
</svg>
