<svg width="196" height="52" viewBox="0 0 196 52" fill="none" xmlns="http://www.w3.org/2000/svg">
<path d="M20 14.4834H23.1323V37.4292H20V14.4834Z" fill="black"/>
<path d="M43.7634 14.4367H39.5214L29.0671 24.4277H25.0156V27.6377H29.2665L39.5214 37.437H43.7625L32.0009 26.1932V25.6737L43.7634 14.4367Z" fill="black"/>
<path d="M85.141 14.389H73.2852V17.5864H85.141C89.7818 17.6564 93.4856 21.4394 93.4149 26.0356C93.3461 30.5325 89.6816 34.1618 85.141 34.2308H76.4173V21.0513H73.2852V37.4292H85.141C91.5635 37.2629 96.6345 31.9722 96.4675 25.6115C96.3074 19.4832 91.3297 14.5515 85.141 14.3919V14.389Z" fill="black"/>
<path d="M111.524 14.389H99.668V17.5864H111.524C116.165 17.6564 119.868 21.4394 119.798 26.0356C119.729 30.5325 116.064 34.1618 111.524 34.2308H102.8V21.0513H99.668V37.4292H111.524C117.946 37.2629 123.017 31.9722 122.85 25.6115C122.69 19.4823 117.713 14.5515 111.524 14.3919V14.389Z" fill="black"/>
<path d="M126.898 14.5801H126.176V27.4873H139.141V24.3318H129.357V17.7347H149.543V14.5791H126.896L126.898 14.5801Z" fill="black"/>
<path d="M129.355 29.8813H126.172V37.6729H149.548V34.5173H129.356L129.355 29.8813Z" fill="black"/>
<path d="M155.668 14.4857H151.379L161.066 25.8365L151.09 37.5269H155.379L163.21 28.3501L171.041 37.5269H175.33L155.668 14.4857Z" fill="black"/>
<path d="M175.044 14.4845H170.755L163.867 22.5524L166.012 25.0649L175.044 14.4845Z" fill="black"/>
<path d="M66.8802 34.6161H53.8359V37.437H71.6674" fill="#FEA813"/>
<path d="M56.75 14.3749L60.1483 14.3272L60.1208 14.3817L71.6634 37.418L66.8763 34.597L58.4364 17.7435L56.75 14.3749Z" fill="#32FFFF"/>
<path d="M60.1233 14.3846L60.1508 14.3301H56.7289L56.7525 14.3778L45.2109 37.4141H48.5847L58.4389 17.7483L60.1233 14.3846Z" fill="#F304FF"/>
</svg>
