<svg width="121" height="52" viewBox="0 0 121 52" fill="none" xmlns="http://www.w3.org/2000/svg">
<path fill-rule="evenodd" clip-rule="evenodd" d="M65.2228 20.1341V17.0355H56.4535C55.2294 17.0061 54.0103 17.1895 52.8508 17.5765C52.3827 17.7465 51.9325 17.9627 51.5086 18.2227C50.7525 18.6896 50.1222 19.3307 49.6711 20.0921C49.446 20.4715 49.2642 20.8753 49.1317 21.2952C48.8378 22.2417 48.6951 23.2277 48.7078 24.2179V38.1166H51.8382V29.4972H65.0987V26.5913H51.8254V24.1691C51.8254 23.9024 51.8458 23.6357 51.8866 23.3715C51.9206 23.1183 51.975 22.8684 52.0497 22.6236C52.2128 22.1323 52.4974 21.6881 52.8763 21.3322C53.0818 21.1362 53.3121 20.9662 53.561 20.8282C53.8328 20.6768 54.1199 20.5523 54.4172 20.4589C55.1588 20.2301 55.9327 20.1207 56.7092 20.1358L65.2228 20.1341ZM70.4956 38.1098H73.637V17.0229H70.5015L70.4956 38.1098ZM98.5364 19.6285C96.9028 17.9004 94.5259 17.0389 91.4066 17.0456H88.4156C87.0088 17.0154 85.608 17.2341 84.2794 17.6909C83.1462 18.0956 82.1242 18.7594 81.2994 19.6285C79.6582 21.3574 78.8376 24.0202 78.8376 27.6177C78.8376 31.2152 79.6582 33.8586 81.2994 35.5489C82.1285 36.4129 83.1521 37.0708 84.2862 37.4704C85.6156 37.9239 87.0156 38.1426 88.4224 38.1166H91.4066C92.8125 38.1426 94.2125 37.9239 95.5411 37.4704C96.676 37.0716 97.7005 36.4137 98.5296 35.5489C99.3918 34.6242 100.023 33.5129 100.374 32.3039C100.816 30.7819 101.025 29.2044 100.997 27.6211C101.028 26.0284 100.82 24.44 100.38 22.908C100.03 21.6897 99.4012 20.5683 98.5432 19.6285H98.5364ZM85.5383 20.5784C86.4643 20.2654 87.4395 20.1148 88.419 20.1341H91.4066C92.3844 20.1139 93.3579 20.2645 94.283 20.5784C95.0688 20.8451 95.7679 21.3154 96.3073 21.9413C96.8603 22.6245 97.2503 23.422 97.449 24.276C97.7158 25.3604 97.8407 26.4743 97.822 27.5908C97.8466 28.7064 97.726 29.8203 97.4618 30.9056C97.2579 31.7587 96.8603 32.5537 96.2997 33.2318C95.2591 34.4164 93.6323 35.0112 91.4168 35.018H88.4317C87.4497 35.0382 86.4702 34.8918 85.5383 34.5847C84.7534 34.3239 84.0517 33.8628 83.503 33.2478C82.9499 32.5731 82.5592 31.7814 82.3621 30.9342C82.0945 29.8514 81.9679 28.7392 81.9875 27.6244C81.9875 25.0281 82.5006 23.1335 83.5276 21.9396C84.0704 21.3162 84.7695 20.8467 85.5545 20.5784H85.5383Z" fill="black"/>
<path d="M20 26.8617V39.5429C20.0178 40.2564 20.3814 40.9176 20.9778 41.3189L28.3896 45.3447C28.929 45.6349 29.3673 45.3051 29.3673 44.6161V31.6463L20.344 27.0897C20.2234 27.0232 20.1079 26.9475 20 26.8617Z" fill="#415CC7"/>
<path d="M20.5284 25.4839C20.632 25.4814 20.734 25.4553 20.8249 25.4065L31.1385 20.1701L20.8155 14.9303C20.7212 14.8799 20.6159 14.8521 20.5088 14.8496C20.2693 14.8496 20.0849 15.0111 20.0195 15.3182C20 15.5672 20 15.8768 20 16.2882V24.7688C20.0051 24.8807 20.0212 24.9926 20.0493 25.1011C20.1028 25.3215 20.299 25.4788 20.5284 25.4839Z" fill="#009EDD"/>
<path d="M35.7069 6.6307L21.9944 13.596C21.5034 13.8257 21.026 14.084 20.5664 14.3692C20.7338 14.3784 20.8969 14.423 21.0455 14.5004L31.3609 19.7402L31.6735 19.9009L35.7069 17.8523C36.203 17.5401 36.5088 17.0034 36.5215 16.422V7.23645C36.5232 6.66603 36.1554 6.40438 35.7069 6.6307Z" fill="#005BB8"/>
<path d="M35.7096 22.4923H35.6952L31.7382 20.4722C31.7 20.4529 31.6541 20.4529 31.6159 20.4722L31.3636 20.6018L21.0482 25.8382C20.9013 25.9139 20.7399 25.9577 20.5742 25.9669C20.649 26.0342 20.7297 26.0956 20.8155 26.1512H20.8299L35.7028 33.7054C36.1513 33.9334 36.5183 33.6659 36.5183 33.0971V23.9225C36.5056 23.3428 36.2023 22.8069 35.7096 22.4923Z" fill="#3CB4E6"/>
</svg>
