<svg width="216" height="52" viewBox="0 0 216 52" fill="none" xmlns="http://www.w3.org/2000/svg">
<path d="M62.6011 15.2314C62.6011 9.44821 57.8457 4.72852 52.0185 4.72852C49.0045 4.72852 46.2583 5.99148 44.3829 7.98574L20.4714 22.9424C20.0025 23.2083 19.8687 23.8731 20.1366 24.3384C20.3375 24.6708 20.6724 24.8037 21.0073 24.8037C21.2081 24.8037 21.3422 24.7372 21.5431 24.6708L41.9717 11.8413C41.5698 12.9048 41.3688 14.0349 41.3688 15.2979C41.3688 17.9568 42.3735 20.35 43.981 22.2112L27.9061 38.0984C27.5042 38.4973 27.5042 39.0956 27.9061 39.4944C28.107 39.6938 28.3749 39.7603 28.6428 39.7603C28.9108 39.7603 29.1787 39.6938 29.3797 39.4944L45.4546 23.6072C47.2629 25.003 49.5402 25.8672 51.9516 25.8672C53.3581 25.8672 54.6976 25.6013 55.9033 25.136L43.1103 45.743C42.8423 46.2083 42.9763 46.8066 43.4452 47.1389C43.5792 47.2718 43.78 47.2718 43.981 47.2718C44.3159 47.2718 44.6508 47.0724 44.8517 46.8066L60.2569 21.8788C61.7305 20.0176 62.6011 17.7574 62.6011 15.2314ZM46.9281 22.1447L51.6166 17.558C52.0185 17.1591 52.0185 16.5608 51.6166 16.1621C51.2147 15.7632 50.612 15.7632 50.2101 16.1621L45.4546 20.8152C44.1819 19.3528 43.3782 17.425 43.3782 15.2979C43.4452 10.5782 47.2629 6.72277 52.0185 6.72277C56.774 6.72277 60.5918 10.5782 60.5918 15.2314C60.5918 19.9511 56.707 23.7401 52.0185 23.7401C50.1431 23.8066 48.3346 23.1418 46.9281 22.1447Z" fill="#25B7EB"/>
<path d="M52.0171 8.31787C48.1324 8.31787 44.9844 11.4421 44.9844 15.2976C44.9844 15.8294 45.4532 16.2947 45.9891 16.2947C46.5249 16.2947 46.9938 15.8294 46.9938 15.2976C46.9938 12.5722 49.204 10.312 52.0171 10.312C52.553 10.312 53.0219 9.84673 53.0219 9.31494C53.0219 8.78316 52.553 8.31787 52.0171 8.31787Z" fill="#25B7EB"/>
<path d="M74.0551 37.6194C79.0644 37.6194 81.569 35.7344 81.569 31.9642C81.569 28.4632 79.5029 26.7128 75.3707 26.7128H72.8751C70.488 26.7128 69.2945 25.6804 69.2945 23.6158C69.2945 21.282 71.0576 20.115 74.5839 20.115C76.8445 20.115 78.9468 20.474 80.8907 21.1922V18.9032C78.9468 18.3644 76.8445 18.0952 74.5839 18.0952C69.3847 18.0952 66.7852 19.9354 66.7852 23.6158C66.7852 27.1168 68.8151 28.8672 72.8751 28.8672H75.3707C77.83 28.8672 79.0599 29.8996 79.0599 31.9642C79.0599 34.3878 77.3915 35.5996 74.0551 35.5996C71.6951 35.5996 69.4979 35.2406 67.4634 34.5224V36.8116C69.4979 37.3502 71.6951 37.6194 74.0551 37.6194ZM89.354 37.4848L93.2331 26.9148L97.3157 37.4848H99.6078L103.324 23.3466H100.666L98.3871 34.4283L94.4267 23.3466H92.1616L88.4589 34.4283L85.9362 23.3466H83.4L87.0077 37.4848H89.354ZM117.158 37.4848V27.7362C117.158 24.8097 115.042 23.3466 110.811 23.3466C109.346 23.3466 107.845 23.571 106.308 24.0198V26.0396C107.845 25.5908 109.346 25.3664 110.811 25.3664C113.37 25.3664 114.649 26.1787 114.649 27.8034V29.1364C113.41 28.957 112.172 28.8672 110.933 28.8672C107.081 28.8672 105.155 30.3168 105.155 33.2163C105.155 36.062 106.85 37.4848 110.241 37.4848C111.914 37.4848 113.46 37.018 114.88 36.0844L115.748 37.4848H117.158ZM110.241 35.465C108.523 35.465 107.664 34.702 107.664 33.176C107.664 31.65 108.754 30.887 110.933 30.887C112.172 30.887 113.41 30.9768 114.649 31.1562V34.0915C113.447 35.0072 111.977 35.465 110.241 35.465ZM123.736 42.6015V36.8116C124.803 37.2604 125.906 37.4848 127.046 37.4848C131.639 37.4848 133.936 35.0117 133.936 30.0656C133.936 25.5863 131.653 23.3466 127.086 23.3466C125.07 23.3466 123.117 23.5396 121.227 23.9255V42.6015H123.736ZM127.032 35.3304C125.821 35.3304 124.722 35.088 123.736 34.6032V25.7433C124.686 25.5279 125.793 25.4202 127.059 25.4202C129.998 25.4202 131.467 26.9596 131.467 30.0387C131.467 33.5665 129.989 35.3304 127.032 35.3304ZM147.77 37.4848V35.5996H139.537L148.041 25.3664V23.3466H136.92V25.3664H145.261L136.648 35.5996V37.4848H147.77ZM157.536 37.4713C162.057 37.4713 164.317 35.1194 164.317 30.4156C164.317 25.703 162.057 23.3466 157.536 23.3466C153.015 23.3466 150.754 25.703 150.754 30.4156C150.772 35.1194 153.033 37.4713 157.536 37.4713ZM157.536 35.465C154.687 35.465 153.264 33.7639 153.264 30.3618C153.264 27.0315 154.687 25.3664 157.536 25.3664C160.383 25.3664 161.808 27.0315 161.808 30.3618C161.808 33.7639 160.383 35.465 157.536 35.465ZM170.216 37.4848V27.2111C171.51 26.0172 172.876 25.4202 174.313 25.4202C176.419 25.4202 177.473 26.4705 177.473 28.5709V37.4848H179.982V28.6114C179.982 25.1015 178.206 23.3466 174.652 23.3466C172.907 23.3466 171.307 23.9479 169.85 25.1509L169.404 23.3466H167.708V37.4848H170.216ZM190.711 37.4848C192.511 37.4848 194.039 37.3052 195.296 36.9462V34.9264C194.039 35.2856 192.601 35.465 190.981 35.465C187.582 35.465 185.883 34.0198 185.883 31.1293H195.879C195.96 30.483 196 29.877 196 29.3115C196 25.3348 193.974 23.3466 189.924 23.3466C185.556 23.3466 183.374 25.649 183.374 30.2541C183.374 35.0746 185.818 37.4848 190.711 37.4848ZM193.585 29.0557H185.883C186.046 26.5782 187.393 25.3393 189.924 25.3393C192.311 25.3393 193.532 26.5782 193.585 29.0557Z" fill="#E8168D"/>
</svg>
