<svg width="132" height="52" viewBox="0 0 132 52" fill="none" xmlns="http://www.w3.org/2000/svg">
<g clip-path="url(#clip0_805_1196)">
<path d="M55.8828 46.2418L57.4368 44.6888C57.7699 45.0796 58.1845 45.3927 58.6516 45.6061C59.1187 45.8195 59.6268 45.9279 60.1403 45.9238C61.2853 45.9238 61.8393 45.4058 61.8393 44.6288C61.8393 44.0413 61.5803 43.6088 60.5883 43.4693L59.5213 43.3293C57.2503 43.0368 56.2143 41.9238 56.2143 40.1168C56.2143 38.1858 57.7293 36.8418 60.2623 36.8418C61.8858 36.8418 63.1108 37.3828 64.0018 38.3568L62.4478 39.9328C62.1663 39.5921 61.8087 39.3222 61.4038 39.1451C60.9989 38.9679 60.5581 38.8883 60.1168 38.9128C59.0658 38.9128 58.5633 39.3143 58.5633 39.9643C58.5633 40.7043 58.9493 40.9843 59.8583 41.1243L60.9248 41.2943C63.1343 41.6493 64.2013 42.6383 64.2013 44.4918C64.2013 46.5628 62.6863 47.9998 59.9978 47.9998C58.0918 47.9868 56.8128 47.2598 55.8828 46.2418ZM68.3078 47.8003C66.7308 47.8003 65.8973 46.9823 65.8973 45.4368V41.4683H64.7523V39.6923H65.3248C65.9438 39.6923 66.1278 39.3843 66.1278 38.8273V37.4998H68.1838V39.6928H69.7923V41.4688H68.1838V46.0248H69.6678V47.8008L68.3078 47.8003ZM70.8438 47.8003V39.6898H73.1278V41.4498H73.2058C73.3923 40.5548 74.0083 39.6898 75.2773 39.6898H75.6788V41.8203H75.1063C73.7778 41.8203 73.1278 42.1128 73.1278 43.0553V47.7978L70.8438 47.8003ZM76.1133 43.7388C76.1133 41.1733 77.4728 39.5058 79.9148 39.5058C82.6033 39.5058 83.6858 41.4528 83.6858 43.6478V44.3288H78.4778V44.4533C78.4778 45.5198 79.0498 46.1983 80.2698 46.1983C81.2278 46.1983 81.7538 45.7503 82.2638 45.2248L83.4088 46.6458C82.6833 47.4793 81.4923 47.9893 80.0083 47.9893C77.5298 47.9868 76.1133 46.3328 76.1133 43.7388ZM78.4778 42.8588V42.9828H81.3263V42.8328C81.3263 41.8438 80.8783 41.1783 79.9668 41.1783C79.0553 41.1783 78.4778 41.8543 78.4778 42.8588ZM90.9193 47.8003C90.1008 47.8003 89.5133 47.2438 89.3658 46.3793H89.2723C89.0133 47.4303 88.1278 47.9868 86.8923 47.9868C85.2688 47.9868 84.3728 47.0288 84.3728 45.6233C84.3728 43.9093 85.7013 43.0888 87.8508 43.0888H89.1453V42.5713C89.1453 41.7943 88.7598 41.2763 87.8013 41.2763C87.4521 41.2701 87.1074 41.3553 86.8012 41.5233C86.4951 41.6913 86.2381 41.9364 86.0558 42.2343L84.6963 41.0308C85.3463 40.0728 86.2733 39.4773 87.9723 39.4773C90.2588 39.4773 91.4348 40.5283 91.4348 42.4443V45.9988H92.1908V47.7748L90.9193 47.8003ZM89.1428 45.3438V44.3858H88.0293C87.1488 44.3858 86.6853 44.7093 86.6853 45.2973V45.5303C86.6853 46.1178 87.0713 46.3948 87.7523 46.3948C88.5083 46.3948 89.1403 46.0868 89.1403 45.3463L89.1428 45.3438ZM93.1748 47.8003V39.6898H95.4613V41.0643H95.5548C95.6913 40.5988 95.9802 40.1926 96.3751 39.9109C96.7701 39.6292 97.2482 39.4883 97.7328 39.5108C98.2411 39.4862 98.7426 39.635 99.1552 39.9328C99.5678 40.2305 99.8671 40.6597 100.004 41.1498H100.061C100.353 40.2383 101.296 39.5108 102.534 39.5108C104.088 39.5108 104.961 40.6863 104.961 42.7238V47.8058H102.651V42.9048C102.651 41.8538 102.296 41.3518 101.537 41.3518C100.856 41.3518 100.193 41.7373 100.193 42.5398V47.7928H97.9063V42.9048C97.9063 41.8538 97.5358 41.3518 96.7928 41.3518C96.1273 41.3518 95.4488 41.7373 95.4488 42.5398V47.7928L93.1748 47.8003ZM106.294 47.8003V39.6898H108.581V41.4498H108.659C108.845 40.5548 109.462 39.6898 110.731 39.6898H111.132V41.8203H110.56C109.231 41.8203 108.581 42.1128 108.581 43.0553V47.7978L106.294 47.8003Z" fill="#0D009A"/>
<path d="M47.4905 6.03266V4.77716C47.4907 4.6724 47.4698 4.56868 47.4288 4.47224C47.3879 4.3758 47.3279 4.28864 47.2524 4.216C47.1769 4.14336 47.0875 4.08674 46.9896 4.04957C46.8916 4.01239 46.7872 3.99541 46.6825 3.99966C38.186 4.41966 31.4125 11.2482 31.0635 19.7447C31.0629 19.8359 31.081 19.9263 31.1166 20.0104C31.1522 20.0944 31.2045 20.1703 31.2705 20.2333C31.3365 20.2964 31.4146 20.3453 31.5002 20.3771C31.5857 20.4089 31.6769 20.4229 31.768 20.4182H33.063C33.463 20.4217 33.7955 20.1127 33.8215 19.7137C34.1885 12.7112 39.786 7.11566 46.7915 6.74866C47.3245 6.68166 47.4955 6.38916 47.4955 6.03466L47.4905 6.03266ZM35.948 20.4317H37.1755C37.3652 20.4322 37.5481 20.361 37.6874 20.2322C37.8267 20.1035 37.9121 19.9268 37.9265 19.7377C38.2665 14.9652 42.0775 11.1757 46.853 10.8607C47.228 10.8342 47.5125 10.5107 47.4905 10.1357V8.88566C47.4883 8.78176 47.4653 8.67936 47.4228 8.58453C47.3802 8.4897 47.3191 8.40436 47.243 8.33358C47.1669 8.2628 47.0774 8.20802 46.9798 8.17247C46.8821 8.13693 46.7783 8.12135 46.6745 8.12666C40.505 8.53516 35.591 13.4462 35.1815 19.6137C35.1763 19.7173 35.192 19.821 35.2276 19.9185C35.2632 20.016 35.3179 20.1054 35.3886 20.1814C35.4593 20.2573 35.5446 20.3184 35.6393 20.3609C35.734 20.4033 35.8362 20.4264 35.94 20.4287L35.948 20.4317ZM47.4905 13.0092V14.2652C47.4889 14.4465 47.4203 14.6209 47.2979 14.7547C47.1755 14.8885 47.008 14.9724 46.8275 14.9902C45.6154 15.1383 44.4874 15.6869 43.6224 16.5487C42.7573 17.4106 42.2046 18.5366 42.052 19.7482C42.0288 19.9336 41.9396 20.1045 41.8006 20.2295C41.6617 20.3545 41.4824 20.4252 41.2955 20.4287H40.2105C39.6205 20.4287 39.2655 20.0457 39.3095 19.6032C39.5007 17.7175 40.3374 15.9558 41.6779 14.616C43.0185 13.2763 44.7808 12.4407 46.6665 12.2507C46.7715 12.2416 46.8772 12.2546 46.9768 12.2886C47.0765 12.3227 47.168 12.3771 47.2456 12.4484C47.3231 12.5198 47.3849 12.6065 47.427 12.703C47.4692 12.7996 47.4908 12.9038 47.4905 13.0092ZM61.8835 31.3512C61.5285 31.3512 61.236 31.1802 61.1685 30.6472C60.8065 23.6357 55.2005 18.0322 48.1865 17.6722C47.9943 17.6596 47.8142 17.574 47.6832 17.4329C47.5522 17.2917 47.4802 17.1057 47.482 16.9132V15.6187C47.4774 15.5276 47.4914 15.4365 47.5232 15.351C47.555 15.2655 47.604 15.1874 47.667 15.1215C47.7301 15.0556 47.8059 15.0032 47.8899 14.9677C47.9739 14.9321 48.0643 14.9141 48.1555 14.9147C56.656 15.2622 63.4885 22.0337 63.9085 30.5277C63.9131 30.6312 63.8969 30.7345 63.8609 30.8317C63.8248 30.9288 63.7698 31.0178 63.6988 31.0933C63.6279 31.1688 63.5426 31.2294 63.4479 31.2715C63.3532 31.3135 63.2511 31.3362 63.1475 31.3382L61.8835 31.3512ZM47.4905 19.8077C47.4928 19.7036 47.5159 19.6011 47.5586 19.5062C47.6012 19.4113 47.6626 19.3259 47.7389 19.2552C47.8152 19.1844 47.9049 19.1297 48.0028 19.0943C48.1006 19.0589 48.2046 19.0436 48.3085 19.0492C54.476 19.4582 59.3885 24.3677 59.799 30.5332C59.8046 30.6371 59.7892 30.741 59.7539 30.8389C59.7185 30.9368 59.6638 31.0265 59.593 31.1028C59.5223 31.1791 59.4369 31.2404 59.342 31.2831C59.2471 31.3257 59.1445 31.3489 59.0405 31.3512H57.7895C57.6995 31.3564 57.6094 31.3439 57.5243 31.3144C57.4392 31.2848 57.3607 31.2388 57.2934 31.1789C57.2261 31.119 57.1712 31.0464 57.1319 30.9653C57.0926 30.8842 57.0697 30.7961 57.0645 30.7062C56.747 25.9352 52.958 22.1292 48.187 21.7882C47.9979 21.7738 47.8212 21.6883 47.6925 21.549C47.5637 21.4097 47.4925 21.2268 47.493 21.0372L47.4905 19.8077ZM54.9125 31.3487H53.6535C53.4722 31.3471 53.2978 31.2785 53.164 31.1561C53.0301 31.0337 52.9463 30.8662 52.9285 30.6857C52.7797 29.4732 52.2303 28.3451 51.3674 27.4803C50.5046 26.6156 49.3777 26.0637 48.1655 25.9122C47.98 25.8892 47.809 25.8001 47.6839 25.6612C47.5588 25.5224 47.488 25.343 47.4845 25.1562V23.9342C47.4841 23.8286 47.5057 23.7241 47.548 23.6274C47.5902 23.5307 47.6522 23.4439 47.73 23.3725C47.8077 23.3011 47.8995 23.2467 47.9995 23.2128C48.0994 23.1789 48.2054 23.1663 48.3105 23.1757C50.1964 23.3655 51.9588 24.2009 53.2995 25.5406C54.6403 26.8803 55.4772 28.642 55.6685 30.5277C55.6775 30.6326 55.6646 30.7383 55.6306 30.8379C55.5965 30.9376 55.5421 31.0291 55.4707 31.1065C55.3994 31.184 55.3126 31.2458 55.2161 31.2879C55.1196 31.33 55.0153 31.3515 54.91 31.3512L54.9125 31.3487ZM22.1315 20.4262C22.4865 20.4262 22.779 20.5972 22.8465 21.1307C23.209 28.1447 28.8195 33.7487 35.8365 34.1057C36.0286 34.1182 36.2086 34.2037 36.3396 34.3448C36.4706 34.4858 36.5427 34.6717 36.541 34.8642V36.1587C36.5456 36.2498 36.5316 36.3408 36.4998 36.4263C36.468 36.5118 36.4191 36.5899 36.356 36.6558C36.2929 36.7218 36.2171 36.7741 36.1331 36.8097C36.0491 36.8452 35.9587 36.8633 35.8675 36.8627C27.367 36.5157 20.5345 29.7447 20.114 21.2497C20.1095 21.1462 20.1258 21.0428 20.1619 20.9457C20.1979 20.8486 20.2531 20.7596 20.324 20.6842C20.395 20.6087 20.4803 20.5482 20.5751 20.5062C20.6698 20.4642 20.7719 20.4416 20.8755 20.4397L22.1315 20.4262ZM36.5335 31.9597C36.5312 32.0637 36.5081 32.1662 36.4654 32.2611C36.4228 32.356 36.3615 32.4414 36.2852 32.5122C36.2089 32.5829 36.1191 32.6376 36.0213 32.673C35.9234 32.7084 35.8194 32.7237 35.7155 32.7182C29.5515 32.3082 24.6415 27.4032 24.227 21.2417C24.2214 21.1377 24.2368 21.0337 24.2722 20.9358C24.3076 20.8379 24.3624 20.7481 24.4332 20.6718C24.504 20.5955 24.5894 20.5342 24.6844 20.4916C24.7794 20.449 24.8819 20.4259 24.986 20.4237H26.237C26.4187 20.4131 26.5971 20.4752 26.733 20.5961C26.8689 20.7171 26.9513 20.887 26.962 21.0687C27.278 25.8397 31.066 29.6472 35.837 29.9897C36.2295 30.0197 36.532 30.3467 36.531 30.7402L36.5335 31.9597ZM29.1035 20.4262H30.3595C30.5409 20.4278 30.7152 20.4963 30.8491 20.6187C30.9829 20.7411 31.0668 20.9087 31.0845 21.0892C31.2333 22.3017 31.7828 23.4298 32.6456 24.2945C33.5085 25.1593 34.6353 25.7112 35.8475 25.8627C36.231 25.9107 36.521 26.2327 36.5285 26.6187V27.8437C36.5277 27.948 36.5053 28.0511 36.4629 28.1465C36.4204 28.2418 36.3587 28.3274 36.2816 28.3978C36.2045 28.4682 36.1138 28.5219 36.015 28.5556C35.9162 28.5893 35.8115 28.6023 35.7075 28.5937C33.8217 28.4038 32.0595 27.5683 30.7188 26.2286C29.3781 24.8889 28.5413 23.1273 28.35 21.2417C28.3423 21.1378 28.356 21.0335 28.3903 20.9352C28.4246 20.8369 28.4788 20.7467 28.5495 20.6702C28.6201 20.5938 28.7058 20.5327 28.8011 20.4908C28.8965 20.4489 28.9994 20.4266 29.1035 20.4262ZM36.531 45.7787C36.531 45.4237 36.702 45.1312 37.2355 45.0637C44.2495 44.7037 49.8555 39.1002 50.218 32.0887C50.2306 31.8967 50.3163 31.7168 50.4573 31.5859C50.5983 31.455 50.7841 31.383 50.9765 31.3847H52.2715C52.3626 31.3801 52.4536 31.3942 52.5391 31.426C52.6245 31.4578 52.7026 31.5067 52.7685 31.5696C52.8344 31.6326 52.8868 31.7084 52.9225 31.7923C52.9582 31.8762 52.9764 31.9665 52.976 32.0577C52.627 40.5557 45.852 47.3842 37.3545 47.8027C37.2511 47.8072 37.1478 47.7909 37.0507 47.7549C36.9536 47.7189 36.8647 47.6639 36.7892 47.593C36.7137 47.5222 36.6531 47.4369 36.611 47.3423C36.5689 47.2477 36.5461 47.1457 36.544 47.0422L36.531 45.7787ZM48.0785 31.3822C48.1826 31.3844 48.2851 31.4076 48.38 31.4502C48.475 31.4929 48.5604 31.5542 48.6312 31.6305C48.702 31.7068 48.7567 31.7965 48.7922 31.8944C48.8276 31.9922 48.843 32.0962 48.8375 32.2002C48.4265 38.3652 43.5145 43.2752 37.347 43.6842C37.2431 43.6898 37.1391 43.6744 37.0412 43.639C36.9433 43.6036 36.8535 43.5489 36.7772 43.4782C36.7008 43.4075 36.6395 43.3221 36.5968 43.2272C36.5541 43.1323 36.5308 43.0297 36.5285 42.9257V41.6757C36.5232 41.5857 36.5357 41.4956 36.5653 41.4105C36.5949 41.3253 36.6409 41.2469 36.7008 41.1795C36.7607 41.1122 36.8333 41.0573 36.9144 41.0181C36.9955 40.9788 37.0835 40.9559 37.1735 40.9507C41.946 40.6347 45.755 36.8482 46.0975 32.0787C46.1275 31.6862 46.455 31.3837 46.8485 31.3847L48.0785 31.3822ZM36.536 38.8022V37.5462C36.5376 37.3648 36.6062 37.1905 36.7286 37.0566C36.851 36.9228 37.0185 36.8389 37.199 36.8212C38.4111 36.673 39.5391 36.1245 40.4042 35.2626C41.2692 34.4007 41.8219 33.2747 41.9745 32.0632C41.9976 31.8776 42.0868 31.7066 42.2257 31.5815C42.3647 31.4565 42.5441 31.3857 42.731 31.3822H43.816C44.406 31.3822 44.761 31.7652 44.717 32.2082C44.5256 34.0938 43.6887 35.8554 42.3479 37.195C41.0071 38.5345 39.2448 39.3699 37.359 39.5597C37.2541 39.5686 37.1485 39.5556 37.0488 39.5215C36.9492 39.4875 36.8578 39.433 36.7803 39.3617C36.7028 39.2903 36.6411 39.2037 36.5989 39.1072C36.5568 39.0107 36.5352 38.9065 36.5355 38.8012L36.536 38.8022ZM36.536 45.7787C36.536 45.4237 36.707 45.1312 37.241 45.0637C44.2545 44.7037 49.861 39.1002 50.223 32.0887C50.2356 31.8967 50.3213 31.7168 50.4623 31.5859C50.6033 31.455 50.7891 31.383 50.9815 31.3847H52.2765C52.3676 31.3801 52.4586 31.3942 52.5441 31.426C52.6295 31.4578 52.7076 31.5067 52.7735 31.5696C52.8394 31.6326 52.8918 31.7084 52.9275 31.7923C52.9632 31.8762 52.9814 31.9665 52.981 32.0577C52.6325 40.5557 45.8575 47.3842 37.36 47.8027C37.2565 47.8072 37.1532 47.791 37.056 47.7551C36.9589 47.7191 36.8699 47.6641 36.7944 47.5932C36.7188 47.5223 36.6582 47.4371 36.616 47.3425C36.5739 47.2478 36.5511 47.1457 36.549 47.0422L36.536 45.7787ZM48.0835 31.3822C48.1875 31.3845 48.29 31.4077 48.3849 31.4504C48.4798 31.4931 48.5651 31.5544 48.6359 31.6307C48.7066 31.7069 48.7613 31.7967 48.7967 31.8945C48.8321 31.9923 48.8475 32.0963 48.842 32.2002C48.4315 38.3652 43.519 43.2752 37.3515 43.6842C37.2476 43.6898 37.1436 43.6744 37.0457 43.639C36.9478 43.6036 36.858 43.5489 36.7817 43.4782C36.7053 43.4075 36.644 43.3221 36.6013 43.2272C36.5585 43.1323 36.5353 43.0297 36.533 42.9257V41.6757C36.5277 41.5857 36.5402 41.4956 36.5698 41.4105C36.5994 41.3253 36.6454 41.2469 36.7053 41.1795C36.7652 41.1122 36.8378 41.0573 36.9189 41.0181C37 40.9788 37.088 40.9559 37.178 40.9507C41.951 40.6347 45.7595 36.8482 46.102 32.0787C46.132 31.6862 46.4595 31.3837 46.853 31.3847L48.0835 31.3822ZM36.536 38.8022V37.5462C36.5376 37.3648 36.6062 37.1905 36.7286 37.0566C36.851 36.9228 37.018 36.8389 37.1985 36.8212C38.4106 36.673 39.5391 36.1245 40.4042 35.2626C41.2692 34.4007 41.8219 33.2747 41.9745 32.0632C41.9976 31.8776 42.0868 31.7066 42.2257 31.5815C42.3647 31.4565 42.5441 31.3857 42.731 31.3822H43.816C44.406 31.3822 44.761 31.7652 44.717 32.2082C44.5256 34.0938 43.6887 35.8554 42.3479 37.195C41.0071 38.5345 39.2448 39.3699 37.359 39.5597C37.2541 39.5686 37.1485 39.5556 37.0488 39.5215C36.9492 39.4875 36.8578 39.433 36.7803 39.3617C36.7028 39.2903 36.6411 39.2037 36.5989 39.1072C36.5568 39.0107 36.5352 38.9065 36.5355 38.8012L36.536 38.8022Z" fill="#FF5C00"/>
</g>
<defs>
<clipPath id="clip0_805_1196">
<rect width="91.5" height="44" fill="white" transform="translate(20.1133 4)"/>
</clipPath>
</defs>
</svg>
