<svg width="270" height="52" viewBox="0 0 270 52" fill="none" xmlns="http://www.w3.org/2000/svg">
<g clip-path="url(#clip0_805_1095)">
<path d="M24.9463 15.3037V20.1637H20.1523V22.8092H20.1599V27.6844H22.8104V22.8092H24.9463H27.5868H27.5943V15.3037H24.9463Z" fill="#0AA8B3"/>
<path d="M59.6977 24.6851V29.5476H54.9062V32.1906H54.9138V37.0682H57.5618V32.1906H59.6977H62.3407H62.3482V24.6851H59.6977Z" fill="#0AA8B3"/>
<path d="M29.9126 29.291V34.151H25.1211V36.794H25.1286V41.6716H27.7766V36.794H29.9126H32.553H32.563V29.291H29.9126Z" fill="#0AA8B3"/>
<path d="M54.7393 10.4019V15.2644H49.9453V17.9074H49.9528V22.785H52.6032V17.9074H54.7393H57.3797H57.3872V10.4019H54.7393Z" fill="#0AA8B3"/>
<path d="M37.7182 5.62646V10.4865H42.5122V13.132H42.5021V18.0096H39.8543V13.132H37.7182H35.0778H35.0703V5.62646H37.7182Z" fill="#0AA8B3"/>
<path d="M62.3519 22.8051H57.48V27.5901H54.8322V27.5826H49.9453V24.9396H54.8322V22.8051V20.1696V20.1621H62.3519V22.8051Z" fill="#0AA8B3"/>
<path d="M32.5589 27.6064H27.6872V32.3914H25.0392V32.3813H20.1523V29.7383H25.0392V27.6064V24.9709V24.9634H32.5589V27.6064Z" fill="#0AA8B3"/>
<path d="M42.4981 33.9907V38.8533H47.2895V41.4963H47.282V46.3738H44.634V41.4963H42.4981H39.8552H39.8477V33.9907H42.4981Z" fill="#0AA8B3"/>
<path d="M29.9258 41.5883H35.0686V46.3732H37.7192V46.3657H42.5031V43.7203H37.7192V41.5883V38.9528V38.9453H29.9258V41.5883Z" fill="#0AA8B3"/>
<path d="M45.1016 36.6362H49.9733V41.4186H52.6213V41.4111H57.6186V38.7681H52.6213V36.6362V34.0008V33.9907H45.1016V36.6362Z" fill="#0AA8B3"/>
<path d="M24.9453 13.225H29.8146V18.0099H32.4626V17.9999H37.7485V15.3569H32.4626V13.225V10.5895V10.582H24.9453V13.225Z" fill="#0AA8B3"/>
<path d="M44.6466 13.0543V8.26944H39.8477V5.62646H47.2946V5.63398V8.26944V10.4014H52.6433V13.0468" fill="#0AA8B3"/>
<path d="M32.4744 20.1587H29.8164V22.8117H32.4744V20.1587Z" fill="#0AA8B3"/>
<path d="M52.6032 29.5498H49.9453V32.2028H52.6032V29.5498Z" fill="#0AA8B3"/>
<path d="M47.3065 15.3574H44.6484V18.0104H47.3065V15.3574Z" fill="#0AA8B3"/>
<path d="M37.7282 33.9907H35.0703V36.6438H37.7282V33.9907Z" fill="#0AA8B3"/>
<path d="M79.4725 15.4556V24.6675L89.6906 15.4556H94.0079L82.4154 25.9175L94.471 36.7963H90.1537L79.4725 27.1974V36.7963H76.4102V15.4556H79.4725Z" fill="#0AA8B3"/>
<path d="M108.156 33.7455C109.58 33.7455 110.676 33.3634 111.443 32.5996C112.209 31.8355 112.593 30.7443 112.593 29.3255V22.9263C112.593 22.2318 112.493 21.6117 112.294 21.066C112.095 20.5204 111.801 20.0591 111.413 19.682C111.034 19.295 110.571 19.0024 110.023 18.804C109.476 18.6055 108.853 18.5063 108.156 18.5063H100.328V33.7455H108.156ZM97.2656 36.7963V15.4556H108.156C109.301 15.4556 110.332 15.6342 111.248 15.9913C112.175 16.3386 112.961 16.8396 113.609 17.4944C114.266 18.1393 114.769 18.9231 115.117 19.8458C115.476 20.7684 115.655 21.7953 115.655 22.9263V29.3255C115.655 30.4565 115.476 31.4833 115.117 32.406C114.769 33.3287 114.266 34.1175 113.609 34.7723C112.961 35.4171 112.175 35.9182 111.248 36.2754C110.332 36.6226 109.301 36.7963 108.156 36.7963H97.2656Z" fill="#0AA8B3"/>
<path d="M123.637 15.4556V33.7455H134.647V36.7963H120.574V15.4556H123.637Z" fill="#0AA8B3"/>
<path d="M147.804 15.4556L156.065 36.7963H153.003L151.106 31.8852H141.44L139.543 36.7963H136.48L144.742 15.4556H147.804ZM142.605 28.8344H149.925L146.28 19.429L142.605 28.8344Z" fill="#0AA8B3"/>
<path d="M159.742 15.4556H162.804V33.7455H175.039V15.4556H178.102V33.7455C178.102 34.1621 178.021 34.559 177.862 34.936C177.703 35.303 177.485 35.6256 177.206 35.9033C176.926 36.1811 176.598 36.3994 176.22 36.5582C175.851 36.7168 175.458 36.7963 175.039 36.7963H162.804C162.386 36.7963 161.988 36.7168 161.61 36.5582C161.241 36.3994 160.918 36.1811 160.638 35.9033C160.359 35.6256 160.14 35.303 159.981 34.936C159.822 34.559 159.742 34.1621 159.742 33.7455V15.4556Z" fill="#0AA8B3"/>
<path d="M186.676 36.7963H183.613V15.4556H186.676L199.553 32.0043V15.4556H202.615V36.7963H199.553L186.676 20.2475V36.7963Z" fill="#0AA8B3"/>
<path d="M208.113 18.5063C208.113 18.0897 208.193 17.6978 208.352 17.3307C208.511 16.9537 208.732 16.6312 209.01 16.3634C209.289 16.0856 209.612 15.8673 209.981 15.7086C210.36 15.5399 210.758 15.4556 211.176 15.4556H222.799C223.217 15.4556 223.61 15.5399 223.979 15.7086C224.357 15.8673 224.685 16.0856 224.965 16.3634C225.244 16.6312 225.463 16.9537 225.622 17.3307C225.781 17.6978 225.861 18.0897 225.861 18.5063V21.2595H222.799V18.5063H211.176V33.7455H222.799V31.0071H225.861V33.7455C225.861 34.1621 225.781 34.559 225.622 34.936C225.463 35.303 225.244 35.6256 224.965 35.9033C224.685 36.1811 224.357 36.3994 223.979 36.5582C223.61 36.7168 223.217 36.7963 222.799 36.7963H211.176C210.758 36.7963 210.36 36.7168 209.981 36.5582C209.612 36.3994 209.289 36.1811 209.01 35.9033C208.732 35.6256 208.511 35.303 208.352 34.936C208.193 34.559 208.113 34.1621 208.113 33.7455V18.5063Z" fill="#0AA8B3"/>
<path d="M249.147 15.4556V36.7963H246.084V27.6587H233.82V36.7963H230.758V15.4556H233.82V24.608H246.084V15.4556H249.147Z" fill="#0AA8B3"/>
</g>
<defs>
<clipPath id="clip0_805_1095">
<rect width="229" height="40.7473" fill="white" transform="translate(20.1523 5.62646)"/>
</clipPath>
</defs>
</svg>
