<svg width="152" height="37" viewBox="0 0 152 37" fill="none" xmlns="http://www.w3.org/2000/svg">
<path d="M48.4894 26.3145V8.45499H51.1841V16.2162H60.0876V8.45499H62.791V26.3145H60.0876V18.5271H51.1841V26.3145H48.4894Z" fill="white"/>
<path d="M73.1504 26.3145H70.2901L76.7171 8.45499H79.8303L86.2572 26.3145H83.3969L78.3478 11.699H78.2083L73.1504 26.3145ZM73.63 19.3207H82.9086V21.588H73.63V19.3207Z" fill="white"/>
<path d="M93.3092 8.52941L98.2591 23.0145H98.4588L103.409 8.52941H106.309L99.9091 26.3145H96.8089L90.4087 8.52941H93.3092Z" fill="white"/>
<path d="M115.243 26.3145V8.45499H126.44V10.7746H117.938V16.2162H125.856V18.5271H117.938V23.9948H126.545V26.3145H115.243Z" fill="white"/>
<path d="M148.748 8.45499V26.3145H146.271L137.193 13.2164H137.028V26.3145H134.333V8.45499H136.827L145.914 21.5705H146.08V8.45499H148.748Z" fill="white"/>
<path d="M18.1577 26.4947L21.184 24.7211V33.2882H27.2366V21.1839L30.2629 19.4297V36.3145H18.1577V26.4947ZM0 16.9226V-5.34058e-05H12.1051V9.9333L9.07886 11.6802V3.02623H3.02629V15.1757L0 16.9226ZM18.167 9.93884L18.1577 9.9333V-5.34058e-05H30.2629V15.9822L12.0682 26.4735L12.1051 26.4947V36.3145H0V20.432L18.167 9.93884ZM21.184 11.6802V11.6875L3.02629 22.1576V33.2882H9.07886V28.1963V24.7266V24.7211L9.08348 24.7239L27.2366 14.239V3.02623H21.184V11.6802Z" fill="white"/>
</svg>
