<?xml version="1.0" encoding="utf-8"?>
<!-- Generator: Adobe Illustrator 27.2.0, SVG Export Plug-In . SVG Version: 6.00 Build 0)  -->
<svg version="1.1" id="layer" xmlns="http://www.w3.org/2000/svg" xmlns:xlink="http://www.w3.org/1999/xlink" x="0px" y="0px"
	 viewBox="0 0 652 652" style="enable-background:new 0 0 652 652;" xml:space="preserve">
<style type="text/css">
	.st0{fill:#FFFFFF;}
</style>
<path class="st0" d="M122.1,333.1c21.5,4,36.2,11.8,36.2,20.8c0,13-30.6,23.6-68.4,23.6S21.5,367,21.5,353.9
	c0-9,14.6-16.8,36.2-20.8c9.4,2.4,20.4,3.8,32.2,3.8S112.7,335.6,122.1,333.1L122.1,333.1z M113.9,295c18.3,3,30.9,9.4,30.9,16.9
	c0,10.3-24.6,18.7-54.9,18.7S35,322.2,35,311.8c0-7.4,12.6-13.8,30.9-16.9c7,1.8,15.2,2.8,24,2.8C98.6,297.8,106.8,296.7,113.9,295
	L113.9,295z M90.1,263.5c22.7,0,41.1,6.4,41.1,14.2s-18.4,14.2-41.1,14.2S49,285.5,49,277.7S67.4,263.5,90.1,263.5L90.1,263.5z
	 M245.5,357.5c5.7,0,10.5-0.9,14.2-2.6c3.8-1.8,6.6-4.2,8.5-7.3c1.9-3.1,2.9-6.7,2.8-10.4c0-3.8-0.8-7-2.3-9.7
	c-1.5-2.6-3.5-4.7-6-6.2c-2.3-1.4-4.9-2.3-7.6-2.4v-0.7c2.3-0.5,4.6-1.5,6.6-2.9c2-1.3,3.5-3.1,4.7-5.2s1.7-4.7,1.7-7.8
	c0-3.7-0.9-7-2.7-9.9c-1.8-2.9-4.5-5.2-8.1-6.9c-3.6-1.7-8.1-2.5-13.5-2.5h-28.6v74.6h30.3V357.5z M242.2,314.6h-13.4V294h13.7
	c4,0,7,1,9,2.8c2,1.9,3.1,4.2,3.1,7.1c0,2.2-0.6,4.1-1.6,5.7c-1.1,1.6-2.6,2.8-4.4,3.7C246.5,314.2,244.4,314.6,242.2,314.6
	L242.2,314.6z M243.4,346.2h-14.5v-21.9h14.9c2.8,0,5.2,0.5,7.2,1.6c2,1,3.6,2.4,4.7,4.2c1.1,1.8,1.7,3.8,1.7,6c0,3-1.1,5.4-3.3,7.3
	C251.8,345.3,248.3,346.2,243.4,346.2L243.4,346.2z M295.5,358.6c2.9,0,5.4-0.4,7.6-1.2c2.2-0.8,4-1.9,5.4-3.2
	c1.5-1.3,2.6-2.8,3.4-4.4h0.4v7.7H325v-37.4c0-3.7-0.7-6.8-2-9.3c-1.3-2.4-3.1-4.4-5.3-5.9c-2.3-1.5-4.7-2.5-7.3-3.1
	c-2.6-0.7-5.3-0.9-8-0.9c-3.9,0-7.5,0.6-10.7,1.7c-3.1,1.1-5.9,2.9-8.2,5.2c-2.3,2.4-3.9,5.4-4.8,8.6l12.3,1.8
	c0.6-1.9,1.9-3.6,3.8-5s4.4-2.1,7.7-2.1c3.1,0,5.4,0.7,7,2.3c1.6,1.5,2.5,3.6,2.5,6.4v0.2c0,1.2-0.5,2.2-1.4,2.8
	c-0.9,0.6-2.4,1-4.5,1.3s-4.7,0.6-8,0.9c-2.6,0.3-5.3,0.7-7.9,1.4c-2.4,0.6-4.7,1.5-6.9,2.8c-2,1.2-3.6,2.9-4.8,5
	c-1.2,2.1-1.8,4.7-1.8,7.8c0,3.7,0.8,6.8,2.5,9.3c1.6,2.5,3.9,4.4,6.7,5.7C288.7,358,291.9,358.6,295.5,358.6L295.5,358.6z
	 M298.9,348.9c-2.8,0-5-0.6-6.8-1.9c-1.8-1.2-2.7-3.1-2.7-5.5c0-1.7,0.4-3.1,1.4-4.2c0.9-1.1,2.1-1.9,3.6-2.5
	c1.7-0.7,3.5-1.1,5.3-1.3l3.1-0.4c1.2-0.1,2.4-0.4,3.6-0.6s2.3-0.5,3.3-0.8s1.7-0.6,2.1-1v6.6c0,2.1-0.5,4-1.6,5.7
	c-1.1,1.8-2.6,3.2-4.5,4.2C303.8,348.4,301.5,348.9,298.9,348.9L298.9,348.9z M348.6,357.5v-74.6h-13.2v74.6H348.6z M375.4,358.6
	c2.9,0,5.5-0.4,7.6-1.2c2.2-0.8,4-1.9,5.4-3.2c1.5-1.3,2.6-2.8,3.4-4.4h0.4v7.7H405v-37.4c0-3.7-0.7-6.8-2-9.3
	c-1.3-2.4-3.1-4.4-5.3-5.9c-2.3-1.5-4.7-2.5-7.3-3.1c-2.6-0.7-5.3-0.9-8-0.9c-3.9,0-7.5,0.6-10.7,1.7c-3.1,1.1-5.9,2.9-8.2,5.2
	c-2.3,2.4-4,5.4-4.8,8.6l12.3,1.8c0.7-1.9,1.9-3.6,3.8-5s4.4-2.1,7.7-2.1c3.1,0,5.4,0.7,7,2.3c1.6,1.5,2.4,3.6,2.4,6.4v0.2
	c0,1.2-0.5,2.2-1.4,2.8c-0.9,0.6-2.4,1-4.5,1.3c-2,0.3-4.7,0.6-8,0.9c-2.7,0.3-5.3,0.7-7.9,1.4c-2.4,0.6-4.7,1.5-6.8,2.8
	c-2,1.2-3.7,2.9-4.8,5c-1.2,2.1-1.7,4.7-1.7,7.8c0,3.7,0.8,6.8,2.5,9.3c1.6,2.5,3.9,4.4,6.7,5.7C368.7,358,371.9,358.6,375.4,358.6
	L375.4,358.6z M378.9,348.9c-2.7,0-5-0.6-6.8-1.9c-1.8-1.2-2.6-3.1-2.6-5.5c0-1.7,0.4-3.1,1.3-4.2s2.1-1.9,3.7-2.5
	c1.7-0.7,3.5-1.1,5.3-1.3l3.1-0.4c1.2-0.1,2.4-0.4,3.6-0.6s2.3-0.5,3.3-0.8s1.7-0.6,2.1-1v6.6c0,2.1-0.5,4-1.6,5.7
	c-1.1,1.8-2.6,3.2-4.5,4.2C383.8,348.4,381.5,348.9,378.9,348.9L378.9,348.9z M428.6,357.5v-32.8c0-2.7,0.5-5,1.6-6.9
	c1-1.9,2.4-3.4,4.2-4.4c1.9-1,4-1.5,6.1-1.5c3.4,0,6.1,1.1,8,3.2s2.9,5,2.9,8.8v33.6h13.2v-35.6c0-4.5-0.8-8.3-2.3-11.4
	c-1.6-3.1-3.8-5.5-6.7-7.2c-2.9-1.7-6.3-2.5-10.1-2.5c-4.2,0-7.7,0.9-10.5,2.8c-2.8,1.8-4.9,4.4-6.2,7.5h-0.7v-9.5h-12.6v56h13.1
	V357.5z M499.6,358.6c4.7,0,8.8-0.9,12.2-2.6c3.4-1.6,6.2-4.1,8.3-7.2c2-3.1,3.2-6.6,3.5-10.5H511c-0.3,1.8-1.1,3.6-2.2,5.1
	c-1,1.4-2.3,2.5-3.9,3.2s-3.3,1.1-5.2,1.1c-2.8,0-5.1-0.7-7.2-2.2c-2-1.5-3.6-3.6-4.7-6.3c-1.1-2.7-1.7-6-1.7-9.8s0.6-7,1.7-9.7
	s2.7-4.8,4.8-6.2c2-1.5,4.4-2.2,7.1-2.2c3.2,0,5.7,0.9,7.6,2.7c1.9,1.8,3.1,4.1,3.6,6.8h12.6c-0.3-4-1.5-7.6-3.6-10.6s-5-5.5-8.4-7
	c-3.5-1.7-7.5-2.5-12.1-2.5c-5.5,0-10.2,1.2-14.2,3.7c-4,2.4-7.2,6-9.3,10.2c-2.2,4.3-3.3,9.4-3.3,15.1s1.1,10.7,3.2,15
	c2.2,4.3,5.2,7.7,9.2,10.2C489.2,357.4,494,358.6,499.6,358.6L499.6,358.6z M556.4,358.6c4.3,0,8.2-0.7,11.6-2
	c3.4-1.3,6.1-3.2,8.3-5.6s3.7-5.3,4.4-8.5l-12.3-1.4c-0.6,1.6-1.5,2.9-2.6,4c-1.2,1.1-2.5,1.9-4.1,2.4c-1.7,0.6-3.4,0.9-5.2,0.8
	c-2.9,0-5.4-0.6-7.5-1.8c-2.2-1.2-3.9-3.1-5-5.3c-1.2-2.3-1.8-5.1-1.8-8.4v0.3h39v-4c0-4.9-0.7-9.1-2.1-12.7
	c-1.4-3.6-3.2-6.5-5.6-8.8c-2.3-2.3-5.1-4-8.2-5.1c-3.1-1.1-6.4-1.7-9.8-1.7c-5.3,0-10,1.2-13.9,3.7c-4,2.5-7.2,6-9.2,10.2
	c-2.2,4.3-3.3,9.4-3.3,15.2c0,5.9,1.1,10.9,3.3,15.2c2.2,4.3,5.3,7.7,9.4,10C545.9,357.4,550.8,358.6,556.4,358.6L556.4,358.6z
	 M542.3,323.8c0.1-2,0.7-3.9,1.7-5.7c1.1-2.1,2.7-3.8,4.8-5.1c2.1-1.3,4.6-2,7.1-1.9c2.5,0,4.7,0.6,6.6,1.7c1.9,1.2,3.4,2.7,4.5,4.7
	s1.6,4.2,1.6,6.8h-26.3L542.3,323.8z M602.8,357.5v-32.9c0-2.4,0.5-4.5,1.6-6.3s2.6-3.3,4.5-4.3c2-1.1,4.2-1.6,6.4-1.6
	c1.1,0,2.3,0.1,3.5,0.2c1.2,0.2,2.1,0.3,2.6,0.5V301c-0.7-0.1-1.5-0.2-2.3-0.3c-0.8-0.1-1.6-0.1-2.5-0.1c-3.2,0-6.1,0.9-8.6,2.6
	c-2.5,1.8-4.2,4.2-5.3,7.5h-0.6v-9.3h-12.8v56L602.8,357.5L602.8,357.5z"/>
</svg>
