<?xml version="1.0" encoding="UTF-8"?><svg id="Layer_1" xmlns="http://www.w3.org/2000/svg" xmlns:xlink="http://www.w3.org/1999/xlink" viewBox="0 0 1053.3 230.25"><defs><linearGradient id="linear-gradient" x1="-30.08" y1="654.53" x2="-30.08" y2="652.92" gradientTransform="translate(33494.06 -674.31) rotate(-90) scale(27.46 -51)" gradientUnits="userSpaceOnUse"><stop offset="0" stop-color="#1f2022"/><stop offset="1" stop-color="#635e69"/></linearGradient><linearGradient id="linear-gradient-2" x1="-14.13" y1="664.4" x2="-14.13" y2="662.79" gradientTransform="translate(-400.5 -39286.55) rotate(-180) scale(37.01 -59.32)" gradientUnits="userSpaceOnUse"><stop offset="0" stop-color="#2087e2"/><stop offset="1" stop-color="#b63fff"/></linearGradient><linearGradient id="linear-gradient-3" x1="-27.66" y1="654.28" x2="-27.66" y2="652.67" gradientTransform="translate(19117.18 -738.62) rotate(-90) scale(30.63 -29.16)" gradientUnits="userSpaceOnUse"><stop offset="0" stop-color="#100f0f"/><stop offset="1" stop-color="#49261f"/></linearGradient><linearGradient id="linear-gradient-4" x1="-15.69" y1="675.32" x2="-15.69" y2="673.71" gradientTransform="translate(-212.94 -18048.38) rotate(-180) scale(20.24 -27.02)" gradientUnits="userSpaceOnUse"><stop offset="0" stop-color="#222020"/><stop offset="1" stop-color="#49261f"/></linearGradient><linearGradient id="linear-gradient-5" x1="-16.2" y1="694.45" x2="-16.2" y2="692.84" gradientTransform="translate(-170.41 -9011.35) rotate(-180) scale(14.8 -13.22)" gradientUnits="userSpaceOnUse"><stop offset="0" stop-color="#1e1c1c"/><stop offset="1" stop-color="#49261f"/></linearGradient><linearGradient id="linear-gradient-6" x1="-9.44" y1="637.02" x2="-9.44" y2="635.41" gradientTransform="translate(457.39 15195.64) scale(35.32 -23.81)" gradientUnits="userSpaceOnUse"><stop offset="0" stop-color="#fff" stop-opacity=".5"/><stop offset="1" stop-color="#fff" stop-opacity=".2"/></linearGradient><linearGradient id="linear-gradient-7" x1="-7.78" y1="631.83" x2="-7.78" y2="630.22" gradientTransform="translate(164.24 12433.61) scale(14.3 -19.55)" xlink:href="#linear-gradient-6"/></defs><circle cx="115.12" cy="115.12" r="115.12" style="fill:#fff;"/><g><path d="m194.22,157.66c1.74-4.71,1.82-9,.25-12.87-1.46-3.59-4.26-6.62-8.41-9.08-3.87-2.24-8.55-3.87-14.04-4.88-4.99-.9-10.43-1.29-16.31-1.18-5.66.17-11.16.78-16.48,1.85-5.1,1.07-9.59,2.41-13.46,4.04-3.81,1.63-6.78,3.39-8.91,5.3-2.13,2.02-3.25,4.09-3.36,6.22-.17,2.52,1.12,5.24,3.87,8.16,2.52,2.69,6.05,5.33,10.6,7.9,4.54,2.58,9.56,4.79,15.05,6.64,5.89,1.96,11.69,3.22,17.41,3.78,3.7.34,7.15.39,10.34.17,3.48-.34,6.7-1.07,9.67-2.19,3.2-1.23,5.91-2.94,8.16-5.13,2.52-2.41,4.4-5.33,5.63-8.75m-35.15-13.2c1.91,1.01,3.31,2.24,4.2,3.7.9,1.63,1.09,3.48.59,5.55-.39,1.46-1.04,2.72-1.93,3.78-.84.95-1.96,1.71-3.36,2.27-1.18.5-2.61.87-4.29,1.09-1.63.17-3.25.2-4.88.08-2.86-.17-6-.73-9.42-1.68-2.97-.9-5.83-2.02-8.58-3.36-2.52-1.23-4.6-2.52-6.22-3.87-1.57-1.4-2.33-2.63-2.27-3.7.11-.9.76-1.77,1.93-2.61,1.18-.78,2.8-1.49,4.88-2.1,2.07-.67,4.37-1.18,6.9-1.51,2.86-.34,5.58-.5,8.16-.5,2.86.06,5.44.28,7.74.67,2.47.5,4.65,1.23,6.56,2.19Z" style="fill:url(#linear-gradient);"/><path d="m152.34,56.24c-.22-6.05-1.74-11.1-4.54-15.14-2.97-4.43-7.34-7.46-13.12-9.08-1.29-.39-2.66-.67-4.12-.84-1.29-.17-2.61-.2-3.95-.08-1.23,0-2.47.14-3.7.42-1.07.22-2.24.59-3.53,1.09-4.15,1.63-7.9,4.49-11.27,8.58-3.14,3.7-5.83,8.3-8.07,13.79-1.96,4.65-3.53,9.76-4.71,15.31-1.12,5.21-1.88,10.51-2.27,15.89-.34,4.88-.36,9.56-.08,14.04.34,4.43.95,8.44,1.85,12.03,1.79,7.34,4.54,11.86,8.24,13.54.34.17.67.31,1.01.42l2.19.34c.28,0,.7-.03,1.26-.08,2.35-.22,5.02-1.21,7.99-2.94,2.86-1.74,5.86-4.12,9-7.15,3.36-3.25,6.62-7.04,9.76-11.35,3.31-4.49,6.25-9.22,8.83-14.21,3.03-5.89,5.35-11.66,6.98-17.32,1.68-6.22,2.44-11.97,2.27-17.24m-32.04,13.62c.56.11,1.04.25,1.43.42,4.54,1.57,6.87,5.19,6.98,10.85.06,4.65-1.37,10.01-4.29,16.06-2.41,5.05-5.3,9.47-8.66,13.29-3.14,3.59-5.77,5.49-7.9,5.72l-.42.08-.76-.08-.42-.17c-1.57-.73-2.66-3.11-3.28-7.15-.62-4.09-.59-8.77.08-14.04.73-5.89,2.1-11.04,4.12-15.47,2.41-5.27,5.38-8.38,8.91-9.33.62-.17,1.07-.25,1.35-.25.45-.06.9-.08,1.35-.08.45,0,.95.06,1.51.17Z" style="fill:url(#linear-gradient-2);"/><path d="m44.87,87.44c-.67.9-1.23,1.88-1.68,2.94-.5,1.29-.87,2.61-1.09,3.95-1.18,5.49-.53,10.82,1.93,15.98,2.02,4.26,5.27,8.27,9.76,12.03,3.98,3.31,8.47,6,13.46,8.07,5.05,2.07,9.45,3.03,13.2,2.86.73,0,1.51-.08,2.35-.25s1.54-.39,2.1-.67c.56-.28,1.09-.64,1.6-1.09.5-.45.9-.95,1.18-1.51,1.35-2.58.98-6.56-1.09-11.94-2.13-5.21-5.35-10.57-9.67-16.06-4.49-5.72-9.17-10.23-14.04-13.54-5.27-3.53-9.73-4.85-13.37-3.95-.9.22-1.74.62-2.52,1.18-.78.5-1.49,1.18-2.1,2.02m12.45,16.73c.28-.5.56-.9.84-1.18.28-.28.62-.53,1.01-.76.45-.17.84-.28,1.18-.34,1.79-.34,4.06.45,6.81,2.35,2.47,1.63,4.93,3.92,7.4,6.9,2.24,2.69,4.04,5.33,5.38,7.9,1.29,2.63,1.68,4.49,1.18,5.55-.11.22-.25.39-.42.5-.17.22-.36.36-.59.42-.11.11-.34.2-.67.25l-.93.17c-1.79.11-4.12-.39-6.98-1.51-2.8-1.12-5.44-2.61-7.9-4.46-2.63-1.96-4.6-4.09-5.89-6.39-1.46-2.63-1.79-5.27-1.01-7.9.17-.56.36-1.07.59-1.51Z" style="fill:url(#linear-gradient-3);"/><path d="m99.11,155.72h-.34c-1.74-.06-3.34.53-4.79,1.77-1.35,1.18-2.49,2.86-3.45,5.05-.84,1.96-1.43,4.18-1.77,6.64-.34,2.47-.39,4.96-.17,7.48.45,5.33,2.02,9.84,4.71,13.54,3.14,4.26,7.51,7.06,13.12,8.41h.17l.5.17h.25c6.11,1.18,10.2.03,12.28-3.45.95-1.63,1.43-3.7,1.43-6.22-.06-2.41-.5-5.05-1.35-7.9-.84-2.92-2.02-5.83-3.53-8.75-1.51-2.97-3.22-5.66-5.13-8.07-2.02-2.52-4.04-4.54-6.05-6.05-2.13-1.57-4.09-2.44-5.89-2.61m-2.35,10.43c.9-2.47,2.05-3.64,3.45-3.53h.08c1.4.17,3.06,1.63,4.96,4.37,1.91,2.75,3.34,5.63,4.29,8.66,1.07,3.31,1.29,5.94.67,7.9-.73,2.07-2.52,2.92-5.38,2.52h-.08l-.08-.08h-.25c-2.8-.56-4.96-2.02-6.48-4.37-1.29-2.13-2.02-4.71-2.19-7.74-.17-2.97.17-5.55,1.01-7.74Z" style="fill:url(#linear-gradient-4);"/><path d="m78.51,148.07c-.5-.39-1.12-.73-1.85-1.01-.73-.28-1.49-.48-2.27-.59-.73-.17-1.51-.28-2.35-.34-2.41-.06-4.77.31-7.06,1.09-2.24.73-4.06,1.82-5.47,3.28-1.4,1.57-2.07,3.31-2.02,5.21.06,2.07,1.04,4.32,2.94,6.73.5.62,1.12,1.29,1.85,2.02.56.56,1.21,1.07,1.93,1.51.56.34,1.18.64,1.85.93.78.28,1.4.42,1.85.42,2.02.28,3.98-.14,5.89-1.26,1.85-1.07,3.45-2.58,4.79-4.54,1.4-2.02,2.27-4.09,2.61-6.22.34-2.35-.08-4.29-1.26-5.8-.45-.56-.93-1.04-1.43-1.43m-1.68,3.45c.5.67.62,1.57.34,2.69-.22,1.07-.73,2.16-1.51,3.28-.78,1.07-1.68,1.91-2.69,2.52-1.07.67-2.1.95-3.11.84l-.93-.17c-.34-.11-.64-.28-.93-.5-.22-.11-.53-.34-.93-.67-.22-.22-.5-.53-.84-.93-1.01-1.29-1.4-2.47-1.18-3.53.11-.95.7-1.79,1.77-2.52.95-.67,2.1-1.18,3.45-1.51,1.35-.34,2.63-.48,3.87-.42l.93.08.76.17c.22.11.42.22.59.34l.42.34Z" style="fill:url(#linear-gradient-5);"/><path d="m128.8,63.3c7.85,0,15.47.95,22.87,2.86.56-3.53.78-6.84.67-9.92-.22-6.05-1.74-11.1-4.54-15.14-2.97-4.43-7.34-7.46-13.12-9.08-1.29-.39-2.66-.67-4.12-.84-1.29-.17-2.61-.2-3.95-.08-1.23,0-2.47.14-3.7.42-1.07.22-2.24.59-3.53,1.09-4.15,1.63-7.9,4.49-11.27,8.58-3.14,3.7-5.83,8.3-8.07,13.79-1.85,4.49-3.36,9.28-4.54,14.38,10.6-4.04,21.7-6.05,33.3-6.05Z" style="fill:url(#linear-gradient-6);"/><path d="m42.09,94.33c-1.18,5.49-.53,10.82,1.93,15.98.84,1.79,1.88,3.5,3.11,5.13,3.92-9.64,9.73-18.33,17.41-26.07-.45-.34-1.01-.73-1.68-1.18-5.27-3.53-9.73-4.85-13.37-3.95-.9.22-1.74.62-2.52,1.18-.78.5-1.49,1.18-2.1,2.02-.67.9-1.23,1.88-1.68,2.94-.5,1.29-.87,2.61-1.09,3.95Z" style="fill:url(#linear-gradient-7);"/></g><g><path d="m297.35,170.28c-8.48-4.88-15.16-11.7-20.05-20.45-4.89-8.75-7.33-18.65-7.33-29.71s2.44-20.96,7.33-29.71c4.88-8.75,11.57-15.56,20.05-20.45,8.48-4.88,17.93-7.33,28.34-7.33s20.02,2.44,28.5,7.33c8.48,4.89,15.14,11.7,19.97,20.45,4.83,8.75,7.25,18.65,7.25,29.71s-2.42,20.96-7.25,29.71c-4.83,8.75-11.49,15.57-19.97,20.45-8.48,4.89-17.98,7.33-28.5,7.33s-19.86-2.44-28.34-7.33Zm50.88-8.29c6.65-3.86,11.92-9.42,15.78-16.67,3.86-7.25,5.8-15.64,5.8-25.2s-1.93-17.93-5.8-25.12c-3.86-7.19-9.12-12.72-15.78-16.58-6.66-3.86-14.17-5.8-22.54-5.8s-15.89,1.93-22.54,5.8c-6.66,3.86-11.92,9.39-15.78,16.58-3.86,7.19-5.8,15.57-5.8,25.12s1.93,17.95,5.8,25.2c3.86,7.25,9.12,12.8,15.78,16.67,6.65,3.86,14.17,5.8,22.54,5.8s15.89-1.93,22.54-5.8Z" style="fill:#fff;"/><path d="m538.55,63.93l-31.88,112.55h-12.56l-28.34-95.96-28.98,95.96-12.24.16-31.24-112.71h12.08l25.76,98.7,28.82-98.7h12.56l28.02,98.7,25.92-98.7h12.08Z" style="fill:#fff;"/><path d="m640.63,176.48h-11.27l-62.31-94.68v94.68h-11.27V63.93h11.27l62.31,94.52V63.93h11.27v112.55Z" style="fill:#fff;"/><path d="m668.32,90.42c4.83-8.75,11.43-15.56,19.8-20.45,8.37-4.88,17.71-7.33,28.02-7.33,12.56,0,23.32,2.98,32.28,8.94,8.96,5.96,15.48,14.36,19.56,25.2h-13.2c-3.22-7.62-8.13-13.58-14.73-17.87-6.6-4.29-14.57-6.44-23.91-6.44-8.27,0-15.7,1.93-22.3,5.8-6.6,3.86-11.78,9.42-15.54,16.67-3.76,7.25-5.64,15.65-5.64,25.2s1.88,17.93,5.64,25.12c3.76,7.19,8.94,12.72,15.54,16.58s14.03,5.8,22.3,5.8c9.34,0,17.31-2.12,23.91-6.36,6.6-4.24,11.51-10.12,14.73-17.63h13.2c-4.08,10.74-10.63,19.05-19.64,24.96-9.02,5.9-19.75,8.86-32.2,8.86-10.31,0-19.64-2.44-28.02-7.33-8.37-4.88-14.97-11.67-19.8-20.37-4.83-8.69-7.25-18.57-7.25-29.63s2.42-20.96,7.25-29.71Z" style="fill:#fff;"/><path d="m855.58,149.75h-51.2l-9.82,26.73h-11.92l41.06-111.1h12.72l40.9,111.1h-11.92l-9.82-26.73Zm-3.38-9.34l-22.22-60.86-22.22,60.86h44.44Z" style="fill:#fff;"/><path d="m909.92,173.74c-5.64-2.58-10.06-6.17-13.28-10.79-3.22-4.61-4.94-9.77-5.15-15.46h11.92c.54,5.47,2.95,10.28,7.25,14.41,4.29,4.13,10.57,6.2,18.84,6.2,7.62,0,13.66-1.96,18.11-5.88,4.45-3.92,6.68-8.88,6.68-14.89,0-4.83-1.24-8.72-3.7-11.67-2.47-2.95-5.53-5.15-9.18-6.6-3.65-1.45-8.69-3.03-15.13-4.75-7.51-2.04-13.47-4.03-17.87-5.96-4.4-1.93-8.16-4.94-11.27-9.02-3.11-4.08-4.67-9.61-4.67-16.58,0-5.8,1.5-10.97,4.51-15.54,3-4.56,7.25-8.13,12.72-10.71,5.47-2.58,11.75-3.86,18.84-3.86,10.41,0,18.81,2.55,25.2,7.65,6.38,5.1,10.06,11.67,11.03,19.72h-12.24c-.75-4.61-3.28-8.72-7.57-12.32-4.29-3.59-10.09-5.39-17.39-5.39-6.76,0-12.4,1.8-16.91,5.39-4.51,3.6-6.76,8.51-6.76,14.73,0,4.72,1.23,8.53,3.7,11.43,2.47,2.9,5.55,5.1,9.26,6.6,3.7,1.5,8.72,3.11,15.05,4.83,7.3,2.04,13.2,4.05,17.71,6.04,4.51,1.99,8.32,5.02,11.43,9.1,3.11,4.08,4.67,9.55,4.67,16.42,0,5.26-1.4,10.25-4.19,14.97-2.79,4.72-6.92,8.53-12.4,11.43-5.47,2.9-12.02,4.35-19.64,4.35s-13.93-1.29-19.56-3.86Z" style="fill:#fff;"/><path d="m1053.3,63.93v9.34h-31.24v103.21h-11.27v-103.21h-31.4v-9.34h73.91Z" style="fill:#fff;"/></g></svg>