<?xml version="1.0" encoding="utf-8"?>
<!-- Generator: Adobe Illustrator 27.2.0, SVG Export Plug-In . SVG Version: 6.00 Build 0)  -->
<svg version="1.1" id="katman_1" xmlns="http://www.w3.org/2000/svg" xmlns:xlink="http://www.w3.org/1999/xlink" x="0px" y="0px"
	 viewBox="0 0 800 600" style="enable-background:new 0 0 800 600;" xml:space="preserve">
<style type="text/css">
	.st0{fill:#FFFFFF;}
	.st1{fill:url(#SVGID_1_);}
	.st2{fill:url(#SVGID_00000002367574414022501100000010508608163956142493_);}
	.st3{fill:url(#SVGID_00000135654090856566344710000010050401676127826566_);}
	.st4{fill:#0E0F23;}
	.st5{fill-rule:evenodd;clip-rule:evenodd;fill:#FFFFFF;}
</style>
<circle class="st0" cx="399.8" cy="299.6" r="233.4"/>
<linearGradient id="SVGID_1_" gradientUnits="userSpaceOnUse" x1="377.0195" y1="626.2576" x2="424.6177" y2="789.7035" gradientTransform="matrix(1 0 0 1 -20.9449 -475.6378)">
	<stop  offset="0" style="stop-color:#03B8FF"/>
	<stop  offset="1" style="stop-color:#FA52A0"/>
</linearGradient>
<path class="st1" d="M309,173.9l240,163.9l-59.4,87.7l-240-165.2L309,173.9z"/>
<linearGradient id="SVGID_00000115494909788953313480000007128165863644349366_" gradientUnits="userSpaceOnUse" x1="416.0501" y1="614.892" x2="463.6496" y2="778.3392" gradientTransform="matrix(1 0 0 1 -20.9449 -475.6378)">
	<stop  offset="0" style="stop-color:#03B8FF"/>
	<stop  offset="1" style="stop-color:#FA52A0"/>
</linearGradient>
<path style="fill:url(#SVGID_00000115494909788953313480000007128165863644349366_);" d="M549,337.8
	c-20.6,29.7-90.3,18.1-156.1-28.4c-67.1-45.2-103.2-105.8-83.9-135.5c20.6-29.7,90.3-18.1,156.1,28.4
	C532.2,246.2,568.4,308.1,549,337.8z"/>
<linearGradient id="SVGID_00000155836424106060951880000014961207623842531968_" gradientUnits="userSpaceOnUse" x1="338.5422" y1="637.4633" x2="386.1417" y2="800.9105" gradientTransform="matrix(1 0 0 1 -20.9449 -475.6378)">
	<stop  offset="0" style="stop-color:#03B8FF"/>
	<stop  offset="1" style="stop-color:#FA52A0"/>
</linearGradient>
<path style="fill:url(#SVGID_00000155836424106060951880000014961207623842531968_);" d="M489.7,424.3
	c-20.6,29.7-90.3,18.1-156.1-28.4S230.4,290.1,251,259.1c20.6-29.7,90.3-18.1,156.1,28.4C472.9,333.9,509,394.6,489.7,424.3z"/>
<path class="st4" d="M549,337.8l-59.4,87.7c-20.6,29.7-90.3,16.8-156.1-28.4c-12.9-9-24.5-18.1-36.1-28.4c9-1.3,20.6-6.5,32.3-19.4
	c20.6-21.9,31-27.1,40-25.8c9,0,19.4,9,36.1,31c16.8,21.9,40,28.4,54.2,16.8c1.3-1.3,2.6-1.3,3.9-2.6c11.6-9,15.5-12.9,37.4-54.2
	c5.2-10.3,23.2-27.1,47.7-19.4C555.5,312,555.5,326.2,549,337.8z"/>
<path class="st5" d="M540,332.7c-18.1,25.8-81.3,12.9-141.9-29.7c-61.9-42.6-98.1-96.8-80-122.6s81.3-12.9,141.9,29.7
	S556.8,306.8,540,332.7z M483.2,293.9c-9,12.9-40,6.5-71-14.2c-29.7-20.6-47.7-47.7-38.7-60.6c9-12.9,40-6.5,71,14.2
	C474.2,253.9,492.2,281,483.2,293.9z"/>
<path class="st0" d="M303.8,203.6c0-1.3-1.3-2.6-2.6-1.3c-1.3,1.3-2.6,1.3-2.6,2.6c1.3,3.9,2.6,6.5,2.6,9c0,1.3,1.3,2.6,2.6,1.3
	c1.3,0,2.6-1.3,1.3-2.6C305.1,210.1,305.1,207.5,303.8,203.6z"/>
<path class="st0" d="M310.3,224.3c0-1.3-1.3-2.6-2.6-1.3c-1.3,1.3-1.3,1.3-1.3,2.6c14.2,32.3,43.9,67.1,82.6,92.9
	c1.3,1.3,2.6,0,3.9,0c1.3-1.3,0-2.6,0-3.9C352.9,288.8,324.5,255.2,310.3,224.3z"/>
<path class="st0" d="M466.4,350.7c-1.3,0-2.6,0-2.6,1.3s0,2.6,1.3,2.6c3.9,1.3,9,2.6,12.9,3.9c1.3,0,2.6,0,2.6-1.3s0-2.6-1.3-2.6
	C475.5,353.3,470.3,352,466.4,350.7z"/>
<path class="st0" d="M489.7,355.9c-1.3,0-2.6,1.3-2.6,2.6c0,1.3,1.3,2.6,2.6,2.6c10.3,1.3,21.9,2.6,31,1.3c1.3,0,2.6-1.3,2.6-2.6
	c0-1.3-1.3-2.6-2.6-2.6C510.3,358.5,500,357.2,489.7,355.9z"/>
</svg>
