<?xml version="1.0" encoding="utf-8"?>
<!-- Generator: Adobe Illustrator 27.2.0, SVG Export Plug-In . SVG Version: 6.00 Build 0)  -->
<svg version="1.1" id="Layer_1" xmlns="http://www.w3.org/2000/svg" xmlns:xlink="http://www.w3.org/1999/xlink" x="0px" y="0px"
	 viewBox="0 0 990 260" style="enable-background:new 0 0 990 260;" xml:space="preserve">
<style type="text/css">
	.st0{fill:#FFFFFF;}
</style>
<path class="st0" d="M156.8,83.2c-9.9-8.3-24.6-6.9-32.9,3c0,0,0,0,0,0l-47.1,56.5c-7.2,8.7-7.2,21.2,0,29.9l47.1,56.5
	c8.3,9.9,23,11.2,32.9,3s11.2-23,3-32.9l0,0l-34.6-41.5l34.6-41.6C168.1,106.2,166.7,91.4,156.8,83.2
	C156.8,83.2,156.8,83.2,156.8,83.2z M43,77.8c-12.9,0-23.3,10.4-23.3,23.3c0,0,0,0,0,0v113c0.3,12.9,10.9,23.1,23.8,22.9
	c12.5-0.3,22.6-10.3,22.9-22.9v-113C66.4,88.2,55.9,77.8,43,77.8C43,77.8,43,77.8,43,77.8z M452.6,124.4
	c12.9-0.3,23.1-10.9,22.9-23.8c-0.3-12.5-10.3-22.6-22.9-22.9h-98.9c-12.9,0-23.4,10.5-23.4,23.3l0,0v42.4
	c0,10.4,6.9,19.6,16.9,22.4l81.9,23.4v1.4h-75.5c-12.9-0.3-23.6,10-23.8,22.9c-0.3,12.9,10,23.6,22.9,23.8c0.3,0,0.6,0,1,0h98.9
	c12.9,0,23.3-10.4,23.3-23.3v-42.4c0-10.4-6.9-19.6-16.9-22.4l-81.9-23.4v-1.4H452.6z M297.2,77.8c-12.9,0-23.3,10.4-23.3,23.3
	c0,0,0,0,0,0v89.6h-52.2v-89.6c0.3-12.9-10-23.6-22.9-23.8s-23.6,10-23.8,22.9c0,0.3,0,0.6,0,1v113c0,12.9,10.4,23.3,23.3,23.3
	c0,0,0,0,0,0h98.9c12.9,0,23.3-10.4,23.4-23.3c0,0,0,0,0,0v-113C320.6,88.2,310.1,77.8,297.2,77.8C297.2,77.8,297.2,77.8,297.2,77.8
	z M569.4,86.2c-4.4-5.3-11-8.4-17.9-8.4h-42.4c-12.9,0-23.3,10.4-23.3,23.3c0,0,0,0,0,0v113c0,12.9,10.4,23.3,23.3,23.3h58.4
	c12.9-0.3,23.1-10.9,22.9-23.8c-0.3-12.5-10.3-22.6-22.9-22.9h-35.1v-66.3h8.1l58.2,69.9v19.8c0.3,12.9,10.9,23.1,23.8,22.9
	c12.5-0.3,22.6-10.3,22.9-22.9v-28.3c0-5.5-1.9-10.8-5.4-15L569.4,86.2z M964.9,170.9l-70.6-84.7c-4.4-5.3-11-8.4-17.9-8.4H834
	c-12.9,0-23.3,10.4-23.3,23.3c0,0,0,0,0,0v113c0,12.9,10.5,23.3,23.3,23.3h58.4c12.9-0.3,23.1-10.9,22.9-23.8
	c-0.3-12.5-10.3-22.6-22.9-22.9h-35.1v-66.3h8.1l58.2,69.8v19.8c0.3,12.9,10.9,23.1,23.8,22.9c12.5-0.3,22.6-10.3,22.9-22.9v-28.2
	C970.3,180.4,968.4,175.1,964.9,170.9z M787.3,79.9c-8.3-3.8-18-2.4-24.9,3.5l-34.2,29.4l-34.3-29.4c-9.8-8.4-24.5-7.2-32.9,2.5
	c-3.6,4.2-5.6,9.6-5.6,15.2v113c0.3,12.9,10.9,23.1,23.8,22.9c12.5-0.3,22.6-10.3,22.9-22.9v-62.3l11,9.4c8.7,7.5,21.6,7.5,30.4,0
	l10.9-9.3v62.2c0,12.9,10.5,23.4,23.4,23.4c12.9,0,23.3-10.5,23.3-23.4v-113C800.9,92,795.6,83.7,787.3,79.9z M623.6,67.1V68
	c0,0,32.1-12.7,38.4-9.4l-3.8,1.1c0.3,0,6.4,0.4,6.4,0.4c0.3,2.6,1.7,4.8,3.9,6.2c3.7,2.4,3.8,3.8,3.8,3.8s-1.9,0.8-1.9,1.8
	c1.8-0.5,3.6-0.8,5.5-0.8c1.7,0.1,3.3,0.3,4.9,0.8c0,0-0.2-1-2.8-1.8s-5-3.5-6.3-5c-1.5-2-1.9-4.6-1-6.9c0.9-2.3,4-3.5,10.3-6.8
	c7.5-3.9,9.2-6.8,10.2-9s2.6-6.7,3.5-8.8c0.7-2,2-3.7,3.6-5c1.1-0.9,6.2-2.8,6.2-2.8s-3.9-3.3-5.1-4.3c-1.6-1.5-3.6-2.5-5.7-2.8
	c-2.7-0.4-5.4,1.4-7.2,2.6s-5.4,4.7-6.8,5.7s-5.1,2-11,5.6S639.5,51,639.5,51l6,0.1l-26.9,14h2.7l-3.9,3
	C619.5,68.6,621.7,68.2,623.6,67.1z"/>
</svg>
