<?xml version="1.0" encoding="utf-8"?>
<!-- Generator: Adobe Illustrator 27.2.0, SVG Export Plug-In . SVG Version: 6.00 Build 0)  -->
<svg version="1.1" id="Layer_1" xmlns:xodm="http://www.corel.com/coreldraw/odm/2003"
	 xmlns="http://www.w3.org/2000/svg" xmlns:xlink="http://www.w3.org/1999/xlink" x="0px" y="0px" viewBox="0 0 2500 663"
	 style="enable-background:new 0 0 2500 663;" xml:space="preserve">
<style type="text/css">
	.st0{fill:#FFFFFF;}
	.st1{fill:url(#SVGID_1_);}
	.st2{fill:url(#SVGID_00000120555774874949868120000011548506969710531764_);}
</style>
<g id="Layer_x0020_1">
	<g id="_2082569970480">
		<polygon id="path52" class="st0" points="888.6,0.1 970.7,0.1 970.7,120.2 1084.5,0.1 1181.9,0.1 1054.9,133.1 1189.4,331.3 
			1093.8,331.3 998.3,188.3 970.5,217.6 970.5,331.3 888.6,331.3 		"/>
		<g>
			<path id="path54" class="st0" d="M1345.6,246.7v-28.5c-12.4,5.6-25.6,9.8-38.9,12.5c-29.2,6.5-41.3,13.9-41.3,32.3
				s13.9,26.4,32.3,26.4c28.3,0,47.7-17.1,47.7-42.7H1345.6z M1192.6,236.8c0-52.4,41.7-68.2,90.9-74.6
				c44.5-5.6,60.3-10.2,60.3-26.4s-9.8-25.5-32.3-25.5c-24.2,0-36.1,10.7-38.4,30.6h-69.3c1.9-44,35.7-81.6,107.5-81.6
				c35.7,0,59.9,6.5,77,19.5c20.4,14.8,30.1,38,30.1,67.7v119.6c0,19.1,1.9,29.7,8.1,33.8v31.5h-73.2c-4.5-8.1-7.3-17.2-8.1-26.4
				h-0.9c-14,19.9-34.8,32.3-70.5,32.3c-47.3,0-80.8-25.5-80.8-72.7L1192.6,236.8L1192.6,236.8z M1192.6,236.8L1192.6,236.8
				L1192.6,236.8z"/>
		</g>
		<g>
			<path id="path56" class="st0" d="M1623.7,212.9c0-39.8-16.2-68.6-49.1-68.6c-30.1,0-47.8,27.8-47.8,67.7
				c0,41.3,17.7,67.2,46.9,67.2C1605.4,279.2,1623.7,251.8,1623.7,212.9L1623.7,212.9z M1450.3,212.9c0-74.2,42.7-125.6,103.9-125.6
				c1.4-0.1,2.8-0.1,4.2-0.1c25.2,0,48.8,12.9,62.3,34.1h1.4V0.1h75.5v331.2H1625V299h-0.9c-13.8,24.9-40,40.4-68.5,40.4
				c-0.4,0-0.8,0-1.2,0c-60.8,0-103.9-46.8-103.9-126.1L1450.3,212.9L1450.3,212.9z M1450.3,212.9L1450.3,212.9L1450.3,212.9z"/>
		</g>
		<g>
			<path id="path58" class="st0" d="M1897.7,187.4c-2.8-28.3-20.4-46.4-45-46.4c-28.8,0-43.5,18.1-48.5,46.4H1897.7L1897.7,187.4z
				 M1729.4,212.5c0-71,49.6-125.2,121.9-125.2c1,0,2,0,3,0c28.7,0,56.4,10.6,77.8,29.7c28.3,26,42.2,67.3,41.8,115.4h-170.3
				c4.6,32.3,22.2,51.9,53.3,51.9c1.1,0.1,2.1,0.1,3.2,0.1c15.7,0,29.9-9.3,36.2-23.7h73.7c-6,22.9-20.2,42.9-39.8,56.1
				c-20.9,14.2-45.6,21.9-70.9,21.9c-1.1,0-2.3,0-3.4-0.1C1777.5,338.6,1729.4,284.3,1729.4,212.5L1729.4,212.5z M1729.4,212.5
				L1729.4,212.5L1729.4,212.5z"/>
		</g>
		<path id="path60" class="st0" d="M2006.6,94.2h72.7v32.3h1.4c15.1-24.5,41.9-39.5,70.8-39.5c0.8,0,1.7,0,2.5,0
			c51.9,0,82.6,37.1,82.6,89.9v154.3H2161V192.5c0-25-12.5-42.2-37.1-42.2s-41.7,20.8-41.7,50v130.9h-75.6
			C2006.6,331.3,2006.6,94.2,2006.6,94.2z"/>
		<g>
			<path id="path62" class="st0" d="M2419.6,246.7v-28.5c-12.4,5.6-25.6,9.8-38.9,12.5c-29.2,6.5-41.3,13.9-41.3,32.3
				s13.9,26.4,32.3,26.4C2400.2,289.4,2419.6,272.2,2419.6,246.7z M2266.6,236.8c0-52.4,41.8-68.2,90.9-74.6
				c44.5-5.6,60.3-10.2,60.3-26.4s-9.7-25.5-32.3-25.5c-24.2,0-36.1,10.7-38.4,30.6h-69.7c1.9-44,35.7-81.6,107.6-81.6
				c35.6,0,59.8,6.5,76.9,19.5c20.4,14.8,30.1,38,30.1,67.7v119.6c0,19.1,1.9,29.7,8.1,33.8v31.5h-73.3c-4.5-8.1-7.3-17.2-8.1-26.4
				h-0.9c-13.9,19.9-34.8,32.3-70.4,32.3c-47.3,0-81.2-25.5-81.2-72.7L2266.6,236.8L2266.6,236.8z M2266.6,236.8L2266.6,236.8
				L2266.6,236.8z"/>
		</g>
		<g>
			
				<linearGradient id="SVGID_1_" gradientUnits="userSpaceOnUse" x1="-924.3624" y1="1307.4122" x2="-394.7124" y2="1508.6122" gradientTransform="matrix(0.5729 0 0 0.5729 709.8098 -365.2121)">
				<stop  offset="0" style="stop-color:#EC058E"/>
				<stop  offset="7.058820e-02" style="stop-color:#EC058E"/>
				<stop  offset="1" style="stop-color:#FFFFFF"/>
			</linearGradient>
			<path class="st1" d="M315.4,243.8l17.2,22.3c0,0,103.3,151.7,155,227.5c35.7,52.5,71.4,105.1,107.1,157.6l7.6,11.7L411.5,663
				c-63.3-94-189-282.5-189-282.5l-10.8-19.8 M315.4,243.8L315.4,243.8L315.4,243.8z"/>
			
				<linearGradient id="SVGID_00000109735054020888316740000011297892254102429069_" gradientUnits="userSpaceOnUse" x1="-864.3612" y1="1051.2228" x2="-240.9113" y2="954.5328" gradientTransform="matrix(0.5729 0 0 0.5729 709.8098 -365.2121)">
				<stop  offset="0" style="stop-color:#EC058E"/>
				<stop  offset="7.058820e-02" style="stop-color:#EC058E"/>
				<stop  offset="1" style="stop-color:#FFFFFF"/>
			</linearGradient>
			<path style="fill:url(#SVGID_00000109735054020888316740000011297892254102429069_);" d="M166.8,438.2c-2.3,1.9-2.2,5-2.2,7.7
				l-2.6,8.6l-12.4-199l15.1-16.2L391.6,1.9l1.8-1.9C456.4,0.2,588,0,588,0S185.2,418.8,166.8,438.2L166.8,438.2z"/>
			<polygon class="st0" points="0,0.2 164.9,0.2 164.9,662.8 0,662.8 			"/>
		</g>
	</g>
</g>
</svg>
