<?xml version="1.0" encoding="utf-8"?>
<!-- Generator: Adobe Illustrator 27.2.0, SVG Export Plug-In . SVG Version: 6.00 Build 0)  -->
<svg version="1.1" id="Layer_1" xmlns:serif="http://www.serif.com/"
	 xmlns="http://www.w3.org/2000/svg" xmlns:xlink="http://www.w3.org/1999/xlink" x="0px" y="0px" viewBox="0 0 1080 1080"
	 style="enable-background:new 0 0 1080 1080;" xml:space="preserve">
<style type="text/css">
	.st0{fill-rule:evenodd;clip-rule:evenodd;fill:url(#SVGID_1_);}
	.st1{fill-rule:evenodd;clip-rule:evenodd;fill:url(#SVGID_00000140716298412069679490000009938288847469892256_);}
	.st2{fill-rule:evenodd;clip-rule:evenodd;fill:#4DCAED;}
	.st3{fill-rule:evenodd;clip-rule:evenodd;fill:url(#SVGID_00000096737671656744971720000010212867616833307522_);}
	.st4{fill-rule:evenodd;clip-rule:evenodd;fill:#B7BDD2;}
	.st5{fill-rule:evenodd;clip-rule:evenodd;fill:url(#SVGID_00000178164862701694680990000003246841104185765544_);}
	.st6{fill-rule:evenodd;clip-rule:evenodd;fill:#D1D1E0;}
	.st7{fill-rule:evenodd;clip-rule:evenodd;fill:url(#SVGID_00000023238651995422992690000016810797244800168892_);}
	.st8{fill-rule:evenodd;clip-rule:evenodd;fill:url(#SVGID_00000138575175681050198580000004006965748230570427_);}
	.st9{fill-rule:evenodd;clip-rule:evenodd;fill:#94A2C1;}
	.st10{fill-rule:evenodd;clip-rule:evenodd;fill:#FFFFFF;}
	.st11{fill:#FFFFFF;}
</style>
<g transform="matrix(1,0,0,1,3,0)">
	<g transform="matrix(1.30256,0,0,1.30256,292.473,-10.7761)">
		
			<linearGradient id="SVGID_1_" gradientUnits="userSpaceOnUse" x1="-226.8402" y1="837.4095" x2="-225.8402" y2="837.4095" gradientTransform="matrix(7.889585e-15 -128.8469 -128.8469 -7.889585e-15 108294.7188 -28748.9883)">
			<stop  offset="0" style="stop-color:#4B69B6"/>
			<stop  offset="1" style="stop-color:#435EA5"/>
		</linearGradient>
		<circle class="st0" cx="397.1" cy="429.2" r="49.5"/>
	</g>
	<g transform="matrix(1.30256,0,0,1.30256,292.473,-10.7761)">
		
			<linearGradient id="SVGID_00000162343377062711344340000013172079345771220638_" gradientUnits="userSpaceOnUse" x1="-226.8402" y1="837.4095" x2="-225.8402" y2="837.4095" gradientTransform="matrix(1.689240e-06 -128.8469 -128.8469 -1.689240e-06 108294.7188 -28748.9883)">
			<stop  offset="0" style="stop-color:#5773BB"/>
			<stop  offset="1" style="stop-color:#3A5290"/>
		</linearGradient>
		<path style="fill-rule:evenodd;clip-rule:evenodd;fill:url(#SVGID_00000162343377062711344340000013172079345771220638_);" d="
			M397.1,379.7c27.3,0,49.5,22.2,49.5,49.5c0,27.3-22.2,49.5-49.5,49.5s-49.5-22.2-49.5-49.5C347.7,401.9,369.8,379.7,397.1,379.7z
			 M397.1,382.8c25.6,0,46.4,20.8,46.4,46.4s-20.8,46.4-46.4,46.4s-46.4-20.8-46.4-46.4S371.5,382.8,397.1,382.8z"/>
	</g>
	<g transform="matrix(1.30256,0,0,1.30256,292.473,-10.7761)">
		<circle class="st2" cx="397.1" cy="429.2" r="37.1"/>
	</g>
	<g transform="matrix(1.30256,0,0,1.30256,292.473,-10.7761)">
		
			<linearGradient id="SVGID_00000170242248362584167010000008919414981984748434_" gradientUnits="userSpaceOnUse" x1="-226.8402" y1="837.4095" x2="-225.8402" y2="837.4095" gradientTransform="matrix(3.004616e-13 -88.5821 -88.5821 -3.004616e-13 74576.5938 -19630.7676)">
			<stop  offset="0" style="stop-color:#22B2E7"/>
			<stop  offset="1" style="stop-color:#177A9E"/>
		</linearGradient>
		
			<circle style="fill-rule:evenodd;clip-rule:evenodd;fill:url(#SVGID_00000170242248362584167010000008919414981984748434_);" cx="397.1" cy="429.2" r="34"/>
	</g>
	<g transform="matrix(1.30256,0,0,1.30256,292.473,-10.7761)">
		<circle class="st4" cx="397.1" cy="429.2" r="25.5"/>
	</g>
	<g transform="matrix(1.30256,0,0,1.30256,292.473,-10.7761)">
		
			<linearGradient id="SVGID_00000071522597312800051570000014306919567564485263_" gradientUnits="userSpaceOnUse" x1="-226.8402" y1="837.4257" x2="-225.8402" y2="837.4257" gradientTransform="matrix(1.419132e-14 -231.7616 -231.7616 -1.419132e-14 194541.8125 -52058.0508)">
			<stop  offset="0" style="stop-color:#4B69B6"/>
			<stop  offset="1" style="stop-color:#435EA5"/>
		</linearGradient>
		<path style="fill-rule:evenodd;clip-rule:evenodd;fill:url(#SVGID_00000071522597312800051570000014306919567564485263_);" d="
			M456.3,338.7c1.4,0.8,2.6,1.8,3.7,2.7c13.1,12.2,19.6,24.1,23.2,40.7c3.2,14.7,4.8,21.8-3,27.1c-10.4,7.2,11.1,38.1,15.3,47
			c-5.5,7.1-12.8,7-16.6,8.9c-2.1,1.1-1.2,5.1-0.9,8.3c0.3,3.1,3.1,5,1.6,7.3c-1.4,2.1-6.6,2.3-8.9,3.7c2.2,2.4,7,4.8,6.4,7.9
			c-0.5,2.4-5.9,2-8,7.5c-1.1,2.9-0.5,8.4-2.9,11.2c-3.5,4.2-7.1,6.1-12.3,6.6c-2.8,0.3-5.6,0-8.3-0.9c-8.7-2.8-16.7-6.9-23.9-12
			c3,0.5,6.2,1,9.6,1.3c9.9,1.1,14.8,0.1,19.6-5.5c2-2.4,1.5-7.2,2.5-9.8c1.8-4.8,6.6-4.5,7.1-6.6c0.6-2.7-3.7-4.9-5.6-7
			c2-1.3,6.6-1.4,7.8-3.3c1.4-2.1-1.1-3.8-1.4-6.5c-0.3-2.7-1.1-6.3,0.8-7.3c3.4-1.7,9.7-1.6,14.6-7.9c-3.7-7.9-22.6-35-13.5-41.3
			c6.8-4.7,5.4-11,2.6-23.9c-3.2-14.6-8.9-25.1-20.4-35.8c-2.5-2.3-6.2-4.2-10.3-5.7C441.8,342.6,448.9,340.2,456.3,338.7z"/>
	</g>
	<g transform="matrix(1.30256,0,0,1.30256,292.473,-10.7761)">
		<path class="st6" d="M477.2,336.9c2,0.1,3.9,0.2,5.9,0.3c50.8,4.6,88.2,49.6,83.6,100.3c-4.3,46.8-42.8,82.3-88.6,83.9
			c0.7-0.5,1.3-1.1,1.9-1.7c3.9-4,4.7-8.9,5.3-13.8c0.4-2.5,2.2-2.7,3.9-3.6c7-4,4-13.3,4-13.3c2-1.6,3.5-3.8,3.9-6.3
			c0.6-3.5-1.8-6.6-2.3-10.6c1-0.3,1.9-0.6,2.9-0.9c7.9-2.6,18.6-8.8,14.5-17.3c-4.5-9.4-10.8-18.2-14.9-28
			c-1.6-3.8-3.4-7.6-2.8-11.2c7.7-5.5,9.2-14.5,8.1-22.6C499.8,370.8,491.6,351.4,477.2,336.9z"/>
	</g>
	<g transform="matrix(1.30256,0,0,1.30256,292.473,-10.7761)">
		
			<linearGradient id="SVGID_00000012436004302406447050000017434361299187617182_" gradientUnits="userSpaceOnUse" x1="-226.8402" y1="837.33" x2="-225.8402" y2="837.33" gradientTransform="matrix(1.067156e-14 -174.2799 -174.2799 -1.067156e-14 146456.875 -39042.4102)">
			<stop  offset="0" style="stop-color:#A7B1CD"/>
			<stop  offset="0.46" style="stop-color:#C8CBDC"/>
			<stop  offset="1" style="stop-color:#D1D2E0"/>
		</linearGradient>
		<path style="fill-rule:evenodd;clip-rule:evenodd;fill:url(#SVGID_00000012436004302406447050000017434361299187617182_);" d="
			M498.5,350.5c12.4,4.7,23.8,11.8,33,21.2c17.5,18.1,27.9,44.3,22.8,68.8c-4.8,23.2-24.9,42.5-38.2,48.5
			c-6.4,2.8-11.6,2.4-11.5,1.7s0.8-2.4,4.8-7.2c14.3-17.3,22.7-42.4,10.2-62.1c-2.5-4-5.7-7.4-9.2-10.2c2.8-5.3,3.3-11.6,2.5-17.5
			C510.8,378,506.1,363.3,498.5,350.5z"/>
	</g>
	<g transform="matrix(1.30256,0,0,1.30256,292.473,-10.7761)">
		
			<linearGradient id="SVGID_00000002342819303975164980000012193359876257707681_" gradientUnits="userSpaceOnUse" x1="-226.8402" y1="837.456" x2="-225.8402" y2="837.456" gradientTransform="matrix(62.28 -194.5466 -194.5466 -62.28 177442.1719 8477.5049)">
			<stop  offset="0" style="stop-color:#B7BDD2"/>
			<stop  offset="1" style="stop-color:#607BB6"/>
		</linearGradient>
		<path style="fill-rule:evenodd;clip-rule:evenodd;fill:url(#SVGID_00000002342819303975164980000012193359876257707681_);" d="
			M472.6,302.3c-44.9,24.5-75.4,72.2-75.4,126.9c0,8.7,0.8,17.2,2.2,25.4c-0.7,0.1-1.5,0.1-2.2,0.1c-14.1,0-25.5-11.4-25.5-25.5
			c0-42.3,15.5-81,41.1-110.8C430.5,308.5,450.9,302.6,472.6,302.3z"/>
	</g>
	<g transform="matrix(1.30256,0,0,1.30256,292.473,-10.7761)">
		<path class="st9" d="M412.7,318.4c18.4-10.3,39.5-16.2,62.1-16.2c70.1,0,127,56.9,127,127c0,67.9-61.6,130.5-153.3,110.4l-0.2-0.2
			c54.8,5.8,95.2-16.5,117.1-49.1l0.1-0.2c11.7-17.4,18.6-38.4,18.6-60.9v0c0-60.3-49-109.3-109.3-109.3c-39.5,0-74.2,21-93.4,52.4
			C388.5,352.4,399.2,334.2,412.7,318.4z"/>
	</g>
	<g transform="matrix(1.30256,0,0,1.30256,292.473,-10.7761)">
		<path class="st4" d="M474.8,302.2c70.1,0,127,56.9,127,127c0,27.2-9.9,53.6-27.7,74.1c15.5-20.7,24.6-46.3,24.6-74.1
			c0-68.4-55.5-123.9-123.9-123.9c-25,0-48.4,7.4-67.8,20.2c1.9-2.4,3.8-4.8,5.8-7.1c7.7-4.3,16-7.9,24.6-10.6l0,0l0.9-0.3l0,0
			l1-0.3l1-0.3l0,0l0.9-0.3l0.1,0l0.9-0.3c0.3-0.1,0.7-0.2,1-0.3l0.9-0.2l0.1,0l0.8-0.2l0.1,0l0.9-0.2l0.9-0.2l0.1,0l0.8-0.2l0.2,0
			l0.9-0.2l0.1,0l1-0.2l0.1,0l0.8-0.2l0.2,0l0.8-0.1l0.2,0l0.9-0.2l0.9-0.2l0.2,0l0.7-0.1l0.3,0l0.8-0.1l0.2,0l0.9-0.1l0.2,0
			l0.8-0.1l0.3,0l0.7-0.1l0.3,0l0.9-0.1l0.9-0.1l0.3,0l0.7-0.1l0.3,0l0.7-0.1l0.2,0l0.9-0.1l0.2,0l0.7-0.1l0.3,0l0.7,0l0.3,0
			l0.9-0.1l0.9,0l0.3,0l0.7,0l0.3,0l0.7,0l0.2,0l0.9,0l0.2,0l0.7,0l0.3,0l0.7,0l0.3,0L474.8,302.2z"/>
	</g>
</g>
<g transform="matrix(1,0,0,1,-3.293,0)">
	<g transform="matrix(3.27163,0,0,3.27164,-1629.99,-1218.34)">
		<path class="st10" d="M505.7,520.8h4.6v5.7h-2.2c-1,0-1.6,0.2-1.9,0.5c-0.3,0.3-0.4,0.9-0.5,2v31h0c-1.8,0-3.8-0.3-5-1.5
			c-1.2-1.2-1.5-3.6-1.5-4.9v-43.8h6.5V520.8z"/>
	</g>
	<g transform="matrix(84.4972,0,0,84.4975,20.8367,93.2258)">
		<path class="st11" d="M0.6,5.5v0.3c0,0,0,0.1,0,0.1c0,0,0,0,0.1,0c0,0,0.1,0,0.1,0c0,0,0,0,0-0.1V5.6h0.2v0.2c0,0.1,0,0.1,0,0.2
			c0,0,0,0.1-0.1,0.1c0,0-0.1,0-0.1,0c0,0-0.1,0-0.2,0c-0.1,0-0.1,0-0.2,0c0,0-0.1,0-0.1,0c0,0,0-0.1-0.1-0.1c0,0,0-0.1,0-0.2V5
			c0-0.1,0-0.1,0-0.2c0,0,0-0.1,0.1-0.1c0,0,0.1,0,0.1,0c0,0,0.1,0,0.2,0c0.1,0,0.1,0,0.2,0c0,0,0.1,0,0.1,0c0,0,0,0.1,0.1,0.1
			c0,0,0,0.1,0,0.2v0.5H0.6z M0.6,5.3h0.2V5c0,0,0-0.1,0-0.1c0,0,0,0-0.1,0c0,0-0.1,0-0.1,0c0,0,0,0,0,0.1V5.3z"/>
	</g>
	<g transform="matrix(84.4972,0,0,84.4975,50.3267,93.2258)">
		<path class="st11" d="M1.2,6.2c-0.1,0-0.1,0-0.2,0c0,0-0.1,0-0.1,0c0,0,0,0,0-0.1c0,0,0-0.1,0-0.2V5.5c0-0.1,0-0.2,0.1-0.2
			c0,0,0.1-0.1,0.2-0.1h0c0.1,0,0.1,0,0.1,0c0,0,0,0,0.1,0V5c0-0.1,0-0.1,0-0.1c0,0,0,0-0.1,0c0,0-0.1,0-0.1,0c0,0,0,0.1,0,0.1v0.1
			H0.9V5c0-0.1,0-0.1,0-0.2c0,0,0-0.1,0-0.1c0,0,0.1,0,0.1,0s0.1,0,0.2,0c0.1,0,0.1,0,0.2,0s0.1,0,0.1,0c0,0,0,0.1,0.1,0.1
			s0,0.1,0,0.2v1.2c0,0-0.1,0-0.1,0C1.4,6.2,1.3,6.2,1.2,6.2z M1.2,6C1.3,6,1.3,6,1.2,6l0.1-0.5c0,0,0,0,0,0s0,0-0.1,0
			c0,0,0,0-0.1,0c0,0,0,0,0,0c0,0,0,0,0,0s0,0,0,0.1v0.2c0,0,0,0.1,0,0.1s0,0,0,0C1.2,5.9,1.2,5.9,1.2,6C1.2,6,1.2,6,1.2,6z"/>
	</g>
	<g transform="matrix(84.4972,0,0,84.4975,80.1531,93.2258)">
		<path class="st11" d="M1.7,6.1H1.4V4.7h0.2v0.1c0,0,0-0.1,0.1-0.1c0,0,0.1,0,0.2,0c0.1,0,0.1,0,0.1,0c0,0,0.1,0,0.1,0.1
			c0,0,0.1-0.1,0.1-0.1c0,0,0.1,0,0.1,0c0,0,0.1,0,0.1,0c0,0,0.1,0,0.1,0c0,0,0,0.1,0,0.1c0,0,0,0.1,0,0.1v1.2H2.4V5
			c0,0,0-0.1,0-0.1c0,0,0,0-0.1,0c0,0-0.1,0-0.1,0c0,0,0,0,0,0.1v1.2H1.9V5c0,0,0-0.1,0-0.1c0,0,0,0-0.1,0c0,0-0.1,0-0.1,0
			c0,0,0,0,0,0.1V6.1z"/>
	</g>
	<g transform="matrix(84.4972,0,0,84.4975,128.487,93.2258)">
		<path class="st11" d="M2.7,5.1V5c0,0,0-0.1,0-0.1c0,0,0,0-0.1,0c0,0-0.1,0-0.1,0c0,0,0,0,0,0.1v0.1c0,0,0,0,0,0.1c0,0,0,0,0,0
			c0,0,0,0,0,0c0,0,0,0,0.1,0c0,0,0,0,0,0l0.1,0c0,0,0,0,0,0c0,0,0.1,0,0.1,0.1s0,0,0,0.1c0,0,0,0,0,0.1s0,0,0,0.1v0.3
			c0,0.1,0,0.1,0,0.2c0,0,0,0.1-0.1,0.1c0,0-0.1,0-0.1,0c0,0-0.1,0-0.2,0c-0.1,0-0.1,0-0.2,0s-0.1,0-0.1,0s0-0.1-0.1-0.1
			c0,0,0-0.1,0-0.2V5.6h0.2v0.2c0,0,0,0.1,0,0.1c0,0,0,0,0.1,0c0,0,0.1,0,0.1,0c0,0,0,0,0-0.1V5.6c0,0,0,0,0,0c0,0,0,0,0,0
			c0,0,0,0,0,0c0,0,0,0-0.1,0c0,0,0,0-0.1,0c0,0,0,0,0,0c0,0,0,0,0,0c0,0,0,0-0.1,0c0,0-0.1,0-0.1,0s0,0,0-0.1c0,0,0,0,0-0.1
			c0,0,0-0.1,0-0.1V5c0-0.1,0-0.1,0-0.2c0,0,0-0.1,0.1-0.1c0,0,0.1,0,0.1,0c0,0,0.1,0,0.2,0c0.1,0,0.1,0,0.2,0c0,0,0.1,0,0.1,0
			c0,0,0,0.1,0.1,0.1c0,0,0,0.1,0,0.2v0.1H2.7z"/>
	</g>
	<g transform="matrix(84.4972,0,0,84.4975,158.397,93.2258)">
		<path class="st11" d="M3.5,5.8c0,0.1,0,0.1,0,0.1c0,0,0,0.1,0,0.1s0,0-0.1,0c0,0-0.1,0-0.1,0c-0.1,0-0.1,0-0.1,0
			c0,0-0.1,0-0.1-0.1v0.5H2.8V4.7H3v0.1c0,0,0.1-0.1,0.1-0.1c0,0,0.1,0,0.1,0c0,0,0.1,0,0.1,0c0,0,0.1,0,0.1,0c0,0,0,0.1,0,0.1
			c0,0,0,0.1,0,0.1V5.8z M3,5.8C3,5.9,3.1,5.9,3,5.8c0.1,0.1,0.1,0.1,0.1,0.1c0,0,0.1,0,0.1,0c0,0,0,0,0-0.1V5c0,0,0-0.1,0-0.1
			c0,0,0,0-0.1,0c0,0-0.1,0-0.1,0c0,0,0,0,0,0.1V5.8z"/>
	</g>
	<g transform="matrix(84.4972,0,0,84.4975,189.323,93.2258)">
		<path class="st11" d="M3.5,5.5v0.3c0,0,0,0.1,0,0.1c0,0,0,0,0.1,0c0,0,0.1,0,0.1,0c0,0,0,0,0-0.1V5.6H4v0.2C4,5.9,4,6,4,6
			c0,0,0,0.1-0.1,0.1s-0.1,0-0.1,0c0,0-0.1,0-0.2,0c-0.1,0-0.1,0-0.2,0s-0.1,0-0.1,0c0,0,0-0.1-0.1-0.1c0,0,0-0.1,0-0.2V5
			c0-0.1,0-0.1,0-0.2c0,0,0-0.1,0.1-0.1c0,0,0.1,0,0.1,0s0.1,0,0.2,0c0.1,0,0.1,0,0.2,0c0,0,0.1,0,0.1,0S4,4.7,4,4.8
			c0,0,0,0.1,0,0.2v0.5H3.5z M3.5,5.3h0.2V5c0,0,0-0.1,0-0.1c0,0,0,0-0.1,0c0,0-0.1,0-0.1,0c0,0,0,0,0,0.1V5.3z"/>
	</g>
	<g transform="matrix(84.4972,0,0,84.4975,218.815,93.2258)">
		<path class="st11" d="M4.1,6.2c-0.1,0-0.1,0-0.2,0c0,0-0.1,0-0.1,0c0,0,0,0,0-0.1c0,0,0-0.1,0-0.2V5.5c0-0.1,0-0.2,0.1-0.2
			c0,0,0.1-0.1,0.2-0.1h0c0.1,0,0.1,0,0.1,0c0,0,0,0,0.1,0V5c0-0.1,0-0.1,0-0.1c0,0,0,0-0.1,0c0,0-0.1,0-0.1,0c0,0,0,0.1,0,0.1v0.1
			H3.8V5c0-0.1,0-0.1,0-0.2c0,0,0-0.1,0-0.1s0.1,0,0.1,0s0.1,0,0.2,0c0.1,0,0.1,0,0.2,0c0,0,0.1,0,0.1,0c0,0,0,0.1,0.1,0.1
			s0,0.1,0,0.2v1.2c0,0-0.1,0-0.1,0C4.3,6.2,4.2,6.2,4.1,6.2z M4.1,6C4.2,6,4.2,6,4.1,6l0.1-0.5c0,0,0,0,0,0s0,0-0.1,0
			c0,0,0,0-0.1,0c0,0,0,0,0,0c0,0,0,0,0,0c0,0,0,0,0,0.1v0.2c0,0,0,0.1,0,0.1c0,0,0,0,0,0C4.1,5.9,4.1,5.9,4.1,6C4.1,6,4.1,6,4.1,6z
			"/>
	</g>
	<g transform="matrix(84.4972,0,0,84.4975,248.64,93.2258)">
		<path class="st11" d="M4.8,6.1L4.6,5.4h0v0.8H4.3V4.2h0.2v1h0l0.2-0.5h0.3L4.8,5.3l0.3,0.9H4.8z"/>
	</g>
</g>
</svg>
