<?xml version="1.0" encoding="utf-8"?>
<!-- Generator: Adobe Illustrator 27.2.0, SVG Export Plug-In . SVG Version: 6.00 Build 0)  -->
<svg version="1.1" id="Layer_1" xmlns="http://www.w3.org/2000/svg" xmlns:xlink="http://www.w3.org/1999/xlink" x="0px" y="0px"
	 viewBox="0 0 256 133" style="enable-background:new 0 0 256 133;" xml:space="preserve">
<style type="text/css">
	.st0{fill:#FFFFFF;}
	.st1{fill-rule:evenodd;clip-rule:evenodd;fill:#FFFFFF;}
</style>
<path class="st0" d="M0,120.8h8.4V87.5l13.1,29c1.5,3.5,3.6,4.8,7.8,4.8s6.2-1.2,7.7-4.8l13.1-29v33.3h8.4V87.6c0-3.2-1.3-4.8-4-5.6
	c-6.4-2-10.7-0.3-12.6,4.1L29,114.7L16.6,86c-1.9-4.3-6.2-6.1-12.6-4.1c-2.7,0.8-4,2.4-4,5.6V120.8z M65.5,93.7h8.4v18.4
	c-0.1,1,0.3,3.3,4.9,3.4c2.4,0,18.2,0,18.3,0V93.6h8.5c0,0,0,29.8,0,29.9c0,7.3-9.1,8.9-13.3,9.1H65.7v-5.7l26.7,0
	c5.4-0.6,4.8-3.3,4.8-4.2v-2.2H79.2c-8.3-0.1-13.7-3.7-13.7-7.9C65.5,112.3,65.7,93.9,65.5,93.7L65.5,93.7z"/>
<path class="st0" d="M112.1,120.8h24.2c2.8,0,5.6-0.6,7.8-1.6c3.7-1.7,5.4-3.9,5.4-6.9v-6.2c0-2.4-2-4.7-6-6.2
	c-2.1-0.8-4.7-1.2-7.2-1.2h-10.2c-3.4,0-5-1-5.4-3.3c-0.1-0.3-0.1-0.5-0.1-0.8v-3.8c0-0.2,0-0.4,0.1-0.7c0.4-1.7,1.3-2.2,4.3-2.5
	c0.2,0,0.6-0.1,0.8-0.1h24.1v-5.6h-23.7c-3.4,0-5.2,0.2-6.8,0.7c-5,1.6-7.2,4.1-7.2,8.4v4.9c0,3.8,4.3,7,11.5,7.8
	c0.8,0.1,1.6,0.1,2.4,0.1h8.8c0.3,0,0.6,0,0.9,0.1c2.7,0.2,3.8,0.7,4.6,1.7c0.5,0.5,0.6,1,0.6,1.5v4.9c0,0.6-0.4,1.4-1.2,2
	c-0.7,0.6-1.9,1.1-3.6,1.2c-0.3,0-0.6,0.1-0.9,0.1h-23.3L112.1,120.8L112.1,120.8z M202.2,111c0,5.8,4.3,9,13,9.7
	c0.8,0.1,1.6,0.1,2.4,0.1h22v-5.6h-22.1c-4.9,0-6.8-1.2-6.8-4.2V81.9h-8.4L202.2,111L202.2,111z M155,111.3v-20
	c0-5.1,3.6-8.2,10.6-9.2c0.8-0.1,1.5-0.2,2.3-0.2h16c0.8,0,1.6,0.1,2.4,0.2c7.1,1,10.6,4.1,10.6,9.2v20c0,4.1-1.5,6.3-5,7.8l8.3,7.5
	h-9.8l-6.7-6.1l-6.8,0.4h-9c-1.5,0-3.2-0.2-5-0.7C157.6,118.8,155,116,155,111.3L155,111.3z M164.1,110.8c0,0.3,0.1,0.5,0.2,0.9
	c0.5,2.3,2.7,3.6,6,3.6h7.7l-7-6.4h9.8l6.1,5.5c1.1-0.6,1.9-1.5,2.1-2.7c0.1-0.3,0.1-0.5,0.1-0.8V91.8c0-0.2,0-0.5-0.1-0.8
	c-0.5-2.2-2.7-3.4-5.9-3.4h-12.7c-3.8,0-6.2,1.6-6.2,4.2L164.1,110.8L164.1,110.8z"/>
<g>
	<path class="st0" d="M247,72.6c-5.2-0.1-9.1,0.3-12.5,1.8c-1,0.4-2.5,0.4-2.7,1.6c0.5,0.6,0.6,1.4,1,2.1c0.8,1.3,2.2,3.1,3.4,4
		c1.3,1,2.7,2.1,4.1,2.9c2.5,1.5,5.4,2.4,7.8,4c1.4,0.9,2.9,2.1,4.3,3.1c0.7,0.5,1.2,1.3,2.1,1.6v-0.1c-0.5-0.6-0.6-1.4-1-2.1
		l-1.9-1.9c-1.9-2.5-4.3-4.7-6.8-6.5c-2-1.4-6.5-3.4-7.4-5.8l-0.1-0.1c1.4-0.2,3.1-0.7,4.4-1c2.2-0.6,4.2-0.4,6.5-1l3.1-0.9v-0.6
		c-1.2-1.2-2-2.8-3.2-3.8c-3.3-2.8-6.9-5.6-10.6-8c-2.1-1.3-4.6-2.1-6.8-3.2c-0.7-0.4-2-0.6-2.5-1.2c-1.1-1.5-1.8-3.3-2.7-5
		c-1.9-3.6-3.7-7.5-5.3-11.2c-1.1-2.6-1.8-5.1-3.2-7.4c-6.7-11-13.9-17.6-25.1-24.2c-2.4-1.4-5.2-1.9-8.3-2.7l-4.9-0.3
		c-1-0.4-2-1.6-2.9-2.2c-3.7-2.3-13.2-7.4-15.9-0.8c-1.7,4.2,2.6,8.3,4.1,10.5c1.1,1.5,2.5,3.2,3.2,4.9c0.5,1.1,0.6,2.2,1,3.4
		c1.1,2.9,2,6,3.4,8.7c0.7,1.3,1.5,2.8,2.4,4c0.5,0.7,1.5,1.1,1.6,2.2c-0.9,1.3-1,3.2-1.5,4.9c-2.3,7.3-1.4,16.3,1.9,21.7
		c1,1.7,3.4,5.2,6.8,3.8c2.9-1.2,2.3-4.9,3.1-8.1c0.2-0.7,0.1-1.3,0.4-1.8V58l2.7,5.3c2,3.2,5.4,6.5,8.4,8.7
		c1.5,1.2,2.8,3.2,4.7,3.8v-0.1h-0.1c-0.4-0.6-1-0.8-1.5-1.3c-1.2-1.1-2.4-2.5-3.4-3.8c-2.7-3.6-5.1-7.6-7.2-11.8
		c-1-2-1.9-4.2-2.8-6.2c-0.3-0.8-0.3-2-1-2.4c-1,1.5-2.4,2.7-3.1,4.4c-1.2,2.8-1.3,6.2-1.8,9.7c-0.3,0.1-0.1,0-0.3,0.1
		c-2.1-0.5-2.8-2.6-3.5-4.4c-1.9-4.6-2.3-12-0.6-17.2c0.4-1.4,2.4-5.7,1.6-6.9c-0.4-1.3-1.6-2-2.4-3c-0.9-1.2-1.8-2.8-2.4-4.1
		c-1.6-3.6-2.3-7.6-4-11.2c-0.8-1.7-2.1-3.5-3.2-5c-1.2-1.7-2.6-3-3.5-5c-0.3-0.7-0.8-1.9-0.3-2.7c0.1-0.4,0.4-0.8,0.9-0.9
		c0.9-0.7,3.2,0.2,4.1,0.6c2.4,1,4.3,1.9,6.3,3.2c1,0.6,1.9,1.9,3.1,2.2h1.3c2.1,0.5,4.4,0.1,6.3,0.7c3.4,1,6.5,2.7,9.3,4.4
		c8.5,5.4,15.4,13,20.2,22.1c0.8,1.5,1.1,2.9,1.8,4.4c1.4,3.1,3.1,6.4,4.4,9.4c1.4,3.1,2.7,6.2,4.6,8.7c1,1.3,4.9,2.1,6.6,2.8
		c1.2,0.5,3.3,1.1,4.4,1.8c2.2,1.3,4.4,3,6.5,4.4C243.7,69.7,246.9,71.3,247,72.6L247,72.6z"/>
	<path class="st1" d="M181.1,16.4c-1.1,0-1.8,0.1-2.7,0.3v0.1h0.1c0.5,1.1,1.4,1.7,2.1,2.7l1.5,3.1l0.1-0.1c0.9-0.6,1.3-1.7,1.3-3.2
		c-0.4-0.4-0.4-0.9-0.7-1.3C182.5,17.3,181.7,16.9,181.1,16.4L181.1,16.4z"/>
</g>
<path class="st1" d="M243.6,115c0,3.7,2.9,6.2,6.2,6.2s6.2-2.5,6.2-6.2s-2.9-6.2-6.2-6.2S243.6,111.3,243.6,115z M254.6,115
	c0,2.8-2.2,4.9-4.8,4.9c-2.7,0-4.8-2.1-4.8-4.9s2.1-4.9,4.8-4.9C252.4,110.1,254.6,112.2,254.6,115z M251.5,118.6h1.4l-2-3.1
	c1.1-0.1,1.9-0.6,1.9-1.9c0-1.4-0.9-2-2.7-2h-2.8v7.1h1.2v-3.1h1.1L251.5,118.6L251.5,118.6z M248.5,114.5v-2h1.4
	c0.7,0,1.6,0.1,1.6,1c0,1-0.8,1.1-1.7,1.1L248.5,114.5L248.5,114.5z"/>
</svg>
