<svg width="255" height="52" viewBox="0 0 255 52" fill="none" xmlns="http://www.w3.org/2000/svg">
<g clip-path="url(#clip0_805_1043)">
<path d="M230.707 21.0032L234.573 14.6728L232.428 7.875H85.0589L84.3691 12.8353L83.0034 7.875H48.6587L47.4758 12.5455H44.6206L43.9435 15.129L40.1522 7.875H28.9599L20.4297 34.9168L27.2269 44.1249H38.4049L39.7725 39.016H44.2871L47.3145 44.1249H81.8179L82.6397 38.1997L84.5492 44.1249H199.824L204.49 34.5732H208.711L212.63 26.9966L216.816 44.1251H228.42L234.844 34.9021L230.707 21.0032ZM131.106 27.4184L131.12 24.1906H141.035L141.135 27.4184H131.106Z" fill="black"/>
<path d="M28.1983 42.2449L22.5352 34.5732H31.676L36.8601 42.245L28.1983 42.2449Z" fill="#3D3938"/>
<path d="M65.1873 34.5732H56.0469L59.9553 42.245H68.6172L65.1873 34.5732Z" fill="#3D3938"/>
<path d="M68.2305 34.5732L71.5008 42.245H80.1628L77.3709 34.5732H68.2305Z" fill="#3D3938"/>
<path d="M95.6562 34.5732L97.4909 42.245H117.702L116.984 34.5732H95.6562Z" fill="#3D3938"/>
<path d="M141.355 34.5732L140.797 42.245H120.586L120.027 34.5732H141.355Z" fill="#3D3938"/>
<path d="M144.405 34.5732H153.545L152.349 42.245H143.688L144.405 34.5732Z" fill="#3D3938"/>
<path d="M156.594 34.5732L155.238 42.245H163.9L165.734 34.5732H156.594Z" fill="#3D3938"/>
<path d="M168.779 34.5732L166.785 42.2449L175.447 42.245L177.919 34.5732H168.779Z" fill="#3D3938"/>
<path d="M180.968 34.5732L178.336 42.245H186.998L190.108 34.5732H180.968Z" fill="#3D3938"/>
<path d="M193.152 34.5732L189.883 42.245H198.545L202.293 34.5732H193.152Z" fill="#3D3938"/>
<path d="M223.623 34.5732L218.758 42.245H227.42L232.763 34.5732H223.623Z" fill="#3D3938"/>
<path d="M83.4688 34.5732L85.9415 42.245H94.6035L92.6092 34.5732H83.4688Z" fill="#3D3938"/>
<path d="M43.8633 34.5732H53.004L57.0714 42.245H48.4094L43.8633 34.5732Z" fill="#3D3938"/>
<path d="M46.4924 24.1906H43.5378L42.1989 29.2982H36.199L37.6285 24.1906H34.674L31.6756 34.5734H22.5352L30.3639 9.75488H38.8428L37.4941 14.4254H40.3618L39.0156 19.2352H44.8367L46.0975 14.4254H48.9652L50.1481 9.75488H58.6274L53.0034 34.5734H43.8632L46.4924 24.1906Z" fill="#D0C5C0"/>
<path d="M61.4498 9.75488H69.9287L65.1873 34.5734H56.0469L61.4498 9.75488Z" fill="#D0C5C0"/>
<path d="M98.1924 9.75488H117.977L117.79 14.4254H106.319L105.955 19.2352H117.597L117.399 24.1906H105.581L105.195 29.2982H117.195L116.984 34.5734H95.6562L98.1924 9.75488Z" fill="#D0C5C0"/>
<path d="M120.799 9.75488H140.583L140.728 14.4254H129.258L129.193 29.2982H141.192L141.356 34.5734H120.027L120.799 9.75488Z" fill="#D0C5C0"/>
<path d="M155.81 24.1902H152.855L153.547 34.573H144.407L143.414 9.75439H163.198L164.167 19.2347H161.257L161.486 21.6938H164.418L165.734 34.5725H156.594L155.81 24.1902ZM152.204 14.4247L152.525 19.2345H155.436L155.072 14.4247H152.204Z" fill="#D0C5C0"/>
<path d="M188.633 9.75488H208.417L209.558 14.4254H198.087L199.091 19.2352H210.733L211.944 24.1906H200.126L202.294 34.5734H193.153L188.633 9.75488Z" fill="#D0C5C0"/>
<path d="M218.161 14.4254H212.425L211.242 9.75488H231.026L232.5 14.4254H226.764L232.761 34.5734H223.621L218.161 14.4254Z" fill="#D0C5C0"/>
<path d="M84.546 26.7249H81.5688L82.3064 21.6943H79.3738L77.3712 34.573H68.2305L72.7516 9.75488H81.2311L80.5043 14.4254H83.3721L82.6669 19.2352H85.5775L86.8832 9.75488H95.3621L92.6054 34.5734H83.465L84.546 26.7249Z" fill="#D0C5C0"/>
<path d="M185.808 9.75488H166.023L168.78 34.5734H177.921L176.84 26.7249H179.817L180.968 34.5734H190.108L185.808 9.75488ZM179.144 18.829H180.597L181.287 23.3543H179.322L179.079 21.6943H176.147L176.376 23.3543H174.41L173.814 18.829H175.267L175.102 17.6162H171.723L171.322 14.4256H175.145L175.529 17.214H178.422L178.013 14.4256H181.837L182.342 17.6162H178.964L179.144 18.829Z" fill="#D0C5C0"/>
</g>
<defs>
<clipPath id="clip0_805_1043">
<rect width="214.415" height="36.25" fill="white" transform="translate(20.4297 7.875)"/>
</clipPath>
</defs>
</svg>
