<svg width="198" height="52" viewBox="0 0 198 52" fill="none" xmlns="http://www.w3.org/2000/svg">
<path d="M62.3594 28.5667C62.3594 23.3216 66.1962 19.5513 71.4746 19.5513C76.753 19.5513 80.5898 23.3216 80.5898 28.5667C80.5898 33.8118 76.753 37.5821 71.4746 37.5821C66.2295 37.5821 62.3594 33.8118 62.3594 28.5667ZM76.7752 28.5667C76.7752 25.2954 74.6683 22.8226 71.4635 22.8226C68.2588 22.8226 66.1851 25.2954 66.1851 28.5667C66.1851 31.8047 68.2588 34.3109 71.4635 34.3109C74.6683 34.2776 76.7752 31.8047 76.7752 28.5667Z" fill="#1D1D1B"/>
<path d="M82.0039 34.8104L84.011 31.9716C85.2419 33.2358 87.1492 34.3114 89.5556 34.3114C91.596 34.3114 92.594 33.3799 92.594 32.3708C92.594 29.2991 82.5473 31.4061 82.5473 24.8302C82.5473 21.9249 85.0534 19.5186 89.1564 19.5186C91.9286 19.5186 94.2241 20.3502 95.9651 21.9582L93.8914 24.6639C92.4942 23.3665 90.5869 22.7566 88.8237 22.7566C87.2269 22.7566 86.3508 23.4552 86.3508 24.4865C86.3508 27.2587 96.3643 25.3847 96.3643 31.894C96.3643 35.0987 94.091 37.5051 89.3892 37.5051C86.0514 37.5716 83.6451 36.4405 82.0039 34.8104Z" fill="#1D1D1B"/>
<path d="M114.05 37.2716V25.0625L109.149 37.2827H107.507L102.606 25.0625V37.2827H98.9023V19.8174H104.114L108.35 30.3631L112.586 19.8174H117.831V37.2384H114.061V37.2716H114.05Z" fill="#1D1D1B"/>
<path d="M120.395 28.5667C120.395 23.3216 124.231 19.5513 129.51 19.5513C134.788 19.5513 138.625 23.3216 138.625 28.5667C138.625 33.8118 134.788 37.5821 129.51 37.5821C124.231 37.571 120.395 33.8008 120.395 28.5667ZM134.81 28.5667C134.81 25.2954 132.703 22.8226 129.499 22.8226C126.294 22.8226 124.231 25.2954 124.231 28.5667C124.231 31.8047 126.305 34.3109 129.499 34.3109C132.703 34.2776 134.81 31.8047 134.81 28.5667Z" fill="#1D1D1B"/>
<path d="M140.047 34.8104L142.054 31.9716C143.285 33.2358 145.192 34.3114 147.599 34.3114C149.639 34.3114 150.637 33.3799 150.637 32.3708C150.637 29.2991 140.59 31.4061 140.59 24.8302C140.59 21.9249 143.096 19.5186 147.199 19.5186C149.972 19.5186 152.267 20.3502 154.008 21.9582L151.934 24.6639C150.537 23.3665 148.63 22.7566 146.867 22.7566C145.27 22.7566 144.394 23.4552 144.394 24.4865C144.394 27.2587 154.407 25.3847 154.407 31.894C154.407 35.0987 152.134 37.5051 147.432 37.5051C144.083 37.5716 141.688 36.4405 140.047 34.8104Z" fill="#1D1D1B"/>
<path d="M156.898 37.2716V19.8174H160.635V37.2384H156.898V37.2716Z" fill="#1D1D1B"/>
<path d="M162.91 34.8104L164.917 31.9716C166.148 33.2358 168.055 34.3114 170.462 34.3114C172.502 34.3114 173.5 33.3799 173.5 32.3708C173.5 29.2991 163.454 31.4061 163.454 24.8302C163.454 21.9249 165.96 19.5186 170.063 19.5186C172.835 19.5186 175.13 20.3502 176.871 21.9582L174.798 24.6639C173.4 23.3665 171.493 22.7566 169.73 22.7566C168.133 22.7566 167.257 23.4552 167.257 24.4865C167.257 27.2587 177.271 25.3847 177.271 31.894C177.271 35.0987 174.997 37.5051 170.295 37.5051C166.913 37.5716 164.507 36.4405 162.91 34.8104Z" fill="#1D1D1B"/>
<path d="M55.7794 13.4413C55.3801 11.9221 54.116 10.3918 51.8205 8.70626C49.9798 7.35339 48.0392 6.57715 46.4867 6.57715C46.1762 6.57715 45.899 6.61042 45.6106 6.66586C44.9009 6.81002 44.28 7.33121 43.8918 8.10745C43.415 9.02784 43.3041 10.2587 43.6146 11.0128C43.7255 11.2457 43.8697 11.534 44.036 11.789C42.539 12.7094 41.6962 12.9645 41.5742 12.9977C45.4665 14.3173 48.7156 17.0785 50.756 20.6714L50.7893 20.3276C50.878 19.3851 51.1552 18.2872 51.5544 17.1672C51.9536 17.2781 52.3417 17.3447 52.7409 17.3447C53.7833 17.3447 54.6926 16.9122 55.2582 16.1359C55.8015 15.3375 56.0344 14.3062 55.7794 13.4413Z" fill="#5E12A0"/>
<path d="M51.7093 16.3137C54.282 17.0345 55.3244 15.0163 54.9806 13.6745C54.6147 12.3217 53.4281 10.9466 51.3323 9.39415C49.2475 7.84167 47.1295 7.2096 45.7656 7.49791C44.4127 7.78623 44.0135 9.88207 44.3573 10.6916C44.5014 11.0021 44.8119 11.4678 45.2333 11.989C44.701 12.366 44.1909 12.6543 43.7695 12.9094C46.3644 14.0848 48.6266 15.9256 50.3232 18.2211C50.5228 17.4448 50.8 16.7573 51.0551 16.1474C51.2547 16.1696 51.4764 16.225 51.7093 16.3137Z" fill="url(#paint0_radial_805_1243)"/>
<path d="M36.9901 44.469C45.7061 44.469 52.781 37.2833 52.781 28.412C52.781 19.5407 45.7172 12.355 36.9901 12.355C28.2741 12.355 21.1992 19.5407 21.1992 28.412C21.1992 37.2833 28.2741 44.469 36.9901 44.469Z" fill="url(#paint1_radial_805_1243)"/>
<path opacity="0.6" d="M53.6795 12.3437C51.5283 10.0483 49.7207 9.43838 47.5473 8.95046C45.8506 8.55125 46.3053 7.57541 48.3679 7.77501C47.3809 7.43125 46.4495 7.34254 45.773 7.4867C44.4201 7.77501 44.0209 9.87085 44.3647 10.6804C44.5089 10.9908 44.8194 11.4566 45.2407 11.9778C44.4756 12.499 43.8324 12.8649 43.2891 13.1532C43.5441 13.2641 43.8546 13.4083 44.2205 13.6079C45.1853 14.1291 46.2277 14.9829 46.2277 14.9829C44.6419 13.6079 44.9857 12.9758 47.1592 11.4233C47.8356 10.9354 49.0776 10.9909 50.2419 11.6008C51.4063 12.2107 52.7591 13.7299 52.7591 13.7299L51.4617 16.2582C51.5504 16.2914 51.6281 16.3136 51.7168 16.3469C52.5374 16.5798 53.1805 16.5243 53.6906 16.3136C54.2784 15.9366 55.8308 14.6724 53.6795 12.3437Z" fill="#A98698"/>
<path d="M47.5273 10.3362C48.0928 10.5691 48.8247 10.9683 49.734 11.5671C50.8096 12.2879 51.7411 13.0863 52.3288 13.7184C51.3419 15.038 50.6876 16.8456 50.2995 18.1097C50.4991 18.398 50.7209 18.6863 50.9205 18.9747C51.1201 18.2539 51.4528 17.1893 51.9074 16.1358C52.0183 16.1691 52.1625 16.1691 52.3067 16.1691C52.6504 16.1691 53.0385 16.1137 53.349 15.8475C53.5708 15.6701 53.8259 15.3596 53.8037 14.783C53.8037 14.2396 53.3823 13.5521 52.5063 12.7093C51.8853 12.1105 51.0425 11.4452 50.1886 10.8463C47.7601 9.20516 46.0635 8.75051 45.2983 9.52674C44.7882 10.0479 44.8437 10.68 45.0211 11.1347C44.1229 11.7335 43.3578 12.1659 42.8477 12.4543C43.1914 12.5652 43.5019 12.7093 43.8346 12.8535C44.7328 12.3766 46.0302 11.545 47.5273 10.3362ZM52.8611 14.4503C52.9498 14.5945 52.972 14.7386 52.972 14.8273C52.972 15.0824 52.8833 15.1711 52.8278 15.2265C52.717 15.3153 52.4841 15.3707 52.2956 15.3707C52.473 15.0158 52.6615 14.7275 52.8611 14.4503ZM45.8861 10.1588C45.9748 10.0701 46.1966 10.0147 46.5625 10.0701C46.2853 10.303 45.997 10.5026 45.7197 10.7022C45.6865 10.5137 45.7197 10.303 45.8861 10.1588Z" fill="#5E12A0"/>
<path d="M36.9919 11.4019C27.7547 11.4019 20.2695 19.0201 20.2695 28.4125C20.2695 37.805 27.7547 45.4232 36.9919 45.4232C46.2291 45.4232 53.7142 37.805 53.7142 28.4125C53.7142 19.0201 46.1958 11.4019 36.9919 11.4019ZM36.9919 44.4695C28.2648 44.4695 21.201 37.2838 21.201 28.4125C21.201 19.5413 28.2648 12.3555 36.9919 12.3555C45.719 12.3555 52.7828 19.5413 52.7828 28.4125C52.7828 37.2838 45.6857 44.4695 36.9919 44.4695Z" fill="#5E12A0"/>
<path opacity="0.6" d="M36.9901 44.469C45.7061 44.469 52.781 37.2833 52.781 28.412C52.781 19.5407 45.7172 12.355 36.9901 12.355C28.2741 12.355 21.1992 19.5407 21.1992 28.412C21.1992 37.2833 28.2741 44.469 36.9901 44.469Z" fill="url(#paint2_linear_805_1243)"/>
<path opacity="0.6" d="M36.883 42.5167C28.2668 41.1084 22.4229 32.8692 23.8312 24.0977C24.4522 20.2165 26.3706 16.912 29.0874 14.5278C25.1286 16.8565 22.2011 20.9041 21.4027 25.8498C20.0165 34.6102 25.8605 42.8605 34.4545 44.2688C39.2561 45.0783 43.8914 43.548 47.3068 40.565C44.2795 42.3393 40.609 43.1155 36.883 42.5167Z" fill="#A98698"/>
<path opacity="0.6" d="M39.507 12.5767C35.5261 11.9113 31.656 12.8317 28.4956 14.8721C28.4401 14.9276 28.3847 14.983 28.3847 14.983C29.6045 14.24 31.3787 13.5747 31.3787 13.5747C26.7989 16.2804 25.3906 19.3521 25.3906 19.3521C27.1649 15.848 32.3989 13.3751 36.4908 13.2088C40.5827 13.0313 43.2662 14.2733 46.5486 16.9458C49.8199 19.6515 51.8049 25.1628 51.6052 29.5319C51.4389 33.901 49.1767 37.4273 49.1767 37.4273C50.7292 35.3869 51.6607 33.8899 52.2595 32.3707C52.3704 31.9161 52.4813 31.4503 52.5367 30.9624C53.934 22.2353 48.1122 13.985 39.507 12.5767Z" fill="url(#paint3_linear_805_1243)"/>
<path d="M51.9869 28.2676C51.9869 36.6842 45.2669 43.5262 36.9945 43.5262C28.722 43.5262 21.9688 36.6842 21.9688 28.2676H51.9869Z" fill="url(#paint4_linear_805_1243)"/>
<path opacity="0.6" d="M50.7954 28.2676C50.7954 36.4846 44.408 43.2046 36.3906 43.5262C36.5902 43.5262 36.7898 43.5262 36.9783 43.5262C45.2508 43.5262 51.9708 36.6842 51.9708 28.2676H50.7954Z" fill="url(#paint5_linear_805_1243)"/>
<path opacity="0.7" d="M24.0868 28.2676H21.9688C21.9688 36.6842 28.6887 43.5262 36.9612 43.5262C37.3271 43.5262 37.6709 43.5262 38.0036 43.4929C30.2412 42.9163 24.0868 36.3072 24.0868 28.2676Z" fill="url(#paint6_linear_805_1243)"/>
<path d="M51.9647 28.4116C51.9647 26.6596 48.9707 25.6504 44.9897 25.3067C42.1065 25.0738 39.2012 25.3621 35.8634 26.3934C32.9802 27.2584 30.3854 27.1142 28.4891 26.8813C24.2864 26.3934 21.9688 26.338 21.9688 28.4005C21.9688 31.3835 27.9569 35.1205 36.939 33.8342C41.4856 33.1689 43.8254 31.8271 46.5089 30.9067C49.4253 29.9308 51.9647 29.9641 51.9647 28.4116Z" fill="url(#paint7_linear_805_1243)"/>
<path d="M41.9066 21.1709C43.3149 21.1709 44.446 20.0177 44.446 18.5872C44.446 17.1567 43.3038 16.0034 41.9066 16.0034C40.4983 16.0034 39.3672 17.1567 39.3672 18.5872C39.3672 20.0177 40.4983 21.1709 41.9066 21.1709Z" fill="white"/>
<path d="M46.0522 23.089C46.6399 23.089 47.1278 22.6011 47.1278 22.0023C47.1278 21.4034 46.651 20.9155 46.0522 20.9155C45.4534 20.9155 44.9766 21.4034 44.9766 22.0023C44.9766 22.6011 45.4645 23.089 46.0522 23.089Z" fill="white"/>
<path opacity="0.6" d="M49.8992 16.5139C49.866 16.5139 49.8438 16.5139 49.8438 16.5139C49.6775 16.4806 49.5666 16.3143 49.5888 16.1147C49.8438 14.7951 50.9194 13.5309 50.9749 13.4755C51.0858 13.3313 51.3187 13.3313 51.4295 13.4422C51.5737 13.5531 51.5737 13.786 51.4628 13.8969C51.4295 13.9301 50.4426 15.1056 50.2208 16.2477C50.1765 16.4252 50.0434 16.5139 49.8992 16.5139Z" fill="url(#paint8_linear_805_1243)"/>
<path opacity="0.2" d="M35.9514 40.3885C36.3839 40.3885 36.7387 40.0337 36.7387 39.579C36.7387 39.1355 36.3839 38.7695 35.9514 38.7695C35.5189 38.7695 35.1641 39.1244 35.1641 39.579C35.1641 40.0337 35.5078 40.3885 35.9514 40.3885Z" fill="white"/>
<path opacity="0.6" d="M35.4922 40.0997C35.1817 39.7781 35.1817 39.268 35.4922 38.9464C35.5476 38.891 35.6031 38.8577 35.6585 38.8022C35.5476 38.8355 35.4589 38.891 35.3813 38.9797C35.0708 39.2902 35.0708 39.8114 35.3813 40.1329C35.6364 40.388 36.0356 40.4434 36.3461 40.2771C36.0577 40.388 35.714 40.3325 35.4922 40.0997Z" fill="url(#paint9_linear_805_1243)"/>
<path opacity="0.3" d="M36.2288 39.3573C36.3175 39.3573 36.3952 39.2797 36.3952 39.1799C36.3952 39.0801 36.3175 39.0024 36.2288 39.0024C36.1401 39.0024 36.0625 39.0801 36.0625 39.1799C36.0625 39.2797 36.1401 39.3573 36.2288 39.3573Z" fill="white"/>
<path opacity="0.2" d="M40.0727 39.9886C40.5052 39.9886 40.8601 39.6338 40.8601 39.1791C40.8601 38.7356 40.5052 38.3696 40.0727 38.3696C39.6403 38.3696 39.2854 38.7245 39.2854 39.1791C39.2743 39.6227 39.6292 39.9886 40.0727 39.9886Z" fill="white"/>
<path opacity="0.6" d="M39.6211 39.7007C39.3106 39.3902 39.3106 38.8691 39.6211 38.5475C39.6766 38.492 39.732 38.4588 39.7874 38.4033C39.6766 38.4366 39.5878 38.492 39.5102 38.5807C39.1997 38.8912 39.1997 39.4124 39.5102 39.734C39.7653 39.9891 40.1645 40.0556 40.475 39.8782C40.1867 39.9891 39.8429 39.9336 39.6211 39.7007Z" fill="url(#paint10_linear_805_1243)"/>
<path opacity="0.3" d="M40.3538 38.9466C40.4425 38.9466 40.5202 38.869 40.5202 38.7692C40.5202 38.6694 40.4425 38.5918 40.3538 38.5918C40.2651 38.5918 40.1875 38.6694 40.1875 38.7692C40.1875 38.869 40.2651 38.9466 40.3538 38.9466Z" fill="white"/>
<path opacity="0.2" d="M38.0369 41.8519C38.3696 41.8519 38.6247 41.5858 38.6247 41.2531C38.6247 40.9204 38.3585 40.6543 38.0369 40.6543C37.7043 40.6543 37.4492 40.9204 37.4492 41.2531C37.4492 41.5858 37.7154 41.8519 38.0369 41.8519Z" fill="white"/>
<path opacity="0.6" d="M37.7043 41.6187C37.4825 41.3858 37.4825 40.9866 37.7043 40.7538C37.7375 40.7205 37.793 40.6983 37.8152 40.665C37.7264 40.6983 37.671 40.7538 37.6156 40.8092C37.3938 41.0421 37.3938 41.4413 37.6156 41.6742C37.8152 41.8738 38.0924 41.907 38.3474 41.7629C38.1257 41.8516 37.8706 41.7961 37.7043 41.6187Z" fill="url(#paint11_linear_805_1243)"/>
<path opacity="0.3" d="M38.232 41.0533C38.2985 41.0533 38.3429 40.9979 38.3429 40.9424C38.3429 40.8759 38.2874 40.8315 38.232 40.8315C38.1765 40.8315 38.1211 40.887 38.1211 40.9424C38.1211 40.9979 38.1655 41.0533 38.232 41.0533Z" fill="white"/>
<path opacity="0.2" d="M41.6818 41.4198C42.0145 41.4198 42.2695 41.1537 42.2695 40.821C42.2695 40.4883 42.0034 40.2222 41.6818 40.2222C41.3491 40.2222 41.0941 40.4883 41.0941 40.821C41.083 41.1537 41.3491 41.4198 41.6818 41.4198Z" fill="white"/>
<path opacity="0.6" d="M41.341 41.1973C41.1192 40.9644 41.1192 40.5652 41.341 40.3324C41.3743 40.2991 41.4297 40.2769 41.4519 40.2437C41.3632 40.2769 41.3077 40.3324 41.2523 40.3878C41.0305 40.6207 41.0305 41.0199 41.2523 41.2528C41.4519 41.4524 41.7291 41.4856 41.9842 41.3415C41.7624 41.4191 41.5073 41.3636 41.341 41.1973Z" fill="url(#paint12_linear_805_1243)"/>
<path opacity="0.3" d="M41.8818 40.6207C41.9484 40.6207 41.9927 40.5653 41.9927 40.5098C41.9927 40.4433 41.9373 40.3989 41.8818 40.3989C41.8264 40.3989 41.771 40.4544 41.771 40.5098C41.7599 40.5653 41.8153 40.6207 41.8818 40.6207Z" fill="white"/>
<path opacity="0.2" d="M32.5905 40.0997C33.3113 40.0997 33.888 39.5119 33.888 38.78C33.888 38.0482 33.3113 37.4604 32.5905 37.4604C31.8698 37.4604 31.2931 38.0482 31.2931 38.78C31.282 39.5119 31.8698 40.0997 32.5905 40.0997Z" fill="white"/>
<path opacity="0.6" d="M31.8491 39.6124C31.339 39.0912 31.339 38.2595 31.8491 37.7494C31.9378 37.6607 32.0154 37.6053 32.1263 37.5498C31.96 37.6053 31.8158 37.7272 31.6716 37.8381C31.1615 38.3593 31.1615 39.191 31.6716 39.7011C32.093 40.1336 32.7473 40.2223 33.2574 39.9007C32.7805 40.1003 32.2261 40.0116 31.8491 39.6124Z" fill="url(#paint13_linear_805_1243)"/>
<path opacity="0.3" d="M33.035 38.3808C33.1903 38.3808 33.3123 38.2478 33.3123 38.0925C33.3123 37.9373 33.1903 37.8042 33.035 37.8042C32.8798 37.8042 32.7578 37.9373 32.7578 38.0925C32.7578 38.2478 32.8798 38.3808 33.035 38.3808Z" fill="white"/>
<path opacity="0.2" d="M44.192 36.8501C44.9127 36.8501 45.4894 36.2624 45.4894 35.5305C45.4894 34.7987 44.9127 34.2109 44.192 34.2109C43.4712 34.2109 42.8945 34.7987 42.8945 35.5305C42.8945 36.2624 43.4823 36.8501 44.192 36.8501Z" fill="white"/>
<path opacity="0.6" d="M43.435 36.3624C42.9249 35.8412 42.9249 35.0095 43.435 34.4994C43.5237 34.4107 43.6013 34.3553 43.7122 34.2998C43.5459 34.3553 43.4017 34.4772 43.2576 34.5881C42.7475 35.1093 42.7475 35.941 43.2576 36.4511C43.679 36.8836 44.3332 36.9723 44.8433 36.6507C44.3665 36.8503 43.8231 36.7727 43.435 36.3624Z" fill="url(#paint14_linear_805_1243)"/>
<path opacity="0.3" d="M44.6405 35.1323C44.7958 35.1323 44.9177 34.9992 44.9177 34.844C44.9177 34.6887 44.7958 34.5557 44.6405 34.5557C44.4853 34.5557 44.3633 34.6887 44.3633 34.844C44.3633 34.9992 44.4853 35.1323 44.6405 35.1323Z" fill="white"/>
<defs>
<radialGradient id="paint0_radial_805_1243" cx="0" cy="0" r="1" gradientUnits="userSpaceOnUse" gradientTransform="translate(54.4688 11.8596) scale(12.6229 12.8403)">
<stop stop-color="#FFEAFF" stop-opacity="0.6"/>
<stop offset="0.6807" stop-color="#A087C9"/>
<stop offset="1" stop-color="#10002F"/>
</radialGradient>
<radialGradient id="paint1_radial_805_1243" cx="0" cy="0" r="1" gradientUnits="userSpaceOnUse" gradientTransform="translate(47.4423 17.3361) scale(30.8839 31.4157)">
<stop stop-color="#FFEAFF" stop-opacity="0.6"/>
<stop offset="0.6807" stop-color="#A087C9"/>
<stop offset="1" stop-color="#10002F"/>
</radialGradient>
<linearGradient id="paint2_linear_805_1243" x1="34.3773" y1="44.2491" x2="39.6011" y2="12.5669" gradientUnits="userSpaceOnUse">
<stop stop-color="#81FFFF"/>
<stop offset="0.6202" stop-color="white" stop-opacity="0"/>
</linearGradient>
<linearGradient id="paint3_linear_805_1243" x1="48.2503" y1="17.6508" x2="34.9918" y2="29.61" gradientUnits="userSpaceOnUse">
<stop offset="0.2888" stop-color="white"/>
<stop offset="0.7796" stop-color="white" stop-opacity="0"/>
</linearGradient>
<linearGradient id="paint4_linear_805_1243" x1="21.9683" y1="35.8916" x2="51.9907" y2="35.8916" gradientUnits="userSpaceOnUse">
<stop stop-color="#0002E9"/>
<stop offset="0.9952" stop-color="#FF00C7"/>
</linearGradient>
<linearGradient id="paint5_linear_805_1243" x1="53.4777" y1="29.6877" x2="36.8848" y2="45.1036" gradientUnits="userSpaceOnUse">
<stop offset="0.2888" stop-color="white"/>
<stop offset="0.7796" stop-color="white" stop-opacity="0"/>
</linearGradient>
<linearGradient id="paint6_linear_805_1243" x1="21.9683" y1="35.8916" x2="38.0104" y2="35.8916" gradientUnits="userSpaceOnUse">
<stop stop-color="#000292"/>
<stop offset="0.9952" stop-color="#7D00C7"/>
</linearGradient>
<linearGradient id="paint7_linear_805_1243" x1="22.0011" y1="29.6655" x2="51.9632" y2="29.6655" gradientUnits="userSpaceOnUse">
<stop stop-color="#000292"/>
<stop offset="0.9952" stop-color="#BE00C7"/>
</linearGradient>
<linearGradient id="paint8_linear_805_1243" x1="51.5062" y1="13.3527" x2="49.2991" y2="16.8787" gradientUnits="userSpaceOnUse">
<stop offset="0.2888" stop-color="white"/>
<stop offset="0.7796" stop-color="white" stop-opacity="0"/>
</linearGradient>
<linearGradient id="paint9_linear_805_1243" x1="35.1455" y1="39.5904" x2="36.3404" y2="39.5904" gradientUnits="userSpaceOnUse">
<stop offset="0.2888" stop-color="white"/>
<stop offset="0.7796" stop-color="white" stop-opacity="0"/>
</linearGradient>
<linearGradient id="paint10_linear_805_1243" x1="39.2691" y1="39.1881" x2="40.464" y2="39.1881" gradientUnits="userSpaceOnUse">
<stop offset="0.2888" stop-color="white"/>
<stop offset="0.7796" stop-color="white" stop-opacity="0"/>
</linearGradient>
<linearGradient id="paint11_linear_805_1243" x1="37.4419" y1="41.2665" x2="38.339" y2="41.2665" gradientUnits="userSpaceOnUse">
<stop offset="0.2888" stop-color="white"/>
<stop offset="0.7796" stop-color="white" stop-opacity="0"/>
</linearGradient>
<linearGradient id="paint12_linear_805_1243" x1="41.0725" y1="40.8355" x2="41.9696" y2="40.8355" gradientUnits="userSpaceOnUse">
<stop offset="0.2888" stop-color="white"/>
<stop offset="0.7796" stop-color="white" stop-opacity="0"/>
</linearGradient>
<linearGradient id="paint13_linear_805_1243" x1="31.2903" y1="38.8169" x2="33.2417" y2="38.8169" gradientUnits="userSpaceOnUse">
<stop offset="0.2888" stop-color="white"/>
<stop offset="0.7796" stop-color="white" stop-opacity="0"/>
</linearGradient>
<linearGradient id="paint14_linear_805_1243" x1="42.8779" y1="35.5697" x2="44.8294" y2="35.5697" gradientUnits="userSpaceOnUse">
<stop offset="0.2888" stop-color="white"/>
<stop offset="0.7796" stop-color="white" stop-opacity="0"/>
</linearGradient>
</defs>
</svg>
