<?xml version="1.0" encoding="utf-8"?>
<!-- Generator: Adobe Illustrator 27.2.0, SVG Export Plug-In . SVG Version: 6.00 Build 0)  -->
<svg version="1.1" id="Dash_Logo" xmlns="http://www.w3.org/2000/svg" xmlns:xlink="http://www.w3.org/1999/xlink" x="0px" y="0px"
	 viewBox="0 0 2500 386" style="enable-background:new 0 0 2500 386;" xml:space="preserve">
<style type="text/css">
	.st0{fill:#FFFFFF;}
</style>
<path id="H" class="st0" d="M2359.8,0L2311,148.8h-261.1L2098.7,0h-139.1l-126.6,385.6h138.8l48.9-148.8h261.1l-48.9,148.8H2372
	L2498.6,0H2359.8z"/>
<path id="S" class="st0" d="M1808.3,178c-6.1-9.3-14.6-16.8-24.3-21.8c-10.7-5-22.5-7.5-34.2-7.5h-305l17.1-53.5h400.3L1893.9,0
	h-443.8c-13.6,0-26.8,2.5-39.2,7.5c-14.3,5-27.1,12.5-38.5,22.1c-10,9.6-22.1,19.6-29.6,31.8c-8.9,11.8-16.4,25-21.8,38.9
	l-12.1,36.4c-3.2,12.8-4.6,26-5,39.2c2.1,12.1,5,24.3,10,31.8c6.1,9.3,14.6,16.8,24.3,22.1c10.3,5.7,22.1,8.9,34.2,9.6h305
	l-17.1,51.4h-400.6l-31.4,95.3H1672c13.6,0,26.8-2.5,39.2-7.5c14.3-5,27.1-12.5,38.5-21.8c10-9.6,22.1-19.6,29.6-31.8
	c9.3-11.8,16.4-25,21.8-38.9l12.1-36.4c3.9-12.8,5.7-26,5-39.2C1815.8,197.6,1813.3,185.9,1808.3,178z"/>
<path id="A" class="st0" d="M1262.1,58.9c-2.1-12.1-5-21.8-11.8-29.6c-5-9.3-12.8-17.1-22.1-21.8c-10.7-5-22.5-7.8-34.2-7.5H845.4
	c-13.6,0-26.8,2.5-39.2,7.5c-14.3,5-27.5,12.5-38.9,22.1c-10,9.6-21.8,19.6-29.6,31.8c-9.3,11.8-16.4,25-21.8,38.9l-92.8,285.4
	h139.1l95.3-290h263.3l-28.9,85.3H906.5l-29.3,90.3h185.2L1025.6,386h137l94.9-288.3C1261.4,84.9,1262.8,72.1,1262.1,58.9
	L1262.1,58.9z"/>
<path id="D" class="st0" d="M654.9,61.4c-0.7-11.1-3.9-22.1-9.6-31.8c-5-10-13.9-17.8-24.3-21.8c-10.7-5.4-22.5-7.8-34.2-7.5H143
	l-31.8,95.3h402.1l-63.5,194.8H47.8L16,385.6h445.9c13.3-0.4,26.4-2.9,38.9-7.5c12.5-7.1,26.8-14.3,38.9-24.3
	c11.8-9.3,22.5-20,31.8-31.8c7.8-11.8,14.3-23.9,19.6-36.7L650,100.2C655.3,88.1,657.1,74.6,654.9,61.4L654.9,61.4z"/>
<path id="_-" class="st0" d="M269.7,148.8H33.1L1.4,236.9h239L269.7,148.8z"/>
</svg>
