<?xml version="1.0" standalone="no"?>
<!DOCTYPE svg PUBLIC "-//W3C//DTD SVG 1.1//EN" "http://www.w3.org/Graphics/SVG/1.1/DTD/svg11.dtd">
<svg xmlns="http://www.w3.org/2000/svg" xmlns:svg="http://www.w3.org/2000/svg" width="1400" height="400" viewBox="0 0 1400 400" version="1.1" xml:space="preserve" style="fill-rule:evenodd;clip-rule:evenodd;stroke-linejoin:round;stroke-miterlimit:2;" id="svg1987"><defs id="defs1776"/>
    <g id="g2000"><rect x="0" y="-0.0012254165" width="1400.0078" height="399.99896" style="fill:none;stroke-width:1.17377;fill-opacity:1;stroke:none" id="rect1924"/><g transform="matrix(0.85018811,-0.14988866,0,0.83505337,-19425.256,55.763711)" id="g1928">
                            <path d="m 23021.3,4358.98 c 0,-4.38 -3.4,-7.94 -7.6,-7.94 h -50.2 c -4.2,0 -7.6,3.56 -7.6,7.94 v 96.65 c 0,4.39 3.4,7.95 7.6,7.95 h 50.2 c 4.2,0 7.6,-3.56 7.6,-7.95 z" style="fill:#ffffff" id="path1926"/>
                        </g><g transform="matrix(0.85018811,-0.14988866,0,0.83505337,-19314.082,-124.9551)" id="g1932" style="fill:#ff5d51;fill-opacity:1">
                            <path d="m 23021.3,4358.98 c 0,-4.38 -3.4,-7.94 -7.6,-7.94 h -50.2 c -4.2,0 -7.6,3.56 -7.6,7.94 v 96.65 c 0,4.39 3.4,7.95 7.6,7.95 h 50.2 c 4.2,0 7.6,-3.56 7.6,-7.95 z" style="fill:#ff5d51;fill-opacity:1" id="path1930"/>
                        </g><g transform="matrix(0.91091483,-0.16059492,0.95283787,2.0985808,-24965.149,-5357.2419)" id="g1936">
                            <path d="m 23021.3,4354.17 c 0,-1.73 -3.4,-3.13 -7.6,-3.13 h -50.2 c -4.2,0 -7.6,1.4 -7.6,3.13 v 106.27 c 0,1.73 3.4,3.14 7.6,3.14 h 50.2 c 4.2,0 7.6,-1.41 7.6,-3.14 z" style="fill:#ffffff" id="path1934"/>
                        </g><g transform="matrix(0.82034961,0,0,0.51091172,-20593.679,-3629.3221)" id="g1972">
                            <g transform="matrix(249.121,0,0,400,25528.9,7633.96)" id="g1942">
                                <path d="m 0.033,-0.279 c 0,0.173 0.112,0.288 0.252,0.288 0.088,0 0.151,-0.042 0.184,-0.09 V 0 H 0.61 V -0.554 H 0.469 v 0.079 C 0.436,-0.521 0.375,-0.563 0.286,-0.563 c -0.141,0 -0.253,0.111 -0.253,0.284 z m 0.436,0.002 c 0,0.105 -0.07,0.163 -0.147,0.163 -0.075,0 -0.146,-0.06 -0.146,-0.165 0,-0.105 0.071,-0.161 0.146,-0.161 0.077,0 0.147,0.058 0.147,0.163 z" style="fill:#ffffff;fill-rule:nonzero" id="path1940"/>
                            </g>
                            <g transform="matrix(249.121,0,0,400,25692.8,7633.96)" id="g1946">
                                <rect x="0.068999998" y="-0.74000001" width="0.14" height="0.74000001" style="fill:#ffffff;fill-rule:nonzero" id="rect1944"/>
                            </g>
                            <g transform="matrix(249.121,0,0,400,25757.1,7633.96)" id="g1950">
                                <path d="m 0.307,-0.448 c 0.072,0 0.13,0.046 0.132,0.119 H 0.176 C 0.187,-0.405 0.24,-0.448 0.307,-0.448 Z M 0.57,-0.174 H 0.419 c -0.018,0.037 -0.051,0.067 -0.111,0.067 -0.07,0 -0.126,-0.046 -0.133,-0.128 H 0.58 c 0.003,-0.018 0.004,-0.036 0.004,-0.054 0,-0.165 -0.113,-0.274 -0.273,-0.274 -0.164,0 -0.278,0.111 -0.278,0.286 0,0.174 0.117,0.286 0.278,0.286 0.137,0 0.229,-0.081 0.259,-0.183 z" style="fill:#ffffff;fill-rule:nonzero" id="path1948"/>
                            </g>
                            <g transform="matrix(249.121,0,0,400,25905.8,7633.96)" id="g1954">
                                <path d="m 0.209,-0.474 v -0.08 h -0.14 v 0.818 h 0.14 v -0.343 c 0.034,0.045 0.096,0.088 0.183,0.088 0.142,0 0.253,-0.115 0.253,-0.288 0,-0.173 -0.111,-0.284 -0.253,-0.284 -0.086,0 -0.15,0.042 -0.183,0.089 z m 0.293,0.195 c 0,0.105 -0.071,0.165 -0.147,0.165 -0.075,0 -0.146,-0.058 -0.146,-0.163 0,-0.105 0.071,-0.163 0.146,-0.163 0.076,0 0.147,0.056 0.147,0.161 z" style="fill:#ffffff;fill-rule:nonzero" id="path1952"/>
                            </g>
                            <g transform="matrix(249.121,0,0,400,26069.8,7633.96)" id="g1958">
                                <path d="m 0.069,0 h 0.14 v -0.306 c 0,-0.089 0.049,-0.137 0.125,-0.137 0.074,0 0.123,0.048 0.123,0.137 V 0 h 0.14 v -0.325 c 0,-0.153 -0.091,-0.237 -0.216,-0.237 -0.074,0 -0.136,0.03 -0.172,0.077 V -0.74 h -0.14 z" style="fill:#ffffff;fill-rule:nonzero" id="path1956"/>
                            </g>
                            <g transform="matrix(249.121,0,0,400,26229.5,7633.96)" id="g1962">
                                <rect x="0.068999998" y="-0.55400002" width="0.14" height="0.55400002" style="fill:#ffffff;fill-rule:nonzero" id="rect1960"/>
                            </g>
                            <g transform="matrix(249.121,0,0,400,26293.7,7633.96)" id="g1966">
                                <path d="M 0.592,-0.554 H 0.451 v 0.305 c 0,0.089 -0.048,0.137 -0.124,0.137 -0.074,0 -0.123,-0.048 -0.123,-0.137 v -0.305 h -0.14 v 0.325 c 0,0.152 0.093,0.236 0.222,0.236 0.069,0 0.13,-0.03 0.165,-0.077 V 0 h 0.141 z" style="fill:#ffffff;fill-rule:nonzero" id="path1964"/>
                            </g>
                            <g transform="matrix(249.121,0,0,400,26453.4,7633.96)" id="g1970">
                                <path d="m 0.844,0 h 0.14 v -0.325 c 0,-0.153 -0.094,-0.237 -0.227,-0.237 -0.081,0 -0.154,0.043 -0.19,0.106 -0.038,-0.069 -0.109,-0.106 -0.195,-0.106 -0.069,0 -0.128,0.029 -0.163,0.075 V -0.554 H 0.069 V 0 h 0.14 v -0.306 c 0,-0.088 0.049,-0.134 0.125,-0.134 0.074,0 0.123,0.046 0.123,0.134 V 0 h 0.14 v -0.306 c 0,-0.088 0.049,-0.134 0.124,-0.134 0.074,0 0.123,0.046 0.123,0.134 z" style="fill:#ffffff;fill-rule:nonzero" id="path1968"/>
                            </g>
                        </g><g transform="matrix(0.44458489,-0.07839174,0,0.30660017,-9268.2203,576.86084)" id="g1976">
                            <path d="m 23021.3,4364.73 c 0,-7.56 -4.1,-13.69 -9.1,-13.69 h -47.1 c -5.1,0 -9.2,6.13 -9.2,13.69 v 85.16 c 0,7.55 4.1,13.69 9.2,13.69 h 47.1 c 5,0 9.1,-6.14 9.1,-13.69 z" style="fill:#ffffff" id="path1974"/>
                        </g></g>
</svg>