<svg width="219" height="52" viewBox="0 0 219 52" fill="none" xmlns="http://www.w3.org/2000/svg">
<g clip-path="url(#clip0_805_1122)">
<path fill-rule="evenodd" clip-rule="evenodd" d="M38.8919 31.7439C38.8919 31.2782 38.5238 30.9646 38.0692 31.0447L32.6352 32.0028C32.1805 32.0829 31.8125 32.5263 31.8125 32.992V43.2679C31.8125 43.7346 32.1805 44.0482 32.6352 43.9681L38.0692 43.01C38.5238 42.9299 38.8919 42.4865 38.8919 42.0197V31.7439Z" fill="black"/>
<path fill-rule="evenodd" clip-rule="evenodd" d="M53.0442 8.73411C53.0442 8.26843 52.6762 7.95481 52.2215 8.03497L46.7875 8.99299C46.3329 9.07314 45.9648 9.51653 45.9648 9.98221V20.2581C45.9648 20.7248 46.3329 21.0384 46.7875 20.9583L52.2215 20.0003C52.6762 19.9201 53.0442 19.4767 53.0442 19.01V8.73411Z" fill="#FF5D51"/>
<path fill-rule="evenodd" clip-rule="evenodd" d="M39.777 11.1329C39.5671 10.6707 39.0029 10.3661 38.5158 10.452L32.6937 11.4784C32.2066 11.5643 31.9821 12.0079 32.192 12.4702L45.0843 40.865C45.2942 41.3272 45.8596 41.6345 46.3467 41.5486L52.1688 40.5221C52.656 40.4362 52.8792 39.99 52.6694 39.5277L39.777 11.1329Z" fill="black"/>
<path d="M65.4375 27.775C65.4375 32.2764 68.3518 35.2687 71.9946 35.2687C74.2844 35.2687 75.9237 34.1759 76.7823 32.9269V35.0346H80.4512V20.6194H76.7823V22.675C75.9237 21.4781 74.3364 20.3853 72.0206 20.3853C68.3518 20.3853 65.4375 23.2735 65.4375 27.775ZM76.7823 27.827C76.7823 30.5591 74.9609 32.0683 72.9574 32.0683C71.0058 32.0683 69.1584 30.5071 69.1584 27.775C69.1584 25.0428 71.0058 23.5857 72.9574 23.5857C74.9609 23.5857 76.7823 25.0949 76.7823 27.827Z" fill="black"/>
<path d="M87.1389 15.7798H83.4961V35.0346H87.1389V15.7798Z" fill="black"/>
<path d="M96.403 23.3776C98.2765 23.3776 99.7856 24.5745 99.8377 26.474H92.9943C93.2806 24.4964 94.6596 23.3776 96.403 23.3776ZM103.246 30.5071H99.3173C98.8489 31.4698 97.9902 32.2504 96.429 32.2504C94.6076 32.2504 93.1505 31.0535 92.9683 28.9198H103.507C103.585 28.4515 103.611 27.9831 103.611 27.5148C103.611 23.2214 100.67 20.3853 96.5071 20.3853C92.2398 20.3853 89.2734 23.2735 89.2734 27.827C89.2734 32.3545 92.3178 35.2687 96.5071 35.2687C100.072 35.2687 102.466 33.1611 103.246 30.5071Z" fill="black"/>
<path d="M109.385 22.701V20.6194H105.742V41.9039H109.385V32.979C110.27 34.1499 111.883 35.2687 114.147 35.2687C117.842 35.2687 120.73 32.2764 120.73 27.775C120.73 23.2735 117.842 20.3853 114.147 20.3853C111.909 20.3853 110.244 21.4781 109.385 22.701ZM117.009 27.775C117.009 30.5071 115.162 32.0683 113.184 32.0683C111.232 32.0683 109.385 30.5591 109.385 27.827C109.385 25.0949 111.232 23.5857 113.184 23.5857C115.162 23.5857 117.009 25.0428 117.009 27.775Z" fill="black"/>
<path d="M122.871 35.0346H126.514V27.0725C126.514 24.7567 127.789 23.5077 129.766 23.5077C131.692 23.5077 132.967 24.7567 132.967 27.0725V35.0346H136.61V26.5781C136.61 22.597 134.242 20.4114 130.989 20.4114C129.064 20.4114 127.451 21.192 126.514 22.4149V15.7798H122.871V35.0346Z" fill="black"/>
<path d="M143.194 20.6191H139.551V35.0343H143.194V20.6191Z" fill="black"/>
<path d="M159.868 20.6191H156.199V28.5553C156.199 30.8711 154.95 32.12 152.972 32.12C151.047 32.12 149.772 30.8711 149.772 28.5553V20.6191H146.129V29.0757C146.129 33.0307 148.549 35.2164 151.905 35.2164C153.701 35.2164 155.288 34.4358 156.199 33.2129V35.0343H159.868V20.6191Z" fill="black"/>
<path d="M183.103 35.0344H186.746V26.5779C186.746 22.5968 184.3 20.4111 180.839 20.4111C178.732 20.4111 176.832 21.53 175.896 23.1693C174.907 21.3739 173.059 20.4111 170.822 20.4111C169.026 20.4111 167.491 21.1657 166.58 22.3626V20.6193H162.938V35.0344H166.58V27.0723C166.58 24.7825 167.855 23.5856 169.833 23.5856C171.758 23.5856 173.033 24.7825 173.033 27.0723V35.0344H176.676V27.0723C176.676 24.7825 177.951 23.5856 179.903 23.5856C181.828 23.5856 183.103 24.7825 183.103 27.0723V35.0344Z" fill="black"/>
<path fill-rule="evenodd" clip-rule="evenodd" d="M143.233 14.5929C143.233 14.2978 143.001 14.0994 142.718 14.1493L140.052 14.6194C139.763 14.6703 139.531 14.9505 139.531 15.2456V18.57C139.531 18.8647 139.763 19.0635 140.052 19.0126L142.718 18.5425C143.001 18.4926 143.233 18.212 143.233 17.9173V14.5929Z" fill="black"/>
</g>
<defs>
<clipPath id="clip0_805_1122">
<rect width="178.25" height="50.9287" fill="white" transform="translate(20.1523 0.535645)"/>
</clipPath>
</defs>
</svg>
