<?xml version="1.0" encoding="utf-8"?>
<!-- Generator: Adobe Illustrator 27.2.0, SVG Export Plug-In . SVG Version: 6.00 Build 0)  -->
<svg version="1.1" id="Layer_1" xmlns="http://www.w3.org/2000/svg" xmlns:xlink="http://www.w3.org/1999/xlink" x="0px" y="0px"
	 viewBox="0 0 380 100" style="enable-background:new 0 0 380 100;" xml:space="preserve">
<style type="text/css">
	.st0{fill:#FFFD9D;}
	.st1{fill:#B6761C;}
	.st2{fill:#FFE144;}
	.st3{fill:#FFFFFF;}
</style>
<path class="st0" d="M63.6,66.2l39.8-43L63.6,88.8V66.2z"/>
<path class="st1" d="M63.6,66.2L24,23.2l39.6,65.5V66.2z"/>
<path class="st2" d="M103.4,23.2H24l39.6,43L103.4,23.2z"/>
<path class="st1" d="M80.1,31.4H47.3l16.3,17.6L80.1,31.4z"/>
<path class="st0" d="M63.6,29.7L80,12L63.6,39V29.7z"/>
<path class="st1" d="M63.6,29.7L47.4,12l16.3,27V29.7z"/>
<path class="st2" d="M80,12H47.4l16.3,17.7L80,12z"/>
<path class="st3" d="M174.8,75.6l-37.9-42.7l0.1,41.5h-3.3V24.1h0.2l37.9,43l-0.1-42h3.3v50.4H174.8z"/>
<path class="st3" d="M204.5,25.2h30.4v3.3h-27V48h24.3v3.3h-24.3v19.9h27.9v3.3h-31.3V25.2z"/>
<path class="st3" d="M257.7,74.4L274,49.1l-15.5-23.9h4.2l13.9,21.3l13.2-21.3h4l-15.5,24.1l16.4,25.1h-4.3l-14.6-22.5l-13.9,22.5
	H257.7z"/>
<path class="st3" d="M315.1,74.4L335.9,23h0.3L357,74.4h-3.8l-6.4-16.3H325l-6.5,16.3H315.1z M326.3,54.9h19.2L336,30.7L326.3,54.9z
	"/>
</svg>
