<svg width="266" height="52" viewBox="0 0 266 52" fill="none" xmlns="http://www.w3.org/2000/svg">
<path fill-rule="evenodd" clip-rule="evenodd" d="M27.1276 37.6736L38.7217 42.3619L50.2526 37.4202L54.8776 25.826L49.9358 14.2952L38.3416 9.67016L26.8108 14.6119L22.1858 26.2061L27.1276 37.6736ZM38.7217 44.516C38.595 44.516 38.4683 44.5161 38.3416 44.4527L25.9238 39.4476C25.6704 39.3208 25.4803 39.1308 25.3536 38.8774L20.095 26.5863C19.9683 26.3328 19.9683 26.0794 20.095 25.7626L25.1002 13.4082C25.2269 13.1548 25.417 12.9647 25.6704 12.838L37.9615 7.57941C38.2149 7.4527 38.4683 7.4527 38.7851 7.57941L51.2029 12.5845C51.393 12.6479 51.583 12.838 51.7098 13.0914L56.9683 25.3825C57.095 25.6359 57.095 25.8893 56.9683 26.2061L51.9632 38.6239C51.8365 38.8774 51.6464 39.0674 51.393 39.1941L39.1019 44.4527C39.0385 44.5161 38.8485 44.516 38.7217 44.516Z" fill="black"/>
<path fill-rule="evenodd" clip-rule="evenodd" d="M41.1925 25.8261L36.2507 31.2748H44.1069V33.6823H33.0195V31.2748L37.9613 25.8261L33.0195 20.6943V18.3501H44.1069V20.6943H36.3774L41.1925 25.8261Z" fill="black"/>
<path d="M68.1035 35.4971V16.3352H80.914V19.0534H71.4945V24.3821H80.3757V27.1272H71.4945V32.7789H80.914V35.4971H68.1035ZM83.8401 35.4971V25.7547C83.8401 25.1267 83.8222 24.4898 83.7863 23.8438C83.7684 23.18 83.7145 22.5341 83.6248 21.9061H86.8005L87.1773 25.4048L86.8005 25.2164C87.0338 24.0143 87.5631 23.1082 88.3884 22.4982C89.2137 21.8882 90.1467 21.5832 91.1873 21.5832C91.4564 21.5832 91.7076 21.6011 91.9409 21.637C92.1741 21.6729 92.3804 21.7267 92.5599 21.7985L92.506 24.8665C91.9498 24.6333 91.3578 24.5167 90.7298 24.5167C89.9224 24.5167 89.2586 24.6781 88.7383 25.0011C88.2359 25.324 87.8501 25.7636 87.581 26.3198C87.3298 26.8581 87.2042 27.4681 87.2042 28.1499V35.4971H83.8401ZM100.36 41.4986C98.261 41.4986 96.4219 41.068 94.843 40.2068L95.3813 37.6501C96.2066 38.0807 97.014 38.3947 97.8034 38.592C98.6108 38.8073 99.4451 38.915 100.306 38.915C101.508 38.915 102.414 38.6189 103.025 38.0269C103.635 37.4348 103.94 36.5377 103.94 35.3356V31.9715H104.262C104.047 32.5456 103.706 33.0749 103.24 33.5594C102.791 34.0258 102.244 34.4026 101.598 34.6897C100.952 34.9588 100.244 35.0934 99.472 35.0934C98.2879 35.0934 97.2383 34.8153 96.3232 34.2591C95.4082 33.7029 94.6905 32.9224 94.1702 31.9177C93.6678 30.895 93.4167 29.7019 93.4167 28.3383C93.4167 26.9747 93.6678 25.7905 94.1702 24.7858C94.6905 23.7631 95.4082 22.9737 96.3232 22.4175C97.2383 21.8433 98.2879 21.5563 99.472 21.5563C100.638 21.5563 101.652 21.8433 102.513 22.4175C103.374 22.9916 103.957 23.7631 104.262 24.732L103.94 24.7858V21.9061H107.277V35.0665C107.277 37.1836 106.694 38.7804 105.527 39.8569C104.361 40.9514 102.639 41.4986 100.36 41.4986ZM100.387 32.4828C101.499 32.4828 102.37 32.115 102.998 31.3794C103.626 30.6438 103.94 29.6301 103.94 28.3383C103.94 27.0465 103.626 26.0328 102.998 25.2971C102.37 24.5615 101.499 24.1937 100.387 24.1937C99.2567 24.1937 98.3686 24.5615 97.7227 25.2971C97.0768 26.0328 96.7538 27.0465 96.7538 28.3383C96.7538 29.6301 97.0768 30.6438 97.7227 31.3794C98.3686 32.115 99.2567 32.4828 100.387 32.4828ZM117.074 35.6855C115.657 35.6855 114.428 35.3984 113.387 34.8243C112.364 34.2501 111.575 33.4427 111.019 32.4021C110.463 31.3435 110.185 30.0876 110.185 28.6343C110.185 27.199 110.463 25.952 111.019 24.8934C111.575 23.8169 112.364 22.9916 113.387 22.4175C114.428 21.8433 115.657 21.5563 117.074 21.5563C118.456 21.5563 119.658 21.8433 120.681 22.4175C121.721 22.9916 122.52 23.8169 123.076 24.8934C123.65 25.952 123.937 27.199 123.937 28.6343C123.937 30.0876 123.65 31.3435 123.076 32.4021C122.52 33.4427 121.721 34.2501 120.681 34.8243C119.658 35.3984 118.456 35.6855 117.074 35.6855ZM117.074 33.1018C118.187 33.1018 119.039 32.734 119.631 31.9984C120.241 31.2449 120.546 30.1235 120.546 28.6343C120.546 27.1631 120.241 26.0597 119.631 25.324C119.039 24.5705 118.187 24.1937 117.074 24.1937C115.944 24.1937 115.065 24.5705 114.437 25.324C113.827 26.0597 113.522 27.1631 113.522 28.6343C113.522 30.1235 113.827 31.2449 114.437 31.9984C115.047 32.734 115.926 33.1018 117.074 33.1018ZM135.892 35.4971H132.393L141.059 16.3352H143.885L152.551 35.4971H149.106L142.055 19.0265H142.997L135.892 35.4971ZM136.215 31.0026L137.534 28.3114H147.303L148.568 31.0026H136.215ZM159.28 35.6855C157.611 35.6855 156.355 35.2279 155.512 34.3129C154.687 33.3799 154.274 31.9805 154.274 30.1145V21.9061H157.638V30.1414C157.638 31.1282 157.844 31.8549 158.257 32.3214C158.67 32.7879 159.289 33.0211 160.114 33.0211C161.101 33.0211 161.89 32.6981 162.482 32.0522C163.074 31.4063 163.37 30.5451 163.37 29.4686V21.9061H166.761V35.4971H163.478V32.6981L163.828 32.6712C163.433 33.658 162.841 34.4116 162.052 34.9319C161.262 35.4343 160.338 35.6855 159.28 35.6855ZM176.523 35.6855C175.106 35.6855 173.877 35.4074 172.836 34.8512C171.814 34.277 171.024 33.4696 170.468 32.429C169.93 31.3704 169.661 30.1325 169.661 28.7151C169.661 27.2797 169.948 26.0238 170.522 24.9473C171.096 23.8708 171.912 23.0365 172.971 22.4444C174.03 21.8523 175.268 21.5563 176.685 21.5563C177.636 21.5563 178.56 21.7088 179.457 22.0138C180.372 22.3188 181.117 22.7404 181.691 23.2787L180.722 25.647C180.148 25.1805 179.538 24.8306 178.892 24.5974C178.246 24.3462 177.6 24.2206 176.954 24.2206C175.77 24.2206 174.828 24.5974 174.128 25.351C173.446 26.1045 173.106 27.2079 173.106 28.6612C173.106 30.0966 173.446 31.191 174.128 31.9446C174.81 32.6981 175.761 33.0749 176.981 33.0749C177.609 33.0749 178.246 32.9583 178.892 32.7251C179.538 32.4739 180.148 32.1061 180.722 31.6216L181.691 33.99C181.099 34.5282 180.336 34.9498 179.403 35.2549C178.488 35.5419 177.528 35.6855 176.523 35.6855ZM182.332 24.4359V21.9061H191.913V24.4359H182.332ZM191.913 32.6981V35.3625C191.554 35.4881 191.195 35.5688 190.837 35.6047C190.496 35.6585 190.128 35.6855 189.733 35.6855C188.208 35.6855 187.024 35.2549 186.181 34.3936C185.355 33.5324 184.943 32.2945 184.943 30.6797V18.5959L188.307 17.4655V30.5182C188.307 31.1282 188.405 31.6127 188.603 31.9715C188.8 32.3124 189.06 32.5546 189.383 32.6981C189.724 32.8417 190.101 32.9134 190.514 32.9134C190.747 32.9134 190.971 32.8955 191.186 32.8596C191.402 32.8237 191.644 32.7699 191.913 32.6981ZM194.198 35.4971V21.9061H197.562V35.4971H194.198ZM194.037 15.7431H197.778V19.0534H194.037V15.7431ZM207.379 35.6855C205.962 35.6855 204.733 35.3984 203.692 34.8243C202.669 34.2501 201.88 33.4427 201.324 32.4021C200.768 31.3435 200.489 30.0876 200.489 28.6343C200.489 27.199 200.768 25.952 201.324 24.8934C201.88 23.8169 202.669 22.9916 203.692 22.4175C204.733 21.8433 205.962 21.5563 207.379 21.5563C208.761 21.5563 209.963 21.8433 210.985 22.4175C212.026 22.9916 212.824 23.8169 213.381 24.8934C213.955 25.952 214.242 27.199 214.242 28.6343C214.242 30.0876 213.955 31.3435 213.381 32.4021C212.824 33.4427 212.026 34.2501 210.985 34.8243C209.963 35.3984 208.761 35.6855 207.379 35.6855ZM207.379 33.1018C208.492 33.1018 209.344 32.734 209.936 31.9984C210.546 31.2449 210.851 30.1235 210.851 28.6343C210.851 27.1631 210.546 26.0597 209.936 25.324C209.344 24.5705 208.492 24.1937 207.379 24.1937C206.249 24.1937 205.37 24.5705 204.742 25.324C204.132 26.0597 203.827 27.1631 203.827 28.6343C203.827 30.1235 204.132 31.2449 204.742 31.9984C205.352 32.734 206.231 33.1018 207.379 33.1018ZM217.116 35.4971V25.7547C217.116 25.1087 217.098 24.4628 217.062 23.8169C217.044 23.171 216.99 22.5341 216.901 21.9061H220.076L220.373 24.5974L220.076 24.6781C220.507 23.6555 221.144 22.884 221.987 22.3636C222.848 21.8254 223.835 21.5563 224.948 21.5563C228.177 21.5563 229.792 23.4222 229.792 27.1541V35.4971H226.428V27.2887C226.428 26.2301 226.222 25.4586 225.809 24.9742C225.396 24.4718 224.759 24.2206 223.898 24.2206C222.857 24.2206 222.023 24.5526 221.395 25.2164C220.785 25.8623 220.48 26.7235 220.48 27.8V35.4971H217.116ZM238.312 35.6855C235.836 35.6855 233.88 35.1203 232.445 33.99L233.387 31.6216C234.104 32.1599 234.885 32.5636 235.728 32.8327C236.571 33.1018 237.45 33.2364 238.365 33.2364C239.191 33.2364 239.819 33.1018 240.249 32.8327C240.68 32.5636 240.895 32.1868 240.895 31.7024C240.895 31.2897 240.743 30.9668 240.438 30.7335C240.133 30.4823 239.612 30.267 238.877 30.0876L236.616 29.5763C235.378 29.3071 234.445 28.8586 233.817 28.2306C233.207 27.5847 232.902 26.7684 232.902 25.7816C232.902 24.9562 233.135 24.2296 233.602 23.6016C234.068 22.9557 234.723 22.4534 235.566 22.0945C236.41 21.7357 237.388 21.5563 238.5 21.5563C239.469 21.5563 240.402 21.7088 241.299 22.0138C242.196 22.3009 242.976 22.7225 243.64 23.2787L242.671 25.5932C241.99 25.0729 241.29 24.6871 240.572 24.4359C239.872 24.1847 239.173 24.0592 238.473 24.0592C237.702 24.0592 237.1 24.2027 236.67 24.4898C236.239 24.7768 236.024 25.1715 236.024 25.6739C236.024 26.0686 236.15 26.3826 236.401 26.6159C236.67 26.8491 237.127 27.0375 237.773 27.181L240.061 27.7462C241.407 28.0333 242.384 28.4998 242.994 29.1457C243.622 29.7736 243.936 30.6079 243.936 31.6485C243.936 32.8865 243.434 33.8733 242.429 34.6089C241.424 35.3266 240.052 35.6855 238.312 35.6855Z" fill="black"/>
</svg>
