<?xml version="1.0" encoding="UTF-8"?><svg id="Layer_1" xmlns="http://www.w3.org/2000/svg" viewBox="0 0 1042.9 385.02"><g><path d="m385.02,192.51c0,106.32-86.19,192.51-192.51,192.51S0,298.83,0,192.51c0-13.66,1.42-26.99,4.13-39.84,6.07-28.86,18.61-55.34,36.03-77.86C75.37,29.3,130.52,0,192.51,0s117.14,29.3,152.35,74.81c17.42,22.51,29.96,48.99,36.03,77.86,2.71,12.85,4.13,26.18,4.13,39.84Z" style="fill:#3f867b;"/><path d="m380.89,152.67H4.13c6.07-28.86,18.61-55.34,36.03-77.86h304.71c17.42,22.51,29.96,48.99,36.03,77.86Z" style="fill:#4ca497;"/></g><g><path d="m592.84,120.81v152.27h-23.27l-83.97-103.11v103.11h-28.06V120.81h23.28l83.96,103.11v-103.11h28.06Z" style="fill:#fff;"/><path d="m651.57,266.99c-9.43-5.07-16.79-12.14-22.08-21.21-5.3-9.06-7.94-19.32-7.94-30.78s2.64-21.68,7.94-30.67c5.29-8.99,12.65-16.02,22.08-21.1,9.43-5.07,20.01-7.61,31.76-7.61s22.55,2.54,31.98,7.61c9.42,5.08,16.78,12.11,22.08,21.1,5.29,8.99,7.94,19.22,7.94,30.67s-2.65,21.72-7.94,30.78c-5.3,9.07-12.65,16.13-22.08,21.21-9.43,5.08-20.09,7.61-31.98,7.61s-22.33-2.54-31.76-7.61Zm56.56-25.67c6.53-6.67,9.79-15.44,9.79-26.32s-3.26-19.65-9.79-26.32c-6.53-6.67-14.79-10.01-24.8-10.01s-18.24,3.34-24.69,10.01c-6.46,6.67-9.68,15.44-9.68,26.32s3.23,19.65,9.68,26.32c6.45,6.67,14.68,10.01,24.69,10.01s18.27-3.33,24.8-10.01Z" style="fill:#fff;"/><path d="m779.69,270.9c-8.99-2.46-16.17-5.58-21.54-9.35l10.44-20.66c5.22,3.48,11.49,6.27,18.82,8.37,7.32,2.1,14.54,3.15,21.64,3.15,16.24,0,24.36-4.28,24.36-12.83,0-4.06-2.07-6.89-6.2-8.48-4.13-1.59-10.77-3.12-19.9-4.57-9.57-1.45-17.37-3.12-23.38-5-6.02-1.88-11.24-5.18-15.66-9.9-4.42-4.71-6.63-11.27-6.63-19.69,0-11.02,4.6-19.83,13.81-26.43,9.21-6.6,21.64-9.9,37.31-9.9,7.97,0,15.95.91,23.93,2.72,7.97,1.82,14.5,4.24,19.58,7.29l-10.44,20.67c-9.86-5.8-20.96-8.7-33.28-8.7-7.98,0-14.03,1.2-18.16,3.59-4.13,2.39-6.2,5.55-6.2,9.46,0,4.35,2.21,7.43,6.63,9.24,4.42,1.81,11.27,3.52,20.56,5.11,9.28,1.45,16.89,3.12,22.84,5,5.95,1.89,11.06,5.08,15.34,9.57,4.28,4.5,6.42,10.88,6.42,19.14,0,10.88-4.71,19.58-14.14,26.1-9.43,6.53-22.26,9.79-38.5,9.79-9.43,0-18.64-1.23-27.62-3.7Z" style="fill:#fff;"/><path d="m953.28,266.77c-3.19,2.61-7.07,4.57-11.64,5.87-4.57,1.3-9.39,1.96-14.47,1.96-12.76,0-22.62-3.33-29.58-10.01-6.96-6.67-10.44-16.39-10.44-29.15v-55.9h-19.14v-21.75h19.14v-26.54h27.19v26.54h31.11v21.75h-31.11v55.25c0,5.66,1.38,9.97,4.13,12.94,2.75,2.97,6.74,4.46,11.96,4.46,6.09,0,11.17-1.59,15.23-4.79l7.61,19.36Z" style="fill:#fff;"/><path d="m1042.9,155.61v25.89c-2.32-.44-4.43-.65-6.31-.65-10.59,0-18.85,3.08-24.8,9.24-5.95,6.17-8.92,15.05-8.92,26.65v56.34h-27.19v-116.16h25.89v16.97c7.83-12.18,21.61-18.27,41.33-18.27Z" style="fill:#fff;"/></g></svg>