<svg width="202" height="52" viewBox="0 0 202 52" fill="none" xmlns="http://www.w3.org/2000/svg">
<path d="M54.5607 22.6427C55.4113 20.1228 55.1186 17.3635 53.7581 15.072C51.7124 11.5567 47.5988 9.74872 43.5823 10.5994C41.7957 8.61303 39.2279 7.48332 36.5366 7.50019C32.4297 7.4904 28.787 10.099 27.5235 13.9548C24.8857 14.4878 22.609 16.1174 21.2766 18.4263C19.2149 21.9318 19.6845 26.35 22.4387 29.3573C21.5881 31.8772 21.8808 34.6365 23.2413 36.928C25.287 40.4433 29.4005 42.2513 33.417 41.4006C35.2037 43.387 37.7715 44.5167 40.4627 44.4998C44.5718 44.5101 48.2162 41.8999 49.4786 38.0414C52.1164 37.5084 54.3931 35.8788 55.7255 33.5699C57.7851 30.0644 57.3143 25.6484 54.5607 22.6427ZM40.466 42.0805C38.8222 42.0827 37.2301 41.5148 35.9677 40.4759C36.0245 40.4455 36.1243 40.3911 36.1893 40.3519L43.6557 36.0964C44.0371 35.8821 44.272 35.4812 44.2692 35.0482V24.6622L47.4252 26.4604C47.4588 26.4767 47.482 26.5088 47.4864 26.5458V35.1472C47.482 38.9715 44.3425 42.0718 40.466 42.0805ZM25.367 35.7178C24.5434 34.314 24.2468 32.6692 24.5285 31.0712C24.5842 31.1038 24.6806 31.1625 24.7501 31.2017L32.2164 35.4573C32.5951 35.6759 33.0642 35.6759 33.443 35.4573L42.5586 30.264V33.8598C42.5608 33.8973 42.5438 33.9327 42.5134 33.9555L34.9655 38.2552C31.605 40.1654 27.3107 39.0302 25.367 35.7178ZM23.4028 19.6349C24.2225 18.2294 25.5175 17.153 27.0604 16.5949C27.0604 16.6586 27.0566 16.7706 27.0566 16.8489V25.3595C27.0538 25.7925 27.2881 26.1928 27.6696 26.4071L36.7853 31.5998L33.6293 33.3975C33.5979 33.4181 33.5576 33.4214 33.5229 33.4073L25.9745 29.1038C22.6195 27.186 21.469 22.9511 23.4028 19.6349ZM49.332 25.5885L40.2158 20.3953L43.3718 18.5982C43.4032 18.5775 43.4434 18.5742 43.4781 18.5889L51.0266 22.8885C54.3882 24.8042 55.5392 29.0462 53.5977 32.3624C52.7763 33.7657 51.4825 34.841 49.9406 35.4012V26.6361C49.9445 26.2037 49.7118 25.8034 49.332 25.5885ZM52.4731 20.9239C52.4174 20.8902 52.321 20.8326 52.2515 20.7934L44.7846 16.5378C44.4059 16.3197 43.9373 16.3197 43.5581 16.5378L34.4424 21.7311V18.1353C34.4402 18.0978 34.4573 18.0624 34.4876 18.0396L42.0355 13.7432C45.3982 11.8303 49.6958 12.9687 51.6346 16.2865C52.4538 17.6887 52.7504 19.3292 52.4731 20.9239ZM32.7263 27.3334L29.5698 25.5352C29.5362 25.5189 29.513 25.4868 29.5086 25.4498V16.8489C29.5114 13.0193 32.6596 9.91624 36.5416 9.91896C38.1833 9.92005 39.7726 10.4879 41.0338 11.524C40.9771 11.5545 40.8778 11.6089 40.8122 11.6481L33.3459 15.9036C32.9645 16.1174 32.7296 16.5183 32.7324 16.9512L32.7263 27.3334ZM34.4407 23.6865L38.5008 21.3727L42.5608 23.6848V28.3108L38.5008 30.623L34.4407 28.3108V23.6865Z" fill="black"/>
<path d="M76.7651 34.7153C74.8633 34.7153 73.2126 34.3206 71.8132 33.5311C70.4137 32.7238 69.3372 31.5845 68.5836 30.1132C67.848 28.642 67.4802 26.9016 67.4802 24.8921C67.4802 22.9006 67.848 21.1782 68.5836 19.7249C69.3372 18.2537 70.4137 17.1233 71.8132 16.3339C73.2126 15.5265 74.8633 15.1228 76.7651 15.1228C78.0569 15.1228 79.268 15.3202 80.3983 15.7149C81.5466 16.0917 82.4975 16.6479 83.2511 17.3835L82.1207 19.9133C81.2416 19.2136 80.3804 18.7112 79.5371 18.4062C78.6938 18.0832 77.7878 17.9217 76.8189 17.9217C74.9709 17.9217 73.5356 18.5228 72.5129 19.7249C71.5081 20.9091 71.0058 22.6315 71.0058 24.8921C71.0058 27.1528 71.5081 28.8932 72.5129 30.1132C73.5356 31.3153 74.9709 31.9164 76.8189 31.9164C77.7878 31.9164 78.6938 31.7639 79.5371 31.4589C80.3804 31.1359 81.2416 30.6246 82.1207 29.9248L83.2511 32.4546C82.4975 33.1902 81.5466 33.7554 80.3983 34.1501C79.268 34.5269 78.0569 34.7153 76.7651 34.7153ZM86.2005 34.5V14.6922H89.5646V23.6542L89.1609 23.6811C89.5915 22.6584 90.2285 21.8869 91.0718 21.3666C91.933 20.8283 92.9198 20.5592 94.0322 20.5592C97.2617 20.5592 98.8765 22.4251 98.8765 26.157V34.5H95.5124V26.2916C95.5124 25.233 95.306 24.4615 94.8934 23.9771C94.4807 23.4747 93.8438 23.2236 92.9826 23.2236C91.9419 23.2236 91.1076 23.5555 90.4797 24.2193C89.8696 24.8652 89.5646 25.7264 89.5646 26.803V34.5H86.2005ZM107.692 34.6884C106.508 34.6884 105.458 34.4103 104.543 33.8541C103.628 33.28 102.92 32.4726 102.417 31.4319C101.933 30.3734 101.691 29.1354 101.691 27.718C101.691 26.2826 101.942 25.0357 102.444 23.9771C102.946 22.9006 103.646 22.0663 104.543 21.4742C105.458 20.8642 106.508 20.5592 107.692 20.5592C108.84 20.5592 109.836 20.8463 110.679 21.4204C111.541 21.9766 112.124 22.7571 112.429 23.7618L112.106 23.9502V20.9091H115.416V34.5H112.106V31.4319L112.429 31.5396C112.124 32.5443 111.541 33.3248 110.679 33.881C109.836 34.4193 108.84 34.6884 107.692 34.6884ZM108.607 32.1048C109.719 32.1048 110.581 31.719 111.191 30.9475C111.801 30.176 112.106 29.0816 112.106 27.6642C112.106 26.2109 111.801 25.1074 111.191 24.3539C110.581 23.5824 109.719 23.1966 108.607 23.1966C107.477 23.1966 106.598 23.5914 105.97 24.3808C105.342 25.1702 105.028 26.2826 105.028 27.718C105.028 29.1174 105.342 30.2029 105.97 30.9744C106.598 31.728 107.477 32.1048 108.607 32.1048ZM117.384 23.4389V20.9091H126.965V23.4389H117.384ZM126.965 31.7011V34.3654C126.607 34.491 126.248 34.5718 125.889 34.6077C125.548 34.6615 125.18 34.6884 124.785 34.6884C123.26 34.6884 122.076 34.2578 121.233 33.3966C120.408 32.5354 119.995 31.2974 119.995 29.6826V17.5988L123.359 16.4685V29.5211C123.359 30.1312 123.458 30.6156 123.655 30.9744C123.852 31.3153 124.113 31.5575 124.436 31.7011C124.776 31.8446 125.153 31.9164 125.566 31.9164C125.799 31.9164 126.023 31.8984 126.239 31.8626C126.454 31.8267 126.696 31.7728 126.965 31.7011ZM138.535 34.7153C136.544 34.7153 134.821 34.3296 133.368 33.5581C131.933 32.7686 130.829 31.6472 130.058 30.194C129.304 28.7227 128.927 26.9555 128.927 24.8921C128.927 22.8647 129.304 21.1244 130.058 19.6711C130.829 18.1998 131.924 17.0785 133.341 16.307C134.759 15.5175 136.436 15.1228 138.374 15.1228C139.719 15.1228 140.975 15.3112 142.142 15.688C143.308 16.0648 144.295 16.621 145.102 17.3566L143.918 19.8864C143.003 19.1866 142.115 18.6843 141.254 18.3793C140.392 18.0563 139.45 17.8948 138.428 17.8948C136.472 17.8948 134.983 18.4869 133.96 19.6711C132.955 20.8552 132.453 22.5956 132.453 24.8921C132.453 27.2425 132.973 29.0188 134.014 30.2209C135.055 31.405 136.607 31.9971 138.67 31.9971C139.459 31.9971 140.231 31.9343 140.984 31.8087C141.756 31.6652 142.483 31.4678 143.164 31.2166L142.357 32.5085V26.6415H138.239V24.1386H145.506V33.3428C144.914 33.6478 144.241 33.8989 143.487 34.0963C142.734 34.2937 141.935 34.4462 141.092 34.5538C140.249 34.6615 139.397 34.7153 138.535 34.7153ZM149.441 34.5V15.3381H157.757C159.839 15.3381 161.444 15.8405 162.575 16.8452C163.723 17.832 164.297 19.1866 164.297 20.9091C164.297 22.6135 163.714 23.9681 162.548 24.9729C161.4 25.9776 159.803 26.48 157.757 26.48H152.913V34.5H149.441ZM152.913 23.8156H157.354C158.574 23.8156 159.48 23.5645 160.072 23.0621C160.682 22.5597 160.987 21.851 160.987 20.936C160.987 20.003 160.691 19.2943 160.099 18.8099C159.507 18.3075 158.592 18.0563 157.354 18.0563H152.913V23.8156ZM171.413 34.5V18.1909H165.169V15.3381H181.156V18.1909H174.912V34.5H171.413Z" fill="black"/>
</svg>
