<svg width="227" height="52" viewBox="0 0 227 52" fill="none" xmlns="http://www.w3.org/2000/svg">
<path d="M27.6318 9.62598L56.3744 30.9827L49.266 42.4178L20.5234 20.8929L27.6318 9.62598Z" fill="url(#paint0_linear_805_1555)"/>
<path d="M56.3773 30.9825C53.9048 34.8502 45.5602 33.3367 37.6792 27.2829C29.6436 21.3972 25.3168 13.4935 27.6347 9.62573C30.1072 5.75797 38.4518 7.27144 46.3328 13.3253C54.3684 19.0429 58.6952 27.1147 56.3773 30.9825Z" fill="url(#paint1_linear_805_1555)"/>
<path d="M49.2688 42.2493C46.7964 46.117 38.4517 44.6035 30.5707 38.5497C22.6897 32.4958 18.2083 24.7603 20.6808 20.7244C23.1533 16.8566 31.4979 18.3701 39.3789 24.424C47.26 30.4778 51.5868 38.3815 49.2688 42.2493Z" fill="url(#paint2_linear_805_1555)"/>
<path d="M56.3794 30.982L49.2711 42.4171C46.7986 46.2849 38.454 44.6033 30.5729 38.7176C29.0276 37.5404 27.6369 36.3633 26.2461 35.018C27.3278 34.8498 28.7186 34.1771 30.1093 32.4955C32.5818 29.6367 33.8181 28.9641 34.8998 29.1323C35.9815 29.1323 37.2177 30.3094 39.2266 33.1682C41.2355 36.0269 44.017 36.8678 45.7169 35.3543C45.8714 35.1861 46.0259 35.1861 46.1805 35.018C47.5712 33.8408 48.0348 33.3363 50.6618 27.9551C51.2799 26.6098 53.4434 24.4237 56.3794 25.4327C57.1521 27.6188 57.1521 29.4686 56.3794 30.982Z" fill="#0E0F23"/>
<path fill-rule="evenodd" clip-rule="evenodd" d="M55.2931 30.31C53.1297 33.6733 45.5577 31.9917 38.2948 26.4423C30.8774 20.8929 26.5506 13.83 28.714 10.4668C30.8774 7.1035 38.4494 8.78513 45.7123 14.3345C52.9752 19.8839 57.302 26.9468 55.2931 30.31ZM48.4938 25.2651C47.4121 26.9468 43.7034 26.1059 39.9947 23.4153C36.4405 20.7247 34.2771 17.1933 35.3588 15.5117C36.4405 13.83 40.1492 14.6708 43.8579 17.3615C47.4121 20.0521 49.5755 23.5835 48.4938 25.2651Z" fill="white"/>
<path d="M27.0166 13.4937C27.0166 13.3255 26.862 13.1574 26.7075 13.3255C26.553 13.4937 26.3984 13.4937 26.3984 13.6618C26.553 14.1663 26.7075 14.5027 26.7075 14.839C26.7075 15.0071 26.862 15.1753 27.0166 15.0071C27.1711 15.0071 27.3256 14.839 27.1711 14.6708C27.1711 14.3345 27.1711 13.9982 27.0166 13.4937Z" fill="white"/>
<path d="M27.7878 16.1841C27.7878 16.0159 27.6333 15.8478 27.4787 16.0159C27.3242 16.1841 27.3242 16.1841 27.3242 16.3523C29.024 20.5564 32.5782 25.0968 37.2141 28.46C37.3687 28.6282 37.5232 28.46 37.6777 28.46C37.8323 28.2919 37.6777 28.1237 37.6777 27.9555C32.8873 24.5923 29.4876 20.22 27.7878 16.1841Z" fill="white"/>
<path d="M46.4848 32.6641C46.3303 32.6641 46.1758 32.6641 46.1758 32.8322C46.1758 33.0004 46.1758 33.1686 46.3303 33.1686C46.7939 33.3367 47.412 33.5049 47.8756 33.673C48.0301 33.673 48.1847 33.673 48.1847 33.5049C48.1847 33.3367 48.1847 33.1686 48.0301 33.1686C47.5666 33.0004 46.9484 32.8322 46.4848 32.6641Z" fill="white"/>
<path d="M49.2661 33.3369C49.1116 33.3369 48.957 33.5051 48.957 33.6732C48.957 33.8414 49.1116 34.0096 49.2661 34.0096C50.5023 34.1777 51.8931 34.3459 52.9748 34.1777C53.1293 34.1777 53.2839 34.0096 53.2839 33.8414C53.2839 33.6732 53.1293 33.5051 52.9748 33.5051C51.7386 33.6732 50.5023 33.5051 49.2661 33.3369Z" fill="white"/>
<path d="M74.5583 35.7153C73.5715 35.7153 72.6295 35.6346 71.7324 35.4731C70.8353 35.2937 69.9921 35.0335 69.2026 34.6926C68.4311 34.3517 67.7493 33.9391 67.1572 33.4546L68.3145 30.9248C69.2834 31.6425 70.2702 32.1628 71.2749 32.4858C72.2796 32.8087 73.3831 32.9702 74.5852 32.9702C75.9129 32.9702 76.9355 32.737 77.6532 32.2705C78.3888 31.804 78.7566 31.1491 78.7566 30.3058C78.7566 29.8035 78.5952 29.3908 78.2722 29.0679C77.9493 28.727 77.4648 28.4399 76.8189 28.2066C76.173 27.9734 75.3746 27.7491 74.4237 27.5338C73.2934 27.3185 72.2976 27.0584 71.4364 26.7534C70.5752 26.4304 69.8575 26.0536 69.2834 25.623C68.7092 25.1924 68.2696 24.6811 67.9646 24.089C67.6776 23.479 67.534 22.7613 67.534 21.936C67.534 20.8056 67.839 19.8009 68.4491 18.9217C69.0591 18.0426 69.9113 17.3608 71.0058 16.8764C72.1182 16.374 73.4189 16.1228 74.9081 16.1228C75.8052 16.1228 76.6754 16.2125 77.5187 16.3919C78.3799 16.5714 79.1693 16.8315 79.887 17.1724C80.6047 17.4954 81.2236 17.8991 81.744 18.3835L80.5598 20.9133C79.6986 20.2136 78.8015 19.7022 77.8685 19.3793C76.9355 19.0384 75.9577 18.8679 74.935 18.8679C73.697 18.8679 72.7192 19.1191 72.0015 19.6215C71.2839 20.1238 70.925 20.8236 70.925 21.7207C70.925 22.241 71.0686 22.6716 71.3556 23.0125C71.6606 23.3534 72.1182 23.6404 72.7282 23.8737C73.3562 24.1069 74.1546 24.3402 75.1234 24.5734C76.2358 24.8067 77.2226 25.0758 78.0838 25.3808C78.963 25.6858 79.7076 26.0536 80.3176 26.4842C80.9276 26.8969 81.3851 27.3993 81.6901 27.9913C82.0131 28.5655 82.1746 29.2562 82.1746 30.0636C82.1746 31.2119 81.8696 32.2166 81.2595 33.0779C80.6495 33.9211 79.7704 34.576 78.6221 35.0425C77.4917 35.491 76.1371 35.7153 74.5583 35.7153ZM90.0743 35.6884C88.4057 35.6884 87.1498 35.2309 86.3065 34.3158C85.4812 33.3829 85.0685 31.9834 85.0685 30.1174V21.9091H88.4326V30.1444C88.4326 31.1312 88.639 31.8578 89.0516 32.3243C89.4643 32.7908 90.0833 33.024 90.9086 33.024C91.8954 33.024 92.6848 32.7011 93.2769 32.0552C93.869 31.4093 94.165 30.5481 94.165 29.4715V21.9091H97.556V35.5H94.2727V32.7011L94.6226 32.6742C94.2278 33.661 93.6358 34.4145 92.8463 34.9348C92.0569 35.4372 91.1329 35.6884 90.0743 35.6884ZM106.161 35.6884C103.685 35.6884 101.729 35.1232 100.294 33.9929L101.236 31.6246C101.953 32.1628 102.734 32.5665 103.577 32.8356C104.42 33.1048 105.3 33.2393 106.215 33.2393C107.04 33.2393 107.668 33.1048 108.098 32.8356C108.529 32.5665 108.744 32.1897 108.744 31.7053C108.744 31.2926 108.592 30.9697 108.287 30.7364C107.982 30.4853 107.462 30.27 106.726 30.0905L104.465 29.5792C103.227 29.3101 102.294 28.8615 101.666 28.2336C101.056 27.5877 100.751 26.7713 100.751 25.7845C100.751 24.9592 100.985 24.2325 101.451 23.6046C101.918 22.9587 102.572 22.4563 103.416 22.0974C104.259 21.7386 105.237 21.5592 106.349 21.5592C107.318 21.5592 108.251 21.7117 109.148 22.0167C110.045 22.3038 110.826 22.7254 111.489 23.2816L110.521 25.5961C109.839 25.0758 109.139 24.69 108.421 24.4389C107.722 24.1877 107.022 24.0621 106.322 24.0621C105.551 24.0621 104.95 24.2056 104.519 24.4927C104.088 24.7798 103.873 25.1745 103.873 25.6768C103.873 26.0716 103.999 26.3855 104.25 26.6188C104.519 26.852 104.977 27.0404 105.623 27.184L107.91 27.7491C109.256 28.0362 110.234 28.5027 110.844 29.1486C111.472 29.7766 111.786 30.6108 111.786 31.6515C111.786 32.8895 111.283 33.8763 110.278 34.6119C109.274 35.3296 107.901 35.6884 106.161 35.6884ZM114.638 35.5V15.6922H118.002V24.6542L117.598 24.6811C118.029 23.6584 118.666 22.8869 119.509 22.3666C120.37 21.8283 121.357 21.5592 122.469 21.5592C125.699 21.5592 127.314 23.4251 127.314 27.157V35.5H123.949V27.2916C123.949 26.233 123.743 25.4615 123.33 24.9771C122.918 24.4747 122.281 24.2236 121.42 24.2236C120.379 24.2236 119.545 24.5555 118.917 25.2193C118.307 25.8652 118.002 26.7264 118.002 27.803V35.5H114.638ZM130.827 35.5V21.9091H134.191V35.5H130.827ZM130.666 15.746H134.407V19.0563H130.666V15.746ZM142.824 35.6884C140.348 35.6884 138.392 35.1232 136.957 33.9929L137.899 31.6246C138.617 32.1628 139.397 32.5665 140.241 32.8356C141.084 33.1048 141.963 33.2393 142.878 33.2393C143.703 33.2393 144.331 33.1048 144.762 32.8356C145.192 32.5665 145.408 32.1897 145.408 31.7053C145.408 31.2926 145.255 30.9697 144.95 30.7364C144.645 30.4853 144.125 30.27 143.389 30.0905L141.129 29.5792C139.891 29.3101 138.958 28.8615 138.33 28.2336C137.72 27.5877 137.415 26.7713 137.415 25.7845C137.415 24.9592 137.648 24.2325 138.114 23.6046C138.581 22.9587 139.236 22.4563 140.079 22.0974C140.922 21.7386 141.9 21.5592 143.013 21.5592C143.981 21.5592 144.914 21.7117 145.811 22.0167C146.709 22.3038 147.489 22.7254 148.153 23.2816L147.184 25.5961C146.502 25.0758 145.802 24.69 145.085 24.4389C144.385 24.1877 143.685 24.0621 142.986 24.0621C142.214 24.0621 141.613 24.2056 141.182 24.4927C140.752 24.7798 140.537 25.1745 140.537 25.6768C140.537 26.0716 140.662 26.3855 140.913 26.6188C141.182 26.852 141.64 27.0404 142.286 27.184L144.573 27.7491C145.919 28.0362 146.897 28.5027 147.507 29.1486C148.135 29.7766 148.449 30.6108 148.449 31.6515C148.449 32.8895 147.947 33.8763 146.942 34.6119C145.937 35.3296 144.564 35.6884 142.824 35.6884ZM154.912 35.5L149.583 21.9091H153.055L156.876 32.4319H156.204L160.052 21.9091H162.501L166.323 32.4319H165.704L169.525 21.9091H172.782L167.453 35.5H164.52L160.375 24.5465H161.909L157.845 35.5H154.912ZM179.968 35.6884C178.783 35.6884 177.734 35.4103 176.819 34.8541C175.904 34.28 175.195 33.4726 174.693 32.4319C174.208 31.3734 173.966 30.1354 173.966 28.718C173.966 27.2826 174.217 26.0357 174.72 24.9771C175.222 23.9006 175.922 23.0663 176.819 22.4742C177.734 21.8642 178.783 21.5592 179.968 21.5592C181.116 21.5592 182.112 21.8463 182.955 22.4204C183.816 22.9766 184.399 23.7571 184.704 24.7618L184.381 24.9502V21.9091H187.691V35.5H184.381V32.4319L184.704 32.5396C184.399 33.5443 183.816 34.3248 182.955 34.881C182.112 35.4193 181.116 35.6884 179.968 35.6884ZM180.883 33.1048C181.995 33.1048 182.856 32.719 183.466 31.9475C184.076 31.176 184.381 30.0816 184.381 28.6642C184.381 27.2109 184.076 26.1074 183.466 25.3539C182.856 24.5824 181.995 24.1966 180.883 24.1966C179.752 24.1966 178.873 24.5914 178.245 25.3808C177.617 26.1702 177.303 27.2826 177.303 28.718C177.303 30.1174 177.617 31.2029 178.245 31.9744C178.873 32.728 179.752 33.1048 180.883 33.1048ZM191.328 41.3132V25.7576C191.328 25.1296 191.311 24.4927 191.275 23.8468C191.257 23.1829 191.203 22.537 191.113 21.9091H194.289L194.585 24.6003L194.397 24.7618C194.684 23.7571 195.249 22.9766 196.092 22.4204C196.935 21.8463 197.931 21.5592 199.079 21.5592C200.264 21.5592 201.304 21.8642 202.201 22.4742C203.116 23.0663 203.834 23.9006 204.354 24.9771C204.875 26.0357 205.135 27.2826 205.135 28.718C205.135 30.1354 204.875 31.3734 204.354 32.4319C203.834 33.4726 203.125 34.28 202.228 34.8541C201.331 35.4103 200.281 35.6884 199.079 35.6884C197.931 35.6884 196.935 35.4193 196.092 34.881C195.249 34.3248 194.684 33.5443 194.397 32.5396L194.693 32.109V41.3132H191.328ZM198.218 33.1048C199.331 33.1048 200.192 32.728 200.802 31.9744C201.412 31.2029 201.717 30.1174 201.717 28.718C201.717 27.2826 201.412 26.1702 200.802 25.3808C200.192 24.5914 199.331 24.1966 198.218 24.1966C197.07 24.1966 196.191 24.5824 195.581 25.3539C194.989 26.1074 194.693 27.2109 194.693 28.6642C194.693 30.0816 194.989 31.176 195.581 31.9475C196.191 32.719 197.07 33.1048 198.218 33.1048Z" fill="black"/>
<defs>
<linearGradient id="paint0_linear_805_1555" x1="33.2632" y1="6.58945" x2="39.9175" y2="27.5869" gradientUnits="userSpaceOnUse">
<stop stop-color="#03B8FF"/>
<stop offset="1" stop-color="#FA52A0"/>
</linearGradient>
<linearGradient id="paint1_linear_805_1555" x1="37.9601" y1="5.10147" x2="44.6145" y2="26.0991" gradientUnits="userSpaceOnUse">
<stop stop-color="#03B8FF"/>
<stop offset="1" stop-color="#FA52A0"/>
</linearGradient>
<linearGradient id="paint2_linear_805_1555" x1="28.5865" y1="8.07193" x2="35.241" y2="29.0696" gradientUnits="userSpaceOnUse">
<stop stop-color="#03B8FF"/>
<stop offset="1" stop-color="#FA52A0"/>
</linearGradient>
</defs>
</svg>
