<?xml version="1.0" encoding="UTF-8"?><svg id="Layer_1" xmlns="http://www.w3.org/2000/svg" viewBox="0 0 1080 1080"><path d="m526.08,419.26h-241.49v241.49h241.49v-82.74h-41.21c-14.18,29.65-44.45,50.14-79.54,50.14-47.94,0-86.92-38.26-88.11-85.9h208.85v-122.99Zm-205.13,95.21c10.95-36.24,44.59-62.61,84.38-62.61s73.43,26.37,84.37,62.61h-168.75Z" style="fill:#fff;"/><path d="m47.74,539.24c0,48.68,39.47,88.14,88.14,88.14,34.91,0,65.1-20.3,79.36-49.76h41.38v83.12H15.14v-241.49h241.49v83.62h-40.41c-13.87-30.53-44.62-51.76-80.33-51.76-48.68,0-88.14,39.45-88.14,88.13Z" style="fill:#fff;"/><path d="m795.47,577.62v83.12h-241.49v-241.49h32.6v120.74c0,13.45,3.02,26.22,8.42,37.62,14.11,29.86,44.5,50.52,79.73,50.52s65.62-20.66,79.73-50.52h41.02Z" style="fill:#fff;"/><path d="m823.37,419.26v241.49h241.49v-241.49h-241.49Zm120.74,208.89c-48.68,0-88.13-39.47-88.13-88.14s39.45-88.14,88.13-88.14,88.14,39.47,88.14,88.14-39.45,88.14-88.14,88.14Z" style="fill:#fff;"/></svg>