<?xml version="1.0" encoding="UTF-8"?><svg id="Layer_1" xmlns="http://www.w3.org/2000/svg" xmlns:xlink="http://www.w3.org/1999/xlink" viewBox="0 0 1045.53 396.62"><defs><clipPath id="clippath"><rect width="376.34" height="396.62" style="fill:none;"/></clipPath><mask id="mask" x="0" y="0" width="376.34" height="397.47" maskUnits="userSpaceOnUse"><g id="mask0_1_4"><path d="m0,0h376.34v396.62H0V0Z" style="fill:#fff;"/></g></mask><linearGradient id="linear-gradient" x1="187.53" y1="219.58" x2="186.91" y2="1.16" gradientTransform="translate(0 398.62) scale(1 -1)" gradientUnits="userSpaceOnUse"><stop offset="0" stop-color="#22dffd"/><stop offset="1" stop-color="#052efd"/></linearGradient></defs><g style="clip-path:url(#clippath);"><g style="mask:url(#mask);"><path d="m44.43,124.37L124.18,0,5.29,118.88c-9.89,9.89-5.24,26.79,8.32,30.23l63.01,15.95c-5.63,8.84-12,19.99-16.95,31.82-4.54,10.83-8.32,23.23-8.69,35.51-.38,12.57,2.84,26.05,13.47,36.68,15.98,15.98,27.58,21.55,36.84,26,.69.33,1.37.66,2.03.98,4.31,2.09,7.5,3.81,10.88,6.51,3.41,2.73,7.55,6.89,12.87,14.21.95,1.3,1.95,2.69,3.01,4.16,11.6,16.1,29.81,41.36,53.3,58.13,13.11,9.36,28.67,16.71,46.46,18.15,18.02,1.46,36.84-3.28,56-15.61,18.35-11.82,30.44-24.98,36.12-40.31,5.73-15.44,4.03-30.57-.14-44.29-3.82-12.57-10.18-25.39-16.13-37.35v-.02s-.13-.23-.13-.23l-.99-2c-6.5-13.11-12.63-25.78-16.71-39.04-7.97-25.89-2.56-37.11.83-41.55,1.63-2.14,3.7-3.9,6.08-5.16.88-.47,1.59-.75,1.98-.89l.21-.07.37-.09.64-.21,2.82-.92,7.43-2.45c6.15-2.03,14.38-4.75,22.64-7.5,8.25-2.75,16.59-5.55,22.95-7.75,3.17-1.09,5.92-2.06,7.96-2.8,1-.37,1.95-.73,2.74-1.04.37-.15.89-.37,1.43-.62.42-.2.83-.41,1.24-.64h.03c1.27-.73,2.44-1.62,3.48-2.65,6.41-6.41,4.36-14.26,4.15-15.06v-.04c-.35-1.3-.84-2.56-1.48-3.74-.42-.77-.9-1.5-1.42-2.2-.56-.74-1.17-1.47-1.64-2.01-1.32-1.5-2.67-2.98-4.05-4.43-1.95-2.08-39.75-40.37-71.5-72.54C272.77,21.69,253.67,2.35,251.39,0c.27.28,20.61,32.28,40.74,63.95,19.73,31.04,39.26,61.76,39.51,62.03-3.46,1.17-7.09,2.38-10.73,3.59-9.97,3.32-19.95,6.62-29.94,9.9l-2.38.78-.19.05-.14.04c-.56.16-1.26.38-2.08.68-1.63.58-3.78,1.47-6.2,2.75-6.37,3.39-11.94,8.12-16.32,13.85-11.25,14.71-15.99,37.3-5.93,69.99,4.93,16.03,12.18,30.83,18.6,43.78l.63,1.27c6.39,12.88,11.67,23.52,14.69,33.49,3.02,9.94,3.22,17.48.75,24.15-2.52,6.78-8.74,15.17-23.63,24.76-14.08,9.07-26.1,11.52-36.37,10.69-10.5-.85-20.7-5.26-30.67-12.38-19.02-13.58-34.28-34.67-46.31-51.29-.96-1.32-1.9-2.62-2.82-3.88-6.56-9.02-12.59-15.42-18.69-20.3-6.14-4.9-11.82-7.83-16.79-10.25-.72-.35-1.43-.69-2.14-1.03-8.16-3.92-16.01-7.68-28.21-19.88-2.81-2.81-4.45-6.85-4.25-13.41.21-6.85,2.46-15.2,6.26-24.28,7.58-18.09,19.61-35.08,24.41-41.5,7.84-10.48,2.26-25.23-10.05-28.34l-58.71-14.86Zm133,128.98s-24.32,0-40.52-14.91c-16.21-14.92,0-44.74,0-44.74,0,0,4.73,2.98,22.63,23.86,17.9,20.88,17.9,35.8,17.9,35.8Z" style="fill:url(#linear-gradient); fill-rule:evenodd;"/></g></g><g><path d="m499.05,275.12V121.5h45.66c10.38,0,19.39,1.97,27.04,5.89,7.64,3.93,13.57,9.47,17.78,16.62,4.21,7.15,6.31,15.64,6.31,25.46v57.45c0,9.68-2.1,18.13-6.31,25.36-4.21,7.23-10.14,12.84-17.78,16.83-7.65,4-16.66,6-27.04,6h-45.66Zm26.3-23.57h19.36c7.58,0,13.6-2.24,18.1-6.73,4.49-4.49,6.73-10.45,6.73-17.89v-57.45c0-7.43-2.25-13.36-6.73-17.78-4.49-4.42-10.52-6.63-18.1-6.63h-19.36v106.48Z" style="fill:#fff;"/><path d="m656.87,277.22c-14.73,0-26.41-4.21-35.04-12.63-8.63-8.42-12.94-20.06-12.94-34.93v-62.71c0-15.01,4.31-26.69,12.94-35.04,8.63-8.34,20.31-12.52,35.04-12.52s26.41,4.18,35.04,12.52c8.63,8.35,12.94,19.96,12.94,34.83v62.92c0,14.87-4.31,26.51-12.94,34.93-8.63,8.42-20.31,12.63-35.04,12.63Zm0-23.15c7.15,0,12.55-1.93,16.2-5.79,3.65-3.86,5.47-9.36,5.47-16.52v-66.92c0-7.29-1.82-12.84-5.47-16.62-3.65-3.79-9.05-5.68-16.2-5.68s-12.56,1.89-16.2,5.68c-3.65,3.79-5.47,9.33-5.47,16.62v66.92c0,7.15,1.86,12.66,5.58,16.52,3.72,3.86,9.08,5.79,16.1,5.79Z" style="fill:#fff;"/><path d="m720.42,275.12V121.5h51.13c10.24,0,19.18,1.97,26.83,5.89,7.64,3.93,13.57,9.44,17.78,16.52,4.21,7.09,6.31,15.4,6.31,24.94s-2.14,17.68-6.42,24.83c-4.28,7.15-10.21,12.7-17.78,16.62-7.58,3.93-16.49,5.89-26.72,5.89h-24.83v58.92h-26.3Zm26.3-82.07h24.83c7.29,0,13.15-2.24,17.57-6.73,4.42-4.49,6.63-10.31,6.63-17.47s-2.21-13.15-6.63-17.57c-4.42-4.42-10.28-6.63-17.57-6.63h-24.83v48.4Z" style="fill:#fff;"/><path d="m833.2,275.12V121.5h92.17v23.15h-66.28v39.98h58.92v22.31h-58.92v45.03h66.28v23.15h-92.17Z" style="fill:#fff;"/><path d="m931.05,275.12l42.51-78.7-39.98-74.91h29.46l19.36,38.51c1.4,2.81,2.66,5.51,3.79,8.1,1.12,2.6,1.96,4.6,2.52,6,.42-1.4,1.19-3.4,2.31-6,1.12-2.59,2.38-5.29,3.79-8.1l19.57-38.51h28.62l-39.98,74.28,42.51,79.33h-29.46l-21.67-42.51c-1.4-2.8-2.7-5.54-3.89-8.21-1.19-2.66-2.07-4.77-2.63-6.31-.56,1.55-1.4,3.65-2.53,6.31-1.12,2.67-2.39,5.4-3.79,8.21l-21.88,42.51h-28.62Z" style="fill:#fff;"/></g></svg>