<svg width="175" height="52" viewBox="0 0 175 52" fill="none" xmlns="http://www.w3.org/2000/svg">
<g clip-path="url(#clip0_805_1211)">
<path fill-rule="evenodd" clip-rule="evenodd" d="M51.0466 10.7588H21.1289V40.8685H51.046V30.3581H46.081C44.3695 34.1923 40.5172 36.8628 36.1087 36.8628C30.0309 36.8628 25.109 31.8666 25.109 25.7925C25.109 19.7185 30.0309 14.765 36.1087 14.765C40.6027 14.765 44.455 17.5221 46.1672 21.4417H51.0466V10.7588ZM80.0196 30.3575C78.2651 34.1916 74.4556 36.862 70.0048 36.8622C64.098 36.8622 59.2616 32.124 59.0477 26.2226H84.9846V10.7588H55.0669V40.8678H84.9846V30.3575H80.0196ZM80.4031 22.5183H59.5165C60.8432 17.5648 65.2512 14.7651 70.0023 14.7651C74.7532 14.7651 78.8625 17.3922 80.4031 22.5183ZM149.589 25.7919C149.589 31.9087 144.709 36.8622 138.631 36.8622C132.596 36.8622 127.674 31.8659 127.674 25.7919C127.674 19.7179 132.554 14.7644 138.631 14.7644C144.709 14.7644 149.589 19.6752 149.589 25.7919ZM153.611 10.7588H123.694V40.8685H153.611V10.7588ZM114.988 30.3575H119.953V40.8678H88.9658V10.7588H94.0161V25.7919C94.0161 32.5119 98.9811 36.8194 104.887 36.8194C109.467 36.8194 113.49 34.3205 114.988 30.3575Z" fill="black"/>
</g>
<defs>
<clipPath id="clip0_805_1211">
<rect width="133.654" height="30.4825" fill="white" transform="translate(20.6133 10.7588)"/>
</clipPath>
</defs>
</svg>
