<?xml version="1.0" encoding="UTF-8"?><svg id="Layer_1" xmlns="http://www.w3.org/2000/svg" viewBox="0 0 1045.91 694.88"><rect width="302" height="302" rx="65" ry="65" style="fill:#10a37f;"/><path d="m139.67,45.73c-23.03,0-43.49,14.83-50.62,36.72-14.81,3.05-27.58,12.32-35.08,25.45-11.55,19.96-8.91,45.06,6.56,62.17-4.78,14.33-3.14,30.01,4.49,42.99,11.48,20.03,34.58,30.3,57.18,25.52,10.01,11.3,24.4,17.74,39.5,17.68,23.03,0,43.49-14.83,50.62-36.72,14.83-3.07,27.59-12.34,35.01-25.45,11.62-19.96,8.98-45.06-6.49-62.17v-.07c4.77-14.33,3.14-30.03-4.49-43.06-11.48-19.96-34.58-30.23-57.11-25.45-10.06-11.27-24.47-17.68-39.57-17.61Zm0,13.69l-.07.07c9.27,0,18.18,3.21,25.31,9.13-.29.14-.86.5-1.28.71l-41.92,24.17c-2.14,1.21-3.42,3.49-3.42,5.99v56.75l-18.04-10.41v-46.91c0-21.79,17.64-39.47,39.42-39.5h0Zm50.5,16.52c14.14-.03,27.21,7.51,34.27,19.77,4.56,7.99,6.27,17.33,4.7,26.38-.29-.21-.85-.5-1.21-.71l-41.92-24.24c-2.15-1.21-4.77-1.21-6.91,0l-49.12,28.38v-20.82l40.57-23.46c5.96-3.46,12.73-5.28,19.63-5.3h0Zm-103.69,21.55v49.84c0,2.5,1.28,4.71,3.42,5.99l49.05,28.3-18.11,10.48-40.5-23.39c-18.84-10.92-25.29-35.04-14.4-53.9,4.61-7.99,11.88-14.12,20.53-17.33h0Zm93.97,12.34l40.57,23.39c18.89,10.91,25.31,35.01,14.4,53.9l.07.07c-4.63,7.99-11.91,14.12-20.53,17.25v-49.84c0-2.5-1.28-4.78-3.42-5.99l-49.12-28.38,18.04-10.41Zm-29.8,17.18l20.68,11.98v23.88l-20.68,11.98-20.67-11.98v-23.88l20.67-11.98Zm32.51,18.82l18.04,10.41v46.84c0,21.82-17.68,39.5-39.42,39.5v-.07c-9.2,0-18.18-3.21-25.24-9.12.29-.14.93-.5,1.28-.71l41.92-24.17c2.14-1.21,3.49-3.49,3.42-5.99v-56.68Zm-11.76,30.66v20.82l-40.57,23.39c-18.89,10.84-42.99,4.42-53.9-14.4h.07c-4.63-7.91-6.28-17.33-4.71-26.38.29.21.86.5,1.21.71l41.92,24.24c2.15,1.21,4.77,1.21,6.91,0l49.06-28.38Z" style="fill:#fff;"/><g><path d="m434.77,99.46c8.48,8.19,13.19,17.49,14.12,27.91h-16.21c-1.81-7.91-5.4-14.18-10.79-18.8-5.39-4.62-12.95-6.94-22.69-6.94-11.87,0-21.46,4.25-28.76,12.75-7.3,8.5-10.95,21.53-10.95,39.1,0,14.38,3.3,26.05,9.89,35,6.59,8.95,16.43,13.42,29.51,13.42,12.04,0,21.21-4.71,27.5-14.12,3.34-4.96,5.83-11.47,7.47-19.55h16.21c-1.43,12.92-6.17,23.76-14.21,32.5-9.64,10.53-22.63,15.79-38.99,15.79-14.1,0-25.94-4.32-35.52-12.96-12.61-11.43-18.91-29.07-18.91-52.93,0-18.12,4.73-32.97,14.21-44.56,10.24-12.6,24.36-18.9,42.37-18.9,15.36,0,27.28,4.09,35.76,12.28Z" style="fill:#fff;"/><path d="m469.53,90.1h15.04v45.79c3.56-4.51,6.77-7.69,9.61-9.53,4.85-3.17,10.89-4.76,18.13-4.76,12.98,0,21.78,4.54,26.4,13.62,2.51,4.96,3.76,11.84,3.76,20.64v57.4h-15.46v-56.4c0-6.57-.84-11.39-2.51-14.46-2.73-4.9-7.86-7.35-15.38-7.35-6.24,0-11.89,2.15-16.96,6.43-5.07,4.29-7.6,12.4-7.6,24.32v47.46h-15.04v-123.16Z" style="fill:#fff;"/><path d="m612.67,159.11c3.45-.44,5.77-1.89,6.93-4.34.67-1.34,1-3.27,1-5.79,0-5.14-1.82-8.88-5.46-11.2-3.64-2.32-8.85-3.48-15.63-3.48-7.84,0-13.4,2.13-16.68,6.38-1.83,2.35-3.03,5.85-3.58,10.5h-14.04c.28-11.06,3.85-18.76,10.72-23.09,6.87-4.33,14.84-6.49,23.91-6.49,10.52,0,19.06,2.01,25.62,6.02,6.51,4.01,9.76,10.25,9.76,18.72v51.56c0,1.56.32,2.81.96,3.76.64.95,1.99,1.42,4.05,1.42.67,0,1.42-.04,2.26-.12.84-.08,1.73-.21,2.67-.38v11.11c-2.34.67-4.12,1.09-5.35,1.25-1.23.17-2.9.25-5.01.25-5.18,0-8.94-1.84-11.28-5.51-1.23-1.95-2.09-4.71-2.59-8.27-3.06,4.01-7.46,7.49-13.2,10.44-5.74,2.95-12.06,4.43-18.97,4.43-8.3,0-15.08-2.52-20.35-7.55-5.26-5.03-7.9-11.33-7.9-18.9,0-8.29,2.59-14.71,7.77-19.28,5.18-4.56,11.98-7.37,20.39-8.43l23.98-3Zm-31.67,40.63c3.17,2.5,6.94,3.75,11.28,3.75,5.29,0,10.42-1.22,15.38-3.67,8.36-4.06,12.53-10.71,12.53-19.94v-12.1c-1.84,1.17-4.2,2.15-7.09,2.93-2.89.78-5.73,1.34-8.51,1.67l-9.09,1.17c-5.45.72-9.54,1.86-12.29,3.42-4.65,2.61-6.98,6.78-6.98,12.5,0,4.33,1.59,7.75,4.76,10.25Z" style="fill:#fff;"/><path d="m662.88,98.79h15.21v24.98h14.29v12.28h-14.29v58.41c0,3.12,1.06,5.21,3.17,6.27,1.17.61,3.12.92,5.85.92.72,0,1.5-.02,2.34-.05.83-.04,1.81-.13,2.92-.28v11.95c-1.73.5-3.52.86-5.39,1.09s-3.88.33-6.06.33c-7.02,0-11.78-1.8-14.29-5.39s-3.76-8.26-3.76-14v-59.24h-12.12v-12.28h12.12v-24.98Z" style="fill:#fff;"/><path d="m791.13,94.03c12.02,6.41,19.38,17.63,22.07,33.67h-16.46c-1.96-8.97-6.03-15.5-12.19-19.59-6.16-4.09-13.94-6.14-23.32-6.14-11.13,0-20.5,4.26-28.11,12.78-7.61,8.52-11.41,21.22-11.41,38.1,0,14.59,3.14,26.47,9.42,35.64,6.28,9.16,16.51,13.75,30.71,13.75,10.86,0,19.86-3.22,26.98-9.65,7.12-6.43,10.77-16.84,10.94-31.21h-38.44v-13.79h53.89v65.68h-10.7l-4.01-15.79c-5.54,6.18-10.44,10.47-14.71,12.87-7.18,4.12-16.3,6.18-27.37,6.18-14.3,0-26.61-4.71-36.91-14.12-11.23-11.81-16.85-28.02-16.85-48.63s5.49-36.9,16.47-49.05c10.43-11.59,23.94-17.38,40.52-17.38,11.36,0,21.19,2.23,29.48,6.68Z" style="fill:#fff;"/><path d="m844.12,90.52h54.93c10.86,0,19.63,3.08,26.3,9.23,6.68,6.16,10.01,14.8,10.01,25.94,0,9.58-2.98,17.92-8.94,25.03-5.96,7.1-15.08,10.65-27.35,10.65h-38.33v51.89h-16.63v-122.75Zm64.5,16.88c-3.65-1.73-8.66-2.59-15.02-2.59h-32.85v42.53h32.85c7.41,0,13.43-1.59,18.04-4.76,4.62-3.18,6.93-8.77,6.93-16.8,0-9.02-3.32-15.15-9.96-18.38Z" style="fill:#fff;"/><path d="m1045.91,90.52v14.62h-41.36v108.12h-16.79v-108.12h-41.36v-14.62h99.52Z" style="fill:#fff;"/></g></svg>