<?xml version="1.0" encoding="utf-8"?>
<!-- Generator: Adobe Illustrator 27.2.0, SVG Export Plug-In . SVG Version: 6.00 Build 0)  -->
<svg version="1.1" id="Layer_1" xmlns="http://www.w3.org/2000/svg" xmlns:xlink="http://www.w3.org/1999/xlink" x="0px" y="0px"
	 viewBox="0 0 1057.9 281.7" style="enable-background:new 0 0 1057.9 281.7;" xml:space="preserve">
<style type="text/css">
	.st0{fill:#FFFFFF;}
</style>
<g>
	<path class="st0" d="M808.5,165.5l0.2,0.2l0.1-0.1C808.7,165.6,808.6,165.5,808.5,165.5L808.5,165.5z"/>
	<path class="st0" d="M830,182.2c3.3,6.6,4.9,14.8,4.9,24.9c0,17.5-7.9,31.7-23.6,42.4c-15.8,10.7-39.9,16.1-72.3,16.1
		s-55-5.7-71.8-17c-1.9-1.3-3.7-2.6-5.4-4l30.3-30.3c2.3,4.9,6,8.9,11.1,12.2c8.7,5.5,20.9,8.2,36.8,8.2c14.2,0,25.4-2,33.7-5.9
		c8.1-4,12.2-10.1,12.2-18.2c0-6-1.6-10.8-4.8-14.1c-3.1-3.4-8.3-5.8-15.6-7.3c-7.2-1.6-17.2-2.9-29.8-4
		c-15.9-1.6-29.5-3.7-40.8-6.3s-20.5-5.8-27.5-9.8c-7-4-12.2-9.1-15.6-15.4c-3.4-6.3-5.1-14-5.1-23.1c0-11.9,3.7-22.3,11.2-31
		c7.4-8.8,18-15.5,31.7-20.1c13.7-4.7,30-7,49.2-7c17.9,0,33.5,2.3,46.5,7c8,2.9,15,6.5,21,10.9l-28.6,28.6
		c-0.8-1.2-1.7-2.4-2.7-3.4c-3.8-4.2-8.9-7.3-15.1-9.3c-6.2-2-13.3-3-21.5-3c-12.6,0-23,1.8-31.2,5.6c-8.2,3.7-12.2,9.7-12.2,17.8
		c0,5.4,1.7,9.6,5.1,12.6c3.4,3,8.8,5.3,16.3,6.8s17.3,3,29.4,4.4c15.8,1.2,29.5,3,40.9,5.4c6.2,1.3,11.8,2.9,16.7,4.9l0.2,0.2
		l0.1-0.1c4,1.5,7.5,3.3,10.7,5.1C821.5,170.3,826.7,175.7,830,182.2L830,182.2z"/>
	<path class="st0" d="M585.5,80.6h50v186.3h-47.9l-2.1-35.4H583c-6.1,12.1-15.7,21.6-28.7,28.4c-13.1,6.8-27.6,10.2-43.4,10.2
		s-30.3-2.8-42.5-8.4c-12.2-5.6-21.8-14.8-28.5-27.5c-6.8-12.7-10.1-29.7-10.1-51v-64.8h-40.1v148.4H340V118.4H306V80.6H340V64.5
		c0-18.2,5.5-31.6,16.6-40.1s27.1-12.8,48.1-12.8h30.8v33.3h-23.1c-7.7,0-13.4,1.7-17.1,5.1c-3.7,3.4-5.6,9-5.6,16.6v14h89.8v93.8
		c0,12.4,1.7,22.8,5.1,31.3c3.4,8.6,8.6,15.1,15.6,19.6c7,4.5,16.1,6.8,27.3,6.8c11.9,0,22.2-2.6,30.8-7.7
		c8.6-5.1,15.4-12.2,20.1-21c4.8-8.9,7.2-19.2,7.2-30.8L585.5,80.6L585.5,80.6z"/>
	<path class="st0" d="M1047.9,126.5c-8.1-15.9-20.2-28.1-36.4-36.6c-16.2-8.5-36-12.8-59.4-12.8c-21.7,0-40.8,4-57.2,11.9
		c-16.4,7.9-29.1,19.2-38,33.6c-8.8,14.5-13.3,31.8-13.3,51.8s4.5,36.9,13.5,51.1c9,14.2,21.6,25.2,38,32.9
		c16.3,7.7,35.7,11.6,58.1,11.6c18.4,0,35.1-2.6,50.1-7.7c14.9-5.1,27.2-12.4,36.8-21.7l0.5-0.5l-30.9-30.9
		c-2.9,7.8-9.2,14.1-18.8,19c-9.9,5-22.1,7.5-36.6,7.5c-12.2,0-22.8-2-31.8-6.1c-9.1-4.1-16.2-10-21.2-17.7c-5-7.7-7.8-17-8.2-28
		h164.5C1059.1,161.5,1055.9,142.3,1047.9,126.5L1047.9,126.5z M892.3,155.9c1.4-8.6,4.4-16.1,9-22.4c5.1-7,11.9-12.4,20.5-16.1
		c8.5-3.7,18.6-5.6,30.2-5.6s21.7,1.9,30,5.6c8.3,3.7,14.7,9.1,19.3,16.1c4.2,6.4,6.5,13.9,7,22.4H892.3L892.3,155.9z"/>
</g>
<g>
	<path class="st0" d="M75.8,26.4l44.8-25.9c1.3-0.7,2.9-0.7,4.1,0l118.1,68.2c1.3,0.7,2.1,2.1,2.1,3.6l0.2,46.9
		c0,1.5-0.8,2.9-2.1,3.6l-44.8,25.8c-2.8,1.6-6.2-0.4-6.2-3.6l-0.1-42.1c0-1.5-0.8-2.8-2.1-3.6l-114-65.8C73.1,32,73.1,28,75.8,26.4
		z"/>
	<path class="st0" d="M46.9,238.9L2.1,213c-1.3-0.7-2.1-2.1-2.1-3.6V73c0-1.5,0.8-2.8,2.1-3.6l40.5-23.6c1.3-0.8,2.9-0.8,4.2,0
		l44.7,25.8c2.8,1.6,2.8,5.6,0,7.2L55.1,100c-1.3,0.7-2.1,2.1-2.1,3.6v131.7C53.1,238.5,49.6,240.5,46.9,238.9L46.9,238.9
		L46.9,238.9z"/>
	<path class="st0" d="M245.2,157.7v51.7c0,1.5-0.8,2.9-2.1,3.6L125,281.2c-1.3,0.7-2.8,0.7-4.1,0l-40.7-23.3
		c-1.3-0.7-2.1-2.1-2.1-3.6v-51.7c0-3.2,3.4-5.2,6.2-3.6l36.5,20.9c1.3,0.7,2.8,0.7,4.1,0l114-65.9
		C241.7,152.5,245.2,154.5,245.2,157.7L245.2,157.7L245.2,157.7z"/>
</g>
</svg>
