<svg width="30" height="27" viewBox="0 0 30 27" fill="none" xmlns="http://www.w3.org/2000/svg">
<path d="M29.9537 2.30918C29.9537 8.86696 25.1231 14.2875 18.865 15.1246C18.4596 12.0419 17.1177 9.25951 15.1364 7.0832C17.3233 3.13467 21.503 0.461914 26.2993 0.461914H28.1265C29.1372 0.461914 29.9537 1.28741 29.9537 2.30918ZM0.71875 6.00371C0.71875 4.98194 1.53527 4.15644 2.54593 4.15644H4.37312C11.4363 4.15644 17.1634 9.94646 17.1634 17.0873V18.9346V24.4763C17.1634 25.4981 16.3469 26.3236 15.3362 26.3236C14.3256 26.3236 13.509 25.4981 13.509 24.4763V18.9346C6.44583 18.9346 0.71875 13.1445 0.71875 6.00371Z" fill="#52D46F"/>
</svg>
