<svg width="106" height="106" viewBox="0 0 106 106" fill="none" xmlns="http://www.w3.org/2000/svg">
<g clip-path="url(#clip0_1220_2560)">
<path d="M53 106C82.2711 106 106 82.2711 106 53C106 23.7289 82.2711 0 53 0C23.7289 0 0 23.7289 0 53C0 82.2711 23.7289 106 53 106Z" fill="#F0F0F0"/>
<path d="M102.703 71.4348C104.834 65.6932 106 59.4831 106 53.0001C106 46.5171 104.834 40.307 102.703 34.5654H3.29656C1.16621 40.307 0 46.5171 0 53.0001C0 59.4831 1.16621 65.6932 3.29656 71.4348L53 76.0435L102.703 71.4348Z" fill="#0052B4"/>
<path d="M53.0003 106C75.7885 106 95.2152 91.617 102.704 71.4346H3.29688C10.7854 91.617 30.2122 106 53.0003 106Z" fill="#D80027"/>
</g>
<defs>
<clipPath id="clip0_1220_2560">
<rect width="106" height="106" fill="white"/>
</clipPath>
</defs>
</svg>
