<svg width="31" height="39" viewBox="0 0 31 39" fill="none" xmlns="http://www.w3.org/2000/svg">
<path fill-rule="evenodd" clip-rule="evenodd" d="M15.5076 2.30762L3.51999 6.70262C3.12821 6.83726 2.78797 7.09036 2.54638 7.42689C2.30479 7.76342 2.17379 8.16674 2.17151 8.581V20.1281C2.17151 20.1281 2.11141 30.6675 15.5076 36.8223V2.30762Z" fill="#2B61D1"/>
<path fill-rule="evenodd" clip-rule="evenodd" d="M15.507 2.30737L27.4945 6.70238C27.8789 6.84358 28.2106 7.09949 28.4448 7.43547C28.6789 7.77144 28.8041 8.17125 28.8035 8.58076V20.1278C28.8035 20.1278 28.8628 30.6673 15.4769 36.822L15.507 2.30737Z" fill="white"/>
<path fill-rule="evenodd" clip-rule="evenodd" d="M28.8126 8.5403V20.1277C28.8126 20.3175 28.7525 30.7067 15.4766 36.8203C2.21087 30.6672 2.15076 20.278 2.15076 20.1277V8.5403C2.14983 8.13127 2.27447 7.73181 2.50785 7.39589C2.74123 7.05997 3.07209 6.80378 3.45574 6.66193L14.3242 2.66633C15.0664 2.39687 15.8796 2.39687 16.6218 2.66633L27.5005 6.66193C27.8855 6.80261 28.2179 7.0583 28.4526 7.39432C28.6873 7.73034 28.813 8.13043 28.8126 8.5403Z" stroke="#2B61D1" stroke-width="3.19234" stroke-miterlimit="10"/>
</svg>
