<svg width="106" height="106" viewBox="0 0 106 106" fill="none" xmlns="http://www.w3.org/2000/svg">
<g clip-path="url(#clip0_1220_2564)">
<path d="M0 52.9999C0 59.4829 1.16621 65.693 3.29656 71.4346L53 76.0434L102.703 71.4346C104.834 65.693 106 59.4829 106 52.9999C106 46.517 104.834 40.3069 102.703 34.5653L53 29.9565L3.29656 34.5653C1.16621 40.3069 0 46.517 0 52.9999H0Z" fill="#FFDA44"/>
<path d="M102.704 34.5653C95.2152 14.3831 75.7885 0 53.0003 0C30.2122 0 10.7854 14.3831 3.29688 34.5653H102.704Z" fill="#D80027"/>
<path d="M3.29688 71.4346C10.7854 91.6168 30.2122 106 53.0003 106C75.7885 106 95.2152 91.6168 102.704 71.4346H3.29688Z" fill="#D80027"/>
</g>
<defs>
<clipPath id="clip0_1220_2564">
<rect width="106" height="106" fill="white"/>
</clipPath>
</defs>
</svg>
