<svg width="38" height="39" viewBox="0 0 38 39" fill="none" xmlns="http://www.w3.org/2000/svg">
<path d="M6.50953 8.94178C7.05644 6.89087 8.91384 5.46387 11.0364 5.46387H26.7201C28.8427 5.46387 30.7001 6.89087 31.247 8.94178L34.5481 21.3206C33.1438 20.1935 31.3605 19.5191 29.4197 19.5191H8.33684C6.39606 19.5191 4.61278 20.1935 3.20851 21.3206L6.50953 8.94178Z" fill="#2B61D1"/>
<path fill-rule="evenodd" clip-rule="evenodd" d="M8.33683 21.8617C5.10245 21.8617 2.48047 24.4837 2.48047 27.718C2.48047 30.9524 5.10245 33.5744 8.33683 33.5744H29.4197C32.6541 33.5744 35.2761 30.9524 35.2761 27.718C35.2761 24.4837 32.6541 21.8617 29.4197 21.8617H8.33683ZM24.7346 28.8893C25.3815 28.8893 25.9059 28.3649 25.9059 27.718C25.9059 27.0712 25.3815 26.5468 24.7346 26.5468C24.0878 26.5468 23.5634 27.0712 23.5634 27.718C23.5634 28.3649 24.0878 28.8893 24.7346 28.8893ZM30.591 27.718C30.591 28.3649 30.0666 28.8893 29.4197 28.8893C28.7729 28.8893 28.2485 28.3649 28.2485 27.718C28.2485 27.0712 28.7729 26.5468 29.4197 26.5468C30.0666 26.5468 30.591 27.0712 30.591 27.718Z" fill="#2B61D1"/>
</svg>
