<svg width="106" height="106" viewBox="0 0 106 106" fill="none" xmlns="http://www.w3.org/2000/svg">
<g clip-path="url(#clip0_1220_2569)">
<path d="M53 106C82.2711 106 106 82.2711 106 53C106 23.7289 82.2711 0 53 0C23.7289 0 0 23.7289 0 53C0 82.2711 23.7289 106 53 106Z" fill="#F0F0F0"/>
<path d="M102.703 34.5654H3.29656C1.166 40.307 0 46.5171 0 53.0001C0 59.4831 1.166 65.6932 3.29656 71.4348H102.704C104.834 65.6932 106 59.4831 106 53.0001C106 46.5171 104.834 40.307 102.703 34.5654Z" fill="#0052B4"/>
<path d="M53.0009 0C36.9372 0 22.5437 7.14755 12.8242 18.4347H93.1774C83.4581 7.14755 69.0647 0 53.0009 0Z" fill="#D80027"/>
<path d="M93.1776 87.5654H12.8242C22.5437 98.8526 36.9371 106 53.0009 106C69.0647 106 83.4581 98.8526 93.1776 87.5654Z" fill="#D80027"/>
</g>
<defs>
<clipPath id="clip0_1220_2569">
<rect width="106" height="106" fill="white"/>
</clipPath>
</defs>
</svg>
