<svg width="15" height="16" viewBox="0 0 15 16" fill="none" xmlns="http://www.w3.org/2000/svg">
<path d="M14.8461 2.36473C14.2937 2.65272 13.7097 2.84411 13.1115 2.93078C13.7427 2.47758 14.215 1.76347 14.4421 0.92117C13.8491 1.34639 13.2007 1.64611 12.5238 1.80681C11.3957 0.333453 9.48938 0.240466 8.26601 1.59917C7.46242 2.49203 7.1236 3.83809 7.37922 5.11734C4.95646 4.97019 2.69863 3.58892 1.16941 1.3202C0.904048 1.87813 0.76537 2.50918 0.76537 3.15197C0.763871 4.36441 1.26536 5.49742 2.10268 6.1709C1.62368 6.15465 1.15442 5.99937 0.736135 5.7195V5.76374C0.743632 7.48717 1.75711 8.96684 3.16114 9.30358C2.89877 9.39928 2.62666 9.45074 2.35305 9.45435C2.1634 9.45164 1.97375 9.43087 1.78709 9.39206C2.18439 10.8663 3.31406 11.8756 4.6019 11.9054C3.54119 12.9111 2.23236 13.4591 0.883059 13.4636C0.637186 13.4645 0.392062 13.4465 0.148438 13.4104C1.52548 14.482 3.13115 15.0498 4.77056 15.048C9.47439 15.1058 13.3274 10.5621 13.3761 4.89706C13.3769 4.83387 13.3769 4.77248 13.3761 4.71018V4.24073C13.9526 3.72343 14.4503 3.08787 14.8461 2.36473Z" fill="#98A7B9"/>
</svg>
