<svg width="40" height="33" viewBox="0 0 40 33" fill="none" xmlns="http://www.w3.org/2000/svg">
<path d="M39.214 4.7172C37.74 5.3552 36.182 5.7792 34.586 5.9712C36.27 4.9672 37.53 3.3852 38.136 1.5192C36.554 2.4612 34.824 3.1252 33.018 3.4812C30.008 0.217201 24.922 0.0112 21.658 3.0212C19.514 4.9992 18.61 7.9812 19.292 10.8152C12.828 10.4892 6.804 7.4292 2.724 2.4032C2.016 3.6392 1.646 5.0372 1.646 6.4612C1.642 9.1472 2.98 11.6572 5.214 13.1492C3.936 13.1132 2.684 12.7692 1.568 12.1492V12.2472C1.588 16.0652 4.292 19.3432 8.038 20.0892C7.338 20.3012 6.612 20.4152 5.882 20.4232C5.376 20.4172 4.87 20.3712 4.372 20.2852C5.432 23.5512 8.446 25.7872 11.882 25.8532C9.052 28.0812 5.56 29.2952 1.96 29.3052C1.304 29.3072 0.65 29.2672 0 29.1872C3.674 31.5612 7.958 32.8192 12.332 32.8152C24.882 32.9432 35.162 22.8772 35.292 10.3272C35.294 10.1872 35.294 10.0512 35.292 9.9132V8.8732C36.83 7.7272 38.158 6.3192 39.214 4.7172Z" fill="black"/>
</svg>
