<svg width="124" height="124" viewBox="0 0 124 124" fill="none" xmlns="http://www.w3.org/2000/svg">
<path d="M121.399 76.7917C113.231 109.55 80.049 129.485 47.2836 121.317C14.5319 113.15 -5.40611 79.9695 2.76507 47.2143C10.9291 14.4529 44.1112 -5.48439 76.8665 2.68228C109.63 10.8489 129.566 44.033 121.398 76.7923L121.398 76.7917H121.399Z" fill="#F7931A"/>
<path d="M89.045 53.2883C90.2622 45.1509 84.0662 40.7768 75.5937 37.8588L78.3423 26.836L71.6316 25.164L68.956 35.8966C67.1918 35.4566 65.3801 35.0421 63.5794 34.6311L66.2744 23.8277L59.5679 22.1558L56.8179 33.175C55.358 32.8426 53.9241 32.5141 52.5329 32.168L52.5407 32.1334L43.2865 29.8227L41.5014 36.9893C41.5014 36.9893 46.4802 38.1304 46.3752 38.2007C49.0927 38.8788 49.5841 40.6775 49.5025 42.1032L46.3717 54.6608C46.5588 54.7083 46.8015 54.777 47.0693 54.8846C46.8454 54.829 46.6072 54.7684 46.36 54.7092L41.9716 72.3005C41.6395 73.126 40.7966 74.3649 38.8966 73.8945C38.9639 73.9919 34.0192 72.6774 34.0192 72.6774L30.6875 80.3581L39.4203 82.5349C41.045 82.9422 42.637 83.3684 44.2048 83.7692L41.4279 94.9185L48.1308 96.5904L50.8808 85.5596C52.712 86.0566 54.489 86.5151 56.2287 86.9473L53.488 97.9261L60.1989 99.5981L62.9756 88.4698C74.4187 90.6352 83.023 89.7621 86.6447 79.413C89.563 71.0808 86.4994 66.2747 80.4792 63.1407C84.864 62.1295 88.1668 59.2459 89.0474 53.2892L89.0453 53.2877L89.045 53.2883ZM73.7127 74.7857C71.6388 83.118 57.6082 78.6138 53.0593 77.4843L56.7444 62.7136C61.293 63.849 75.8801 66.096 73.713 74.7857H73.7127ZM75.788 53.1675C73.8962 60.7466 62.2184 56.8961 58.4302 55.9519L61.7712 42.5557C65.5594 43.4999 77.7588 45.2621 75.7886 53.1675H75.788Z" fill="white"/>
</svg>
