<svg width="105" height="80" viewBox="0 0 105 80" fill="none" xmlns="http://www.w3.org/2000/svg">
<path d="M88.2636 6.70653C99.9491 23.9938 105.72 43.4935 103.563 65.942C103.554 66.037 103.505 66.1242 103.427 66.1814C94.5778 72.7195 86.0041 76.6873 77.5506 79.3187C77.4848 79.3388 77.4144 79.3377 77.3492 79.3155C77.284 79.2934 77.2274 79.2512 77.1872 79.1951C75.2342 76.4609 73.4597 73.5784 71.9051 70.5514C71.8159 70.3731 71.8974 70.1584 72.081 70.0881C74.8992 69.0197 77.5791 67.7392 80.1568 66.2231C80.3598 66.1033 80.3727 65.8105 80.1852 65.67C79.6381 65.2614 79.0962 64.8319 78.5776 64.4025C78.4806 64.3231 78.3499 64.3075 78.24 64.3608C61.5052 72.1365 43.1731 72.1365 26.2404 64.3608C26.1304 64.3114 25.9998 64.3283 25.9054 64.4064C25.388 64.8358 24.8448 65.2614 24.3029 65.67C24.1154 65.8105 24.1309 66.1033 24.3353 66.2231C26.9129 67.7105 29.5928 69.0197 32.4071 70.0933C32.5895 70.1636 32.6761 70.3731 32.5856 70.5514C31.0646 73.5823 29.2901 76.4648 27.3009 79.199C27.2143 79.3096 27.072 79.3603 26.9375 79.3187C18.5242 76.6873 9.95047 72.7195 1.10129 66.1814C1.02757 66.1242 0.974541 66.0331 0.966781 65.9381C-0.836166 46.5204 2.83828 26.8594 16.2517 6.70263C16.2841 6.64927 16.3332 6.60763 16.3901 6.5829C22.9902 3.53511 30.061 1.29286 37.4512 0.0123219C37.5857 -0.00849995 37.7203 0.0539655 37.7901 0.173691C38.7032 1.80039 39.747 3.88648 40.4531 5.59127C48.243 4.39401 56.1545 4.39401 64.1074 5.59127C64.8136 3.92292 65.8211 1.80039 66.7304 0.173691C66.7627 0.114296 66.8129 0.0667127 66.8738 0.0377333C66.9347 0.00875378 67.0031 -0.000139931 67.0692 0.0123219C74.4634 1.29677 81.5342 3.53902 88.129 6.5829C88.1872 6.60763 88.2351 6.64927 88.2636 6.70653ZM44.4134 43.6262C44.4949 37.8859 40.3354 33.1359 35.1141 33.1359C29.9355 33.1359 25.8161 37.8442 25.8161 43.6262C25.8161 49.4069 30.017 54.1152 35.1141 54.1152C40.294 54.1152 44.4134 49.4069 44.4134 43.6262ZM78.7936 43.6262C78.875 37.8859 74.7156 33.1359 69.4956 33.1359C64.3157 33.1359 60.1963 37.8442 60.1963 43.6262C60.1963 49.4069 64.3971 54.1152 69.4956 54.1152C74.7156 54.1152 78.7936 49.4069 78.7936 43.6262Z" fill="#5865F2"/>
</svg>
