<svg width="113" height="114" viewBox="0 0 113 114" fill="none" xmlns="http://www.w3.org/2000/svg">
<path d="M56.6148 113.445C87.7161 113.445 112.929 88.2323 112.929 57.1309C112.929 26.0295 87.7161 0.816895 56.6148 0.816895C25.5134 0.816895 0.300781 26.0295 0.300781 57.1309C0.300781 88.2323 25.5134 113.445 56.6148 113.445Z" fill="#FF4500"/>
<path d="M94.1773 57.1291C94.1886 57.9006 94.0929 58.6707 93.8902 59.4155C93.6874 60.1602 93.3805 60.874 92.9779 61.5329C92.5766 62.1917 92.0839 62.7915 91.5151 63.3138C90.9463 63.8361 90.3072 64.2754 89.6159 64.6189C89.6314 64.8244 89.6441 65.0314 89.6511 65.2383C89.6681 65.6511 89.6681 66.0644 89.6511 66.4772C89.6441 66.6842 89.6314 66.8911 89.6159 67.0967C89.6159 79.711 74.918 89.9602 56.7849 89.9602C38.6517 89.9602 23.9538 79.711 23.9538 67.0967C23.9383 66.8911 23.9256 66.6842 23.9186 66.4772C23.9017 66.0644 23.9017 65.6511 23.9186 65.2383C23.9256 65.0314 23.9383 64.8244 23.9538 64.6189C22.8708 64.1211 21.9089 63.3939 21.1347 62.4877C20.3605 61.5815 19.7924 60.5178 19.4698 59.3704C19.1477 58.2225 19.0791 57.0182 19.2687 55.8412C19.4583 54.6641 19.9016 53.5423 20.5679 52.5536C21.2336 51.565 22.1064 50.7332 23.1257 50.1157C24.1451 49.4982 25.2866 49.1099 26.471 48.9777C27.6556 48.8449 28.8549 48.9713 29.9858 49.3481C31.1167 49.7249 32.1521 50.3431 33.0203 51.1598C34.6321 50.0674 36.3208 49.093 38.0731 48.2442C39.8259 47.3966 41.6378 46.6758 43.4947 46.0902C45.3517 45.5045 47.2495 45.0554 49.1712 44.7443C51.0929 44.4331 53.0358 44.2628 54.9828 44.2332L59.15 24.6923C59.1965 24.4656 59.288 24.2516 59.4189 24.0601C59.5485 23.8701 59.716 23.7068 59.9089 23.5815C60.1032 23.4562 60.32 23.3703 60.548 23.328C60.7747 23.2872 61.0084 23.2914 61.2337 23.3407L75.0306 26.1001C76.423 23.7082 79.3457 22.6832 81.9262 23.68C84.5068 24.6768 85.9823 27.401 85.405 30.1068C84.8292 32.8127 82.3711 34.6992 79.6089 34.5571C76.8453 34.4149 74.5942 32.2862 74.2985 29.5353L62.2473 27.0011L58.5869 44.5711C60.51 44.6119 62.4289 44.7921 64.3267 45.1089C68.1271 45.7424 71.8162 46.9212 75.2798 48.6088C77.0097 49.4507 78.6767 50.4162 80.2678 51.4977C81.4118 50.3993 82.8494 49.6556 84.4069 49.3564C85.9644 49.0561 87.5755 49.213 89.0457 49.8083C90.5162 50.4033 91.783 51.411 92.6935 52.7099C93.6042 54.0089 94.1196 55.5437 94.1773 57.1291ZM38.2913 64.9159C38.5757 65.5987 38.9896 66.2196 39.5133 66.7419C40.0357 67.2656 40.6565 67.6795 41.3393 67.9639C42.0228 68.2466 42.7552 68.392 43.4947 68.3919C45.7727 68.3919 47.8253 67.0193 48.6982 64.9159C49.5696 62.8112 49.0867 60.3897 47.4761 58.7791C45.8656 57.1685 43.4441 56.6856 41.3393 57.5571C39.236 58.43 37.8633 60.4826 37.8633 62.7605C37.8633 63.4996 38.0084 64.2317 38.2913 64.9159ZM70.5452 78.4341C70.8338 78.1525 70.9985 77.7682 71.0041 77.3655C71.0098 76.9615 70.8535 76.5729 70.5719 76.2843C70.2904 75.9957 69.906 75.831 69.5034 75.8254C69.0993 75.8197 68.7108 75.976 68.3855 76.2196C67.5387 76.8269 66.642 77.3615 65.705 77.8175C64.7679 78.2737 63.794 78.65 62.7936 78.9423C61.794 79.2338 60.7705 79.4407 59.7357 79.5604C58.6995 79.6801 57.6563 79.711 56.6159 79.6547C55.5769 79.7012 54.5351 79.6589 53.5032 79.5294C52.471 79.4012 51.4517 79.1845 50.4566 78.8818C49.4598 78.5805 48.4926 78.1948 47.562 77.7302C46.6314 77.2656 45.7417 76.7222 44.9026 76.1069C44.6112 75.8676 44.2409 75.7451 43.8636 75.7634C43.4863 75.7817 43.1301 75.9408 42.8626 76.2069C42.5965 76.4744 42.4375 76.8306 42.4192 77.2079C42.4009 77.5852 42.5233 77.9554 42.7627 78.2469C43.7524 78.993 44.8041 79.6519 45.9064 80.2178C47.0087 80.7838 48.159 81.2526 49.3416 81.6215C50.5241 81.9903 51.7363 82.2564 52.9654 82.4183C54.1944 82.5788 55.4347 82.6337 56.6722 82.583C57.9097 82.6337 59.15 82.5788 60.3791 82.4183C62.8407 82.0945 65.2285 81.3502 67.4381 80.2178C68.5404 79.6519 69.5921 78.993 70.5818 78.2469L70.5452 78.4341ZM69.5118 68.8424C70.2749 68.8509 71.0323 68.703 71.7376 68.4102C72.443 68.116 73.0807 67.6824 73.6129 67.1347C74.1451 66.587 74.559 65.9366 74.8321 65.2228C75.1054 64.5099 75.2304 63.7487 75.1995 62.9858C75.1995 60.7079 73.8269 58.6552 71.7235 57.7824C69.6188 56.9109 67.1973 57.3938 65.5867 59.0044C63.9762 60.6149 63.4933 63.0364 64.3647 65.1412C65.2376 67.2445 67.2902 68.6172 69.5681 68.6172L69.5118 68.8424Z" fill="white"/>
</svg>
