<svg width="114" height="80" viewBox="0 0 114 80" fill="none" xmlns="http://www.w3.org/2000/svg">
<path d="M110.801 12.9272C109.507 8.05948 105.676 4.21936 100.803 2.90327C91.9914 0.541505 56.6372 0.541504 56.6372 0.541504C56.6372 0.541504 21.301 0.541505 12.4714 2.90327C7.61602 4.20133 3.78568 8.04145 2.47294 12.9272C0.117188 21.7613 0.117188 40.2047 0.117188 40.2047C0.117188 40.2047 0.117188 58.648 2.47294 67.4821C3.7677 72.3499 7.59804 76.19 12.4714 77.5061C21.301 79.8678 56.6372 79.8678 56.6372 79.8678C56.6372 79.8678 91.9914 79.8678 100.803 77.5061C105.658 76.208 109.489 72.3679 110.801 67.4821C113.157 58.648 113.157 40.2047 113.157 40.2047C113.157 40.2047 113.157 21.7613 110.801 12.9272Z" fill="#FF3000"/>
<path d="M45.344 57.2057L74.7099 40.2047L45.344 23.2036V57.2057Z" fill="white"/>
</svg>
