<svg width="102" height="85" viewBox="0 0 102 85" fill="none" xmlns="http://www.w3.org/2000/svg">
<path d="M101.126 10.9709C97.8512 12.3801 94.4087 13.3614 90.8834 13.8905C92.5316 13.608 94.9568 10.6412 95.9221 9.4404C97.3887 7.62906 98.5065 5.56128 99.2185 3.34208C99.2185 3.17726 99.3833 2.9418 99.2185 2.82408C99.1355 2.77874 99.0424 2.75498 98.9477 2.75498C98.8531 2.75498 98.76 2.77874 98.677 2.82408C94.8489 4.89709 90.7748 6.47927 86.551 7.5332C86.4038 7.57817 86.2471 7.58221 86.0977 7.54488C85.9484 7.50754 85.8121 7.43025 85.7033 7.32129C85.3745 6.9298 85.0206 6.56013 84.6438 6.21465C82.921 4.67111 80.9664 3.40779 78.8516 2.47089C75.9967 1.29968 72.9131 0.79245 69.8336 0.987516C66.8455 1.17623 63.9281 1.9777 61.263 3.34208C58.6385 4.78054 56.3319 6.73472 54.4818 9.08721C52.5357 11.5085 51.1307 14.3185 50.3613 17.3282C49.7269 20.191 49.6549 23.1498 50.1494 26.0401C50.1494 26.5345 50.1494 26.6052 49.7256 26.5345C32.9376 24.0622 19.1634 18.1052 7.90857 5.31991C7.41411 4.75482 7.15511 4.75482 6.75483 5.31991C1.85734 12.7603 4.23545 24.5332 10.3573 30.3489C11.1814 31.1259 12.0291 31.8794 12.9238 32.5858C10.117 32.3865 7.37867 31.6259 4.87118 30.3489C4.40027 30.0428 4.14127 30.2076 4.11772 30.7727C4.05097 31.5562 4.05097 32.3439 4.11772 33.1273C4.60902 36.8819 6.08867 40.4386 8.40538 43.4338C10.7221 46.429 13.7927 48.7551 17.3033 50.1743C18.1591 50.5409 19.0508 50.8171 19.9639 50.9984C17.3655 51.51 14.7005 51.5896 12.0761 51.2339C11.511 51.1162 11.2991 51.4223 11.511 51.9638C14.9723 61.3821 22.4833 64.2546 27.993 65.8557C28.7465 65.9735 29.4999 65.9735 30.3476 66.1618C30.3476 66.1618 30.3476 66.1618 30.2063 66.3031C28.5816 69.2699 22.0124 71.2712 18.9986 72.3072C13.4975 74.2832 7.63241 75.0384 1.81025 74.5205C0.89197 74.3793 0.680059 74.4028 0.444603 74.5205C0.209147 74.6383 0.444603 74.8973 0.703605 75.1327C1.88089 75.9097 3.05817 76.5926 4.28254 77.2518C7.92751 79.2399 11.781 80.8192 15.7728 81.961C36.4459 87.659 59.709 83.4679 75.2255 68.0455C87.4222 55.943 91.7075 39.2492 91.7075 22.5318C91.7075 21.896 92.4845 21.5193 92.9318 21.1897C96.0175 18.7854 98.7379 15.946 101.008 12.7603C101.401 12.2855 101.603 11.6808 101.573 11.065V11.065C101.573 10.7119 101.573 10.7825 101.126 10.9709Z" fill="#33CCFF"/>
</svg>
