<svg width="106" height="106" viewBox="0 0 106 106" fill="none" xmlns="http://www.w3.org/2000/svg">
<g clip-path="url(#clip0_1220_2575)">
<path d="M100.741 76.0434C104.11 69.0756 106 61.2587 106 53C106 44.7413 104.11 36.9245 100.741 29.9566L53 25.3479L5.25901 29.9566C1.88957 36.9245 0 44.7413 0 53C0 61.2587 1.88957 69.0756 5.25901 76.0434L53 80.6522L100.741 76.0434Z" fill="#0052B4"/>
<path d="M52.9988 106C74.011 106 92.167 93.7717 100.74 76.0435H5.25781C13.8306 93.7717 31.9864 106 52.9988 106Z" fill="#D80027"/>
<path d="M91.7916 63.4038L88.9923 65.5913L90.2072 68.9289L87.2617 66.9428L84.4623 69.1299L85.4411 65.7149L82.4961 63.7282L86.0465 63.6044L87.0261 60.1895L88.2414 63.5276L91.7916 63.4038Z" fill="#F0F0F0"/>
<path d="M84.6235 50.9882L82.7413 54.0011L85.0251 56.7219L81.5778 55.8636L79.6951 58.8757L79.4469 55.3319L76 54.4721L79.2943 53.1411L79.0467 49.5972L81.33 52.319L84.6235 50.9882Z" fill="#F0F0F0"/>
<path d="M73.6424 41.7725L72.9041 45.2475L75.9806 47.0238L72.4476 47.3963L71.7089 50.8702L70.2639 47.6252L66.7305 47.996L69.3709 45.6189L67.9261 42.3739L71.0026 44.1498L73.6424 41.7725Z" fill="#F0F0F0"/>
<path d="M60.1702 36.8696L60.6652 40.3877L64.1634 41.0042L60.9705 42.5624L61.4651 46.0802L58.9973 43.5246L55.8037 45.0819L57.4719 41.9448L55.0039 39.3896L58.5027 40.0064L60.1702 36.8696Z" fill="#F0F0F0"/>
<path d="M45.8329 36.8696L47.5009 40.0064L50.9989 39.3892L48.5317 41.9454L50.1989 45.0823L47.0061 43.5246L44.5379 46.0796L45.0329 42.5624L41.8398 41.0051L45.3385 40.3877L45.8329 36.8696Z" fill="#F0F0F0"/>
<path d="M32.361 41.7725L35.0015 44.1498L38.0774 42.3739L36.6329 45.6201L39.2728 47.9969L35.7398 47.6252L34.2943 50.8702L33.5566 47.3956L30.0234 47.0246L33.0999 45.2479L32.361 41.7725Z" fill="#F0F0F0"/>
<path d="M21.3811 50.9881L24.6756 52.3189L26.9583 49.5977L26.7113 53.1422L30.0048 54.4732L26.5579 55.3322L26.3097 58.8756L24.4277 55.8635L20.9805 56.7224L23.264 54.001L21.3811 50.9881Z" fill="#F0F0F0"/>
<path d="M14.2109 63.4039L17.7619 63.5277L18.9764 60.1899L19.9567 63.6051L23.5066 63.7291L20.5614 65.7158L21.5403 69.1306L18.7412 66.9435L15.7958 68.9296L17.0108 65.5914L14.2109 63.4039Z" fill="#F0F0F0"/>
<path d="M100.74 29.9566C92.167 12.2283 74.011 0 52.9988 0C31.9864 0 13.8306 12.2283 5.25781 29.9566H100.74Z" fill="#FFDA44"/>
</g>
<defs>
<clipPath id="clip0_1220_2575">
<rect width="106" height="106" fill="white"/>
</clipPath>
</defs>
</svg>
