<svg width="32" height="40" viewBox="0 0 32 40" fill="none" xmlns="http://www.w3.org/2000/svg">
<path fill-rule="evenodd" clip-rule="evenodd" d="M5.06116 7.66818C4.63044 8.1046 4.58331 8.38388 4.58331 8.50146C4.58331 8.61905 4.63044 8.89833 5.06116 9.33475C5.50036 9.77978 6.23505 10.2723 7.3008 10.729C9.4252 11.6395 12.4994 12.2515 16 12.2515C19.5005 12.2515 22.5748 11.6395 24.6992 10.729C25.7649 10.2723 26.4996 9.77978 26.9388 9.33475C27.3695 8.89833 27.4166 8.61905 27.4166 8.50146C27.4166 8.38388 27.3695 8.1046 26.9388 7.66818C26.4996 7.22315 25.7649 6.73064 24.6992 6.27389C22.5748 5.36344 19.5005 4.75146 16 4.75146C12.4994 4.75146 9.4252 5.36344 7.3008 6.27389C6.23505 6.73064 5.50036 7.22315 5.06116 7.66818ZM27.4166 13.8591C27.0499 14.0552 26.6679 14.2372 26.2748 14.4056C23.5434 15.5763 19.9093 16.2515 16 16.2515C12.0907 16.2515 8.45661 15.5763 5.72513 14.4056C5.33209 14.2372 4.95005 14.0552 4.58331 13.8591V20.0015C4.58331 20.1263 4.63295 20.4073 5.05882 20.8412C5.49413 21.2847 6.22357 21.776 7.28537 22.2317C9.40225 23.1404 12.4755 23.7515 16 23.7515C19.5245 23.7515 22.5977 23.1404 24.7146 22.2317C25.7764 21.776 26.5058 21.2847 26.9411 20.8412C27.367 20.4073 27.4166 20.1263 27.4166 20.0015V13.8591ZM31.4166 20.0015V8.50146C31.4166 7.03123 30.7129 5.79785 29.7858 4.85843C28.8672 3.92762 27.637 3.1811 26.2748 2.59731C23.5434 1.42667 19.9093 0.751465 16 0.751465C12.0907 0.751465 8.45661 1.42667 5.72513 2.59731C4.36294 3.1811 3.13281 3.92762 2.21417 4.85843C1.28704 5.79785 0.583313 7.03123 0.583313 8.50146V20.0015V32.1779C0.583313 33.6442 1.36997 34.8113 2.29442 35.6424C3.21853 36.4731 4.44355 37.1286 5.78814 37.6378C8.49128 38.6616 12.097 39.2515 16 39.2515C19.903 39.2515 23.5087 38.6616 26.2118 37.6378C27.5564 37.1286 28.7814 36.4731 29.7055 35.6424C30.63 34.8113 31.4166 33.6442 31.4166 32.1779V20.0015ZM27.4166 25.369C27.0554 25.5621 26.6793 25.7414 26.2923 25.9074C23.5643 27.0784 19.9292 27.7515 16 27.7515C12.0708 27.7515 8.43567 27.0784 5.70765 25.9074C5.32071 25.7414 4.94457 25.5621 4.58331 25.369V32.1731C4.59091 32.2102 4.6458 32.3775 4.96856 32.6677C5.39543 33.0514 6.12701 33.4889 7.20487 33.8971C9.34664 34.7083 12.4493 35.2515 16 35.2515C19.5507 35.2515 22.6533 34.7083 24.7951 33.8971C25.873 33.4889 26.6045 33.0514 27.0314 32.6677C27.3542 32.3775 27.409 32.2102 27.4166 32.1731V25.369ZM27.4168 32.1725C27.4177 32.1676 27.4178 32.1652 27.4177 32.1652C27.4176 32.1652 27.4174 32.1658 27.4172 32.1671C27.417 32.1683 27.4169 32.1701 27.4168 32.1725ZM4.5823 32.1652C4.58249 32.1652 4.58298 32.1676 4.5832 32.1725C4.58223 32.1676 4.58212 32.1652 4.5823 32.1652Z" fill="#2B61D1"/>
</svg>
