<svg xmlns="http://www.w3.org/2000/svg" width="30.919" height="30.714" viewBox="0 0 30.919 30.714"><g transform="translate(10730.9 12179.398)"><path d="M15.46,0A15.357,15.357,0,1,1,0,15.357,15.409,15.409,0,0,1,15.46,0Z" transform="translate(-10730.9 -12179.398)" fill="#2b61d1"/><g transform="translate(-10723.89 -12173.783)"><path d="M89.574,168.764l-1.761,1.017L84.03,167.6l1.718-.992.043-.025.066.038Z" transform="translate(-79.293 -150.105)" fill="#fff"/><path d="M63.541,40.979v2.047l-3.724-2.15-1.01-.583-1.01.583L53.064,43.61l-1.01.583V45.4l-1.821-1.051-1.01-.583-1.01.583-1.713.988V40.979l8.52-4.919Z" transform="translate(-46.5 -36.06)" fill="#fff"/><path d="M115.967,90.8V96.27L111.234,99l-.006,0L106.5,96.27V90.8l4.734-2.734Z" transform="translate(-98.926 -81.505)" fill="#fff"/><path d="M51.945,117.141v3.143l-2.723,1.573L46.5,120.285v-3.143l2.723-1.572Z" transform="translate(-46.5 -105.534)" fill="#fff"/></g></g></svg>