<svg width="38" height="38" viewBox="0 0 38 38" fill="none" xmlns="http://www.w3.org/2000/svg">
<path d="M18.9982 0.443604C29.3333 0.443604 37.7113 8.8216 37.7113 19.1567C37.7113 29.4918 29.3333 37.8698 18.9982 37.8698C8.66316 37.8698 0.285156 29.4918 0.285156 19.1567C0.285156 8.8216 8.66316 0.443604 18.9982 0.443604ZM29.5563 18.9126C30.3017 17.0468 30.5497 15.5568 30.5497 14.2336C30.5497 14.1065 30.5309 14.0028 30.527 13.8804C29.7606 12.2126 28.6464 10.7389 27.2702 9.55141C26.1903 9.74712 25.4542 10.7506 25.4542 11.8282C25.4542 12.9057 26.0772 13.8157 26.7384 14.8932C27.2374 15.7626 27.816 16.8807 27.816 18.4947C27.816 19.6151 27.4846 21.0202 26.8226 22.7168L25.5182 27.0754L20.797 13.0313C21.583 12.9892 22.2917 12.9073 22.2917 12.9073C22.995 12.8239 22.9139 11.7907 22.2083 11.8297C22.2083 11.8297 20.0929 11.9958 18.7269 11.9958C17.445 11.9958 15.2876 11.8297 15.2876 11.8297C14.5843 11.7876 14.4993 12.8652 15.2049 12.9073C15.2049 12.9073 15.87 12.9899 16.5757 13.0289L18.6092 18.6078L15.7507 27.1838L10.9937 13.0313C11.7804 12.9892 12.4884 12.9073 12.4884 12.9073C13.1917 12.8239 13.1106 11.7907 12.405 11.8297C12.405 11.8297 10.2896 11.9958 8.92358 11.9958C8.80974 11.9958 8.66394 11.9919 8.53372 11.9896C8.02769 12.728 7.59885 13.5217 7.25422 14.3607L13.106 30.3861C13.842 30.7728 14.6202 31.0894 15.4326 31.328L19.229 20.2966L23.1837 31.1237C24.096 30.804 24.9607 30.3853 25.7653 29.8746L29.5563 18.9126Z" fill="#2B61D1"/>
</svg>
