<svg width="32" height="29" viewBox="0 0 32 29" fill="none" xmlns="http://www.w3.org/2000/svg">
<g clip-path="url(#clip0_215_30323)">
<path d="M6.2781 21.4934V20.041L0.277344 23.4998V24.9714L1.53873 25.6972L7.53865 22.2384L6.2781 21.5118V21.4934Z" fill="#52D46F"/>
<path d="M18.7564 13.9633V0.338379L13.1953 3.54857V17.1744L18.7564 13.9633Z" fill="#52D46F"/>
<path d="M12.468 17.595V3.96924L6.94531 7.16108V20.786L12.468 17.595Z" fill="#52D46F"/>
<path d="M24.6218 25.0463L12.8313 18.2246L7.30859 21.4156L19.1182 28.2381L24.6218 25.0463Z" fill="#52D46F"/>
<path d="M31.2905 7.58105L19.8438 14.1733L31.2905 20.7856V7.58105Z" fill="#52D46F"/>
<path d="M19.4805 0.338379V13.5429L30.908 6.95064L19.4805 0.338379Z" fill="#52D46F"/>
<path d="M30.9293 21.4158L19.1197 14.5933L13.5586 17.8043L25.3682 24.6259L30.9293 21.4158Z" fill="#52D46F"/>
</g>
<defs>
<clipPath id="clip0_215_30323">
<rect width="31.0149" height="27.9006" fill="white" transform="translate(0.277344 0.337891)"/>
</clipPath>
</defs>
</svg>
