<svg width="38" height="38" viewBox="0 0 38 38" fill="none" xmlns="http://www.w3.org/2000/svg">
<path fill-rule="evenodd" clip-rule="evenodd" d="M7.82576 15.7633C7.82576 10.6918 11.937 6.58057 17.0085 6.58057C20.8775 6.58057 24.1854 8.97241 25.5383 12.3567C25.7528 12.3323 25.9708 12.3198 26.1913 12.3198C29.361 12.3198 31.9305 14.8893 31.9305 18.059C31.9305 18.3589 31.9075 18.6538 31.8629 18.9421C33.9575 20.1223 35.3741 22.3677 35.3741 24.9461C35.3741 28.7497 32.2906 31.8332 28.487 31.8332H11.2693C6.83173 31.8332 3.23438 28.2358 3.23438 23.7983C3.23438 20.5795 5.12644 17.805 7.85674 16.5223C7.83621 16.2718 7.82576 16.0187 7.82576 15.7633Z" fill="#52D46F"/>
</svg>
