<svg width="200" height="170" viewBox="0 0 200 170" fill="none" xmlns="http://www.w3.org/2000/svg">
<path d="M8.26367 141.584C59.8601 141.584 109.845 148.456 157.345 161.33C164.206 163.19 171.06 158.11 171.06 151.03V141.584M22.4198 7.6709V14.719C22.4198 18.6115 19.2509 21.767 15.3418 21.767H8.26367M8.26367 21.767V18.243C8.26367 12.4042 13.0171 7.6709 18.8808 7.6709H178.138M8.26367 21.767V106.344M178.138 7.6709V14.719C178.138 18.6115 181.307 21.767 185.216 21.767H192.294M178.138 7.6709H181.677C187.541 7.6709 192.294 12.4042 192.294 18.243V109.868C192.294 115.707 187.541 120.44 181.677 120.44H178.138M192.294 106.344H185.216C181.307 106.344 178.138 109.499 178.138 113.392V120.44M178.138 120.44H22.4198M22.4198 120.44H18.8808C13.0171 120.44 8.26367 115.707 8.26367 109.868V106.344M22.4198 120.44V113.392C22.4198 109.499 19.2509 106.344 15.3418 106.344H8.26367M128.591 64.0554C128.591 79.6255 115.915 92.2476 100.279 92.2476C84.6423 92.2476 71.9665 79.6255 71.9665 64.0554C71.9665 48.4852 84.6423 35.8631 100.279 35.8631C115.915 35.8631 128.591 48.4852 128.591 64.0554ZM156.904 64.0554H156.974V64.1258H156.904V64.0554ZM43.6541 64.0554H43.7249V64.1258H43.6541V64.0554Z" stroke="white" stroke-width="14.9923" stroke-linecap="round" stroke-linejoin="round"/>
</svg>
