<svg width="106" height="106" viewBox="0 0 106 106" fill="none" xmlns="http://www.w3.org/2000/svg">
<g clip-path="url(#clip0_1220_2591)">
<path d="M53 106C82.2711 106 106 82.2711 106 53C106 23.7289 82.2711 0 53 0C23.7289 0 0 23.7289 0 53C0 82.2711 23.7289 106 53 106Z" fill="#496E2D"/>
<path d="M32.2592 34.5653H102.702C95.2133 14.3829 75.7863 0 52.9984 0C38.3625 0 25.114 5.93331 15.5234 15.5251L32.2592 34.5653Z" fill="black"/>
<path d="M32.2592 71.4346H102.702C95.2133 91.617 75.7863 106 52.9984 106C38.3625 106 25.114 100.067 15.5234 90.4748L32.2592 71.4346Z" fill="#F0F0F0"/>
<path d="M15.5233 15.5232C-5.17444 36.2209 -5.17444 69.7788 15.5233 90.4768C24.0764 81.9237 32.3024 73.6977 53.0001 53L15.5233 15.5232Z" fill="#D80027"/>
</g>
<defs>
<clipPath id="clip0_1220_2591">
<rect width="106" height="106" fill="white"/>
</clipPath>
</defs>
</svg>
