<svg width="106" height="106" viewBox="0 0 106 106" fill="none" xmlns="http://www.w3.org/2000/svg">
<g clip-path="url(#clip0_1220_2463)">
<path d="M53 106C82.2711 106 106 82.2711 106 53C106 23.7289 82.2711 0 53 0C23.7289 0 0 23.7289 0 53C0 82.2711 23.7289 106 53 106Z" fill="#D80027"/>
<path d="M29.0031 32.2559L33.5785 46.334H48.3812L36.4148 55.05L40.9902 69.1281L29.0031 60.4328L17.016 69.1281L21.6121 55.05L9.625 46.334H24.4277L29.0031 32.2559Z" fill="#FFDA44"/>
<path d="M62.8316 82.0881L59.3328 77.7818L54.157 79.79L57.159 75.1318L53.6602 70.8049L59.0223 72.2334L62.0449 67.5752L62.3348 73.1236L67.7176 74.5522L62.5211 76.5397L62.8316 82.0881Z" fill="#FFDA44"/>
<path d="M69.7879 69.4592L71.4441 64.1592L66.9102 60.9502L72.4586 60.8674L74.0941 55.5674L75.8953 60.826L81.4437 60.7639L76.9926 64.0764L78.773 69.335L74.2391 66.126L69.7879 69.4592Z" fill="#FFDA44"/>
<path d="M79.1652 38.9013L76.7223 43.8907L80.6973 47.7622L75.2109 46.9755L72.768 51.9442L71.8156 46.4786L66.3086 45.6919L71.2359 43.104L70.2836 37.6177L74.2586 41.4892L79.1652 38.9013Z" fill="#FFDA44"/>
<path d="M62.9762 23.7881L62.5621 29.3158L67.7172 31.4068L62.3137 32.7318L61.9203 38.2803L59.0012 33.56L53.5977 34.885L57.1793 30.6408L54.2395 25.9412L59.3945 28.0322L62.9762 23.7881Z" fill="#FFDA44"/>
</g>
<defs>
<clipPath id="clip0_1220_2463">
<rect width="106" height="106" fill="white"/>
</clipPath>
</defs>
</svg>
