<svg width="106" height="106" viewBox="0 0 106 106" fill="none" xmlns="http://www.w3.org/2000/svg">
<g clip-path="url(#clip0_1220_2496)">
<path d="M53 106C82.2711 106 106 82.2711 106 53C106 23.7289 82.2711 0 53 0C23.7289 0 0 23.7289 0 53C0 82.2711 23.7289 106 53 106Z" fill="#F0F0F0"/>
<path d="M48.3915 53C48.3915 53 15.5545 90.484 15.5234 90.4766C25.1144 100.068 38.3646 106 53.0002 106C82.2711 106 106 82.2709 106 53H48.3915Z" fill="#D80027"/>
<path d="M15.5233 15.5234C-5.17444 36.2212 -5.17444 69.7791 15.5233 90.477C24.0764 81.9239 32.3024 73.698 53.0001 53.0002L15.5233 15.5234Z" fill="#0052B4"/>
</g>
<defs>
<clipPath id="clip0_1220_2496">
<rect width="106" height="106" fill="white"/>
</clipPath>
</defs>
</svg>
