<svg width="106" height="106" viewBox="0 0 106 106" fill="none" xmlns="http://www.w3.org/2000/svg">
<g clip-path="url(#clip0_1220_2504)">
<path d="M3.29688 71.4347C10.7854 91.6169 30.2122 106 53.0003 106C75.7885 106 95.2152 91.6169 102.704 71.4347L53.0003 66.8262L3.29688 71.4347Z" fill="#FFDA44"/>
<path d="M53.0003 0C30.2122 0 10.7854 14.3829 3.29688 34.5653L53.0003 39.1738L102.704 34.5651C95.2152 14.3829 75.7885 0 53.0003 0Z" fill="black"/>
<path d="M3.29656 34.5654C1.16621 40.307 0 46.5171 0 53.0001C0 59.4831 1.16621 65.6932 3.29656 71.4348H102.704C104.834 65.6932 106 59.4831 106 53.0001C106 46.5171 104.834 40.307 102.703 34.5654H3.29656Z" fill="#D80027"/>
</g>
<defs>
<clipPath id="clip0_1220_2504">
<rect width="106" height="106" fill="white"/>
</clipPath>
</defs>
</svg>
