<svg width="106" height="106" viewBox="0 0 106 106" fill="none" xmlns="http://www.w3.org/2000/svg">
<g clip-path="url(#clip0_1220_2516)">
<path d="M53 106C82.2711 106 106 82.2711 106 53C106 23.7289 82.2711 0 53 0C23.7289 0 0 23.7289 0 53C0 82.2711 23.7289 106 53 106Z" fill="#F0F0F0"/>
<path d="M70.2157 39.174H63.2814C63.3388 39.9361 63.3713 40.705 63.3713 41.4783C63.3713 46.6052 62.0898 51.5746 59.8557 55.1119C59.1665 56.203 58.0084 57.7437 56.4581 58.783V39.1738H49.5451V58.783C47.9951 57.7437 46.8367 56.2032 46.1475 55.1119C43.9133 51.5746 42.6319 46.6052 42.6319 41.4783C42.6319 40.705 42.6646 39.9359 42.7218 39.174H35.7875C35.743 39.9324 35.7188 40.7005 35.7188 41.4783C35.7188 55.6922 43.3102 66.8262 53.0013 66.8262C62.6924 66.8262 70.2839 55.6922 70.2839 41.4783C70.2843 40.7005 70.2601 39.9324 70.2157 39.174Z" fill="#D80027"/>
<path d="M21.8901 25.3479H28.8031V29.9566H35.716V25.3479H42.629V29.9566H49.542V25.3479H56.455V29.9566H63.368V25.3479H70.2809V29.9566H77.1939V25.3479H84.1069V29.9566H100.739C92.167 12.2283 74.011 0 52.9988 0C31.9866 0 13.8306 12.2283 5.25781 29.9566H21.8901V25.3479Z" fill="#6DA544"/>
<path d="M84.1075 76.0435V80.6522H77.1945V76.0435H70.2816V80.6522H63.3686V76.0435H56.4556V80.6522H49.5426V76.0435H42.6296V80.6522H35.7167V76.0435H28.8031V80.6522H21.8901V76.0435H5.25781C13.8306 93.7717 31.9864 106 52.9988 106C74.0112 106 92.167 93.7717 100.74 76.0435H84.1075Z" fill="#D80027"/>
</g>
<defs>
<clipPath id="clip0_1220_2516">
<rect width="106" height="106" fill="white"/>
</clipPath>
</defs>
</svg>
