<svg width="106" height="106" viewBox="0 0 106 106" fill="none" xmlns="http://www.w3.org/2000/svg">
<g clip-path="url(#clip0_1220_2525)">
<path d="M53 106C82.2711 106 106 82.2711 106 53C106 23.7289 82.2711 0 53 0C23.7289 0 0 23.7289 0 53C0 82.2711 23.7289 106 53 106Z" fill="#F0F0F0"/>
<path d="M105.999 53.0001C105.999 30.2119 91.616 10.7852 71.4336 3.29663V102.704C91.616 95.215 105.999 75.7882 105.999 53.0001Z" fill="#D80027"/>
<path d="M0 53.0001C0 75.7882 14.3829 95.215 34.5653 102.704V3.29663C14.3829 10.7852 0 30.2119 0 53.0001Z" fill="#6DA544"/>
</g>
<defs>
<clipPath id="clip0_1220_2525">
<rect width="106" height="106" fill="white"/>
</clipPath>
</defs>
</svg>
