<svg width="106" height="106" viewBox="0 0 106 106" fill="none" xmlns="http://www.w3.org/2000/svg">
<g clip-path="url(#clip0_1220_2500)">
<path d="M53 106C82.2711 106 106 82.2711 106 53C106 23.7289 82.2711 0 53 0C23.7289 0 0 23.7289 0 53C0 82.2711 23.7289 106 53 106Z" fill="#F0F0F0"/>
<path d="M53.0003 0C30.2122 0 10.7854 14.3829 3.29688 34.5653H102.704C95.2152 14.3829 75.7885 0 53.0003 0Z" fill="#A2001D"/>
<path d="M53.0003 106C75.7885 106 95.2152 91.617 102.704 71.4346H3.29688C10.7854 91.617 30.2122 106 53.0003 106Z" fill="#0052B4"/>
</g>
<defs>
<clipPath id="clip0_1220_2500">
<rect width="106" height="106" fill="white"/>
</clipPath>
</defs>
</svg>
