<svg width="106" height="106" viewBox="0 0 106 106" fill="none" xmlns="http://www.w3.org/2000/svg">
<g clip-path="url(#clip0_1220_2539)">
<path d="M53 106C82.2711 106 106 82.2711 106 53C106 23.7289 82.2711 0 53 0C23.7289 0 0 23.7289 0 53C0 82.2711 23.7289 106 53 106Z" fill="#F0F0F0"/>
<path d="M0 53.0001C0 73.0894 11.1774 90.5667 27.6521 99.5558V6.44434C11.1774 15.4334 0 32.9108 0 53.0001Z" fill="#F0F0F0"/>
<path d="M53.0002 0C43.8184 0 35.1823 2.33593 27.6523 6.44426V99.5555C35.1823 103.664 43.8184 106 53.0002 106C82.2711 106 106 82.2709 106 53C106 23.7291 82.2711 0 53.0002 0Z" fill="#496E2D"/>
<path d="M75.659 61.765C68.9539 66.6098 59.5907 65.1018 54.7462 58.3968C49.9012 51.6915 51.4095 42.3285 58.1146 37.484C60.2052 35.9735 62.5541 35.0806 64.9439 34.7702C60.3464 34.0827 55.4863 35.1187 51.4208 38.0562C43.1686 44.0191 41.3121 55.5427 47.2748 63.7954C53.2375 72.0475 64.7613 73.9041 73.014 67.9408C77.0799 65.0032 79.5893 60.715 80.3797 56.1336C79.3351 58.3045 77.7498 60.2543 75.659 61.765Z" fill="#F0F0F0"/>
<path d="M75.3717 34.5657L79.1488 38.6361L84.1871 36.3025L81.4826 41.152L85.2595 45.2228L79.8113 44.1494L77.107 48.9993L76.4443 43.486L70.9961 42.4126L76.0346 40.0789L75.3717 34.5657Z" fill="#F0F0F0"/>
</g>
<defs>
<clipPath id="clip0_1220_2539">
<rect width="106" height="106" fill="white"/>
</clipPath>
</defs>
</svg>
