<svg width="106" height="106" viewBox="0 0 106 106" fill="none" xmlns="http://www.w3.org/2000/svg">
<g clip-path="url(#clip0_1220_2550)">
<path d="M0 53.0001C0 75.788 14.3829 95.2148 34.5649 102.703L39.1738 52.9999L34.5649 3.29663C14.3829 10.7854 0 30.2119 0 53.0001Z" fill="#6DA544"/>
<path d="M106.002 53C106.002 23.7291 82.2724 0 53.0015 0C46.5185 0 40.3082 1.16621 34.5664 3.29656V102.703C40.3082 104.834 46.5185 106 53.0015 106C82.2724 106 106.002 82.2709 106.002 53Z" fill="#D80027"/>
<path d="M34.5636 71.4348C44.7448 71.4348 52.9983 63.1813 52.9983 53.0001C52.9983 42.8189 44.7448 34.5654 34.5636 34.5654C24.3824 34.5654 16.1289 42.8189 16.1289 53.0001C16.1289 63.1813 24.3824 71.4348 34.5636 71.4348Z" fill="#FFDA44"/>
<path d="M24.1953 43.7825V55.3042C24.1953 61.0311 28.8378 65.6738 34.5649 65.6738C40.292 65.6738 44.9345 61.0313 44.9345 55.3042V43.7825H24.1953Z" fill="#D80027"/>
<path d="M34.566 58.7609C32.66 58.7609 31.1094 57.2102 31.1094 55.3043V50.6958H38.0224V55.3045C38.0224 57.2102 36.4717 58.7609 34.566 58.7609Z" fill="#F0F0F0"/>
</g>
<defs>
<clipPath id="clip0_1220_2550">
<rect width="106" height="106" fill="white"/>
</clipPath>
</defs>
</svg>
