<svg width="106" height="106" viewBox="0 0 106 106" fill="none" xmlns="http://www.w3.org/2000/svg">
<g clip-path="url(#clip0_1220_2556)">
<path d="M71.4351 3.29635C65.6933 1.16621 59.4834 2.75553e-08 53.0004 2.75553e-08C46.5175 -0.000207004 40.3074 1.16621 34.5658 3.29635L29.957 52.9998L34.5658 102.703C40.3071 104.834 46.5173 106 53.0004 106C59.4832 106 65.6935 104.834 71.4351 102.703L76.0436 53L71.4351 3.29635Z" fill="#FFDA44"/>
<path d="M105.999 53.0001C105.999 30.2121 91.616 10.785 71.4336 3.29663V102.704C91.616 95.2148 105.999 75.7884 105.999 53.0001Z" fill="#D80027"/>
<path d="M0 52.9999C0 75.7885 14.3829 95.2148 34.5649 102.704L34.5651 3.29688C14.3829 10.7852 0 30.2118 0 52.9999H0Z" fill="#0052B4"/>
</g>
<defs>
<clipPath id="clip0_1220_2556">
<rect width="106" height="106" fill="white"/>
</clipPath>
</defs>
</svg>
