<svg width="110" height="109" viewBox="0 0 110 109" fill="none" xmlns="http://www.w3.org/2000/svg">
<path d="M36.9826 54.2047C36.9826 44.2367 45.0659 36.1539 55.0399 36.1539C65.0139 36.1539 73.1016 44.2367 73.1016 54.2047C73.1016 64.1727 65.0139 72.2555 55.0399 72.2555C45.0659 72.2555 36.9826 64.1727 36.9826 54.2047ZM27.2189 54.2047C27.2189 69.5611 39.6743 82.0091 55.0399 82.0091C70.4055 82.0091 82.861 69.5611 82.861 54.2047C82.861 38.8483 70.4055 26.4003 55.0399 26.4003C39.6743 26.4003 27.2189 38.8483 27.2189 54.2047ZM77.4607 25.2979C77.4602 26.583 77.841 27.8394 78.555 28.9083C79.269 29.9771 80.2841 30.8104 81.4719 31.3026C82.6597 31.7949 83.967 31.9241 85.2283 31.6739C86.4896 31.4237 87.6483 30.8053 88.5579 29.8969C89.4676 28.9886 90.0872 27.831 90.3386 26.5707C90.59 25.3103 90.4618 24.0038 89.9701 22.8163C89.4785 21.6288 88.6456 20.6136 87.5767 19.8992C86.5078 19.1848 85.2509 18.8032 83.965 18.8027H83.9624C82.2387 18.8035 80.5859 19.488 79.3668 20.7058C78.1478 21.9237 77.4622 23.5753 77.4607 25.2979ZM33.151 98.28C27.8686 98.0395 24.9975 97.1602 23.0894 96.4173C20.5599 95.4331 18.755 94.2609 16.8574 92.367C14.9598 90.4731 13.7851 88.6711 12.8047 86.143C12.0609 84.237 11.181 81.3667 10.9409 76.0875C10.6782 70.3798 10.6257 68.6653 10.6257 54.2052C10.6257 39.745 10.6825 38.0352 10.9409 32.3228C11.1814 27.0436 12.0678 24.179 12.8047 22.2673C13.7895 19.7392 14.9624 17.9355 16.8574 16.039C18.7524 14.1425 20.5555 12.9686 23.0894 11.9887C24.9966 11.2454 27.8686 10.366 33.151 10.126C38.8621 9.86351 40.5776 9.81109 55.0399 9.81109C69.5023 9.81109 71.2196 9.86784 76.9354 10.126C82.2178 10.3664 85.0842 11.2523 86.9969 11.9887C89.5265 12.9686 91.3314 14.1451 93.229 16.039C95.1266 17.9329 96.2969 19.7392 97.2817 22.2673C98.0255 24.1733 98.9054 27.0436 99.1455 32.3228C99.4082 38.0352 99.4606 39.745 99.4606 54.2052C99.4606 68.6653 99.4082 70.3751 99.1455 76.0875C98.905 81.3667 98.0207 84.2361 97.2817 86.143C96.2969 88.6711 95.124 90.4748 93.229 92.367C91.334 94.2591 89.5265 95.4331 86.9969 96.4173C85.0898 97.1606 82.2178 98.04 76.9354 98.28C71.2243 98.5425 69.5088 98.5949 55.0399 98.5949C40.5711 98.5949 38.8603 98.5425 33.151 98.28ZM32.7024 0.384561C26.9345 0.647071 22.9932 1.56109 19.5512 2.89963C15.9866 4.28192 12.9689 6.13639 9.95347 9.14529C6.938 12.1542 5.08719 15.1748 3.70407 18.7373C2.36473 22.1794 1.45016 26.1162 1.18749 31.8806C0.920491 37.654 0.859375 39.4998 0.859375 54.2047C0.859375 68.9096 0.920491 70.7554 1.18749 76.5289C1.45016 82.2937 2.36473 86.2301 3.70407 89.6721C5.08719 93.2325 6.93843 96.2565 9.95347 99.2641C12.9685 102.272 15.9866 104.124 19.5512 105.51C22.9997 106.848 26.9345 107.762 32.7024 108.025C38.4824 108.287 40.3262 108.353 55.0399 108.353C69.7536 108.353 71.6006 108.292 77.3775 108.025C83.1458 107.762 87.0845 106.848 90.5286 105.51C94.0911 104.124 97.1109 102.273 100.126 99.2641C103.142 96.2552 104.989 93.2325 106.376 89.6721C107.715 86.2301 108.634 82.2933 108.892 76.5289C109.155 70.7511 109.216 68.9096 109.216 54.2047C109.216 39.4998 109.155 37.654 108.892 31.8806C108.63 26.1157 107.715 22.1772 106.376 18.7373C104.989 15.1769 103.137 12.159 100.126 9.14529C97.1157 6.13162 94.0911 4.28192 90.533 2.89963C87.0845 1.56109 83.1453 0.642739 77.3818 0.384561C71.6049 0.122052 69.758 0.0566406 55.0443 0.0566406C40.3306 0.0566406 38.4824 0.11772 32.7024 0.384561Z" fill="url(#paint0_radial_1264_194)"/>
<path d="M36.9826 54.2047C36.9826 44.2367 45.0659 36.1539 55.0399 36.1539C65.0139 36.1539 73.1016 44.2367 73.1016 54.2047C73.1016 64.1727 65.0139 72.2555 55.0399 72.2555C45.0659 72.2555 36.9826 64.1727 36.9826 54.2047ZM27.2189 54.2047C27.2189 69.5611 39.6743 82.0091 55.0399 82.0091C70.4055 82.0091 82.861 69.5611 82.861 54.2047C82.861 38.8483 70.4055 26.4003 55.0399 26.4003C39.6743 26.4003 27.2189 38.8483 27.2189 54.2047ZM77.4607 25.2979C77.4602 26.583 77.841 27.8394 78.555 28.9083C79.269 29.9771 80.2841 30.8104 81.4719 31.3026C82.6597 31.7949 83.967 31.9241 85.2283 31.6739C86.4896 31.4237 87.6483 30.8053 88.5579 29.8969C89.4676 28.9886 90.0872 27.831 90.3386 26.5707C90.59 25.3103 90.4618 24.0038 89.9701 22.8163C89.4785 21.6288 88.6456 20.6136 87.5767 19.8992C86.5078 19.1848 85.2509 18.8032 83.965 18.8027H83.9624C82.2387 18.8035 80.5859 19.488 79.3668 20.7058C78.1478 21.9237 77.4622 23.5753 77.4607 25.2979ZM33.151 98.28C27.8686 98.0395 24.9975 97.1602 23.0894 96.4173C20.5599 95.4331 18.755 94.2609 16.8574 92.367C14.9598 90.4731 13.7851 88.6711 12.8047 86.143C12.0609 84.237 11.181 81.3667 10.9409 76.0875C10.6782 70.3798 10.6257 68.6653 10.6257 54.2052C10.6257 39.745 10.6825 38.0352 10.9409 32.3228C11.1814 27.0436 12.0678 24.179 12.8047 22.2673C13.7895 19.7392 14.9624 17.9355 16.8574 16.039C18.7524 14.1425 20.5555 12.9686 23.0894 11.9887C24.9966 11.2454 27.8686 10.366 33.151 10.126C38.8621 9.86351 40.5776 9.81109 55.0399 9.81109C69.5023 9.81109 71.2196 9.86784 76.9354 10.126C82.2178 10.3664 85.0842 11.2523 86.9969 11.9887C89.5265 12.9686 91.3314 14.1451 93.229 16.039C95.1266 17.9329 96.2969 19.7392 97.2817 22.2673C98.0255 24.1733 98.9054 27.0436 99.1455 32.3228C99.4082 38.0352 99.4606 39.745 99.4606 54.2052C99.4606 68.6653 99.4082 70.3751 99.1455 76.0875C98.905 81.3667 98.0207 84.2361 97.2817 86.143C96.2969 88.6711 95.124 90.4748 93.229 92.367C91.334 94.2591 89.5265 95.4331 86.9969 96.4173C85.0898 97.1606 82.2178 98.04 76.9354 98.28C71.2243 98.5425 69.5088 98.5949 55.0399 98.5949C40.5711 98.5949 38.8603 98.5425 33.151 98.28ZM32.7024 0.384561C26.9345 0.647071 22.9932 1.56109 19.5512 2.89963C15.9866 4.28192 12.9689 6.13639 9.95347 9.14529C6.938 12.1542 5.08719 15.1748 3.70407 18.7373C2.36473 22.1794 1.45016 26.1162 1.18749 31.8806C0.920491 37.654 0.859375 39.4998 0.859375 54.2047C0.859375 68.9096 0.920491 70.7554 1.18749 76.5289C1.45016 82.2937 2.36473 86.2301 3.70407 89.6721C5.08719 93.2325 6.93843 96.2565 9.95347 99.2641C12.9685 102.272 15.9866 104.124 19.5512 105.51C22.9997 106.848 26.9345 107.762 32.7024 108.025C38.4824 108.287 40.3262 108.353 55.0399 108.353C69.7536 108.353 71.6006 108.292 77.3775 108.025C83.1458 107.762 87.0845 106.848 90.5286 105.51C94.0911 104.124 97.1109 102.273 100.126 99.2641C103.142 96.2552 104.989 93.2325 106.376 89.6721C107.715 86.2301 108.634 82.2933 108.892 76.5289C109.155 70.7511 109.216 68.9096 109.216 54.2047C109.216 39.4998 109.155 37.654 108.892 31.8806C108.63 26.1157 107.715 22.1772 106.376 18.7373C104.989 15.1769 103.137 12.159 100.126 9.14529C97.1157 6.13162 94.0911 4.28192 90.533 2.89963C87.0845 1.56109 83.1453 0.642739 77.3818 0.384561C71.6049 0.122052 69.758 0.0566406 55.0443 0.0566406C40.3306 0.0566406 38.4824 0.11772 32.7024 0.384561Z" fill="url(#paint1_radial_1264_194)"/>
<defs>
<radialGradient id="paint0_radial_1264_194" cx="0" cy="0" r="1" gradientUnits="userSpaceOnUse" gradientTransform="translate(15.2558 108.864) scale(141.456 141.372)">
<stop offset="0.09" stop-color="#FA8F21"/>
<stop offset="0.78" stop-color="#D82D7E"/>
</radialGradient>
<radialGradient id="paint1_radial_1264_194" cx="0" cy="0" r="1" gradientUnits="userSpaceOnUse" gradientTransform="translate(66.5756 113.716) scale(111.487 111.42)">
<stop offset="0.64" stop-color="#8C3AAA" stop-opacity="0"/>
<stop offset="1" stop-color="#8C3AAA"/>
</radialGradient>
</defs>
</svg>
