<svg width="110" height="109" viewBox="0 0 110 109" fill="none" xmlns="http://www.w3.org/2000/svg">
<path d="M0.734375 8.29346C0.734375 4.00896 4.3213 0.53125 8.74294 0.53125H101.087C105.51 0.53125 109.096 4.00896 109.096 8.29346V101.131C109.096 105.417 105.51 108.892 101.087 108.892H8.74294C4.32172 108.892 0.734375 105.418 0.734375 101.133V8.29219V8.29346Z" fill="#006699"/>
<path d="M33.6632 91.2155V42.431H17.448V91.2155H33.6649H33.6632ZM25.559 35.7714C31.2124 35.7714 34.732 32.0253 34.732 27.3438C34.6262 22.5556 31.2124 18.9141 25.6665 18.9141C20.1168 18.9141 16.4922 22.5556 16.4922 27.3434C16.4922 32.0249 20.0105 35.771 25.4527 35.771H25.5577L25.559 35.7714ZM42.6385 91.2155H58.8525V63.9749C58.8525 62.5188 58.9583 61.0589 59.3867 60.0189C60.5583 57.1046 63.2263 54.0878 67.7068 54.0878C73.5727 54.0878 75.9206 58.5611 75.9206 65.1199V91.2155H92.1342V63.2439C92.1342 48.26 84.1358 41.2872 73.4677 41.2872C64.7213 41.2872 60.88 46.1758 58.7458 49.5053H58.8538V42.4327H42.6394C42.851 47.0092 42.6381 91.2172 42.6381 91.2172L42.6385 91.2155Z" fill="white"/>
</svg>
