<svg width="89" height="100" viewBox="0 0 89 100" fill="none" xmlns="http://www.w3.org/2000/svg">
<path fill-rule="evenodd" clip-rule="evenodd" d="M65.78 35.9801C72.422 40.7019 80.3762 43.2247 88.5256 43.1941V27.0434C86.9235 27.0478 85.3257 26.8763 83.7611 26.532V39.3987C75.5934 39.4132 67.6276 36.8615 60.9886 32.104V65.3206C60.9685 70.7711 59.4738 76.1147 56.6629 80.7846C53.852 85.4545 49.8297 89.2766 45.0226 91.8457C40.2155 94.4149 34.8027 95.6352 29.3582 95.3774C23.9137 95.1195 18.6405 93.3931 14.0977 90.3811C18.2996 94.6327 23.6687 97.5416 29.5251 98.7397C35.3814 99.9378 41.4616 99.3711 46.9956 97.1114C52.5297 94.8516 57.2687 91.0005 60.6126 86.0457C63.9565 81.0908 65.7549 75.2551 65.78 69.2775V35.9801ZM71.675 19.5064C68.2973 15.8453 66.2247 11.1703 65.78 6.20897V4.10938H61.2578C61.8168 7.26301 63.0332 10.2637 64.8279 12.9164C66.6227 15.5691 68.9556 17.8144 71.675 19.5064ZM24.5687 77.5952C23.0013 75.5455 22.0408 73.0971 21.7964 70.5284C21.5521 67.9598 22.0337 65.3741 23.1865 63.0657C24.3393 60.7573 26.117 58.8189 28.3172 57.4711C30.5174 56.1232 33.0518 55.4201 35.6319 55.4417C37.0565 55.4413 38.4726 55.6592 39.8311 56.0878V39.3987C38.2431 39.1884 36.6414 39.0984 35.0398 39.1295V52.1039C31.7319 51.0583 28.1516 51.2961 25.011 52.77C21.8705 54.2439 19.3998 56.8459 18.0903 60.0584C16.7808 63.271 16.7286 66.8588 17.9439 70.1082C19.1593 73.3576 21.5532 76.0304 24.6495 77.5952H24.5687Z" fill="#EE1D52"/>
<path fill-rule="evenodd" clip-rule="evenodd" d="M60.9882 31.9963C67.6272 36.7538 75.5931 39.3055 83.7607 39.291V26.4243C79.1072 25.4404 74.8798 23.0207 71.6746 19.5064C68.9552 17.8144 66.6223 15.5691 64.8275 12.9164C63.0328 10.2637 61.8164 7.26301 61.2574 4.10938H49.3597V69.2775C49.3486 72.1621 48.4345 74.9708 46.7456 77.3093C45.0568 79.6478 42.678 81.3987 39.9432 82.3162C37.2085 83.2337 34.255 83.2718 31.4975 82.4251C28.74 81.5784 26.3169 79.8893 24.5683 77.5952C21.7972 76.1969 19.578 73.9059 18.2687 71.0917C16.9594 68.2775 16.6364 65.1042 17.3518 62.0839C18.0672 59.0636 19.7793 56.3724 22.2119 54.4445C24.6444 52.5166 27.6556 51.4645 30.7594 51.4579C32.1836 51.4624 33.599 51.6802 34.9586 52.1039V39.1295C29.084 39.2705 23.3785 41.1238 18.5423 44.4617C13.7061 47.7996 9.94975 52.477 7.73437 57.9197C5.519 63.3624 4.941 69.3335 6.07132 75.1C7.20164 80.8665 9.9911 86.1776 14.0973 90.3811C18.641 93.4147 23.9225 95.159 29.3793 95.4281C34.836 95.6973 40.2635 94.4812 45.0837 91.9095C49.904 89.3378 53.9364 85.5068 56.7513 80.8245C59.5663 76.1422 61.0585 70.7839 61.069 65.3206L60.9882 31.9963Z" fill="black"/>
<path fill-rule="evenodd" clip-rule="evenodd" d="M83.7615 26.4233V22.9509C79.488 22.969 75.297 21.7743 71.6754 19.5054C74.8725 23.0298 79.1034 25.4515 83.7615 26.4233ZM61.2582 4.10836C61.2582 3.48924 61.0698 2.84322 60.989 2.22411V0.124512H44.5691V65.3196C44.5549 68.9701 43.0929 72.4659 40.504 75.0396C37.9151 77.6134 34.4108 79.0548 30.7603 79.0477C28.6108 79.0585 26.4893 78.5604 24.5692 77.5941C26.3177 79.8883 28.7408 81.5773 31.4984 82.4241C34.2559 83.2708 37.2093 83.2327 39.9441 82.3152C42.6788 81.3977 45.0576 79.6467 46.7465 77.3082C48.4353 74.9697 49.3494 72.1611 49.3605 69.2765V4.10836H61.2582ZM34.9595 39.1016V35.4138C28.2028 34.496 21.3344 35.8936 15.4737 39.379C9.61307 42.8644 5.10568 48.232 2.68616 54.607C0.266637 60.9821 0.0776524 67.9887 2.15 74.4849C4.22235 80.9811 8.43385 86.5839 14.0981 90.3801C10.023 86.1668 7.26327 80.8579 6.15602 75.1019C5.04878 69.3458 5.64197 63.3919 7.86313 57.9675C10.0843 52.543 13.8373 47.883 18.6635 44.5565C23.4898 41.2301 29.1804 39.3814 35.0402 39.2362L34.9595 39.1016Z" fill="#69C9D0"/>
</svg>
