<svg width="113" height="110" viewBox="0 0 113 110" fill="none" xmlns="http://www.w3.org/2000/svg">
<path fill-rule="evenodd" clip-rule="evenodd" d="M56.6483 0.996094C25.8249 0.996094 0.859375 25.8403 0.859375 56.5138C0.859375 81.0804 16.829 101.83 39.0051 109.186C41.7945 109.672 42.8405 108.006 42.8405 106.549C42.8405 105.231 42.7708 100.859 42.7708 96.2089C28.7538 98.7766 25.1276 92.8085 24.0118 89.6856C23.3842 88.0895 20.6644 83.1623 18.2934 81.8437C16.3408 80.8028 13.5514 78.2351 18.2237 78.1657C22.6171 78.0963 25.7552 82.1907 26.8012 83.8562C31.8222 92.2533 39.8419 89.8938 43.0498 88.4365C43.5379 84.8278 45.0024 82.3989 46.6063 81.011C34.1933 79.623 21.2223 74.8346 21.2223 53.5991C21.2223 47.5616 23.3842 42.565 26.9407 38.6787C26.3828 37.2908 24.4302 31.6002 27.4986 23.9665C27.4986 23.9665 32.1709 22.5092 42.8405 29.6571C47.3037 28.408 52.0457 27.7834 56.7878 27.7834C61.5298 27.7834 66.2719 28.408 70.735 29.6571C81.4046 22.4398 86.077 23.9665 86.077 23.9665C89.1454 31.6002 87.1927 37.2908 86.6348 38.6787C90.1914 42.565 92.3532 47.4922 92.3532 53.5991C92.3532 74.904 79.3126 79.623 66.8995 81.011C68.9219 82.7459 70.6653 86.0769 70.6653 91.2817C70.6653 98.7072 70.5955 104.675 70.5955 106.549C70.5955 108.006 71.6416 109.741 74.431 109.186C96.4676 101.83 112.437 81.011 112.437 56.5138C112.437 25.8403 87.4717 0.996094 56.6483 0.996094Z" fill="#1B1F23"/>
</svg>
