<svg width="109" height="109" viewBox="0 0 109 109" fill="none" xmlns="http://www.w3.org/2000/svg">
<path d="M54.5282 108.825C84.4513 108.825 108.709 84.567 108.709 54.6439C108.709 24.7209 84.4513 0.463379 54.5282 0.463379C24.6052 0.463379 0.347656 24.7209 0.347656 54.6439C0.347656 84.567 24.6052 108.825 54.5282 108.825Z" fill="#34AADF"/>
<path d="M23.5758 53.4571C23.5758 53.4571 50.4141 42.0392 59.722 38.0187C63.2903 36.4106 75.3907 31.2643 75.3907 31.2643C75.3907 31.2643 80.9756 29.013 80.5101 34.4807C80.3549 36.7322 79.1139 44.6121 77.8729 53.1355C76.0112 65.1969 73.9944 78.3837 73.9944 78.3837C73.9944 78.3837 73.6842 82.0827 71.047 82.7259C68.4097 83.3691 64.0658 80.4746 63.2903 79.8311C62.6695 79.3488 51.6551 72.1119 47.6216 68.5739C46.5356 67.6091 45.2946 65.6794 47.7766 63.4279C53.3616 58.1209 60.0323 51.5274 64.0658 47.3462C65.9275 45.4163 67.789 40.9134 60.0323 46.3811C49.0179 54.2613 38.1584 61.6589 38.1584 61.6589C38.1584 61.6589 35.6762 63.2669 31.0222 61.8196C26.3681 60.3724 20.9383 58.4425 20.9383 58.4425C20.9383 58.4425 17.2153 56.0303 23.5758 53.4571Z" fill="white"/>
</svg>
