<svg width="112" height="63" viewBox="0 0 112 63" fill="none" xmlns="http://www.w3.org/2000/svg">
<path d="M63.3997 31.5358C63.3997 48.4999 49.4044 62.2748 32.067 62.2748C14.7296 62.2748 0.734375 48.4999 0.734375 31.5358C0.734375 14.5717 14.7296 0.796875 32.067 0.796875C49.4044 0.796875 63.3997 14.5717 63.3997 31.5358ZM97.7263 31.5358C97.7263 47.4821 90.6939 60.4427 82.06 60.4427C73.4261 60.4427 66.3937 47.4821 66.3937 31.5358C66.3937 15.5896 73.4261 2.62899 82.06 2.62899C90.6939 2.62899 97.7263 15.5217 97.7263 31.5358ZM111.791 31.5358C111.791 45.8535 109.354 57.457 106.291 57.457C103.227 57.457 100.79 45.8535 100.79 31.5358C100.79 17.2181 103.227 5.61466 106.291 5.61466C109.354 5.61466 111.791 17.2181 111.791 31.5358Z" fill="black"/>
</svg>
