<?xml version="1.0" encoding="utf-8"?>
<!-- Generator: Adobe Illustrator 27.2.0, SVG Export Plug-In . SVG Version: 6.00 Build 0)  -->
<svg version="1.1" id="Layer_1" xmlns="http://www.w3.org/2000/svg" xmlns:xlink="http://www.w3.org/1999/xlink" x="0px" y="0px"
	 viewBox="0 0 180 32" style="enable-background:new 0 0 180 32;" xml:space="preserve">
<style type="text/css">
	.st0{fill:#FFFFFF;}
</style>
<path class="st0" d="M3.8,7.6v3.8H0v2.1h0v3.8h2.1v-3.8h1.7h2.1h0V7.6H3.8z"/>
<path class="st0" d="M31.1,15v3.8h-3.8v2.1h0v3.8h2.1v-3.8h1.7h2.1h0V15H31.1z"/>
<path class="st0" d="M7.7,18.6v3.8H3.9v2.1h0v3.8H6v-3.8h1.7h2.1h0v-5.9H7.7z"/>
<path class="st0" d="M27.2,3.8v3.8h-3.8v2.1h0v3.8h2.1V9.6h1.7h2.1h0V3.8H27.2z"/>
<path class="st0" d="M13.8,0v3.8h3.8v2.1h0v3.8h-2.1V5.9h-1.7h-2.1h0V0H13.8z"/>
<path class="st0" d="M33.2,13.5h-3.8v3.8h-2.1v0h-3.8v-2.1h3.8v-1.7v-2.1v0h5.9V13.5z"/>
<path class="st0" d="M9.8,17.3H5.9V21H3.8v0H0v-2.1h3.8v-1.7v-2.1v0h5.9V17.3z"/>
<path class="st0" d="M17.6,22.3v3.8h3.8v2.1h0V32h-2.1v-3.8h-1.7h-2.1h0v-5.9H17.6z"/>
<path class="st0" d="M7.7,28.2h4V32h2.1v0h3.8v-2.1h-3.8v-1.7v-2.1v0H7.7V28.2z"/>
<path class="st0" d="M19.6,24.4h3.8v3.8h2.1v0h3.9V26h-3.9v-1.7v-2.1v0h-5.9V24.4z"/>
<path class="st0" d="M3.8,6h3.8v3.8h2.1v0h4.2V7.6H9.7V6V3.9v0H3.8V6z"/>
<path class="st0" d="M19.3,5.8V2.1h-3.8V0h5.9v0v2.1v1.7h4.2v2.1"/>
<path class="st0" d="M9.7,11.4H7.6v2.1h2.1V11.4z"/>
<path class="st0" d="M25.5,18.8h-2.1v2.1h2.1V18.8z"/>
<path class="st0" d="M21.3,7.6h-2.1v2.1h2.1V7.6z"/>
<path class="st0" d="M13.8,22.3h-2.1v2.1h2.1V22.3z"/>
<path class="st0" d="M46.6,7.7V15l8-7.2h3.4l-9.1,8.2l9.5,8.5H55l-8.4-7.5v7.5h-2.4V7.7H46.6z"/>
<path class="st0" d="M69.2,22.1c1.1,0,2-0.3,2.6-0.9c0.6-0.6,0.9-1.5,0.9-2.6v-5c0-0.5-0.1-1-0.2-1.5c-0.2-0.4-0.4-0.8-0.7-1.1
	c-0.3-0.3-0.7-0.5-1.1-0.7c-0.4-0.2-0.9-0.2-1.5-0.2H63v12H69.2z M60.6,24.5V7.7h8.6c0.9,0,1.7,0.1,2.4,0.4c0.7,0.3,1.3,0.7,1.9,1.2
	c0.5,0.5,0.9,1.1,1.2,1.8c0.3,0.7,0.4,1.5,0.4,2.4v5c0,0.9-0.1,1.7-0.4,2.4c-0.3,0.7-0.7,1.3-1.2,1.9c-0.5,0.5-1.1,0.9-1.9,1.2
	c-0.7,0.3-1.5,0.4-2.4,0.4H60.6z"/>
<path class="st0" d="M81.3,7.7v14.4H90v2.4H78.9V7.7H81.3z"/>
<path class="st0" d="M100.3,7.7l6.5,16.8h-2.4l-1.5-3.9h-7.6l-1.5,3.9h-2.4l6.5-16.8H100.3z M96.3,18.2h5.8l-2.9-7.4L96.3,18.2z"/>
<path class="st0" d="M109.7,7.7h2.4v14.4h9.6V7.7h2.4v14.4c0,0.3-0.1,0.6-0.2,0.9c-0.1,0.3-0.3,0.5-0.5,0.8
	c-0.2,0.2-0.5,0.4-0.8,0.5c-0.3,0.1-0.6,0.2-0.9,0.2h-9.6c-0.3,0-0.6-0.1-0.9-0.2c-0.3-0.1-0.5-0.3-0.8-0.5
	c-0.2-0.2-0.4-0.5-0.5-0.8c-0.1-0.3-0.2-0.6-0.2-0.9V7.7z"/>
<path class="st0" d="M130.9,24.5h-2.4V7.7h2.4l10.1,13v-13h2.4v16.8H141l-10.1-13V24.5z"/>
<path class="st0" d="M147.7,10.1c0-0.3,0.1-0.6,0.2-0.9c0.1-0.3,0.3-0.5,0.5-0.8c0.2-0.2,0.5-0.4,0.8-0.5c0.3-0.1,0.6-0.2,0.9-0.2
	h9.1c0.3,0,0.6,0.1,0.9,0.2c0.3,0.1,0.6,0.3,0.8,0.5c0.2,0.2,0.4,0.5,0.5,0.8c0.1,0.3,0.2,0.6,0.2,0.9v2.2h-2.4v-2.2h-9.1v12h9.1
	v-2.2h2.4v2.2c0,0.3-0.1,0.6-0.2,0.9c-0.1,0.3-0.3,0.5-0.5,0.8c-0.2,0.2-0.5,0.4-0.8,0.5c-0.3,0.1-0.6,0.2-0.9,0.2h-9.1
	c-0.3,0-0.6-0.1-0.9-0.2c-0.3-0.1-0.5-0.3-0.8-0.5c-0.2-0.2-0.4-0.5-0.5-0.8c-0.1-0.3-0.2-0.6-0.2-0.9V10.1z"/>
<path class="st0" d="M180,7.7v16.8h-2.4v-7.2H168v7.2h-2.4V7.7h2.4v7.2h9.6V7.7H180z"/>
</svg>
