<svg width="71" height="71" viewBox="0 0 71 71" fill="none" xmlns="http://www.w3.org/2000/svg">
<path d="M35.8375 0.399902C16.6393 0.399902 0.980469 16.0588 0.980469 35.257C0.980469 54.4552 16.6393 70.114 35.8375 70.114C55.0357 70.114 70.6946 54.4552 70.6946 35.257C70.6946 16.0588 55.0357 0.399902 35.8375 0.399902ZM50.4239 27.4275H48.2788L41.6292 35.1497L48.2788 42.8719H50.4239V49.0925H36.3738V42.8719H38.5188L34.1215 37.9383H32.2982V43.0864H34.765V49.307H21.1439V43.0864H24.147V35.3642V27.5348H21.1439V21.3141H24.576V23.6737H26.3993V21.3141H29.7241V23.6737H31.5474V21.3141H34.8723V27.4275H32.4055V32.5757H34.2287L38.6261 27.4275H36.481V21.3141H50.6384L50.4239 27.4275Z" fill="black"/>
</svg>
