<?xml version="1.0" encoding="UTF-8"?><svg id="Layer_1" xmlns="http://www.w3.org/2000/svg" viewBox="0 0 1053.37 128.26"><path d="m55.21,2.92c7.66,0,14.17,1.11,19.55,3.34,5.37,2.23,9.75,5.17,13.12,8.83,3.37,3.66,5.83,7.83,7.37,12.52,1.54,4.69,2.32,9.55,2.32,14.58s-.77,9.75-2.32,14.49c-1.54,4.75-4,8.95-7.37,12.6-3.37,3.66-7.75,6.6-13.12,8.83-5.37,2.23-11.89,3.34-19.55,3.34h-28.29v43.9H0V2.92h55.21Zm-7.37,57.62c3.09,0,6.06-.23,8.92-.69,2.86-.46,5.37-1.34,7.54-2.66,2.17-1.31,3.91-3.17,5.23-5.57,1.31-2.4,1.97-5.54,1.97-9.43s-.66-7.03-1.97-9.43c-1.32-2.4-3.06-4.26-5.23-5.57-2.17-1.31-4.69-2.2-7.54-2.66-2.86-.46-5.83-.69-8.92-.69h-20.92v36.7h20.92Z"/><path d="m162.73,2.92l45.78,122.43h-27.95l-9.26-27.26h-45.78l-9.6,27.26h-27.09L135.12,2.92h27.61Zm1.54,75.11l-15.43-44.93h-.34l-15.95,44.93h31.72Z"/><path d="m376.73,64.13c0,8.92-1.32,17.29-3.94,25.12-2.63,7.83-6.43,14.63-11.4,20.41-4.97,5.77-11.06,10.32-18.26,13.63-7.2,3.31-15.38,4.97-24.52,4.97s-17.35-1.66-24.61-4.97c-7.26-3.32-13.38-7.86-18.35-13.63-4.97-5.77-8.77-12.57-11.4-20.41-2.63-7.83-3.94-16.2-3.94-25.12s1.31-17.29,3.94-25.12c2.63-7.83,6.43-14.63,11.4-20.41,4.97-5.77,11.09-10.32,18.35-13.63,7.26-3.31,15.46-4.97,24.61-4.97s17.32,1.66,24.52,4.97c7.2,3.32,13.29,7.86,18.26,13.63,4.97,5.77,8.77,12.58,11.4,20.41,2.63,7.83,3.94,16.2,3.94,25.12Zm-108.89,0c0,7.89,1.14,15.32,3.43,22.29,2.29,6.97,5.6,13.06,9.95,18.26,4.34,5.2,9.66,9.35,15.95,12.43,6.29,3.09,13.43,4.63,21.43,4.63s15.12-1.54,21.35-4.63c6.23-3.09,11.52-7.23,15.86-12.43,4.34-5.2,7.66-11.29,9.95-18.26,2.29-6.97,3.43-14.4,3.43-22.29s-1.14-15.32-3.43-22.29c-2.29-6.97-5.6-13.06-9.95-18.26-4.35-5.2-9.63-9.34-15.86-12.43-6.23-3.09-13.35-4.63-21.35-4.63s-15.15,1.54-21.43,4.63c-6.29,3.09-11.6,7.23-15.95,12.43-4.35,5.2-7.66,11.29-9.95,18.26-2.29,6.97-3.43,14.4-3.43,22.29Z"/><path d="m427.49,118.83h.34L470.19,2.92h7.55l-45.78,122.43h-8.75L377.59,2.92h7.89l42.01,115.92Z"/><path d="m486.13,2.92h82.31v6.52h-74.76v49.04h70.3v6.52h-70.3v53.84h75.62v6.52h-83.16V2.92Z"/><path d="m582.16,2.92h51.1c5.37,0,10.4.54,15.09,1.63,4.69,1.09,8.8,2.86,12.35,5.32,3.54,2.46,6.31,5.69,8.32,9.69,2,4,3,8.98,3,14.92,0,8.23-2.31,15.18-6.94,20.83-4.63,5.66-11.06,9.17-19.29,10.55v.34c5.6.69,10.03,2.17,13.29,4.46,3.26,2.29,5.68,5.09,7.29,8.4,1.6,3.32,2.63,6.97,3.09,10.97.46,4,.69,8,.69,12v7.03c0,2.29.11,4.43.34,6.43.23,2,.6,3.86,1.11,5.57.51,1.71,1.23,3.15,2.14,4.29h-8.4c-1.6-2.86-2.49-6.2-2.66-10.03-.17-3.83-.26-7.8-.26-11.92s-.17-8.2-.51-12.26c-.34-4.06-1.43-7.69-3.26-10.89-1.83-3.2-4.72-5.77-8.66-7.72-3.94-1.94-9.52-2.92-16.72-2.92h-43.56v55.73h-7.54V2.92Zm51.1,60.19c4.46,0,8.6-.54,12.43-1.63,3.83-1.08,7.12-2.77,9.86-5.06,2.74-2.29,4.91-5.2,6.52-8.75,1.6-3.54,2.4-7.77,2.4-12.69,0-4.57-.86-8.49-2.57-11.75-1.71-3.26-4-5.92-6.86-7.97-2.86-2.06-6.17-3.54-9.95-4.46-3.77-.91-7.72-1.37-11.83-1.37h-43.56v53.67h43.56Z"/><path d="m726.88,118.83h.34L769.58,2.92h7.54l-45.79,122.43h-8.74L676.98,2.92h7.89l42.01,115.92Z"/><path d="m785.52,2.92h7.54v122.43h-7.54V2.92Z"/><path d="m814.68,2.92h82.31v6.52h-74.76v49.04h70.31v6.52h-70.31v53.84h75.62v6.52h-83.17V2.92Z"/><path d="m898.87,2.92h7.72l31.89,114.37h.34L971.23,2.92h9.43l32.92,114.37h.34l31.38-114.37h8.06l-35.15,122.43h-8.57l-33.61-115.92h-.34l-33.1,115.92h-8.4L898.87,2.92Z"/></svg>