<svg xmlns="http://www.w3.org/2000/svg" xmlns:xlink="http://www.w3.org/1999/xlink" width="359.051" height="220.97" viewBox="0 0 359.051 220.97">
  <defs>
    <linearGradient id="linear-gradient" x1="-3.787" y1="-6.391" x2="-2.774" y2="-6.391" gradientUnits="objectBoundingBox">
      <stop offset="0" stop-color="#fff"/>
      <stop offset="0.998" stop-color="#d9d9d9"/>
    </linearGradient>
    <linearGradient id="linear-gradient-2" x1="-3.361" y1="-1.206" x2="-2.356" y2="-1.206" xlink:href="#linear-gradient"/>
    <linearGradient id="linear-gradient-3" x1="0" y1="0.5" x2="1" y2="0.5" xlink:href="#linear-gradient"/>
    <linearGradient id="linear-gradient-11" x1="-2.126" y1="1.332" x2="-0.973" y2="1.332" xlink:href="#linear-gradient"/>
    <linearGradient id="linear-gradient-12" x1="-1.942" y1="1.065" x2="-0.849" y2="1.065" xlink:href="#linear-gradient"/>
    <linearGradient id="linear-gradient-13" x1="-2.52" y1="2.707" x2="-1.497" y2="2.707" xlink:href="#linear-gradient"/>
    <linearGradient id="linear-gradient-14" x1="-14.603" y1="1.637" x2="-13.418" y2="1.637" xlink:href="#linear-gradient"/>
    <linearGradient id="linear-gradient-15" x1="-2.736" y1="1.694" x2="-1.594" y2="1.694" xlink:href="#linear-gradient"/>
    <linearGradient id="linear-gradient-16" x1="-3.84" y1="4.777" x2="-3.022" y2="4.777" xlink:href="#linear-gradient"/>
    <linearGradient id="linear-gradient-17" x1="-5.376" y1="5.859" x2="-4.623" y2="5.859" xlink:href="#linear-gradient"/>
    <linearGradient id="linear-gradient-18" x1="-2.495" y1="-6.484" x2="-1.476" y2="-6.484" xlink:href="#linear-gradient"/>
    <linearGradient id="linear-gradient-19" x1="-3.281" y1="-9.676" x2="-2.269" y2="-9.676" xlink:href="#linear-gradient"/>
  </defs>
  <g id="Gruppe_1094" data-name="Gruppe 1094" transform="translate(-420.537 -428.894)">
    <path id="Pfad_1846" data-name="Pfad 1846" d="M747.933,605.331a.391.391,0,0,1-.224.3.342.342,0,0,1-.336-.089.815.815,0,0,1-.2-.65,1.6,1.6,0,0,1,.4-.951,1.255,1.255,0,0,1,.549-.363,1.274,1.274,0,0,1,1.249.282,1.831,1.831,0,0,1,.453.63,2,2,0,0,1,.166.478,2.418,2.418,0,0,1-.018,1.11,3.836,3.836,0,0,1-.776,1.5,4.488,4.488,0,0,1-.481.512c-.123.118-.238.235-.354.349-.237.225-.489.456-.762.693a21.576,21.576,0,0,1-9.822,4.747q-.391.084-1.166.257c-.521.088-1.171.164-1.928.271a24.173,24.173,0,0,1-2.626.264c-.985.045-2.082.157-3.265.111a66.833,66.833,0,0,1-17.863-2.686c-3.439-.959-7.053-2.165-10.757-3.582s-7.485-3.013-11.364-4.67c-7.744-3.311-15.8-6.925-23.935-10.029a133.129,133.129,0,0,0-24.18-7.043,80.849,80.849,0,0,0-21.592-1.085,63.814,63.814,0,0,0-15.02,3.154q-1.2.417-2.365.822c-.583.225-1.158.448-1.734.667-.947.347-1.479.482-1.53.374s.385-.46,1.252-1.028c.436-.28.977-.628,1.63-1q1.126-.576,2.3-1.166a54.917,54.917,0,0,1,15.213-4.556,78.566,78.566,0,0,1,22.425-.093,130.109,130.109,0,0,1,25.149,6.214c8.385,2.86,16.614,6.236,24.4,9.289,3.893,1.524,7.694,3,11.295,4.265s7.086,2.321,10.347,3.139a62.056,62.056,0,0,0,16.368,2.089c1.055.024,2-.1,2.856-.155a19.564,19.564,0,0,0,2.26-.27l1.643-.253c.445-.1.771-.178.984-.229,3.484-.76,6.595-1.583,8.951-2.256.3-.072.595-.136.87-.19a3.451,3.451,0,0,1,.393-.061,1.422,1.422,0,0,1,.175.04.33.33,0,0,1,.04.02l.106.107.164.158a1.972,1.972,0,0,0,.535.375.427.427,0,0,0,.195.049.286.286,0,0,0-.071.019h0l.259-.1.007,0,.022-.006.029-.013.052-.042a.414.414,0,0,0-.007.2,1.014,1.014,0,0,0,.083.274,1.046,1.046,0,0,0-.367-.33c-.1-.034-.117-.01-.1-.022.037-.021.048-.058.082-.125s.016-.017.006.013l-.023.089Z" fill="url(#linear-gradient)"/>
    <path id="Pfad_1847" data-name="Pfad 1847" d="M598.966,589.5c9.068-4.1,17.136-9.111,26.877-11.641a84.054,84.054,0,0,1,28.29-2.395c18.963,1.638,36.469,10.061,54.415,16.134,16.27,5.511,34.109,9.25,50.878,4.593,6.192-1.72,14.758-4.944,18.593-10.7,3.342-5.017.916-12.531-3.247-16.325-4.252-3.885-12.195-3.831-14.332,2.5-1.79,5.308,3.6,10.814,8.512,8.425a1.357,1.357,0,0,0-1.067-2.487c-3.7,1.358-6.062-4.455-3.336-6.763a5.817,5.817,0,0,1,6.627-.4c3.337,1.858,6.067,6.714,5.361,10.722-1.253,7.084-13.259,10.774-19.011,12.228-13.433,3.4-27.825,1.374-41.057-2.508-25.962-7.617-50.343-20.823-77.953-17.739-13.358,1.491-29.885,5.944-39.943,15.678-.3.293-.017.86.393.675Z" fill="url(#linear-gradient-2)"/>
    <path id="Pfad_1848" data-name="Pfad 1848" d="M504.543,451.976a22.169,22.169,0,0,0,4-12.7,12.67,12.67,0,0,0-2.615-7.372,8.192,8.192,0,0,0-6.7-3.013c-10.438,0-15.731,9.742-15.731,28.956a77.35,77.35,0,0,0,.452,8.268l-15.42,12.947c-3.711-3.21-8.586-4.836-14.506-4.836a28.172,28.172,0,0,0-12.6,2.936,30.8,30.8,0,0,0-10.017,7.809,51.432,51.432,0,0,0-7.46,12.714,45.192,45.192,0,0,0-3.416,17.965,39.966,39.966,0,0,0,4.07,18.47,66.1,66.1,0,0,0-3.189,20.946,37.237,37.237,0,0,0,6.6,21.405c4.461,6.514,10.246,9.818,17.194,9.818a1.579,1.579,0,0,0,1.174-.486,2.368,2.368,0,0,0,.52-1.827c-.1-1.994-1.219-2.209-1.694-2.209-5.315,0-9.551-2.509-12.95-7.671a31.582,31.582,0,0,1-5.191-17.709,67.626,67.626,0,0,1,1.73-15.9c5.679,6.579,13.774,9.912,24.094,9.912a47.484,47.484,0,0,0,20.323-4.124,34.014,34.014,0,0,0,13.874-11.548,53.7,53.7,0,0,0,7.443-16.231,69.833,69.833,0,0,0,2.428-18.4c0-6.222-1.291-18.023-3.838-35.079A76.176,76.176,0,0,0,504.543,451.976Zm-1.526-12.134c0,4.986-3.593,11.191-10.688,18.462-.27-2.76-.406-5.067-.406-6.876,0-11.37,2.459-17.135,7.309-17.135C500.857,434.293,503.017,434.868,503.017,439.842Zm-38.889,43.017c-18.285,15.624-30.655,30.478-36.818,44.208a38.644,38.644,0,0,1-1.5-10.911,41.538,41.538,0,0,1,1.969-12.68c2.937-9.618,7.83-16.546,14.545-20.59a23.365,23.365,0,0,1,12.2-3.258C458.55,479.628,461.7,480.686,464.128,482.859Zm-19.66,27.011a201.809,201.809,0,0,1,22.586-22.611,17.617,17.617,0,0,1,.83,5.349,21.862,21.862,0,0,1-6.29,15.2c-2.811,3.123-5.908,4.707-9.2,4.707H451.2l.209,1.175a4.419,4.419,0,0,0,1.252,2.579,3.766,3.766,0,0,0,2.626.891,17.871,17.871,0,0,0,11.258-3.8,20.545,20.545,0,0,0,6.738-8.739,30.625,30.625,0,0,0,1.895-11.065,18.742,18.742,0,0,0-3.181-10.585l12.571-10.422c1.383,14.561,2.084,23.425,2.084,26.359,0,12.437-2.622,23.155-7.794,31.855a28.412,28.412,0,0,1-10.774,10.4,32.594,32.594,0,0,1-16.07,3.84c-9.786,0-16.8-3.506-21.441-10.717A76.275,76.275,0,0,1,444.468,509.87Z" fill="url(#linear-gradient-3)"/>
    <path id="Pfad_1849" data-name="Pfad 1849" d="M523.158,469.554a7.055,7.055,0,0,0,3.81-1.414A8.173,8.173,0,0,0,531.211,461c0-4.267-2.442-4.9-3.9-4.9a4.57,4.57,0,0,0-4.381,3.056,25.656,25.656,0,0,0-1.634,5.11c-.3,1.443-.66,1.656-.658,1.657h-1.383l.55,1.664C520.076,468.481,520.876,469.554,523.158,469.554Z" fill="url(#linear-gradient-3)"/>
    <path id="Pfad_1850" data-name="Pfad 1850" d="M569.754,428.894c-3.127,0-6.042,1.42-8.664,4.221a36.426,36.426,0,0,0-6.473,10.082c-4.437,9.523-8.688,26.764-12.646,51.234l-1.215,2.465H538.65c-.383,0-1.631.158-1.631,2.2,0,1.956,1.142,2.178,1.573,2.193l-.843,1.71a143.816,143.816,0,0,1-10.13,17.258c-4.894,7.178-7.341,8.25-8.364,8.25-.47,0-1.9,0-1.9-4.35a62.814,62.814,0,0,1,1.37-12.1c.526-2.883.977-5.178,1.38-7.02.414-1.907,1-4.4,1.755-7.4.745-2.978,1.3-5.3,1.645-6.9a22.546,22.546,0,0,0,.527-4.679,12.72,12.72,0,0,0-.55-3.947c-1.014-3.288-2.859-3.978-4.228-3.978-1.109,0-2.571.592-3.239,3.4-.267,1.078-.525,2.215-.764,3.379-.236,1.142-.463,2.117-.675,2.89-.205.732-.47,1.786-.827,3.3-3.445,13.613-5.192,23.61-5.192,29.715,0,10.818,5.61,13.088,10.316,13.088,2.234,0,4.714-1.438,7.581-4.4a58.475,58.475,0,0,0,7.307-9.29c1.793-2.816,3.681-6.05,5.622-9.6-.262,1.652-.54,3.414-.84,5.317l-2.333,14.794a55.555,55.555,0,0,0-8.44,9.384c-7.085,9.528-12.009,18.826-14.635,27.636a29.393,29.393,0,0,0-1.429,8.094c0,5.268,2.7,8.053,7.8,8.053,7.368,0,13.407-8.267,18.461-25.264,3.162-10.313,7.027-29.627,11.49-57.415a33.685,33.685,0,0,0,9.252-2.286l.608-.243.158-4.941-1.464.663a26.932,26.932,0,0,1-7.85,2.238c1.15-7.326,2.1-13.056,2.825-17.061l2.242-.488.081-.021c6.78-2.086,12.656-7.715,17.469-16.735,3.92-7.423,5.907-14.444,5.907-20.867C578.688,431.078,573.83,428.894,569.754,428.894Zm3.535,12.082c0,5.266-1.87,11.551-5.563,18.688-3.983,7.825-8.585,12.666-13.7,14.419,2.408-12.9,4.919-22.963,7.468-29.93,2.514-6.876,5.462-10.363,8.761-10.363C572.269,433.79,573.289,436.208,573.289,440.976Zm-38.368,97.217c-2.242,12.531-4.608,22.406-7.04,29.391h0c-2.515,7.24-5.5,10.911-8.877,10.911-.438,0-1.769,0-1.769-3.72,0-2.988,2.171-9.093,6.452-18.146A87.449,87.449,0,0,1,534.921,538.193Z" fill="url(#linear-gradient-3)"/>
    <path id="Pfad_1851" data-name="Pfad 1851" d="M644.623,488.2a10.3,10.3,0,0,0-2.467-7.225,8.887,8.887,0,0,0-6.842-2.715c-7.1,0-13.844,6.675-20.558,20.377,1.056-6.086,2.252-12.735,3.565-19.833,3.5-1.8,7.079-5.647,10.91-11.728,5.421-8.555,8.818-16.987,10.095-25.069a31.35,31.35,0,0,0,.387-4.555c0-7.071-3.625-8.556-6.666-8.556-4.527,0-8.521,3.844-11.868,11.415a112.285,112.285,0,0,0-4.509,11.626c-1.313,4.011-2.66,9.107-4.12,15.581-1.522,6.772-2.757,12.377-3.777,17.136-.649,3.016-1.378,6.5-2.2,10.5l-1.259,2.713c-2.149,4.789-5.931,11.09-11.229,18.711a43.569,43.569,0,0,1-7.941,8.434c-2.784,2.236-5.432,3.369-7.873,3.369-6.191,0-9.2-4.492-9.2-13.734a47.6,47.6,0,0,1,5.249-20.844c3.369-6.9,7.071-10.394,11-10.394,1.049,0,2.02.307,2.02,2.527a15.628,15.628,0,0,1-1.6,6.686c-1.143,2.408-1.737,2.919-1.891,3.018h-1.336l.481,1.338a2.6,2.6,0,0,0,2.453,2.046,7.019,7.019,0,0,0,5.052-2.245,10.512,10.512,0,0,0,2.841-4.935,23.688,23.688,0,0,0,.661-5.72,8.009,8.009,0,0,0-2.709-5.955,8.68,8.68,0,0,0-6.16-2.16,17.634,17.634,0,0,0-7.425,1.734c-6.158,2.953-11.068,8.719-14.589,17.135-2.4,5.647-3.608,10.5-3.608,14.433a34.838,34.838,0,0,0,1.176,9.791c2.479,8.414,8.4,12.68,17.583,12.68,3.323,0,6.835-1.45,10.442-4.311a50.8,50.8,0,0,0,9.119-9.313c1.692-2.255,3.452-4.883,5.256-7.832-.679,3.309-1.224,5.905-1.621,7.712a36.387,36.387,0,0,0-1.03,6.51,9.32,9.32,0,0,0,.7,3.589c1.147,2.8,2.986,3.393,4.326,3.393,1.412,0,2.455-1.087,3.1-3.227,2.094-6.863,5.261-15.477,9.419-25.615a73.23,73.23,0,0,1,8.069-15.528c2.725-3.816,5.163-5.751,7.245-5.751.7,0,2.148,0,2.148,3.03,0,2.584-1.238,8.535-3.68,17.686-2.487,9.3-3.748,16.447-3.748,21.227,0,10.3,4.515,12.46,8.3,12.46a5.191,5.191,0,0,0,3.259-1.094,3.313,3.313,0,0,0,1.52-2.552v-1h-1c-1.286,0-2.023-2.618-2.023-7.184,0-3.613,1.093-10.125,3.247-19.356C643.544,497.1,644.623,491.071,644.623,488.2Zm-24.915-16.447c6.338-32.108,11.189-37.688,13.652-37.951.966.493,1.455,1.8,1.455,3.9,0,5.359-2.379,12.791-7.069,22.087C624.984,465.182,622.29,469.191,619.708,471.751Z" fill="url(#linear-gradient-3)"/>
    <path id="Pfad_1852" data-name="Pfad 1852" d="M712.625,493.748l-4.555,9.247a143.67,143.67,0,0,1-10.13,17.258c-4.893,7.178-7.342,8.25-8.365,8.25-1.568,0-1.9-2.743-1.9-5.044,0-.9.1-2.392.31-4.434s1.7-9.854,4.459-23.223a23.14,23.14,0,0,0,.392-3.95c0-5.2-2.256-6.291-4.149-6.291-2.214,0-3.468,2.9-4.219,5.084-.98,2.862-4.3,9.462-9.882,19.624a73.9,73.9,0,0,1-8.384,12.61c-3.553,4.232-5.791,5.121-7.043,5.121-1.829,0-2.213-3.428-2.213-6.3,0-7.709,2-16,5.958-24.649,4.084-9.052,8.607-13.642,13.444-13.642a4.594,4.594,0,0,1,2.842.727c.819.65.819,1.135.819,1.294a2.082,2.082,0,0,0,2.139,2.2,2.155,2.155,0,0,0,1.655-.52,2.037,2.037,0,0,0,.6-1.547,7.264,7.264,0,0,0-2.31-5.242,8.4,8.4,0,0,0-6.183-2.307,19.168,19.168,0,0,0-7.268,1.471c-6.672,2.946-12.223,9.26-16.5,18.773-3.064,6.979-4.619,13.512-4.619,19.418,0,10.606,3.683,15.984,10.947,15.984,5.9,0,12.76-7.122,20.936-21.746a58.765,58.765,0,0,0-.527,7.4c0,9.688,3.471,14.6,10.319,14.6,2.234,0,4.714-1.438,7.581-4.4a58.259,58.259,0,0,0,7.3-9.289c2.143-3.359,4.423-7.3,6.777-11.717,2.4-4.5,3.95-7.519,4.749-9.244.784-1.7,1.437-3.062,1.939-4.063l.726-1.448Z" fill="url(#linear-gradient-3)"/>
    <path id="Pfad_1853" data-name="Pfad 1853" d="M741.592,493.748l-4.56,9.247a143.67,143.67,0,0,1-10.13,17.258c-4.893,7.178-7.341,8.25-8.364,8.25-.47,0-1.9,0-1.9-4.35a62.745,62.745,0,0,1,1.371-12.1c.525-2.883.976-5.178,1.379-7.02.415-1.907,1-4.4,1.755-7.4.745-2.978,1.3-5.3,1.645-6.9a22.546,22.546,0,0,0,.527-4.679,12.691,12.691,0,0,0-.55-3.947c-1.014-3.288-2.859-3.978-4.228-3.978-1.109,0-2.57.592-3.238,3.4-.268,1.078-.526,2.215-.765,3.379s-.466,2.131-.675,2.891c-.208.744-.479,1.827-.827,3.3-3.444,13.613-5.191,23.61-5.191,29.715,0,10.818,5.609,13.088,10.315,13.088,2.234,0,4.714-1.438,7.581-4.4a58.532,58.532,0,0,0,7.308-9.29c2.146-3.372,4.425-7.314,6.772-11.716,2.4-4.5,3.95-7.519,4.749-9.244.784-1.7,1.437-3.062,1.939-4.063l.726-1.448Z" fill="url(#linear-gradient-3)"/>
    <path id="Pfad_1854" data-name="Pfad 1854" d="M722.441,469.554a7.055,7.055,0,0,0,3.81-1.414A8.173,8.173,0,0,0,730.494,461c0-4.267-2.441-4.9-3.9-4.9a4.568,4.568,0,0,0-4.38,3.056,25.661,25.661,0,0,0-1.635,5.11c-.3,1.443-.659,1.656-.657,1.657H718.54l.551,1.664C719.359,468.481,720.159,469.554,722.441,469.554Z" fill="url(#linear-gradient-3)"/>
    <path id="Pfad_1855" data-name="Pfad 1855" d="M779.223,487.7a10.917,10.917,0,0,0-2.384-7.4,8.742,8.742,0,0,0-6.925-2.8c-6.688,0-13.372,6.979-20.368,21.3l.945-4.73a22.8,22.8,0,0,0,.526-4.679,12.408,12.408,0,0,0-.685-4.166c-1.13-3.262-2.986-3.947-4.344-3.947-1.03,0-2.823.455-3.252,3.467-4.756,26.512-7.068,40.369-7.068,42.363,0,5.3,2.463,6.416,4.528,6.416,1.117,0,2.576-.62,3.184-3.572.363-1.79,1.833-6.3,4.366-13.4a165.363,165.363,0,0,1,10.141-22.467c5.023-9.349,8.216-11.311,10.01-11.311,1.063,0,2.149.353,2.149,2.967,0,2.552-1.281,8.608-3.806,18-2.57,9.565-3.873,16.834-3.873,21.606,0,10.3,4.515,12.46,8.3,12.46a5.2,5.2,0,0,0,3.259-1.093,3.316,3.316,0,0,0,1.52-2.553v-1h-1c-1.286,0-2.023-2.618-2.023-7.184,0-3.6,1.134-10.177,3.372-19.539C778.1,496.792,779.223,490.66,779.223,487.7Z" fill="url(#linear-gradient-3)"/>
    <path id="Pfad_1856" data-name="Pfad 1856" d="M420.537,564.175" fill="#fff"/>
    <path id="Pfad_1857" data-name="Pfad 1857" d="M544.862,633.623a.295.295,0,0,0-.316-.433.674.674,0,0,0-.47.346,1.3,1.3,0,0,0-.168.866,1.125,1.125,0,0,0,.231.534,1.221,1.221,0,0,0,1.071.447,1.586,1.586,0,0,0,.648-.2,1.667,1.667,0,0,0,.358-.247,1.936,1.936,0,0,0,.533-.777,3.153,3.153,0,0,0,.16-1.442,3.817,3.817,0,0,0-.108-.6c-.033-.146-.062-.286-.092-.424-.067-.278-.141-.568-.229-.873a19.8,19.8,0,0,0-5-8.342q-.252-.26-.745-.777c-.345-.329-.793-.716-1.306-1.179a22.977,22.977,0,0,0-1.829-1.533c-.714-.538-1.477-1.18-2.383-1.757a64.685,64.685,0,0,0-14.653-7.324c-3.038-1.105-6.329-2.127-9.789-3.05s-7.068-1.76-10.777-2.607c-7.408-1.687-15.2-3.327-22.794-5.358a128.067,128.067,0,0,1-21.509-7.553,78.27,78.27,0,0,1-16.651-10.351,60.767,60.767,0,0,1-9.661-9.911q-.693-.909-1.361-1.786c-.324-.456-.645-.906-.966-1.354-.537-.728-.868-1.095-.96-1.046s.062.517.43,1.356c.188.419.421.937.725,1.533q.558.978,1.141,1.989a51.63,51.63,0,0,0,9.116,10.981,75.888,75.888,0,0,0,16.692,11.6,125.611,125.611,0,0,0,21.826,8.626c7.664,2.33,15.464,4.222,22.776,6.109,3.654.946,7.216,1.878,10.526,2.853s6.43,2.035,9.266,3.144a60.144,60.144,0,0,1,13.244,6.97c.8.527,1.443,1.1,2.055,1.577a18.487,18.487,0,0,1,1.554,1.349c.438.4.811.749,1.1,1.02.283.3.488.52.622.665,2.228,2.318,4.145,4.489,5.573,6.167q.288.311.556.579a3.3,3.3,0,0,0,.263.244,1.19,1.19,0,0,0,.151.063.289.289,0,0,0,.039.007l.132-.02.2-.026a1.814,1.814,0,0,1,.583.016.409.409,0,0,1,.17.066.252.252,0,0,1-.043-.05h0s.271.386.144.2l0,0,.012.016a.172.172,0,0,1,.016.024c.015.049.018.056.018.056a.331.331,0,0,1,.095-.145.827.827,0,0,1,.2-.147.949.949,0,0,1-.436.039c-.092-.028-.092-.052-.087-.037.017.034.007.065,0,.129s0,.02.011-.006l.026-.073Z" fill="url(#linear-gradient-11)"/>
    <g id="Gruppe_1088" data-name="Gruppe 1088">
      <path id="Pfad_1858" data-name="Pfad 1858" d="M430.036,575.866c6.443,6.283,11.764,12.995,19.249,18.212a79.257,79.257,0,0,0,23.233,11.1c16.55,4.784,33.912,3.541,50.938,4.365,15.438.743,31.67,3.444,44.465,12.672,4.725,3.408,11.006,8.815,12.518,14.768,1.317,5.187-3,10.555-7.67,12.318-4.772,1.807-11.481-.8-11.382-6.676.084-4.924,6.309-7.691,9.747-4.149a1.184,1.184,0,0,1-1.654,1.691c-2.726-2.307-6.475,1.69-4.863,4.46a5.45,5.45,0,0,0,5.493,2.464c3.385-.444,7.16-3.538,7.771-7.048,1.074-6.2-7.979-13.1-12.412-16.151-10.351-7.12-23.146-10.112-35.52-11.208-24.279-2.148-48.9.789-71.354-10.653-10.86-5.535-23.513-14.519-29.1-25.737-.168-.339.245-.71.536-.426Z" fill="url(#linear-gradient-12)"/>
    </g>
    <g id="Gruppe_1089" data-name="Gruppe 1089">
      <path id="Pfad_1859" data-name="Pfad 1859" d="M428.824,569.9c9.231,10.608,21.772,17.881,36.1,18.134,7.078.127,13.965-1.637,20.883-2.9,5.569-1.022,11.873-2.261,17.421-.758,3.769,1.022,7.284,4.143,6.951,8.384-.352,4.469-5,6.427-8.941,6.561-3.553.116-7.805-1.911-7.784-6.015a4.274,4.274,0,0,1,6.533-3.717,1.083,1.083,0,0,1-1.052,1.891q-1.4,1.191-2.812,2.376a3.246,3.246,0,0,0,3.131,2.438,7.333,7.333,0,0,0,3.861-.053c3.511-.915,5.581-4.559,2.7-7.452-3.485-3.494-10.547-2.4-15.01-1.858-8.178,1.006-16.22,3.384-24.5,3.371-14.83-.026-29.95-7.344-38.152-19.867-.262-.4.351-.9.673-.53Z" fill="url(#linear-gradient-13)"/>
    </g>
    <g id="Gruppe_1090" data-name="Gruppe 1090">
      <path id="Pfad_1860" data-name="Pfad 1860" d="M535.83,612.817c5.7-1.615,11.557.962,16.315,3.964,3.924,2.474,9.809,6.143,9.123,11.6-.49,3.909-4.908,6.235-8.209,3.78-2.8-2.087-2.512-7.13,1.031-8.178a.782.782,0,0,1,.888,1.124c-.237.362-.464.731-.685,1.1q-1.517,2.149,1.938,4.378,1.239-2.151,2.472-4.3a5.728,5.728,0,0,0-1.587-2.688,28.571,28.571,0,0,0-6.505-5.349,26.051,26.051,0,0,0-14.659-4.581.433.433,0,0,1-.122-.846Z" fill="url(#linear-gradient-14)"/>
    </g>
    <g id="Gruppe_1091" data-name="Gruppe 1091">
      <path id="Pfad_1861" data-name="Pfad 1861" d="M433.13,582.657c9.943,11.509,21.679,22.294,36.668,26.474,13.779,3.841,29.437,1.262,42.044,9.085,3.171,1.968,8.429,5.674,7.559,10.176-.757,3.94-5.586,5.735-9.088,4.76-8.636-2.4-2.069-13.469,2.74-8.623.64.645-.215,1.926-1.008,1.351-1.516-1.1-4.006.738-3.608,2.46.371,1.617,2.565,2.623,4.178,2.519,1.96-.125,4.328-2.189,4.234-4.317-.054-1.186-1.656-2.551-2.39-3.272-3.723-3.657-8.724-5.8-13.7-7.14-9.106-2.456-18.676-2.205-27.878-4.2-16.723-3.613-30.469-15.223-40-29.081-.1-.148.127-.332.245-.2Z" fill="url(#linear-gradient-15)"/>
    </g>
    <g id="Gruppe_1092" data-name="Gruppe 1092">
      <path id="Pfad_1862" data-name="Pfad 1862" d="M432.011,574.8c3.463,2.8,7.632,3.7,10.491-.651a16.136,16.136,0,0,1,2.124-3.126c2.346-2.321,5.789-3.664,8.912-4.521a31,31,0,0,1,20.093,1.416,1.247,1.247,0,0,1,.466,1.676c-3.116,6.771-9.611,10.253-16.561,11.938-6.182,1.495-13.651,3.049-18.751-1.648a1.372,1.372,0,0,1,.58-2.261c7.688-3.14,15.789-6.3,23.984-7.725a.948.948,0,0,1,.512,1.825c-7.992,2.569-15.809,4.761-23.456,8.352.087-.708.18-1.414.267-2.122,4.61,3.935,12.165,2.087,17.493.677,5.864-1.552,11.106-4.553,13.791-10.227.153.558.312,1.118.471,1.679-8.864-3.724-22.877-3.682-28.172,5.687-2.776,4.915-9.879,3.91-13.134-.063a.636.636,0,0,1,.89-.906Z" fill="url(#linear-gradient-16)"/>
    </g>
    <g id="Gruppe_1093" data-name="Gruppe 1093">
      <path id="Pfad_1863" data-name="Pfad 1863" d="M452.76,587.137a45.638,45.638,0,0,0,12.843-1.828c4-1.222,5.567-4.34,8.732-6.67a17.837,17.837,0,0,1,15.778-2.539,1,1,0,0,1,.625,1.442c-5.022,6.991-14.233,8.187-22.2,7.1-1.128-.152-.839-1.865.218-1.93,7.532-.462,15.269.558,20.418-6.341.157.552.308,1.1.464,1.653A16.225,16.225,0,0,0,478.977,578a16.432,16.432,0,0,0-5.54,3.2c-1.154,1.036-1.947,2.476-3.165,3.421-4.353,3.363-12.351,3.418-17.5,3.033-.323-.023-.349-.515-.011-.519Z" fill="url(#linear-gradient-17)"/>
    </g>
    <path id="Pfad_1864" data-name="Pfad 1864" d="M646.131,585.046a.324.324,0,0,0-.567-.166.745.745,0,0,0-.178.619,1.432,1.432,0,0,0,.436.869,1.245,1.245,0,0,0,.561.311,1.349,1.349,0,0,0,1.236-.33,1.766,1.766,0,0,0,.43-.613,1.9,1.9,0,0,0,.147-.457,2.14,2.14,0,0,0-.059-1.038,3.46,3.46,0,0,0-.83-1.366,4.118,4.118,0,0,0-.5-.454c-.127-.1-.247-.208-.366-.308-.245-.2-.505-.4-.786-.608a21.838,21.838,0,0,0-9.978-3.924q-.395-.057-1.174-.179c-.522-.054-1.174-.091-1.934-.151a25.62,25.62,0,0,0-2.63-.108c-.985.01-2.083-.037-3.263.069a71.352,71.352,0,0,0-17.726,3.46c-3.4,1.079-6.959,2.4-10.6,3.922s-7.358,3.217-11.168,4.973c-7.605,3.51-15.514,7.32-23.514,10.655a141.171,141.171,0,0,1-23.869,7.873,86.269,86.269,0,0,1-21.507,2.16,66.882,66.882,0,0,1-15.107-2.157q-1.218-.327-2.391-.644c-.59-.18-1.172-.358-1.754-.532-.959-.275-1.495-.374-1.542-.269s.4.41,1.288.895c.446.24,1,.536,1.664.852q1.145.478,2.334.969a56.964,56.964,0,0,0,15.351,3.459,83.675,83.675,0,0,0,22.382-1.1,138.5,138.5,0,0,0,24.868-7.149c8.261-3.12,16.348-6.716,24-9.987,3.829-1.632,7.567-3.213,11.114-4.59s6.986-2.547,10.209-3.486a66.231,66.231,0,0,1,16.258-2.822c1.051-.078,2-.01,2.855-.006a20.521,20.521,0,0,1,2.265.133c.656.059,1.212.109,1.649.15.449.071.777.126.991.162,3.5.527,6.64,1.132,9.017,1.637.306.052.6.1.874.132a3.494,3.494,0,0,0,.395.036,1.426,1.426,0,0,0,.174-.046.423.423,0,0,0,.038-.021l.1-.106.158-.157a1.987,1.987,0,0,1,.52-.378.456.456,0,0,1,.193-.057.263.263,0,0,1-.072-.014h0l.262.081.008,0,.021,0a.213.213,0,0,1,.03.011c.046.032.054.036.054.036a.35.35,0,0,1-.015-.19.927.927,0,0,1,.072-.261,1.027,1.027,0,0,1-.354.328c-.1.037-.115.016-.1.026.037.018.049.052.086.112s.016.015.005-.012l-.026-.082Z" fill="url(#linear-gradient-18)"/>
    <path id="Pfad_1865" data-name="Pfad 1865" d="M511.194,611.945c16.152,4.505,33.51,7.251,49.825,1.947,15-4.878,27.8-16.8,44.155-17.3,4.113-.127,11.2.069,13.15,4.734,1.708,4.082-1.632,8.675-5.444,9.916-9.4,3.059-10.116-11.108-2.742-9.591.981.2.977,1.9-.1,1.856-2.061-.083-3.229,3.121-1.813,4.46,1.327,1.259,3.955.844,5.373-.235,1.724-1.311,2.639-4.651,1.255-6.547-.772-1.057-3.076-1.333-4.19-1.548-5.65-1.087-11.549,0-16.937,1.8-9.861,3.3-18.5,9.367-28.162,13.153-17.563,6.883-37.269,4.6-54.473-2.312-.185-.072-.085-.382.105-.329Z" fill="url(#linear-gradient-19)"/>
  </g>
</svg>
