<svg width="74" height="70" viewBox="0 0 74 70" fill="none" xmlns="http://www.w3.org/2000/svg">
<path d="M14.9445 51.0985C22.7365 51.0985 29.0531 44.7819 29.0531 36.9899C29.0531 29.198 22.7365 22.8813 14.9445 22.8813C7.15256 22.8813 0.835938 29.198 0.835938 36.9899C0.835938 44.7819 7.15256 51.0985 14.9445 51.0985Z" fill="url(#paint0_linear_215_30370)"/>
<path fill-rule="evenodd" clip-rule="evenodd" d="M14.944 22.8813C17.7344 22.8812 20.4622 23.7086 22.7825 25.2588C25.1027 26.8091 26.9111 29.0125 27.979 31.5906C29.0469 34.1686 29.3264 37.0054 28.782 39.7422C28.2376 42.4791 26.8939 44.993 24.9208 46.9662C22.9476 48.9393 20.4337 50.2831 17.6968 50.8274C14.96 51.3718 12.1232 51.0923 9.54514 50.0244C6.96712 48.9565 4.76366 47.1481 3.21344 44.8279C1.66321 42.5077 0.835831 39.7798 0.835938 36.9894C0.837789 33.2483 2.32476 29.6609 4.97013 27.0155C7.6155 24.3702 11.2029 22.8832 14.944 22.8813ZM14.944 23.7629C17.5599 23.7628 20.1172 24.5384 22.2924 25.9917C24.4675 27.445 26.1629 29.5106 27.164 31.9275C28.1652 34.3443 28.4272 37.0037 27.9169 39.5694C27.4066 42.1351 26.147 44.4919 24.2972 46.3417C22.4475 48.1915 20.0908 49.4513 17.5251 49.9617C14.9594 50.4721 12.2999 50.2102 9.88307 49.2091C7.46622 48.208 5.40049 46.5128 3.94713 44.3377C2.49376 42.1626 1.71803 39.6054 1.71803 36.9894C1.71988 33.4822 3.1139 30.1191 5.59383 27.6391C8.07375 25.1591 11.4367 23.7649 14.944 23.7629Z" fill="url(#paint1_linear_215_30370)"/>
<path d="M14.9479 47.5687C20.7915 47.5687 25.5287 42.8316 25.5287 36.988C25.5287 31.1444 20.7915 26.4072 14.9479 26.4072C9.10435 26.4072 4.36719 31.1444 4.36719 36.988C4.36719 42.8316 9.10435 47.5687 14.9479 47.5687Z" fill="#4DCAED"/>
<path d="M14.9453 46.687C20.302 46.687 24.6445 42.3445 24.6445 36.9878C24.6445 31.6311 20.302 27.2886 14.9453 27.2886C9.58858 27.2886 5.24609 31.6311 5.24609 36.9878C5.24609 42.3445 9.58858 46.687 14.9453 46.687Z" fill="url(#paint2_linear_215_30370)"/>
<path d="M14.9429 44.2637C18.9607 44.2637 22.2178 41.0066 22.2178 36.9888C22.2178 32.971 18.9607 29.7139 14.9429 29.7139C10.9251 29.7139 7.66797 32.971 7.66797 36.9888C7.66797 41.0066 10.9251 44.2637 14.9429 44.2637Z" fill="#B7BDD2"/>
<path fill-rule="evenodd" clip-rule="evenodd" d="M31.8331 11.1802C32.207 11.4059 32.5579 11.6677 32.8808 11.9617C36.3199 14.9889 38.6513 19.0765 39.5058 23.5778C40.4196 27.7635 40.8615 29.7906 38.6614 31.3182C35.6921 33.3786 41.8328 42.1833 43.032 44.7312C41.449 46.7615 39.3849 46.7201 38.2942 47.2807C37.6895 47.5925 37.9395 48.7471 38.0373 49.6362C38.133 50.5065 38.935 51.0542 38.4953 51.7283C38.1013 52.3325 36.6139 52.3733 35.9651 52.792C36.5876 53.4774 37.9717 54.1649 37.7895 55.0561C37.6492 55.7442 36.0963 55.6232 35.4985 57.1901C35.176 58.0297 35.3432 59.587 34.681 60.3728C34.2624 60.9185 33.7314 61.3679 33.1241 61.6905C32.5167 62.0132 31.8471 62.2015 31.1607 62.2429C30.3666 62.3278 29.5636 62.2441 28.8041 61.9973C26.3703 61.1959 24.0682 60.0392 21.9727 58.5646C22.8203 58.7065 23.7427 58.8398 24.7141 58.9478C27.5318 59.2607 28.9471 58.9903 30.3001 57.3858C30.8828 56.6945 30.7371 55.326 31.0193 54.5874C31.545 53.2102 32.9103 53.3167 33.0334 52.7109C33.1947 51.9272 31.9766 51.323 31.4294 50.722C31.9981 50.357 33.3081 50.3189 33.6548 49.7872C34.0413 49.196 33.3361 48.7122 33.2522 47.9473C33.1662 47.1657 32.9453 46.1508 33.4774 45.8767C34.4369 45.3816 36.2516 45.4209 37.6433 43.6357C36.5897 41.3894 31.1892 33.6479 33.7999 31.8359C35.7351 30.492 35.3475 28.7117 34.5423 25.0318C33.7905 21.0743 31.7407 17.4804 28.7171 14.8187C27.8571 14.0906 26.8598 13.5422 25.7843 13.2061C27.7105 12.2869 29.7418 11.6065 31.8331 11.1802Z" fill="url(#paint3_linear_215_30370)"/>
<path fill-rule="evenodd" clip-rule="evenodd" d="M37.793 10.6631C38.3509 10.6785 38.9116 10.7116 39.4749 10.7625C46.1466 11.3653 52.338 14.4875 56.7891 19.4938C61.2402 24.5001 63.6164 31.0143 63.4343 37.7108C63.2522 44.4072 60.5254 50.7826 55.8088 55.5396C51.0922 60.2966 44.7402 63.0777 38.0456 63.3169C38.2342 63.1692 38.4127 63.009 38.5799 62.8374C39.6969 61.6887 39.9098 60.3062 40.1027 58.8957C40.2038 58.1808 40.7419 58.127 41.2015 57.862C43.1941 56.7123 42.3485 54.0579 42.3485 54.0579C42.9353 53.6154 43.3362 52.9702 43.4731 52.2481C43.651 51.2407 42.9683 50.3764 42.8248 49.2191C43.1022 49.1406 43.3795 49.0611 43.6531 48.9713C45.8936 48.237 48.9634 46.4551 47.8023 44.0464C46.5123 41.3728 44.7239 38.8464 43.5505 36.0679C43.0919 34.9826 42.5695 33.8871 42.7442 32.8851C44.9282 31.3134 45.3818 28.7607 45.0674 26.4504C44.239 20.3392 41.9078 14.8074 37.793 10.6631Z" fill="#D1D1E0"/>
<path fill-rule="evenodd" clip-rule="evenodd" d="M43.8594 14.543C47.4073 15.8397 50.6226 17.909 53.2726 20.6009C58.2604 25.7569 61.2281 33.2517 59.7891 40.238C58.4275 46.8496 52.6862 52.3625 48.8821 54.0601C47.0609 54.8728 45.5843 54.754 45.594 54.5326C45.6037 54.3111 45.8348 53.8472 46.9754 52.4727C51.0558 47.5522 53.4591 40.3654 49.8727 34.7536C49.1599 33.6458 48.2739 32.6596 47.2485 31.8326C47.9992 30.2874 48.2506 28.5469 47.9677 26.8524C47.4358 22.5157 46.0388 18.3299 43.8594 14.543Z" fill="url(#paint4_linear_215_30370)"/>
<path fill-rule="evenodd" clip-rule="evenodd" d="M36.4624 0.776855C28.8657 4.9175 22.7623 11.3409 19.015 19.1391C15.2676 26.9374 14.0658 35.7161 15.5794 44.2346C15.3703 44.2529 15.158 44.2626 14.9429 44.2626C13.0139 44.2616 11.1642 43.4948 9.80008 42.1309C8.43599 40.7669 7.66915 38.9172 7.66801 36.9881C7.65347 25.3904 11.8129 14.1747 19.3862 5.39102C24.6062 2.4573 30.4753 0.871412 36.4624 0.776855Z" fill="url(#paint5_linear_215_30370)"/>
<path fill-rule="evenodd" clip-rule="evenodd" d="M19.3853 5.39089C24.8977 2.30319 31.1219 0.711106 37.4399 0.772719C43.7579 0.834332 49.9499 2.5475 55.4011 5.74211C60.8522 8.93673 65.373 13.5017 68.5144 18.9837C71.6558 24.4657 73.3086 30.674 73.3087 36.9923C73.3087 56.3499 55.7315 74.2083 29.5919 68.4916L29.5322 68.4411C45.1706 70.1031 56.6974 63.7339 62.9468 54.4271L62.9844 54.3707C66.4432 49.2354 68.2865 43.1827 68.2775 36.9912V36.9869C68.2768 30.1844 66.0521 23.5686 61.9425 18.1477C57.8328 12.7269 52.0636 8.79827 45.514 6.96058C38.9643 5.1229 31.9935 5.47691 25.6637 7.96869C19.334 10.4605 13.9924 14.9533 10.4531 20.7627C12.4578 15.1321 15.4861 9.92059 19.3853 5.39089Z" fill="#94A2C1"/>
<path fill-rule="evenodd" clip-rule="evenodd" d="M37.0928 0.770996C46.6977 0.775554 55.9079 4.59316 62.6996 11.3849C69.4913 18.1767 73.3088 27.387 73.3132 36.992C73.3035 44.7549 70.5024 52.2555 65.4212 58.1244C70.3883 51.4679 72.8525 43.2746 72.3813 34.9824C71.9101 26.6902 68.5335 18.8288 62.8442 12.7779C57.1549 6.72691 49.5162 2.87292 41.2687 1.89223C33.0212 0.911535 24.6918 2.86679 17.7422 7.41488C18.2736 6.72504 18.823 6.05026 19.3903 5.39053C21.6172 4.13959 23.9706 3.12857 26.4109 2.37445L26.4217 2.37176L26.6878 2.2906H26.691L26.9646 2.20943L27.2382 2.13095H27.2468L27.5032 2.05946L27.5306 2.05193L27.7962 1.98044L28.0746 1.90787L28.3369 1.84229L28.3756 1.83262L28.6132 1.77457L28.6455 1.76704L28.9142 1.70307L29.183 1.64233L29.2217 1.63373L29.4501 1.58428L29.5039 1.57299L29.7474 1.51924L29.7684 1.5144L30.0436 1.46065L30.0645 1.45635L30.3059 1.40958L30.3677 1.39829L30.5827 1.35852L30.6397 1.34884L30.9085 1.301L31.1772 1.25639L31.238 1.24671L31.446 1.21285L31.518 1.20156L31.74 1.16769L31.7846 1.16071L32.0534 1.122L32.0996 1.11555L32.32 1.08599L32.398 1.07524L32.5974 1.04997L32.67 1.04084L32.9387 1.00912L33.2075 0.979558L33.2833 0.970957L33.48 0.951607L33.5639 0.943006L33.7746 0.923655L33.8332 0.91828L34.1019 0.895166L34.1616 0.890328L34.3723 0.874202L34.4594 0.867752L34.6534 0.854313L34.7341 0.848938L35.0028 0.832275L35.2716 0.818299L35.3533 0.813999L35.5474 0.805398L35.636 0.801635L35.8451 0.79411L35.9096 0.791422L36.1784 0.783897H36.2429L36.4531 0.779596H36.5429H36.7374H36.8213L37.0928 0.770996Z" fill="#B7BDD2"/>
<defs>
<linearGradient id="paint0_linear_215_30370" x1="-4.21493" y1="-5.0254" x2="-3.5095" y2="-5.0254" gradientUnits="userSpaceOnUse">
<stop stop-color="#4B69B6"/>
<stop offset="1" stop-color="#435EA5"/>
</linearGradient>
<linearGradient id="paint1_linear_215_30370" x1="-4.21493" y1="-5.0254" x2="-3.5095" y2="-5.0254" gradientUnits="userSpaceOnUse">
<stop stop-color="#5773BB"/>
<stop offset="1" stop-color="#3A5290"/>
</linearGradient>
<linearGradient id="paint2_linear_215_30370" x1="-4.22033" y1="-5.02917" x2="-3.52199" y2="-5.02917" gradientUnits="userSpaceOnUse">
<stop stop-color="#22B2E7"/>
<stop offset="1" stop-color="#177A9E"/>
</linearGradient>
<linearGradient id="paint3_linear_215_30370" x1="-4.22521" y1="-5.0169" x2="-3.50919" y2="-5.0169" gradientUnits="userSpaceOnUse">
<stop stop-color="#4B69B6"/>
<stop offset="1" stop-color="#435EA5"/>
</linearGradient>
<linearGradient id="paint4_linear_215_30370" x1="-4.2221" y1="-5.01159" x2="-3.52149" y2="-5.01159" gradientUnits="userSpaceOnUse">
<stop stop-color="#A7B1CD"/>
<stop offset="0.46" stop-color="#C8CBDC"/>
<stop offset="1" stop-color="#D1D2E0"/>
</linearGradient>
<linearGradient id="paint5_linear_215_30370" x1="-4.22415" y1="-5.00674" x2="-3.53308" y2="-5.00674" gradientUnits="userSpaceOnUse">
<stop stop-color="#B7BDD2"/>
<stop offset="1" stop-color="#607BB6"/>
</linearGradient>
</defs>
</svg>
