<svg width="201" height="52" viewBox="0 0 201 52" fill="none" xmlns="http://www.w3.org/2000/svg">
<path fill-rule="evenodd" clip-rule="evenodd" d="M38.6875 7.5C48.9032 7.5 57.1875 15.7843 57.1875 26C57.1875 36.2157 48.9032 44.5 38.6875 44.5C28.4718 44.5 20.1875 36.2157 20.1875 26C20.1875 15.7843 28.4718 7.5 38.6875 7.5Z" fill="#1E1E1E"/>
<path d="M38.9654 33.7329C33.0491 33.7329 28.2539 32.0235 28.2539 29.7332C28.2539 28.5381 29.56 27.4614 31.6505 26.7029C33.2822 27.75 36.0202 28.2865 39.1245 28.2865C42.1548 28.2865 44.8336 27.6316 46.4801 26.6289C48.4522 27.38 49.6769 28.4271 49.6769 29.5815C49.6769 31.8755 44.8817 33.7329 38.9654 33.7329Z" fill="white"/>
<path d="M39.0278 27.7723C34.5434 27.7723 30.9062 26.3663 30.9062 24.631C30.9062 23.669 32.0273 22.8069 33.7848 22.2334C35.0391 22.8883 36.9188 23.3064 39.0278 23.3064C41.1368 23.3064 43.0164 22.8883 44.2707 22.2334C46.0319 22.8106 47.1493 23.669 47.1493 24.631C47.153 26.3663 43.5159 27.7723 39.0278 27.7723Z" fill="white"/>
<path d="M38.9976 22.7845C35.5307 22.7845 32.7188 21.6227 32.7188 20.1945C32.7188 18.7663 35.5307 17.6045 38.9976 17.6045C42.4645 17.6045 45.2765 18.7663 45.2765 20.1945C45.2765 21.6227 42.4645 22.7845 38.9976 22.7845Z" fill="white"/>
<path d="M68.2598 35.5V16.3381H76.6835C78.6391 16.3381 80.1821 16.7777 81.3125 17.6568C82.4607 18.536 83.0349 19.765 83.0349 21.3439C83.0349 22.4204 82.7388 23.3444 82.1468 24.1159C81.5547 24.8874 80.7204 25.4257 79.6439 25.7307V25.5154C80.8819 25.7845 81.8328 26.3317 82.4966 27.157C83.1784 27.9824 83.5193 29.023 83.5193 30.2789C83.5193 31.9116 82.9362 33.1945 81.77 34.1274C80.6217 35.0425 79.0069 35.5 76.9257 35.5H68.2598ZM71.6508 32.7818H76.5758C77.8497 32.7818 78.7737 32.5665 79.3478 32.1359C79.9399 31.6874 80.236 30.9697 80.236 29.9829C80.236 29.014 79.9399 28.2964 79.3478 27.8299C78.7558 27.3634 77.8318 27.1301 76.5758 27.1301H71.6508V32.7818ZM71.6508 24.4119H76.0914C77.3294 24.4119 78.2444 24.1877 78.8365 23.7391C79.4286 23.2906 79.7246 22.6178 79.7246 21.7207C79.7246 20.8056 79.4286 20.1328 78.8365 19.7022C78.2444 19.2716 77.3294 19.0563 76.0914 19.0563H71.6508V24.4119ZM91.8738 35.6884C90.6897 35.6884 89.6401 35.4103 88.725 34.8541C87.81 34.28 87.1013 33.4726 86.5989 32.4319C86.1145 31.3734 85.8723 30.1354 85.8723 28.718C85.8723 27.2826 86.1235 26.0357 86.6258 24.9771C87.1282 23.9006 87.8279 23.0663 88.725 22.4742C89.6401 21.8642 90.6897 21.5592 91.8738 21.5592C93.0221 21.5592 94.0179 21.8463 94.8611 22.4204C95.7224 22.9766 96.3055 23.7571 96.6105 24.7618L96.2875 24.9502V21.9091H99.5978V35.5H96.2875V32.4319L96.6105 32.5396C96.3055 33.5443 95.7224 34.3248 94.8611 34.881C94.0179 35.4193 93.0221 35.6884 91.8738 35.6884ZM92.7889 33.1048C93.9013 33.1048 94.7625 32.719 95.3725 31.9475C95.9825 31.176 96.2875 30.0816 96.2875 28.6642C96.2875 27.2109 95.9825 26.1074 95.3725 25.3539C94.7625 24.5824 93.9013 24.1966 92.7889 24.1966C91.6585 24.1966 90.7794 24.5914 90.1514 25.3808C89.5235 26.1702 89.2095 27.2826 89.2095 28.718C89.2095 30.1174 89.5235 31.2029 90.1514 31.9744C90.7794 32.728 91.6585 33.1048 92.7889 33.1048ZM103.235 35.5V15.6922H106.599V35.5H103.235ZM115.528 35.6884C114.343 35.6884 113.294 35.4103 112.379 34.8541C111.464 34.28 110.755 33.4726 110.253 32.4319C109.768 31.3734 109.526 30.1354 109.526 28.718C109.526 27.2826 109.777 26.0357 110.28 24.9771C110.782 23.9006 111.482 23.0663 112.379 22.4742C113.294 21.8642 114.343 21.5592 115.528 21.5592C116.676 21.5592 117.672 21.8463 118.515 22.4204C119.376 22.9766 119.959 23.7571 120.264 24.7618L119.941 24.9502V21.9091H123.252V35.5H119.941V32.4319L120.264 32.5396C119.959 33.5443 119.376 34.3248 118.515 34.881C117.672 35.4193 116.676 35.6884 115.528 35.6884ZM116.443 33.1048C117.555 33.1048 118.416 32.719 119.026 31.9475C119.636 31.176 119.941 30.0816 119.941 28.6642C119.941 27.2109 119.636 26.1074 119.026 25.3539C118.416 24.5824 117.555 24.1966 116.443 24.1966C115.312 24.1966 114.433 24.5914 113.805 25.3808C113.177 26.1702 112.863 27.2826 112.863 28.718C112.863 30.1174 113.177 31.2029 113.805 31.9744C114.433 32.728 115.312 33.1048 116.443 33.1048ZM126.889 35.5V25.7576C126.889 25.1117 126.871 24.4658 126.835 23.8199C126.817 23.174 126.763 22.537 126.673 21.9091H129.849L130.145 24.6003L129.849 24.6811C130.28 23.6584 130.917 22.8869 131.76 22.3666C132.621 21.8283 133.608 21.5592 134.72 21.5592C137.95 21.5592 139.564 23.4251 139.564 27.157V35.5H136.2V27.2916C136.2 26.233 135.994 25.4615 135.581 24.9771C135.169 24.4747 134.532 24.2236 133.671 24.2236C132.63 24.2236 131.796 24.5555 131.168 25.2193C130.558 25.8652 130.253 26.7264 130.253 27.803V35.5H126.889ZM149.241 35.6884C147.824 35.6884 146.595 35.4103 145.554 34.8541C144.532 34.28 143.742 33.4726 143.186 32.4319C142.648 31.3734 142.379 30.1354 142.379 28.718C142.379 27.2826 142.666 26.0267 143.24 24.9502C143.814 23.8737 144.63 23.0394 145.689 22.4473C146.747 21.8552 147.985 21.5592 149.403 21.5592C150.354 21.5592 151.278 21.7117 152.175 22.0167C153.09 22.3217 153.834 22.7434 154.409 23.2816L153.44 25.6499C152.866 25.1834 152.256 24.8336 151.61 24.6003C150.964 24.3491 150.318 24.2236 149.672 24.2236C148.488 24.2236 147.546 24.6003 146.846 25.3539C146.164 26.1074 145.823 27.2109 145.823 28.6642C145.823 30.0995 146.164 31.194 146.846 31.9475C147.528 32.7011 148.479 33.0779 149.699 33.0779C150.327 33.0779 150.964 32.9612 151.61 32.728C152.256 32.4768 152.866 32.109 153.44 31.6246L154.409 33.9929C153.816 34.5311 153.054 34.9528 152.121 35.2578C151.206 35.5449 150.246 35.6884 149.241 35.6884ZM168.32 33.9929C167.674 34.5311 166.876 34.9528 165.925 35.2578C164.992 35.5449 164.041 35.6884 163.072 35.6884C161.601 35.6884 160.327 35.4103 159.25 34.8541C158.192 34.2979 157.375 33.4905 156.801 32.4319C156.227 31.3734 155.94 30.1174 155.94 28.6642C155.94 27.2647 156.218 26.0357 156.774 24.9771C157.331 23.9006 158.102 23.0663 159.089 22.4742C160.076 21.8642 161.215 21.5592 162.507 21.5592C163.763 21.5592 164.839 21.8373 165.736 22.3935C166.633 22.9317 167.324 23.7122 167.809 24.7349C168.311 25.7576 168.562 26.9687 168.562 28.3681V28.8795H158.9L158.927 27.0763H166.571L165.656 27.9913C165.674 26.6816 165.413 25.6858 164.875 25.004C164.355 24.3222 163.592 23.9813 162.588 23.9813C161.511 23.9813 160.677 24.3671 160.085 25.1386C159.493 25.8921 159.197 26.9776 159.197 28.395C159.197 30.0098 159.528 31.2029 160.192 31.9744C160.856 32.728 161.861 33.1048 163.207 33.1048C163.942 33.1048 164.66 32.9881 165.36 32.7549C166.077 32.5037 166.741 32.1449 167.351 31.6784L168.32 33.9929ZM171.384 35.5V25.7576C171.384 25.1296 171.366 24.4927 171.33 23.8468C171.312 23.1829 171.258 22.537 171.169 21.9091H174.344L174.721 25.4077L174.344 25.2193C174.578 24.0172 175.107 23.1112 175.932 22.5011C176.758 21.8911 177.691 21.5861 178.731 21.5861C179 21.5861 179.251 21.604 179.485 21.6399C179.718 21.6758 179.924 21.7296 180.104 21.8014L180.05 24.8695C179.494 24.6362 178.902 24.5196 178.274 24.5196C177.466 24.5196 176.802 24.6811 176.282 25.004C175.78 25.327 175.394 25.7666 175.125 26.3228C174.874 26.861 174.748 27.471 174.748 28.1528V35.5H171.384Z" fill="black"/>
</svg>
