<svg width="203" height="52" viewBox="0 0 203 52" fill="none" xmlns="http://www.w3.org/2000/svg">
<g clip-path="url(#clip0_805_1007)">
<path d="M70.5746 13.897C68.6751 13.897 66.8445 14.1343 66.0989 14.3349C65.0138 14.6382 64.7432 15.1103 64.5389 16.0888L60.233 35.8426C60.1641 36.2463 60.0977 36.5838 60.0977 36.9214C60.0977 37.8999 60.7423 38.5384 61.793 38.5384C62.947 38.5384 63.4218 37.7972 63.6581 36.6499L64.8785 31.021C65.7249 31.1213 66.8445 31.224 68.4389 31.224C75.4588 31.224 79.8312 27.4494 79.8312 21.752C79.8312 16.7616 76.3372 13.897 70.5746 13.897ZM68.2691 27.9876C67.184 27.9876 66.3351 27.9533 65.5576 27.853L67.8287 17.3683C68.5398 17.268 69.5929 17.131 70.678 17.131C74.4082 17.131 76.3077 18.885 76.3077 21.7838C76.3052 25.4924 73.5913 27.9876 68.2691 27.9876Z" fill="black"/>
<path d="M181.042 32.0312C180.467 32.0312 180.093 32.3688 179.382 33.1443C178.127 34.4262 177.347 35.1331 176.365 35.1331C175.484 35.1331 175.009 34.4262 175.009 33.2788C175.009 32.6379 175.145 31.8624 175.314 31.0209L176.569 25.1547H180.334C181.52 25.1547 182.233 24.4795 182.233 23.2662C182.233 22.591 181.793 22.0871 180.777 22.0871H177.246L177.856 19.357C177.925 18.9534 177.991 18.5815 177.991 18.244C177.991 17.2997 177.347 16.6245 176.296 16.6245C175.176 16.6245 174.67 17.3657 174.431 18.513L173.651 22.0871H172.057C170.836 22.0871 170.125 22.7622 170.125 23.9756C170.125 24.6508 170.6 25.1547 171.616 25.1547H173.006L171.751 30.9524C171.616 31.5933 171.446 32.6379 171.446 33.7167C171.446 36.4468 172.871 38.4356 175.922 38.4356C177.686 38.4356 179.244 37.5598 180.432 36.5128C181.586 35.5025 182.433 34.2549 182.433 33.4452C182.433 32.6722 181.822 32.0312 181.042 32.0312Z" fill="black"/>
<path d="M103.056 15.8856C103.056 14.907 102.377 14.2661 101.327 14.2661C100.207 14.2661 99.7002 15.0073 99.4615 16.1546L95.2245 35.7396C95.1236 36.1433 95.0547 36.4809 95.0547 36.8184C95.0547 37.797 95.7338 38.4354 96.75 38.4354C97.904 38.4354 98.4109 37.6942 98.6495 36.5469L102.887 16.9644C102.955 16.5583 103.056 16.2231 103.056 15.8856Z" fill="black"/>
<path d="M163.577 21.7493C158.151 21.7493 154.456 27.1091 154.456 32.1999C154.456 32.2953 154.458 32.3907 154.461 32.4836C153.609 33.7679 152.522 35.0987 151.776 35.0987C151.235 35.0987 151.031 34.5923 151.031 33.8169C151.031 32.8726 151.301 31.2874 151.606 29.9052L154.421 16.9595C154.49 16.5558 154.557 16.2183 154.557 15.8807C154.557 14.9022 153.912 14.2612 152.861 14.2612C151.707 14.2612 151.235 15.0025 150.996 16.1498L149.471 23.1608C148.656 22.3193 147.468 21.7444 145.672 21.7444C142.069 21.7444 138.445 24.5014 137.033 28.731C135.478 32.7283 134.087 35.0938 132.99 35.0938C132.584 35.0938 132.345 34.7562 132.345 34.1838C132.345 32.4983 133.295 28.3861 133.701 26.3973C133.836 25.656 133.905 25.3527 133.905 24.9148C133.905 23.4324 131.43 21.6784 128.209 21.6784C124.484 21.6784 121.11 24.0244 119.42 27.5079C116.908 31.921 114.602 35.0938 113.461 35.0938C112.951 35.0938 112.782 34.4529 112.646 33.8462L111.802 29.2007L116.989 24.9882C117.464 24.5846 118.074 24.0097 118.074 23.2685C118.074 22.3584 117.464 21.7518 116.549 21.7518C115.869 21.7518 115.294 22.1554 114.718 22.6275L106.92 29.0319L109.531 16.9644C109.6 16.5607 109.701 16.2232 109.701 15.8856C109.701 14.9071 109.022 14.2661 107.971 14.2661C106.852 14.2661 106.345 15.0073 106.106 16.1547L101.869 35.7396C101.768 36.1433 101.699 36.4809 101.699 36.8185C101.699 37.797 102.378 38.4354 103.395 38.4354C104.549 38.4354 105.055 37.6942 105.294 36.5469L105.838 34.0199L109.024 31.4586L109.804 35.3678C110.109 36.9187 110.924 38.4354 113.025 38.4354C115.117 38.4354 116.763 36.5371 118.411 33.971C118.911 36.6594 120.835 38.4354 123.505 38.4354C126.184 38.4354 128.015 36.8503 129.201 34.7269V34.7954C129.201 36.9872 130.32 38.4354 132.286 38.4354C134.065 38.4354 135.542 37.3689 136.86 35.1036C137.608 37.0778 139.282 38.4354 141.609 38.4354C144.355 38.4354 146.321 36.7842 147.576 34.492V34.6951C147.576 37.1218 148.796 38.4379 150.797 38.4379C152.564 38.4379 154.064 37.4178 155.346 35.7592C156.321 37.4178 158.068 38.4379 160.427 38.4379C165.853 38.4379 169.549 33.0781 169.549 27.9531C169.546 24.3448 167.342 21.7493 163.577 21.7493ZM129.774 28.594C128.79 32.8065 126.688 35.2015 124.314 35.2015C122.72 35.2015 121.839 33.9881 121.839 32.1681C121.839 28.594 124.449 24.7509 127.941 24.7509C128.992 24.7509 129.806 25.0543 130.517 25.4921L129.774 28.594ZM148.659 26.8082C147.574 31.7644 145.098 35.2015 142.387 35.2015C140.896 35.2015 140.012 34.0541 140.012 32.1681C140.012 28.5622 142.522 24.8194 145.878 24.8194C147.168 24.8194 148.149 25.2573 148.863 25.8297L148.659 26.8082ZM160.831 35.2015C158.865 35.2015 158.051 33.7851 158.051 31.9993C158.051 28.7286 160.322 24.9882 163.171 24.9882C165.137 24.9882 165.951 26.4046 165.951 28.1904C165.951 31.4929 163.68 35.2015 160.831 35.2015Z" fill="black"/>
<path d="M88.2736 21.7495C82.8481 21.7495 79.1523 27.1093 79.1523 32.2001C79.1523 35.8401 81.357 38.4356 85.1192 38.4356C90.5447 38.4356 94.2404 33.0758 94.2404 27.9509C94.2404 24.345 92.0357 21.7495 88.2736 21.7495ZM85.5276 35.2017C83.5616 35.2017 82.7472 33.7852 82.7472 31.9995C82.7472 28.7288 85.0183 24.9884 87.8676 24.9884C89.8336 24.9884 90.648 26.4048 90.648 28.1906C90.6455 31.4931 88.3745 35.2017 85.5276 35.2017Z" fill="black"/>
<path d="M36.4993 15.9861C39.9551 15.9861 42.7565 14.3663 42.7565 12.3681C42.7565 10.3699 39.9551 8.75 36.4993 8.75C33.0436 8.75 30.2422 10.3699 30.2422 12.3681C30.2422 14.3663 33.0436 15.9861 36.4993 15.9861Z" fill="#E6007A"/>
<path d="M36.4993 43.2473C39.9551 43.2473 42.7565 41.6275 42.7565 39.6293C42.7565 37.6311 39.9551 36.0112 36.4993 36.0112C33.0436 36.0112 30.2422 37.6311 30.2422 39.6293C30.2422 41.6275 33.0436 43.2473 36.4993 43.2473Z" fill="#E6007A"/>
<path d="M27.7796 20.9944C29.5075 18.0191 29.4962 14.7966 27.7545 13.7969C26.0128 12.7971 23.2002 14.3986 21.4723 17.3739C19.7445 20.3493 19.7557 23.5717 21.4974 24.5715C23.2391 25.5713 26.0517 23.9698 27.7796 20.9944Z" fill="#E6007A"/>
<path d="M51.5253 34.6238C53.2532 31.6485 53.2429 28.4266 51.5024 27.4275C49.7619 26.4284 46.9502 28.0304 45.2223 31.0058C43.4945 33.9811 43.5047 37.203 45.2452 38.2021C46.9858 39.2012 49.7975 37.5991 51.5253 34.6238Z" fill="#E6007A"/>
<path d="M27.7545 38.2012C29.4962 37.2014 29.5075 33.9789 27.7796 31.0036C26.0517 28.0283 23.2391 26.4268 21.4974 27.4266C19.7557 28.4263 19.7445 31.6488 21.4723 34.6241C23.2002 37.5995 26.0128 39.201 27.7545 38.2012Z" fill="#E6007A"/>
<path d="M51.5063 24.572C53.2468 23.5729 53.2571 20.351 51.5292 17.3757C49.8014 14.4004 46.9897 12.7983 45.2492 13.7974C43.5086 14.7965 43.4984 18.0184 45.2262 20.9938C46.9541 23.9691 49.7658 25.5711 51.5063 24.572Z" fill="#E6007A"/>
</g>
<defs>
<clipPath id="clip0_805_1007">
<rect width="162.243" height="34.5" fill="white" transform="translate(20.1875 8.75)"/>
</clipPath>
</defs>
</svg>
