<svg width="182" height="52" viewBox="0 0 182 52" fill="none" xmlns="http://www.w3.org/2000/svg">
<g clip-path="url(#clip0_805_1238)">
<path d="M70.4833 44.2563L45.4147 7.74316L20.2695 44.2563H55.3026L45.4147 30.3211L40.5099 37.5617H35.2971L45.4181 23.0037L60.0493 44.2581L70.4833 44.2563Z" fill="url(#paint0_linear_805_1238)"/>
<path d="M91.4885 25.7545C91.2027 25.7545 91.0802 25.877 91.0802 26.1628V28.6127C91.0802 28.8985 91.2027 29.021 91.4885 29.021H99.6139V33.3151C98.7287 34.672 97.498 35.7687 96.0484 36.4923C94.5988 37.216 92.9826 37.5404 91.366 37.4322C85.2822 37.4322 81.5257 33.5192 81.5257 25.9995C81.5257 18.5274 85.9355 14.5668 90.9577 14.5668C94.8707 14.5668 98.0623 16.1184 99.0831 19.8748C99.1002 19.9913 99.1596 20.0973 99.25 20.1726C99.3404 20.248 99.4555 20.2873 99.5731 20.2831H102.179C102.465 20.2831 102.629 20.1606 102.629 19.8748C101.526 14.1585 96.6264 11.3003 90.9509 11.3003C84.5813 11.3003 77.9258 16.2 77.9258 25.9995C77.9258 35.6765 84.2206 40.6987 91.5225 40.6987C93.7246 40.7657 95.9063 40.2589 97.8534 39.2281C99.8005 38.1972 101.446 36.6778 102.629 34.819C102.921 34.356 103.063 33.8143 103.037 33.2674V26.1696C103.037 25.8838 102.914 25.7613 102.629 25.7613L91.4885 25.7545ZM133.871 12.1169C133.871 11.8311 133.749 11.7086 133.463 11.7086H129.584C129.445 11.6947 129.306 11.7273 129.188 11.8012C129.069 11.875 128.979 11.9861 128.931 12.1169L121.009 30.2868L113.088 12.1169C113.04 11.9861 112.95 11.875 112.831 11.8012C112.713 11.7273 112.574 11.6947 112.435 11.7086H108.556C108.27 11.7086 108.148 11.8311 108.148 12.1169V39.8821C108.148 40.1679 108.27 40.2904 108.556 40.2904H111.169C111.455 40.2904 111.577 40.1679 111.577 39.8821V17.0575L119.574 35.1457C119.614 35.2539 119.686 35.3473 119.781 35.413C119.876 35.4788 119.989 35.5137 120.104 35.5131H121.914C122.03 35.5137 122.143 35.4788 122.238 35.413C122.333 35.3473 122.405 35.2539 122.445 35.1457L130.441 17.0575V39.8821C130.441 40.1679 130.564 40.2904 130.85 40.2904H133.463C133.749 40.2904 133.871 40.1679 133.871 39.8821V12.1169ZM142.772 12.1169C142.487 11.7494 142.487 11.7086 142.201 11.7086H139.057C138.771 11.7086 138.648 11.9128 138.771 12.1169L147.427 25.2169L137.709 39.8821C137.587 40.0862 137.709 40.2904 137.995 40.2904H141.057C141.343 40.2904 141.425 40.2495 141.711 39.8821L149.475 28.2112L157.227 39.8821C157.512 40.2495 157.594 40.2904 157.88 40.2904H160.942C161.228 40.2904 161.351 40.0862 161.228 39.8821L151.517 25.2237L160.173 12.1237C160.296 11.9196 160.173 11.7154 159.887 11.7154H156.737C156.451 11.7154 156.451 11.7562 156.165 12.1237L149.475 22.2022L142.772 12.1169Z" fill="black"/>
</g>
<defs>
<linearGradient id="paint0_linear_805_1238" x1="47.1841" y1="8.69255" x2="31.5894" y2="48.4786" gradientUnits="userSpaceOnUse">
<stop stop-color="#03D1CF" stop-opacity="0.988"/>
<stop offset="1" stop-color="#4E09F8"/>
</linearGradient>
<clipPath id="clip0_805_1238">
<rect width="141" height="36.5132" fill="white" transform="translate(20.2695 7.74316)"/>
</clipPath>
</defs>
</svg>
