<svg width="187" height="52" viewBox="0 0 187 52" fill="none" xmlns="http://www.w3.org/2000/svg">
<g clip-path="url(#clip0_805_1396)">
<path d="M129.972 35.8356C134.785 35.8356 138.687 31.9339 138.687 27.1209C138.687 22.3079 134.785 18.4062 129.972 18.4062C125.16 18.4062 121.258 22.3079 121.258 27.1209C121.258 31.9339 125.16 35.8356 129.972 35.8356Z" fill="url(#paint0_linear_805_1396)"/>
<path fill-rule="evenodd" clip-rule="evenodd" d="M129.972 18.4062C134.782 18.4062 138.687 22.3112 138.687 27.1209C138.687 31.9307 134.782 35.8356 129.972 35.8356C125.163 35.8356 121.258 31.9307 121.258 27.1209C121.258 22.3112 125.163 18.4062 129.972 18.4062ZM129.972 18.9508C134.482 18.9508 138.143 22.6118 138.143 27.1209C138.143 31.6301 134.482 35.2907 129.972 35.2907C125.463 35.2907 121.803 31.6301 121.803 27.1209C121.803 22.6118 125.463 18.9508 129.972 18.9508Z" fill="url(#paint1_linear_805_1396)"/>
<path d="M129.973 33.657C133.583 33.657 136.509 30.7309 136.509 27.1212C136.509 23.5116 133.583 20.5854 129.973 20.5854C126.364 20.5854 123.438 23.5116 123.438 27.1212C123.438 30.7309 126.364 33.657 129.973 33.657Z" fill="#4DCAED"/>
<path d="M129.976 33.1125C133.285 33.1125 135.967 30.4301 135.967 27.1212C135.967 23.8123 133.285 21.1299 129.976 21.1299C126.667 21.1299 123.984 23.8123 123.984 27.1212C123.984 30.4301 126.667 33.1125 129.976 33.1125Z" fill="url(#paint2_linear_805_1396)"/>
<path d="M129.978 31.6151C132.46 31.6151 134.472 29.6032 134.472 27.1215C134.472 24.6398 132.46 22.6279 129.978 22.6279C127.496 22.6279 125.484 24.6398 125.484 27.1215C125.484 29.6032 127.496 31.6151 129.978 31.6151Z" fill="#B7BDD2"/>
<path fill-rule="evenodd" clip-rule="evenodd" d="M140.404 11.1777C140.648 11.3274 140.866 11.4887 141.051 11.6604C143.361 13.8043 144.503 15.9087 145.143 18.835C145.709 21.4204 145.981 22.6725 144.622 23.6153C142.788 24.8881 146.581 30.3267 147.321 31.9005C146.344 33.1547 145.069 33.1275 144.395 33.4752C144.021 33.6677 144.175 34.3809 144.236 34.9301C144.295 35.4677 144.79 35.8059 144.519 36.2224C144.275 36.5956 143.355 36.6225 142.956 36.8794C143.34 37.3028 144.195 37.7275 144.083 38.278C143.996 38.7032 143.037 38.6283 142.668 39.5963C142.47 40.1148 142.572 41.0767 142.163 41.5624C141.543 42.2967 140.905 42.6332 139.988 42.7175C139.498 42.7699 139.002 42.7184 138.532 42.5657C137.008 42.0645 135.591 41.3435 134.312 40.4452C134.836 40.533 135.406 40.6152 136.006 40.6818C137.746 40.8751 138.621 40.7082 139.457 39.7169C139.816 39.2901 139.726 38.4445 139.901 37.9883C140.226 37.1376 141.069 37.2033 141.145 36.8292C141.244 36.3452 140.492 35.972 140.154 35.5992C140.505 35.3739 141.315 35.3501 141.529 35.0218C141.767 34.6555 141.332 34.3584 141.28 33.8852C141.227 33.4026 141.09 32.7754 141.419 32.6063C142.012 32.3006 143.133 32.3248 143.993 31.2219C143.342 29.838 140.006 25.0559 141.619 23.9366C142.814 23.108 142.575 22.0069 142.077 19.7337C141.514 17.1608 140.51 15.3102 138.479 13.425C138.041 13.0184 137.391 12.6785 136.667 12.4289C137.846 11.8667 139.1 11.4433 140.404 11.1777Z" fill="url(#paint3_linear_805_1396)"/>
<path fill-rule="evenodd" clip-rule="evenodd" d="M144.086 10.8594C144.431 10.8689 144.777 10.8892 145.125 10.9208C154.067 11.733 160.668 19.6528 159.856 28.595C159.107 36.8434 152.311 43.0998 144.242 43.3835C144.358 43.2927 144.468 43.1945 144.572 43.0873C145.262 42.3776 145.393 41.5238 145.513 40.6524C145.575 40.2108 145.908 40.1775 146.191 40.014C147.422 39.3038 146.9 37.6643 146.9 37.6643C147.259 37.3896 147.516 36.9874 147.594 36.5463C147.704 35.9239 147.282 35.3902 147.194 34.6753C147.365 34.6269 147.536 34.5776 147.705 34.5222C149.089 34.0686 150.985 32.9679 150.268 31.4801C149.472 29.8284 148.367 28.268 147.642 26.5519C147.359 25.8815 147.036 25.2047 147.145 24.5858C148.494 23.6148 148.775 22.038 148.58 20.6112C148.068 16.8364 146.628 13.4193 144.086 10.8594Z" fill="#D1D1E0"/>
<path fill-rule="evenodd" clip-rule="evenodd" d="M147.836 13.2573C150.026 14.0782 152.033 15.3285 153.65 16.9997C156.731 20.1845 158.564 24.8139 157.676 29.1293C156.834 33.2146 153.288 36.6187 150.938 37.6671C149.813 38.1692 148.901 38.0957 148.907 37.959C148.913 37.8224 149.056 37.5356 149.761 36.6866C152.281 33.6471 153.765 29.208 151.55 25.7416C151.101 25.0384 150.551 24.4441 149.929 23.9372C150.428 22.9983 150.513 21.8933 150.373 20.8596C149.998 18.0973 149.171 15.5097 147.836 13.2573Z" fill="url(#paint4_linear_805_1396)"/>
<path fill-rule="evenodd" clip-rule="evenodd" d="M143.271 4.75342C135.355 9.07227 129.978 17.4738 129.978 27.121C129.978 28.6485 130.113 30.1449 130.371 31.5972C130.242 31.6085 130.111 31.6145 129.978 31.6145C127.498 31.6145 125.484 29.6009 125.484 27.121C125.484 19.6683 128.212 12.8479 132.723 7.60353C135.852 5.84546 139.445 4.81829 143.271 4.75342Z" fill="url(#paint5_linear_805_1396)"/>
<path fill-rule="evenodd" clip-rule="evenodd" d="M132.716 7.60357C135.951 5.78625 139.681 4.75 143.651 4.75C155.999 4.75 166.024 14.7751 166.024 27.1236C166.024 39.0807 155.165 50.1118 139.02 46.5814L138.984 46.5502C148.643 47.577 155.763 43.6426 159.624 37.8939L159.647 37.8589C161.712 34.7912 162.917 31.0969 162.917 27.1236V27.121C162.915 16.4887 154.283 7.85745 143.651 7.85745C136.689 7.85745 130.584 11.5583 127.199 17.0985C128.448 13.5858 130.333 10.3741 132.716 7.60357Z" fill="#94A2C1"/>
<path fill-rule="evenodd" clip-rule="evenodd" d="M143.652 4.75C156 4.75 166.026 14.7751 166.026 27.1236C166.026 31.916 164.281 36.5597 161.151 40.177C163.873 36.5346 165.486 32.0159 165.486 27.1236C165.486 15.0731 155.702 5.28975 143.652 5.28975C139.241 5.28975 135.133 6.60106 131.699 8.8539C132.027 8.4279 132.367 8.01098 132.717 7.60357C134.081 6.83763 135.533 6.21009 137.054 5.7404L137.06 5.73867L137.225 5.6885L137.227 5.68807L137.396 5.6379L137.565 5.58946L137.57 5.58817L137.729 5.54405L137.745 5.5393L137.909 5.49518C137.966 5.48048 138.024 5.46534 138.081 5.4502L138.244 5.40955L138.267 5.40349L138.414 5.3676L138.434 5.36284L138.601 5.32348L138.767 5.28586L138.791 5.28067L138.932 5.24996L138.965 5.24304L139.115 5.21147L139.128 5.20844L139.298 5.17427L139.311 5.17168L139.46 5.1427L139.498 5.13578L139.631 5.11113L139.666 5.10507L139.831 5.07567L139.996 5.04799L140.034 5.04193L140.162 5.02117L140.207 5.01425L140.344 4.99349L140.372 4.98917L140.538 4.96538L140.567 4.96149L140.703 4.94332L140.751 4.93684L140.874 4.92127L140.919 4.91564L141.084 4.89618L141.249 4.87802L141.296 4.87283L141.418 4.86072L141.47 4.85553L141.6 4.84342L141.636 4.83996L141.802 4.82569L141.839 4.82266L141.969 4.81271L142.022 4.80882L142.142 4.8006L142.192 4.79714L142.358 4.78676L142.525 4.77811L142.576 4.77552L142.696 4.77033L142.751 4.76816L142.88 4.76341L142.92 4.76168L143.087 4.75692L143.126 4.75605L143.256 4.75346L143.312 4.7526L143.432 4.7513L143.484 4.75086L143.652 4.75Z" fill="#B7BDD2"/>
<path fill-rule="evenodd" clip-rule="evenodd" d="M22.9138 18.6194H24.9289V21.1461H23.9534C23.5243 21.1614 23.2473 21.2352 23.1224 21.3688C22.9975 21.5013 22.928 21.7892 22.9138 22.2324V35.9381H22.9127C22.0991 35.9381 21.2388 35.8132 20.7152 35.2809C20.1916 34.7475 20.0352 33.6938 20.0352 33.1116V13.7485H22.9138V18.6194Z" fill="#4B69B6"/>
<path d="M29.6767 28.2974V32.2533C29.6767 32.7863 29.7608 33.1511 29.9011 33.2914C30.0414 33.4597 30.35 33.5439 30.8831 33.5439C31.3881 33.5439 31.7247 33.4597 31.865 33.2914C32.0053 33.1511 32.0895 32.7863 32.0895 32.2533V29.9808H34.6706V32.4216C34.6706 33.2072 34.6145 33.8244 34.5303 34.3014C34.4181 34.7783 34.2217 35.143 33.9411 35.3955C33.6606 35.648 33.2678 35.7883 32.7908 35.8725C32.2858 35.9567 31.6406 35.9847 30.855 35.9847C30.0414 35.9847 29.3681 35.9567 28.835 35.8725C28.3019 35.7883 27.9092 35.62 27.6286 35.3675C27.32 35.115 27.1236 34.7783 27.0394 34.3014C26.9272 33.8244 26.8711 33.2072 26.8711 32.4216V22.1813C26.8711 21.3957 26.9272 20.7785 27.0394 20.3015C27.1236 19.8246 27.32 19.4598 27.6286 19.2073C27.9092 18.9829 28.3019 18.8146 28.835 18.7304C29.3681 18.6462 30.0414 18.6182 30.855 18.6182C31.6406 18.6182 32.2858 18.6462 32.7908 18.7304C33.2678 18.8146 33.6606 18.9548 33.9411 19.2073C34.2217 19.4598 34.4181 19.7965 34.5303 20.2735C34.6145 20.7504 34.6706 21.3957 34.6706 22.1813V28.2974H29.6767ZM29.6767 25.9968H32.0895V22.4057C32.0895 21.8726 32.0053 21.5079 31.865 21.3676C31.7247 21.2274 31.3881 21.1432 30.8831 21.1432C30.35 21.1432 30.0414 21.2274 29.9011 21.3676C29.7608 21.5079 29.6767 21.8726 29.6767 22.4057V25.9968Z" fill="#4B69B6"/>
<path d="M40.4757 35.9847C39.6902 35.9847 39.0449 35.9567 38.5679 35.9005C38.0629 35.8164 37.6702 35.6761 37.3896 35.4517C37.109 35.2272 36.9127 34.8905 36.8285 34.4697C36.7163 34.0489 36.6602 33.4597 36.6602 32.7302V28.6621C36.6602 27.6521 36.8565 26.9227 37.2493 26.4457C37.6141 25.9688 38.2874 25.7443 39.2132 25.7443H39.7463C40.3916 25.7443 40.8405 25.7724 41.093 25.8005C41.3455 25.8566 41.5419 25.9127 41.6821 25.9968V22.5179C41.6821 21.9288 41.598 21.536 41.4577 21.3396C41.3174 21.1432 40.9807 21.059 40.5038 21.059C39.9707 21.059 39.6341 21.1432 39.4938 21.3396C39.3535 21.536 39.2693 21.9288 39.2693 22.5179V24.1732H36.6602V22.1813C36.6602 21.3957 36.7163 20.7504 36.8285 20.2735C36.9127 19.7965 37.109 19.4598 37.3896 19.2073C37.6702 18.9548 38.0629 18.8146 38.5399 18.7304C39.0168 18.6462 39.6621 18.6182 40.4477 18.6182C41.2613 18.6182 41.9346 18.6462 42.4677 18.7304C43.0007 18.8146 43.3935 18.9829 43.7021 19.2073C43.9827 19.4598 44.1791 19.8246 44.2913 20.3015C44.4035 20.7785 44.4596 21.3957 44.4596 22.1813V35.7042C44.123 35.7883 43.618 35.8725 42.9166 35.9286C42.2152 35.9567 41.4016 35.9847 40.4757 35.9847ZM40.6441 33.628C41.1771 33.628 41.5419 33.6 41.6821 33.5719V28.073C41.5419 27.9888 41.4016 27.9607 41.2052 27.9327C41.0088 27.9046 40.8124 27.9046 40.616 27.9046C40.3074 27.9046 40.0549 27.9327 39.8866 27.9607C39.6902 27.9888 39.5499 28.073 39.4657 28.1852C39.3816 28.2974 39.3254 28.4377 39.2974 28.6341C39.2693 28.8305 39.2693 29.083 39.2693 29.3916V32.0288C39.2693 32.3936 39.2693 32.6741 39.2974 32.8705C39.3254 33.0669 39.3816 33.2352 39.4657 33.3475C39.5499 33.4597 39.6902 33.5439 39.8866 33.5719C40.083 33.6 40.3355 33.628 40.6441 33.628Z" fill="#4B69B6"/>
<path d="M49.6507 35.7045H46.7891V18.8991H49.4544V20.0213C49.6507 19.6005 49.9874 19.2918 50.4082 19.0674C50.8291 18.871 51.4183 18.7588 52.1758 18.7588C52.8772 18.7588 53.4383 18.871 53.8591 19.0674C54.2799 19.2638 54.5886 19.6285 54.7849 20.1335C55.0655 19.6005 55.4302 19.2357 55.8791 19.0393C56.328 18.871 56.8891 18.7588 57.5905 18.7588C58.1236 18.7588 58.5725 18.8149 58.9652 18.9271C59.33 19.0393 59.6105 19.2357 59.835 19.4882C60.0594 19.7688 60.2277 20.1335 60.3119 20.5544C60.3961 21.0033 60.4522 21.5363 60.4522 22.1816V35.7045H57.5905V22.4902C57.5905 22.0694 57.5063 21.7608 57.3661 21.5924C57.1977 21.4241 56.8891 21.3399 56.4683 21.3399C56.0194 21.3399 55.7108 21.4241 55.5424 21.5644C55.3461 21.7046 55.2058 21.9291 55.0655 22.1816V35.7045H52.2038V22.4902C52.2038 22.0694 52.1196 21.7608 51.9794 21.5924C51.811 21.4241 51.5024 21.3399 51.0816 21.3399C50.6046 21.3399 50.296 21.4241 50.0996 21.5644C49.9032 21.7327 49.763 21.9572 49.6507 22.2097V35.7045Z" fill="#4B69B6"/>
<path d="M67.8011 23.7524V22.4899C67.8011 22.0129 67.745 21.6762 67.6047 21.5079C67.4644 21.3676 67.0997 21.2835 66.5667 21.2835C66.0336 21.2835 65.6969 21.3676 65.5566 21.5079C65.4164 21.6762 65.3603 22.0129 65.3603 22.4899V23.8365C65.3603 24.089 65.3883 24.3135 65.4164 24.4538C65.4444 24.5941 65.5286 24.7343 65.6128 24.8466C65.6969 24.9868 65.8372 25.0991 66.0336 25.1832C66.23 25.2954 66.4825 25.4077 66.7911 25.5479C66.8472 25.576 66.9594 25.6321 67.1558 25.7163L68.3903 26.2774C68.5867 26.3616 68.755 26.4457 68.8953 26.5299C69.26 26.7263 69.5686 26.9227 69.7931 27.1191C70.0175 27.3155 70.1858 27.5119 70.2981 27.7082C70.4103 27.9327 70.4945 28.1571 70.5225 28.4096C70.5506 28.6621 70.5786 28.9708 70.5786 29.2794V32.3936C70.5786 33.1791 70.5225 33.7964 70.4383 34.2733C70.3261 34.7503 70.1297 35.115 69.8492 35.3675C69.5406 35.62 69.1478 35.7883 68.6428 35.8725C68.1097 35.9567 67.4364 35.9847 66.5947 35.9847C65.7811 35.9847 65.1078 35.9567 64.5747 35.8725C64.0416 35.7883 63.6489 35.62 63.3402 35.3675C63.0316 35.115 62.8352 34.7503 62.723 34.2733C62.6108 33.7964 62.5547 33.1791 62.5547 32.3936V29.8124H65.3603V32.085C65.3603 32.59 65.4444 32.9266 65.5847 33.0669C65.725 33.2352 66.0617 33.3194 66.5947 33.3194C67.1278 33.3194 67.4644 33.2352 67.6047 33.0669C67.745 32.8986 67.8011 32.5619 67.8011 32.085V30.0369C67.8011 29.8124 67.8011 29.616 67.773 29.4758C67.745 29.3355 67.6889 29.1952 67.6047 29.083C67.5205 28.9708 67.3803 28.8585 67.24 28.7463C67.0997 28.6621 66.8753 28.5499 66.6228 28.4377C66.3983 28.3255 66.2019 28.2413 66.0055 28.1571C65.8091 28.073 65.6408 28.0169 65.4725 27.9327C65.2761 27.8766 65.1078 27.7924 64.9114 27.7082C64.715 27.6241 64.5186 27.5399 64.2941 27.3996C63.9294 27.2032 63.6489 27.0349 63.4244 26.8385C63.2 26.6421 63.0316 26.4457 62.8914 26.1932C62.7511 25.9688 62.6669 25.6882 62.6389 25.3796C62.5827 25.071 62.5547 24.7063 62.5547 24.2574V22.2093C62.5547 21.4237 62.6108 20.7785 62.723 20.3015C62.8352 19.8246 63.0316 19.4598 63.3402 19.2073C63.6208 18.9829 64.0136 18.8146 64.5466 18.7304C65.0797 18.6462 65.753 18.6182 66.5947 18.6182C67.4083 18.6182 68.0817 18.6462 68.6147 18.7304C69.1478 18.8146 69.5406 18.9829 69.8492 19.2073C70.1297 19.4598 70.3261 19.8246 70.4383 20.3015C70.5225 20.7785 70.5786 21.4237 70.5786 22.2093V23.7524H67.8011Z" fill="#D1D1E0"/>
<path d="M80.7896 32.422C80.7896 33.0673 80.7615 33.6284 80.6773 34.0492C80.5932 34.4981 80.4809 34.8628 80.2846 35.1153C80.0882 35.3678 79.8076 35.5642 79.4709 35.6764C79.1343 35.7887 78.7134 35.8448 78.1804 35.8448C77.5632 35.8448 77.0581 35.7606 76.6373 35.5923C76.2165 35.4239 75.8798 35.1153 75.6273 34.6945V39.997H72.7656V18.8991H75.4309V20.1335C75.6834 19.6005 76.0481 19.2357 76.497 19.0393C76.9179 18.843 77.4509 18.7588 78.0962 18.7588C78.6293 18.7588 79.0782 18.8149 79.4429 18.9271C79.8076 19.0393 80.0882 19.2357 80.2846 19.4882C80.4809 19.7688 80.5932 20.1335 80.6773 20.5544C80.7615 21.0033 80.7896 21.5363 80.7896 22.1816V32.422ZM75.5431 32.422C75.6834 32.7306 75.8798 32.955 76.0762 33.0953C76.2726 33.2356 76.5531 33.2917 76.9179 33.2917C77.3387 33.2917 77.6473 33.1795 77.7876 32.9831C77.9279 32.8147 78.012 32.422 78.012 31.8889V22.7427C78.012 22.2097 77.9279 21.8169 77.7876 21.6205C77.6473 21.4241 77.3387 21.3399 76.9179 21.3399C76.5531 21.3399 76.2726 21.396 76.0762 21.5363C75.8798 21.6766 75.6834 21.901 75.5431 22.2097V32.422Z" fill="#D1D1E0"/>
<path d="M85.6181 28.2974V32.2533C85.6181 32.7863 85.7022 33.1511 85.8425 33.2914C85.9828 33.4597 86.2914 33.5439 86.8245 33.5439C87.3295 33.5439 87.6661 33.4597 87.8064 33.2914C87.9467 33.1511 88.0309 32.7863 88.0309 32.2533V29.9808H90.612V32.4216C90.612 33.2072 90.5559 33.8244 90.4717 34.3014C90.3595 34.7783 90.1631 35.143 89.8825 35.3955C89.602 35.648 89.2092 35.7883 88.7323 35.8725C88.2273 35.9567 87.582 35.9847 86.7964 35.9847C85.9828 35.9847 85.3095 35.9567 84.7764 35.8725C84.2433 35.7883 83.8506 35.62 83.57 35.3675C83.2614 35.115 83.065 34.7783 82.9808 34.3014C82.8686 33.8244 82.8125 33.2072 82.8125 32.4216V22.1813C82.8125 21.3957 82.8686 20.7785 82.9808 20.3015C83.065 19.8246 83.2614 19.4598 83.57 19.2073C83.8506 18.9829 84.2433 18.8146 84.7764 18.7304C85.3095 18.6462 85.9828 18.6182 86.7964 18.6182C87.582 18.6182 88.2273 18.6462 88.7323 18.7304C89.2092 18.8146 89.602 18.9548 89.8825 19.2073C90.1631 19.4598 90.3595 19.7965 90.4717 20.2735C90.5559 20.7504 90.612 21.3957 90.612 22.1813V28.2974H85.6181ZM85.6181 25.9968H88.0309V22.4057C88.0309 21.8726 87.9467 21.5079 87.8064 21.3676C87.6661 21.2274 87.3295 21.1432 86.8245 21.1432C86.2914 21.1432 85.9828 21.2274 85.8425 21.3676C85.7022 21.5079 85.6181 21.8726 85.6181 22.4057V25.9968Z" fill="#D1D1E0"/>
<path d="M96.421 35.9847C95.6355 35.9847 94.9902 35.9567 94.5133 35.9005C94.0083 35.8164 93.6155 35.6761 93.3349 35.4517C93.0544 35.2272 92.858 34.8905 92.7738 34.4697C92.6616 34.0489 92.6055 33.4597 92.6055 32.7302V28.6621C92.6055 27.6521 92.8019 26.9227 93.1946 26.4457C93.5594 25.9688 94.2327 25.7443 95.1585 25.7443H95.6916C96.3369 25.7443 96.7858 25.7724 97.0383 25.8005C97.2908 25.8566 97.4872 25.9127 97.6274 25.9968V22.5179C97.6274 21.9288 97.5433 21.536 97.403 21.3396C97.2627 21.1432 96.926 21.059 96.4491 21.059C95.916 21.059 95.5794 21.1432 95.4391 21.3396C95.2988 21.536 95.2146 21.9288 95.2146 22.5179V24.1732H92.6055V22.1813C92.6055 21.3957 92.6616 20.7504 92.7738 20.2735C92.858 19.7965 93.0544 19.4598 93.3349 19.2073C93.6155 18.9548 94.0083 18.8146 94.4852 18.7304C94.9621 18.6462 95.6074 18.6182 96.393 18.6182C97.2066 18.6182 97.8799 18.6462 98.413 18.7304C98.9461 18.8146 99.3388 18.9829 99.6475 19.2073C99.928 19.4598 100.124 19.8246 100.237 20.3015C100.349 20.7785 100.405 21.3957 100.405 22.1813V35.7042C100.068 35.7883 99.5633 35.8725 98.8619 35.9286C98.1605 35.9567 97.3469 35.9847 96.421 35.9847ZM96.5894 33.628C97.1224 33.628 97.4872 33.6 97.6274 33.5719V28.073C97.4872 27.9888 97.3469 27.9607 97.1505 27.9327C96.9541 27.9046 96.7577 27.9046 96.5613 27.9046C96.2527 27.9046 96.0002 27.9327 95.8319 27.9607C95.6355 27.9888 95.4952 28.073 95.411 28.1852C95.3269 28.2974 95.2708 28.4377 95.2427 28.6341C95.2146 28.8305 95.2146 29.083 95.2146 29.3916V32.0288C95.2146 32.3936 95.2146 32.6741 95.2427 32.8705C95.2708 33.0669 95.3269 33.2352 95.411 33.3475C95.4952 33.4597 95.6355 33.5439 95.8319 33.5719C96.0283 33.6 96.2808 33.628 96.5894 33.628Z" fill="#D1D1E0"/>
<path d="M108.314 35.7041L105.676 27.0629H105.564V35.7041H102.73V13.54H105.564V25.099H105.676L108.033 18.8987H111.147L108.089 25.9127L111.512 35.7041H108.314Z" fill="#D1D1E0"/>
</g>
<defs>
<linearGradient id="paint0_linear_805_1396" x1="129.973" y1="35.8355" x2="129.973" y2="18.4061" gradientUnits="userSpaceOnUse">
<stop stop-color="#4B69B6"/>
<stop offset="1" stop-color="#435EA5"/>
</linearGradient>
<linearGradient id="paint1_linear_805_1396" x1="129.973" y1="35.8355" x2="129.973" y2="18.4061" gradientUnits="userSpaceOnUse">
<stop stop-color="#5773BB"/>
<stop offset="1" stop-color="#3A5290"/>
</linearGradient>
<linearGradient id="paint2_linear_805_1396" x1="129.976" y1="33.1124" x2="129.976" y2="21.1297" gradientUnits="userSpaceOnUse">
<stop stop-color="#22B2E7"/>
<stop offset="1" stop-color="#177A9E"/>
</linearGradient>
<linearGradient id="paint3_linear_805_1396" x1="141.48" y1="42.2037" x2="141.48" y2="10.8529" gradientUnits="userSpaceOnUse">
<stop stop-color="#4B69B6"/>
<stop offset="1" stop-color="#435EA5"/>
</linearGradient>
<linearGradient id="paint4_linear_805_1396" x1="150.426" y1="38.0599" x2="150.426" y2="14.4847" gradientUnits="userSpaceOnUse">
<stop stop-color="#A7B1CD"/>
<stop offset="0.46" stop-color="#C8CBDC"/>
<stop offset="1" stop-color="#D1D2E0"/>
</linearGradient>
<linearGradient id="paint5_linear_805_1396" x1="130.371" y1="31.5973" x2="138.796" y2="5.28062" gradientUnits="userSpaceOnUse">
<stop stop-color="#B7BDD2"/>
<stop offset="1" stop-color="#607BB6"/>
</linearGradient>
<clipPath id="clip0_805_1396">
<rect width="146.094" height="42.5" fill="white" transform="translate(20.0312 4.75)"/>
</clipPath>
</defs>
</svg>
