<svg width="224" height="52" viewBox="0 0 224 52" fill="none" xmlns="http://www.w3.org/2000/svg">
<g clip-path="url(#clip0_805_1221)">
<path d="M193.012 11.8726L189.434 22.762H170.319L173.896 11.8726H163.712L154.441 40.1016H164.6L168.177 29.2122H187.293L183.715 40.1016H193.899L203.17 11.8726H193.012Z" fill="#1E75BB"/>
<path d="M152.637 24.9034C152.193 24.2244 151.566 23.676 150.861 23.3104C150.078 22.9448 149.216 22.762 148.354 22.762H126.027L127.28 18.845H156.58L158.904 11.8726H126.419C125.426 11.8726 124.46 12.0554 123.546 12.4209C122.502 12.7865 121.561 13.3349 120.726 14.04C119.995 14.7451 119.107 15.4763 118.558 16.3641C117.905 17.2259 117.357 18.1921 116.965 19.2106L116.078 21.8742C115.842 22.8143 115.738 23.7805 115.712 24.7467C115.869 25.6346 116.078 26.5224 116.443 27.0708C116.887 27.7498 117.514 28.2982 118.219 28.6899C118.976 29.1077 119.838 29.3427 120.726 29.395H143.053L141.8 33.1554H112.474L110.176 40.1278H142.661C143.654 40.1278 144.62 39.945 145.534 39.5794C146.579 39.2138 147.519 38.6654 148.354 37.9864C149.085 37.2813 149.973 36.5502 150.522 35.6623C151.201 34.8005 151.723 33.8343 152.115 32.8159L153.003 30.1523C153.29 29.2122 153.42 28.246 153.368 27.2797C153.185 26.3396 153.003 25.4779 152.637 24.9034Z" fill="#1E75BB"/>
<path d="M112.657 16.1811C112.5 15.2932 112.291 14.5881 111.795 14.0136C111.429 13.3347 110.855 12.7602 110.176 12.4207C109.392 12.0551 108.531 11.8462 107.669 11.8723H82.1557C81.1633 11.8723 80.1971 12.0551 79.2831 12.4207C78.2386 12.7863 77.2724 13.3347 76.4367 14.0398C75.7055 14.7448 74.8438 15.476 74.2693 16.3639C73.5903 17.2256 73.068 18.1919 72.6763 19.2103L65.8867 40.1014H76.0711L83.0435 18.8708H102.316L100.2 25.112H86.6211L84.4798 31.7188H98.0329L95.3432 40.1275H105.371L112.317 19.0275C112.604 18.0874 112.709 17.1473 112.657 16.1811Z" fill="#1E75BB"/>
<path d="M68.2113 16.3639C68.1591 15.5544 67.9241 14.7449 67.5063 14.0398C67.1407 13.3086 66.4878 12.7341 65.7305 12.4468C64.9471 12.0551 64.0853 11.8723 63.2236 11.8984H30.7379L28.4138 18.8708H57.8441L53.1959 33.129H23.7655L21.4414 40.1014H54.0837C55.0562 40.0758 56.0178 39.8905 56.9301 39.553C57.8441 39.0307 58.8887 38.5085 59.7766 37.7773C60.6383 37.0983 61.4217 36.3149 62.1007 35.4531C62.6752 34.5914 63.1452 33.7035 63.537 32.7634L67.8457 19.2103C68.2374 18.3225 68.368 17.3301 68.2113 16.3639Z" fill="#1E75BB"/>
<path d="M40.0126 22.7617H22.6991L20.375 29.2118H37.8713L40.0126 22.7617Z" fill="#1E75BB"/>
</g>
<defs>
<clipPath id="clip0_805_1221">
<rect width="183" height="28.2552" fill="white" transform="translate(20.2695 11.8726)"/>
</clipPath>
</defs>
</svg>
