<svg width="170" height="52" viewBox="0 0 170 52" fill="none" xmlns="http://www.w3.org/2000/svg">
<path d="M76.841 13.0996C79.0757 13.0996 81.2087 13.6075 83.1387 14.7248C85.0686 15.8421 86.5922 17.2642 87.7095 19.1941C88.8269 21.0224 89.4363 23.1555 89.4363 25.3902C89.4363 27.6248 88.8269 29.7579 87.7095 31.5862C86.5922 33.4146 85.0686 34.8366 83.1387 35.9539C81.2087 36.9697 79.1772 37.4776 76.841 37.4776H67.0898V13.0996H76.841ZM76.841 33.2114C78.2631 33.2114 79.6851 32.9067 80.904 32.1957C82.1229 31.4847 83.0371 30.5705 83.7481 29.3516C84.4591 28.1327 84.8654 26.8122 84.8654 25.3902C84.8654 23.9681 84.4591 22.6476 83.7481 21.4287C83.0371 20.2098 82.1229 19.1941 80.904 18.4831C79.6851 17.7721 78.3646 17.4673 76.841 17.4673H71.6607V33.2114H76.841Z" fill="#1D1D1B"/>
<path d="M100.509 19.6006C102.236 19.6006 103.658 20.0069 104.978 20.8195C106.299 21.6321 107.416 22.7494 108.127 24.1715C108.838 25.5935 109.244 27.1171 109.244 28.8439C109.244 29.4533 109.244 29.9612 109.143 30.3675H95.6333C95.9381 31.5864 96.6491 32.6022 97.4617 33.3132C98.3758 34.0242 99.4932 34.3289 100.814 34.3289C101.626 34.3289 102.439 34.1258 103.251 33.7195C104.064 33.3132 104.673 32.9069 105.08 32.2974L108.432 34.2274C107.619 35.4463 106.603 36.3604 105.283 37.0715C103.962 37.6809 102.54 37.9856 100.814 37.9856C98.9853 37.9856 97.2585 37.5793 95.8365 36.7667C94.4144 35.9541 93.2971 34.8368 92.4845 33.5163C91.6719 32.0943 91.3672 30.5707 91.3672 28.8439C91.3672 27.1171 91.7735 25.5935 92.4845 24.1715C93.2971 22.7494 94.4144 21.6321 95.7349 20.9211C97.1569 20.0069 98.7821 19.6006 100.509 19.6006ZM105.283 27.0155C105.08 25.8982 104.572 24.9841 103.759 24.3746C102.947 23.7652 101.829 23.3589 100.61 23.3589C99.6963 23.3589 98.8837 23.562 98.1727 23.8667C97.4617 24.1715 96.8522 24.6793 96.4459 25.1872C96.0396 25.7966 95.7349 26.3045 95.7349 27.0155H105.283Z" fill="#1D1D1B"/>
<path d="M121.126 37.986C118.688 37.986 116.758 37.4781 115.032 36.3608C113.406 35.2435 112.289 33.8214 111.578 31.9931L115.438 29.7584C116.352 32.2978 118.282 33.5167 121.126 33.5167C122.447 33.5167 123.361 33.212 124.072 32.6025C124.783 31.9931 125.088 31.282 125.088 30.4694C125.088 29.6569 124.681 29.0474 123.97 28.5395C123.259 28.0317 121.837 27.5238 119.907 27.0159C118.384 26.508 117.063 26.0002 116.047 25.4923C115.032 24.8828 114.117 24.1718 113.508 23.2576C112.899 22.3435 112.492 21.1246 112.492 19.7025C112.492 18.2805 112.899 16.96 113.61 15.9443C114.321 14.8269 115.336 14.0143 116.454 13.5065C117.673 12.897 118.993 12.5923 120.415 12.5923C122.345 12.5923 124.072 13.1002 125.595 14.0143C127.017 14.9285 128.236 16.249 128.947 17.9758L124.986 20.2104C124.072 18.1789 122.548 17.0616 120.415 17.0616C119.399 17.0616 118.587 17.3663 117.977 17.8742C117.368 18.382 117.063 18.9915 117.063 19.7025C117.063 20.2104 117.165 20.7183 117.469 21.023C117.774 21.4293 118.282 21.734 118.892 22.0387C119.501 22.3435 120.517 22.6482 121.736 23.0545C123.361 23.5624 124.681 24.0702 125.799 24.6797C126.916 25.2891 127.83 26.0002 128.541 27.0159C129.252 28.0317 129.658 29.2506 129.658 30.6726C129.658 32.0947 129.252 33.4151 128.541 34.5324C127.83 35.6498 126.713 36.4624 125.392 37.0718C124.275 37.6813 122.751 37.986 121.126 37.986Z" fill="#1D1D1B"/>
<path d="M140.634 38.0872C139.009 38.0872 137.485 37.6809 136.063 36.8683C134.641 36.0557 133.524 34.9384 132.711 33.5163C131.898 32.0943 131.492 30.5706 131.492 28.9454C131.492 27.3202 131.898 25.7966 132.711 24.3746C133.524 22.9525 134.641 21.8352 136.063 21.0226C137.485 20.21 139.009 19.8037 140.634 19.8037C142.259 19.8037 143.783 20.21 145.205 21.0226C146.627 21.8352 147.744 22.9525 148.557 24.3746C149.369 25.7966 149.776 27.3202 149.776 28.9454C149.776 30.5706 149.369 32.0943 148.557 33.5163C147.744 34.9384 146.627 36.0557 145.205 36.8683C143.783 37.6809 142.259 38.0872 140.634 38.0872ZM140.532 33.7195C141.447 33.7195 142.259 33.5163 142.97 33.11C143.681 32.7037 144.291 32.0943 144.798 31.2817C145.205 30.5706 145.51 29.758 145.51 28.8439C145.51 27.9297 145.306 27.1171 144.798 26.4061C144.392 25.6951 143.783 25.0856 142.97 24.5777C142.259 24.1714 141.447 23.8667 140.532 23.8667C139.618 23.8667 138.806 24.0699 138.095 24.5777C137.384 24.984 136.774 25.5935 136.266 26.4061C135.86 27.1171 135.657 27.9297 135.657 28.8439C135.657 29.758 135.86 30.5706 136.266 31.2817C136.673 31.9927 137.282 32.6021 138.095 33.11C138.806 33.5163 139.618 33.7195 140.532 33.7195Z" fill="#1D1D1B"/>
<path d="M20.7734 7.31006V16.6549L45.3545 30.3675L20.7734 44.6896H41.0884C47.5892 44.6896 52.7695 40.1187 52.7695 34.4305V25.9998L20.7734 7.31006Z" fill="url(#paint0_linear_805_1334)"/>
<path d="M20.7734 7.31006L52.7695 25.9998V17.5691C52.7695 11.8809 47.4876 7.31006 41.0884 7.31006H20.7734Z" fill="url(#paint1_linear_805_1334)"/>
<path d="M37.6349 25.9995L20.7734 35.3444V44.6893L45.3545 30.2657L37.6349 25.9995Z" fill="url(#paint2_linear_805_1334)"/>
<defs>
<linearGradient id="paint0_linear_805_1334" x1="28.6447" y1="15.7022" x2="39.78" y2="42.595" gradientUnits="userSpaceOnUse">
<stop stop-color="#0057FF"/>
<stop offset="1" stop-color="#00A3FF"/>
</linearGradient>
<linearGradient id="paint1_linear_805_1334" x1="34.2433" y1="17.3139" x2="54.9582" y2="11.8419" gradientUnits="userSpaceOnUse">
<stop stop-color="#0283FF"/>
<stop offset="1" stop-color="#01C2FF"/>
</linearGradient>
<linearGradient id="paint2_linear_805_1334" x1="26.7479" y1="41.2406" x2="55.7597" y2="2.74406" gradientUnits="userSpaceOnUse">
<stop stop-color="#0157FF"/>
<stop offset="1" stop-color="#00FFFF"/>
</linearGradient>
</defs>
</svg>
