<svg width="195" height="52" viewBox="0 0 195 52" fill="none" xmlns="http://www.w3.org/2000/svg">
<path fill-rule="evenodd" clip-rule="evenodd" d="M33.418 10.1071C33.418 8.9434 34.3614 8 35.5251 8C43.2834 8 49.5727 14.2893 49.5727 22.0476C49.5727 23.2114 48.6293 24.1548 47.4656 24.1548C46.3018 24.1548 45.3584 23.2114 45.3584 22.0476C45.3584 16.6168 40.9559 12.2143 35.5251 12.2143C34.3614 12.2143 33.418 11.2709 33.418 10.1071Z" fill="#0DBD8B"/>
<path fill-rule="evenodd" clip-rule="evenodd" d="M43.2524 41.012C43.2524 42.1757 42.309 43.1191 41.1453 43.1191C33.387 43.1191 27.0977 36.8298 27.0977 29.0715C27.0977 27.9078 28.0411 26.9644 29.2048 26.9644C30.3685 26.9644 31.3119 27.9078 31.3119 29.0715C31.3119 34.5023 35.7145 38.9048 41.1453 38.9048C42.309 38.9048 43.2524 39.8482 43.2524 41.012Z" fill="#0DBD8B"/>
<path fill-rule="evenodd" clip-rule="evenodd" d="M22.8806 30.476C21.7168 30.476 20.7734 29.5326 20.7734 28.3689C20.7734 20.6106 27.0628 14.3213 34.821 14.3213C35.9848 14.3213 36.9282 15.2647 36.9282 16.4284C36.9282 17.5922 35.9848 18.5356 34.821 18.5356C29.3902 18.5356 24.9877 22.9381 24.9877 28.3689C24.9877 29.5326 24.0443 30.476 22.8806 30.476Z" fill="#0DBD8B"/>
<path fill-rule="evenodd" clip-rule="evenodd" d="M53.7859 20.6426C54.9496 20.6426 55.893 21.586 55.893 22.7497C55.893 30.508 49.6037 36.7973 41.8454 36.7973C40.6817 36.7973 39.7383 35.8539 39.7383 34.6902C39.7383 33.5264 40.6817 32.583 41.8454 32.583C47.2762 32.583 51.6788 28.1805 51.6788 22.7497C51.6788 21.586 52.6221 20.6426 53.7859 20.6426Z" fill="#0DBD8B"/>
<path d="M66.3778 37V16.711H79.9418V19.589H69.9683V25.2312H79.3719V28.1378H69.9683V34.1219H79.9418V37H66.3778ZM83.0401 37V16.0271H86.602V37H83.0401ZM102.81 35.4042C102.126 35.9741 101.28 36.4206 100.273 36.7435C99.2855 37.0475 98.2787 37.1995 97.2528 37.1995C95.695 37.1995 94.3462 36.905 93.2064 36.3161C92.0856 35.7272 91.2212 34.8723 90.6133 33.7515C90.0054 32.6306 89.7014 31.3008 89.7014 29.7621C89.7014 28.2803 89.9959 26.979 90.5848 25.8581C91.1737 24.7183 91.9906 23.8349 93.0354 23.208C94.0803 22.5621 95.2866 22.2391 96.6544 22.2391C97.9842 22.2391 99.124 22.5336 100.074 23.1225C101.024 23.6924 101.755 24.5188 102.268 25.6017C102.8 26.6845 103.066 27.9668 103.066 29.4486V29.99H92.836L92.8644 28.0808H100.957L99.9884 29.0497C100.007 27.6629 99.7319 26.6085 99.162 25.8866C98.6111 25.1647 97.8037 24.8038 96.7399 24.8038C95.6 24.8038 94.7167 25.2122 94.0898 26.0291C93.4629 26.827 93.1494 27.9763 93.1494 29.4771C93.1494 31.1868 93.5009 32.4502 94.2038 33.267C94.9067 34.0649 95.9705 34.4639 97.3953 34.4639C98.1742 34.4639 98.9341 34.3404 99.675 34.0934C100.435 33.8275 101.138 33.4475 101.784 32.9536L102.81 35.4042ZM106.054 37V26.6845C106.054 26.0196 106.035 25.3452 105.997 24.6613C105.978 23.9584 105.921 23.2745 105.826 22.6096H109.188L109.502 25.4592L109.188 25.4877C109.568 24.4618 110.176 23.6639 111.012 23.094C111.848 22.5241 112.836 22.2391 113.976 22.2391C115.324 22.2391 116.379 22.5811 117.139 23.265C117.918 23.9299 118.421 24.9558 118.649 26.3426L117.965 25.7156C118.345 24.6708 118.991 23.8349 119.903 23.208C120.815 22.5621 121.878 22.2391 123.094 22.2391C124.709 22.2391 125.915 22.7331 126.713 23.7209C127.511 24.6898 127.91 26.1716 127.91 28.1663V37H124.348V28.2803C124.348 27.1784 124.158 26.371 123.778 25.8581C123.417 25.3262 122.809 25.0602 121.954 25.0602C120.967 25.0602 120.188 25.4117 119.618 26.1146C119.067 26.7985 118.791 27.7483 118.791 28.9642V37H115.229V28.2803C115.229 27.1784 115.03 26.371 114.631 25.8581C114.251 25.3262 113.643 25.0602 112.807 25.0602C111.8 25.0602 111.012 25.4117 110.442 26.1146C109.891 26.7985 109.616 27.7483 109.616 28.9642V37H106.054ZM144.051 35.4042C143.367 35.9741 142.521 36.4206 141.514 36.7435C140.527 37.0475 139.52 37.1995 138.494 37.1995C136.936 37.1995 135.587 36.905 134.447 36.3161C133.327 35.7272 132.462 34.8723 131.854 33.7515C131.246 32.6306 130.942 31.3008 130.942 29.7621C130.942 28.2803 131.237 26.979 131.826 25.8581C132.415 24.7183 133.232 23.8349 134.276 23.208C135.321 22.5621 136.528 22.2391 137.895 22.2391C139.225 22.2391 140.365 22.5336 141.315 23.1225C142.265 23.6924 142.996 24.5188 143.509 25.6017C144.041 26.6845 144.307 27.9668 144.307 29.4486V29.99H134.077L134.106 28.0808H142.198L141.229 29.0497C141.248 27.6629 140.973 26.6085 140.403 25.8866C139.852 25.1647 139.045 24.8038 137.981 24.8038C136.841 24.8038 135.958 25.2122 135.331 26.0291C134.704 26.827 134.39 27.9763 134.39 29.4771C134.39 31.1868 134.742 32.4502 135.445 33.267C136.148 34.0649 137.212 34.4639 138.636 34.4639C139.415 34.4639 140.175 34.3404 140.916 34.0934C141.676 33.8275 142.379 33.4475 143.025 32.9536L144.051 35.4042ZM147.295 37V26.6845C147.295 26.0006 147.276 25.3167 147.238 24.6328C147.219 23.9489 147.162 23.2745 147.067 22.6096H150.429L150.743 25.4592L150.429 25.5447C150.885 24.4618 151.56 23.6449 152.453 23.094C153.364 22.5241 154.409 22.2391 155.587 22.2391C159.007 22.2391 160.716 24.2149 160.716 28.1663V37H157.154V28.3088C157.154 27.1879 156.936 26.371 156.499 25.8581C156.062 25.3262 155.388 25.0602 154.476 25.0602C153.374 25.0602 152.491 25.4117 151.826 26.1146C151.18 26.7985 150.857 27.7104 150.857 28.8502V37H147.295ZM162.67 25.2882V22.6096H172.815V25.2882H162.67ZM172.815 34.0364V36.8575C172.435 36.9905 172.055 37.076 171.675 37.114C171.314 37.171 170.924 37.1995 170.507 37.1995C168.892 37.1995 167.638 36.7435 166.745 35.8317C165.871 34.9198 165.434 33.609 165.434 31.8992V19.1046L168.996 17.9078V31.7283C168.996 32.3742 169.101 32.8871 169.31 33.267C169.519 33.628 169.794 33.8845 170.136 34.0364C170.497 34.1884 170.896 34.2644 171.333 34.2644C171.58 34.2644 171.817 34.2454 172.045 34.2074C172.273 34.1694 172.53 34.1124 172.815 34.0364Z" fill="black"/>
</svg>
