<svg width="165" height="52" viewBox="0 0 165 52" fill="none" xmlns="http://www.w3.org/2000/svg">
<mask id="mask0_805_1620" style="mask-type:luminance" maskUnits="userSpaceOnUse" x="20" y="7" width="36" height="38">
<path d="M20 7.5H55.108V44.5H20V7.5Z" fill="white"/>
</mask>
<g mask="url(#mask0_805_1620)">
<path fill-rule="evenodd" clip-rule="evenodd" d="M24.1447 19.102L31.5845 7.5L20.4937 18.5905C19.5708 19.5134 20.0052 21.0901 21.2703 21.4103L27.1487 22.8985C26.6237 23.7235 26.0294 24.7639 25.5676 25.8667C25.1442 26.8769 24.7914 28.0335 24.7565 29.1791C24.7208 30.3521 25.0214 31.6091 26.0135 32.6009C27.504 34.0914 28.5862 34.6115 29.4507 35.0267C29.515 35.0576 29.5781 35.0879 29.6399 35.118C30.042 35.3133 30.3393 35.4735 30.6544 35.7255C30.9727 35.9799 31.3591 36.3686 31.8552 37.051C31.9435 37.1725 32.0373 37.3022 32.1359 37.4393C33.2182 38.941 34.9166 41.2978 37.1082 42.8623C38.3313 43.7352 39.7827 44.421 41.4425 44.5553C43.1236 44.6913 44.8792 44.2496 46.6662 43.0988C48.3776 41.9964 49.5055 40.7685 50.0361 39.3383C50.5705 37.898 50.4122 36.4863 50.0235 35.2061C49.6676 34.0334 49.0735 32.8376 48.5191 31.7215L48.5181 31.7194L48.5071 31.6976L48.4146 31.5111C47.8081 30.2884 47.2361 29.1065 46.8554 27.8691C46.1122 25.4536 46.6164 24.4071 46.9332 23.9925C47.0854 23.7933 47.2787 23.6291 47.4999 23.5111C47.5823 23.4672 47.6484 23.4411 47.6847 23.4281L47.7043 23.4214L47.7392 23.4132L47.7991 23.3936L48.0623 23.3074L48.7556 23.0791C49.3298 22.8899 50.0969 22.6364 50.8678 22.3795C51.6374 22.123 52.4151 21.8615 53.0087 21.6569C53.3041 21.5552 53.5614 21.465 53.7517 21.3954C53.8448 21.3613 53.9339 21.3277 54.0075 21.2981C54.0424 21.284 54.0908 21.2638 54.1408 21.2402C54.1801 21.2219 54.2187 21.202 54.2564 21.1808L54.2587 21.1795C54.3775 21.1125 54.4866 21.0297 54.5831 20.9335C55.1808 20.3358 54.9895 19.6034 54.9699 19.5282L54.9689 19.5246C54.9378 19.403 54.8916 19.2857 54.8314 19.1756C54.7921 19.1042 54.7479 19.0356 54.699 18.9704C54.647 18.901 54.5894 18.8331 54.5457 18.7827C54.4222 18.6426 54.2963 18.5047 54.1681 18.369C53.9865 18.1751 50.4601 14.6027 47.4976 11.6017C45.446 9.52365 43.665 7.71927 43.4518 7.5C43.477 7.52586 45.3743 10.5111 47.2523 13.4658C49.0926 16.3613 50.9144 19.2275 50.9382 19.2521C50.6155 19.3608 50.2764 19.4741 49.9371 19.5872C49.0068 19.8972 48.0757 20.2051 47.144 20.511L46.9218 20.5839L46.9037 20.589L46.8903 20.5927C46.8384 20.6079 46.773 20.6285 46.6965 20.6558C46.544 20.7101 46.3439 20.7925 46.1177 20.9127C45.5234 21.2292 45.0041 21.67 44.5952 22.205C43.5458 23.5773 43.1039 25.6842 44.0423 28.7346C44.5025 30.2302 45.1788 31.6105 45.7778 32.8187L45.8366 32.9371C46.4328 34.1387 46.925 35.1308 47.2073 36.0611C47.4888 36.9882 47.5077 37.692 47.2769 38.3145C47.0421 38.9473 46.4618 39.7295 45.0724 40.6245C43.7585 41.4706 42.638 41.6991 41.6796 41.6216C40.6999 41.5423 39.7487 41.1311 38.8182 40.4668C37.0439 39.2002 35.6202 37.2329 34.4982 35.6822C34.4087 35.5586 34.3212 35.4377 34.2354 35.32C33.6233 34.478 33.0613 33.8814 32.4918 33.4263C31.9194 32.9688 31.3892 32.6955 30.9254 32.4704C30.8586 32.4378 30.7921 32.406 30.7259 32.3743C29.9643 32.0091 29.2325 31.6578 28.0945 30.5199C27.8323 30.2575 27.6795 29.8806 27.6982 29.2688C27.7178 28.6297 27.9274 27.8506 28.282 27.0038C28.9892 25.3161 30.111 23.7312 30.5592 23.1325C31.2908 22.1549 30.7701 20.7792 29.622 20.4885L24.1447 19.102ZM36.5517 31.1344C36.5517 31.1344 34.2834 31.1344 32.7714 29.7431C31.2595 28.3516 32.7714 25.569 32.7714 25.569C32.7714 25.569 33.2125 25.8472 34.8821 27.7951C36.5517 29.7431 36.5517 31.1344 36.5517 31.1344Z" fill="url(#paint0_linear_805_1620)"/>
</g>
<path d="M64.0723 35.5V16.3381H71.1234C73.2226 16.3381 75.0078 16.7149 76.4791 17.4685C77.9503 18.222 79.0717 19.3165 79.8432 20.7518C80.6326 22.1692 81.0273 23.8827 81.0273 25.8921C81.0273 27.9196 80.6326 29.651 79.8432 31.0863C79.0717 32.5217 77.9413 33.6161 76.4521 34.3697C74.9809 35.1232 73.2047 35.5 71.1234 35.5H64.0723ZM67.544 32.6742H70.9081C73.115 32.6742 74.7656 32.109 75.8601 30.9787C76.9725 29.8483 77.5287 28.1528 77.5287 25.8921C77.5287 21.4067 75.3218 19.164 70.9081 19.164H67.544V32.6742ZM90.4668 35.6884C89.0493 35.6884 87.8203 35.4013 86.7797 34.8272C85.757 34.253 84.9676 33.4457 84.4114 32.405C83.8552 31.3465 83.5771 30.0905 83.5771 28.6372C83.5771 27.2019 83.8552 25.9549 84.4114 24.8964C84.9676 23.8199 85.757 22.9945 86.7797 22.4204C87.8203 21.8463 89.0493 21.5592 90.4668 21.5592C91.8483 21.5592 93.0504 21.8463 94.0731 22.4204C95.1137 22.9945 95.9121 23.8199 96.4683 24.8964C97.0424 25.9549 97.3295 27.2019 97.3295 28.6372C97.3295 30.0905 97.0424 31.3465 96.4683 32.405C95.9121 33.4457 95.1137 34.253 94.0731 34.8272C93.0504 35.4013 91.8483 35.6884 90.4668 35.6884ZM90.4668 33.1048C91.5791 33.1048 92.4314 32.737 93.0235 32.0013C93.6335 31.2478 93.9385 30.1264 93.9385 28.6372C93.9385 27.166 93.6335 26.0626 93.0235 25.327C92.4314 24.5734 91.5791 24.1966 90.4668 24.1966C89.3364 24.1966 88.4573 24.5734 87.8293 25.327C87.2193 26.0626 86.9143 27.166 86.9143 28.6372C86.9143 30.1264 87.2193 31.2478 87.8293 32.0013C88.4393 32.737 89.3185 33.1048 90.4668 33.1048ZM100.204 41.3132V25.7576C100.204 25.1296 100.186 24.4927 100.15 23.8468C100.132 23.1829 100.078 22.537 99.9884 21.9091H103.164L103.46 24.6003L103.272 24.7618C103.559 23.7571 104.124 22.9766 104.967 22.4204C105.811 21.8463 106.806 21.5592 107.955 21.5592C109.139 21.5592 110.179 21.8642 111.076 22.4742C111.991 23.0663 112.709 23.9006 113.229 24.9771C113.75 26.0357 114.01 27.2826 114.01 28.718C114.01 30.1354 113.75 31.3734 113.229 32.4319C112.709 33.4726 112 34.28 111.103 34.8541C110.206 35.4103 109.157 35.6884 107.955 35.6884C106.806 35.6884 105.811 35.4193 104.967 34.881C104.124 34.3248 103.559 33.5443 103.272 32.5396L103.568 32.109V41.3132H100.204ZM107.093 33.1048C108.206 33.1048 109.067 32.728 109.677 31.9744C110.287 31.2029 110.592 30.1174 110.592 28.718C110.592 27.2826 110.287 26.1702 109.677 25.3808C109.067 24.5914 108.206 24.1966 107.093 24.1966C105.945 24.1966 105.066 24.5824 104.456 25.3539C103.864 26.1074 103.568 27.2109 103.568 28.6642C103.568 30.0816 103.864 31.176 104.456 31.9475C105.066 32.719 105.945 33.1048 107.093 33.1048ZM128.573 33.9929C127.927 34.5311 127.129 34.9528 126.178 35.2578C125.245 35.5449 124.294 35.6884 123.325 35.6884C121.854 35.6884 120.58 35.4103 119.503 34.8541C118.445 34.2979 117.628 33.4905 117.054 32.4319C116.48 31.3734 116.193 30.1174 116.193 28.6642C116.193 27.2647 116.471 26.0357 117.027 24.9771C117.584 23.9006 118.355 23.0663 119.342 22.4742C120.329 21.8642 121.468 21.5592 122.76 21.5592C124.016 21.5592 125.092 21.8373 125.989 22.3935C126.886 22.9317 127.577 23.7122 128.062 24.7349C128.564 25.7576 128.815 26.9687 128.815 28.3681V28.8795H119.153L119.18 27.0763H126.824L125.909 27.9913C125.926 26.6816 125.666 25.6858 125.128 25.004C124.608 24.3222 123.845 23.9813 122.84 23.9813C121.764 23.9813 120.93 24.3671 120.338 25.1386C119.746 25.8921 119.449 26.9776 119.449 28.395C119.449 30.0098 119.781 31.2029 120.445 31.9744C121.109 32.728 122.114 33.1048 123.459 33.1048C124.195 33.1048 124.913 32.9881 125.612 32.7549C126.33 32.5037 126.994 32.1449 127.604 31.6784L128.573 33.9929ZM140.816 35.5L137.129 30.8979L135.218 28.5027L129.836 21.9091H133.819L137.129 26.1344L139.094 28.5027L144.772 35.5H140.816ZM133.496 35.5H129.486L135.218 28.5027L137.129 26.1344L140.439 21.9091H144.449L139.094 28.5027L137.129 30.8979L133.496 35.5Z" fill="black"/>
<defs>
<linearGradient id="paint0_linear_805_1620" x1="37.5654" y1="24.2026" x2="37.5072" y2="44.579" gradientUnits="userSpaceOnUse">
<stop stop-color="#22E1FF"/>
<stop offset="1" stop-color="#002EFF"/>
</linearGradient>
</defs>
</svg>
