<svg width="198" height="52" viewBox="0 0 198 52" fill="none" xmlns="http://www.w3.org/2000/svg">
<path d="M53.5904 35.3557C53.9727 34.3197 53.9912 33.3763 53.6459 32.5253C53.3252 31.736 52.7086 31.0701 51.796 30.5274C50.945 30.0341 49.9153 29.6765 48.7067 29.4545C47.609 29.2572 46.4128 29.1709 45.1178 29.1955C43.8722 29.2325 42.6636 29.3682 41.492 29.6025C40.3698 29.8368 39.3831 30.1328 38.5322 30.4904C37.6936 30.8481 37.0399 31.2366 36.5713 31.6559C36.1026 32.0999 35.856 32.5562 35.8313 33.0248C35.7943 33.5798 36.078 34.1779 36.6823 34.8192C37.2373 35.4112 38.0142 35.9908 39.0132 36.5581C40.0121 37.1254 41.1159 37.6126 42.3245 38.0196C43.6194 38.4512 44.8958 38.7287 46.1538 38.852C46.9677 38.926 47.7262 38.9383 48.4292 38.889C49.1938 38.815 49.9029 38.6547 50.5566 38.408C51.2595 38.1367 51.8577 37.7606 52.351 37.2796C52.9059 36.7493 53.3191 36.108 53.5904 35.3557ZM45.8578 32.4513C46.2771 32.6733 46.5854 32.9447 46.7827 33.2653C46.9801 33.6229 47.0232 34.0299 46.9122 34.4862C46.8259 34.8069 46.6841 35.0844 46.4868 35.3187C46.3018 35.5283 46.0551 35.6948 45.7468 35.8182C45.4878 35.9292 45.1733 36.0093 44.8034 36.0587C44.4457 36.0957 44.0881 36.1018 43.7304 36.0772C43.1014 36.0402 42.4108 35.9168 41.6585 35.7072C41.0049 35.5099 40.3759 35.2632 39.7716 34.9672C39.2166 34.6959 38.7603 34.4122 38.4027 34.1163C38.0574 33.8079 37.8909 33.5366 37.9032 33.3023C37.9279 33.105 38.0697 32.9138 38.3287 32.7288C38.5877 32.5562 38.9453 32.402 39.4016 32.2664C39.8579 32.1184 40.3636 32.0074 40.9186 31.9334C41.5475 31.8594 42.1457 31.8224 42.713 31.8224C43.3419 31.8347 43.9092 31.884 44.4149 31.9704C44.9575 32.0814 45.4385 32.2417 45.8578 32.4513Z" fill="url(#paint0_linear_805_1581)"/>
<path d="M44.3797 13.046C44.3304 11.7141 43.9974 10.6041 43.3808 9.71618C42.7271 8.7419 41.7652 8.07594 40.4949 7.71829C40.2113 7.63196 39.9091 7.5703 39.5885 7.5333C39.3048 7.4963 39.015 7.49013 38.719 7.5148C38.4477 7.5148 38.1764 7.54563 37.905 7.60729C37.6707 7.65663 37.4117 7.73679 37.1281 7.84778C36.2155 8.20543 35.3892 8.8344 34.6492 9.73468C33.9586 10.5486 33.3666 11.5599 32.8733 12.7685C32.4417 13.7921 32.0963 14.9144 31.8374 16.1353C31.5907 17.2823 31.4242 18.4477 31.3379 19.6317C31.2639 20.7046 31.2577 21.7344 31.3194 22.721C31.3934 23.6953 31.529 24.5771 31.7264 25.3664C32.121 26.9819 32.7253 27.9747 33.5393 28.3447C33.6133 28.3817 33.6873 28.4125 33.7613 28.4372L34.2422 28.5112C34.3039 28.5112 34.3964 28.505 34.5197 28.4927C35.0377 28.4434 35.6235 28.2275 36.2771 27.8452C36.9061 27.4629 37.5659 26.9388 38.2565 26.2728C38.9965 25.5575 39.7118 24.7251 40.4024 23.7754C41.13 22.7888 41.7775 21.7467 42.3448 20.6491C43.0108 19.3542 43.5226 18.0839 43.8802 16.8383C44.2502 15.4694 44.4167 14.2053 44.3797 13.046ZM37.3316 16.0428C37.4549 16.0675 37.5597 16.0983 37.6461 16.1353C38.645 16.4807 39.1568 17.2761 39.1815 18.5217C39.1938 19.5453 38.8793 20.7231 38.238 22.055C37.7077 23.165 37.0726 24.1393 36.3326 24.9779C35.642 25.7672 35.0624 26.1865 34.5937 26.2358L34.5012 26.2543L34.3347 26.2358L34.2422 26.1988C33.8969 26.0385 33.6564 25.5143 33.5208 24.6264C33.3851 23.7261 33.3913 22.6963 33.5393 21.5371C33.6996 20.2421 34.0017 19.1075 34.4457 18.1332C34.976 16.974 35.6297 16.2895 36.4066 16.0798C36.5423 16.0428 36.6409 16.0244 36.7026 16.0244C36.8013 16.012 36.8999 16.0059 36.9986 16.0059C37.0973 16.0059 37.2082 16.0182 37.3316 16.0428Z" fill="url(#paint1_linear_805_1581)"/>
<path d="M20.736 19.9089C20.588 20.1062 20.4647 20.322 20.366 20.5564C20.255 20.84 20.1748 21.1298 20.1255 21.4258C19.8665 22.6344 20.0083 23.806 20.551 24.9406C20.995 25.8779 21.7103 26.7597 22.6969 27.586C23.5725 28.3136 24.5591 28.9056 25.6567 29.3619C26.7667 29.8182 27.7348 30.0279 28.5611 29.9909C28.7214 29.9909 28.894 29.9724 29.079 29.9354C29.264 29.8984 29.4182 29.849 29.5415 29.7874C29.6648 29.7257 29.782 29.6456 29.893 29.5469C30.004 29.4482 30.0903 29.3372 30.152 29.2139C30.448 28.6466 30.3678 27.771 29.9115 26.5871C29.4429 25.4401 28.7337 24.2623 27.7841 23.0537C26.7975 21.7958 25.7677 20.803 24.6948 20.0754C23.5355 19.2984 22.555 19.0086 21.7534 19.2059C21.5561 19.2553 21.3711 19.3416 21.1985 19.4649C21.0258 19.5759 20.8716 19.7239 20.736 19.9089ZM23.4738 23.5902C23.5355 23.4792 23.5972 23.3929 23.6588 23.3312C23.7205 23.2696 23.7945 23.2141 23.8808 23.1647C23.9795 23.1277 24.0658 23.1031 24.1398 23.0907C24.5344 23.0167 25.0339 23.1894 25.6382 23.6087C26.1809 23.9664 26.7235 24.472 27.2661 25.1256C27.7594 25.7176 28.1541 26.2972 28.4501 26.8645C28.7337 27.4442 28.8201 27.8512 28.7091 28.0855C28.6844 28.1348 28.6536 28.1718 28.6166 28.1965C28.5796 28.2458 28.5364 28.2766 28.4871 28.289C28.4624 28.3136 28.4131 28.3321 28.3391 28.3445L28.1356 28.3815C27.7409 28.4061 27.2291 28.2951 26.6002 28.0485C25.9835 27.8018 25.4039 27.475 24.8613 27.068C24.2816 26.6364 23.85 26.1677 23.5663 25.6621C23.2457 25.0825 23.1717 24.5028 23.3443 23.9232C23.3813 23.7999 23.4245 23.6889 23.4738 23.5902Z" fill="url(#paint2_linear_805_1581)"/>
<path d="M32.6701 34.93H32.5961C32.2138 34.9177 31.8623 35.0472 31.5417 35.3185C31.2457 35.5775 30.9929 35.9475 30.7832 36.4284C30.5982 36.8601 30.4687 37.3472 30.3947 37.8898C30.3207 38.4325 30.3084 38.9813 30.3577 39.5363C30.4564 40.7079 30.8017 41.7006 31.3937 42.5146C32.0843 43.4519 33.0462 44.0685 34.2795 44.3645H34.3165L34.4275 44.4015H34.483C35.8273 44.6605 36.7276 44.4077 37.1839 43.643C37.3935 43.2854 37.4983 42.8291 37.4983 42.2741C37.486 41.7438 37.3874 41.1642 37.2024 40.5352C37.0174 39.8939 36.7584 39.2526 36.4254 38.6113C36.0924 37.9577 35.7163 37.3657 35.297 36.8354C34.853 36.2804 34.409 35.8365 33.965 35.5035C33.4964 35.1582 33.0647 34.967 32.6701 34.93ZM32.1521 37.2239C32.3495 36.6812 32.6023 36.4223 32.9106 36.4469H32.9291C33.2374 36.4839 33.6012 36.8046 34.0205 37.4089C34.4398 38.0132 34.7543 38.6483 34.964 39.3143C35.1983 40.0419 35.2476 40.6215 35.112 41.0532C34.9516 41.5095 34.557 41.6945 33.928 41.6082H33.9095L33.891 41.5897H33.8355C33.2189 41.4663 32.7441 41.1457 32.4111 40.6277C32.1275 40.1591 31.9671 39.5918 31.9301 38.9258C31.8931 38.2722 31.9671 37.7049 32.1521 37.2239Z" fill="url(#paint3_linear_805_1581)"/>
<path d="M28.1333 33.247C28.0223 33.1607 27.8866 33.0867 27.7263 33.025C27.566 32.9634 27.3995 32.9202 27.2268 32.8955C27.0665 32.8585 26.8938 32.8339 26.7089 32.8215C26.1786 32.8092 25.6606 32.8894 25.1549 33.062C24.6616 33.2224 24.2608 33.4628 23.9525 33.7835C23.6442 34.1288 23.4962 34.5111 23.5085 34.9304C23.5209 35.3867 23.7367 35.88 24.156 36.4104C24.267 36.546 24.4026 36.694 24.563 36.8543C24.6863 36.9777 24.8281 37.0887 24.9884 37.1873C25.1118 37.2613 25.2474 37.3291 25.3954 37.3908C25.5681 37.4525 25.7037 37.4833 25.8024 37.4833C26.2464 37.545 26.678 37.4525 27.0973 37.2058C27.5043 36.9715 27.8558 36.6385 28.1518 36.2069C28.4601 35.7629 28.6513 35.3066 28.7252 34.8379C28.7992 34.32 28.7067 33.8945 28.4478 33.5615C28.3491 33.4382 28.2443 33.3334 28.1333 33.247ZM27.7633 34.0055C27.8743 34.1535 27.899 34.3508 27.8373 34.5975C27.788 34.8318 27.677 35.0723 27.5043 35.3189C27.3317 35.5532 27.1343 35.7382 26.9123 35.8739C26.678 36.0219 26.4499 36.0835 26.2279 36.0589L26.0244 36.0219C25.9504 35.9972 25.8826 35.9602 25.8209 35.9109C25.7716 35.8862 25.7037 35.8369 25.6174 35.7629C25.5681 35.7136 25.5064 35.6457 25.4324 35.5594C25.2104 35.2758 25.1241 35.0168 25.1734 34.7824C25.1981 34.5728 25.3276 34.3878 25.5619 34.2275C25.7716 34.0795 26.0244 33.9685 26.3204 33.8945C26.6164 33.8205 26.9 33.7897 27.1713 33.802L27.3748 33.8205L27.5413 33.8575C27.5906 33.8822 27.6338 33.9068 27.6708 33.9315L27.7633 34.0055Z" fill="url(#paint4_linear_805_1581)"/>
<path d="M39.2006 14.5999C40.9272 14.5999 42.6044 14.8096 44.2323 15.2289C44.3557 14.4519 44.405 13.7243 44.3803 13.046C44.331 11.7141 43.998 10.6041 43.3814 9.71618C42.7278 8.7419 41.7658 8.07594 40.4955 7.71829C40.2119 7.63196 39.9097 7.5703 39.5891 7.5333C39.3054 7.4963 39.0156 7.49013 38.7196 7.5148C38.4483 7.5148 38.177 7.54563 37.9057 7.60729C37.6714 7.65663 37.4124 7.73679 37.1287 7.84778C36.2161 8.20543 35.3898 8.8344 34.6499 9.73468C33.9592 10.5486 33.3673 11.5599 32.8739 12.7685C32.467 13.7551 32.134 14.8096 31.875 15.9319C34.2059 15.0439 36.6477 14.5999 39.2006 14.5999Z" fill="url(#paint5_linear_805_1581)"/>
<path d="M20.1255 21.4258C19.8665 22.6344 20.0083 23.806 20.551 24.9406C20.736 25.3353 20.9641 25.7114 21.2355 26.0691C22.0987 23.9479 23.3752 22.0363 25.0647 20.3344C24.9661 20.2604 24.8428 20.1741 24.6948 20.0754C23.5355 19.2984 22.555 19.0086 21.7534 19.2059C21.5561 19.2553 21.3711 19.3416 21.1985 19.4649C21.0258 19.5759 20.8716 19.7239 20.736 19.9089C20.588 20.1062 20.4647 20.322 20.366 20.5564C20.255 20.84 20.1748 21.1298 20.1255 21.4258Z" fill="url(#paint6_linear_805_1581)"/>
<path d="M73.5767 35.7153C71.7108 35.7153 70.096 35.3206 68.7324 34.5311C67.3688 33.7417 66.3192 32.6114 65.5836 31.1401C64.848 29.6689 64.4802 27.9285 64.4802 25.9191C64.4802 23.8916 64.848 22.1513 65.5836 20.698C66.3192 19.2268 67.3688 18.0964 68.7324 17.307C70.096 16.5175 71.7108 16.1228 73.5767 16.1228C75.4606 16.1228 77.0843 16.5175 78.4479 17.307C79.8115 18.0964 80.8611 19.2268 81.5967 20.698C82.3323 22.1513 82.7001 23.8827 82.7001 25.8921C82.7001 27.9196 82.3234 29.6689 81.5698 31.1401C80.8342 32.6114 79.7846 33.7417 78.421 34.5311C77.0754 35.3206 75.4606 35.7153 73.5767 35.7153ZM73.5767 32.9702C75.335 32.9702 76.7165 32.3691 77.7213 31.167C78.726 29.947 79.2284 28.1887 79.2284 25.8921C79.2284 23.5956 78.726 21.8552 77.7213 20.6711C76.7165 19.469 75.335 18.8679 73.5767 18.8679C71.8364 18.8679 70.4638 19.469 69.4591 20.6711C68.4543 21.8552 67.9519 23.5956 67.9519 25.8921C67.9519 28.1887 68.4543 29.947 69.4591 31.167C70.4638 32.3691 71.8364 32.9702 73.5767 32.9702ZM89.7811 35.5L84.4524 21.9091H87.9242L91.7458 32.4319H91.0729L94.9215 21.9091H97.3705L101.192 32.4319H100.573L104.395 21.9091H107.651L102.322 35.5H99.389L95.2444 24.5465H96.7784L92.7146 35.5H89.7811ZM109.745 35.5V25.7576C109.745 25.1117 109.727 24.4658 109.692 23.8199C109.674 23.174 109.62 22.537 109.53 21.9091H112.706L113.002 24.6003L112.706 24.6811C113.136 23.6584 113.773 22.8869 114.617 22.3666C115.478 21.8283 116.465 21.5592 117.577 21.5592C120.806 21.5592 122.421 23.4251 122.421 27.157V35.5H119.057V27.2916C119.057 26.233 118.851 25.4615 118.438 24.9771C118.026 24.4747 117.389 24.2236 116.527 24.2236C115.487 24.2236 114.652 24.5555 114.024 25.2193C113.414 25.8652 113.109 26.7264 113.109 27.803V35.5H109.745ZM132.098 35.6884C130.681 35.6884 129.452 35.4103 128.411 34.8541C127.388 34.28 126.599 33.4726 126.043 32.4319C125.504 31.3734 125.235 30.1354 125.235 28.718C125.235 27.2826 125.522 26.0267 126.097 24.9502C126.671 23.8737 127.487 23.0394 128.546 22.4473C129.604 21.8552 130.842 21.5592 132.26 21.5592C133.21 21.5592 134.134 21.7117 135.032 22.0167C135.947 22.3217 136.691 22.7434 137.265 23.2816L136.296 25.6499C135.722 25.1834 135.112 24.8336 134.466 24.6003C133.82 24.3491 133.175 24.2236 132.529 24.2236C131.345 24.2236 130.403 24.6003 129.703 25.3539C129.021 26.1074 128.68 27.2109 128.68 28.6642C128.68 30.0995 129.021 31.194 129.703 31.9475C130.385 32.7011 131.336 33.0779 132.556 33.0779C133.184 33.0779 133.82 32.9612 134.466 32.728C135.112 32.4768 135.722 32.109 136.296 31.6246L137.265 33.9929C136.673 34.5311 135.911 34.9528 134.978 35.2578C134.063 35.5449 133.103 35.6884 132.098 35.6884ZM144.798 35.6884C143.614 35.6884 142.565 35.4103 141.65 34.8541C140.735 34.28 140.026 33.4726 139.523 32.4319C139.039 31.3734 138.797 30.1354 138.797 28.718C138.797 27.2826 139.048 26.0357 139.55 24.9771C140.053 23.9006 140.752 23.0663 141.65 22.4742C142.565 21.8642 143.614 21.5592 144.798 21.5592C145.947 21.5592 146.942 21.8463 147.786 22.4204C148.647 22.9766 149.23 23.7571 149.535 24.7618L149.212 24.9502V21.9091H152.522V35.5H149.212V32.4319L149.535 32.5396C149.23 33.5443 148.647 34.3248 147.786 34.881C146.942 35.4193 145.947 35.6884 144.798 35.6884ZM145.713 33.1048C146.826 33.1048 147.687 32.719 148.297 31.9475C148.907 31.176 149.212 30.0816 149.212 28.6642C149.212 27.2109 148.907 26.1074 148.297 25.3539C147.687 24.5824 146.826 24.1966 145.713 24.1966C144.583 24.1966 143.704 24.5914 143.076 25.3808C142.448 26.1702 142.134 27.2826 142.134 28.718C142.134 30.1174 142.448 31.2029 143.076 31.9744C143.704 32.728 144.583 33.1048 145.713 33.1048ZM161.165 35.6884C158.689 35.6884 156.733 35.1232 155.298 33.9929L156.24 31.6246C156.958 32.1628 157.738 32.5665 158.581 32.8356C159.425 33.1048 160.304 33.2393 161.219 33.2393C162.044 33.2393 162.672 33.1048 163.103 32.8356C163.533 32.5665 163.749 32.1897 163.749 31.7053C163.749 31.2926 163.596 30.9697 163.291 30.7364C162.986 30.4853 162.466 30.27 161.73 30.0905L159.47 29.5792C158.232 29.3101 157.299 28.8615 156.671 28.2336C156.061 27.5877 155.756 26.7713 155.756 25.7845C155.756 24.9592 155.989 24.2325 156.455 23.6046C156.922 22.9587 157.577 22.4563 158.42 22.0974C159.263 21.7386 160.241 21.5592 161.353 21.5592C162.322 21.5592 163.255 21.7117 164.152 22.0167C165.05 22.3038 165.83 22.7254 166.494 23.2816L165.525 25.5961C164.843 25.0758 164.143 24.69 163.426 24.4389C162.726 24.1877 162.026 24.0621 161.327 24.0621C160.555 24.0621 159.954 24.2056 159.523 24.4927C159.093 24.7798 158.878 25.1745 158.878 25.6768C158.878 26.0716 159.003 26.3855 159.254 26.6188C159.523 26.852 159.981 27.0404 160.627 27.184L162.914 27.7491C164.26 28.0362 165.238 28.5027 165.848 29.1486C166.476 29.7766 166.79 30.6108 166.79 31.6515C166.79 32.8895 166.287 33.8763 165.283 34.6119C164.278 35.3296 162.905 35.6884 161.165 35.6884ZM167.842 24.4389V21.9091H177.423V24.4389H167.842ZM177.423 32.7011V35.3654C177.064 35.491 176.705 35.5718 176.346 35.6077C176.006 35.6615 175.638 35.6884 175.243 35.6884C173.718 35.6884 172.534 35.2578 171.691 34.3966C170.865 33.5354 170.453 32.2974 170.453 30.6826V18.5988L173.817 17.4685V30.5211C173.817 31.1312 173.915 31.6156 174.113 31.9744C174.31 32.3153 174.57 32.5575 174.893 32.7011C175.234 32.8446 175.611 32.9164 176.023 32.9164C176.257 32.9164 176.481 32.8984 176.696 32.8626C176.912 32.8267 177.154 32.7728 177.423 32.7011Z" fill="black"/>
<defs>
<linearGradient id="paint0_linear_805_1581" x1="41.4509" y1="-8.24331" x2="51.1781" y2="-8.24331" gradientUnits="userSpaceOnUse">
<stop stop-color="#1F2022"/>
<stop offset="1" stop-color="#635E69"/>
</linearGradient>
<linearGradient id="paint1_linear_805_1581" x1="8.57063" y1="7.82558" x2="8.57063" y2="-13.1856" gradientUnits="userSpaceOnUse">
<stop stop-color="#2087E2"/>
<stop offset="1" stop-color="#B63FFF"/>
</linearGradient>
<linearGradient id="paint2_linear_805_1581" x1="31.4055" y1="7.58457" x2="42.2545" y2="7.58457" gradientUnits="userSpaceOnUse">
<stop stop-color="#100F0F"/>
<stop offset="1" stop-color="#49261F"/>
</linearGradient>
<linearGradient id="paint3_linear_805_1581" x1="9.52042" y1="-19.6043" x2="9.52042" y2="-29.1749" gradientUnits="userSpaceOnUse">
<stop stop-color="#222020"/>
<stop offset="1" stop-color="#49261F"/>
</linearGradient>
<linearGradient id="paint4_linear_805_1581" x1="16.3316" y1="-17.4946" x2="16.3316" y2="-22.176" gradientUnits="userSpaceOnUse">
<stop stop-color="#1E1C1C"/>
<stop offset="1" stop-color="#49261F"/>
</linearGradient>
<linearGradient id="paint5_linear_805_1581" x1="31.875" y1="7.5" x2="31.875" y2="15.9319" gradientUnits="userSpaceOnUse">
<stop stop-color="white" stop-opacity="0.5"/>
<stop offset="1" stop-color="white" stop-opacity="0.2"/>
</linearGradient>
<linearGradient id="paint6_linear_805_1581" x1="20" y1="19.146" x2="20" y2="26.0691" gradientUnits="userSpaceOnUse">
<stop stop-color="white" stop-opacity="0.5"/>
<stop offset="1" stop-color="white" stop-opacity="0.2"/>
</linearGradient>
</defs>
</svg>
