<svg width="193" height="56" viewBox="0 0 193 56" fill="none" xmlns="http://www.w3.org/2000/svg">
<path d="M74.8242 36.8117H86.7893V33.7078H78.372V16.3257H74.8242V36.8117Z" fill="#293147"/>
<path d="M93.0285 21.5331H89.5852V36.8114H93.0285V21.5331ZM91.3243 19.0155C92.4721 19.0155 93.4809 18.0498 93.4809 16.8772C93.4809 15.7046 92.4721 14.7734 91.3243 14.7734C90.1416 14.7734 89.1328 15.7046 89.1328 16.8772C89.1328 18.0498 90.1416 19.0155 91.3243 19.0155Z" fill="#293147"/>
<path d="M110.69 22.3271C109.124 21.6718 106.968 21.189 104.846 21.189C99.3853 21.189 95.9766 24.2929 95.9766 29.1902C95.9766 34.26 99.3853 37.157 104.359 37.157C105.577 37.157 106.689 36.9156 107.281 36.6742V43.02H110.69V22.3271ZM107.281 33.7082C106.411 34.0186 105.681 34.191 104.568 34.191C101.472 34.191 99.4548 32.2252 99.4548 29.1902C99.4548 26.0173 101.507 24.2239 104.846 24.2239C105.785 24.2239 106.585 24.3963 107.281 24.6033V33.7082Z" fill="#293147"/>
<path d="M127.246 21.5332H123.837V34.1214C122.933 34.2594 121.959 34.3284 121.194 34.3284C118.933 34.3284 117.542 33.5006 117.542 31.2244V21.5332H114.133V31.4658C114.133 35.7424 116.846 37.1564 121.263 37.1564C123.072 37.1564 125.437 36.915 127.246 36.4666V21.5332Z" fill="#293147"/>
<path d="M135.103 21.5331H131.659V36.8114H135.103V21.5331ZM133.399 19.0155C134.546 19.0155 135.555 18.0498 135.555 16.8772C135.555 15.7046 134.546 14.7734 133.399 14.7734C132.216 14.7734 131.207 15.7046 131.207 16.8772C131.207 18.0498 132.216 19.0155 133.399 19.0155Z" fill="#293147"/>
<path d="M137.711 24.3958H140.041V32.4316C140.041 35.9149 142.163 37.1565 144.667 37.1565C146.128 37.1565 147.38 36.8461 148.389 36.3288V33.2594C147.45 33.8111 146.581 34.1215 145.572 34.1215C144.25 34.1215 143.45 33.5007 143.45 31.6729V24.3958H147.833V21.5333H143.45V17.8086H140.041V21.5333H137.711V24.3958Z" fill="#293147"/>
<path d="M152.698 21.5332H149.012L155.377 37.5013L153.22 43.0194H156.594L164.942 21.5332H161.394L157.081 33.5696L152.698 21.5332Z" fill="#293147"/>
<path d="M43.3386 43.8076C52.0989 43.8076 59.2006 36.7059 59.2006 27.9455C59.2006 19.1852 52.0989 12.0835 43.3386 12.0835C34.5782 12.0835 27.4766 19.1852 27.4766 27.9455C27.4766 36.7059 34.5782 43.8076 43.3386 43.8076Z" fill="#2EB6EA"/>
<path d="M43.2517 43.8075C27.4758 43.8075 21.2496 23.0535 35.1844 14.3071C33.5272 31.6532 42.3427 32.0369 50.5232 31.6532C64.2309 31.0103 64.2401 43.8075 64.2401 43.8075H43.2517Z" fill="#1542CD"/>
<path fill-rule="evenodd" clip-rule="evenodd" d="M58.3331 33.1348C55.9467 39.2512 50.0782 43.6249 43.1641 43.8196C43.3266 43.8241 43.4901 43.8264 43.6547 43.8264H64.5113C64.5113 43.8264 64.506 36.3257 58.3331 33.1348Z" fill="#745DDF"/>
</svg>
