<svg width="216" height="52" viewBox="0 0 216 52" fill="none" xmlns="http://www.w3.org/2000/svg">
<path d="M195.218 24.2434C195.082 23.5713 194.811 22.9672 194.471 22.4293C194.132 21.8923 193.59 21.4896 193.047 21.2202C192.368 20.8846 191.623 20.7503 190.876 20.7503C189.723 20.7503 188.638 21.0188 187.689 21.6238C186.672 22.1608 185.925 23.0343 185.315 23.9749V15.5112H182.941V34.7898H185.383V26.4603C185.586 25.9224 185.79 25.4525 186.129 24.9827C186.4 24.579 186.807 24.1763 187.214 23.8407C187.621 23.5041 188.096 23.3028 188.57 23.0343C189.046 22.9001 189.52 22.7658 189.994 22.7658C190.876 22.6987 191.758 23.1014 192.233 23.8407C192.776 24.5119 192.979 25.5868 192.979 26.9972V34.6556H195.353V26.4603C195.421 25.721 195.353 24.9827 195.218 24.2434Z" fill="#2D8EFF"/>
<path d="M120.991 28.721C120.449 28.3854 119.838 28.117 119.227 27.9146C118.482 27.7133 117.668 27.4448 116.718 27.2434C116.108 27.1092 115.633 26.975 115.158 26.8398C114.752 26.7726 114.413 26.5713 114.073 26.437C113.802 26.3028 113.598 26.1014 113.463 25.9001C113.327 25.6306 113.259 25.3622 113.259 25.0937C113.191 24.4215 113.531 23.7504 114.208 23.4148C114.887 23.0782 115.633 22.8768 116.447 22.8768C117.261 22.8768 118.007 23.0111 118.821 23.2124C119.635 23.4148 120.245 23.8846 120.856 24.3544L121.941 22.944C121.262 22.407 120.449 21.9362 119.567 21.6677C118.55 21.3321 117.532 21.1308 116.515 21.1979C115.769 21.1979 115.09 21.265 114.344 21.4664C113.734 21.6006 113.123 21.9362 112.581 22.2718C112.038 22.6084 111.699 23.0782 111.36 23.6161C111.089 24.1531 110.953 24.8252 110.953 25.4293C110.953 25.9001 111.021 26.3699 111.225 26.8398C111.428 27.2434 111.767 27.579 112.106 27.7804C112.581 28.0489 113.123 28.3183 113.666 28.4525C114.276 28.6539 115.023 28.8553 115.905 29.0566C116.582 29.1909 117.193 29.3932 117.668 29.5274C118.075 29.6617 118.55 29.7959 118.956 29.9972C119.227 30.1315 119.499 30.3328 119.703 30.6023C119.906 30.8708 119.974 31.1392 119.974 31.4748C120.042 32.147 119.635 32.7511 119.024 33.1547C118.279 33.6246 117.397 33.8259 116.515 33.7588C115.633 33.7588 114.684 33.6246 113.802 33.289C112.852 32.9534 112.038 32.4826 111.225 31.8785L110.207 33.4232C111.089 34.0954 112.038 34.6323 113.123 34.9008C114.208 35.2374 115.361 35.4387 116.515 35.4387C118.279 35.4387 119.703 35.1022 120.72 34.2967C121.738 33.4903 122.28 32.3483 122.28 31.1392C122.28 30.6023 122.212 30.1315 121.941 29.6617C121.806 29.3261 121.466 28.9895 120.991 28.721Z" fill="#2D8EFF"/>
<path d="M163.925 21.1961C162.975 21.2632 162.093 21.5988 161.348 22.2038C160.466 22.8079 159.856 23.6143 159.38 24.5549V21.3303H157.074V35.1013H159.584V26.6376C159.855 25.6969 160.601 24.8234 161.483 24.2865C162.501 23.7485 163.586 23.4129 164.739 23.4129V21.3303C164.604 21.3303 164.535 21.2632 164.399 21.2632L163.925 21.1961Z" fill="#2D8EFF"/>
<path d="M150.702 30.9364C150.634 31.3391 150.499 31.7428 150.16 31.9441C149.752 32.4811 149.142 32.9519 148.464 33.1532C147.717 33.4888 146.904 33.623 146.022 33.623C145.615 33.623 145.14 33.5559 144.801 33.4217C144.394 33.2875 144.055 33.0861 143.783 32.8847C143.512 32.6153 143.241 32.3468 143.106 32.0112C142.901 31.6756 142.834 31.3391 142.901 30.9364C142.901 30.13 143.309 29.4588 144.055 29.0551C144.937 28.5181 145.954 28.2497 147.039 28.3168C148.328 28.3168 149.549 28.5181 150.702 28.988V30.9364ZM153.144 32.2797V26.6369C153.144 24.8908 152.601 23.4804 151.584 22.5397C150.499 21.532 149.074 21.0621 147.107 21.0621C145.072 21.1293 143.106 21.7333 141.477 22.8753L142.292 24.3529C143.919 23.278 145.412 22.7411 146.904 22.7411C148.802 22.5397 150.566 23.8831 150.77 25.6972C150.837 25.8986 150.837 26.167 150.77 26.3684V27.4433C150.16 27.1748 149.549 27.0406 148.87 26.9734C148.125 26.8382 147.446 26.8382 146.701 26.7721C145.886 26.7721 145.004 26.8382 144.259 27.1077C143.58 27.309 142.901 27.5775 142.359 27.9812C141.816 28.3168 141.342 28.7866 141.071 29.3245C140.8 29.8615 140.664 30.4665 140.664 31.0035C140.664 31.5404 140.8 32.2126 141.071 32.6834C141.342 33.2203 141.681 33.6902 142.088 34.0267C142.495 34.4294 143.106 34.6979 143.648 34.8993C144.259 35.1006 144.869 35.2358 145.547 35.2358C146.633 35.2358 147.717 35.0345 148.735 34.5637C149.752 34.161 150.566 33.4888 151.176 32.6834L151.244 33.6902C151.312 34.0267 151.448 34.4294 151.787 34.6979C152.058 34.9664 152.534 35.1006 152.94 35.1006C153.144 35.2358 153.279 35.2358 153.482 35.1687L154.093 35.1006V33.0861C153.415 33.1532 153.144 32.8176 153.144 32.2797Z" fill="#2D8EFF"/>
<path d="M176.543 32.0128C176.272 32.2812 176.001 32.4826 175.661 32.6849C175.322 32.8863 174.916 33.0205 174.508 33.1547C174.101 33.289 173.627 33.289 173.219 33.289C172.609 33.289 171.931 33.1547 171.321 32.8863C170.71 32.6178 170.235 32.2141 169.76 31.8114C169.353 31.3406 168.947 30.7365 168.743 30.1315V30.2667C168.471 29.5945 168.336 28.9224 168.336 28.2512C168.336 27.579 168.471 26.8407 168.743 26.2357C168.947 25.6316 169.286 25.0937 169.76 24.6239C170.168 24.1531 170.71 23.8175 171.321 23.549C171.931 23.2805 172.542 23.2134 173.219 23.2134C173.966 23.2134 174.779 23.3476 175.458 23.7504C176.069 24.0859 176.679 24.6239 177.017 25.2279L179.391 24.4896C178.849 23.4819 178.035 22.6084 177.017 22.0714C175.932 21.4664 174.576 21.1308 173.287 21.1979C172.27 21.1979 171.253 21.3321 170.303 21.7348C169.421 22.0714 168.607 22.6084 167.997 23.2805C167.386 23.9517 166.844 24.691 166.505 25.4974C165.759 27.3106 165.759 29.2589 166.505 31.005C166.844 31.8785 167.386 32.6178 167.997 33.289C169.353 34.6994 171.321 35.4387 173.287 35.4387C174.643 35.4387 176.001 35.1031 177.153 34.431C177.696 34.1625 178.17 33.7598 178.578 33.3561C178.985 32.9534 179.256 32.4826 179.527 31.9456L177.153 31.2735C176.95 31.5429 176.814 31.8114 176.543 32.0128Z" fill="#2D8EFF"/>
<path d="M126.823 27.3093C126.891 26.7052 127.027 26.1002 127.298 25.4952C127.57 24.9582 127.909 24.4884 128.383 24.0847C128.791 23.682 129.333 23.4135 129.876 23.145C131.639 22.4729 133.674 22.8085 135.03 24.0176C135.437 24.4213 135.845 24.8911 136.116 25.428C136.387 26.0331 136.59 26.6372 136.658 27.2422H126.823V27.3093ZM136.998 23.2122C135.64 21.8007 133.674 21.0624 131.707 21.1295C130.689 21.1295 129.672 21.2638 128.723 21.6665C127.841 22.0031 127.027 22.54 126.349 23.2122C125.738 23.8833 125.128 24.6226 124.788 25.4952C124.382 26.3687 124.246 27.3093 124.246 28.25C124.246 29.1906 124.449 30.1302 124.788 31.0038C125.128 31.8773 125.67 32.6166 126.281 33.2877C126.891 33.9599 127.705 34.4968 128.655 34.8324C129.604 35.169 130.621 35.3704 131.639 35.3704C132.318 35.3704 133.063 35.3032 133.742 35.1019C134.352 34.9676 134.963 34.6982 135.505 34.3626C136.048 34.0941 136.522 33.6905 136.929 33.2877C137.337 32.885 137.675 32.4142 137.946 31.8773L135.845 31.3394C135.64 31.6759 135.437 32.0115 135.234 32.28C134.963 32.5485 134.624 32.8179 134.216 33.0193C133.81 33.2206 133.471 33.3549 132.995 33.4891C132.589 33.6233 132.113 33.6233 131.707 33.6233C131.097 33.6233 130.486 33.4891 129.944 33.2877C129.401 33.0193 128.858 32.7508 128.451 32.3471C127.976 31.9444 127.638 31.4746 127.365 30.8695C127.094 30.2655 126.891 29.6604 126.823 28.9883H138.828V28.5184V27.9815C138.828 27.108 138.625 26.1673 138.286 25.3609C138.083 24.6897 137.608 23.8833 136.998 23.2122Z" fill="#2D8EFF"/>
<path d="M79.89 23.8837C79.6866 24.3536 79.4833 24.7573 79.2113 25.16C78.9402 25.4956 78.6013 25.8321 78.126 26.0335C77.6516 26.2348 77.245 26.3691 76.7018 26.302H70.9364V18.5094H76.4985C76.9739 18.5094 77.4483 18.5765 77.8549 18.7788C78.2625 18.9802 78.6691 19.2487 79.008 19.5843C79.6866 20.3906 80.0933 21.3313 80.0933 22.339C80.161 22.9431 80.0933 23.4139 79.89 23.8837ZM81.043 18.2409C80.4999 17.704 79.89 17.2332 79.1435 16.8304C78.398 16.4948 77.5838 16.2935 76.7696 16.2935H68.5625V35.0352H71.0729V28.3175H76.9739C77.7871 28.3175 78.6013 28.1832 79.3478 27.8467C80.0255 27.5111 80.7042 27.0412 81.1786 26.5033C81.7217 25.9664 82.1283 25.2271 82.3317 24.5559C82.6027 23.8166 82.7383 23.0773 82.7383 22.339C82.7383 21.5998 82.6027 20.8605 82.3317 20.1222C81.9928 19.5171 81.5174 18.8459 81.043 18.2409Z" fill="#2D8EFF"/>
<path d="M92.3025 21.2644C91.3527 21.3316 90.4707 21.6672 89.7252 22.2722C88.8432 22.8763 88.2333 23.6827 87.7579 24.6233V21.3987H85.5195V35.1697H87.9612V26.6388C88.3011 25.6982 88.9788 24.8247 89.9285 24.2877C90.9461 23.7498 92.0314 23.4142 93.1844 23.4142V21.3316C93.0489 21.3316 92.9811 21.2644 92.8446 21.2644H92.3025Z" fill="#2D8EFF"/>
<path d="M96.7087 27.3106C96.7765 26.7065 96.912 26.1014 97.1831 25.4964C97.4551 24.9595 97.794 24.4896 98.2684 24.0859C98.676 23.6832 99.2181 23.4148 99.7613 23.1463C101.524 22.4741 103.559 22.8097 104.916 24.0188C105.322 24.4225 105.73 24.8923 106.001 25.4293C106.272 26.0343 106.475 26.6384 106.543 27.2434H96.7087V27.3106ZM108.849 28.6539V28.117C108.849 27.2434 108.646 26.3028 108.307 25.4964C107.967 24.691 107.493 23.8846 106.883 23.2805C105.526 21.8691 103.559 21.1308 101.592 21.1979C100.575 21.1979 99.557 21.3321 98.6082 21.7348C96.8442 22.4741 95.4201 23.8175 94.7414 25.5645C94.3348 26.437 94.1992 27.3777 94.1992 28.3183C94.1992 29.2589 94.4025 30.1986 94.7414 31.0721C95.0812 31.9456 95.6234 32.6849 96.2343 33.3561C96.8442 34.0283 97.6584 34.5652 98.6082 34.9008C99.557 35.2374 100.575 35.4387 101.592 35.4387C102.271 35.4387 103.016 35.3716 103.695 35.1702C104.305 35.036 104.916 34.7666 105.458 34.431C106.001 34.1625 106.475 33.7598 106.883 33.3561C107.29 32.9534 107.629 32.4826 107.9 31.9456L105.798 31.4087C105.661 31.7443 105.39 32.0799 105.187 32.3483C104.916 32.6178 104.577 32.8863 104.169 33.0876C103.763 33.289 103.424 33.4232 102.948 33.5575C102.542 33.6917 102.066 33.6917 101.66 33.6917C101.05 33.6917 100.439 33.5575 99.8968 33.3561C99.3537 33.0876 98.8115 32.8191 98.4039 32.4155C97.9295 32.0128 97.5907 31.5429 97.3186 30.9379C97.0475 30.3338 96.8442 29.7288 96.7765 29.0576H108.782C108.849 28.9224 108.849 28.7881 108.849 28.6539Z" fill="#2D8EFF"/>
<path d="M33.3595 19.9868H36.4799C36.9543 20.0539 37.3609 20.1881 37.633 20.5237C37.9718 20.8603 38.2429 21.5315 38.2429 22.4721C38.2429 23.4798 38.0396 24.0168 37.7007 24.3534C37.4287 24.6889 37.0898 24.8903 36.6832 24.8903H33.4273V19.9868H33.3595ZM33.3595 30.5331H37.022C38.0396 30.5331 39.1249 30.3318 40.0747 29.861C40.9557 29.3911 41.7699 28.8542 42.4486 28.0478C43.0585 27.3085 43.6017 26.3679 43.9405 25.4282C44.2794 24.4876 44.4827 23.4798 44.4827 22.405C44.4827 21.3972 44.2794 20.4566 43.8727 19.4498C43.5339 18.5763 42.9907 17.6357 42.3121 16.8964C41.6344 16.1581 40.8201 15.4859 39.9381 15.0832C38.9894 14.6124 37.9718 14.3439 36.8865 14.3439H27.1875V37.5864H33.3595V30.5331Z" fill="#2D8EFF"/>
<path d="M51.1999 40.3417H26.5786C25.3578 40.3417 24.408 39.401 24.408 38.1919V13.8074C24.408 12.5983 25.3578 11.6587 26.5786 11.6587H51.1999C52.4207 11.6587 53.3705 12.5983 53.3705 13.8074V38.1919C53.3705 39.401 52.4207 40.3417 51.1999 40.3417ZM20 9.44179V42.5585C20 43.7676 20.9488 44.7083 22.1696 44.7083H55.6089C56.8297 44.7083 57.7785 43.7676 57.7785 42.5585V9.44179C57.7785 8.23268 56.8297 7.29205 55.6089 7.29205H22.1696C21.0175 7.29205 20 8.2998 20 9.44179Z" fill="#2D8EFF"/>
<path d="M36.1406 33.2871H50.6553V37.7209H36.1406V33.2871Z" fill="#2D8EFF"/>
</svg>
