<svg width="231" height="52" viewBox="0 0 231 52" fill="none" xmlns="http://www.w3.org/2000/svg">
<g clip-path="url(#clip0_757_362)">
<path d="M72.9414 33.6543L80.0247 24.5576C81.1223 23.1918 83.1164 21.1326 83.1164 21.1326H73.3612V15.9385H90.1086V20.1565L82.987 29.1241C81.8 30.6569 79.805 32.7263 79.805 32.7263H90.4397V37.9128H72.9414V33.6543Z" fill="#DA4DFC"/>
<path d="M92.8251 26.9259C92.8068 25.424 93.078 23.9334 93.6228 22.5416C94.1675 21.1498 94.9748 19.8848 95.9974 18.8209C97.0199 17.7569 98.2371 16.9154 99.5775 16.3457C100.918 15.7761 102.355 15.4897 103.803 15.5034C109.569 15.5034 114.103 20.6013 114.103 26.8466C114.098 27.5514 114.057 28.2554 113.979 28.9556H98.5814C99.2591 31.9842 101.673 33.4394 104.471 33.4394C106.497 33.4526 108.482 32.8578 110.189 31.7269L112.305 35.9449C109.961 37.5331 107.219 38.3729 104.419 38.3602C98.247 38.3585 92.8251 34.1809 92.8251 26.9259ZM108.758 25.0455C108.596 23.7593 107.985 22.5793 107.041 21.7291C106.096 20.8789 104.883 20.4176 103.632 20.4326C102.392 20.4577 101.2 20.9332 100.263 21.7761C99.3267 22.6191 98.7049 23.776 98.5065 25.0455H108.758Z" fill="#DA4DFC"/>
<path d="M117.828 9H123.508V37.9223H117.828V9Z" fill="#DA4DFC"/>
<path d="M127.191 26.925C127.201 25.401 127.502 23.8941 128.078 22.4919C128.654 21.0898 129.494 19.8204 130.547 18.7575C131.601 17.6947 132.847 16.8596 134.215 16.3008C135.582 15.742 137.043 15.4706 138.513 15.5025C141.284 15.4795 143.973 16.4754 146.102 18.3134L142.666 22.4412C141.554 21.4313 140.114 20.897 138.637 20.9463C137.116 20.9821 135.67 21.6399 134.614 22.7763C133.559 23.9127 132.979 25.4357 133.002 27.0133C133.024 28.5909 133.648 30.0953 134.735 31.1987C135.823 32.302 137.287 32.9149 138.809 32.9037C140.512 32.9223 142.16 32.2799 143.429 31.1026L146.44 35.4978C144.206 37.3891 141.4 38.4021 138.516 38.3584C137.046 38.3897 135.584 38.1175 134.216 37.5578C132.848 36.9982 131.601 36.1621 130.547 35.0982C129.493 34.0344 128.654 32.764 128.078 31.3609C127.502 29.9578 127.2 28.4499 127.191 26.925Z" fill="#DA4DFC"/>
<path d="M148.048 26.9256C147.982 24.5845 148.592 22.2764 149.799 20.2968C151.006 18.3172 152.756 16.7563 154.824 15.814C156.892 14.8717 159.184 14.5908 161.407 15.0074C163.63 15.424 165.682 16.5191 167.301 18.1523C168.92 19.7856 170.032 21.8828 170.494 24.1753C170.957 26.4678 170.749 28.8512 169.897 31.0204C169.045 33.1896 167.588 35.0458 165.713 36.3512C163.837 37.6567 161.629 38.352 159.37 38.3481C157.9 38.3801 156.439 38.1088 155.072 37.5501C153.704 36.9914 152.457 36.1563 151.404 35.0934C150.35 34.0305 149.511 32.7611 148.935 31.3589C148.359 29.9567 148.057 28.4497 148.048 26.9256ZM164.916 26.9256C164.875 25.7955 164.515 24.7026 163.88 23.7832C163.244 22.8638 162.363 22.1584 161.344 21.7549C160.325 21.3514 159.214 21.2676 158.149 21.5139C157.085 21.7602 156.114 22.3257 155.357 23.1401C154.6 23.9545 154.091 24.9817 153.893 26.0939C153.695 27.206 153.817 28.354 154.244 29.3948C154.67 30.4356 155.383 31.3233 156.292 31.9473C157.202 32.5714 158.269 32.9042 159.359 32.9043C160.108 32.9096 160.851 32.7569 161.541 32.4556C162.231 32.1542 162.855 31.7104 163.375 31.1512C163.894 30.5919 164.299 29.929 164.564 29.2026C164.829 28.4761 164.948 27.7015 164.916 26.9256Z" fill="#DA4DFC"/>
<path d="M174.418 15.9384H180.012V20.1564C180.604 18.3553 182.771 15.4946 187.43 15.4946V21.9061C182.513 21.9061 180.099 24.2319 180.099 29.4682V37.9119H174.418V15.9384Z" fill="#DA4DFC"/>
<path d="M189.724 26.9259C189.705 25.424 189.976 23.9334 190.521 22.5416C191.066 21.1498 191.873 19.8848 192.896 18.8209C193.918 17.7569 195.136 16.9154 196.476 16.3457C197.816 15.7761 199.253 15.4897 200.702 15.5034C206.468 15.5034 211.002 20.6013 211.002 26.8466C210.997 27.5514 210.956 28.2554 210.878 28.9556H195.48C196.158 31.9842 198.572 33.4394 201.37 33.4394C203.395 33.4526 205.381 32.8578 207.088 31.7269L209.203 35.9449C206.859 37.5329 204.118 38.3727 201.318 38.3602C195.146 38.3585 189.724 34.1809 189.724 26.9259ZM205.656 25.0455C205.495 23.7593 204.884 22.5793 203.939 21.7291C202.994 20.8789 201.782 20.4176 200.531 20.4326C199.291 20.4577 198.098 20.9332 197.162 21.7761C196.225 22.6191 195.603 23.776 195.405 25.0455H205.656Z" fill="#DA4DFC"/>
<path d="M54.136 32.9146V17.0277L40.8668 9.08936L27.5977 17.0277V32.9146L40.8668 40.8631L54.136 32.9146Z" fill="url(#paint0_linear_757_362)"/>
<path opacity="0.56" d="M40.8595 25.0058L27.5977 17.0674V32.9146L40.8595 40.853V25.0058Z" fill="url(#paint1_linear_757_362)"/>
<path opacity="0.56" d="M40.8594 40.852L40.8691 40.8621L54.1383 32.9136V17.0673L54.1286 17.0571L40.8594 25.0056V40.852Z" fill="url(#paint2_linear_757_362)"/>
<path d="M52.4542 20.7397L43.1562 26.3025V37.428L52.4542 43.0009L61.7521 37.428V26.3025L52.4542 20.7397Z" fill="white"/>
<path d="M29.2979 20.7397L20 26.3025V37.428L29.2979 43.0009L38.5959 37.428V26.3025L29.2979 20.7397Z" fill="white"/>
<path d="M52.4542 31.8643L43.1562 26.3015L52.4542 20.7388L61.7521 26.3015L52.4542 31.8643Z" fill="white"/>
<path d="M52.4542 43.0002L43.1562 37.4273V26.3018L52.4542 31.8645V43.0002Z" fill="url(#paint3_linear_757_362)"/>
<path d="M61.7589 37.4273L52.4609 43.0002V31.8645L61.7589 26.3018V37.4273Z" fill="url(#paint4_linear_757_362)"/>
<path d="M29.2979 31.8643L20 26.3015L29.2979 20.7388L38.5959 26.3015L29.2979 31.8643Z" fill="white"/>
<path d="M29.2979 43.0002L20 37.4273V26.3018L29.2979 31.8645V43.0002Z" fill="url(#paint5_linear_757_362)"/>
<path d="M38.5987 37.4273L29.3008 43.0002V31.8645L38.5987 26.3018V37.4273Z" fill="url(#paint6_linear_757_362)"/>
</g>
<defs>
<linearGradient id="paint0_linear_757_362" x1="54.0033" y1="67.1717" x2="27.6242" y2="67.1717" gradientUnits="userSpaceOnUse">
<stop stop-color="#4171F7"/>
<stop offset="1" stop-color="#F74BDA"/>
</linearGradient>
<linearGradient id="paint1_linear_757_362" x1="29.3084" y1="74.2479" x2="38.2481" y2="72.4958" gradientUnits="userSpaceOnUse">
<stop stop-color="white" stop-opacity="0"/>
<stop offset="1" stop-color="white" stop-opacity="0.4"/>
</linearGradient>
<linearGradient id="paint2_linear_757_362" x1="42.0146" y1="68.2854" x2="53.137" y2="70.1029" gradientUnits="userSpaceOnUse">
<stop stop-color="#231F20" stop-opacity="0.4"/>
<stop offset="1" stop-color="#231F20" stop-opacity="0"/>
</linearGradient>
<linearGradient id="paint3_linear_757_362" x1="46.2339" y1="68.8326" x2="52.9743" y2="79.5944" gradientUnits="userSpaceOnUse">
<stop stop-color="#EAE8FC"/>
<stop offset="0.52" stop-color="#F7F7FE"/>
<stop offset="1" stop-color="white"/>
</linearGradient>
<linearGradient id="paint4_linear_757_362" x1="58.3744" y1="71.2872" x2="52.2289" y2="79.5276" gradientUnits="userSpaceOnUse">
<stop stop-color="#DAD4F4"/>
<stop offset="0.65" stop-color="#F1EFFB"/>
<stop offset="1" stop-color="white"/>
</linearGradient>
<linearGradient id="paint5_linear_757_362" x1="23.0776" y1="68.8326" x2="29.818" y2="79.5944" gradientUnits="userSpaceOnUse">
<stop stop-color="#EAE8FC"/>
<stop offset="0.52" stop-color="#F7F7FE"/>
<stop offset="1" stop-color="white"/>
</linearGradient>
<linearGradient id="paint6_linear_757_362" x1="35.2143" y1="71.2872" x2="29.0687" y2="79.5276" gradientUnits="userSpaceOnUse">
<stop stop-color="#DAD4F4"/>
<stop offset="0.65" stop-color="#F1EFFB"/>
<stop offset="1" stop-color="white"/>
</linearGradient>
<clipPath id="clip0_757_362">
<rect width="191" height="34" fill="white" transform="translate(20 9)"/>
</clipPath>
</defs>
</svg>
