
<svg width="151" height="28" viewBox="0 0 151 28" fill="none" xmlns="http://www.w3.org/2000/svg">
<path d="M150.378 13.1214L140.674 0.588783C140.421 0.252335 139.914 0 139.493 0H94.769V28H139.999C140.421 28 140.758 27.8318 141.011 27.4953L150.462 15.3925C150.884 14.7196 150.884 13.7943 150.378 13.1214ZM115.949 23.0466H100.76V4.79437H115.612V9.42052H106.836V11.5233H114.599V15.9812H106.836V18.3364H115.949V23.0466ZM130.632 23.0466L127.51 18.1682L124.388 23.0466H117.384L123.966 13.8784L117.553 4.87849H124.472L127.594 9.50463L130.632 4.87849H137.299L130.97 13.7102L137.72 23.1307H130.632V23.0466Z" fill="black"/>
<path fill-rule="evenodd" clip-rule="evenodd" d="M100.736 23.0472H115.925V18.3369H106.811V15.9818H114.575V11.5239H106.811V9.42107H115.587V4.79492H100.736V23.0472ZM127.486 18.1687L130.608 23.0472V23.1313H137.696L130.945 13.7108L137.274 4.87903H130.608L127.57 9.50518L124.448 4.87903H117.528L123.941 13.879L117.359 23.0472H124.363L127.486 18.1687Z" fill="white"/>
<path opacity="0.95" fill-rule="evenodd" clip-rule="evenodd" d="M4.00546 17.2674C4.13262 18.1848 4.38238 18.8705 4.75475 19.3246C5.43597 20.1512 6.60306 20.5644 8.25607 20.5644C9.24608 20.5644 10.0499 20.4554 10.6675 20.2375C11.8392 19.8197 12.4251 19.0431 12.4251 17.9078C12.4251 17.2447 12.1344 16.7316 11.5531 16.3683C10.9718 16.0141 10.059 15.7007 8.81468 15.4282L6.68935 14.9514C4.60033 14.4791 3.15622 13.9659 2.35694 13.4118C1.00361 12.4854 0.326947 11.0367 0.326947 9.06583C0.326947 7.26744 0.980897 5.77341 2.28881 4.58355C3.59671 3.39376 5.51765 2.79883 8.05173 2.79883C10.168 2.79883 11.9732 3.35966 13.4669 4.48138C14.9611 5.60311 15.7446 7.23113 15.8175 9.36557H11.7847C11.712 8.15756 11.1852 7.29926 10.2043 6.79062C9.55037 6.45457 8.7375 6.28654 7.76565 6.28654C6.68479 6.28654 5.82194 6.50455 5.1771 6.9405C4.53219 7.37644 4.2098 7.98497 4.2098 8.76609C4.2098 9.48362 4.5277 10.0195 5.16344 10.3737C5.57218 10.6099 6.44408 10.8869 7.77925 11.2048L11.2398 12.0359C12.7563 12.3992 13.901 12.885 14.6728 13.4936C15.8722 14.4382 16.4715 15.8051 16.4715 17.5944C16.4715 19.4291 15.77 20.9527 14.3663 22.1652C12.9632 23.3778 10.9809 23.984 8.41961 23.984C5.80379 23.984 3.74659 23.3868 2.24794 22.1925C0.749291 20.9981 0 19.3564 0 17.2674H4.00546ZM17.7386 11.5181V8.75249H19.8093V4.61082H23.6514V8.75249H26.0625V11.5181H23.6514V19.3655C23.6514 19.974 23.7282 20.3532 23.8824 20.5031C24.0373 20.653 24.5091 20.7279 25.2998 20.7279C25.4176 20.7279 25.5425 20.7257 25.674 20.7211C25.8061 20.7165 25.9356 20.7097 26.0625 20.7007V23.6026L24.2234 23.6707C22.3889 23.7343 21.1356 23.4164 20.4633 22.717C20.0273 22.2719 19.8093 21.5862 19.8093 20.6598V11.5181H17.7386ZM34.4138 11.4228C33.5151 11.4228 32.8175 11.7044 32.3229 12.2675C31.8276 12.8306 31.5166 13.5935 31.3897 14.5563H37.4249C37.3611 13.53 37.05 12.7511 36.4917 12.2198C35.9333 11.6884 35.2403 11.4228 34.4138 11.4228ZM34.4138 8.22114C35.6489 8.22114 36.7617 8.45274 37.7516 8.91596C38.742 9.37917 39.5594 10.1103 40.2043 11.1094C40.7854 11.9904 41.1622 13.0122 41.3347 14.1748C41.4349 14.856 41.4759 15.8369 41.4577 17.1176H31.294C31.3487 18.6071 31.8166 19.6516 32.6977 20.2511C33.2333 20.6235 33.8782 20.8097 34.6318 20.8097C35.4316 20.8097 36.0804 20.5826 36.5802 20.1285C36.8529 19.8832 37.0936 19.5426 37.3025 19.1067H41.267C41.1668 19.9877 40.708 20.8823 39.8906 21.7906C38.619 23.2347 36.8392 23.9568 34.5504 23.9568C32.6613 23.9568 30.9947 23.3482 29.55 22.1312C28.1059 20.9141 27.3842 18.9341 27.3842 16.1911C27.3842 13.6207 28.0356 11.6498 29.3391 10.2783C30.6426 8.90685 32.3339 8.22114 34.4138 8.22114ZM52.261 16.2457C52.0163 16.4 51.7684 16.5249 51.5192 16.6203C51.2693 16.7156 50.9263 16.8042 50.4903 16.8859L49.6183 17.0494C48.8009 17.1948 48.2152 17.3719 47.8606 17.5808C47.2612 17.935 46.9618 18.4845 46.9618 19.2293C46.9618 19.8923 47.1454 20.3714 47.5137 20.6666C47.8814 20.9618 48.3285 21.1094 48.8556 21.1094C49.6912 21.1094 50.461 20.8641 51.1645 20.3737C51.8686 19.8832 52.2344 18.9886 52.261 17.6898V16.2457ZM49.9046 14.4337C50.6218 14.3428 51.1352 14.2293 51.4437 14.0931C51.9981 13.8569 52.2747 13.4891 52.2747 12.9895C52.2747 12.381 52.0638 11.9609 51.6415 11.7293C51.2192 11.4977 50.599 11.3819 49.7816 11.3819C48.8647 11.3819 48.2152 11.609 47.8339 12.0631C47.5612 12.3992 47.3796 12.8533 47.2885 13.4255H43.5421C43.6241 12.1266 43.9872 11.0594 44.6321 10.2239C45.6584 8.91596 47.42 8.262 49.9183 8.262C51.5439 8.262 52.9879 8.58446 54.2504 9.2293C55.5129 9.87421 56.1441 11.0913 56.1441 12.8806V19.6925C56.1441 20.1648 56.1533 20.737 56.1715 21.4091C56.1988 21.9177 56.2756 22.2629 56.4031 22.4445C56.53 22.6262 56.7207 22.776 56.9752 22.8941V23.4663H52.7517C52.6339 23.1666 52.5519 22.885 52.5064 22.6216C52.4615 22.3582 52.425 22.0585 52.3977 21.7224C51.8615 22.3038 51.2439 22.7987 50.545 23.2075C49.7094 23.6889 48.7645 23.9295 47.7109 23.9295C46.367 23.9295 45.2562 23.5458 44.3796 22.7783C43.5037 22.0109 43.0651 20.9232 43.0651 19.5154C43.0651 17.6898 43.7692 16.3683 45.1768 15.5508C45.9493 15.1058 47.0842 14.7879 48.5829 14.5971L49.9046 14.4337ZM63.5557 23.4663H59.6726V3.38465H63.5557V23.4663ZM65.8171 11.5181V8.75249H67.8879V4.61082H71.73V8.75249H74.1411V11.5181H71.73V19.3655C71.73 19.974 71.8074 20.3532 71.9617 20.5031C72.1159 20.653 72.5883 20.7279 73.3784 20.7279C73.4968 20.7279 73.6211 20.7257 73.7532 20.7211C73.8847 20.7165 74.0142 20.7097 74.1411 20.7007V23.6026L72.302 23.6707C70.4675 23.7343 69.2141 23.4164 68.5419 22.717C68.1059 22.2719 67.8879 21.5862 67.8879 20.6598V11.5181H65.8171ZM84.8227 8.2348C85.7397 8.2348 86.5733 8.39372 87.3223 8.71162C88.072 9.02952 88.687 9.51544 89.1685 10.1694C89.5772 10.7234 89.8271 11.2933 89.9176 11.8792C90.0087 12.465 90.0542 13.4209 90.0542 14.747V23.4663H86.0898V14.4337C86.0898 13.6344 85.9531 12.9896 85.6811 12.4991C85.3264 11.8088 84.6542 11.4636 83.6644 11.4636C82.6381 11.4636 81.8592 11.8065 81.3281 12.4922C80.7965 13.178 80.5309 14.1566 80.5309 15.4282V23.4663H76.6615V3.45278H80.5309V10.5508C81.0938 9.68796 81.7459 9.08626 82.4858 8.74565C83.2264 8.40504 84.0054 8.2348 84.8227 8.2348Z" fill="black"/>
</svg>