<svg width="53" height="32" viewBox="0 0 53 32" fill="none" xmlns="http://www.w3.org/2000/svg">
  <path d="M10.687 31.3795H2.11101L14.7331 6.38232H0V5.81297e-05H22.6054V5.93911L10.687 31.3795Z" fill="#2395ff"/>
  <path
    d="M53 20.2549C53 21.7913 52.7654 23.2687 52.2963 24.687C51.8272 26.1053 51.1382 27.361 50.2293 28.4543C49.3497 29.518 48.2649 30.3749 46.9748 31.0249C45.6848 31.675 44.2188 32 42.5769 32C41.1109 32 39.7183 31.7045 38.3989 31.1136C37.1088 30.4931 36.1119 29.6214 35.4083 28.4986H35.3203V31.3795H28.6794V4.20813L35.8921 0V11.6565H35.98C36.5957 10.9179 37.4606 10.2383 38.5748 9.61777C39.6889 8.99727 41.0523 8.68702 42.6649 8.68702C44.2481 8.68702 45.6701 8.99727 46.9309 9.61777C48.2209 10.2383 49.3057 11.0804 50.1853 12.1441C51.0942 13.2078 51.7832 14.4488 52.2524 15.8671C52.7508 17.2558 53 18.7184 53 20.2549ZM46.0513 20.2549C46.0513 19.5457 45.934 18.8514 45.6994 18.1718C45.4942 17.4922 45.1717 16.9012 44.7319 16.3989C44.2921 15.8671 43.7497 15.4386 43.1047 15.1136C42.4596 14.7886 41.712 14.6261 40.8617 14.6261C40.0408 14.6261 39.3078 14.7886 38.6627 15.1136C38.0177 15.4386 37.4606 15.8671 36.9915 16.3989C36.5517 16.9308 36.1999 17.5365 35.936 18.2161C35.7015 18.8957 35.5842 19.59 35.5842 20.2992C35.5842 21.0083 35.7015 21.7027 35.936 22.3823C36.1999 23.0619 36.5517 23.6676 36.9915 24.1995C37.4606 24.7313 38.0177 25.1598 38.6627 25.4848C39.3078 25.8098 40.0408 25.9723 40.8617 25.9723C41.712 25.9723 42.4596 25.8098 43.1047 25.4848C43.7497 25.1598 44.2921 24.7313 44.7319 24.1995C45.1717 23.6676 45.4942 23.0619 45.6994 22.3823C45.934 21.6731 46.0513 20.964 46.0513 20.2549Z"
    fill="#2395ff"/>
</svg>
