<svg width="37" height="42" viewBox="0 0 37 42" fill="none" xmlns="http://www.w3.org/2000/svg">
<path fill-rule="evenodd" clip-rule="evenodd" d="M0.445526 13.0633V28.6126C0.446104 29.4435 0.662849 30.2599 1.07446 30.9816C1.48607 31.7033 2.07839 32.3055 2.79319 32.729L16.2528 40.4993C16.971 40.9206 17.7885 41.1426 18.6212 41.1426C19.4538 41.1426 20.2713 40.9206 20.9895 40.4993L34.4491 32.729C35.164 32.3055 35.7564 31.7033 36.1681 30.9816C36.5799 30.2599 36.7968 29.4435 36.7976 28.6126V13.0633C36.7966 12.2325 36.5795 11.4162 36.1678 10.6945C35.7561 9.97289 35.1638 9.37066 34.4491 8.94694L20.9895 1.17661C20.2714 0.755308 19.4538 0.533203 18.6212 0.533203C17.7885 0.533203 16.971 0.755308 16.2528 1.17661L2.79405 8.94694C2.07938 9.37066 1.48712 9.97289 1.0754 10.6945C0.663674 11.4162 0.446618 12.2325 0.445526 13.0633Z" fill="#2B61D1"/>
<path opacity="0.55" fill-rule="evenodd" clip-rule="evenodd" d="M1.31012 10.3226C1.697 9.75781 2.20482 9.28624 2.79671 8.94218L16.2563 1.17702C16.9744 0.75546 17.792 0.533203 18.6247 0.533203C19.4574 0.533203 20.275 0.75546 20.9931 1.17702L34.4526 8.94735C35.0449 9.2909 35.5529 9.76257 35.9392 10.3278C35.2755 11.1559 34.4401 11.8303 33.4906 12.3045C29.3268 14.7074 25.1483 17.0775 20.9931 19.4769C20.275 19.8985 19.4574 20.1207 18.6247 20.1207C17.792 20.1207 16.9744 19.8985 16.2563 19.4769C12.1054 17.0757 7.92689 14.7056 3.76218 12.3028C2.81098 11.8282 1.97431 11.1526 1.31012 10.3226Z" fill="white"/>
<path opacity="0.2" fill-rule="evenodd" clip-rule="evenodd" d="M16.2511 19.4719C12.0984 17.0725 7.91905 14.7024 3.75521 12.2995C2.80621 11.8254 1.97138 11.151 1.30832 10.3229C0.751035 11.1281 0.450274 12.083 0.445526 13.0622L0.445526 28.6115C0.450245 29.5902 0.751024 30.5446 1.30832 31.3492C1.9726 30.5216 2.80786 29.8473 3.75693 29.3725C7.91733 26.9696 12.0933 24.6039 16.2511 22.2001C16.9694 21.7785 17.7873 21.5562 18.6203 21.5562C19.4533 21.5562 20.2711 21.7785 20.9895 22.2001C25.1439 24.6039 29.3233 26.9696 33.4906 29.3725C34.4403 29.8462 35.2758 30.5207 35.9392 31.3492C36.4971 30.5449 36.7979 29.5904 36.802 28.6115V13.0622C36.7976 12.0835 36.4968 11.129 35.9392 10.3246C35.2749 11.1522 34.4396 11.8265 33.4906 12.3013C29.3267 14.7041 25.1482 17.0742 20.993 19.4737C20.2748 19.8958 19.4568 20.1184 18.6237 20.1184C17.7907 20.1184 16.9727 19.8958 16.2545 19.4737L16.2511 19.4719Z" fill="white"/>
<path fill-rule="evenodd" clip-rule="evenodd" d="M8.85037 25.0163V16.6558C8.84985 16.2092 8.96585 15.7701 9.18692 15.382C9.40798 14.9939 9.72647 14.6701 10.1109 14.4428L17.3472 10.2643C17.7336 10.0379 18.1733 9.91858 18.6211 9.91858C19.0689 9.91858 19.5086 10.0379 19.895 10.2643L27.1313 14.4428C27.5162 14.6698 27.8351 14.9934 28.0565 15.3816C28.2779 15.7697 28.3941 16.209 28.3935 16.6558V25.0172C28.3935 25.4639 28.2771 25.903 28.0558 26.2911C27.8344 26.6791 27.5158 27.0028 27.1313 27.2302L19.895 31.4088C19.5086 31.6351 19.0689 31.7544 18.6211 31.7544C18.1733 31.7544 17.7336 31.6351 17.3472 31.4088L10.1109 27.2311C9.72668 27.0031 9.40841 26.6789 9.1874 26.2906C8.96638 25.9023 8.85024 25.4631 8.85037 25.0163Z" fill="white"/>
</svg>
