<svg width="45" height="38" viewBox="0 0 45 38" fill="none" xmlns="http://www.w3.org/2000/svg">
<mask id="mask0_1_868" style="mask-type:alpha" maskUnits="userSpaceOnUse" x="0" y="0" width="27" height="28">
<path d="M15.2503 25.7466V6.52584L23.6475 14.9231C24.3186 15.5942 25.4199 15.5942 26.091 14.9231C26.7621 14.252 26.7621 13.1679 26.091 12.4968L14.7512 1.1571C14.4298 0.834888 13.9933 0.653809 13.5381 0.653809C13.0829 0.653809 12.6465 0.834888 12.325 1.1571L0.968048 12.4796C0.296956 13.1507 0.296956 14.2348 0.968048 14.9059C1.63914 15.577 2.72321 15.577 3.3943 14.9059L11.8088 6.52584V25.7466C11.8088 26.693 12.5831 27.4673 13.5295 27.4673C14.4759 27.4673 15.2503 26.693 15.2503 25.7466Z" fill="black"/>
</mask>
<g mask="url(#mask0_1_868)">
<rect x="-7.1172" y="-6.58862" width="41.298" height="41.298" fill="#2B61D1"/>
</g>
<mask id="mask1_1_868" style="mask-type:alpha" maskUnits="userSpaceOnUse" x="18" y="10" width="27" height="28">
<path d="M30.1655 12.3166L30.1655 31.5374L21.7682 23.1401C21.0971 22.4691 19.9958 22.4691 19.3247 23.1401C18.6537 23.8112 18.6537 24.8953 19.3247 25.5664L30.6645 36.9061C30.986 37.2283 31.4224 37.4094 31.8776 37.4094C32.3328 37.4094 32.7692 37.2283 33.0907 36.9061L44.4477 25.5836C45.1188 24.9125 45.1188 23.8284 44.4477 23.1574C43.7766 22.4863 42.6925 22.4863 42.0214 23.1574L33.607 31.5374L33.607 12.3166C33.607 11.3702 32.8326 10.5959 31.8862 10.5959C30.9398 10.5959 30.1655 11.3702 30.1655 12.3166Z" fill="black"/>
</mask>
<g mask="url(#mask1_1_868)">
<rect x="52.5347" y="44.6519" width="41.298" height="41.298" transform="rotate(-180 52.5347 44.6519)" fill="#2B61D1"/>
</g>
</svg>
