<svg width="539" height="149" viewBox="0 0 539 149" fill="none" xmlns="http://www.w3.org/2000/svg">
<g clip-path="url(#clip0)">
<path d="M30.65 60C30.65 58.7263 31.0277 57.4812 31.7353 56.4221C32.443 55.3631 33.4487 54.5376 34.6255 54.0502C35.8023 53.5628 37.0971 53.4353 38.3464 53.6837C39.5956 53.9322 40.7431 54.5456 41.6437 55.4462C42.5444 56.3469 43.1577 57.4944 43.4062 58.7436C43.6547 59.9929 43.5272 61.2877 43.0398 62.4645C42.5523 63.6412 41.7269 64.647 40.6679 65.3547C39.6088 66.0623 38.3637 66.44 37.09 66.44C36.2439 66.4413 35.4059 66.2756 34.6239 65.9525C33.842 65.6293 33.1315 65.155 32.5333 64.5567C31.935 63.9584 31.4607 63.248 31.1375 62.466C30.8143 61.6841 30.6487 60.8461 30.65 60V60ZM28.44 98.12C23.3614 93.9537 18.7116 89.2906 14.56 84.2C18.8075 79.4729 23.4255 75.0923 28.37 71.1C28.8472 70.6782 29.1423 70.0877 29.193 69.4528C29.2438 68.8179 29.0463 68.188 28.6421 67.6957C28.2379 67.2034 27.6586 66.8871 27.0259 66.8133C26.3932 66.7395 25.7566 66.914 25.25 67.3C20.391 71.2356 15.8317 75.5275 11.61 80.14C7.36998 73.71 5.99998 68.18 7.99998 64.63C9.99998 61.08 15.44 59.54 23.35 60C23.9917 60.0223 24.6167 59.7928 25.0916 59.3606C25.5664 58.9283 25.8534 58.3275 25.8912 57.6865C25.9291 57.0455 25.7148 56.4151 25.2942 55.93C24.8735 55.4448 24.2799 55.1434 23.64 55.09C13.64 54.5 6.74998 56.94 3.73998 62.16C1.82998 65.45 0.739981 71.35 6.18998 80.71C6.81998 81.79 7.52998 82.9 8.30998 84.01C0.689981 93.6 -1.88002 101.88 1.38998 107.54C3.84998 111.8 9.16998 114 17 114C19.9013 113.975 22.7965 113.728 25.66 113.26C26.2943 113.148 26.8594 112.792 27.234 112.268C27.6085 111.744 27.7626 111.094 27.6631 110.457C27.5635 109.821 27.2184 109.249 26.7017 108.864C26.1851 108.48 25.5382 108.313 24.9 108.4C14.81 109.97 7.80998 108.77 5.68998 105.1C3.85998 101.93 5.36998 95.98 11.41 88.1C15.5925 93.1261 20.2398 97.7466 25.29 101.9C25.7312 102.267 26.2863 102.468 26.86 102.47C27.366 102.471 27.8601 102.316 28.2748 102.026C28.6896 101.736 29.0048 101.325 29.1775 100.85C29.3503 100.374 29.3722 99.8569 29.2402 99.3684C29.1082 98.8798 28.8288 98.4439 28.44 98.12ZM35.58 71.25C34.9284 71.2526 34.3042 71.5127 33.8434 71.9734C33.3826 72.4342 33.1226 73.0584 33.12 73.71V74.17C33.12 80.86 33.44 87.49 34.06 93.87C34.1173 94.4774 34.3991 95.0416 34.8504 95.4522C35.3016 95.8628 35.8899 96.0902 36.5 96.09H36.74C37.0662 96.0649 37.3841 95.975 37.6751 95.8256C37.9662 95.6761 38.2245 95.4701 38.4349 95.2197C38.6454 94.9692 38.8038 94.6792 38.9008 94.3668C38.9978 94.0543 39.0315 93.7256 39 93.4C38.34 87.17 38 80.7 38 74.17V73.72C38.0053 73.0719 37.7537 72.4481 37.3001 71.9852C36.8465 71.5223 36.228 71.2579 35.58 71.25ZM72.52 90.17C65.4956 94.1091 58.239 97.6189 50.79 100.68C50.1853 100.925 49.7028 101.401 49.4487 102.002C49.1946 102.603 49.1897 103.28 49.435 103.885C49.6803 104.49 50.1558 104.972 50.7569 105.226C51.3579 105.48 52.0353 105.485 52.64 105.24C60.2728 102.1 67.7095 98.5037 74.91 94.47C75.471 94.1483 75.8828 93.6186 76.0563 92.9955C76.2297 92.3724 76.1507 91.7061 75.8365 91.1408C75.5223 90.5755 74.9981 90.1567 74.3774 89.975C73.7567 89.7933 73.0894 89.8634 72.52 90.17ZM128.86 34C125.16 27.58 115.19 25.9 100.03 29.15C94.3878 30.3804 88.8378 32.001 83.42 34C82.4656 29.7753 81.2602 25.6112 79.81 21.53C74.72 7.44 68 0 60.36 0C46.69 0 38.36 23.67 35.1 45.82C35.0045 46.4658 35.1695 47.1231 35.5586 47.6472C35.9478 48.1714 36.5292 48.5195 37.175 48.615C37.8208 48.7105 38.4781 48.5455 39.0022 48.1564C39.5264 47.7672 39.8745 47.1858 39.97 46.54C43.56 22 52 4.92 60.36 4.92C65.59 4.92 70.99 11.58 75.18 23.19C76.6407 27.3043 77.843 31.5058 78.78 35.77C69.6884 39.4461 60.8695 43.7637 52.39 48.69C50.94 49.52 49.45 50.41 47.96 51.31C47.6835 51.4774 47.4428 51.6977 47.2515 51.9582C47.0602 52.2186 46.922 52.5142 46.845 52.8281C46.7679 53.142 46.7534 53.4679 46.8023 53.7874C46.8512 54.1069 46.9625 54.4136 47.13 54.69C47.2974 54.9664 47.5177 55.2072 47.7781 55.3985C48.0386 55.5898 48.3342 55.7279 48.6481 55.805C48.9619 55.8821 49.2879 55.8966 49.6074 55.8477C49.9268 55.7988 50.2335 55.6874 50.51 55.52C51.97 54.63 53.43 53.76 54.85 52.95C62.8666 48.2861 71.1965 44.183 79.78 40.67C81.5738 50.6195 82.5371 60.7009 82.66 70.81C82.6705 71.4555 82.9343 72.071 83.3945 72.5237C83.8547 72.9764 84.4744 73.2301 85.12 73.23V73.23C85.443 73.2248 85.7619 73.156 86.0584 73.0275C86.3549 72.8991 86.6231 72.7134 86.8478 72.4813C87.0726 72.2491 87.2494 71.975 87.3681 71.6745C87.4869 71.374 87.5453 71.0531 87.54 70.73C87.4098 60.0367 86.3627 49.3743 84.41 38.86C105.51 31.06 121.16 30.51 124.56 36.41C126.42 39.64 124.78 45.14 119.94 51.9C114.68 59.24 106.2 67.36 95.41 75.4C94.9958 75.7097 94.6898 76.1421 94.5354 76.6357C94.3811 77.1293 94.3862 77.659 94.5501 78.1495C94.7139 78.64 95.0282 79.0664 95.4483 79.3681C95.8684 79.6698 96.3728 79.8314 96.89 79.83C97.417 79.83 97.9297 79.658 98.35 79.34C109.54 71.01 118.35 62.51 123.94 54.77C128.25 48.81 132.56 40.36 128.86 34ZM98.49 90C97.9953 89.5743 97.3519 89.3626 96.7011 89.4113C96.0504 89.4601 95.4456 89.7654 95.02 90.26C94.5943 90.7546 94.3826 91.3981 94.4313 92.0489C94.4801 92.6996 94.7853 93.3043 95.28 93.73C110.34 106.73 117.99 119.67 114.28 126.03C111.74 130.43 103.76 131.82 92.39 129.86C88.1354 129.107 83.9385 128.057 79.83 126.72C82.9427 117.617 85.0518 108.201 86.12 98.64C86.1747 98.0054 85.9811 97.3743 85.58 96.8796C85.1788 96.3848 84.6014 96.0649 83.9693 95.9872C83.3371 95.9094 82.6994 96.0799 82.1904 96.4628C81.6813 96.8457 81.3406 97.4111 81.24 98.04C80.2202 107.253 78.1948 116.327 75.2 125.1C66.7427 121.964 58.5696 118.11 50.77 113.58C50.2059 113.267 49.5414 113.188 48.9198 113.361C48.2981 113.533 47.769 113.942 47.4464 114.501C47.1238 115.06 47.0336 115.723 47.1951 116.347C47.3566 116.972 47.757 117.508 48.31 117.84C56.317 122.485 64.7037 126.443 73.38 129.67C73.11 130.27 72.84 130.86 72.57 131.43C68.84 139.17 64.5 143.43 60.36 143.43C54.36 143.43 48.21 134.7 43.88 120.09C43.8048 119.763 43.6634 119.455 43.4646 119.184C43.2658 118.914 43.0137 118.687 42.7239 118.517C42.4341 118.348 42.1127 118.239 41.7794 118.199C41.4462 118.158 41.1082 118.187 40.7862 118.282C40.4642 118.377 40.1651 118.537 39.9072 118.751C39.6494 118.966 39.4383 119.232 39.2869 119.532C39.1355 119.831 39.047 120.159 39.0269 120.494C39.0068 120.829 39.0555 121.164 39.17 121.48C44.29 138.81 51.82 148.35 60.36 148.35C66.58 148.35 72.36 143.24 77 133.57C77.36 132.83 77.7 132.06 78 131.28C82.4285 132.73 86.9528 133.87 91.54 134.69C94.8044 135.279 98.1129 135.591 101.43 135.62C109.88 135.62 115.82 133.18 118.54 128.47C123.69 119.6 116.19 105.21 98.49 90ZM75.68 73.77L74.12 72.86C66.7498 68.5861 59.0602 64.8884 51.12 61.8C50.5138 61.5766 49.844 61.6006 49.2554 61.8669C48.6667 62.1332 48.2065 62.6203 47.974 63.2231C47.7416 63.8259 47.7556 64.496 48.013 65.0885C48.2705 65.6811 48.7507 66.1486 49.35 66.39C57.0537 69.3826 64.5129 72.9701 71.66 77.12L73.17 78.01C73.5495 78.2312 73.9807 78.3485 74.42 78.35C74.9608 78.3527 75.4874 78.1771 75.9183 77.8503C76.3493 77.5236 76.6606 77.064 76.804 76.5426C76.9475 76.0211 76.9151 75.467 76.7119 74.9658C76.5087 74.4646 76.146 74.0443 75.68 73.77V73.77ZM45 107.29C45 106.018 44.6229 104.775 43.9163 103.718C43.2098 102.66 42.2056 101.836 41.0306 101.349C39.8557 100.863 38.5628 100.735 37.3156 100.984C36.0683 101.232 34.9225 101.844 34.0233 102.743C33.124 103.643 32.5116 104.788 32.2635 106.036C32.0154 107.283 32.1428 108.576 32.6294 109.751C33.1161 110.926 33.9403 111.93 34.9977 112.636C36.0551 113.343 37.2982 113.72 38.57 113.72C40.2753 113.72 41.9108 113.043 43.1167 111.837C44.3225 110.631 45 108.995 45 107.29V107.29ZM91.58 84.58C91.5839 83.305 91.2094 82.0576 90.5037 80.9957C89.798 79.9338 88.793 79.1052 87.616 78.615C86.439 78.1248 85.143 77.995 83.8922 78.2421C82.6414 78.4891 81.492 79.1019 80.5898 80.0027C79.6875 80.9036 79.073 82.0519 78.824 83.3024C78.575 84.5528 78.7028 85.849 79.1912 87.0268C79.6795 88.2045 80.5065 89.2108 81.5673 89.9181C82.6281 90.6254 83.875 91.002 85.15 91C86.8536 91 88.4876 90.3239 89.6931 89.1202C90.8987 87.9165 91.5773 86.2836 91.58 84.58V84.58Z" fill="url(#paint0_linear)"/>
<path fill-rule="evenodd" clip-rule="evenodd" d="M410.11 48.24C426.87 48.24 438.95 60.47 438.95 75.52C438.95 90.57 426.87 102.8 410.11 102.8H393.11C392.654 102.8 392.216 102.619 391.894 102.296C391.571 101.974 391.39 101.536 391.39 101.08V50C391.39 49.5438 391.571 49.1063 391.894 48.7838C392.216 48.4612 392.654 48.28 393.11 48.28L410.11 48.24ZM402.31 91.89H410.11C420.24 91.89 427.26 85.26 427.26 75.52C427.26 65.78 420.26 59.15 410.11 59.15H402.31V91.89Z" fill="url(#paint1_linear)"/>
<path d="M481.76 50V57.47C481.755 57.6959 481.705 57.9185 481.614 58.1252C481.523 58.3319 481.392 58.5186 481.228 58.6746C481.065 58.8307 480.872 58.9529 480.661 59.0345C480.451 59.1161 480.226 59.1553 480 59.15H455.25V68.89H473C473.456 68.89 473.894 69.0712 474.216 69.3938C474.539 69.7163 474.72 70.1538 474.72 70.61V78.09C474.72 78.5462 474.539 78.9837 474.216 79.3062C473.894 79.6288 473.456 79.81 473 79.81H455.25V91.89H480.82C481.276 91.89 481.714 92.0712 482.036 92.3938C482.359 92.7163 482.54 93.1538 482.54 93.61V101.08C482.54 101.536 482.359 101.974 482.036 102.296C481.714 102.619 481.276 102.8 480.82 102.8H446.06C445.604 102.8 445.166 102.619 444.844 102.296C444.521 101.974 444.34 101.536 444.34 101.08V50C444.34 49.5438 444.521 49.1063 444.844 48.7838C445.166 48.4612 445.604 48.28 446.06 48.28H480.06C480.513 48.2853 480.945 48.4688 481.263 48.7908C481.582 49.1128 481.76 49.5473 481.76 50Z" fill="url(#paint2_linear)"/>
<path d="M512.94 65L501.88 49C501.719 48.7738 501.506 48.5901 501.259 48.4647C501.012 48.3392 500.737 48.2758 500.46 48.28H491.08C490.764 48.2799 490.454 48.3669 490.184 48.5315C489.914 48.696 489.695 48.9318 489.55 49.2129C489.405 49.4939 489.341 49.8094 489.364 50.1247C489.387 50.4399 489.496 50.7428 489.68 51L506.35 74L487.35 100.11C487.163 100.367 487.052 100.671 487.027 100.988C487.003 101.305 487.067 101.622 487.212 101.905C487.357 102.188 487.577 102.425 487.849 102.59C488.12 102.755 488.432 102.841 488.75 102.84H498.13C498.406 102.841 498.679 102.774 498.924 102.647C499.17 102.52 499.381 102.336 499.54 102.11L512.94 82.97L526.34 102.11C526.499 102.336 526.71 102.52 526.956 102.647C527.201 102.774 527.474 102.841 527.75 102.84H537.13C537.447 102.84 537.758 102.752 538.028 102.586C538.298 102.42 538.517 102.183 538.661 101.9C538.804 101.618 538.867 101.301 538.842 100.985C538.818 100.669 538.706 100.367 538.52 100.11L519.57 74L536.19 51C536.383 50.7445 536.5 50.4399 536.528 50.121C536.557 49.8021 536.495 49.4817 536.35 49.1962C536.205 48.9107 535.983 48.6716 535.709 48.506C535.435 48.3405 535.12 48.2553 534.8 48.26H525.41C525.132 48.2589 524.859 48.3257 524.613 48.4547C524.367 48.5837 524.157 48.7709 524 49L512.94 65Z" fill="url(#paint3_linear)"/>
<path d="M274.39 62.94C277.34 61.0489 280.756 60.0106 284.26 59.94C291.12 59.94 295.84 62.09 298.84 65.52C302.613 62.0952 307.478 60.1183 312.57 59.94C325.44 59.94 331.02 67.24 331.02 78.82V99.82C331.02 100.046 330.975 100.27 330.889 100.478C330.803 100.687 330.676 100.877 330.516 101.036C330.356 101.196 330.167 101.323 329.958 101.409C329.749 101.496 329.526 101.54 329.3 101.54H322.78C322.555 101.54 322.331 101.495 322.123 101.409C321.915 101.322 321.726 101.195 321.567 101.036C321.408 100.876 321.283 100.686 321.197 100.477C321.112 100.269 321.069 100.045 321.07 99.82V79.89C321.07 73.03 318.07 69.51 312.23 69.51C310.433 69.5404 308.662 69.9365 307.023 70.6741C305.385 71.4117 303.914 72.4753 302.7 73.8V99.8C302.7 100.254 302.52 100.69 302.2 101.013C301.879 101.335 301.444 101.517 300.99 101.52H294.47C294.014 101.52 293.576 101.339 293.254 101.016C292.931 100.694 292.75 100.256 292.75 99.8V79.89C292.75 73.03 289.75 69.51 283.91 69.51C282.115 69.5395 280.344 69.9352 278.707 70.6728C277.07 71.4105 275.601 72.4746 274.39 73.8V99.8C274.39 100.256 274.209 100.694 273.886 101.016C273.564 101.339 273.126 101.52 272.67 101.52H266.15C265.694 101.52 265.256 101.339 264.934 101.016C264.611 100.694 264.43 100.256 264.43 99.8V62.93C264.43 62.7046 264.475 62.4814 264.561 62.2733C264.648 62.0652 264.774 61.8762 264.934 61.7173C265.094 61.5584 265.284 61.4326 265.492 61.3473C265.701 61.2619 265.925 61.2187 266.15 61.22H272.67C273.126 61.22 273.564 61.4012 273.886 61.7238C274.209 62.0463 274.39 62.4838 274.39 62.94Z" fill="#3C5368"/>
<path d="M215 94.16C214.999 93.8892 214.934 93.6225 214.811 93.3816C214.687 93.1406 214.508 92.9323 214.289 92.7734C214.07 92.6146 213.816 92.5097 213.549 92.4674C213.281 92.4251 213.008 92.4466 212.75 92.53C211.341 92.9676 209.875 93.1901 208.4 93.19C205 93.19 202 91 202 84.1V71.23H213.33C213.777 71.217 214.202 71.03 214.514 70.7089C214.826 70.3877 215 69.9576 215 69.51V62.91C215 62.4556 214.82 62.0196 214.5 61.6973C214.179 61.375 213.744 61.1926 213.29 61.19H202V52.61C202 52.1538 201.819 51.7163 201.496 51.3938C201.174 51.0712 200.736 50.89 200.28 50.89H193.68C193.231 50.9004 192.803 51.0863 192.49 51.4077C192.176 51.7291 192 52.1607 192 52.61V61.19H186.42C185.966 61.1926 185.531 61.375 185.21 61.6973C184.89 62.0196 184.71 62.4556 184.71 62.91V69.51C184.71 69.9644 184.89 70.4004 185.21 70.7227C185.531 71.045 185.966 71.2274 186.42 71.23H192V85C192 96.15 197.58 102.84 208.48 102.84C210.306 102.775 212.115 102.469 213.86 101.93C214.214 101.823 214.523 101.604 214.743 101.307C214.963 101.01 215.081 100.65 215.08 100.28L215 94.16Z" fill="#3C5368"/>
<path d="M238.58 59.9C234.336 59.8941 230.186 61.147 226.655 63.5004C223.123 65.8537 220.369 69.2017 218.741 73.1206C217.113 77.0396 216.684 81.3534 217.508 85.5163C218.333 89.6791 220.373 93.504 223.372 96.5068C226.371 99.5096 230.193 101.556 234.354 102.386C238.516 103.216 242.83 102.793 246.752 101.17C250.673 99.5475 254.025 96.7982 256.383 93.2701C258.741 89.742 260 85.5937 260 81.35C260 75.6663 257.744 70.2149 253.728 66.1932C249.712 62.1714 244.264 59.9079 238.58 59.9V59.9ZM238.58 93.18C236.241 93.178 233.954 92.4825 232.01 91.1814C230.066 89.8803 228.551 88.032 227.658 85.8702C226.764 83.7084 226.531 81.3301 226.989 79.036C227.446 76.7418 228.574 74.6349 230.228 72.9814C231.883 71.3279 233.991 70.2022 236.286 69.7466C238.58 69.2909 240.958 69.5258 243.119 70.4215C245.281 71.3171 247.128 72.8334 248.427 74.7786C249.726 76.7239 250.42 79.0107 250.42 81.35C250.42 82.9044 250.114 84.4435 249.519 85.8795C248.923 87.3154 248.051 88.62 246.952 89.7186C245.852 90.8173 244.547 91.6884 243.11 92.2824C241.674 92.8763 240.134 93.1813 238.58 93.18V93.18Z" fill="#3C5368"/>
<path d="M346.84 50.715C346.84 47.8569 344.523 45.54 341.665 45.54C338.807 45.54 336.49 47.8569 336.49 50.715C336.49 53.5731 338.807 55.89 341.665 55.89C344.523 55.89 346.84 53.5731 346.84 50.715Z" fill="#3C5368"/>
<path d="M344.86 61.19H338.35C337.4 61.19 336.63 61.9601 336.63 62.91V99.8C336.63 100.75 337.4 101.52 338.35 101.52H344.86C345.81 101.52 346.58 100.75 346.58 99.8V62.91C346.58 61.9601 345.81 61.19 344.86 61.19Z" fill="#3C5368"/>
<path d="M179 61.19H172.48C172.024 61.19 171.586 61.3712 171.264 61.6938C170.941 62.0163 170.76 62.4538 170.76 62.91V63.24C167.517 61.1813 163.78 60.0315 159.94 59.9106C156.1 59.7897 152.299 60.7023 148.932 62.5528C145.566 64.4034 142.758 67.1241 140.802 70.4307C138.847 73.7373 137.815 77.5084 137.815 81.35C137.815 85.1916 138.847 88.9627 140.802 92.2693C142.758 95.5759 145.566 98.2966 148.932 100.147C152.299 101.998 156.1 102.91 159.94 102.789C163.78 102.668 167.517 101.519 170.76 99.46V99.8C170.76 100.256 170.941 100.694 171.264 101.016C171.586 101.339 172.024 101.52 172.48 101.52H179C179.454 101.517 179.889 101.335 180.21 101.013C180.53 100.69 180.71 100.254 180.71 99.8V62.91C180.71 62.4556 180.53 62.0196 180.21 61.6973C179.889 61.375 179.454 61.1926 179 61.19ZM159.26 93.19C157.041 93.1888 154.867 92.5635 152.986 91.3853C151.105 90.2072 149.594 88.5238 148.624 86.5275C147.655 84.5311 147.267 82.3024 147.504 80.0958C147.741 77.8893 148.594 75.7939 149.966 74.0492C151.337 72.3045 153.172 70.9807 155.26 70.2291C157.348 69.4775 159.605 69.3284 161.774 69.7989C163.943 70.2693 165.936 71.3404 167.525 72.8896C169.114 74.4388 170.235 76.4038 170.76 78.56V84.16C170.129 86.741 168.647 89.0344 166.554 90.6707C164.46 92.307 161.877 93.1909 159.22 93.18L159.26 93.19Z" fill="#3C5368"/>
<path d="M384 93C383.998 92.7125 383.924 92.43 383.785 92.1785C383.645 91.927 383.445 91.7144 383.202 91.5602C382.96 91.406 382.682 91.3151 382.395 91.2959C382.108 91.2766 381.821 91.3296 381.56 91.45C379.097 92.5797 376.42 93.1663 373.71 93.17C366.24 93.17 361.61 87.94 361.61 81.33C361.61 74.72 366.24 69.49 373.71 69.49C376.42 69.4974 379.098 70.0874 381.56 71.22C381.82 71.3401 382.107 71.3931 382.393 71.3743C382.679 71.3556 382.956 71.2656 383.198 71.1125C383.441 70.9595 383.641 70.7483 383.781 70.4981C383.921 70.2479 383.996 69.9667 384 69.68V63.25C384.001 62.911 383.902 62.5792 383.715 62.2963C383.528 62.0134 383.262 61.7921 382.95 61.66C380.014 60.4781 376.875 59.8803 373.71 59.9C360.41 59.9 351.4 69.51 351.4 81.35C351.4 93.19 360.4 102.8 373.71 102.8C376.876 102.825 380.015 102.227 382.95 101.04C383.262 100.911 383.529 100.692 383.716 100.41C383.903 100.129 384.002 99.7979 384 99.46V93Z" fill="#3C5368"/>
</g>
<defs>
<linearGradient id="paint0_linear" x1="-1.89769e-05" y1="74.175" x2="130.26" y2="74.175" gradientUnits="userSpaceOnUse">
<stop offset="0.02" stop-color="#2ABCF1"/>
<stop offset="1" stop-color="#6A4DE3"/>
</linearGradient>
<linearGradient id="paint1_linear" x1="391.391" y1="75.54" x2="538.844" y2="75.54" gradientUnits="userSpaceOnUse">
<stop offset="0.02" stop-color="#2ABCF1"/>
<stop offset="1" stop-color="#6A4DE3"/>
</linearGradient>
<linearGradient id="paint2_linear" x1="391.391" y1="75.54" x2="538.844" y2="75.54" gradientUnits="userSpaceOnUse">
<stop offset="0.02" stop-color="#2ABCF1"/>
<stop offset="1" stop-color="#6A4DE3"/>
</linearGradient>
<linearGradient id="paint3_linear" x1="391.391" y1="75.54" x2="538.844" y2="75.54" gradientUnits="userSpaceOnUse">
<stop offset="0.02" stop-color="#2ABCF1"/>
<stop offset="1" stop-color="#6A4DE3"/>
</linearGradient>
<clipPath id="clip0">
<rect width="538.86" height="148.35" fill="white"/>
</clipPath>
</defs>
</svg>
