<svg width="37" height="42" viewBox="0 0 37 42" fill="none" xmlns="http://www.w3.org/2000/svg">
<path fill-rule="evenodd" clip-rule="evenodd" d="M0.395399 13.0633V28.6126C0.395977 29.4435 0.612722 30.2599 1.02433 30.9816C1.43594 31.7033 2.02826 32.3055 2.74306 32.729L16.2027 40.4993C16.9209 40.9206 17.7384 41.1426 18.571 41.1426C19.4036 41.1426 20.2212 40.9206 20.9394 40.4993L34.399 32.729C35.1138 32.3055 35.7062 31.7033 36.118 30.9816C36.5297 30.2599 36.7467 29.4435 36.7475 28.6126V13.0633C36.7464 12.2325 36.5294 11.4162 36.1177 10.6945C35.7059 9.97289 35.1137 9.37066 34.399 8.94694L20.9394 1.17661C20.2212 0.755308 19.4037 0.533203 18.571 0.533203C17.7384 0.533203 16.9208 0.755308 16.2027 1.17661L2.74393 8.94694C2.02925 9.37066 1.437 9.97289 1.02527 10.6945C0.613547 11.4162 0.396491 12.2325 0.395399 13.0633Z" fill="#2B61D1"/>
<path opacity="0.55" fill-rule="evenodd" clip-rule="evenodd" d="M1.25999 10.3226C1.64687 9.75781 2.15469 9.28624 2.74659 8.94218L16.2062 1.17702C16.9243 0.75546 17.7419 0.533203 18.5746 0.533203C19.4072 0.533203 20.2248 0.75546 20.9429 1.17702L34.4025 8.94735C34.9948 9.2909 35.5027 9.76257 35.8891 10.3278C35.2253 11.1559 34.39 11.8303 33.4405 12.3045C29.2767 14.7074 25.0981 17.0775 20.9429 19.4769C20.2248 19.8985 19.4072 20.1207 18.5746 20.1207C17.7419 20.1207 16.9243 19.8985 16.2062 19.4769C12.0553 17.0757 7.87676 14.7056 3.71205 12.3028C2.76085 11.8282 1.92418 11.1526 1.25999 10.3226Z" fill="white"/>
</svg>
