<svg xmlns="http://www.w3.org/2000/svg" width="157.479" height="143.059" viewBox="0 0 157.479 143.059">
  <g id="changelly-icon" transform="translate(10344.679 17438.814)">
    <path id="Path_476708" data-name="Path 476708" d="M136.121.238a170,170,0,0,0-30.178,4.515C83.725,9.98,67.091,18.654,56.873,30.416c-2.258,2.614-4.4,5.109-6.3,7.485-4.04,1.069-15.208,4.158-20.317,5.109a11.59,11.59,0,0,0-7.247,4.753c-3.683,5.346-10.1,16.277-10.336,16.752L5.31,77.109l13.426-5.822c5.822-2.614,14.02-4.4,16.4-2.97.119.119.237.119.356.832a25.363,25.363,0,0,0,2.733,11.168,14.266,14.266,0,0,0-5.465,12v16.4h16.4a14.746,14.746,0,0,0,12-5.465,27.108,27.108,0,0,0,11.168,2.732c.594.119.713.238.713.357,1.426,2.376-.357,10.574-2.97,16.4L64.24,136.039l12.594-7.366c.475-.237,11.406-6.653,16.753-10.336a11.289,11.289,0,0,0,4.752-7.248c1.069-5.109,4.04-16.277,5.109-20.317,2.376-1.9,4.871-4.04,7.485-6.3C138.5,60.119,140.992,7.366,141.111,5.109L141.348,0l-5.228.238ZM37.389,59.051a22.183,22.183,0,0,0-10.1-.237c1.307-2.139,2.614-4.159,3.683-5.7a1.714,1.714,0,0,1,1.307-.831c2.376-.475,6.059-1.426,9.742-2.258A43.538,43.538,0,0,0,37.389,59.051ZM53.547,97.189a4.8,4.8,0,0,1-4.158,1.9H47.844l9.861-15.445L42.26,93.625V91.961a4.673,4.673,0,0,1,1.9-4.158l18.891-14.97A7.77,7.77,0,0,1,66.5,71.169l4.99-1.188L70.3,74.971a8.468,8.468,0,0,1-1.663,3.445L53.547,97.189Zm35.406,12a2.259,2.259,0,0,1-.831,1.307c-1.545,1.069-3.564,2.376-5.7,3.683a22.184,22.184,0,0,0-.237-10.1,49.152,49.152,0,0,0,9.03-4.515c-.832,3.564-1.782,7.129-2.258,9.624Zm15.683-31.841c-16.4,14.5-25.425,18.772-31.96,19.01h-.237a15.292,15.292,0,0,1-5.347-.951l8.792-11.168a20.124,20.124,0,0,0,3.565-7.129L84.2,57.149,64.24,61.9a17.335,17.335,0,0,0-7.129,3.446L45.943,74.14a15.292,15.292,0,0,1-.951-5.347v-.237C45.111,62.14,49.507,52.991,64,36.6,81.468,16.754,117.586,11.407,131.129,10.1c-1.307,13.663-6.653,49.78-26.5,67.248Z" transform="translate(-10328.548 -17438.814)" fill="#10d078"/>
    <path id="Path_476709" data-name="Path 476709" d="M46.93,70.994a106.158,106.158,0,0,1-18.415,1.663c-3.564,0-7.129-.119-10.812-.475,1.426-2.376,2.733-4.752,3.921-7.247a94.625,94.625,0,0,0,5.228-15.446,130.69,130.69,0,0,1,4.4-14.732q2.5-7.307,5.7-14.614A49.283,49.283,0,0,0,31.841,26.2c-1.545,2.139-3.089,4.4-4.515,6.653A107.85,107.85,0,0,0,20.2,47.231a121.654,121.654,0,0,1-6.3,13.782,68.448,68.448,0,0,1-8.436,12L0,79.429l8.436,1.188a114.575,114.575,0,0,0,20.2,1.188,74.262,74.262,0,0,0,10.218-.951,71.353,71.353,0,0,0,9.98-2.257,62.92,62.92,0,0,0,18.415-8.911A41.241,41.241,0,0,0,74.732,62.8,35.4,35.4,0,0,0,80.2,54.36a53.6,53.6,0,0,1-15.564,10.93,73.3,73.3,0,0,1-17.7,5.7Z" transform="translate(-10344.679 -17377.621)" fill="#10d078"/>
    <path id="Path_476710" data-name="Path 476710" d="M41.681,39.183a17.129,17.129,0,0,0,11.881-4.871,16.708,16.708,0,0,0,0-23.643A16.518,16.518,0,0,0,41.681,5.8,17.017,17.017,0,0,0,29.8,10.668,16.693,16.693,0,0,0,41.681,39.183ZM36.453,17.322a7.1,7.1,0,0,1,5.109-2.139,6.91,6.91,0,0,1,5.109,2.139A7.225,7.225,0,0,1,36.453,27.54,7.391,7.391,0,0,1,36.453,17.322Z" transform="translate(-10269.036 -17421.203)" fill="#10d078"/>
  </g>
</svg>
