<svg width="51" height="51" viewBox="0 0 51 51" fill="none" xmlns="http://www.w3.org/2000/svg">
<path d="M25.6498 0.876465C12.0432 0.876465 0.930828 11.9123 0.930828 25.4443C0.930828 38.9762 12.0432 50.0121 25.6498 50.0121C39.333 50.0121 50.3688 39.0509 50.3688 25.4443C50.3688 11.8376 39.333 0.876465 25.6498 0.876465Z" fill="#32407B"/>
<path d="M25.65 4.65601C14.0842 4.65601 4.71078 13.9541 4.71078 25.444C4.71078 36.934 14.1598 46.3078 25.65 46.3078C37.2158 46.3078 46.5892 36.9342 46.5892 25.444C46.5892 13.9539 37.2158 4.65601 25.65 4.65601Z" fill="#32407B"/>
<path d="M25.6498 46.6859C37.4424 46.6859 47.0427 37.1613 47.0427 25.4443C47.0427 13.7273 37.4424 4.20264 25.6498 4.20264C13.8573 4.20264 4.25698 13.7273 4.25698 25.4443C4.25698 37.1613 13.9329 46.6859 25.6498 46.6859ZM25.6498 5.10969C36.9132 5.10969 46.06 14.2565 46.06 25.4436C46.06 36.6306 36.9132 45.7774 25.6498 45.7774C14.3865 45.7774 5.23964 36.6306 5.23964 25.4436C5.23964 14.2565 14.3865 5.10969 25.6498 5.10969Z" fill="white"/>
<path d="M16.6542 33.9107H34.7967C34.9143 33.9027 35.0251 33.8523 35.1085 33.769C35.1919 33.6856 35.2422 33.5749 35.2503 33.4572V17.5826C35.2508 16.9508 35.1254 16.3252 34.8815 15.7423C34.6377 15.1593 34.2802 14.6308 33.83 14.1875C33.3797 13.7442 32.8457 13.395 32.2591 13.1603C31.6724 12.9255 31.0449 12.8099 30.4132 12.8202H20.9632C19.6908 12.8122 18.4671 13.3091 17.5604 14.2018C16.6537 15.0945 16.1379 16.3103 16.1261 17.5826V33.4572C16.151 33.581 16.2166 33.693 16.3125 33.7752C16.4084 33.8574 16.5291 33.9051 16.6553 33.9108L16.6542 33.9107ZM34.2676 33.0036H17.108V17.6573C17.1125 16.6363 17.5201 15.6584 18.2421 14.9365C18.9642 14.2146 19.9422 13.8072 20.9632 13.8029H30.4132C31.4341 13.8073 32.4119 14.2149 33.1337 14.9368C33.8556 15.6587 34.2632 16.6365 34.2676 17.6573V33.0036Z" fill="white"/>
<path d="M30.4879 31.1137C30.7367 31.1161 30.9836 31.0689 31.2139 30.9748C31.4443 30.8807 31.6536 30.7416 31.8296 30.5656C32.0056 30.3896 32.1447 30.1803 32.2388 29.9499C32.3328 29.7195 32.38 29.4726 32.3776 29.2238C32.38 28.9749 32.3328 28.7281 32.2387 28.4977C32.1446 28.2674 32.0055 28.0581 31.8295 27.8821C31.6536 27.7062 31.4443 27.5671 31.2139 27.473C30.9835 27.3788 30.7367 27.3316 30.4879 27.3341C30.239 27.3316 29.9922 27.3788 29.7618 27.4729C29.5314 27.567 29.3221 27.7061 29.1461 27.8821C28.9701 28.058 28.831 28.2673 28.7369 28.4977C28.6428 28.7281 28.5955 28.9749 28.598 29.2238C28.6058 29.7226 28.8074 30.1988 29.1601 30.5515C29.5129 30.9042 29.9891 31.1059 30.4879 31.1137ZM30.4879 28.2411C30.6822 28.2411 30.8722 28.2988 31.0338 28.4067C31.1954 28.5147 31.3213 28.6682 31.3957 28.8477C31.4701 29.0273 31.4896 29.2249 31.4516 29.4155C31.4137 29.6061 31.3201 29.7812 31.1827 29.9186C31.0453 30.0561 30.8702 30.1496 30.6796 30.1876C30.489 30.2255 30.2914 30.206 30.1118 30.1316C29.9323 30.0573 29.7788 29.9313 29.6708 29.7697C29.5628 29.6081 29.5052 29.4181 29.5052 29.2238C29.5808 28.619 29.9588 28.2411 30.4879 28.2411ZM20.8113 31.1137C21.0602 31.1162 21.3071 31.0691 21.5376 30.975C21.768 30.8809 21.9774 30.7418 22.1535 30.5658C22.3295 30.3898 22.4687 30.1805 22.5628 29.95C22.6569 29.7196 22.7042 29.4727 22.7017 29.2238C22.7041 28.9749 22.6569 28.728 22.5628 28.4976C22.4686 28.2672 22.3294 28.0578 22.1534 27.8819C21.9774 27.7059 21.768 27.5668 21.5375 27.4727C21.3071 27.3787 21.0602 27.3315 20.8113 27.3341C20.5624 27.3316 20.3155 27.3788 20.0851 27.4729C19.8547 27.567 19.6454 27.7061 19.4694 27.8821C19.2934 28.0581 19.1543 28.2674 19.0602 28.4978C18.9661 28.7282 18.9189 28.9751 18.9214 29.224C18.9189 29.4728 18.9662 29.7197 19.0603 29.95C19.1544 30.1804 19.2935 30.3897 19.4695 30.5657C19.6455 30.7417 19.8548 30.8808 20.0852 30.9749C20.3156 31.0689 20.5624 31.1161 20.8113 31.1137ZM20.8113 28.2411C21.0056 28.2411 21.1956 28.2988 21.3572 28.4067C21.5188 28.5147 21.6447 28.6682 21.7191 28.8477C21.7935 29.0273 21.813 29.2249 21.775 29.4155C21.7371 29.6061 21.6435 29.7812 21.5061 29.9186C21.3687 30.0561 21.1936 30.1496 21.003 30.1876C20.8124 30.2255 20.6148 30.206 20.4352 30.1316C20.2557 30.0573 20.1022 29.9313 19.9942 29.7697C19.8862 29.6081 19.8286 29.4181 19.8286 29.2238C19.8245 29.0936 19.8471 28.964 19.895 28.8429C19.9429 28.7218 20.0152 28.6118 20.1072 28.5198C20.1993 28.4277 20.3093 28.3554 20.4304 28.3075C20.5515 28.2596 20.6811 28.237 20.8113 28.2411ZM22.9285 16.2217H28.4468C28.5644 16.2137 28.6752 16.1634 28.7586 16.08C28.842 15.9966 28.8924 15.8858 28.9004 15.7681C28.8923 15.6505 28.842 15.5398 28.7586 15.4564C28.6752 15.373 28.5644 15.3227 28.4468 15.3147H22.9289C22.8112 15.3227 22.7004 15.3731 22.617 15.4565C22.5336 15.5399 22.4832 15.6506 22.4752 15.7683C22.4727 15.8285 22.4827 15.8886 22.5046 15.9447C22.5265 16.0008 22.5598 16.0518 22.6024 16.0944C22.645 16.1371 22.696 16.1704 22.7521 16.1923C22.8082 16.2142 22.8683 16.2242 22.9285 16.2217ZM16.881 38.295C17.0212 38.2922 17.1556 38.2384 17.259 38.1438L20.2072 33.9862C20.2673 33.886 20.2852 33.766 20.2569 33.6525C20.2285 33.5391 20.1563 33.4416 20.056 33.3815C19.9558 33.3213 19.8358 33.3035 19.7224 33.3318C19.609 33.3601 19.5115 33.4324 19.4513 33.5326L16.503 37.6909C16.4684 37.7391 16.4447 37.7943 16.4335 37.8525C16.4223 37.9108 16.424 37.9708 16.4384 38.0284C16.4528 38.0859 16.4796 38.1397 16.5168 38.1859C16.5541 38.232 16.601 38.2695 16.6542 38.2957L16.881 38.295ZM34.4943 38.295C34.6001 38.2983 34.7048 38.2722 34.7967 38.2194C34.8876 38.1514 34.9522 38.054 34.9798 37.9439C35.0073 37.8337 34.996 37.7174 34.9479 37.6146L31.9997 33.457C31.8485 33.2302 31.5461 33.1546 31.3949 33.3058C31.2437 33.457 31.0925 33.7594 31.2437 33.9106L34.1919 38.0682C34.1919 38.2194 34.3431 38.295 34.4943 38.295Z" fill="white"/>
<path d="M33.7384 37.3123C33.8443 37.3156 33.949 37.2894 34.0408 37.2367C34.1317 37.1686 34.1964 37.0713 34.2239 36.9612C34.2515 36.851 34.2402 36.7347 34.192 36.6319L31.9999 33.5325C31.8487 33.3057 31.5463 33.2301 31.3951 33.3813C31.2439 33.5325 31.0927 33.8349 31.2439 33.9861L33.436 37.0855C33.436 37.2367 33.5872 37.3123 33.7384 37.3123ZM16.6542 19.699H34.7967C34.9143 19.691 35.0251 19.6407 35.1085 19.5574C35.1919 19.474 35.2422 19.3632 35.2503 19.2456C35.2423 19.1279 35.1919 19.0171 35.1085 18.9338C35.0251 18.8504 34.9143 18.8 34.7967 18.792H16.6542C16.5365 18.8 16.4257 18.8504 16.3423 18.9338C16.2589 19.0171 16.2086 19.1279 16.2006 19.2456C16.1981 19.3058 16.2081 19.3659 16.23 19.4221C16.2519 19.4783 16.2852 19.5293 16.3279 19.5719C16.3705 19.6145 16.4215 19.6478 16.4777 19.6697C16.5339 19.6916 16.594 19.7016 16.6542 19.699ZM16.6542 25.5197H34.7967C34.9154 25.5174 35.0285 25.4685 35.1116 25.3838C35.1947 25.299 35.2413 25.1849 35.2413 25.0662C35.2413 24.9475 35.1947 24.8334 35.1116 24.7487C35.0285 24.6639 34.9154 24.615 34.7967 24.6127H16.6542C16.5365 24.6207 16.4257 24.671 16.3423 24.7544C16.2589 24.8378 16.2086 24.9486 16.2006 25.0663C16.1981 25.1265 16.2081 25.1866 16.23 25.2428C16.2519 25.2989 16.2852 25.3499 16.3279 25.3926C16.3705 25.4352 16.4215 25.4685 16.4777 25.4904C16.5339 25.5123 16.594 25.5223 16.6542 25.5197Z" fill="white"/>
<path d="M30.4879 25.5198C30.6391 25.5198 30.7147 25.5198 30.7903 25.3686C30.8388 25.3369 30.8799 25.2949 30.9106 25.2457C30.9413 25.1965 30.9609 25.1412 30.9681 25.0837C30.9753 25.0262 30.9699 24.9677 30.9522 24.9125C30.9346 24.8572 30.9051 24.8065 30.8659 24.7638L28.7492 22.4205C28.598 22.2693 28.2956 22.1937 28.1444 22.4205C27.9932 22.5717 27.9176 22.8741 28.1444 23.0253L30.2611 25.3686C30.2611 25.4442 30.4117 25.5198 30.4879 25.5198ZM27.7665 25.5198C27.9177 25.5198 27.9933 25.5198 28.0689 25.3686C28.2201 25.2174 28.2957 24.915 28.0689 24.7638L23.8356 20.0015C23.6843 19.8503 23.3819 19.7747 23.2307 20.0015C23.0795 20.1527 23.0039 20.4552 23.2307 20.6064L27.4641 25.3686C27.5001 25.4147 27.5459 25.4522 27.5981 25.4784C27.6504 25.5045 27.7081 25.5187 27.7665 25.5198ZM19.0733 35.3469H32.302C32.3623 35.3481 32.4222 35.3373 32.4783 35.315C32.5344 35.2928 32.5855 35.2595 32.6285 35.2173C32.6716 35.1751 32.7058 35.1247 32.7292 35.069C32.7526 35.0134 32.7646 34.9537 32.7646 34.8934C32.7646 34.833 32.7526 34.7733 32.7292 34.7177C32.7058 34.6621 32.6716 34.6117 32.6285 34.5694C32.5855 34.5272 32.5344 34.494 32.4783 34.4717C32.4222 34.4495 32.3623 34.4387 32.302 34.4398H19.0731C18.9555 34.4479 18.8447 34.4982 18.7613 34.5816C18.6779 34.665 18.6275 34.7758 18.6195 34.8935C18.617 34.9537 18.627 35.0138 18.6489 35.07C18.6709 35.1262 18.7042 35.1772 18.7469 35.2198C18.7895 35.2624 18.8406 35.2957 18.8968 35.3176C18.9529 35.3395 19.0131 35.3495 19.0733 35.3469ZM17.637 37.3124H33.7382C33.7986 37.3136 33.8585 37.3027 33.9146 37.2805C33.9707 37.2582 34.0217 37.225 34.0648 37.1828C34.1079 37.1406 34.1421 37.0902 34.1655 37.0345C34.1888 36.9789 34.2009 36.9192 34.2009 36.8589C34.2009 36.7985 34.1888 36.7388 34.1655 36.6832C34.1421 36.6276 34.1079 36.5772 34.0648 36.5349C34.0217 36.4927 33.9707 36.4595 33.9146 36.4372C33.8585 36.415 33.7986 36.4041 33.7382 36.4053H17.6369C17.5194 36.4134 17.4087 36.4636 17.3254 36.5468C17.2421 36.63 17.1916 36.7406 17.1834 36.8581C17.1078 37.0856 17.3346 37.3124 17.637 37.3124Z" fill="white"/>
<path d="M25.6497 43.8889C35.9304 43.8889 44.2457 35.6493 44.2457 25.4442C44.2457 15.3147 35.9305 6.99951 25.7254 6.99951C15.5203 6.99951 7.20513 15.2391 7.20513 25.4442C7.20204 27.8673 7.67701 30.2671 8.60284 32.5063C9.52867 34.7455 10.8872 36.7801 12.6005 38.4934C14.3139 40.2068 16.3484 41.5653 18.5876 42.4911C20.8268 43.417 23.2266 43.892 25.6497 43.8889ZM25.6497 7.90656C35.4011 7.90656 43.2629 15.7683 43.2629 25.4442C43.2629 35.1201 35.3264 42.9819 25.6497 42.9819C15.9729 42.9819 8.0364 35.1203 8.0364 25.4442C8.0364 15.7682 15.974 7.90656 25.6497 7.90656Z" fill="white"/>
</svg>
