<svg width="107" height="107" viewBox="0 0 107 107" fill="none" xmlns="http://www.w3.org/2000/svg">
<path d="M53.5842 0.75304C64.0641 0.823331 74.2886 3.99522 82.9683 9.86871C91.6479 15.7422 98.394 24.0543 102.356 33.7567C106.318 43.4592 107.318 54.1175 105.23 64.3877C103.143 74.6579 98.061 84.08 90.6257 91.4658C83.1904 98.8516 73.7345 103.87 63.4506 105.889C53.1668 107.908 42.5153 106.837 32.8396 102.81C23.1638 98.7833 14.897 91.9818 9.08167 83.263C3.26633 74.5443 0.162856 64.2989 0.162621 53.8187C0.210197 39.6977 5.86516 26.174 15.8836 16.2223C25.902 6.27066 39.4632 0.706222 53.5842 0.75304V0.75304Z" fill="#2B61D1"/>
<path d="M59.9125 84.6317L53.8275 88.1459L40.7554 80.6095L46.6919 77.1817L46.8405 77.0953L47.0686 77.2266L59.9125 84.6317Z" fill="white"/>
<path d="M83.2752 37.1535V44.2268L70.4071 36.7975L66.917 34.783L63.427 36.7975L47.0723 46.2448L43.5823 48.2593V52.4301L37.2899 48.7984L33.7998 46.7838L30.3098 48.7984L24.3906 52.2124V37.1535L53.8312 20.156L83.2752 37.1535Z" fill="white"/>
<path d="M83.2767 52.2747V71.1761L66.922 80.6095H66.9013L50.5638 71.1761V52.2747L66.922 42.8275L83.2767 52.2747Z" fill="white"/>
<path d="M43.2056 60.2641V71.1246L33.7964 76.5601L24.3906 71.1281V60.2676L33.7998 54.8356L43.2056 60.2641Z" fill="white"/>
</svg>
