<svg width="651" height="651" viewBox="0 0 651 651" fill="none" xmlns="http://www.w3.org/2000/svg">
<g filter="url(#filter0_d_1_880)">
<circle cx="314.163" cy="314.162" r="305" fill="white"/>
</g>
<circle cx="314.163" cy="314.162" r="192" fill="#F8F9FB"/>
<g filter="url(#filter1_d_1_880)">
<circle cx="314.164" cy="314.162" r="228" fill="#F8F9FB"/>
</g>
<g filter="url(#filter2_d_1_880)">
<circle cx="314.164" cy="310.162" r="165" fill="white"/>
</g>
<path d="M314.409 208.251C334.451 208.385 354.003 214.451 370.601 225.683C387.2 236.915 400.1 252.811 407.677 271.365C415.253 289.919 417.166 310.301 413.174 329.941C409.182 349.581 399.464 367.599 385.245 381.723C371.026 395.847 352.944 405.445 333.277 409.306C313.611 413.166 293.242 411.117 274.739 403.417C256.236 395.717 240.427 382.71 229.306 366.037C218.185 349.364 212.251 329.771 212.25 309.73C212.341 282.726 223.155 256.864 242.314 237.833C261.472 218.803 287.406 208.162 314.409 208.251Z" fill="#2B61D1"/>
<path d="M326.515 368.655L314.879 375.375L289.881 360.963L301.233 354.408L301.517 354.243L301.954 354.494L326.515 368.655Z" fill="white"/>
<path d="M371.189 277.861V291.387L346.581 277.18L339.907 273.328L333.232 277.18L301.957 295.246L295.283 299.099V307.075L283.25 300.13L276.576 296.277L269.902 300.13L258.582 306.658V277.861L314.882 245.356L371.189 277.861Z" fill="white"/>
<path d="M371.19 306.777V342.923L339.915 360.963H339.875L308.632 342.923V306.777L339.915 288.711L371.19 306.777Z" fill="white"/>
<path d="M294.563 322.056V342.825L276.569 353.219L258.582 342.831V322.063L276.576 311.675L294.563 322.056Z" fill="white"/>
<defs>
<filter id="filter0_d_1_880" x="0.167303" y="0.166739" width="650.479" height="650.479" filterUnits="userSpaceOnUse" color-interpolation-filters="sRGB">
<feFlood flood-opacity="0" result="BackgroundImageFix"/>
<feColorMatrix in="SourceAlpha" type="matrix" values="0 0 0 0 0 0 0 0 0 0 0 0 0 0 0 0 0 0 127 0" result="hardAlpha"/>
<feMorphology radius="1.49923" operator="dilate" in="SourceAlpha" result="effect1_dropShadow_1_880"/>
<feOffset dx="11.2442" dy="11.2442"/>
<feGaussianBlur stdDeviation="9.37018"/>
<feComposite in2="hardAlpha" operator="out"/>
<feColorMatrix type="matrix" values="0 0 0 0 0.168627 0 0 0 0 0.380392 0 0 0 0 0.819608 0 0 0 0.1 0"/>
<feBlend mode="normal" in2="BackgroundImageFix" result="effect1_dropShadow_1_880"/>
<feBlend mode="normal" in="SourceGraphic" in2="effect1_dropShadow_1_880" result="shape"/>
</filter>
<filter id="filter1_d_1_880" x="77.1687" y="77.1667" width="496.479" height="496.479" filterUnits="userSpaceOnUse" color-interpolation-filters="sRGB">
<feFlood flood-opacity="0" result="BackgroundImageFix"/>
<feColorMatrix in="SourceAlpha" type="matrix" values="0 0 0 0 0 0 0 0 0 0 0 0 0 0 0 0 0 0 127 0" result="hardAlpha"/>
<feMorphology radius="1.49923" operator="dilate" in="SourceAlpha" result="effect1_dropShadow_1_880"/>
<feOffset dx="11.2442" dy="11.2442"/>
<feGaussianBlur stdDeviation="9.37018"/>
<feComposite in2="hardAlpha" operator="out"/>
<feColorMatrix type="matrix" values="0 0 0 0 0.168627 0 0 0 0 0.380392 0 0 0 0 0.819608 0 0 0 0.1 0"/>
<feBlend mode="normal" in2="BackgroundImageFix" result="effect1_dropShadow_1_880"/>
<feBlend mode="normal" in="SourceGraphic" in2="effect1_dropShadow_1_880" result="shape"/>
</filter>
<filter id="filter2_d_1_880" x="140.168" y="136.167" width="370.48" height="370.48" filterUnits="userSpaceOnUse" color-interpolation-filters="sRGB">
<feFlood flood-opacity="0" result="BackgroundImageFix"/>
<feColorMatrix in="SourceAlpha" type="matrix" values="0 0 0 0 0 0 0 0 0 0 0 0 0 0 0 0 0 0 127 0" result="hardAlpha"/>
<feMorphology radius="1.49923" operator="dilate" in="SourceAlpha" result="effect1_dropShadow_1_880"/>
<feOffset dx="11.2442" dy="11.2442"/>
<feGaussianBlur stdDeviation="9.37018"/>
<feComposite in2="hardAlpha" operator="out"/>
<feColorMatrix type="matrix" values="0 0 0 0 0.168627 0 0 0 0 0.380392 0 0 0 0 0.819608 0 0 0 0.1 0"/>
<feBlend mode="normal" in2="BackgroundImageFix" result="effect1_dropShadow_1_880"/>
<feBlend mode="normal" in="SourceGraphic" in2="effect1_dropShadow_1_880" result="shape"/>
</filter>
</defs>
</svg>
