<svg xmlns="http://www.w3.org/2000/svg" xmlns:xlink="http://www.w3.org/1999/xlink" width="306" height="304" viewBox="0 0 306 304"><defs><clipPath id="a"><rect width="306" height="304" transform="translate(-10847 10333.999)" fill="none" stroke="#707070" stroke-width="1"/></clipPath></defs><g transform="translate(10847 -10333.999)" clip-path="url(#a)"><path d="M-125.945-240.513l-2.411-2.427a2.908,2.908,0,0,0-4.961,2.053v34.657a2.916,2.916,0,0,0,2.918,2.9h34.666a2.9,2.9,0,0,0,2.048-4.951,2.9,2.9,0,0,1,0-4.1l36.871-36.984a2.892,2.892,0,0,0,0-4.1l-3.359-3.347a2.905,2.905,0,0,1,2.053-4.954h34.645a2.913,2.913,0,0,1,2.913,2.9V-224.2a2.914,2.914,0,0,1-4.971,2.053l-2.335-2.334a2.832,2.832,0,0,0-4.092,0l-62.164,62.134a2.906,2.906,0,0,1-4.1,0l-76.053-76.053a2.9,2.9,0,0,1,0-4.117L-69-347.8a2.915,2.915,0,0,0,0-4.111l-24.757-24.754a2.914,2.914,0,0,0-4.107,0l-136.3,136.3a2.919,2.919,0,0,0,0,4.111L-97.875-99.971a2.924,2.924,0,0,0,4.112,0L42.513-236.253a2.912,2.912,0,0,0,0-4.1l-80.177-80.178a2.908,2.908,0,0,0-4.1,0l-80.053,80.021a2.91,2.91,0,0,1-4.126,0Z" transform="translate(-10598.177 10721.233)" fill="#de5959"/></g></svg>