<svg width="30" height="41" viewBox="0 0 30 41" fill="none" xmlns="http://www.w3.org/2000/svg">
<path d="M29.4853 14.8404C29.4853 17.7171 28.6322 20.5293 27.034 22.9212C25.4358 25.3131 23.1642 27.1773 20.5064 28.2782C17.8487 29.3791 14.9242 29.6671 12.1027 29.1059C9.28126 28.5447 6.68959 27.1594 4.65544 25.1253C2.62128 23.0911 1.23601 20.4994 0.674786 17.678C0.113565 14.8565 0.401604 11.932 1.50248 9.27427C2.60336 6.61652 4.46762 4.34491 6.85954 2.74668C9.25145 1.14846 12.0636 0.29541 14.9403 0.29541C18.7979 0.29541 22.4974 1.82782 25.2252 4.55554C27.9529 7.28325 29.4853 10.9828 29.4853 14.8404Z" fill="#2B61D1"/>
<path d="M29.4853 25.5579C29.4853 28.4347 28.6322 31.2468 27.034 33.6387C25.4358 36.0306 23.1642 37.8949 20.5064 38.9958C17.8487 40.0966 14.9242 40.3847 12.1027 39.8234C9.28126 39.2622 6.68959 37.8769 4.65544 35.8428C2.62128 33.8086 1.23601 31.217 0.674786 28.3955C0.113565 25.5741 0.401604 22.6496 1.50248 19.9918C2.60336 17.3341 4.46762 15.0624 6.85954 13.4642C9.25145 11.866 12.0636 11.0129 14.9403 11.0129C18.7979 11.0129 22.4974 12.5454 25.2252 15.2731C27.9529 18.0008 29.4853 21.7004 29.4853 25.5579Z" fill="#2B61D1"/>
<path d="M1.41513 20.1983C2.49011 17.4885 4.35423 15.1641 6.76589 13.5263C9.17754 11.8886 12.0255 11.0129 14.9407 11.0129C17.8559 11.0129 20.7039 11.8886 23.1156 13.5263C25.5272 15.1641 27.3913 17.4885 28.4663 20.1983C27.3913 22.908 25.5272 25.2324 23.1156 26.8702C20.7039 28.508 17.8559 29.3836 14.9407 29.3836C12.0255 29.3836 9.17754 28.508 6.76589 26.8702C4.35423 25.2324 2.49011 22.908 1.41513 20.1983Z" fill="#F5F5F5"/>
</svg>
