<svg width="1042" height="74" viewBox="0 0 1042 74" fill="none" xmlns="http://www.w3.org/2000/svg">
<path d="M2.13768 72V49.6229C1.37903 44.459 3.38945 34.1311 17.5003 34.1311C23.8236 34.1311 81.3833 34.1311 164.5 34.1311M500 2C500 4.29508 500 11.4098 500 21.5082C500 31.6066 491.655 34.1311 487.482 34.1311C478.153 34.1311 467.13 34.1311 455 34.1311M164.5 72V34.1311M164.5 34.1311C214.269 34.1311 254.667 34.1311 309 34.1311M309 72V34.1311M309 34.1311C353.887 34.1311 411.545 34.1311 455 34.1311M455 34.1311V72" stroke="#2B61D1" stroke-width="3.40589" stroke-linecap="round"/>
<path d="M1039.85 72V49.9426C1040.67 44.8525 1038.49 34.6721 1023.19 34.6721C1016.34 34.6721 980.127 34.6721 890 34.6721M500 3C500 5.2623 500 12.2754 500 22.2295C500 32.1836 509.049 34.6721 513.573 34.6721C532.926 34.6721 565.078 34.6721 600.5 34.6721M890 72V34.6721M890 34.6721C836.034 34.6721 800.915 34.6721 742 34.6721M742 72V34.6721M742 34.6721C705.731 34.6721 649.932 34.6721 600.5 34.6721M600.5 34.6721V72" stroke="#2B61D1" stroke-width="3.40589" stroke-linecap="round"/>
</svg>
