<svg width="111" height="24" viewBox="0 0 111 24" fill="none" xmlns="http://www.w3.org/2000/svg">
    <path d="M33.4363 0.542969L30.1718 11.9259C29.7431 13.4153 29.4024 14.9259 29.1496 16.4579C29.1496 16.4685 29.1496 16.4791 29.1496 16.4791H29.0506C28.9627 15.6281 28.7319 14.777 28.589 14.0536L24.9948 0.542969H17.6414L14.0692 14.043C13.9263 14.7664 13.6955 15.6174 13.6075 16.4685H13.5086C13.5086 16.4579 13.5086 16.4472 13.5086 16.4472C13.2558 14.9153 12.9151 13.4047 12.4864 11.9153L9.23289 0.542969H4.0229L5.55073 5.89403H0V9.72382H6.63889L7.72705 13.5323H0V17.3728H8.81521L10.5629 23.5111H16.7841L20.9938 7.41531C21.1257 6.81956 21.2466 6.17063 21.2796 5.71318H21.3785C21.4115 6.15999 21.5324 6.81956 21.6643 7.41531L25.8741 23.5111H32.0953L38.6462 0.542969H33.4363Z" fill="#053F33"/>
    <path d="M47.1975 0.542969H41.6577V23.5111H47.1975V0.542969Z" fill="#053F33"/>
    <path d="M51.4185 0.542969V23.5111H56.5075V5.09616H64.949V0.542969H51.4185Z" fill="#053F33"/>
    <path d="M87.2181 7.09574C86.7785 5.70213 86.119 4.47872 85.2397 3.42553C84.3603 2.37234 83.2392 1.53191 81.8762 0.925532C80.5243 0.308511 78.8096 0 76.963 0C75.2374 0 73.5886 0.287234 72.2257 0.861702C70.8627 1.43617 69.7086 2.23404 68.7743 3.2766C67.84 4.31915 67.1146 5.56383 66.62 7.03191C66.1254 8.5 65.8726 10.1383 65.8726 11.9574C65.8726 13.7979 66.1254 15.4681 66.642 16.9468C67.1586 18.4255 67.895 19.6809 68.8403 20.7234C69.7965 21.766 70.9616 22.5638 72.3356 23.1383C73.7095 23.7128 75.3912 24 77.1389 24C79.3482 24 81.4036 23.6277 83.0853 22.8723C84.767 22.1277 86.086 21.0851 87.0533 19.766L83.9207 16.3723C83.1952 17.2766 82.3709 18.0106 81.4476 18.5957C80.5243 19.1809 79.2273 19.4681 77.7764 19.4681C75.8749 19.4681 74.2151 18.9681 73.2479 17.9681C72.3466 17.0319 71.8629 15.8085 71.797 14.2979H87.8446L87.8776 11.5638C87.8776 9.97872 87.6578 8.48936 87.2181 7.09574ZM82.3159 9.69149H71.797V9.57447C71.797 7.98936 72.2476 7.14894 73.1599 6.14894C74.0722 5.14894 75.5121 4.58511 77.0619 4.58511C78.6118 4.58511 80.0516 5.14894 80.9639 6.14894C81.8762 7.14894 82.3269 7.98936 82.3269 9.57447V9.69149H82.3159Z" fill="#053F33"/>
    <path d="M87.6909 23.5111L95.8027 11.8196L87.9107 0.542969H94.5496L99.4409 8.11744H99.6277L104.464 0.542969H110.652L102.628 11.9047L110.74 23.5004H104.101L99.0782 15.5536H98.8913L93.8792 23.5111H87.6909Z" fill="#053F33"/>
</svg>

