<svg width="39" height="32" viewBox="0 0 39 32" fill="none" xmlns="http://www.w3.org/2000/svg">
<path d="M10.3449 19.7704H6.39045C5.73525 19.7704 5.20411 20.3015 5.20411 20.9567V24.9112C5.20411 25.5664 5.73525 26.0975 6.39045 26.0975H10.3449C11.0001 26.0975 11.5313 25.5664 11.5313 24.9112V20.9567C11.5313 20.3015 11.0001 19.7704 10.3449 19.7704Z" fill="#2B61D1"/>
<path d="M20.6244 11.0704H16.6699C16.0147 11.0704 15.4836 11.6016 15.4836 12.2568V24.9111C15.4836 25.5663 16.0147 26.0974 16.6699 26.0974H20.6244C21.2796 26.0974 21.8108 25.5663 21.8108 24.9111V12.2568C21.8108 11.6016 21.2796 11.0704 20.6244 11.0704Z" fill="#2B61D1"/>
<path d="M31.6979 0.788818H27.7434C27.0882 0.788818 26.557 1.31996 26.557 1.97516V24.9111C26.557 25.5663 27.0882 26.0975 27.7434 26.0975H31.6979C32.3531 26.0975 32.8842 25.5663 32.8842 24.9111V1.97516C32.8842 1.31996 32.3531 0.788818 31.6979 0.788818Z" fill="#2B61D1"/>
<path d="M38.0254 30.682V29.7994C38.0254 29.1442 37.4942 28.613 36.839 28.613L1.24874 28.613C0.593536 28.613 0.0623932 29.1442 0.0623932 29.7994V30.682C0.0623932 31.3372 0.593536 31.8684 1.24874 31.8684L36.839 31.8684C37.4942 31.8684 38.0254 31.3372 38.0254 30.682Z" fill="#2B61D1"/>
</svg>
