<svg width="37" height="37" viewBox="0 0 37 37" fill="none" xmlns="http://www.w3.org/2000/svg">
<path d="M2.77549 0.00146484C1.78138 0.00146484 0.975494 0.807352 0.975494 1.80147V32.4015C0.975494 34.3897 2.58727 36.0015 4.5755 36.0015H35.1755C36.1696 36.0015 36.9755 35.1956 36.9755 34.2015C36.9755 33.2074 36.1696 32.4015 35.1755 32.4015H6.37549C5.38138 32.4015 4.57549 31.5956 4.57549 30.6015V1.80147C4.57549 0.807353 3.76961 0.00146484 2.77549 0.00146484Z" fill="#2B61D1"/>
<path d="M31.1328 11.11C32.6003 8.69121 33.9405 6.48207 35.1755 5.40147V28.8015C35.1755 29.7956 34.3696 30.6015 33.3755 30.6015H8.17549C7.18138 30.6015 6.37549 29.7956 6.37549 28.8015V21.9934C6.37549 21.7352 6.42989 21.4795 6.54186 21.2468C8.64087 16.8844 12.496 12.9902 16.6612 18.0015C22.6098 25.1584 27.3042 17.4207 31.1328 11.11Z" fill="#2B61D1"/>
</svg>
