<svg xmlns="http://www.w3.org/2000/svg" xmlns:xlink="http://www.w3.org/1999/xlink" width="160" height="21.939" viewBox="0 0 160 21.939">
  <defs>
    <clipPath id="clip-path">
      <rect id="Rectangle_1718" data-name="Rectangle 1718" width="152.082" height="21.939" transform="translate(165.988 54.533)" fill="none"/>
    </clipPath>
  </defs>
  <g id="Lumen-logo" transform="translate(-165.988 -54.533)">
    <g id="Group_4657" data-name="Group 4657">
      <g id="Group_4656" data-name="Group 4656" clip-path="url(#clip-path)">
        <path id="Path_1127" data-name="Path 1127" d="M165.988,56.133V74.322c0,1.1.641,1.6,1.875,1.6h17.193c1.189,0,1.874-.5,1.874-1.6,0-1.051-.685-1.6-1.874-1.6h-14.77c-.594,0-.823-.274-.823-.823V56.133a1.6,1.6,0,0,0-1.737-1.6,1.627,1.627,0,0,0-1.738,1.6"/>
        <path id="Path_1128" data-name="Path 1128" d="M195.527,67.949V56.133a1.743,1.743,0,0,0-3.475,0V68.269c0,7.362,4.572,8.2,12.483,8.2s12.483-.84,12.483-8.2V56.133a1.743,1.743,0,0,0-3.475,0V67.949c0,5.99-3.2,5.184-9.008,5.184s-9.008.714-9.008-5.184"/>
        <path id="Path_1129" data-name="Path 1129" d="M250.9,59.883V74.6a1.6,1.6,0,0,0,1.737,1.6,1.576,1.576,0,0,0,1.738-1.6V56.91a2.251,2.251,0,0,0-2.2-2.377c-1.2,0-1.723.679-2.88,1.737l-8.871,8.752h-.046l-8.871-8.706c-1.137-1.171-2-1.783-3.018-1.783a2.459,2.459,0,0,0-2.24,2.377V74.6a1.6,1.6,0,0,0,1.737,1.6,1.576,1.576,0,0,0,1.738-1.6V59.837h.183l8.459,8.02c.761.746,1.353,1.326,1.966,1.326.77,0,1.165-.6,2.012-1.326l8.414-7.974Z"/>
        <path id="Path_1130" data-name="Path 1130" d="M284.828,56.453c0-1.051-.64-1.646-1.875-1.646H265.577c-1.234,0-1.874.6-1.874,1.646v1.594l19.3-.039c1.189,0,1.829-.549,1.829-1.555" fill="#0c9ed9"/>
        <path id="Path_1131" data-name="Path 1131" d="M263.7,63.837V74.322c0,1.1.64,1.6,1.875,1.6h17.558c1.189,0,1.829-.5,1.829-1.6,0-1.052-.64-1.6-1.829-1.6H268c-.594,0-.823-.275-.823-.823V67.08h11.431c1.235,0,1.875-.549,1.875-1.6,0-1-.64-1.6-1.875-1.6Z"/>
        <path id="Path_1132" data-name="Path 1132" d="M318.07,74.139V56.133a1.626,1.626,0,0,0-1.737-1.6,1.6,1.6,0,0,0-1.738,1.6V70.71L297.4,56.27c-1.183-.993-1.842-1.737-2.972-1.737-1.24,0-2.057.823-2.057,2.377V74.6a1.626,1.626,0,0,0,1.737,1.6,1.6,1.6,0,0,0,1.738-1.6V59.7l17.01,14.622c1.139.968,1.929,1.875,3.109,1.875a2.031,2.031,0,0,0,2.1-2.058"/>
      </g>
    </g>
    <g id="Group_4660" data-name="Group 4660">
      <g id="Group_4659" data-name="Group 4659">
        <g id="Group_4658" data-name="Group 4658">
          <path id="Path_1133" data-name="Path 1133" d="M320.493,57.449v-.016a2.748,2.748,0,1,1,5.495-.016v.016a2.748,2.748,0,1,1-5.495.016Zm5.179-.016v-.016a2.432,2.432,0,1,0-4.863.016v.016a2.432,2.432,0,1,0,4.863-.016Zm-3.505-1.452h1.263c.616,0,1.074.3,1.074.884a.841.841,0,0,1-.648.852l.743,1.058h-.648l-.663-.963H322.7v.963h-.537Zm1.216,1.389c.363,0,.568-.189.568-.458,0-.3-.2-.458-.568-.458H322.7v.916Z"/>
        </g>
      </g>
    </g>
  </g>
</svg>
