<?xml version="1.0" encoding="UTF-8" standalone="no"?>
<svg
   xmlns:dc="http://purl.org/dc/elements/1.1/"
   xmlns:cc="http://creativecommons.org/ns#"
   xmlns:rdf="http://www.w3.org/1999/02/22-rdf-syntax-ns#"
   xmlns:svg="http://www.w3.org/2000/svg"
   xmlns="http://www.w3.org/2000/svg"
   xmlns:sodipodi="http://sodipodi.sourceforge.net/DTD/sodipodi-0.dtd"
   xmlns:inkscape="http://www.inkscape.org/namespaces/inkscape"
   version="1.1"
   id="Layer_1"
   x="0px"
   y="0px"
   viewBox="0 0 257.53925 55.700001"
   xml:space="preserve"
   sodipodi:docname="Presearch_Logo.svg"
   width="257.53925"
   height="55.700001"
   inkscape:version="1.0.1 (3bc2e813f5, 2020-09-07)"><metadata
   id="metadata41"><rdf:RDF><cc:Work
       rdf:about=""><dc:format>image/svg+xml</dc:format><dc:type
         rdf:resource="http://purl.org/dc/dcmitype/StillImage" /></cc:Work></rdf:RDF></metadata><defs
   id="defs39" /><sodipodi:namedview
   pagecolor="#ffffff"
   bordercolor="#666666"
   borderopacity="1"
   objecttolerance="10"
   gridtolerance="10"
   guidetolerance="10"
   inkscape:pageopacity="0"
   inkscape:pageshadow="2"
   inkscape:window-width="1920"
   inkscape:window-height="1017"
   id="namedview37"
   showgrid="false"
   inkscape:zoom="2.9513889"
   inkscape:cx="129.1"
   inkscape:cy="40"
   inkscape:window-x="-8"
   inkscape:window-y="-8"
   inkscape:window-maximized="1"
   inkscape:current-layer="Layer_1" />
<style
   type="text/css"
   id="style2">
	.st0{fill:#2D8EFF;}
</style>
<g
   id="g34"
   transform="translate(-14.9,-104)">
	<g
   id="g24">
		<g
   id="g22">
			<path
   class="st0"
   d="m 272.2,129.8 c -0.2,-1 -0.6,-1.9 -1.1,-2.7 -0.5,-0.8 -1.3,-1.4 -2.1,-1.8 -1,-0.5 -2.1,-0.7 -3.2,-0.7 -1.7,0 -3.3,0.4 -4.7,1.3 -1.5,0.8 -2.6,2.1 -3.5,3.5 v -12.6 h -3.5 v 28.7 h 3.6 v -12.4 c 0.3,-0.8 0.6,-1.5 1.1,-2.2 0.4,-0.6 1,-1.2 1.6,-1.7 0.6,-0.5 1.3,-0.8 2,-1.2 0.7,-0.2 1.4,-0.4 2.1,-0.4 1.3,-0.1 2.6,0.5 3.3,1.6 0.8,1 1.1,2.6 1.1,4.7 v 11.4 h 3.5 v -12.2 c 0.1,-1.1 0,-2.2 -0.2,-3.3 z"
   id="path4" />
			<path
   class="st0"
   d="m 163.8,135.9 c -0.8,-0.5 -1.7,-0.9 -2.6,-1.2 -1.1,-0.3 -2.3,-0.7 -3.7,-1 -0.9,-0.2 -1.6,-0.4 -2.3,-0.6 -0.6,-0.1 -1.1,-0.4 -1.6,-0.6 -0.4,-0.2 -0.7,-0.5 -0.9,-0.8 -0.2,-0.4 -0.3,-0.8 -0.3,-1.2 -0.1,-1 0.4,-2 1.4,-2.5 1,-0.5 2.1,-0.8 3.3,-0.8 1.2,0 2.3,0.2 3.5,0.5 1.2,0.3 2.1,1 3,1.7 l 1.6,-2.1 c -1,-0.8 -2.2,-1.5 -3.5,-1.9 -1.5,-0.5 -3,-0.8 -4.5,-0.7 -1.1,0 -2.1,0.1 -3.2,0.4 -0.9,0.2 -1.8,0.7 -2.6,1.2 -0.8,0.5 -1.3,1.2 -1.8,2 -0.4,0.8 -0.6,1.8 -0.6,2.7 0,0.7 0.1,1.4 0.4,2.1 0.3,0.6 0.8,1.1 1.3,1.4 0.7,0.4 1.5,0.8 2.3,1 0.9,0.3 2,0.6 3.3,0.9 1,0.2 1.9,0.5 2.6,0.7 0.6,0.2 1.3,0.4 1.9,0.7 0.4,0.2 0.8,0.5 1.1,0.9 0.3,0.4 0.4,0.8 0.4,1.3 0.1,1 -0.5,1.9 -1.4,2.5 -1.1,0.7 -2.4,1 -3.7,0.9 -1.3,0 -2.7,-0.2 -4,-0.7 -1.4,-0.5 -2.6,-1.2 -3.8,-2.1 l -1.5,2.3 c 1.3,1 2.7,1.8 4.3,2.2 1.6,0.5 3.3,0.8 5,0.8 2.6,0 4.7,-0.5 6.2,-1.7 1.5,-1.2 2.3,-2.9 2.3,-4.7 0,-0.8 -0.1,-1.5 -0.5,-2.2 -0.2,-0.5 -0.7,-1 -1.4,-1.4 z"
   id="path6" />
			<path
   class="st0"
   d="m 227.1,124.7 c -1.4,0.1 -2.7,0.6 -3.8,1.5 -1.3,0.9 -2.2,2.1 -2.9,3.5 v -4.8 H 217 v 20.5 h 3.7 v -12.6 c 0.4,-1.4 1.5,-2.7 2.8,-3.5 1.5,-0.8 3.1,-1.3 4.8,-1.3 v -3.1 c -0.2,0 -0.3,-0.1 -0.5,-0.1 h -0.7 z"
   id="path8" />
			<path
   class="st0"
   d="m 211.2,141.2 v -8.4 c 0,-2.6 -0.8,-4.7 -2.3,-6.1 -1.6,-1.5 -3.7,-2.2 -6.6,-2.2 -3,0.1 -5.9,1 -8.3,2.7 l 1.2,2.2 c 2.4,-1.6 4.6,-2.4 6.8,-2.4 2.8,-0.3 5.4,1.7 5.7,4.4 0.1,0.3 0.1,0.7 0,1 v 1.6 c -0.9,-0.4 -1.8,-0.6 -2.8,-0.7 -1.1,-0.2 -2.1,-0.2 -3.2,-0.3 -1.2,0 -2.5,0.1 -3.6,0.5 -1,0.3 -2,0.7 -2.8,1.3 -0.8,0.5 -1.5,1.2 -1.9,2 -0.4,0.8 -0.6,1.7 -0.6,2.5 0,0.8 0.2,1.8 0.6,2.5 0.4,0.8 0.9,1.5 1.5,2 0.6,0.6 1.5,1 2.3,1.3 0.9,0.3 1.8,0.5 2.8,0.5 1.6,0 3.2,-0.3 4.7,-1 1.5,-0.6 2.7,-1.6 3.6,-2.8 l 0.1,1.5 c 0.1,0.5 0.3,1.1 0.8,1.5 0.4,0.4 1.1,0.6 1.7,0.6 0.3,0.2 0.5,0.2 0.8,0.1 l 0.9,-0.1 v -3 c -1,0.1 -1.4,-0.4 -1.4,-1.2 z m -3.6,-2 c -0.1,0.6 -0.3,1.2 -0.8,1.5 -0.6,0.8 -1.5,1.5 -2.5,1.8 -1.1,0.5 -2.3,0.7 -3.6,0.7 -0.6,0 -1.3,-0.1 -1.8,-0.3 -0.6,-0.2 -1.1,-0.5 -1.5,-0.8 -0.4,-0.4 -0.8,-0.8 -1,-1.3 -0.3,-0.5 -0.4,-1 -0.3,-1.6 0,-1.2 0.6,-2.2 1.7,-2.8 1.3,-0.8 2.8,-1.2 4.4,-1.1 1.9,0 3.7,0.3 5.4,1 z"
   id="path10" />
			<path
   class="st0"
   d="m 245.7,140.8 c -0.4,0.4 -0.8,0.7 -1.3,1 -0.5,0.3 -1.1,0.5 -1.7,0.7 -0.6,0.2 -1.3,0.2 -1.9,0.2 -0.9,0 -1.9,-0.2 -2.8,-0.6 -0.9,-0.4 -1.6,-1 -2.3,-1.6 -0.6,-0.7 -1.2,-1.6 -1.5,-2.5 v 0.2 c -0.4,-1 -0.6,-2 -0.6,-3 0,-1 0.2,-2.1 0.6,-3 0.3,-0.9 0.8,-1.7 1.5,-2.4 0.6,-0.7 1.4,-1.2 2.3,-1.6 0.9,-0.4 1.8,-0.5 2.8,-0.5 1.1,0 2.3,0.2 3.3,0.8 0.9,0.5 1.8,1.3 2.3,2.2 l 3.5,-1.1 c -0.8,-1.5 -2,-2.8 -3.5,-3.6 -1.6,-0.9 -3.6,-1.4 -5.5,-1.3 -1.5,0 -3,0.2 -4.4,0.8 -1.3,0.5 -2.5,1.3 -3.4,2.3 -0.9,1 -1.7,2.1 -2.2,3.3 -1.1,2.7 -1.1,5.6 0,8.2 0.5,1.3 1.3,2.4 2.2,3.4 2,2.1 4.9,3.2 7.8,3.2 2,0 4,-0.5 5.7,-1.5 0.8,-0.4 1.5,-1 2.1,-1.6 0.6,-0.6 1,-1.3 1.4,-2.1 l -3.5,-1 c -0.3,0.4 -0.5,0.8 -0.9,1.1 z"
   id="path12" />
			<path
   class="st0"
   d="m 187.4,127.7 c -2,-2.1 -4.9,-3.2 -7.8,-3.1 -1.5,0 -3,0.2 -4.4,0.8 -1.3,0.5 -2.5,1.3 -3.5,2.3 -0.9,1 -1.8,2.1 -2.3,3.4 -0.6,1.3 -0.8,2.7 -0.8,4.1 0,1.4 0.3,2.8 0.8,4.1 0.5,1.3 1.3,2.4 2.2,3.4 0.9,1 2.1,1.8 3.5,2.3 1.4,0.5 2.9,0.8 4.4,0.8 1,0 2.1,-0.1 3.1,-0.4 0.9,-0.2 1.8,-0.6 2.6,-1.1 0.8,-0.4 1.5,-1 2.1,-1.6 0.6,-0.6 1.1,-1.3 1.5,-2.1 l -3.1,-0.8 c -0.3,0.5 -0.6,1 -0.9,1.4 -0.4,0.4 -0.9,0.8 -1.5,1.1 -0.6,0.3 -1.1,0.5 -1.8,0.7 -0.6,0.2 -1.3,0.2 -1.9,0.2 -0.9,0 -1.8,-0.2 -2.6,-0.5 -0.8,-0.4 -1.6,-0.8 -2.2,-1.4 -0.7,-0.6 -1.2,-1.3 -1.6,-2.2 -0.4,-0.9 -0.7,-1.8 -0.8,-2.8 h 17.7 c 0,-0.3 0,-0.5 0,-0.7 0,-0.2 0,-0.5 0,-0.8 0,-1.3 -0.3,-2.7 -0.8,-3.9 -0.3,-1 -1,-2.2 -1.9,-3.2 z m -15,6.1 c 0.1,-0.9 0.3,-1.8 0.7,-2.7 0.4,-0.8 0.9,-1.5 1.6,-2.1 0.6,-0.6 1.4,-1 2.2,-1.4 2.6,-1 5.6,-0.5 7.6,1.3 0.6,0.6 1.2,1.3 1.6,2.1 0.4,0.9 0.7,1.8 0.8,2.7 h -14.5 z"
   id="path14" />
			<path
   class="st0"
   d="m 104.9,120.3 c -0.8,-0.8 -1.7,-1.5 -2.8,-2.1 -1.1,-0.5 -2.3,-0.8 -3.5,-0.8 H 86.5 v 27.9 h 3.7 v -10 h 8.7 c 1.2,0 2.4,-0.2 3.5,-0.7 1,-0.5 2,-1.2 2.7,-2 0.8,-0.8 1.4,-1.9 1.7,-2.9 0.4,-1.1 0.6,-2.2 0.6,-3.3 0,-1.1 -0.2,-2.2 -0.6,-3.3 -0.5,-0.9 -1.2,-1.9 -1.9,-2.8 z m -1.7,8.4 c -0.3,0.7 -0.6,1.3 -1,1.9 -0.4,0.5 -0.9,1 -1.6,1.3 -0.7,0.3 -1.3,0.5 -2.1,0.4 H 90 v -11.6 h 8.2 c 0.7,0 1.4,0.1 2,0.4 0.6,0.3 1.2,0.7 1.7,1.2 1,1.2 1.6,2.6 1.6,4.1 0.1,0.9 0,1.6 -0.3,2.3 z"
   id="path16" />
			<path
   class="st0"
   d="m 121.5,124.8 c -1.4,0.1 -2.7,0.6 -3.8,1.5 -1.3,0.9 -2.2,2.1 -2.9,3.5 V 125 h -3.3 v 20.5 h 3.6 v -12.7 c 0.5,-1.4 1.5,-2.7 2.9,-3.5 1.5,-0.8 3.1,-1.3 4.8,-1.3 v -3.1 c -0.2,0 -0.3,-0.1 -0.5,-0.1 z"
   id="path18" />
			<path
   class="st0"
   d="m 145.9,135.8 c 0,-0.2 0,-0.5 0,-0.8 0,-1.3 -0.3,-2.7 -0.8,-3.9 -0.5,-1.2 -1.2,-2.4 -2.1,-3.3 -2,-2.1 -4.9,-3.2 -7.8,-3.1 -1.5,0 -3,0.2 -4.4,0.8 -2.6,1.1 -4.7,3.1 -5.7,5.7 -0.6,1.3 -0.8,2.7 -0.8,4.1 0,1.4 0.3,2.8 0.8,4.1 0.5,1.3 1.3,2.4 2.2,3.4 0.9,1 2.1,1.8 3.5,2.3 1.4,0.5 2.9,0.8 4.4,0.8 1,0 2.1,-0.1 3.1,-0.4 0.9,-0.2 1.8,-0.6 2.6,-1.1 0.8,-0.4 1.5,-1 2.1,-1.6 0.6,-0.6 1.1,-1.3 1.5,-2.1 l -3.1,-0.8 c -0.2,0.5 -0.6,1 -0.9,1.4 -0.4,0.4 -0.9,0.8 -1.5,1.1 -0.6,0.3 -1.1,0.5 -1.8,0.7 -0.6,0.2 -1.3,0.2 -1.9,0.2 -0.9,0 -1.8,-0.2 -2.6,-0.5 -0.8,-0.4 -1.6,-0.8 -2.2,-1.4 -0.7,-0.6 -1.2,-1.3 -1.6,-2.2 -0.4,-0.9 -0.7,-1.8 -0.8,-2.8 h 17.7 c 0.1,-0.2 0.1,-0.4 0.1,-0.6 z m -17.9,-2 c 0.1,-0.9 0.3,-1.8 0.7,-2.7 0.4,-0.8 0.9,-1.5 1.6,-2.1 0.6,-0.6 1.4,-1 2.2,-1.4 2.6,-1 5.6,-0.5 7.6,1.3 0.6,0.6 1.2,1.3 1.6,2.1 0.4,0.9 0.7,1.8 0.8,2.7 H 128 Z"
   id="path20" />
		</g>
	</g>
	<g
   id="g32">
		<path
   class="st0"
   d="M 34.6,138.6 H 40 c 1.5,0 3.1,-0.3 4.5,-1 1.3,-0.7 2.5,-1.5 3.5,-2.7 0.9,-1.1 1.7,-2.5 2.2,-3.9 0.5,-1.4 0.8,-2.9 0.8,-4.5 0,-1.5 -0.3,-2.9 -0.9,-4.4 -0.5,-1.3 -1.3,-2.7 -2.3,-3.8 -1,-1.1 -2.2,-2.1 -3.5,-2.7 -1.4,-0.7 -2.9,-1.1 -4.5,-1.1 H 25.5 v 34.6 h 9.1 z m 0,-15.7 h 4.6 c 0.7,0.1 1.3,0.3 1.7,0.8 0.5,0.5 0.9,1.5 0.9,2.9 0,1.5 -0.3,2.3 -0.8,2.8 -0.4,0.5 -0.9,0.8 -1.5,0.8 h -4.8 v -7.3 z"
   id="path26" />
		<path
   class="st0"
   d="m 14.9,107.2 v 49.3 c 0,1.8 1.4,3.2 3.2,3.2 h 49.3 c 1.8,0 3.2,-1.4 3.2,-3.2 v -49.3 c 0,-1.8 -1.4,-3.2 -3.2,-3.2 H 18.1 c -1.7,0 -3.2,1.5 -3.2,3.2 z m 46,46 H 24.6 c -1.8,0 -3.2,-1.4 -3.2,-3.2 v -36.3 c 0,-1.8 1.4,-3.2 3.2,-3.2 h 36.3 c 1.8,0 3.2,1.4 3.2,3.2 V 150 c 0,1.8 -1.4,3.2 -3.2,3.2 z"
   id="path28" />
		<rect
   x="38.700001"
   y="142.7"
   class="st0"
   width="21.4"
   height="6.5999999"
   id="rect30" />
	</g>
</g>
</svg>
