<svg width="242" height="40" viewBox="0 0 242 40" fill="none" xmlns="http://www.w3.org/2000/svg">
<path fill-rule="evenodd" clip-rule="evenodd" d="M17.6303 0.523991C6.52086 10.0811 8.65808 27.0407 20.3126 34.7496C13.5906 23.0875 13.0602 11.7289 17.6303 0.523991Z" fill="#93C01D"/>
<path fill-rule="evenodd" clip-rule="evenodd" d="M26.6794 0.523991C37.7878 10.0811 35.6516 27.0407 24 34.7496C30.7171 23.0875 31.2514 11.7289 26.6794 0.523991Z" fill="#93C01D"/>
<path fill-rule="evenodd" clip-rule="evenodd" d="M1.01014 9.37013C-3.3193 22.8298 6.80302 37.3148 21.1634 37.9987C11.3888 32.8198 3.00887 22.6586 1.01014 9.37013Z" fill="#93C01D"/>
<path fill-rule="evenodd" clip-rule="evenodd" d="M43.3076 9.37013C47.6361 22.8298 37.5128 37.3148 23.1523 37.9987C32.928 32.8198 41.305 22.6586 43.3076 9.37013Z" fill="#93C01D"/>
<path d="M146.69 25.4021V3.3502H143.25V10.9648C141.68 9.22551 139.761 8.29168 137.485 8.16717V11.4842H137.506C139.09 11.4842 140.44 12.026 141.545 13.1067C142.681 14.2069 143.25 15.523 143.25 17.0521C143.25 18.5813 142.681 19.8945 141.545 20.9966C140.44 22.0763 139.09 22.6171 137.506 22.6171H137.485V25.9059C139.782 25.7814 141.704 24.8486 143.25 23.1074V25.4021H146.69ZM137.485 8.16717C137.311 8.15647 137.131 8.15161 136.95 8.15161C134.468 8.15161 132.397 9.0475 130.735 10.8432C129.096 12.5756 128.273 14.6466 128.273 17.0521C128.273 19.4577 129.096 21.516 130.735 23.229C132.397 25.0237 134.468 25.9225 136.95 25.9225C137.131 25.9225 137.311 25.9157 137.485 25.9059V22.6171C135.858 22.6152 134.492 22.0734 133.385 20.9966C132.277 19.9363 131.723 18.6211 131.723 17.0521C131.723 15.5026 132.277 14.1874 133.385 13.1067C134.492 12.0289 135.858 11.491 137.485 11.4842V8.16717Z" fill="#073D49"/>
<path d="M126.555 17.0502C126.555 14.6047 125.643 12.5133 123.821 10.7809C122.028 9.02706 119.874 8.15063 117.364 8.15063H117.346V11.4842H117.364C118.71 11.4842 119.899 11.883 120.93 12.6768C121.83 13.3489 122.463 14.2468 122.83 15.3683H117.346V18.7009H126.395C126.448 18.3556 126.49 18.0492 126.515 17.7865C126.54 17.519 126.555 17.2749 126.555 17.0502ZM117.346 25.9205H117.364C118.79 25.9205 120.163 25.5898 121.484 24.9254C122.805 24.264 123.941 23.3408 124.892 22.157L121.96 20.3536C121.352 21.1084 120.653 21.6736 119.857 22.05C119.07 22.4304 118.237 22.6162 117.364 22.6162H117.346V25.9205ZM117.346 8.15063C114.819 8.15549 112.66 9.02901 110.87 10.7809C109.047 12.5552 108.137 14.6446 108.137 17.0502C108.137 19.4781 109.047 21.5578 110.87 23.2912C112.66 25.0412 114.819 25.9166 117.346 25.9205V22.6162C116.009 22.6142 114.812 22.2066 113.761 21.3944C112.811 20.6814 112.174 19.7806 111.86 18.7009H117.346V15.3683H111.86C112.174 14.309 112.811 13.4112 113.761 12.6768C114.812 11.885 116.009 11.4881 117.346 11.4842V8.15063Z" fill="#073D49"/>
<path d="M106.415 17.0502C106.415 14.6047 105.503 12.5133 103.681 10.7809C101.889 9.02706 99.7341 8.15063 97.2276 8.15063H97.2089V11.4842H97.2276C98.5751 11.4842 99.7616 11.883 100.791 12.6768C101.688 13.3489 102.324 14.2468 102.691 15.3683H97.2089V18.7009H106.257C106.309 18.3556 106.346 18.0492 106.376 17.7865C106.401 17.519 106.415 17.2749 106.415 17.0502ZM97.2089 25.9205H97.2276C98.6537 25.9205 100.025 25.5898 101.343 24.9254C102.666 24.264 103.799 23.3408 104.752 22.157L101.821 20.3536C101.214 21.1084 100.515 21.6736 99.7203 22.05C98.9287 22.4304 98.0998 22.6162 97.2276 22.6162H97.2089V25.9205ZM97.2089 8.15063C94.6788 8.15549 92.52 9.02901 90.7305 10.7809C88.9076 12.5552 87.9961 14.6446 87.9961 17.0502C87.9961 19.4781 88.9076 21.5578 90.7305 23.2912C92.52 25.0412 94.6788 25.9166 97.2089 25.9205V22.6162C95.8663 22.6142 94.6759 22.2066 93.623 21.3944C92.6732 20.6814 92.0397 19.7806 91.7215 18.7009H97.2089V15.3683H91.7215C92.0397 14.309 92.6732 13.4112 93.623 12.6768C94.6759 11.885 95.8663 11.4881 97.2089 11.4842V8.15063Z" fill="#073D49"/>
<path d="M86.2782 17.0502C86.2782 14.6047 85.3657 12.5133 83.5438 10.7809C81.7493 9.02706 79.5974 8.15063 77.0879 8.15063H77.0683V11.4842H77.0879C78.4364 11.4842 79.6219 11.883 80.6522 12.6768C81.5499 13.3489 82.1844 14.2468 82.5528 15.3683H77.0683V18.7009H86.119C86.1711 18.3556 86.2094 18.0492 86.2379 17.7865C86.2624 17.519 86.2782 17.2749 86.2782 17.0502ZM77.0683 25.9205H77.0879C78.514 25.9205 79.8871 25.5898 81.2052 24.9254C82.5243 24.264 83.6626 23.3408 84.6143 22.157L81.6825 20.3536C81.0756 21.1084 80.3753 21.6736 79.5826 22.05C78.789 22.4304 77.9581 22.6162 77.0879 22.6162H77.0683V25.9205ZM77.0683 8.15063C74.5421 8.15549 72.3813 9.02901 70.5928 10.7809C68.7689 12.5552 67.8594 14.6446 67.8594 17.0502C67.8594 19.4781 68.7689 21.5578 70.5928 23.2912C72.3813 25.0412 74.5421 25.9166 77.0683 25.9205V22.6162C75.7305 22.6142 74.5343 22.2066 73.4833 21.3944C72.5336 20.6814 71.9001 19.7806 71.5838 18.7009H77.0683V15.3683H71.5838C71.9001 14.309 72.5336 13.4112 73.4833 12.6768C74.5343 11.885 75.7305 11.4881 77.0683 11.4842V8.15063Z" fill="#073D49"/>
<path d="M65.702 20.659C65.702 18.5171 64.6972 17.0716 62.6916 16.3158H62.7329C62.5748 16.235 60.8039 15.879 57.4252 15.2467C55.7359 14.8985 54.8902 14.2886 54.8902 13.4112C54.8902 12.7565 55.2998 12.2575 56.1189 11.9122C56.7779 11.6262 57.5578 11.4842 58.4545 11.4842C59.3522 11.4842 60.1439 11.6262 60.8304 11.9122C61.624 12.2575 62.0198 12.8713 62.0198 13.7477H65.425C65.425 11.8509 64.6462 10.4152 63.0884 9.43269C61.7419 8.57669 60.1989 8.15063 58.4545 8.15063C56.7121 8.15063 55.1662 8.57669 53.8216 9.43269C52.2639 10.4152 51.485 11.74 51.485 13.4112C51.485 15.5522 52.4878 17.0103 54.4934 17.7856C54.6535 17.8449 55.1662 17.9626 56.0393 18.1338C56.9105 18.3089 58.151 18.5482 59.7618 18.8536C61.4521 19.2009 62.2968 19.803 62.2968 20.659C62.2968 21.9654 61.0131 22.6162 58.4545 22.6162C57.9261 22.6162 57.4576 22.5811 57.049 22.5111C56.6395 22.4372 56.2643 22.3418 55.9205 22.2183H55.9608C55.0611 21.872 54.6132 21.2427 54.6132 20.3244H51.207C51.207 22.2397 52.0399 23.6969 53.7018 24.6959C55.1279 25.513 56.7121 25.9205 58.4545 25.9205C59.3807 25.9205 60.2293 25.8164 61.0092 25.6122C61.788 25.4098 62.5227 25.1054 63.2083 24.6959C64.8721 23.6969 65.702 22.3516 65.702 20.659Z" fill="#073D49"/>
<path d="M241.44 17.0502C241.44 14.6047 240.53 12.5133 238.706 10.7809C236.91 9.02706 234.76 8.15063 232.252 8.15063H232.232V11.4842H232.252C233.835 11.4842 235.187 12.0241 236.289 13.1067C237.424 14.2069 237.995 15.522 237.995 17.0502C237.995 18.5793 237.424 19.8935 236.289 20.9966C235.187 22.0753 233.835 22.6162 232.252 22.6162H232.232V25.9205H232.252C234.76 25.9205 236.91 25.0441 238.706 23.2912C240.53 21.5753 241.44 19.4966 241.44 17.0502ZM232.232 8.15063C229.703 8.15549 227.546 9.03193 225.758 10.7809C223.936 12.5552 223.023 14.6446 223.023 17.0502C223.023 19.4781 223.936 21.5578 225.758 23.2912C227.546 25.0412 229.703 25.9166 232.232 25.9205V22.6162C230.603 22.6142 229.238 22.0734 228.131 20.9966C227.025 19.9363 226.467 18.6192 226.467 17.0502C226.467 15.5016 227.025 14.1855 228.131 13.1067C229.238 12.0279 230.603 11.49 232.232 11.4842V8.15063Z" fill="#073D49"/>
<path d="M220.593 8.70128H217.188V25.4021H220.593V8.70128Z" fill="#073D49"/>
<path d="M214.081 25.4021V3.3502H210.634V10.9648C209.065 9.22551 207.143 8.29168 204.873 8.16717V11.4842H204.889C206.474 11.4842 207.821 12.026 208.929 13.1067C210.065 14.2069 210.634 15.523 210.634 17.0521C210.634 18.5813 210.065 19.8945 208.929 20.9966C207.821 22.0763 206.474 22.6171 204.889 22.6171H204.873V25.9059C207.169 25.7814 209.089 24.8486 210.634 23.1074V25.4021H214.081ZM204.873 8.16717C204.695 8.15647 204.516 8.15161 204.335 8.15161C201.853 8.15161 199.78 9.0475 198.119 10.8432C196.48 12.5756 195.664 14.6466 195.664 17.0521C195.664 19.4577 196.48 21.516 198.119 23.229C199.78 25.0237 201.853 25.9225 204.335 25.9225C204.516 25.9225 204.695 25.9157 204.873 25.9059V22.6171C203.244 22.6152 201.876 22.0734 200.774 20.9966C199.661 19.9363 199.106 18.6211 199.106 17.0521C199.106 15.5026 199.661 14.1874 200.774 13.1067C201.876 12.0289 203.244 11.491 204.873 11.4842V8.16717Z" fill="#073D49"/>
<path d="M193.229 25.4021V8.70023H189.823V18.6416C189.823 19.7213 189.426 20.661 188.633 21.4547C188.24 21.8224 187.795 22.1074 187.31 22.3117C186.82 22.516 186.285 22.6171 185.704 22.6171C184.568 22.6171 183.605 22.23 182.811 21.4547C181.993 20.661 181.585 19.7213 181.585 18.6416V8.70023H178.18V18.6416C178.18 20.5793 178.824 22.2621 180.121 23.6871C181.466 25.1774 183.144 25.9225 185.149 25.9225C186.946 25.9225 188.501 25.3087 189.823 24.086V25.4021H193.229Z" fill="#073D49"/>
<path d="M176.3 12.0075V8.70216H172.97V4.9406H169.526V8.70216H166.195V12.0075H169.526V25.8875H172.97V12.0075H176.3Z" fill="#073D49"/>
<path d="M164.318 20.659C164.318 18.5171 163.316 17.0716 161.308 16.3158H161.348C161.188 16.235 159.421 15.879 156.039 15.2467C154.349 14.8985 153.505 14.2886 153.505 13.4112C153.505 12.7565 153.916 12.2575 154.733 11.9122C155.392 11.6262 156.174 11.4842 157.07 11.4842C157.968 11.4842 158.758 11.6262 159.445 11.9122C160.236 12.2575 160.633 12.8713 160.633 13.7477H164.04C164.04 11.8509 163.262 10.4152 161.705 9.43269C160.355 8.57669 158.815 8.15063 157.07 8.15063C155.329 8.15063 153.782 8.57669 152.436 9.43269C150.878 10.4152 150.1 11.74 150.1 13.4112C150.1 15.5522 151.103 17.0103 153.109 17.7856C153.269 17.8449 153.782 17.9626 154.653 18.1338C155.526 18.3089 156.766 18.5482 158.378 18.8536C160.066 19.2009 160.913 19.803 160.913 20.659C160.913 21.9654 159.633 22.6162 157.07 22.6162C156.545 22.6162 156.075 22.5811 155.663 22.5111C155.255 22.4372 154.88 22.3418 154.538 22.2183H154.577C153.677 21.872 153.229 21.2427 153.229 20.3244H149.82C149.82 22.2397 150.653 23.6969 152.317 24.6959C153.746 25.513 155.329 25.9205 157.07 25.9205C157.993 25.9205 158.848 25.8164 159.625 25.6122C160.403 25.4098 161.136 25.1054 161.823 24.6959C163.487 23.6969 164.318 22.3516 164.318 20.659Z" fill="#073D49"/>
<path d="M63.5936 31.3887C64.0543 31.3887 64.4943 31.45 64.9147 31.5735C65.337 31.7 65.7122 31.9053 66.0383 32.1864C66.3653 32.4675 66.6119 32.7972 66.7769 33.1727C66.9448 33.5482 67.0273 33.9859 67.0273 34.4849C67.0273 34.9577 66.9488 35.4032 66.7916 35.8332C66.6335 36.2631 66.3899 36.6327 66.0619 36.9411C65.7318 37.2504 65.3321 37.481 64.8567 37.6308C64.3843 37.7796 63.8883 37.8545 63.3677 37.8545C62.8747 37.8545 62.4013 37.7825 61.9475 37.6502C61.4918 37.5121 61.0999 37.2971 60.7728 37.0014C60.4438 36.7125 60.2081 36.374 60.0676 35.9937C59.9262 35.6133 59.8555 35.2018 59.8555 34.7593C59.8555 34.2768 59.9429 33.8108 60.1207 33.3692C60.2984 32.9286 60.5577 32.5609 60.9015 32.27C61.2453 31.9811 61.6489 31.7613 62.1086 31.6115C62.5692 31.4646 63.0642 31.3887 63.5936 31.3887ZM63.519 32.3624C63.0534 32.3624 62.6498 32.4675 62.305 32.6795C61.9603 32.8935 61.7 33.1825 61.5252 33.5501C61.3494 33.9169 61.2639 34.3157 61.2639 34.7427C61.2639 35.1396 61.3474 35.5044 61.5163 35.837C61.6843 36.1736 61.9426 36.4285 62.2903 36.6036C62.638 36.7777 63.0151 36.8662 63.4168 36.8662C63.7223 36.8662 64.015 36.8156 64.291 36.7125C64.5689 36.6065 64.8086 36.4499 65.0099 36.2349C65.2123 36.0248 65.3616 35.768 65.4657 35.4693C65.5678 35.1707 65.6179 34.8594 65.6179 34.5355C65.6179 34.233 65.5708 33.946 65.4804 33.6659C65.391 33.3896 65.2486 33.1504 65.0581 32.949C64.8675 32.7515 64.6387 32.6037 64.3686 32.5074C64.0975 32.4091 63.8166 32.3624 63.519 32.3624Z" fill="#A9A9A9"/>
<path d="M68.8633 39.8425C68.9419 38.9933 69.0106 37.8883 69.0715 36.5333C69.1334 35.1792 69.1658 34.0801 69.1658 33.2347C69.7512 33.1307 70.203 33.0606 70.5241 33.0295C70.8453 32.9964 71.1635 32.977 71.4808 32.977C71.8962 32.977 72.2773 33.0276 72.625 33.1258C72.9707 33.2221 73.2487 33.3845 73.4559 33.6131C73.6632 33.8437 73.8174 34.1102 73.9186 34.4118C74.0187 34.7104 74.0678 35.0285 74.0678 35.3582C74.0678 35.6899 74.0217 36.0109 73.9225 36.3183C73.8311 36.6257 73.6828 36.9039 73.4874 37.15C73.29 37.3961 73.0591 37.5741 72.8008 37.685C72.5396 37.7949 72.2567 37.8523 71.9483 37.8523C71.7666 37.8523 71.5869 37.8309 71.4111 37.7901C71.2333 37.7453 71.0781 37.6879 70.9455 37.6179C70.8109 37.5469 70.7 37.4778 70.6145 37.4068C70.5281 37.3338 70.4181 37.2259 70.2855 37.0829L70.2148 39.0741L70.2108 39.3853C70.2059 39.4262 70.2049 39.577 70.2049 39.8425C69.924 39.8406 69.703 39.8406 69.5498 39.8406L68.8633 39.8425ZM70.4397 34.0752C70.4181 34.2415 70.4043 34.3826 70.3925 34.5022L70.366 35.01C70.3523 35.2289 70.3474 35.3903 70.3474 35.4954C70.3474 35.6802 70.367 35.8572 70.4053 36.0284C70.4436 36.1977 70.5192 36.3553 70.6361 36.4963C70.752 36.6432 70.8905 36.7522 71.0496 36.8251C71.2058 36.901 71.3727 36.9379 71.5417 36.9379C71.7764 36.9379 71.9905 36.8699 72.185 36.7395C72.3775 36.6053 72.5278 36.4107 72.6319 36.1559C72.736 35.901 72.7881 35.6257 72.7881 35.3378C72.7881 35.0178 72.7291 34.7454 72.6132 34.5246C72.4983 34.3057 72.3441 34.1443 72.1496 34.0441C71.9542 33.9448 71.7342 33.8933 71.4886 33.8933C71.1655 33.8933 70.8188 33.9555 70.4397 34.0752Z" fill="#A9A9A9"/>
<path d="M80.6212 36.7055C80.5799 36.8855 80.523 37.2095 80.4483 37.6765C80.1173 37.7446 79.8363 37.7942 79.6074 37.8165C79.3795 37.8428 79.1496 37.8545 78.9188 37.8545C78.517 37.8545 78.1545 37.8146 77.8343 37.7348C77.517 37.658 77.238 37.512 76.9963 37.299C76.7557 37.0878 76.5788 36.8261 76.4649 36.5206C76.3519 36.2113 76.293 35.8873 76.293 35.5487C76.293 35.1751 76.3598 34.8112 76.4914 34.46C76.625 34.1069 76.8107 33.8179 77.0494 33.5951C77.2881 33.3704 77.5612 33.2118 77.8647 33.1194C78.1702 33.025 78.4895 32.9783 78.8215 32.9783C79.1359 32.9783 79.4355 33.0192 79.7184 33.097C80.0004 33.1738 80.2401 33.3023 80.4326 33.4764C80.6271 33.6554 80.7744 33.8656 80.8766 34.1156C80.9798 34.3637 81.0318 34.64 81.0318 34.9475C81.0318 35.0876 81.0161 35.2345 80.9857 35.3882L77.5985 35.3921C77.5916 35.504 77.5867 35.5954 77.5867 35.6606C77.5867 35.8659 77.6241 36.0546 77.6948 36.2278C77.7635 36.3971 77.8687 36.5401 78.0052 36.6588C78.1378 36.7775 78.3019 36.866 78.4895 36.9234C78.6771 36.9808 78.8628 37.0081 79.0445 37.0081C79.2548 37.0081 79.4866 36.9847 79.7351 36.94C79.9827 36.8942 80.2774 36.8164 80.6212 36.7055ZM77.6339 34.856L79.797 34.8609C79.797 34.714 79.7921 34.606 79.7833 34.5379C79.7744 34.4698 79.7528 34.388 79.7194 34.2995C79.688 34.21 79.6447 34.1302 79.5897 34.0611C79.5347 33.993 79.4679 33.9347 79.3952 33.8919C79.3196 33.8452 79.2361 33.8092 79.1369 33.7848C79.0416 33.7625 78.9365 33.7498 78.8245 33.7498C78.6978 33.7498 78.572 33.7702 78.4502 33.8072C78.3284 33.8471 78.2164 33.9045 78.1142 33.9814C78.0111 34.0582 77.9305 34.1409 77.8687 34.2353C77.8019 34.3316 77.7567 34.4201 77.7272 34.5067C77.6958 34.5933 77.6653 34.7091 77.6339 34.856Z" fill="#A9A9A9"/>
<path d="M83.0625 37.7454C83.1342 37.0517 83.1922 36.2724 83.2393 35.4084C83.2855 34.5465 83.313 33.773 83.3179 33.09C83.6038 33.0968 83.8297 33.0997 83.9987 33.0997C84.2001 33.0997 84.4152 33.0968 84.6402 33.09L84.5871 33.8664C84.6834 33.7331 84.7679 33.6271 84.8396 33.5483C84.9142 33.4665 85.0056 33.3877 85.1186 33.3128C85.2305 33.2369 85.3494 33.1776 85.4771 33.1299C85.6058 33.0851 85.7522 33.0492 85.9094 33.02C86.0685 32.9927 86.2355 32.9791 86.4045 32.9791C86.6805 32.9791 86.9438 33.0122 87.1962 33.0832C87.4477 33.1484 87.6491 33.2612 87.8023 33.4091C87.9566 33.5599 88.0587 33.7243 88.1088 33.8995C88.1589 34.0765 88.1835 34.2633 88.1835 34.4628C88.1835 34.5455 88.1796 34.6749 88.1697 34.8568L88.0745 36.8571C88.0597 37.1354 88.0528 37.4311 88.0499 37.7454C87.8073 37.7386 87.597 37.7356 87.4241 37.7356C87.1913 37.7356 86.9536 37.7386 86.7159 37.7454C86.7434 37.4798 86.7728 37.0167 86.8102 36.3541C86.8475 35.6945 86.8652 35.2586 86.8652 35.0417C86.8652 34.8023 86.8269 34.6087 86.7512 34.4628C86.6717 34.3178 86.5528 34.2059 86.3917 34.13C86.2306 34.0522 86.0538 34.0143 85.8661 34.0143C85.6824 34.0143 85.5086 34.0483 85.3474 34.1193C85.1883 34.1884 85.0508 34.2935 84.9339 34.4268C84.8081 34.563 84.7138 34.7303 84.647 34.9346C84.5753 35.1477 84.5233 35.4999 84.4899 35.9902C84.4614 36.429 84.4348 37.0118 84.4152 37.7454C84.1784 37.7386 83.9623 37.7356 83.7718 37.7356C83.5753 37.7356 83.3405 37.7386 83.0625 37.7454Z" fill="#A9A9A9"/>
<path d="M96.3945 37.7454L96.5036 36.1005C96.5625 35.2036 96.6028 34.3719 96.6273 33.6064C96.6509 32.8369 96.6676 32.3019 96.6676 32.0014L96.6636 31.4965C97.0251 31.5033 97.2814 31.5082 97.4288 31.5082C97.5456 31.5082 97.7765 31.5033 98.1281 31.4965L98.0073 33.5616L97.9916 34.0373H101.137L101.194 32.8C101.207 32.3739 101.214 32.0957 101.214 31.9605V31.4965L101.986 31.5082C102.055 31.5082 102.286 31.5033 102.679 31.4965L102.528 33.9926L102.459 35.8407L102.445 36.9234C102.438 37.3709 102.436 37.6452 102.436 37.7454L101.714 37.7356C101.626 37.7356 101.37 37.7386 100.947 37.7454C101.029 36.8816 101.078 35.973 101.101 35.0207H97.9464L97.8806 36.7065L97.8599 37.7454L97.1027 37.7356C97.0202 37.7356 96.7845 37.7386 96.3945 37.7454Z" fill="#A9A9A9"/>
<path d="M105.102 34.1127C105.146 33.8919 105.172 33.7362 105.182 33.6486C105.193 33.5611 105.213 33.4268 105.241 33.2449C105.66 33.1466 106.029 33.0795 106.352 33.0415C106.67 33.0017 106.98 32.9802 107.278 32.9802C107.619 32.9802 107.929 33.0201 108.212 33.098C108.497 33.1739 108.72 33.3003 108.88 33.4716C109.04 33.6418 109.121 33.886 109.121 34.2061C109.121 34.3803 109.094 34.8249 109.047 35.539C108.997 36.2492 108.969 36.9867 108.957 37.7465C108.723 37.7397 108.508 37.7368 108.313 37.7368C108.123 37.7368 107.9 37.7397 107.649 37.7465C107.692 37.3768 107.725 36.9487 107.749 36.4642L107.809 35.324C107.692 35.4008 107.602 35.4524 107.541 35.4835C107.479 35.5147 107.41 35.5439 107.33 35.5701C107.257 35.5935 107.121 35.6353 106.926 35.6878C106.731 35.7414 106.574 35.7881 106.459 35.8279C106.339 35.8678 106.236 35.9116 106.139 35.9632C106.046 36.0128 105.967 36.0692 105.902 36.1325C105.837 36.1938 105.79 36.2599 105.762 36.328C105.732 36.3981 105.715 36.471 105.715 36.5518C105.715 36.6792 105.756 36.7901 105.83 36.8845C105.907 36.975 105.999 37.0402 106.115 37.0752C106.23 37.1141 106.364 37.1336 106.517 37.1336C106.616 37.1336 106.721 37.1238 106.828 37.1102C106.938 37.0927 107.086 37.0577 107.27 36.9945C107.207 37.1705 107.132 37.4303 107.044 37.7718C106.823 37.8097 106.651 37.8321 106.522 37.8409C106.39 37.8516 106.272 37.8564 106.159 37.8564C105.775 37.8564 105.451 37.8029 105.205 37.6998C104.953 37.5967 104.769 37.4323 104.654 37.2056C104.533 36.9808 104.473 36.7532 104.473 36.5236C104.473 36.3932 104.497 36.2638 104.541 36.1344C104.589 36.007 104.656 35.8873 104.745 35.7812C104.832 35.6742 104.952 35.5721 105.094 35.4728C105.235 35.3716 105.441 35.2773 105.708 35.1839C105.977 35.0924 106.334 34.9971 106.771 34.9017C106.891 34.8774 107.013 34.8482 107.138 34.8151C107.265 34.7782 107.366 34.7451 107.438 34.7091C107.515 34.676 107.581 34.6332 107.638 34.5816C107.693 34.5262 107.735 34.4717 107.761 34.4133C107.786 34.3559 107.797 34.2966 107.797 34.2333C107.797 34.1156 107.761 34.0154 107.684 33.9327C107.602 33.852 107.503 33.7936 107.374 33.7615C107.253 33.7274 107.113 33.7109 106.962 33.7109C106.4 33.7109 105.78 33.8461 105.102 34.1127Z" fill="#A9A9A9"/>
<path d="M111.875 37.7454L112.009 35.569L112.044 34.3081C112.051 34.0474 112.054 33.7876 112.054 33.5259C112.054 33.4782 112.051 33.3323 112.044 33.09C112.332 33.0968 112.544 33.0997 112.678 33.0997C112.836 33.0997 113.043 33.0968 113.303 33.09L113.28 33.7341C113.396 33.5687 113.497 33.4471 113.58 33.3653C113.666 33.2865 113.76 33.2165 113.858 33.1591C113.962 33.0997 114.078 33.0569 114.203 33.0239C114.329 32.9956 114.459 32.9791 114.594 32.9791C114.714 32.9791 114.841 32.9956 114.97 33.0239C114.97 33.3099 114.986 33.6689 115.015 34.1038C114.832 34.0581 114.666 34.0308 114.519 34.0308C114.339 34.0308 114.185 34.059 114.044 34.1125C113.906 34.166 113.785 34.2468 113.675 34.3548C113.565 34.4628 113.476 34.598 113.403 34.7566C113.345 34.885 113.303 35.0485 113.275 35.2538C113.251 35.4133 113.232 35.6867 113.215 36.0681C113.198 36.4543 113.188 36.8328 113.188 37.2044C113.188 37.3494 113.194 37.5274 113.203 37.7454C112.968 37.7386 112.754 37.7356 112.562 37.7356C112.369 37.7356 112.14 37.7386 111.875 37.7454Z" fill="#A9A9A9"/>
<path d="M122.01 37.7465C121.755 37.7407 121.556 37.7368 121.413 37.7368C121.26 37.7368 121.047 37.7407 120.774 37.7465L120.817 36.9489C120.679 37.1259 120.565 37.2582 120.468 37.3526C120.37 37.4479 120.251 37.5335 120.107 37.6152C119.965 37.6969 119.807 37.7553 119.643 37.7952C119.475 37.835 119.304 37.8564 119.125 37.8564C118.83 37.8564 118.553 37.802 118.294 37.6969C118.034 37.588 117.814 37.4391 117.633 37.2427C117.45 37.052 117.318 36.8195 117.232 36.553C117.144 36.2874 117.102 36.0092 117.102 35.7193C117.102 35.3196 117.181 34.9305 117.331 34.5491C117.486 34.1698 117.697 33.8614 117.965 33.626C118.233 33.3916 118.535 33.2262 118.873 33.1299C119.212 33.0307 119.58 32.9811 119.965 32.9811C120.244 32.9811 120.564 33.0074 120.916 33.0599C120.937 32.663 120.949 32.2477 120.949 31.8119V31.4996C121.238 31.5045 121.46 31.5094 121.614 31.5094C121.816 31.5094 122.043 31.5045 122.29 31.4996C122.222 32.2749 122.157 33.3284 122.099 34.6649C122.043 35.9995 122.01 37.0257 122.01 37.7465ZM120.867 33.9305C120.636 33.8682 120.417 33.8381 120.202 33.8381C119.958 33.8381 119.727 33.8702 119.505 33.9392C119.283 34.0054 119.086 34.1192 118.912 34.2816C118.745 34.4431 118.613 34.6493 118.52 34.9032C118.428 35.1581 118.382 35.4022 118.382 35.6357C118.382 35.8721 118.424 36.0841 118.508 36.2816C118.595 36.4781 118.726 36.6298 118.903 36.7427C119.081 36.8555 119.283 36.9139 119.51 36.9139C119.678 36.9139 119.832 36.8847 119.971 36.8234C120.108 36.766 120.236 36.6717 120.351 36.551C120.464 36.4256 120.562 36.267 120.638 36.0705C120.716 35.876 120.771 35.6172 120.806 35.2933C120.829 35.0559 120.847 34.6017 120.867 33.9305Z" fill="#A9A9A9"/>
<path d="M126.76 37.7454L126.223 36.118L125.441 33.8865L125.152 33.0908C125.387 33.0976 125.604 33.1006 125.802 33.1006C125.988 33.1006 126.186 33.0976 126.391 33.0908L127.46 36.5207L128.687 33.0908C128.919 33.0976 129.138 33.1006 129.35 33.1006C129.571 33.1006 129.78 33.0976 129.982 33.0908L130.776 36.1141C130.784 36.1608 130.819 36.296 130.871 36.5207L130.982 36.2153C130.983 36.2104 131.01 36.1404 131.066 35.9993L131.786 34.2017L132.21 33.0908C132.443 33.0976 132.643 33.1006 132.815 33.1006C132.954 33.1006 133.163 33.0976 133.443 33.0908L132.172 35.9643C131.9 36.58 131.644 37.1734 131.412 37.7454C131.151 37.7386 130.948 37.7356 130.802 37.7356C130.645 37.7356 130.413 37.7386 130.099 37.7454L129.251 34.4137C129.206 34.5324 129.112 34.7844 128.974 35.1705L128.037 37.7454C127.773 37.7386 127.575 37.7356 127.438 37.7356C127.287 37.7356 127.063 37.7386 126.76 37.7454Z" fill="#A9A9A9"/>
<path d="M136.282 34.1127C136.322 33.8919 136.354 33.7362 136.363 33.6486C136.372 33.5611 136.394 33.4268 136.42 33.2449C136.839 33.1466 137.208 33.0795 137.528 33.0415C137.849 33.0017 138.161 32.9802 138.456 32.9802C138.798 32.9802 139.108 33.0201 139.39 33.098C139.675 33.1739 139.896 33.3003 140.057 33.4716C140.219 33.6418 140.296 33.886 140.296 34.2061C140.296 34.3803 140.272 34.8249 140.224 35.539C140.175 36.2492 140.148 36.9867 140.139 37.7465C139.902 37.7397 139.687 37.7368 139.488 37.7368C139.302 37.7368 139.082 37.7397 138.831 37.7465C138.871 37.3768 138.902 36.9487 138.926 36.4642L138.984 35.324C138.871 35.4008 138.78 35.4524 138.72 35.4835C138.655 35.5147 138.589 35.5439 138.507 35.5701C138.431 35.5935 138.297 35.6353 138.102 35.6878C137.907 35.7414 137.752 35.7881 137.635 35.8279C137.52 35.8678 137.414 35.9116 137.32 35.9632C137.225 36.0128 137.146 36.0692 137.079 36.1325C137.016 36.1938 136.973 36.2599 136.939 36.328C136.912 36.3981 136.898 36.471 136.898 36.5518C136.898 36.6792 136.934 36.7901 137.009 36.8845C137.083 36.975 137.178 37.0402 137.291 37.0752C137.408 37.1141 137.541 37.1336 137.695 37.1336C137.793 37.1336 137.899 37.1238 138.006 37.1102C138.117 37.0927 138.264 37.0577 138.448 36.9945C138.382 37.1705 138.31 37.4303 138.222 37.7718C138.003 37.8097 137.83 37.8321 137.7 37.8409C137.569 37.8516 137.449 37.8564 137.338 37.8564C136.952 37.8564 136.632 37.8029 136.383 37.6998C136.135 37.5967 135.948 37.4323 135.831 37.2056C135.712 36.9808 135.652 36.7532 135.652 36.5236C135.652 36.3932 135.677 36.2638 135.722 36.1344C135.77 36.007 135.836 35.8873 135.925 35.7812C136.017 35.6742 136.13 35.5721 136.272 35.4728C136.413 35.3716 136.62 35.2773 136.889 35.1839C137.154 35.0924 137.511 34.9971 137.951 34.9017C138.069 34.8774 138.19 34.8482 138.315 34.8151C138.443 34.7782 138.544 34.7451 138.619 34.7091C138.697 34.676 138.761 34.6332 138.817 34.5816C138.872 34.5262 138.914 34.4717 138.935 34.4133C138.966 34.3559 138.978 34.2966 138.978 34.2333C138.978 34.1156 138.935 34.0154 138.861 33.9327C138.782 33.852 138.68 33.7936 138.554 33.7615C138.429 33.7274 138.293 33.7109 138.14 33.7109C137.579 33.7109 136.96 33.8461 136.282 34.1127Z" fill="#A9A9A9"/>
<path d="M143.5 37.7454L143.634 35.569L143.669 34.3081C143.674 34.0474 143.679 33.7876 143.679 33.5259C143.679 33.4782 143.674 33.3323 143.669 33.09C143.956 33.0968 144.171 33.0997 144.307 33.0997C144.462 33.0997 144.669 33.0968 144.929 33.09L144.906 33.7341C145.022 33.5687 145.123 33.4471 145.207 33.3653C145.291 33.2865 145.383 33.2165 145.485 33.1591C145.588 33.0997 145.705 33.0569 145.828 33.0239C145.955 32.9956 146.088 32.9791 146.219 32.9791C146.342 32.9791 146.468 32.9956 146.597 33.0239C146.597 33.3099 146.61 33.6689 146.64 34.1038C146.457 34.0581 146.292 34.0308 146.144 34.0308C145.967 34.0308 145.807 34.059 145.672 34.1125C145.532 34.166 145.41 34.2468 145.301 34.3548C145.19 34.4628 145.103 34.598 145.031 34.7566C144.973 34.885 144.929 35.0485 144.9 35.2538C144.876 35.4133 144.856 35.6867 144.841 36.0681C144.825 36.4543 144.816 36.8328 144.816 37.2044C144.816 37.3494 144.821 37.5274 144.829 37.7454C144.593 37.7386 144.381 37.7356 144.185 37.7356C143.99 37.7356 143.764 37.7386 143.5 37.7454Z" fill="#A9A9A9"/>
<path d="M221.371 37.7454L221.505 35.569L221.54 34.3081C221.545 34.0474 221.549 33.7876 221.549 33.5259C221.549 33.4782 221.545 33.3323 221.54 33.09C221.826 33.0968 222.041 33.0997 222.177 33.0997C222.331 33.0997 222.54 33.0968 222.799 33.09L222.776 33.7341C222.892 33.5687 222.993 33.4471 223.076 33.3653C223.162 33.2865 223.252 33.2165 223.356 33.1591C223.459 33.0997 223.575 33.0569 223.698 33.0239C223.825 32.9956 223.959 32.9791 224.09 32.9791C224.21 32.9791 224.339 32.9956 224.467 33.0239C224.467 33.3099 224.48 33.6689 224.511 34.1038C224.327 34.0581 224.162 34.0308 224.015 34.0308C223.838 34.0308 223.676 34.059 223.542 34.1125C223.404 34.166 223.281 34.2468 223.17 34.3548C223.06 34.4628 222.971 34.598 222.901 34.7566C222.843 34.885 222.799 35.0485 222.77 35.2538C222.747 35.4133 222.728 35.6867 222.712 36.0681C222.693 36.4543 222.686 36.8328 222.686 37.2044C222.686 37.3494 222.69 37.5274 222.699 37.7454C222.464 37.7386 222.252 37.7356 222.054 37.7356C221.86 37.7356 221.635 37.7386 221.371 37.7454Z" fill="#A9A9A9"/>
<path d="M153.452 36.7055C153.415 36.8855 153.356 37.2095 153.284 37.6765C152.949 37.7446 152.668 37.7942 152.442 37.8165C152.213 37.8428 151.985 37.8545 151.752 37.8545C151.348 37.8545 150.988 37.8146 150.668 37.7348C150.35 37.658 150.07 37.512 149.831 37.299C149.59 37.0878 149.412 36.8261 149.3 36.5206C149.183 36.2113 149.129 35.8873 149.129 35.5487C149.129 35.1751 149.195 34.8112 149.325 34.46C149.456 34.1069 149.646 33.8179 149.883 33.5951C150.12 33.3704 150.393 33.2118 150.698 33.1194C151.006 33.025 151.323 32.9783 151.656 32.9783C151.969 32.9783 152.268 33.0192 152.549 33.097C152.834 33.1738 153.072 33.3023 153.264 33.4764C153.46 33.6554 153.605 33.8656 153.709 34.1156C153.812 34.3637 153.862 34.64 153.862 34.9475C153.862 35.0876 153.847 35.2345 153.817 35.3882L150.431 35.3921C150.423 35.504 150.421 35.5954 150.421 35.6606C150.421 35.8659 150.457 36.0546 150.528 36.2278C150.599 36.3971 150.701 36.5401 150.836 36.6588C150.973 36.7775 151.137 36.866 151.323 36.9234C151.51 36.9808 151.696 37.0081 151.878 37.0081C152.088 37.0081 152.32 36.9847 152.568 36.94C152.818 36.8942 153.111 36.8164 153.452 36.7055ZM150.469 34.856L152.63 34.8609C152.63 34.714 152.624 34.606 152.614 34.5379C152.606 34.4698 152.584 34.388 152.551 34.2995C152.522 34.21 152.479 34.1302 152.423 34.0611C152.367 33.993 152.302 33.9347 152.227 33.8919C152.156 33.8452 152.069 33.8092 151.973 33.7848C151.875 33.7625 151.772 33.7498 151.659 33.7498C151.53 33.7498 151.404 33.7702 151.285 33.8072C151.161 33.8471 151.051 33.9045 150.949 33.9814C150.845 34.0582 150.765 34.1409 150.701 34.2353C150.639 34.3316 150.591 34.4201 150.56 34.5067C150.53 34.5933 150.498 34.7091 150.469 34.856Z" fill="#A9A9A9"/>
<path d="M162.402 37.7454C162.459 37.1462 162.496 36.6656 162.514 36.3038C162.551 35.6948 162.585 34.8262 162.619 33.6939C162.652 32.8583 162.667 32.2669 162.667 31.9226V31.4965C163.547 31.5033 164.321 31.5082 164.984 31.5082L166.277 31.5014L167.045 31.4965C167.013 31.9518 166.996 32.2825 166.994 32.4838L166.328 32.4644L166.062 32.4595H165.702H165L164.043 32.4644L163.987 34.1044L164.77 34.12C165.372 34.12 165.755 34.118 165.923 34.1151L166.55 34.1044C166.531 34.4614 166.517 34.7844 166.512 35.0752C165.973 35.0635 165.548 35.0577 165.23 35.0577C164.831 35.0577 164.399 35.0635 163.936 35.0752L163.882 37.0985L163.876 37.5109V37.7454L163.17 37.7356C163.132 37.7356 162.875 37.7386 162.402 37.7454Z" fill="#A9A9A9"/>
<path d="M169.48 34.1127C169.523 33.8919 169.554 33.7362 169.563 33.6486C169.574 33.5611 169.591 33.4268 169.622 33.2449C170.039 33.1466 170.409 33.0795 170.73 33.0415C171.052 33.0017 171.36 32.9802 171.661 32.9802C171.998 32.9802 172.31 33.0201 172.592 33.098C172.876 33.1739 173.097 33.3003 173.259 33.4716C173.419 33.6418 173.497 33.886 173.497 34.2061C173.497 34.3803 173.474 34.8249 173.426 35.539C173.374 36.2492 173.349 36.9867 173.338 37.7465C173.102 37.7397 172.887 37.7368 172.688 37.7368C172.502 37.7368 172.283 37.7397 172.029 37.7465C172.068 37.3768 172.1 36.9487 172.125 36.4642L172.187 35.324C172.07 35.4008 171.98 35.4524 171.92 35.4835C171.857 35.5147 171.79 35.5439 171.712 35.5701C171.632 35.5935 171.499 35.6353 171.304 35.6878C171.11 35.7414 170.956 35.7881 170.837 35.8279C170.717 35.8678 170.616 35.9116 170.522 35.9632C170.426 36.0128 170.347 36.0692 170.28 36.1325C170.217 36.1938 170.169 36.2599 170.142 36.328C170.112 36.3981 170.097 36.471 170.097 36.5518C170.097 36.6792 170.135 36.7901 170.209 36.8845C170.285 36.975 170.381 37.0402 170.495 37.0752C170.609 37.1141 170.741 37.1336 170.897 37.1336C170.997 37.1336 171.099 37.1238 171.208 37.1102C171.317 37.0927 171.464 37.0577 171.649 36.9945C171.585 37.1705 171.51 37.4303 171.423 37.7718C171.204 37.8097 171.03 37.8321 170.902 37.8409C170.77 37.8516 170.653 37.8564 170.538 37.8564C170.155 37.8564 169.833 37.8029 169.584 37.6998C169.332 37.5967 169.151 37.4323 169.032 37.2056C168.911 36.9808 168.852 36.7532 168.852 36.5236C168.852 36.3932 168.874 36.2638 168.922 36.1344C168.969 36.007 169.036 35.8873 169.127 35.7812C169.216 35.6742 169.33 35.5721 169.475 35.4728C169.615 35.3716 169.821 35.2773 170.088 35.1839C170.357 35.0924 170.711 34.9971 171.151 34.9017C171.269 34.8774 171.39 34.8482 171.516 34.8151C171.64 34.7782 171.744 34.7451 171.821 34.7091C171.896 34.676 171.963 34.6332 172.016 34.5816C172.071 34.5262 172.111 34.4717 172.136 34.4133C172.165 34.3559 172.179 34.2966 172.179 34.2333C172.179 34.1156 172.136 34.0154 172.062 33.9327C171.982 33.852 171.881 33.7936 171.756 33.7615C171.631 33.7274 171.493 33.7109 171.341 33.7109C170.781 33.7109 170.159 33.8461 169.48 34.1127Z" fill="#A9A9A9"/>
<path d="M179.755 36.688C179.738 36.8135 179.716 36.9546 179.685 37.1131C179.653 37.2727 179.622 37.4712 179.588 37.7037C179.147 37.8049 178.71 37.8545 178.284 37.8545C178.035 37.8545 177.795 37.8321 177.562 37.7825C177.333 37.7416 177.118 37.6589 176.916 37.5422C176.718 37.4254 176.542 37.2707 176.392 37.0752C176.239 36.8855 176.129 36.651 176.053 36.3786C175.977 36.1052 175.941 35.825 175.941 35.5331C175.941 35.1498 176.004 34.7801 176.127 34.427C176.252 34.0728 176.436 33.7829 176.676 33.5611C176.916 33.3344 177.182 33.1816 177.477 33.1019C177.773 33.0211 178.099 32.9783 178.462 32.9783C178.66 32.9783 178.867 32.99 179.078 33.0133C179.291 33.0386 179.542 33.0843 179.829 33.1524L179.901 34.1565C179.443 34.0018 179.045 33.924 178.703 33.924C178.494 33.924 178.295 33.96 178.107 34.03C177.924 34.1001 177.765 34.21 177.63 34.3598C177.495 34.5126 177.398 34.6857 177.342 34.8852C177.288 35.0827 177.259 35.2851 177.259 35.4942C177.259 35.7832 177.304 36.0361 177.396 36.2463C177.484 36.4574 177.643 36.6228 177.863 36.7366C178.084 36.8543 178.337 36.9117 178.619 36.9117C178.759 36.9117 178.925 36.8942 179.125 36.8573C179.318 36.8232 179.531 36.7668 179.755 36.688Z" fill="#A9A9A9"/>
<path d="M183.012 37.7454C183.061 37.2882 183.092 36.9039 183.109 36.5966C183.141 36.1073 183.167 35.545 183.192 34.9069C183.212 34.2698 183.233 33.6647 183.241 33.0908C183.545 33.0976 183.766 33.1006 183.915 33.1006C184.053 33.1006 184.277 33.0976 184.587 33.0908C184.543 33.621 184.512 34.1287 184.488 34.6093C184.46 35.0917 184.445 35.6452 184.431 36.2658C184.42 36.8903 184.413 37.3806 184.413 37.7454C184.131 37.7386 183.906 37.7356 183.738 37.7356C183.574 37.7356 183.334 37.7386 183.012 37.7454ZM183.262 32.2932C183.276 31.978 183.281 31.7387 183.281 31.5704V31.4236C183.563 31.4323 183.792 31.4333 183.967 31.4333C184.209 31.4333 184.431 31.4323 184.636 31.4236C184.625 31.5014 184.621 31.587 184.619 31.6843L184.592 32.2932C184.362 32.2893 184.143 32.2844 183.949 32.2844C183.752 32.2844 183.524 32.2893 183.262 32.2932Z" fill="#A9A9A9"/>
<path d="M187.25 37.7454C187.298 37.2288 187.352 36.3038 187.419 34.9643C187.487 33.6278 187.525 32.4693 187.541 31.4965C187.86 31.5033 188.09 31.5082 188.225 31.5082C188.407 31.5082 188.626 31.5033 188.893 31.4965L188.781 33.1667L188.622 36.8932L188.602 37.7454C188.348 37.7386 188.136 37.7356 187.958 37.7356C187.9 37.7356 187.664 37.7386 187.25 37.7454Z" fill="#A9A9A9"/>
<path d="M191.543 37.7454C191.591 37.2882 191.622 36.9039 191.644 36.5966C191.676 36.1073 191.701 35.545 191.724 34.9069C191.746 34.2698 191.765 33.6647 191.775 33.0908C192.075 33.0976 192.3 33.1006 192.449 33.1006C192.589 33.1006 192.812 33.0976 193.12 33.0908C193.077 33.621 193.046 34.1287 193.02 34.6093C192.995 35.0917 192.975 35.6452 192.964 36.2658C192.951 36.8903 192.947 37.3806 192.947 37.7454C192.667 37.7386 192.44 37.7356 192.27 37.7356C192.111 37.7356 191.868 37.7386 191.543 37.7454ZM191.796 32.2932C191.809 31.978 191.816 31.7387 191.816 31.5704V31.4236C192.096 31.4323 192.325 31.4333 192.5 31.4333C192.741 31.4333 192.964 31.4323 193.172 31.4236C193.159 31.5014 193.156 31.587 193.154 31.6843L193.128 32.2932C192.892 32.2893 192.678 32.2844 192.481 32.2844C192.285 32.2844 192.055 32.2893 191.796 32.2932Z" fill="#A9A9A9"/>
<path d="M198.892 36.7903C198.858 36.9576 198.798 37.2699 198.716 37.7222C198.459 37.7806 198.253 37.8185 198.11 37.8321C197.962 37.8487 197.82 37.8564 197.69 37.8564C197.466 37.8564 197.261 37.8341 197.08 37.7932C196.899 37.7485 196.75 37.6745 196.634 37.5637C196.516 37.4557 196.436 37.3292 196.394 37.1853C196.356 37.0384 196.332 36.8915 196.332 36.7339C196.332 36.696 196.336 36.6425 196.338 36.5724C196.341 36.5063 196.356 36.2913 196.374 35.9227L196.48 34.021H195.812C195.832 33.8371 195.842 33.5433 195.857 33.1377H196.552C196.573 32.9597 196.591 32.6591 196.608 32.235L197.155 32.1309C197.268 32.1076 197.49 32.058 197.815 31.9772C197.796 32.3916 197.78 32.7768 197.775 33.1377H198.954C198.932 33.5492 198.921 33.8439 198.921 34.021H197.741C197.677 35.2622 197.643 35.981 197.643 36.1775C197.643 36.3662 197.666 36.5131 197.706 36.6172C197.748 36.7183 197.815 36.7952 197.907 36.8399C197.999 36.8866 198.1 36.9071 198.205 36.9071C198.279 36.9071 198.359 36.9002 198.448 36.8915C198.532 36.8779 198.681 36.8429 198.892 36.7903Z" fill="#A9A9A9"/>
<path d="M201.66 34.1127C201.705 33.8919 201.732 33.7362 201.741 33.6486C201.755 33.5611 201.771 33.4268 201.801 33.2449C202.217 33.1466 202.588 33.0795 202.908 33.0415C203.228 33.0017 203.541 32.9802 203.839 32.9802C204.177 32.9802 204.488 33.0201 204.769 33.098C205.054 33.1739 205.279 33.3003 205.437 33.4716C205.597 33.6418 205.677 33.886 205.677 34.2061C205.677 34.3803 205.65 34.8249 205.605 35.539C205.557 36.2492 205.526 36.9867 205.518 37.7465C205.283 37.7397 205.071 37.7368 204.867 37.7368C204.681 37.7368 204.46 37.7397 204.208 37.7465C204.245 37.3768 204.282 36.9487 204.306 36.4642L204.366 35.324C204.249 35.4008 204.159 35.4524 204.1 35.4835C204.038 35.5147 203.97 35.5439 203.89 35.5701C203.811 35.5935 203.675 35.6353 203.483 35.6878C203.289 35.7414 203.132 35.7881 203.017 35.8279C202.899 35.8678 202.792 35.9116 202.7 35.9632C202.609 36.0128 202.526 36.0692 202.459 36.1325C202.397 36.1938 202.348 36.2599 202.316 36.328C202.29 36.3981 202.277 36.471 202.277 36.5518C202.277 36.6792 202.312 36.7901 202.388 36.8845C202.464 36.975 202.558 37.0402 202.675 37.0752C202.787 37.1141 202.92 37.1336 203.077 37.1336C203.176 37.1336 203.28 37.1238 203.387 37.1102C203.497 37.0927 203.645 37.0577 203.829 36.9945C203.764 37.1705 203.689 37.4303 203.6 37.7718C203.385 37.8097 203.21 37.8321 203.08 37.8409C202.954 37.8516 202.833 37.8564 202.721 37.8564C202.331 37.8564 202.015 37.8029 201.764 37.6998C201.514 37.5967 201.329 37.4323 201.213 37.2056C201.093 36.9808 201.031 36.7532 201.031 36.5236C201.031 36.3932 201.055 36.2638 201.102 36.1344C201.149 36.007 201.217 35.8873 201.306 35.7812C201.396 35.6742 201.511 35.5721 201.653 35.4728C201.795 35.3716 202.001 35.2773 202.268 35.1839C202.536 35.0924 202.891 34.9971 203.335 34.9017C203.449 34.8774 203.57 34.8482 203.697 34.8151C203.823 34.7782 203.924 34.7451 204 34.7091C204.077 34.676 204.142 34.6332 204.198 34.5816C204.25 34.5262 204.292 34.4717 204.319 34.4133C204.345 34.3559 204.355 34.2966 204.355 34.2333C204.355 34.1156 204.319 34.0154 204.241 33.9327C204.161 33.852 204.06 33.7936 203.936 33.7615C203.809 33.7274 203.671 33.7109 203.521 33.7109C202.961 33.7109 202.339 33.8461 201.66 34.1127Z" fill="#A9A9A9"/>
<path d="M211.207 36.7903C211.17 36.9576 211.112 37.2699 211.033 37.7222C210.775 37.7806 210.571 37.8185 210.422 37.8321C210.278 37.8487 210.136 37.8564 210.01 37.8564C209.783 37.8564 209.578 37.8341 209.398 37.7932C209.212 37.7485 209.069 37.6745 208.952 37.5637C208.829 37.4557 208.753 37.3292 208.711 37.1853C208.667 37.0384 208.651 36.8915 208.651 36.7339C208.651 36.696 208.651 36.6425 208.656 36.5724C208.658 36.5063 208.667 36.2913 208.689 35.9227L208.796 34.021H208.133C208.15 33.8371 208.16 33.5433 208.176 33.1377H208.872C208.888 32.9597 208.906 32.6591 208.923 32.235L209.471 32.1309C209.587 32.1076 209.803 32.058 210.132 31.9772C210.111 32.3916 210.097 32.7768 210.095 33.1377H211.271C211.248 33.5492 211.237 33.8439 211.237 34.021H210.059C209.997 35.2622 209.964 35.981 209.964 36.1775C209.964 36.3662 209.986 36.5131 210.024 36.6172C210.067 36.7183 210.132 36.7952 210.225 36.8399C210.319 36.8866 210.415 36.9071 210.52 36.9071C210.597 36.9071 210.679 36.9002 210.766 36.8915C210.849 36.8779 210.998 36.8429 211.207 36.7903Z" fill="#A9A9A9"/>
<path d="M216.348 32.9783C216.702 32.9783 217.04 33.0308 217.365 33.1369C217.692 33.2429 217.969 33.3966 218.194 33.6048C218.42 33.8101 218.592 34.0621 218.704 34.3588C218.817 34.6556 218.875 34.9698 218.875 35.2987C218.875 35.647 218.815 35.9836 218.695 36.3076C218.577 36.6296 218.401 36.9098 218.175 37.1452C217.945 37.3846 217.661 37.5597 217.322 37.6774C216.978 37.7932 216.618 37.8545 216.233 37.8545C215.874 37.8545 215.535 37.802 215.212 37.6949C214.888 37.5908 214.616 37.4352 214.39 37.224C214.161 37.0129 213.988 36.7561 213.868 36.4545C213.751 36.1509 213.691 35.8367 213.691 35.504C213.691 35.1702 213.744 34.8511 213.852 34.5456C213.96 34.2392 214.129 33.9697 214.357 33.7284C214.59 33.491 214.879 33.3091 215.24 33.1777C215.596 33.0435 215.966 32.9783 216.348 32.9783ZM216.348 33.923C216.079 33.923 215.842 33.9853 215.631 34.1166C215.423 34.246 215.266 34.4377 215.162 34.6955C215.061 34.9523 215.007 35.2325 215.007 35.5331C215.007 35.7987 215.053 36.0342 215.133 36.2443C215.216 36.4506 215.358 36.6179 215.549 36.7473C215.74 36.8738 215.97 36.939 216.233 36.939C216.499 36.939 216.741 36.8719 216.944 36.7405C217.149 36.6063 217.304 36.4107 217.405 36.1529C217.506 35.8941 217.557 35.611 217.557 35.2987C217.557 35.0447 217.521 34.8142 217.44 34.6079C217.36 34.4017 217.224 34.2353 217.035 34.1108C216.845 33.9853 216.618 33.923 216.348 33.923Z" fill="#A9A9A9"/>
</svg>
