<svg width="7" height="11" viewBox="0 0 7 11" fill="none" xmlns="http://www.w3.org/2000/svg">
<path d="M0.627592 2.49498C0.326997 2.49498 0.078125 2.85634 0.078125 3.29041V9.25989C0.078125 9.69504 0.326997 10.0564 0.627592 10.0564H4.75047C5.05107 10.0564 5.30069 9.69504 5.30069 9.25989V5.2806V4.25512L4.75047 5.05054V6.07711V9.25989H0.627592V3.29041H2.82621H3.37643H3.53535L4.08481 2.49498H3.37643H2.82621H0.627592ZM6.12002 0.899795C6.10952 0.899795 6.09903 0.90088 6.08928 0.90305H4.47611C4.32394 0.899795 4.1995 1.07559 4.19726 1.29588C4.19501 1.51617 4.31644 1.6963 4.46787 1.69956H4.47611H5.46185L2.63206 5.79496C2.52262 5.94797 2.51887 6.19973 2.62456 6.35816C2.72951 6.5166 2.90342 6.52202 3.01287 6.36901C3.01586 6.36467 3.01811 6.36142 3.02111 6.35816L5.85015 2.26167V3.68975C5.84791 3.90895 5.96934 4.09017 6.12152 4.09343C6.27294 4.0956 6.39812 3.9198 6.39962 3.69951C6.40037 3.69626 6.40037 3.693 6.39962 3.68975V1.35122C6.42061 1.13419 6.31567 0.933434 6.16499 0.90305C6.15 0.899795 6.13501 0.898709 6.12002 0.899795Z" fill="#96A5B7"/>
</svg>
