<svg width="123" height="41" viewBox="0 0 123 41" fill="none" xmlns="http://www.w3.org/2000/svg">
<path d="M68.7325 34.6288C72.45 35.1394 74.7567 34.4586 76.5106 32.7187C77.6258 31.6123 78.4742 30.3452 79.1986 28.9835C82.1916 23.5178 89.455 10.3264 89.455 10.3264H84.241L78.8173 21.1348L77.1111 10.3264H71.5539V10.5817C71.5539 10.5817 73.4317 20.4634 74.3754 25.5509C74.4993 26.3168 74.6709 28.2648 73.3078 29.4941C72.5357 30.2128 71.43 30.7707 69.5046 30.4681L68.7325 34.6194V34.6288ZM64.5861 10.3359L59.5437 21.7022L59.4197 21.6644L58.7334 10.6385H53.224L47.8765 21.7022L47.7526 21.6171L47.5429 10.3359H42.2812L43.3107 28.4445H48.9918L54.5012 16.6526H54.6252L55.483 28.4445H61.2118L69.5046 10.3359H64.5861ZM94.9359 28.4445H89.4264C90.6656 22.3358 91.8189 16.4446 93.0581 10.3359H97.3284V13.6834C97.8813 12.3311 98.6915 11.0167 100.016 10.4588C101.303 9.91035 103.305 9.94817 105.364 10.5439C104.554 12.1136 103.953 13.4659 103.057 15.168C102.285 14.9978 101.561 14.8276 100.836 14.7425C99.2157 14.5722 98.0624 15.2058 97.5 16.7377C97.1187 17.7968 96.8613 18.941 96.6421 20.0474C96.0416 22.8464 95.5269 25.6454 94.9359 28.4445ZM112.589 14.6668C113.361 13.7306 114.81 13.1822 115.84 13.5226C117.126 13.9009 117.546 15.3477 116.65 16.3216C116.354 16.6621 115.925 16.9174 115.496 17.0876C114.171 17.5982 112.808 17.5509 111.35 17.2956C111.56 16.2744 111.95 15.4328 112.589 14.6668ZM119.643 23.9528H119.471C117.374 24.7566 115.029 24.974 113.399 24.5012C111.607 23.9906 110.578 22.4682 110.921 20.7282C116.221 21.1537 118.489 20.1798 119.729 19.4516C123.017 17.5037 123.827 12.2838 119.557 10.7614C115.792 9.40917 110.54 10.0427 108.061 13.012C105.793 15.7259 105.154 18.6951 105.497 22.0426C105.755 24.5485 107.461 28.104 113.104 28.6998C116.526 29.0402 118.699 28.1513 118.871 28.104L119.643 23.9528Z" fill="#0A1228"/>
<path d="M21.4128 20.4185H33.9378L27.1892 36.8249C26.2455 39.1133 24.0246 40.598 21.5463 40.598H9.01172L15.7604 24.1915C16.704 21.8558 18.925 20.4185 21.4033 20.4185" fill="#94C5FF"/>
<path d="M33.9413 20.4185L26.3348 29.9976C25.1815 31.52 23.4276 32.5035 21.3782 32.5035H12.2656L15.7257 24.1537C16.6694 21.9031 18.8903 20.4185 21.3687 20.4185H33.9318H33.9413Z" fill="#1F2FB0"/>
<path d="M17.2236 10.3284H29.7486L23 26.7349C22.0563 29.0232 19.8354 30.5079 17.357 30.5079H4.83203L11.5807 14.1014C12.5243 11.813 14.7834 10.3284 17.2236 10.3284Z" fill="#0193FF"/>
<path d="M29.7929 10.4512L22.1864 20.0303C21.033 21.5527 19.2791 22.5362 17.2298 22.5362H8.11719L11.5773 14.1864C12.521 11.9358 14.7419 10.4512 17.2202 10.4512H29.7834H29.7929Z" fill="#1F2FB0"/>
<path d="M13.0713 0.236328H25.5963L18.8476 16.6428C17.904 18.9312 15.683 20.4158 13.2047 20.4158H0.679688L7.42833 4.00935C8.37199 1.72095 10.5929 0.236328 13.0713 0.236328Z" fill="#0255FE"/>
</svg>
