<svg xmlns="http://www.w3.org/2000/svg" xmlns:xlink="http://www.w3.org/1999/xlink" width="228" height="142" viewBox="0 0 228 142"><defs><clipPath id="a"><rect width="228" height="142" transform="translate(-13465 -15458)" fill="none"/></clipPath></defs><g transform="translate(13465 15458)" clip-path="url(#a)"><path d="M440.595,7.289c-4.049-3.6-8.548-6.3-13.946-7.2-6.748-.9-13.5,3.6-18,6.748s-13.5,11.247-17.1,14.4-12.6,4.949-27.443,13.946-72.43,45.888-72.43,45.888h14.846L239.5,115.709h6.748l-9.448,7.2a21.473,21.473,0,0,0,15.746-2.249v2.249s79.628-31.491,94.924-23.394l-9.447,2.7c.9,0,15.745.9,15.745.9a21.189,21.189,0,0,0,9.9,15.3c9,5.848,9.448,9.447,9.448,9.447s-4.5,1.8-4.5,4.5a41.607,41.607,0,0,1,25.643,0s-.45-2.7-6.748-4.5a35.8,35.8,0,0,1-15.746-12.6c-3.6-4.949-4.949-11.247-2.7-17.1s9.9-9,25.643-17.1c18.445-9.447,22.944-16.645,25.193-22.494s6.748-16.645,8.548-22.044a31.033,31.033,0,0,1,9-12.6,113.318,113.318,0,0,1,15.3-6.748C453.641,17.636,443.744,9.538,440.595,7.289Z" transform="translate(-13695.8 -15453.164)"/></g></svg>