<svg xmlns="http://www.w3.org/2000/svg" xmlns:xlink="http://www.w3.org/1999/xlink" width="134.828" height="128" viewBox="0 0 134.828 128">
  <defs>
    <linearGradient id="linear-gradient" x1="-0.179" y1="-0.989" x2="-0.154" y2="-0.989" gradientUnits="objectBoundingBox">
      <stop offset="0" stop-color="#4b69b6"/>
      <stop offset="1" stop-color="#435ea5"/>
    </linearGradient>
    <linearGradient id="linear-gradient-2" x1="-0.179" y1="-0.989" x2="-0.154" y2="-0.989" gradientUnits="objectBoundingBox">
      <stop offset="0" stop-color="#5773bb"/>
      <stop offset="1" stop-color="#3a5290"/>
    </linearGradient>
    <linearGradient id="linear-gradient-3" x1="-0.488" y1="-1.666" x2="-0.452" y2="-1.666" gradientUnits="objectBoundingBox">
      <stop offset="0" stop-color="#22b2e7"/>
      <stop offset="1" stop-color="#177a9e"/>
    </linearGradient>
    <linearGradient id="linear-gradient-4" x1="-1.244" y1="-0.317" x2="-1.21" y2="-0.317" xlink:href="#linear-gradient"/>
    <linearGradient id="linear-gradient-5" x1="-2.951" y1="-0.487" x2="-2.908" y2="-0.487" gradientUnits="objectBoundingBox">
      <stop offset="0" stop-color="#a7b1cd"/>
      <stop offset="0.46" stop-color="#c8cbdc"/>
      <stop offset="1" stop-color="#d1d2e0"/>
    </linearGradient>
    <linearGradient id="linear-gradient-6" x1="-0.413" y1="-0.133" x2="-0.389" y2="-0.133" gradientUnits="objectBoundingBox">
      <stop offset="0" stop-color="#b7bdd2"/>
      <stop offset="1" stop-color="#607bb6"/>
    </linearGradient>
  </defs>
  <g id="Group_9683" data-name="Group 9683" transform="translate(-301.879 0)">
    <g id="Group_9672" data-name="Group 9672" transform="translate(292.473 -10.776)">
      <circle id="Ellipse_999" data-name="Ellipse 999" cx="26.247" cy="26.247" r="26.247" transform="translate(9.406 51.906)" fill="url(#linear-gradient)"/>
    </g>
    <g id="Group_9673" data-name="Group 9673" transform="translate(292.473 -10.776)">
      <path id="Path_475467" data-name="Path 475467" d="M35.652,51.906A26.247,26.247,0,1,1,9.406,78.152,26.259,26.259,0,0,1,35.652,51.906Zm0,1.64A24.606,24.606,0,1,1,11.047,78.152,24.619,24.619,0,0,1,35.652,53.546Z" fill-rule="evenodd" fill="url(#linear-gradient-2)"/>
    </g>
    <g id="Group_9674" data-name="Group 9674" transform="translate(292.473 -10.776)">
      <circle id="Ellipse_1000" data-name="Ellipse 1000" cx="19.684" cy="19.684" r="19.684" transform="translate(15.968 58.468)" fill="#4dcaed"/>
    </g>
    <g id="Group_9675" data-name="Group 9675" transform="translate(292.473 -10.776)">
      <circle id="Ellipse_1001" data-name="Ellipse 1001" cx="18.044" cy="18.044" r="18.044" transform="translate(17.608 60.108)" fill="url(#linear-gradient-3)"/>
    </g>
    <g id="Group_9676" data-name="Group 9676" transform="translate(292.473 -10.776)">
      <circle id="Ellipse_1002" data-name="Ellipse 1002" cx="13.534" cy="13.534" r="13.534" transform="translate(22.119 64.619)" fill="#b7bdd2"/>
    </g>
    <g id="Group_9677" data-name="Group 9677" transform="translate(292.473 -10.776)">
      <path id="Path_475468" data-name="Path 475468" d="M67.071,30.136A12.456,12.456,0,0,1,69.02,31.59,38.307,38.307,0,0,1,81.345,53.2c1.7,7.787,2.522,11.558-1.571,14.4-5.524,3.833,5.9,20.213,8.131,24.953-2.945,3.777-6.785,3.7-8.814,4.743-1.125.58-.66,2.728-.478,4.382.178,1.619,1.67,2.638.852,3.892-.733,1.124-3.5,1.2-4.707,1.979,1.158,1.275,3.733,2.554,3.394,4.212-.261,1.28-3.15,1.055-4.262,3.97-.6,1.562-.289,4.459-1.521,5.921a8.931,8.931,0,0,1-6.549,3.479,10.552,10.552,0,0,1-4.384-.457,48.367,48.367,0,0,1-12.709-6.386c1.577.264,3.293.512,5.1.713,5.242.582,7.875.079,10.392-2.906,1.084-1.286.813-3.832,1.338-5.206.978-2.562,3.518-2.364,3.747-3.491.3-1.458-1.966-2.582-2.984-3.7,1.058-.679,3.495-.75,4.14-1.739.719-1.1-.593-2-.749-3.423-.16-1.454-.571-3.342.419-3.852,1.785-.921,5.161-.848,7.75-4.169C75.92,86.336,65.873,71.934,70.73,68.563c3.6-2.5,2.879-5.812,1.381-12.658a33.689,33.689,0,0,0-10.837-19,15.681,15.681,0,0,0-5.456-3A48.722,48.722,0,0,1,67.071,30.136Z" fill-rule="evenodd" fill="url(#linear-gradient-4)"/>
    </g>
    <g id="Group_9678" data-name="Group 9678" transform="translate(292.473 -10.776)">
      <path id="Path_475469" data-name="Path 475469" d="M78.154,29.176q1.557.043,3.129.185a49,49,0,0,1-2.659,97.77,10.011,10.011,0,0,0,.994-.892c2.078-2.137,2.474-4.709,2.833-7.333.188-1.33,1.189-1.43,2.044-1.923,3.707-2.139,2.134-7.077,2.134-7.077a5.5,5.5,0,0,0,2.092-3.367c.331-1.874-.939-3.482-1.206-5.635.516-.146,1.032-.294,1.541-.461,4.168-1.366,9.879-4.681,7.719-9.162-2.4-4.974-5.727-9.674-7.91-14.843-.853-2.019-1.825-4.057-1.5-5.921,4.063-2.924,4.907-7.673,4.322-11.971C90.146,47.177,85.809,36.886,78.154,29.176Z" fill="#d1d1e0" fill-rule="evenodd"/>
    </g>
    <g id="Group_9679" data-name="Group 9679" transform="translate(292.473 -10.776)">
      <path id="Path_475470" data-name="Path 475470" d="M89.445,36.4A47.413,47.413,0,0,1,106.957,47.67c9.279,9.592,14.8,23.535,12.123,36.532-2.533,12.3-13.214,22.556-20.291,25.714-3.388,1.512-6.135,1.291-6.117.879s.448-1.275,2.57-3.832c7.591-9.154,12.062-22.524,5.39-32.964a22.9,22.9,0,0,0-4.882-5.434A15.4,15.4,0,0,0,97.088,59.3,60.733,60.733,0,0,0,89.445,36.4Z" fill-rule="evenodd" fill="url(#linear-gradient-5)"/>
    </g>
    <g id="Group_9680" data-name="Group 9680" transform="translate(292.473 -10.776)">
      <path id="Path_475471" data-name="Path 475471" d="M75.687,10.786a76.779,76.779,0,0,0-38.85,80.847c-.389.034-.784.052-1.184.052A13.541,13.541,0,0,1,22.119,78.152a89.847,89.847,0,0,1,21.8-58.782A67,67,0,0,1,75.687,10.786Z" fill-rule="evenodd" fill="url(#linear-gradient-6)"/>
    </g>
    <g id="Group_9681" data-name="Group 9681" transform="translate(292.473 -10.776)">
      <path id="Path_475472" data-name="Path 475472" d="M43.917,19.37A67.386,67.386,0,0,1,144.234,78.16c0,36.012-32.7,69.235-81.329,58.6l-.111-.094c29.093,3.092,50.537-8.757,62.163-26.071l.07-.105a57.725,57.725,0,0,0,9.847-32.332v-.008A58.023,58.023,0,0,0,27.3,47.967,90.216,90.216,0,0,1,43.917,19.37Z" fill="#94a2c1" fill-rule="evenodd"/>
    </g>
    <g id="Group_9682" data-name="Group 9682" transform="translate(292.473 -10.776)">
      <path id="Path_475473" data-name="Path 475473" d="M76.851,10.776A67.415,67.415,0,0,1,144.234,78.16a60.177,60.177,0,0,1-14.682,39.314,65.75,65.75,0,0,0-88.7-94.338q1.483-1.925,3.066-3.766a67.148,67.148,0,0,1,13.061-5.611l.02-.005.495-.151H57.5l.509-.151.509-.146.016,0,.477-.133.051-.014.494-.133.518-.135.488-.122.072-.018.442-.108.06-.014.5-.119.5-.113.072-.016.425-.092.1-.021.453-.1.039-.009.512-.1.039-.008.449-.087.115-.021.4-.074.106-.018.5-.089.5-.083.113-.018.387-.063.134-.021.413-.063.083-.013.5-.072.086-.012.41-.055.145-.02.371-.047.135-.017.5-.059.5-.055.141-.016.366-.036.156-.016.392-.036.109-.01.5-.043.111-.009.392-.03.162-.012.361-.025.15-.01.5-.031.5-.026.152-.008.361-.016.165-.007.389-.014.12-.005.5-.014.12,0,.391-.008.167,0,.362,0h.156Z" fill="#b7bdd2" fill-rule="evenodd"/>
    </g>
  </g>
</svg>
